ISO-10303-21;
HEADER;
FILE_DESCRIPTION (( 'STEP AP214' ),
    '1' );
FILE_NAME ('Team-A4_motor-holder-left.STEP',
    '2026-05-03T16:20:42',
    ( '' ),
    ( '' ),
    'SwSTEP 2.0',
    'SolidWorks 2025',
    '' );
FILE_SCHEMA (( 'AUTOMOTIVE_DESIGN' ));
ENDSEC;

DATA;
#1 = UNCERTAINTY_MEASURE_WITH_UNIT (LENGTH_MEASURE( 1.000000000000000082E-05 ), #889, 'distance_accuracy_value', 'NONE');
#2 = LINE ( 'NONE', #695, #28 ) ;
#3 = EDGE_CURVE ( 'NONE', #106, #632, #147, .T. ) ;
#4 = CARTESIAN_POINT ( 'NONE',  ( 32.00000000000000000, 0.000000000000000000, 11.00000000000000000 ) ) ;
#5 = VERTEX_POINT ( 'NONE', #140 ) ;
#6 = DIRECTION ( 'NONE',  ( 0.000000000000000000, 1.000000000000000000, 0.000000000000000000 ) ) ;
#7 = AXIS2_PLACEMENT_3D ( 'NONE', #355, #56, #179 ) ;
#8 = CARTESIAN_POINT ( 'NONE',  ( 45.00000000000000711, -1.999999999999997780, 5.499999999999998224 ) ) ;
#9 = ORIENTED_EDGE ( 'NONE', *, *, #150, .T. ) ;
#10 = AXIS2_PLACEMENT_3D ( 'NONE', #298, #73, #740 ) ;
#11 = AXIS2_PLACEMENT_3D ( 'NONE', #441, #897, #530 ) ;
#12 = ORIENTED_EDGE ( 'NONE', *, *, #540, .T. ) ;
#13 = CARTESIAN_POINT ( 'NONE',  ( 0.000000000000000000, 0.000000000000000000, 0.000000000000000000 ) ) ;
#14 = CARTESIAN_POINT ( 'NONE',  ( 0.000000000000000000, 3.380000000000002114, 26.81999999999999673 ) ) ;
#15 = CIRCLE ( 'NONE', #900, 1.599999999999997202 ) ;
#16 = DIRECTION ( 'NONE',  ( 0.000000000000000000, 1.000000000000000000, 0.000000000000000000 ) ) ;
#17 = EDGE_CURVE ( 'NONE', #465, #656, #215, .T. ) ;
#18 = EDGE_CURVE ( 'NONE', #786, #201, #214, .T. ) ;
#19 = ORIENTED_EDGE ( 'NONE', *, *, #829, .F. ) ;
#20 = DIRECTION ( 'NONE',  ( -1.000000000000000000, 0.000000000000000000, 0.000000000000000000 ) ) ;
#21 = DIRECTION ( 'NONE',  ( 0.000000000000000000, -1.000000000000000000, 0.000000000000000000 ) ) ;
#22 = ORIENTED_EDGE ( 'NONE', *, *, #122, .T. ) ;
#23 = AXIS2_PLACEMENT_3D ( 'NONE', #764, #321, #468 ) ;
#24 = VERTEX_POINT ( 'NONE', #225 ) ;
#25 = CARTESIAN_POINT ( 'NONE',  ( 20.00000000000000000, 48.00000000000000000, 37.00000000000000711 ) ) ;
#26 = CARTESIAN_POINT ( 'NONE',  ( 45.00000000000000711, 6.880000000000006111, 26.81999999999999673 ) ) ;
#27 = EDGE_LOOP ( 'NONE', ( #869, #233, #110, #896 ) ) ;
#28 = VECTOR ( 'NONE', #603, 1000.000000000000000 ) ;
#29 = ORIENTED_EDGE ( 'NONE', *, *, #366, .F. ) ;
#30 = PLANE ( 'NONE',  #523 ) ;
#31 = DIRECTION ( 'NONE',  ( 0.000000000000000000, 0.000000000000000000, -1.000000000000000000 ) ) ;
#32 = EDGE_LOOP ( 'NONE', ( #730, #921, #349, #33, #820, #237, #622, #964 ) ) ;
#33 = ORIENTED_EDGE ( 'NONE', *, *, #791, .F. ) ;
#34 = DIRECTION ( 'NONE',  ( 0.000000000000000000, 0.000000000000000000, -1.000000000000000000 ) ) ;
#35 = CARTESIAN_POINT ( 'NONE',  ( 38.00000000000000000, 0.000000000000000000, 48.00000000000000000 ) ) ;
#36 = ORIENTED_EDGE ( 'NONE', *, *, #751, .F. ) ;
#37 = PLANE ( 'NONE',  #681 ) ;
#38 = LINE ( 'NONE', #653, #579 ) ;
#39 = CARTESIAN_POINT ( 'NONE',  ( 45.00000000000000711, 3.380000000000006111, 26.81999999999999673 ) ) ;
#40 = ORIENTED_EDGE ( 'NONE', *, *, #884, .T. ) ;
#41 = CARTESIAN_POINT ( 'NONE',  ( 0.000000000000000000, 8.480000000000002203, 40.57999999999999829 ) ) ;
#42 = DIRECTION ( 'NONE',  ( -1.000000000000000000, -1.046815890675659458E-16, -0.000000000000000000 ) ) ;
#43 = EDGE_LOOP ( 'NONE', ( #980, #552 ) ) ;
#44 = CARTESIAN_POINT ( 'NONE',  ( 20.00000000000000000, 48.00000000000000000, 38.60000000000000853 ) ) ;
#45 = CARTESIAN_POINT ( 'NONE',  ( 45.00000000000000711, 8.980000000000007532, 16.16000000000000014 ) ) ;
#46 = ORIENTED_EDGE ( 'NONE', *, *, #389, .F. ) ;
#47 = CARTESIAN_POINT ( 'NONE',  ( 0.000000000000000000, 21.99999999999999645, 48.00000000000000000 ) ) ;
#48 = DIRECTION ( 'NONE',  ( -1.000000000000000000, -1.046815890675659458E-16, -0.000000000000000000 ) ) ;
#49 = EDGE_CURVE ( 'NONE', #945, #682, #608, .T. ) ;
#50 = ADVANCED_FACE ( 'NONE', ( #362 ), #887, .F. ) ;
#51 = AXIS2_PLACEMENT_3D ( 'NONE', #197, #273, #65 ) ;
#52 = DIRECTION ( 'NONE',  ( -1.000000000000000000, -1.046815890675659458E-16, -0.000000000000000000 ) ) ;
#53 = CARTESIAN_POINT ( 'NONE',  ( -2.999999999999997780, -0.4000000000000030198, 5.499999999999998224 ) ) ;
#54 = CARTESIAN_POINT ( 'NONE',  ( 45.00000000000000711, 6.880000000000006111, 16.16000000000000014 ) ) ;
#55 = ORIENTED_EDGE ( 'NONE', *, *, #749, .F. ) ;
#56 = DIRECTION ( 'NONE',  ( -1.000000000000000000, 0.000000000000000000, 0.000000000000000000 ) ) ;
#57 = CIRCLE ( 'NONE', #750, 3.499999999999999556 ) ;
#58 = CARTESIAN_POINT ( 'NONE',  ( 32.00000000000000000, 3.000000000000002665, 12.59999999999999609 ) ) ;
#59 = DIRECTION ( 'NONE',  ( -0.000000000000000000, -0.000000000000000000, -1.000000000000000000 ) ) ;
#60 = AXIS2_PLACEMENT_3D ( 'NONE', #712, #952, #733 ) ;
#61 = CIRCLE ( 'NONE', #436, 3.499999999999999556 ) ;
#62 = ORIENTED_EDGE ( 'NONE', *, *, #293, .F. ) ;
#63 = VECTOR ( 'NONE', #210, 1000.000000000000000 ) ;
#64 = FACE_OUTER_BOUND ( 'NONE', #136, .T. ) ;
#65 = DIRECTION ( 'NONE',  ( 0.000000000000000000, 0.000000000000000000, 1.000000000000000000 ) ) ;
#66 = VECTOR ( 'NONE', #208, 1000.000000000000000 ) ;
#67 = ORIENTED_EDGE ( 'NONE', *, *, #884, .F. ) ;
#68 = CYLINDRICAL_SURFACE ( 'NONE', #437, 2.100000000000000977 ) ;
#69 = ADVANCED_FACE ( 'NONE', ( #678, #372, #985, #299, #902 ), #679, .F. ) ;
#70 = ORIENTED_EDGE ( 'NONE', *, *, #925, .F. ) ;
#71 = SURFACE_STYLE_USAGE ( .BOTH. , #216 ) ;
#72 = ORIENTED_EDGE ( 'NONE', *, *, #150, .F. ) ;
#73 = DIRECTION ( 'NONE',  ( -1.000000000000000000, 0.000000000000000000, 0.000000000000000000 ) ) ;
#74 = LINE ( 'NONE', #590, #784 ) ;
#75 = DIRECTION ( 'NONE',  ( 0.000000000000000000, 0.000000000000000000, 1.000000000000000000 ) ) ;
#76 = ORIENTED_EDGE ( 'NONE', *, *, #705, .F. ) ;
#77 = EDGE_CURVE ( 'NONE', #24, #388, #891, .T. ) ;
#78 = DIRECTION ( 'NONE',  ( 0.000000000000000000, -1.000000000000000000, 0.000000000000000000 ) ) ;
#79 = LINE ( 'NONE', #824, #610 ) ;
#80 = DIRECTION ( 'NONE',  ( -1.000000000000000000, -1.046815890675659458E-16, -0.000000000000000000 ) ) ;
#81 = DIRECTION ( 'NONE',  ( 0.000000000000000000, -1.000000000000000000, 0.000000000000000000 ) ) ;
#82 = VERTEX_POINT ( 'NONE', #438 ) ;
#83 = VERTEX_POINT ( 'NONE', #230 ) ;
#84 = DIRECTION ( 'NONE',  ( 0.000000000000000000, -1.000000000000000000, 0.000000000000000000 ) ) ;
#85 = CYLINDRICAL_SURFACE ( 'NONE', #746, 3.499999999999999556 ) ;
#86 = EDGE_CURVE ( 'NONE', #82, #924, #2, .T. ) ;
#87 = EDGE_CURVE ( 'NONE', #257, #656, #950, .T. ) ;
#88 = ORIENTED_EDGE ( 'NONE', *, *, #961, .F. ) ;
#89 = CARTESIAN_POINT ( 'NONE',  ( 0.000000000000000000, -2.000000000000002665, 5.499999999999998224 ) ) ;
#90 = EDGE_LOOP ( 'NONE', ( #243, #483 ) ) ;
#91 = DIRECTION ( 'NONE',  ( 0.000000000000000000, 1.000000000000000000, 0.000000000000000000 ) ) ;
#92 = DIRECTION ( 'NONE',  ( 0.000000000000000000, -1.000000000000000000, 0.000000000000000000 ) ) ;
#93 = ORIENTED_EDGE ( 'NONE', *, *, #219, .F. ) ;
#94 = ORIENTED_EDGE ( 'NONE', *, *, #501, .F. ) ;
#95 = FACE_BOUND ( 'NONE', #262, .T. ) ;
#96 = CYLINDRICAL_SURFACE ( 'NONE', #875, 1.600000000000000311 ) ;
#97 = ORIENTED_EDGE ( 'NONE', *, *, #324, .T. ) ;
#98 = CIRCLE ( 'NONE', #302, 1.600000000000002531 ) ;
#99 = VECTOR ( 'NONE', #731, 1000.000000000000000 ) ;
#100 = ORIENTED_EDGE ( 'NONE', *, *, #3, .T. ) ;
#101 = FACE_OUTER_BOUND ( 'NONE', #613, .T. ) ;
#102 = CARTESIAN_POINT ( 'NONE',  ( 0.000000000000000000, 3.000000000000000000, 0.000000000000000000 ) ) ;
#103 = PRODUCT_DEFINITION ( 'UNKNOWN', '', #131, #703 ) ;
#104 = ADVANCED_FACE ( 'NONE', ( #303 ), #700, .F. ) ;
#105 = AXIS2_PLACEMENT_3D ( 'NONE', #832, #213, #595 ) ;
#106 = VERTEX_POINT ( 'NONE', #856 ) ;
#107 = ADVANCED_FACE ( 'NONE', ( #386, #690, #908, #457, #101 ), #932, .F. ) ;
#108 = CARTESIAN_POINT ( 'NONE',  ( 20.00000000000000000, 3.000000000000002665, 38.60000000000000853 ) ) ;
#109 = DIRECTION ( 'NONE',  ( 1.000000000000000000, 0.000000000000000000, 0.000000000000000000 ) ) ;
#110 = ORIENTED_EDGE ( 'NONE', *, *, #219, .T. ) ;
#111 = AXIS2_PLACEMENT_3D ( 'NONE', #655, #200, #581 ) ;
#112 = ORIENTED_EDGE ( 'NONE', *, *, #389, .T. ) ;
#113 = ORIENTED_EDGE ( 'NONE', *, *, #791, .T. ) ;
#114 = DIRECTION ( 'NONE',  ( 0.000000000000000000, 0.000000000000000000, -1.000000000000000000 ) ) ;
#115 = ORIENTED_EDGE ( 'NONE', *, *, #18, .T. ) ;
#116 = LINE ( 'NONE', #129, #374 ) ;
#117 = AXIS2_PLACEMENT_3D ( 'NONE', #938, #702, #551 ) ;
#118 = CARTESIAN_POINT ( 'NONE',  ( -2.999999999999998668, 5.280000000000004690, 40.57999999999999829 ) ) ;
#119 = CARTESIAN_POINT ( 'NONE',  ( 32.00000000000000000, 48.00000000000000000, 38.60000000000000142 ) ) ;
#120 = DIRECTION ( 'NONE',  ( 0.000000000000000000, 1.000000000000000000, 0.000000000000000000 ) ) ;
#121 = ORIENTED_EDGE ( 'NONE', *, *, #798, .T. ) ;
#122 = EDGE_CURVE ( 'NONE', #710, #823, #770, .T. ) ;
#123 = CARTESIAN_POINT ( 'NONE',  ( -3.000000000000000000, 22.00000000000000000, 0.000000000000000000 ) ) ;
#124 = EDGE_CURVE ( 'NONE', #317, #965, #61, .T. ) ;
#125 = EDGE_CURVE ( 'NONE', #711, #83, #375, .T. ) ;
#126 = CARTESIAN_POINT ( 'NONE',  ( 0.000000000000000000, 3.000000000000000000, 48.00000000000000000 ) ) ;
#127 = LINE ( 'NONE', #868, #831 ) ;
#128 = ORIENTED_EDGE ( 'NONE', *, *, #539, .F. ) ;
#129 = CARTESIAN_POINT ( 'NONE',  ( 38.00000000000000000, 3.000000000000000000, 48.00000000000000000 ) ) ;
#130 = CARTESIAN_POINT ( 'NONE',  ( 45.00000000000000711, 5.280000000000009130, 40.57999999999999829 ) ) ;
#131 = PRODUCT_DEFINITION_FORMATION_WITH_SPECIFIED_SOURCE ( 'ANY', '', #297, .NOT_KNOWN. ) ;
#132 = DIRECTION ( 'NONE',  ( 0.000000000000000000, 0.000000000000000000, -1.000000000000000000 ) ) ;
#133 = LINE ( 'NONE', #499, #167 ) ;
#134 = CARTESIAN_POINT ( 'NONE',  ( 20.00000000000000000, 48.00000000000000000, 9.399999999999993250 ) ) ;
#135 = LINE ( 'NONE', #352, #487 ) ;
#136 = EDGE_LOOP ( 'NONE', ( #254, #841, #9, #699 ) ) ;
#137 = CARTESIAN_POINT ( 'NONE',  ( 32.00000000000000000, 48.00000000000000000, 9.400000000000002132 ) ) ;
#138 = VECTOR ( 'NONE', #801, 1000.000000000000000 ) ;
#139 = VECTOR ( 'NONE', #91, 1000.000000000000000 ) ;
#140 = CARTESIAN_POINT ( 'NONE',  ( 0.000000000000000000, 17.34999999999999787, 5.499999999999998224 ) ) ;
#141 = AXIS2_PLACEMENT_3D ( 'NONE', #728, #577, #747 ) ;
#142 = DIRECTION ( 'NONE',  ( 0.000000000000000000, -1.000000000000000000, 0.000000000000000000 ) ) ;
#143 = ORIENTED_EDGE ( 'NONE', *, *, #175, .T. ) ;
#144 = DIRECTION ( 'NONE',  ( -0.000000000000000000, -1.000000000000000000, -0.000000000000000000 ) ) ;
#145 = EDGE_CURVE ( 'NONE', #633, #402, #683, .T. ) ;
#146 = CIRCLE ( 'NONE', #445, 1.599999999999998090 ) ;
#147 = LINE ( 'NONE', #447, #593 ) ;
#148 =( LENGTH_UNIT ( ) NAMED_UNIT ( * ) SI_UNIT ( .MILLI., .METRE. ) );
#149 = PRODUCT_CONTEXT ( 'NONE', #212, 'mechanical' ) ;
#150 = EDGE_CURVE ( 'NONE', #913, #632, #449, .T. ) ;
#151 = ORIENTED_EDGE ( 'NONE', *, *, #749, .T. ) ;
#152 = CARTESIAN_POINT ( 'NONE',  ( 32.00000000000000000, 3.000000000000002665, 9.400000000000002132 ) ) ;
#153 = PLANE ( 'NONE',  #837 ) ;
#154 = CARTESIAN_POINT ( 'NONE',  ( 0.000000000000000000, -3.600000000000002753, 5.499999999999998224 ) ) ;
#155 = ORIENTED_EDGE ( 'NONE', *, *, #320, .T. ) ;
#156 = DIRECTION ( 'NONE',  ( 0.000000000000000000, 0.000000000000000000, 1.000000000000000000 ) ) ;
#157 = CARTESIAN_POINT ( 'NONE',  ( 20.00000000000000000, 3.000000000000002665, 10.99999999999999645 ) ) ;
#158 = ADVANCED_FACE ( 'NONE', ( #541 ), #153, .T. ) ;
#159 = ORIENTED_EDGE ( 'NONE', *, *, #983, .F. ) ;
#160 = CARTESIAN_POINT ( 'NONE',  ( -2.999999999999998668, 6.880000000000000782, 26.81999999999999673 ) ) ;
#161 = DIRECTION ( 'NONE',  ( -1.000000000000000000, -1.046815890675659458E-16, 0.000000000000000000 ) ) ;
#162 = CARTESIAN_POINT ( 'NONE',  ( -2.999999999999996891, -7.000000000000002665, 48.00000000000000000 ) ) ;
#163 = EDGE_LOOP ( 'NONE', ( #782, #533 ) ) ;
#164 = CARTESIAN_POINT ( 'NONE',  ( 0.000000000000000000, 10.38000000000000078, 26.81999999999999673 ) ) ;
#165 = FACE_OUTER_BOUND ( 'NONE', #880, .T. ) ;
#166 = ADVANCED_FACE ( 'NONE', ( #454, #95, #169, #308, #776, #611 ), #235, .F. ) ;
#167 = VECTOR ( 'NONE', #405, 1000.000000000000000 ) ;
#168 = ORIENTED_EDGE ( 'NONE', *, *, #575, .T. ) ;
#169 = FACE_BOUND ( 'NONE', #195, .T. ) ;
#170 = FACE_OUTER_BOUND ( 'NONE', #403, .T. ) ;
#171 = ORIENTED_EDGE ( 'NONE', *, *, #464, .T. ) ;
#172 = AXIS2_PLACEMENT_3D ( 'NONE', #684, #542, #535 ) ;
#173 = EDGE_CURVE ( 'NONE', #745, #934, #315, .T. ) ;
#174 = CARTESIAN_POINT ( 'NONE',  ( -2.999999999999996891, -7.000000000000002665, 48.00000000000000000 ) ) ;
#175 = EDGE_CURVE ( 'NONE', #965, #317, #973, .T. ) ;
#176 = ORIENTED_EDGE ( 'NONE', *, *, #704, .T. ) ;
#177 = ORIENTED_EDGE ( 'NONE', *, *, #359, .F. ) ;
#178 = FACE_BOUND ( 'NONE', #184, .T. ) ;
#179 = DIRECTION ( 'NONE',  ( 0.000000000000000000, 0.000000000000000000, 1.000000000000000000 ) ) ;
#180 = VECTOR ( 'NONE', #413, 1000.000000000000000 ) ;
#181 = CIRCLE ( 'NONE', #60, 1.600000000000004086 ) ;
#182 = ORIENTED_EDGE ( 'NONE', *, *, #125, .F. ) ;
#183 = ORIENTED_EDGE ( 'NONE', *, *, #353, .F. ) ;
#184 = EDGE_LOOP ( 'NONE', ( #40, #598 ) ) ;
#185 = CARTESIAN_POINT ( 'NONE',  ( 20.00000000000000000, 0.000000000000000000, 37.00000000000000711 ) ) ;
#186 = CARTESIAN_POINT ( 'NONE',  ( 0.000000000000000000, 21.99999999999999645, 0.000000000000000000 ) ) ;
#187 = VERTEX_POINT ( 'NONE', #164 ) ;
#188 = DIRECTION ( 'NONE',  ( 0.000000000000000000, 0.000000000000000000, -1.000000000000000000 ) ) ;
#189 = EDGE_LOOP ( 'NONE', ( #947, #415 ) ) ;
#190 = EDGE_LOOP ( 'NONE', ( #713, #639, #121, #957 ) ) ;
#191 = CARTESIAN_POINT ( 'NONE',  ( 32.00000000000000000, 48.00000000000000000, 37.00000000000000711 ) ) ;
#192 = ADVANCED_FACE ( 'NONE', ( #467 ), #392, .F. ) ;
#193 = EDGE_CURVE ( 'NONE', #671, #710, #861, .T. ) ;
#194 = DIRECTION ( 'NONE',  ( 0.000000000000000000, -1.000000000000000000, 0.000000000000000000 ) ) ;
#195 = EDGE_LOOP ( 'NONE', ( #594, #385 ) ) ;
#196 = DIRECTION ( 'NONE',  ( 1.046815890675659581E-16, -1.000000000000000000, 0.000000000000000000 ) ) ;
#197 = CARTESIAN_POINT ( 'NONE',  ( 0.000000000000000000, 6.880000000000003446, 40.57999999999999829 ) ) ;
#198 = ORIENTED_EDGE ( 'NONE', *, *, #539, .T. ) ;
#199 = FACE_BOUND ( 'NONE', #333, .T. ) ;
#200 = DIRECTION ( 'NONE',  ( -1.000000000000000000, -1.046815890675659458E-16, 0.000000000000000000 ) ) ;
#201 = VERTEX_POINT ( 'NONE', #108 ) ;
#202 = DIRECTION ( 'NONE',  ( -0.000000000000000000, -0.000000000000000000, -1.000000000000000000 ) ) ;
#203 = EDGE_LOOP ( 'NONE', ( #489, #67, #761, #918 ) ) ;
#204 = VECTOR ( 'NONE', #623, 1000.000000000000000 ) ;
#205 = LINE ( 'NONE', #717, #99 ) ;
#206 = DIRECTION ( 'NONE',  ( -1.000000000000000000, 1.156482317317871331E-15, 0.000000000000000000 ) ) ;
#207 = CARTESIAN_POINT ( 'NONE',  ( 0.000000000000000000, 0.000000000000000000, 48.00000000000000000 ) ) ;
#208 = DIRECTION ( 'NONE',  ( 1.046815890675659581E-16, -1.000000000000000000, 0.000000000000000000 ) ) ;
#209 = EDGE_LOOP ( 'NONE', ( #638, #128 ) ) ;
#210 = DIRECTION ( 'NONE',  ( 1.000000000000000000, 0.000000000000000000, 0.000000000000000000 ) ) ;
#211 = CARTESIAN_POINT ( 'NONE',  ( 45.00000000000000711, -0.3999999999999978018, 5.499999999999998224 ) ) ;
#212 = APPLICATION_CONTEXT ( 'automotive_design' ) ;
#213 = DIRECTION ( 'NONE',  ( 0.000000000000000000, -1.000000000000000000, 0.000000000000000000 ) ) ;
#214 = CIRCLE ( 'NONE', #882, 1.600000000000004086 ) ;
#215 = LINE ( 'NONE', #982, #382 ) ;
#216 = SURFACE_SIDE_STYLE ('',( #903 ) ) ;
#217 = VECTOR ( 'NONE', #109, 1000.000000000000000 ) ;
#218 = DIRECTION ( 'NONE',  ( -1.000000000000000000, -1.046815890675659458E-16, -0.000000000000000000 ) ) ;
#219 = EDGE_CURVE ( 'NONE', #786, #234, #38, .T. ) ;
#220 = ADVANCED_FACE ( 'NONE', ( #876 ), #571, .F. ) ;
#221 =( NAMED_UNIT ( * ) PLANE_ANGLE_UNIT ( ) SI_UNIT ( $, .RADIAN. ) );
#222 = ADVANCED_FACE ( 'NONE', ( #339 ), #800, .F. ) ;
#223 = ORIENTED_EDGE ( 'NONE', *, *, #572, .F. ) ;
#224 = CIRCLE ( 'NONE', #172, 1.599999999999997202 ) ;
#225 = CARTESIAN_POINT ( 'NONE',  ( 0.000000000000000000, -0.4000000000000023537, 5.499999999999998224 ) ) ;
#226 = VECTOR ( 'NONE', #354, 1000.000000000000000 ) ;
#227 = FACE_OUTER_BOUND ( 'NONE', #724, .T. ) ;
#228 = AXIS2_PLACEMENT_3D ( 'NONE', #393, #839, #455 ) ;
#229 = VERTEX_POINT ( 'NONE', #409 ) ;
#230 = CARTESIAN_POINT ( 'NONE',  ( -2.999999999999997780, -3.600000000000003197, 5.499999999999998224 ) ) ;
#231 = AXIS2_PLACEMENT_3D ( 'NONE', #342, #648, #350 ) ;
#232 = CARTESIAN_POINT ( 'NONE',  ( 0.000000000000000000, 6.880000000000001670, 16.16000000000000014 ) ) ;
#233 = ORIENTED_EDGE ( 'NONE', *, *, #18, .F. ) ;
#234 = VERTEX_POINT ( 'NONE', #949 ) ;
#235 = PLANE ( 'NONE',  #400 ) ;
#236 = CARTESIAN_POINT ( 'NONE',  ( -2.999999999999998668, 8.480000000000000426, 40.57999999999999829 ) ) ;
#237 = ORIENTED_EDGE ( 'NONE', *, *, #193, .F. ) ;
#238 = DIRECTION ( 'NONE',  ( -1.000000000000000000, -1.046815890675659458E-16, 0.000000000000000000 ) ) ;
#239 = VECTOR ( 'NONE', #768, 1000.000000000000000 ) ;
#240 = DIRECTION ( 'NONE',  ( 0.000000000000000000, -1.000000000000000000, 0.000000000000000000 ) ) ;
#241 = VERTEX_POINT ( 'NONE', #967 ) ;
#242 = LINE ( 'NONE', #162, #431 ) ;
#243 = ORIENTED_EDGE ( 'NONE', *, *, #295, .T. ) ;
#244 = CARTESIAN_POINT ( 'NONE',  ( 45.00000000000000711, -3.599999999999998312, 5.499999999999998224 ) ) ;
#245 = CARTESIAN_POINT ( 'NONE',  ( 20.00000000000000000, 3.000000000000002665, 37.00000000000000711 ) ) ;
#246 = ORIENTED_EDGE ( 'NONE', *, *, #125, .T. ) ;
#247 = CARTESIAN_POINT ( 'NONE',  ( 45.00000000000000000, 17.35000000000000142, 5.499999999999998224 ) ) ;
#248 = ORIENTED_EDGE ( 'NONE', *, *, #501, .T. ) ;
#249 = DIRECTION ( 'NONE',  ( -1.000000000000000000, -1.046815890675659458E-16, 0.000000000000000000 ) ) ;
#250 = CARTESIAN_POINT ( 'NONE',  ( 20.00000000000000000, 0.000000000000000000, 10.99999999999999645 ) ) ;
#251 = ADVANCED_FACE ( 'NONE', ( #492 ), #268, .F. ) ;
#252 = ORIENTED_EDGE ( 'NONE', *, *, #676, .T. ) ;
#253 = CARTESIAN_POINT ( 'NONE',  ( 32.00000000000000000, 0.000000000000000000, 35.40000000000000568 ) ) ;
#254 = ORIENTED_EDGE ( 'NONE', *, *, #463, .F. ) ;
#255 = DIRECTION ( 'NONE',  ( -0.000000000000000000, -1.000000000000000000, -0.000000000000000000 ) ) ;
#256 = DIRECTION ( 'NONE',  ( 0.000000000000000000, 0.000000000000000000, -1.000000000000000000 ) ) ;
#257 = VERTEX_POINT ( 'NONE', #118 ) ;
#258 = ORIENTED_EDGE ( 'NONE', *, *, #439, .T. ) ;
#259 = DIRECTION ( 'NONE',  ( -0.000000000000000000, -1.000000000000000000, -0.000000000000000000 ) ) ;
#260 = CARTESIAN_POINT ( 'NONE',  ( 20.00000000000000000, 3.000000000000002665, 10.99999999999999645 ) ) ;
#261 = CIRCLE ( 'NONE', #7, 3.499999999999999556 ) ;
#262 = EDGE_LOOP ( 'NONE', ( #70, #301 ) ) ;
#263 = CARTESIAN_POINT ( 'NONE',  ( -3.000000000000000000, 22.00000000000000000, 48.00000000000000000 ) ) ;
#264 = AXIS2_PLACEMENT_3D ( 'NONE', #744, #443, #520 ) ;
#265 = ADVANCED_FACE ( 'NONE', ( #564, #505, #199, #178, #558 ), #30, .F. ) ;
#266 = EDGE_CURVE ( 'NONE', #234, #545, #358, .T. ) ;
#267 = ORIENTED_EDGE ( 'NONE', *, *, #312, .T. ) ;
#268 = CYLINDRICAL_SURFACE ( 'NONE', #970, 1.599999999999997202 ) ;
#269 = LINE ( 'NONE', #186, #557 ) ;
#270 = ORIENTED_EDGE ( 'NONE', *, *, #979, .F. ) ;
#271 = LINE ( 'NONE', #207, #180 ) ;
#272 = AXIS2_PLACEMENT_3D ( 'NONE', #343, #803, #569 ) ;
#273 = DIRECTION ( 'NONE',  ( -1.000000000000000000, 0.000000000000000000, 0.000000000000000000 ) ) ;
#274 = DIRECTION ( 'NONE',  ( -0.000000000000000000, -1.000000000000000000, -0.000000000000000000 ) ) ;
#275 = DIRECTION ( 'NONE',  ( -0.000000000000000000, -1.000000000000000000, -0.000000000000000000 ) ) ;
#276 = DIRECTION ( 'NONE',  ( -0.000000000000000000, -0.000000000000000000, -1.000000000000000000 ) ) ;
#277 = DIRECTION ( 'NONE',  ( -1.000000000000000000, -1.046815890675659458E-16, -0.000000000000000000 ) ) ;
#278 = EDGE_CURVE ( 'NONE', #364, #633, #205, .T. ) ;
#279 = AXIS2_PLACEMENT_3D ( 'NONE', #300, #600, #836 ) ;
#280 = ADVANCED_FACE ( 'NONE', ( #726 ), #640, .F. ) ;
#281 = LINE ( 'NONE', #506, #668 ) ;
#282 = CARTESIAN_POINT ( 'NONE',  ( -3.000000000000000000, 22.00000000000000000, 48.00000000000000000 ) ) ;
#283 = CLOSED_SHELL ( 'NONE', ( #599, #649, #926, #650, #895, #50, #222, #220, #280, #367, #107, #104, #69, #265, #440, #166, #725, #518, #158, #251, #853, #722, #192, #748, #911, #570, #738, #615 ) ) ;
#284 = DIRECTION ( 'NONE',  ( 0.000000000000000000, -1.000000000000000000, 0.000000000000000000 ) ) ;
#285 = EDGE_CURVE ( 'NONE', #201, #545, #708, .T. ) ;
#286 = CARTESIAN_POINT ( 'NONE',  ( 0.000000000000000000, -7.000000000000002665, 48.00000000000000000 ) ) ;
#287 = FACE_OUTER_BOUND ( 'NONE', #901, .T. ) ;
#288 = DIRECTION ( 'NONE',  ( 0.000000000000000000, 0.000000000000000000, -1.000000000000000000 ) ) ;
#289 = DIRECTION ( 'NONE',  ( -1.000000000000000000, 0.000000000000000000, -0.000000000000000000 ) ) ;
#290 = PRESENTATION_LAYER_ASSIGNMENT (  '', '', ( #621 ) ) ;
#291 = ORIENTED_EDGE ( 'NONE', *, *, #829, .T. ) ;
#292 = LINE ( 'NONE', #137, #716 ) ;
#293 = EDGE_CURVE ( 'NONE', #688, #187, #57, .T. ) ;
#294 = EDGE_CURVE ( 'NONE', #745, #809, #334, .T. ) ;
#295 = EDGE_CURVE ( 'NONE', #601, #460, #224, .T. ) ;
#296 = EDGE_CURVE ( 'NONE', #795, #779, #98, .T. ) ;
#297 = PRODUCT ( 'Team-A4_motor-holder-left', 'Team-A4_motor-holder-left', '', ( #149 ) ) ;
#298 = CARTESIAN_POINT ( 'NONE',  ( 0.000000000000000000, 6.880000000000001670, 16.16000000000000014 ) ) ;
#299 = FACE_BOUND ( 'NONE', #163, .T. ) ;
#300 = CARTESIAN_POINT ( 'NONE',  ( 45.00000000000000000, 15.75000000000000000, 5.499999999999998224 ) ) ;
#301 = ORIENTED_EDGE ( 'NONE', *, *, #481, .F. ) ;
#302 = AXIS2_PLACEMENT_3D ( 'NONE', #458, #624, #928 ) ;
#303 = FACE_OUTER_BOUND ( 'NONE', #605, .T. ) ;
#304 = PRESENTATION_STYLE_ASSIGNMENT (( #71 ) ) ;
#305 = EDGE_LOOP ( 'NONE', ( #115, #753 ) ) ;
#306 = AXIS2_PLACEMENT_3D ( 'NONE', #852, #631, #31 ) ;
#307 = EDGE_LOOP ( 'NONE', ( #804, #556, #674, #12 ) ) ;
#308 = FACE_BOUND ( 'NONE', #873, .T. ) ;
#309 = AXIS2_PLACEMENT_3D ( 'NONE', #381, #20, #156 ) ;
#310 = CIRCLE ( 'NONE', #11, 1.599999999999997202 ) ;
#311 = DIRECTION ( 'NONE',  ( 1.000000000000000000, 0.000000000000000000, 0.000000000000000000 ) ) ;
#312 = EDGE_CURVE ( 'NONE', #642, #677, #510, .T. ) ;
#313 = ORIENTED_EDGE ( 'NONE', *, *, #893, .T. ) ;
#314 = EDGE_LOOP ( 'NONE', ( #953, #855 ) ) ;
#315 = LINE ( 'NONE', #461, #139 ) ;
#316 = CARTESIAN_POINT ( 'NONE',  ( -2.999999999999999556, 15.74999999999999645, 5.499999999999998224 ) ) ;
#317 = VERTEX_POINT ( 'NONE', #566 ) ;
#318 = CARTESIAN_POINT ( 'NONE',  ( 0.000000000000000000, 0.000000000000000000, 48.00000000000000000 ) ) ;
#319 = CIRCLE ( 'NONE', #23, 1.599999999999999867 ) ;
#320 = EDGE_CURVE ( 'NONE', #377, #940, #959, .T. ) ;
#321 = DIRECTION ( 'NONE',  ( -1.000000000000000000, 0.000000000000000000, 0.000000000000000000 ) ) ;
#322 = ORIENTED_EDGE ( 'NONE', *, *, #792, .T. ) ;
#323 = EDGE_LOOP ( 'NONE', ( #609, #480 ) ) ;
#324 = EDGE_CURVE ( 'NONE', #469, #509, #765, .T. ) ;
#325 = DIRECTION ( 'NONE',  ( -0.000000000000000000, -1.000000000000000000, -0.000000000000000000 ) ) ;
#326 = DIRECTION ( 'NONE',  ( 0.000000000000000000, 0.000000000000000000, -1.000000000000000000 ) ) ;
#327 = ORIENTED_EDGE ( 'NONE', *, *, #278, .F. ) ;
#328 = ORIENTED_EDGE ( 'NONE', *, *, #773, .F. ) ;
#329 = CARTESIAN_POINT ( 'NONE',  ( 38.00000000000000000, 3.000000000000000000, 0.000000000000000000 ) ) ;
#330 = CARTESIAN_POINT ( 'NONE',  ( 0.000000000000000000, -7.000000000000002665, 48.00000000000000000 ) ) ;
#331 = VERTEX_POINT ( 'NONE', #253 ) ;
#332 = DIRECTION ( 'NONE',  ( 0.000000000000000000, 0.000000000000000000, 1.000000000000000000 ) ) ;
#333 = EDGE_LOOP ( 'NONE', ( #752, #799 ) ) ;
#334 = LINE ( 'NONE', #942, #941 ) ;
#335 = DIRECTION ( 'NONE',  ( -1.000000000000000000, -1.046815890675659458E-16, 0.000000000000000000 ) ) ;
#336 = DIRECTION ( 'NONE',  ( -1.000000000000000000, -1.046815890675659458E-16, -0.000000000000000000 ) ) ;
#337 = EDGE_LOOP ( 'NONE', ( #860, #370, #344, #442 ) ) ;
#338 = DIRECTION ( 'NONE',  ( 0.000000000000000000, -1.000000000000000000, 0.000000000000000000 ) ) ;
#339 = FACE_OUTER_BOUND ( 'NONE', #337, .T. ) ;
#340 = DIRECTION ( 'NONE',  ( -1.000000000000000000, 0.000000000000000000, 0.000000000000000000 ) ) ;
#341 = ORIENTED_EDGE ( 'NONE', *, *, #830, .T. ) ;
#342 = CARTESIAN_POINT ( 'NONE',  ( -2.999999999999997780, -2.000000000000003109, 5.499999999999998224 ) ) ;
#343 = CARTESIAN_POINT ( 'NONE',  ( 45.00000000000000711, 6.880000000000006111, 26.81999999999999673 ) ) ;
#344 = ORIENTED_EDGE ( 'NONE', *, *, #720, .T. ) ;
#345 = AXIS2_PLACEMENT_3D ( 'NONE', #160, #546, #850 ) ;
#346 = ORIENTED_EDGE ( 'NONE', *, *, #543, .F. ) ;
#347 = DIRECTION ( 'NONE',  ( 0.000000000000000000, 0.000000000000000000, -1.000000000000000000 ) ) ;
#348 = FACE_OUTER_BOUND ( 'NONE', #203, .T. ) ;
#349 = ORIENTED_EDGE ( 'NONE', *, *, #984, .F. ) ;
#350 = DIRECTION ( 'NONE',  ( 0.000000000000000000, -1.000000000000000000, 0.000000000000000000 ) ) ;
#351 = VECTOR ( 'NONE', #727, 1000.000000000000000 ) ;
#352 = CARTESIAN_POINT ( 'NONE',  ( 0.000000000000000000, 21.99999999999999645, 48.00000000000000000 ) ) ;
#353 = EDGE_CURVE ( 'NONE', #711, #24, #661, .T. ) ;
#354 = DIRECTION ( 'NONE',  ( -0.000000000000000000, -1.000000000000000000, -0.000000000000000000 ) ) ;
#355 = CARTESIAN_POINT ( 'NONE',  ( 0.000000000000000000, 6.880000000000001670, 26.81999999999999673 ) ) ;
#356 = DIRECTION ( 'NONE',  ( -1.000000000000000000, -1.046815890675659458E-16, -0.000000000000000000 ) ) ;
#357 = VECTOR ( 'NONE', #923, 1000.000000000000000 ) ;
#358 = CIRCLE ( 'NONE', #906, 1.600000000000004086 ) ;
#359 = EDGE_CURVE ( 'NONE', #5, #913, #620, .T. ) ;
#360 = CARTESIAN_POINT ( 'NONE',  ( 0.000000000000000000, -7.000000000000002665, 48.00000000000000000 ) ) ;
#361 = CIRCLE ( 'NONE', #231, 1.600000000000000311 ) ;
#362 = FACE_OUTER_BOUND ( 'NONE', #762, .T. ) ;
#363 = VECTOR ( 'NONE', #356, 1000.000000000000000 ) ;
#364 = VERTEX_POINT ( 'NONE', #174 ) ;
#365 = DIRECTION ( 'NONE',  ( -1.000000000000000000, 0.000000000000000000, 0.000000000000000000 ) ) ;
#366 = EDGE_CURVE ( 'NONE', #364, #521, #242, .T. ) ;
#367 = ADVANCED_FACE ( 'NONE', ( #429, #946 ), #37, .F. ) ;
#368 = EDGE_LOOP ( 'NONE', ( #939, #29, #46, #446 ) ) ;
#369 = FILL_AREA_STYLE ('',( #525 ) ) ;
#370 = ORIENTED_EDGE ( 'NONE', *, *, #543, .T. ) ;
#371 = CARTESIAN_POINT ( 'NONE',  ( 20.00000000000000000, 48.00000000000000000, 37.00000000000000711 ) ) ;
#372 = FACE_BOUND ( 'NONE', #314, .T. ) ;
#373 = CARTESIAN_POINT ( 'NONE',  ( 20.00000000000000000, 3.000000000000002665, 12.59999999999999787 ) ) ;
#374 = VECTOR ( 'NONE', #714, 1000.000000000000000 ) ;
#375 = LINE ( 'NONE', #244, #560 ) ;
#376 = LINE ( 'NONE', #384, #239 ) ;
#377 = VERTEX_POINT ( 'NONE', #563 ) ;
#378 = AXIS2_PLACEMENT_3D ( 'NONE', #507, #816, #662 ) ;
#379 = CIRCLE ( 'NONE', #948, 1.599999999999997202 ) ;
#380 = ORIENTED_EDGE ( 'NONE', *, *, #453, .T. ) ;
#381 = CARTESIAN_POINT ( 'NONE',  ( 38.00000000000000000, 0.000000000000000000, 48.00000000000000000 ) ) ;
#382 = VECTOR ( 'NONE', #218, 1000.000000000000000 ) ;
#383 = CIRCLE ( 'NONE', #562, 1.599999999999997202 ) ;
#384 = CARTESIAN_POINT ( 'NONE',  ( 32.00000000000000000, 48.00000000000000000, 12.59999999999999609 ) ) ;
#385 = ORIENTED_EDGE ( 'NONE', *, *, #798, .F. ) ;
#386 = FACE_BOUND ( 'NONE', #835, .T. ) ;
#387 = DIRECTION ( 'NONE',  ( -1.000000000000000000, -1.046815890675659458E-16, -0.000000000000000000 ) ) ;
#388 = VERTEX_POINT ( 'NONE', #53 ) ;
#389 = EDGE_CURVE ( 'NONE', #924, #364, #502, .T. ) ;
#390 = EDGE_CURVE ( 'NONE', #934, #863, #116, .T. ) ;
#391 = ORIENTED_EDGE ( 'NONE', *, *, #452, .T. ) ;
#392 = CYLINDRICAL_SURFACE ( 'NONE', #602, 1.600000000000004086 ) ;
#393 = CARTESIAN_POINT ( 'NONE',  ( -2.999999999999996891, -7.000000000000002665, 48.00000000000000000 ) ) ;
#394 = EDGE_LOOP ( 'NONE', ( #168, #497 ) ) ;
#395 = AXIS2_PLACEMENT_3D ( 'NONE', #421, #259, #645 ) ;
#396 = EDGE_LOOP ( 'NONE', ( #22, #756, #686, #313 ) ) ;
#397 = CIRCLE ( 'NONE', #527, 1.600000000000002531 ) ;
#398 = DIRECTION ( 'NONE',  ( 0.000000000000000000, 0.000000000000000000, -1.000000000000000000 ) ) ;
#399 = DIRECTION ( 'NONE',  ( 0.000000000000000000, -1.000000000000000000, 0.000000000000000000 ) ) ;
#400 = AXIS2_PLACEMENT_3D ( 'NONE', #617, #534, #842 ) ;
#401 = ORIENTED_EDGE ( 'NONE', *, *, #676, .F. ) ;
#402 = VERTEX_POINT ( 'NONE', #885 ) ;
#403 = EDGE_LOOP ( 'NONE', ( #917, #734, #327, #907 ) ) ;
#404 = DIRECTION ( 'NONE',  ( -1.000000000000000000, 0.000000000000000000, 0.000000000000000000 ) ) ;
#405 = DIRECTION ( 'NONE',  ( 0.000000000000000000, 1.000000000000000000, 0.000000000000000000 ) ) ;
#406 = ORIENTED_EDGE ( 'NONE', *, *, #651, .T. ) ;
#407 = DIRECTION ( 'NONE',  ( 0.000000000000000000, 0.000000000000000000, 1.000000000000000000 ) ) ;
#408 = PRODUCT_RELATED_PRODUCT_CATEGORY ( 'part', '', ( #297 ) ) ;
#409 = CARTESIAN_POINT ( 'NONE',  ( 20.00000000000000000, 3.000000000000002665, 9.399999999999993250 ) ) ;
#410 = CARTESIAN_POINT ( 'NONE',  ( 0.000000000000000000, 3.000000000000000000, 48.00000000000000000 ) ) ;
#411 = COLOUR_RGB ( '',0.7921568627450980005, 0.8196078431372548767, 0.9333333333333333481 ) ;
#412 = ORIENTED_EDGE ( 'NONE', *, *, #145, .F. ) ;
#413 = DIRECTION ( 'NONE',  ( -0.000000000000000000, -0.000000000000000000, -1.000000000000000000 ) ) ;
#414 = FACE_OUTER_BOUND ( 'NONE', #190, .T. ) ;
#415 = ORIENTED_EDGE ( 'NONE', *, *, #651, .F. ) ;
#416 = DIRECTION ( 'NONE',  ( 0.000000000000000000, 0.000000000000000000, -1.000000000000000000 ) ) ;
#417 = CARTESIAN_POINT ( 'NONE',  ( 0.000000000000000000, 3.000000000000000000, 48.00000000000000000 ) ) ;
#418 = ORIENTED_EDGE ( 'NONE', *, *, #484, .T. ) ;
#419 = CARTESIAN_POINT ( 'NONE',  ( 38.00000000000000000, 3.000000000000000000, 48.00000000000000000 ) ) ;
#420 = CARTESIAN_POINT ( 'NONE',  ( -3.000000000000000000, 22.00000000000000000, 48.00000000000000000 ) ) ;
#421 = CARTESIAN_POINT ( 'NONE',  ( 32.00000000000000000, 48.00000000000000000, 11.00000000000000000 ) ) ;
#422 = CARTESIAN_POINT ( 'NONE',  ( 0.000000000000000000, 5.280000000000005578, 40.57999999999999829 ) ) ;
#423 = ORIENTED_EDGE ( 'NONE', *, *, #278, .T. ) ;
#424 = CARTESIAN_POINT ( 'NONE',  ( 0.000000000000000000, -7.000000000000002665, 0.000000000000000000 ) ) ;
#425 = AXIS2_PLACEMENT_3D ( 'NONE', #260, #194, #808 ) ;
#426 = ORIENTED_EDGE ( 'NONE', *, *, #124, .F. ) ;
#427 = EDGE_CURVE ( 'NONE', #402, #509, #271, .T. ) ;
#428 = LINE ( 'NONE', #559, #217 ) ;
#429 = FACE_BOUND ( 'NONE', #767, .T. ) ;
#430 = CYLINDRICAL_SURFACE ( 'NONE', #854, 1.599999999999998090 ) ;
#431 = VECTOR ( 'NONE', #643, 1000.000000000000000 ) ;
#432 = CARTESIAN_POINT ( 'NONE',  ( 20.00000000000000000, 3.000000000000002665, 37.00000000000000711 ) ) ;
#433 = DIRECTION ( 'NONE',  ( -0.000000000000000000, -1.000000000000000000, -0.000000000000000000 ) ) ;
#434 = VECTOR ( 'NONE', #52, 1000.000000000000000 ) ;
#435 =( NAMED_UNIT ( * ) PLANE_ANGLE_UNIT ( ) SI_UNIT ( $, .RADIAN. ) );
#436 = AXIS2_PLACEMENT_3D ( 'NONE', #919, #471, #629 ) ;
#437 = AXIS2_PLACEMENT_3D ( 'NONE', #680, #592, #142 ) ;
#438 = CARTESIAN_POINT ( 'NONE',  ( 0.000000000000000000, 21.99999999999999645, 48.00000000000000000 ) ) ;
#439 = EDGE_CURVE ( 'NONE', #940, #331, #606, .T. ) ;
#440 = ADVANCED_FACE ( 'NONE', ( #495 ), #888, .F. ) ;
#441 = CARTESIAN_POINT ( 'NONE',  ( 32.00000000000000000, 3.000000000000002665, 37.00000000000000711 ) ) ;
#442 = ORIENTED_EDGE ( 'NONE', *, *, #452, .F. ) ;
#443 = DIRECTION ( 'NONE',  ( 0.000000000000000000, -1.000000000000000000, 0.000000000000000000 ) ) ;
#444 = APPLICATION_PROTOCOL_DEFINITION ( 'draft international standard', 'automotive_design', 1998, #943 ) ;
#445 = AXIS2_PLACEMENT_3D ( 'NONE', #462, #929, #399 ) ;
#446 = ORIENTED_EDGE ( 'NONE', *, *, #983, .T. ) ;
#447 = CARTESIAN_POINT ( 'NONE',  ( 45.00000000000000000, 14.14999999999999858, 5.499999999999998224 ) ) ;
#448 = CARTESIAN_POINT ( 'NONE',  ( 0.000000000000000000, 0.000000000000000000, 0.000000000000000000 ) ) ;
#449 = CIRCLE ( 'NONE', #584, 1.600000000000000755 ) ;
#450 = ORIENTED_EDGE ( 'NONE', *, *, #77, .T. ) ;
#451 = FACE_OUTER_BOUND ( 'NONE', #715, .T. ) ;
#452 = EDGE_CURVE ( 'NONE', #229, #795, #796, .T. ) ;
#453 = EDGE_CURVE ( 'NONE', #509, #809, #879, .T. ) ;
#454 = FACE_BOUND ( 'NONE', #485, .T. ) ;
#455 = DIRECTION ( 'NONE',  ( 0.000000000000000000, -0.000000000000000000, 1.000000000000000000 ) ) ;
#456 = ORIENTED_EDGE ( 'NONE', *, *, #481, .T. ) ;
#457 = FACE_BOUND ( 'NONE', #323, .T. ) ;
#458 = CARTESIAN_POINT ( 'NONE',  ( 20.00000000000000000, 0.000000000000000000, 10.99999999999999645 ) ) ;
#459 = PLANE ( 'NONE',  #228 ) ;
#460 = VERTEX_POINT ( 'NONE', #58 ) ;
#461 = CARTESIAN_POINT ( 'NONE',  ( 38.00000000000000000, 0.000000000000000000, 48.00000000000000000 ) ) ;
#462 = CARTESIAN_POINT ( 'NONE',  ( -2.999999999999998668, 6.880000000000002558, 40.57999999999999829 ) ) ;
#463 = EDGE_CURVE ( 'NONE', #5, #106, #826, .T. ) ;
#464 = EDGE_CURVE ( 'NONE', #331, #940, #383, .T. ) ;
#465 = VERTEX_POINT ( 'NONE', #41 ) ;
#466 = CIRCLE ( 'NONE', #51, 1.599999999999997202 ) ;
#467 = FACE_OUTER_BOUND ( 'NONE', #27, .T. ) ;
#468 = DIRECTION ( 'NONE',  ( 0.000000000000000000, 0.000000000000000000, 1.000000000000000000 ) ) ;
#469 = VERTEX_POINT ( 'NONE', #424 ) ;
#470 = PRODUCT_DEFINITION_SHAPE ( 'NONE', 'NONE',  #103 ) ;
#471 = DIRECTION ( 'NONE',  ( -1.000000000000000000, -1.046815890675659458E-16, 0.000000000000000000 ) ) ;
#472 = DIRECTION ( 'NONE',  ( 0.000000000000000000, -1.000000000000000000, 0.000000000000000000 ) ) ;
#473 = VERTEX_POINT ( 'NONE', #123 ) ;
#474 = AXIS2_PLACEMENT_3D ( 'NONE', #191, #255, #132 ) ;
#475 = ORIENTED_EDGE ( 'NONE', *, *, #818, .T. ) ;
#476 = AXIS2_PLACEMENT_3D ( 'NONE', #969, #815, #555 ) ;
#477 = DIRECTION ( 'NONE',  ( 0.000000000000000000, 0.000000000000000000, 1.000000000000000000 ) ) ;
#478 = CYLINDRICAL_SURFACE ( 'NONE', #693, 1.599999999999997202 ) ;
#479 = VECTOR ( 'NONE', #511, 1000.000000000000000 ) ;
#480 = ORIENTED_EDGE ( 'NONE', *, *, #439, .F. ) ;
#481 = EDGE_CURVE ( 'NONE', #388, #83, #361, .T. ) ;
#482 = AXIS2_PLACEMENT_3D ( 'NONE', #4, #909, #512 ) ;
#483 = ORIENTED_EDGE ( 'NONE', *, *, #705, .T. ) ;
#484 = EDGE_CURVE ( 'NONE', #934, #671, #954, .T. ) ;
#485 = EDGE_LOOP ( 'NONE', ( #780, #72 ) ) ;
#486 = DIRECTION ( 'NONE',  ( 0.000000000000000000, -1.000000000000000000, 0.000000000000000000 ) ) ;
#487 = VECTOR ( 'NONE', #202, 1000.000000000000000 ) ;
#488 = CARTESIAN_POINT ( 'NONE',  ( 32.00000000000000000, 48.00000000000000000, 11.00000000000000000 ) ) ;
#489 = ORIENTED_EDGE ( 'NONE', *, *, #17, .F. ) ;
#490 = DIRECTION ( 'NONE',  ( -0.000000000000000000, -1.000000000000000000, -0.000000000000000000 ) ) ;
#491 = CARTESIAN_POINT ( 'NONE',  ( -2.999999999999997780, -2.000000000000003109, 5.499999999999998224 ) ) ;
#492 = FACE_OUTER_BOUND ( 'NONE', #568, .T. ) ;
#493 = CYLINDRICAL_SURFACE ( 'NONE', #781, 1.599999999999998090 ) ;
#494 = ORIENTED_EDGE ( 'NONE', *, *, #427, .F. ) ;
#495 = FACE_OUTER_BOUND ( 'NONE', #719, .T. ) ;
#496 = FACE_OUTER_BOUND ( 'NONE', #585, .T. ) ;
#497 = ORIENTED_EDGE ( 'NONE', *, *, #49, .T. ) ;
#498 = DIRECTION ( 'NONE',  ( 0.000000000000000000, 0.000000000000000000, -1.000000000000000000 ) ) ;
#499 = CARTESIAN_POINT ( 'NONE',  ( 38.00000000000000000, 0.000000000000000000, 0.000000000000000000 ) ) ;
#500 = ORIENTED_EDGE ( 'NONE', *, *, #751, .T. ) ;
#501 = EDGE_CURVE ( 'NONE', #24, #711, #666, .T. ) ;
#502 = LINE ( 'NONE', #263, #904 ) ;
#503 = LINE ( 'NONE', #130, #363 ) ;
#504 = VERTEX_POINT ( 'NONE', #516 ) ;
#505 = FACE_BOUND ( 'NONE', #394, .T. ) ;
#506 = CARTESIAN_POINT ( 'NONE',  ( 32.00000000000000000, 48.00000000000000000, 35.40000000000000568 ) ) ;
#507 = CARTESIAN_POINT ( 'NONE',  ( 32.00000000000000000, 0.000000000000000000, 37.00000000000000711 ) ) ;
#508 = DIRECTION ( 'NONE',  ( -1.000000000000000000, -1.046815890675659458E-16, 0.000000000000000000 ) ) ;
#509 = VERTEX_POINT ( 'NONE', #741 ) ;
#510 = CIRCLE ( 'NONE', #859, 2.100000000000000977 ) ;
#511 = DIRECTION ( 'NONE',  ( -1.000000000000000000, -1.046815890675659458E-16, -0.000000000000000000 ) ) ;
#512 = DIRECTION ( 'NONE',  ( 0.000000000000000000, 0.000000000000000000, -1.000000000000000000 ) ) ;
#513 = AXIS2_PLACEMENT_3D ( 'NONE', #927, #238, #84 ) ;
#514 = CIRCLE ( 'NONE', #105, 1.599999999999997202 ) ;
#515 = DIRECTION ( 'NONE',  ( -1.000000000000000000, -1.046815890675659458E-16, -0.000000000000000000 ) ) ;
#516 = CARTESIAN_POINT ( 'NONE',  ( 32.00000000000000000, 3.000000000000002665, 35.40000000000000568 ) ) ;
#517 = AXIS2_PLACEMENT_3D ( 'NONE', #448, #75, #531 ) ;
#518 = ADVANCED_FACE ( 'NONE', ( #451 ), #978, .F. ) ;
#519 = EDGE_LOOP ( 'NONE', ( #94, #450, #456, #182 ) ) ;
#520 = DIRECTION ( 'NONE',  ( 0.000000000000000000, 0.000000000000000000, -1.000000000000000000 ) ) ;
#521 = VERTEX_POINT ( 'NONE', #981 ) ;
#522 = VECTOR ( 'NONE', #627, 1000.000000000000000 ) ;
#523 = AXIS2_PLACEMENT_3D ( 'NONE', #126, #404, #580 ) ;
#524 = VERTEX_POINT ( 'NONE', #373 ) ;
#525 = FILL_AREA_STYLE_COLOUR ( '', #411 ) ;
#526 = EDGE_CURVE ( 'NONE', #682, #642, #74, .T. ) ;
#527 = AXIS2_PLACEMENT_3D ( 'NONE', #250, #915, #256 ) ;
#528 = VECTOR ( 'NONE', #276, 1000.000000000000000 ) ;
#529 = DIRECTION ( 'NONE',  ( 0.000000000000000000, -0.000000000000000000, 1.000000000000000000 ) ) ;
#530 = DIRECTION ( 'NONE',  ( 0.000000000000000000, 0.000000000000000000, -1.000000000000000000 ) ) ;
#531 = DIRECTION ( 'NONE',  ( 1.000000000000000000, 0.000000000000000000, 0.000000000000000000 ) ) ;
#532 = ORIENTED_EDGE ( 'NONE', *, *, #77, .F. ) ;
#533 = ORIENTED_EDGE ( 'NONE', *, *, #572, .T. ) ;
#534 = DIRECTION ( 'NONE',  ( 1.000000000000000000, 1.046815890675659458E-16, -0.000000000000000000 ) ) ;
#535 = DIRECTION ( 'NONE',  ( 0.000000000000000000, 0.000000000000000000, -1.000000000000000000 ) ) ;
#536 = CARTESIAN_POINT ( 'NONE',  ( -2.999999999999999112, 8.980000000000002203, 16.16000000000000014 ) ) ;
#537 = MECHANICAL_DESIGN_GEOMETRIC_PRESENTATION_REPRESENTATION (  '', ( #621 ), #698 ) ;
#538 = ORIENTED_EDGE ( 'NONE', *, *, #806, .F. ) ;
#539 = EDGE_CURVE ( 'NONE', #626, #241, #514, .T. ) ;
#540 = EDGE_CURVE ( 'NONE', #241, #626, #912, .T. ) ;
#541 = FACE_OUTER_BOUND ( 'NONE', #32, .T. ) ;
#542 = DIRECTION ( 'NONE',  ( 0.000000000000000000, -1.000000000000000000, 0.000000000000000000 ) ) ;
#543 = EDGE_CURVE ( 'NONE', #524, #779, #79, .T. ) ;
#544 = FACE_OUTER_BOUND ( 'NONE', #692, .T. ) ;
#545 = VERTEX_POINT ( 'NONE', #834 ) ;
#546 = DIRECTION ( 'NONE',  ( -1.000000000000000000, -1.046815890675659458E-16, 0.000000000000000000 ) ) ;
#547 = CARTESIAN_POINT ( 'NONE',  ( -2.999999999999999556, 14.14999999999999503, 5.499999999999998224 ) ) ;
#548 = ORIENTED_EDGE ( 'NONE', *, *, #145, .T. ) ;
#549 = AXIS2_PLACEMENT_3D ( 'NONE', #54, #42, #955 ) ;
#550 = DIRECTION ( 'NONE',  ( 0.000000000000000000, -1.000000000000000000, 0.000000000000000000 ) ) ;
#551 = DIRECTION ( 'NONE',  ( 0.000000000000000000, -1.000000000000000000, 0.000000000000000000 ) ) ;
#552 = ORIENTED_EDGE ( 'NONE', *, *, #720, .F. ) ;
#553 = DIRECTION ( 'NONE',  ( -1.000000000000000000, 0.000000000000000000, 0.000000000000000000 ) ) ;
#554 = ORIENTED_EDGE ( 'NONE', *, *, #526, .T. ) ;
#555 = DIRECTION ( 'NONE',  ( 0.000000000000000000, -1.000000000000000000, 0.000000000000000000 ) ) ;
#556 = ORIENTED_EDGE ( 'NONE', *, *, #295, .F. ) ;
#557 = VECTOR ( 'NONE', #206, 1000.000000000000000 ) ;
#558 = FACE_OUTER_BOUND ( 'NONE', #396, .T. ) ;
#559 = CARTESIAN_POINT ( 'NONE',  ( 0.000000000000000000, 0.000000000000000000, 48.00000000000000000 ) ) ;
#560 = VECTOR ( 'NONE', #80, 1000.000000000000000 ) ;
#561 = ORIENTED_EDGE ( 'NONE', *, *, #484, .F. ) ;
#562 = AXIS2_PLACEMENT_3D ( 'NONE', #588, #338, #188 ) ;
#563 = CARTESIAN_POINT ( 'NONE',  ( 32.00000000000000000, 3.000000000000002665, 38.60000000000000142 ) ) ;
#564 = FACE_BOUND ( 'NONE', #910, .T. ) ;
#565 = VECTOR ( 'NONE', #336, 1000.000000000000000 ) ;
#566 = CARTESIAN_POINT ( 'NONE',  ( -2.999999999999999112, 10.38000000000000078, 26.81999999999999673 ) ) ;
#567 = DIRECTION ( 'NONE',  ( 0.000000000000000000, -1.000000000000000000, 0.000000000000000000 ) ) ;
#568 = EDGE_LOOP ( 'NONE', ( #647, #628, #475, #171 ) ) ;
#569 = DIRECTION ( 'NONE',  ( 0.000000000000000000, -1.000000000000000000, 0.000000000000000000 ) ) ;
#570 = ADVANCED_FACE ( 'NONE', ( #227 ), #68, .F. ) ;
#571 = CYLINDRICAL_SURFACE ( 'NONE', #395, 1.599999999999997202 ) ;
#572 = EDGE_CURVE ( 'NONE', #377, #504, #310, .T. ) ;
#573 = EDGE_CURVE ( 'NONE', #504, #377, #689, .T. ) ;
#574 = LINE ( 'NONE', #45, #565 ) ;
#575 = EDGE_CURVE ( 'NONE', #682, #945, #672, .T. ) ;
#576 = EDGE_LOOP ( 'NONE', ( #76, #616, #198, #858 ) ) ;
#577 = DIRECTION ( 'NONE',  ( -1.000000000000000000, 0.000000000000000000, 0.000000000000000000 ) ) ;
#578 = LINE ( 'NONE', #729, #788 ) ;
#579 = VECTOR ( 'NONE', #814, 1000.000000000000000 ) ;
#580 = DIRECTION ( 'NONE',  ( 0.000000000000000000, 0.000000000000000000, 1.000000000000000000 ) ) ;
#581 = DIRECTION ( 'NONE',  ( 2.065146995210483709E-16, -1.000000000000000000, 0.000000000000000000 ) ) ;
#582 = DIRECTION ( 'NONE',  ( 0.000000000000000000, 0.000000000000000000, 1.000000000000000000 ) ) ;
#583 = CARTESIAN_POINT ( 'NONE',  ( -3.000000000000000000, 22.00000000000000000, 0.000000000000000000 ) ) ;
#584 = AXIS2_PLACEMENT_3D ( 'NONE', #758, #249, #550 ) ;
#585 = EDGE_LOOP ( 'NONE', ( #846, #905, #406, #270 ) ) ;
#586 = MANIFOLD_SOLID_BREP ( 'Cut-Extrude2', #283 ) ;
#587 = ORIENTED_EDGE ( 'NONE', *, *, #294, .T. ) ;
#588 = CARTESIAN_POINT ( 'NONE',  ( 32.00000000000000000, 0.000000000000000000, 37.00000000000000711 ) ) ;
#589 = DIRECTION ( 'NONE',  ( 0.000000000000000000, -0.000000000000000000, -1.000000000000000000 ) ) ;
#590 = CARTESIAN_POINT ( 'NONE',  ( 45.00000000000000711, 4.780000000000004690, 16.16000000000000014 ) ) ;
#591 = ORIENTED_EDGE ( 'NONE', *, *, #353, .T. ) ;
#592 = DIRECTION ( 'NONE',  ( -1.000000000000000000, -1.046815890675659458E-16, -0.000000000000000000 ) ) ;
#593 = VECTOR ( 'NONE', #515, 1000.000000000000000 ) ;
#594 = ORIENTED_EDGE ( 'NONE', *, *, #312, .F. ) ;
#595 = DIRECTION ( 'NONE',  ( 0.000000000000000000, 0.000000000000000000, -1.000000000000000000 ) ) ;
#596 = AXIS2_PLACEMENT_3D ( 'NONE', #491, #508, #797 ) ;
#597 = EDGE_LOOP ( 'NONE', ( #532, #183, #246, #772 ) ) ;
#598 = ORIENTED_EDGE ( 'NONE', *, *, #894, .T. ) ;
#599 = ADVANCED_FACE ( 'NONE', ( #64 ), #669, .F. ) ;
#600 = DIRECTION ( 'NONE',  ( -1.000000000000000000, -1.046815890675659458E-16, -0.000000000000000000 ) ) ;
#601 = VERTEX_POINT ( 'NONE', #152 ) ;
#602 = AXIS2_PLACEMENT_3D ( 'NONE', #25, #325, #347 ) ;
#603 = DIRECTION ( 'NONE',  ( -1.000000000000000000, 1.156482317317871331E-15, 0.000000000000000000 ) ) ;
#604 = DIRECTION ( 'NONE',  ( 0.000000000000000000, 0.000000000000000000, -1.000000000000000000 ) ) ;
#605 = EDGE_LOOP ( 'NONE', ( #833, #561, #775, #587 ) ) ;
#606 = CIRCLE ( 'NONE', #378, 1.599999999999997202 ) ;
#607 = AXIS2_PLACEMENT_3D ( 'NONE', #316, #161, #81 ) ;
#608 = CIRCLE ( 'NONE', #10, 2.100000000000000977 ) ;
#609 = ORIENTED_EDGE ( 'NONE', *, *, #464, .F. ) ;
#610 = VECTOR ( 'NONE', #144, 1000.000000000000000 ) ;
#611 = FACE_OUTER_BOUND ( 'NONE', #368, .T. ) ;
#612 = CARTESIAN_POINT ( 'NONE',  ( 38.00000000000000000, 3.000000000000000000, 0.000000000000000000 ) ) ;
#613 = EDGE_LOOP ( 'NONE', ( #380, #659, #19, #675 ) ) ;
#614 = EDGE_CURVE ( 'NONE', #601, #241, #292, .T. ) ;
#615 = ADVANCED_FACE ( 'NONE', ( #165 ), #636, .F. ) ;
#616 = ORIENTED_EDGE ( 'NONE', *, *, #618, .T. ) ;
#617 = CARTESIAN_POINT ( 'NONE',  ( -3.000000000000000000, 22.00000000000000000, 48.00000000000000000 ) ) ;
#618 = EDGE_CURVE ( 'NONE', #460, #626, #376, .T. ) ;
#619 = CARTESIAN_POINT ( 'NONE',  ( 32.00000000000000000, 0.000000000000000000, 12.59999999999999609 ) ) ;
#620 = LINE ( 'NONE', #247, #357 ) ;
#621 = STYLED_ITEM ( 'NONE', ( #304 ), #586 ) ;
#622 = ORIENTED_EDGE ( 'NONE', *, *, #819, .F. ) ;
#623 = DIRECTION ( 'NONE',  ( 0.000000000000000000, 1.000000000000000000, 0.000000000000000000 ) ) ;
#624 = DIRECTION ( 'NONE',  ( 0.000000000000000000, -1.000000000000000000, 0.000000000000000000 ) ) ;
#625 = CARTESIAN_POINT ( 'NONE',  ( 32.00000000000000000, 3.000000000000002665, 11.00000000000000000 ) ) ;
#626 = VERTEX_POINT ( 'NONE', #619 ) ;
#627 = DIRECTION ( 'NONE',  ( -0.000000000000000000, -1.000000000000000000, -0.000000000000000000 ) ) ;
#628 = ORIENTED_EDGE ( 'NONE', *, *, #573, .F. ) ;
#629 = DIRECTION ( 'NONE',  ( 1.239088197126290817E-16, -1.000000000000000000, 0.000000000000000000 ) ) ;
#630 = AXIS2_PLACEMENT_3D ( 'NONE', #371, #667, #288 ) ;
#631 = DIRECTION ( 'NONE',  ( -0.000000000000000000, -1.000000000000000000, -0.000000000000000000 ) ) ;
#632 = VERTEX_POINT ( 'NONE', #547 ) ;
#633 = VERTEX_POINT ( 'NONE', #330 ) ;
#634 = CIRCLE ( 'NONE', #425, 1.600000000000002531 ) ;
#635 = DIRECTION ( 'NONE',  ( -1.000000000000000000, 0.000000000000000000, 0.000000000000000000 ) ) ;
#636 = CYLINDRICAL_SURFACE ( 'NONE', #117, 1.600000000000000755 ) ;
#637 = EDGE_CURVE ( 'NONE', #521, #469, #843, .T. ) ;
#638 = ORIENTED_EDGE ( 'NONE', *, *, #540, .F. ) ;
#639 = ORIENTED_EDGE ( 'NONE', *, *, #806, .T. ) ;
#640 = CYLINDRICAL_SURFACE ( 'NONE', #474, 1.599999999999997202 ) ;
#641 = CARTESIAN_POINT ( 'NONE',  ( 38.00000000000000000, 0.000000000000000000, 0.000000000000000000 ) ) ;
#642 = VERTEX_POINT ( 'NONE', #778 ) ;
#643 = DIRECTION ( 'NONE',  ( -0.000000000000000000, -0.000000000000000000, -1.000000000000000000 ) ) ;
#644 = EDGE_LOOP ( 'NONE', ( #97, #494, #412, #322 ) ) ;
#645 = DIRECTION ( 'NONE',  ( 0.000000000000000000, 0.000000000000000000, -1.000000000000000000 ) ) ;
#646 = DIRECTION ( 'NONE',  ( 0.000000000000000000, 0.000000000000000000, 1.000000000000000000 ) ) ;
#647 = ORIENTED_EDGE ( 'NONE', *, *, #320, .F. ) ;
#648 = DIRECTION ( 'NONE',  ( -1.000000000000000000, -1.046815890675659458E-16, 0.000000000000000000 ) ) ;
#649 = ADVANCED_FACE ( 'NONE', ( #857 ), #96, .F. ) ;
#650 = ADVANCED_FACE ( 'NONE', ( #920 ), #85, .F. ) ;
#651 = EDGE_CURVE ( 'NONE', #656, #257, #146, .T. ) ;
#652 = ORIENTED_EDGE ( 'NONE', *, *, #961, .T. ) ;
#653 = CARTESIAN_POINT ( 'NONE',  ( 20.00000000000000000, 48.00000000000000000, 35.39999999999999858 ) ) ;
#654 = CIRCLE ( 'NONE', #596, 1.600000000000000311 ) ;
#655 = CARTESIAN_POINT ( 'NONE',  ( -2.999999999999998668, 6.880000000000000782, 16.16000000000000014 ) ) ;
#656 = VERTEX_POINT ( 'NONE', #236 ) ;
#657 = CARTESIAN_POINT ( 'NONE',  ( 45.00000000000000711, 6.880000000000007887, 40.57999999999999829 ) ) ;
#658 = ORIENTED_EDGE ( 'NONE', *, *, #575, .F. ) ;
#659 = ORIENTED_EDGE ( 'NONE', *, *, #294, .F. ) ;
#660 = DIRECTION ( 'NONE',  ( -1.000000000000000000, -1.046815890675659458E-16, -0.000000000000000000 ) ) ;
#661 = CIRCLE ( 'NONE', #774, 1.599999999999999867 ) ;
#662 = DIRECTION ( 'NONE',  ( 0.000000000000000000, 0.000000000000000000, -1.000000000000000000 ) ) ;
#663 = CARTESIAN_POINT ( 'NONE',  ( -2.999999999999998224, 3.380000000000001226, 26.81999999999999673 ) ) ;
#664 = CIRCLE ( 'NONE', #972, 1.600000000000004086 ) ;
#665 = FACE_OUTER_BOUND ( 'NONE', #307, .T. ) ;
#666 = CIRCLE ( 'NONE', #141, 1.599999999999999867 ) ;
#667 = DIRECTION ( 'NONE',  ( -0.000000000000000000, -1.000000000000000000, -0.000000000000000000 ) ) ;
#668 = VECTOR ( 'NONE', #275, 1000.000000000000000 ) ;
#669 = CYLINDRICAL_SURFACE ( 'NONE', #279, 1.600000000000000755 ) ;
#670 =( NAMED_UNIT ( * ) SI_UNIT ( $, .STERADIAN. ) SOLID_ANGLE_UNIT ( ) );
#671 = VERTEX_POINT ( 'NONE', #612 ) ;
#672 = CIRCLE ( 'NONE', #922, 2.100000000000000977 ) ;
#673 = DIRECTION ( 'NONE',  ( 0.000000000000000000, 0.000000000000000000, 1.000000000000000000 ) ) ;
#674 = ORIENTED_EDGE ( 'NONE', *, *, #614, .T. ) ;
#675 = ORIENTED_EDGE ( 'NONE', *, *, #427, .T. ) ;
#676 = EDGE_CURVE ( 'NONE', #106, #5, #319, .T. ) ;
#677 = VERTEX_POINT ( 'NONE', #536 ) ;
#678 = FACE_BOUND ( 'NONE', #305, .T. ) ;
#679 = PLANE ( 'NONE',  #783 ) ;
#680 = CARTESIAN_POINT ( 'NONE',  ( 45.00000000000000711, 6.880000000000006111, 16.16000000000000014 ) ) ;
#681 = AXIS2_PLACEMENT_3D ( 'NONE', #286, #810, #582 ) ;
#682 = VERTEX_POINT ( 'NONE', #697 ) ;
#683 = LINE ( 'NONE', #763, #755 ) ;
#684 = CARTESIAN_POINT ( 'NONE',  ( 32.00000000000000000, 3.000000000000002665, 11.00000000000000000 ) ) ;
#685 = DIRECTION ( 'NONE',  ( 0.000000000000000000, -1.000000000000000000, 0.000000000000000000 ) ) ;
#686 = ORIENTED_EDGE ( 'NONE', *, *, #830, .F. ) ;
#687 = CIRCLE ( 'NONE', #111, 2.100000000000000977 ) ;
#688 = VERTEX_POINT ( 'NONE', #14 ) ;
#689 = CIRCLE ( 'NONE', #264, 1.599999999999997202 ) ;
#690 = FACE_BOUND ( 'NONE', #43, .T. ) ;
#691 = DIRECTION ( 'NONE',  ( -1.000000000000000000, -1.046815890675659458E-16, -0.000000000000000000 ) ) ;
#692 = EDGE_LOOP ( 'NONE', ( #346, #871, #391, #787 ) ) ;
#693 = AXIS2_PLACEMENT_3D ( 'NONE', #488, #794, #114 ) ;
#694 = EDGE_LOOP ( 'NONE', ( #223, #155, #258, #962 ) ) ;
#695 = CARTESIAN_POINT ( 'NONE',  ( 0.000000000000000000, 21.99999999999999645, 48.00000000000000000 ) ) ;
#696 = EDGE_CURVE ( 'NONE', #524, #229, #739, .T. ) ;
#697 = CARTESIAN_POINT ( 'NONE',  ( 0.000000000000000000, 4.780000000000001137, 16.16000000000000014 ) ) ;
#698 =( GEOMETRIC_REPRESENTATION_CONTEXT ( 3 ) GLOBAL_UNCERTAINTY_ASSIGNED_CONTEXT ( ( #935 ) ) GLOBAL_UNIT_ASSIGNED_CONTEXT ( ( #148, #221, #754 ) ) REPRESENTATION_CONTEXT ( 'NONE', 'WORKASPACE' ) );
#699 = ORIENTED_EDGE ( 'NONE', *, *, #3, .F. ) ;
#700 = PLANE ( 'NONE',  #309 ) ;
#701 = VECTOR ( 'NONE', #958, 1000.000000000000000 ) ;
#702 = DIRECTION ( 'NONE',  ( -1.000000000000000000, -1.046815890675659458E-16, -0.000000000000000000 ) ) ;
#703 = PRODUCT_DEFINITION_CONTEXT ( 'detailed design', #943, 'design' ) ;
#704 = EDGE_CURVE ( 'NONE', #632, #913, #822, .T. ) ;
#705 = EDGE_CURVE ( 'NONE', #460, #601, #379, .T. ) ;
#706 = ORIENTED_EDGE ( 'NONE', *, *, #390, .F. ) ;
#707 = EDGE_CURVE ( 'NONE', #201, #786, #664, .T. ) ;
#708 = LINE ( 'NONE', #44, #226 ) ;
#709 = CYLINDRICAL_SURFACE ( 'NONE', #306, 1.600000000000002531 ) ;
#710 = VERTEX_POINT ( 'NONE', #102 ) ;
#711 = VERTEX_POINT ( 'NONE', #154 ) ;
#712 = CARTESIAN_POINT ( 'NONE',  ( 20.00000000000000000, 0.000000000000000000, 37.00000000000000711 ) ) ;
#713 = ORIENTED_EDGE ( 'NONE', *, *, #49, .F. ) ;
#714 = DIRECTION ( 'NONE',  ( -1.000000000000000000, 0.000000000000000000, 0.000000000000000000 ) ) ;
#715 = EDGE_LOOP ( 'NONE', ( #548, #291, #743, #769, #341, #936, #112, #423 ) ) ;
#716 = VECTOR ( 'NONE', #433, 1000.000000000000000 ) ;
#717 = CARTESIAN_POINT ( 'NONE',  ( -2.999999999999996891, -7.000000000000002665, 48.00000000000000000 ) ) ;
#718 = CARTESIAN_POINT ( 'NONE',  ( 0.000000000000000000, 6.880000000000003446, 40.57999999999999829 ) ) ;
#719 = EDGE_LOOP ( 'NONE', ( #113, #159, #789, #898 ) ) ;
#720 = EDGE_CURVE ( 'NONE', #779, #795, #397, .T. ) ;
#721 = DIRECTION ( 'NONE',  ( -1.000000000000000000, 0.000000000000000000, 0.000000000000000000 ) ) ;
#722 = ADVANCED_FACE ( 'NONE', ( #544 ), #709, .F. ) ;
#723 = CARTESIAN_POINT ( 'NONE',  ( -2.999999999999999556, 17.34999999999999787, 5.499999999999998224 ) ) ;
#724 = EDGE_LOOP ( 'NONE', ( #538, #658, #554, #267 ) ) ;
#725 = ADVANCED_FACE ( 'NONE', ( #170 ), #459, .F. ) ;
#726 = FACE_OUTER_BOUND ( 'NONE', #694, .T. ) ;
#727 = DIRECTION ( 'NONE',  ( -0.000000000000000000, -0.000000000000000000, -1.000000000000000000 ) ) ;
#728 = CARTESIAN_POINT ( 'NONE',  ( 0.000000000000000000, -2.000000000000002665, 5.499999999999998224 ) ) ;
#729 = CARTESIAN_POINT ( 'NONE',  ( 45.00000000000000711, 10.38000000000000611, 26.81999999999999673 ) ) ;
#730 = ORIENTED_EDGE ( 'NONE', *, *, #324, .F. ) ;
#731 = DIRECTION ( 'NONE',  ( 1.000000000000000000, 0.000000000000000000, 0.000000000000000000 ) ) ;
#732 =( GEOMETRIC_REPRESENTATION_CONTEXT ( 3 ) GLOBAL_UNCERTAINTY_ASSIGNED_CONTEXT ( ( #1 ) ) GLOBAL_UNIT_ASSIGNED_CONTEXT ( ( #889, #435, #670 ) ) REPRESENTATION_CONTEXT ( 'NONE', 'WORKASPACE' ) );
#733 = DIRECTION ( 'NONE',  ( 0.000000000000000000, 0.000000000000000000, -1.000000000000000000 ) ) ;
#734 = ORIENTED_EDGE ( 'NONE', *, *, #792, .F. ) ;
#735 = CARTESIAN_POINT ( 'NONE',  ( 45.00000000000000711, 6.880000000000007887, 40.57999999999999829 ) ) ;
#736 = CARTESIAN_POINT ( 'NONE',  ( 0.000000000000000000, 0.000000000000000000, 0.000000000000000000 ) ) ;
#737 = CARTESIAN_POINT ( 'NONE',  ( 0.000000000000000000, 8.980000000000002203, 16.16000000000000014 ) ) ;
#738 = ADVANCED_FACE ( 'NONE', ( #759 ), #877, .F. ) ;
#739 = CIRCLE ( 'NONE', #865, 1.600000000000002531 ) ;
#740 = DIRECTION ( 'NONE',  ( 0.000000000000000000, 0.000000000000000000, 1.000000000000000000 ) ) ;
#741 = CARTESIAN_POINT ( 'NONE',  ( 0.000000000000000000, 0.000000000000000000, 0.000000000000000000 ) ) ;
#742 = AXIS2_PLACEMENT_3D ( 'NONE', #870, #721, #407 ) ;
#743 = ORIENTED_EDGE ( 'NONE', *, *, #173, .T. ) ;
#744 = CARTESIAN_POINT ( 'NONE',  ( 32.00000000000000000, 3.000000000000002665, 37.00000000000000711 ) ) ;
#745 = VERTEX_POINT ( 'NONE', #35 ) ;
#746 = AXIS2_PLACEMENT_3D ( 'NONE', #26, #691, #92 ) ;
#747 = DIRECTION ( 'NONE',  ( 0.000000000000000000, 0.000000000000000000, 1.000000000000000000 ) ) ;
#748 = ADVANCED_FACE ( 'NONE', ( #348 ), #493, .F. ) ;
#749 = EDGE_CURVE ( 'NONE', #545, #234, #181, .T. ) ;
#750 = AXIS2_PLACEMENT_3D ( 'NONE', #881, #635, #477 ) ;
#751 = EDGE_CURVE ( 'NONE', #688, #965, #883, .T. ) ;
#752 = ORIENTED_EDGE ( 'NONE', *, *, #293, .T. ) ;
#753 = ORIENTED_EDGE ( 'NONE', *, *, #707, .T. ) ;
#754 =( NAMED_UNIT ( * ) SI_UNIT ( $, .STERADIAN. ) SOLID_ANGLE_UNIT ( ) );
#755 = VECTOR ( 'NONE', #914, 1000.000000000000000 ) ;
#756 = ORIENTED_EDGE ( 'NONE', *, *, #968, .F. ) ;
#757 = CARTESIAN_POINT ( 'NONE',  ( 0.000000000000000000, 0.000000000000000000, 48.00000000000000000 ) ) ;
#758 = CARTESIAN_POINT ( 'NONE',  ( -2.999999999999999556, 15.74999999999999645, 5.499999999999998224 ) ) ;
#759 = FACE_OUTER_BOUND ( 'NONE', #597, .T. ) ;
#760 = SHAPE_DEFINITION_REPRESENTATION ( #470, #890 ) ;
#761 = ORIENTED_EDGE ( 'NONE', *, *, #979, .T. ) ;
#762 = EDGE_LOOP ( 'NONE', ( #813, #956, #151, #93 ) ) ;
#763 = CARTESIAN_POINT ( 'NONE',  ( 0.000000000000000000, -7.000000000000002665, 48.00000000000000000 ) ) ;
#764 = CARTESIAN_POINT ( 'NONE',  ( 0.000000000000000000, 15.74999999999999645, 5.499999999999998224 ) ) ;
#765 = LINE ( 'NONE', #930, #966 ) ;
#766 = AXIS2_PLACEMENT_3D ( 'NONE', #318, #6, #529 ) ;
#767 = EDGE_LOOP ( 'NONE', ( #591, #248 ) ) ;
#768 = DIRECTION ( 'NONE',  ( -0.000000000000000000, -1.000000000000000000, -0.000000000000000000 ) ) ;
#769 = ORIENTED_EDGE ( 'NONE', *, *, #390, .T. ) ;
#770 = LINE ( 'NONE', #838, #204 ) ;
#771 = DIRECTION ( 'NONE',  ( 0.000000000000000000, 0.000000000000000000, -1.000000000000000000 ) ) ;
#772 = ORIENTED_EDGE ( 'NONE', *, *, #925, .T. ) ;
#773 = EDGE_CURVE ( 'NONE', #187, #688, #261, .T. ) ;
#774 = AXIS2_PLACEMENT_3D ( 'NONE', #89, #553, #332 ) ;
#775 = ORIENTED_EDGE ( 'NONE', *, *, #173, .F. ) ;
#776 = FACE_BOUND ( 'NONE', #189, .T. ) ;
#777 = AXIS2_PLACEMENT_3D ( 'NONE', #937, #807, #498 ) ;
#778 = CARTESIAN_POINT ( 'NONE',  ( -2.999999999999998224, 4.779999999999999361, 16.16000000000000014 ) ) ;
#779 = VERTEX_POINT ( 'NONE', #862 ) ;
#780 = ORIENTED_EDGE ( 'NONE', *, *, #704, .F. ) ;
#781 = AXIS2_PLACEMENT_3D ( 'NONE', #735, #660, #567 ) ;
#782 = ORIENTED_EDGE ( 'NONE', *, *, #573, .T. ) ;
#783 = AXIS2_PLACEMENT_3D ( 'NONE', #977, #284, #589 ) ;
#784 = VECTOR ( 'NONE', #892, 1000.000000000000000 ) ;
#785 = LINE ( 'NONE', #360, #138 ) ;
#786 = VERTEX_POINT ( 'NONE', #974 ) ;
#787 = ORIENTED_EDGE ( 'NONE', *, *, #296, .T. ) ;
#788 = VECTOR ( 'NONE', #48, 1000.000000000000000 ) ;
#789 = ORIENTED_EDGE ( 'NONE', *, *, #86, .F. ) ;
#790 = CARTESIAN_POINT ( 'NONE',  ( 32.00000000000000000, 48.00000000000000000, 37.00000000000000711 ) ) ;
#791 = EDGE_CURVE ( 'NONE', #823, #473, #269, .T. ) ;
#792 = EDGE_CURVE ( 'NONE', #633, #469, #785, .T. ) ;
#793 = DIRECTION ( 'NONE',  ( 2.065146995210483709E-16, -1.000000000000000000, 0.000000000000000000 ) ) ;
#794 = DIRECTION ( 'NONE',  ( -0.000000000000000000, -1.000000000000000000, -0.000000000000000000 ) ) ;
#795 = VERTEX_POINT ( 'NONE', #960 ) ;
#796 = LINE ( 'NONE', #134, #867 ) ;
#797 = DIRECTION ( 'NONE',  ( 0.000000000000000000, -1.000000000000000000, 0.000000000000000000 ) ) ;
#798 = EDGE_CURVE ( 'NONE', #677, #642, #687, .T. ) ;
#799 = ORIENTED_EDGE ( 'NONE', *, *, #773, .T. ) ;
#800 = CYLINDRICAL_SURFACE ( 'NONE', #777, 1.600000000000002531 ) ;
#801 = DIRECTION ( 'NONE',  ( -0.000000000000000000, -0.000000000000000000, -1.000000000000000000 ) ) ;
#802 = DIRECTION ( 'NONE',  ( 1.000000000000000000, -1.156482317317871331E-15, 0.000000000000000000 ) ) ;
#803 = DIRECTION ( 'NONE',  ( -1.000000000000000000, -1.046815890675659458E-16, -0.000000000000000000 ) ) ;
#804 = ORIENTED_EDGE ( 'NONE', *, *, #618, .F. ) ;
#805 = ORIENTED_EDGE ( 'NONE', *, *, #266, .F. ) ;
#806 = EDGE_CURVE ( 'NONE', #945, #677, #574, .T. ) ;
#807 = DIRECTION ( 'NONE',  ( -0.000000000000000000, -1.000000000000000000, -0.000000000000000000 ) ) ;
#808 = DIRECTION ( 'NONE',  ( 0.000000000000000000, 0.000000000000000000, -1.000000000000000000 ) ) ;
#809 = VERTEX_POINT ( 'NONE', #641 ) ;
#810 = DIRECTION ( 'NONE',  ( -1.000000000000000000, 0.000000000000000000, 0.000000000000000000 ) ) ;
#811 = CYLINDRICAL_SURFACE ( 'NONE', #272, 3.499999999999999556 ) ;
#812 = EDGE_LOOP ( 'NONE', ( #328, #652, #899, #36 ) ) ;
#813 = ORIENTED_EDGE ( 'NONE', *, *, #707, .F. ) ;
#814 = DIRECTION ( 'NONE',  ( -0.000000000000000000, -1.000000000000000000, -0.000000000000000000 ) ) ;
#815 = DIRECTION ( 'NONE',  ( -1.000000000000000000, -1.046815890675659458E-16, -0.000000000000000000 ) ) ;
#816 = DIRECTION ( 'NONE',  ( 0.000000000000000000, -1.000000000000000000, 0.000000000000000000 ) ) ;
#817 = CARTESIAN_POINT ( 'NONE',  ( 32.00000000000000000, 0.000000000000000000, 38.60000000000000142 ) ) ;
#818 = EDGE_CURVE ( 'NONE', #504, #331, #281, .T. ) ;
#819 = EDGE_CURVE ( 'NONE', #809, #671, #133, .T. ) ;
#820 = ORIENTED_EDGE ( 'NONE', *, *, #122, .F. ) ;
#821 = CYLINDRICAL_SURFACE ( 'NONE', #549, 2.100000000000000977 ) ;
#822 = CIRCLE ( 'NONE', #607, 1.600000000000000755 ) ;
#823 = VERTEX_POINT ( 'NONE', #944 ) ;
#824 = CARTESIAN_POINT ( 'NONE',  ( 20.00000000000000000, 48.00000000000000000, 12.59999999999999787 ) ) ;
#825 = APPLICATION_PROTOCOL_DEFINITION ( 'draft international standard', 'automotive_design', 1998, #212 ) ;
#826 = CIRCLE ( 'NONE', #742, 1.599999999999999867 ) ;
#827 = EDGE_CURVE ( 'NONE', #229, #524, #634, .T. ) ;
#828 = DIRECTION ( 'NONE',  ( 0.000000000000000000, 0.000000000000000000, -1.000000000000000000 ) ) ;
#829 = EDGE_CURVE ( 'NONE', #402, #745, #428, .T. ) ;
#830 = EDGE_CURVE ( 'NONE', #863, #82, #127, .T. ) ;
#831 = VECTOR ( 'NONE', #120, 1000.000000000000000 ) ;
#832 = CARTESIAN_POINT ( 'NONE',  ( 32.00000000000000000, 0.000000000000000000, 11.00000000000000000 ) ) ;
#833 = ORIENTED_EDGE ( 'NONE', *, *, #819, .T. ) ;
#834 = CARTESIAN_POINT ( 'NONE',  ( 20.00000000000000000, 0.000000000000000000, 38.60000000000000853 ) ) ;
#835 = EDGE_LOOP ( 'NONE', ( #805, #55 ) ) ;
#836 = DIRECTION ( 'NONE',  ( 0.000000000000000000, -1.000000000000000000, 0.000000000000000000 ) ) ;
#837 = AXIS2_PLACEMENT_3D ( 'NONE', #13, #398, #847 ) ;
#838 = CARTESIAN_POINT ( 'NONE',  ( 0.000000000000000000, 3.000000000000000000, 0.000000000000000000 ) ) ;
#839 = DIRECTION ( 'NONE',  ( 0.000000000000000000, 1.000000000000000000, 0.000000000000000000 ) ) ;
#840 = ORIENTED_EDGE ( 'NONE', *, *, #175, .F. ) ;
#841 = ORIENTED_EDGE ( 'NONE', *, *, #359, .T. ) ;
#842 = DIRECTION ( 'NONE',  ( -1.046815890675659458E-16, 1.000000000000000000, 0.000000000000000000 ) ) ;
#843 = LINE ( 'NONE', #933, #845 ) ;
#844 = ORIENTED_EDGE ( 'NONE', *, *, #193, .T. ) ;
#845 = VECTOR ( 'NONE', #311, 1000.000000000000000 ) ;
#846 = ORIENTED_EDGE ( 'NONE', *, *, #894, .F. ) ;
#847 = DIRECTION ( 'NONE',  ( -1.000000000000000000, 0.000000000000000000, -0.000000000000000000 ) ) ;
#848 = DIRECTION ( 'NONE',  ( 0.000000000000000000, 0.000000000000000000, -1.000000000000000000 ) ) ;
#849 = VERTEX_POINT ( 'NONE', #422 ) ;
#850 = DIRECTION ( 'NONE',  ( 1.239088197126290817E-16, -1.000000000000000000, 0.000000000000000000 ) ) ;
#851 = CARTESIAN_POINT ( 'NONE',  ( -2.999999999999998668, 6.880000000000000782, 16.16000000000000014 ) ) ;
#852 = CARTESIAN_POINT ( 'NONE',  ( 20.00000000000000000, 48.00000000000000000, 10.99999999999999645 ) ) ;
#853 = ADVANCED_FACE ( 'NONE', ( #665 ), #478, .F. ) ;
#854 = AXIS2_PLACEMENT_3D ( 'NONE', #657, #277, #886 ) ;
#855 = ORIENTED_EDGE ( 'NONE', *, *, #696, .T. ) ;
#856 = CARTESIAN_POINT ( 'NONE',  ( 0.000000000000000000, 14.14999999999999503, 5.499999999999998224 ) ) ;
#857 = FACE_OUTER_BOUND ( 'NONE', #519, .T. ) ;
#858 = ORIENTED_EDGE ( 'NONE', *, *, #614, .F. ) ;
#859 = AXIS2_PLACEMENT_3D ( 'NONE', #851, #335, #793 ) ;
#860 = ORIENTED_EDGE ( 'NONE', *, *, #696, .F. ) ;
#861 = LINE ( 'NONE', #329, #701 ) ;
#862 = CARTESIAN_POINT ( 'NONE',  ( 20.00000000000000000, 0.000000000000000000, 12.59999999999999787 ) ) ;
#863 = VERTEX_POINT ( 'NONE', #410 ) ;
#864 = ORIENTED_EDGE ( 'NONE', *, *, #463, .T. ) ;
#865 = AXIS2_PLACEMENT_3D ( 'NONE', #157, #240, #326 ) ;
#866 = DIRECTION ( 'NONE',  ( -0.000000000000000000, -0.000000000000000000, -1.000000000000000000 ) ) ;
#867 = VECTOR ( 'NONE', #490, 1000.000000000000000 ) ;
#868 = CARTESIAN_POINT ( 'NONE',  ( 0.000000000000000000, 3.000000000000000000, 48.00000000000000000 ) ) ;
#869 = ORIENTED_EDGE ( 'NONE', *, *, #285, .F. ) ;
#870 = CARTESIAN_POINT ( 'NONE',  ( 0.000000000000000000, 15.74999999999999645, 5.499999999999998224 ) ) ;
#871 = ORIENTED_EDGE ( 'NONE', *, *, #827, .F. ) ;
#872 = LINE ( 'NONE', #417, #351 ) ;
#873 = EDGE_LOOP ( 'NONE', ( #840, #426 ) ) ;
#874 = CARTESIAN_POINT ( 'NONE',  ( 38.00000000000000000, 3.000000000000000000, 48.00000000000000000 ) ) ;
#875 = AXIS2_PLACEMENT_3D ( 'NONE', #8, #387, #21 ) ;
#876 = FACE_OUTER_BOUND ( 'NONE', #576, .T. ) ;
#877 = CYLINDRICAL_SURFACE ( 'NONE', #476, 1.600000000000000311 ) ;
#878 = EDGE_LOOP ( 'NONE', ( #844, #931, #706, #418 ) ) ;
#879 = LINE ( 'NONE', #736, #63 ) ;
#880 = EDGE_LOOP ( 'NONE', ( #177, #401, #100, #176 ) ) ;
#881 = CARTESIAN_POINT ( 'NONE',  ( 0.000000000000000000, 6.880000000000001670, 26.81999999999999673 ) ) ;
#882 = AXIS2_PLACEMENT_3D ( 'NONE', #432, #78, #828 ) ;
#883 = LINE ( 'NONE', #39, #434 ) ;
#884 = EDGE_CURVE ( 'NONE', #849, #465, #15, .T. ) ;
#885 = CARTESIAN_POINT ( 'NONE',  ( 0.000000000000000000, 0.000000000000000000, 48.00000000000000000 ) ) ;
#886 = DIRECTION ( 'NONE',  ( 0.000000000000000000, -1.000000000000000000, 0.000000000000000000 ) ) ;
#887 = CYLINDRICAL_SURFACE ( 'NONE', #630, 1.600000000000004086 ) ;
#888 = PLANE ( 'NONE',  #975 ) ;
#889 =( LENGTH_UNIT ( ) NAMED_UNIT ( * ) SI_UNIT ( .MILLI., .METRE. ) );
#890 = ADVANCED_BREP_SHAPE_REPRESENTATION ( 'Team-A4_motor-holder-left', ( #586, #517 ), #732 ) ;
#891 = LINE ( 'NONE', #211, #479 ) ;
#892 = DIRECTION ( 'NONE',  ( -1.000000000000000000, -1.046815890675659458E-16, -0.000000000000000000 ) ) ;
#893 = EDGE_CURVE ( 'NONE', #863, #710, #872, .T. ) ;
#894 = EDGE_CURVE ( 'NONE', #465, #849, #466, .T. ) ;
#895 = ADVANCED_FACE ( 'NONE', ( #496 ), #430, .F. ) ;
#896 = ORIENTED_EDGE ( 'NONE', *, *, #266, .T. ) ;
#897 = DIRECTION ( 'NONE',  ( 0.000000000000000000, -1.000000000000000000, 0.000000000000000000 ) ) ;
#898 = ORIENTED_EDGE ( 'NONE', *, *, #968, .T. ) ;
#899 = ORIENTED_EDGE ( 'NONE', *, *, #124, .T. ) ;
#900 = AXIS2_PLACEMENT_3D ( 'NONE', #718, #340, #646 ) ;
#901 = EDGE_LOOP ( 'NONE', ( #88, #62, #500, #143 ) ) ;
#902 = FACE_OUTER_BOUND ( 'NONE', #878, .T. ) ;
#903 = SURFACE_STYLE_FILL_AREA ( #369 ) ;
#904 = VECTOR ( 'NONE', #196, 1000.000000000000000 ) ;
#905 = ORIENTED_EDGE ( 'NONE', *, *, #17, .T. ) ;
#906 = AXIS2_PLACEMENT_3D ( 'NONE', #185, #486, #416 ) ;
#907 = ORIENTED_EDGE ( 'NONE', *, *, #366, .T. ) ;
#908 = FACE_BOUND ( 'NONE', #209, .T. ) ;
#909 = DIRECTION ( 'NONE',  ( 0.000000000000000000, -1.000000000000000000, 0.000000000000000000 ) ) ;
#910 = EDGE_LOOP ( 'NONE', ( #252, #864 ) ) ;
#911 = ADVANCED_FACE ( 'NONE', ( #287 ), #811, .F. ) ;
#912 = CIRCLE ( 'NONE', #482, 1.599999999999997202 ) ;
#913 = VERTEX_POINT ( 'NONE', #723 ) ;
#914 = DIRECTION ( 'NONE',  ( 0.000000000000000000, 1.000000000000000000, 0.000000000000000000 ) ) ;
#915 = DIRECTION ( 'NONE',  ( 0.000000000000000000, -1.000000000000000000, 0.000000000000000000 ) ) ;
#916 = VECTOR ( 'NONE', #59, 1000.000000000000000 ) ;
#917 = ORIENTED_EDGE ( 'NONE', *, *, #637, .T. ) ;
#918 = ORIENTED_EDGE ( 'NONE', *, *, #87, .T. ) ;
#919 = CARTESIAN_POINT ( 'NONE',  ( -2.999999999999998668, 6.880000000000000782, 26.81999999999999673 ) ) ;
#920 = FACE_OUTER_BOUND ( 'NONE', #812, .T. ) ;
#921 = ORIENTED_EDGE ( 'NONE', *, *, #637, .F. ) ;
#922 = AXIS2_PLACEMENT_3D ( 'NONE', #232, #365, #673 ) ;
#923 = DIRECTION ( 'NONE',  ( -1.000000000000000000, -1.046815890675659458E-16, -0.000000000000000000 ) ) ;
#924 = VERTEX_POINT ( 'NONE', #420 ) ;
#925 = EDGE_CURVE ( 'NONE', #83, #388, #654, .T. ) ;
#926 = ADVANCED_FACE ( 'NONE', ( #414 ), #821, .F. ) ;
#927 = CARTESIAN_POINT ( 'NONE',  ( -2.999999999999998668, 6.880000000000002558, 40.57999999999999829 ) ) ;
#928 = DIRECTION ( 'NONE',  ( 0.000000000000000000, 0.000000000000000000, -1.000000000000000000 ) ) ;
#929 = DIRECTION ( 'NONE',  ( -1.000000000000000000, -1.046815890675659458E-16, 0.000000000000000000 ) ) ;
#930 = CARTESIAN_POINT ( 'NONE',  ( 0.000000000000000000, -7.000000000000002665, 0.000000000000000000 ) ) ;
#931 = ORIENTED_EDGE ( 'NONE', *, *, #893, .F. ) ;
#932 = PLANE ( 'NONE',  #766 ) ;
#933 = CARTESIAN_POINT ( 'NONE',  ( -2.999999999999996891, -7.000000000000002665, 0.000000000000000000 ) ) ;
#934 = VERTEX_POINT ( 'NONE', #874 ) ;
#935 = UNCERTAINTY_MEASURE_WITH_UNIT (LENGTH_MEASURE( 1.000000000000000082E-05 ), #148, 'distance_accuracy_value', 'NONE');
#936 = ORIENTED_EDGE ( 'NONE', *, *, #86, .T. ) ;
#937 = CARTESIAN_POINT ( 'NONE',  ( 20.00000000000000000, 48.00000000000000000, 10.99999999999999645 ) ) ;
#938 = CARTESIAN_POINT ( 'NONE',  ( 45.00000000000000000, 15.75000000000000000, 5.499999999999998224 ) ) ;
#939 = ORIENTED_EDGE ( 'NONE', *, *, #984, .T. ) ;
#940 = VERTEX_POINT ( 'NONE', #817 ) ;
#941 = VECTOR ( 'NONE', #866, 1000.000000000000000 ) ;
#942 = CARTESIAN_POINT ( 'NONE',  ( 38.00000000000000000, 0.000000000000000000, 48.00000000000000000 ) ) ;
#943 = APPLICATION_CONTEXT ( 'automotive_design' ) ;
#944 = CARTESIAN_POINT ( 'NONE',  ( 0.000000000000000000, 21.99999999999999645, 0.000000000000000000 ) ) ;
#945 = VERTEX_POINT ( 'NONE', #737 ) ;
#946 = FACE_OUTER_BOUND ( 'NONE', #644, .T. ) ;
#947 = ORIENTED_EDGE ( 'NONE', *, *, #87, .F. ) ;
#948 = AXIS2_PLACEMENT_3D ( 'NONE', #625, #685, #848 ) ;
#949 = CARTESIAN_POINT ( 'NONE',  ( 20.00000000000000000, 0.000000000000000000, 35.39999999999999858 ) ) ;
#950 = CIRCLE ( 'NONE', #513, 1.599999999999998090 ) ;
#951 = AXIS2_PLACEMENT_3D ( 'NONE', #757, #604, #289 ) ;
#952 = DIRECTION ( 'NONE',  ( 0.000000000000000000, -1.000000000000000000, 0.000000000000000000 ) ) ;
#953 = ORIENTED_EDGE ( 'NONE', *, *, #827, .T. ) ;
#954 = LINE ( 'NONE', #419, #528 ) ;
#955 = DIRECTION ( 'NONE',  ( 0.000000000000000000, -1.000000000000000000, 0.000000000000000000 ) ) ;
#956 = ORIENTED_EDGE ( 'NONE', *, *, #285, .T. ) ;
#957 = ORIENTED_EDGE ( 'NONE', *, *, #526, .F. ) ;
#958 = DIRECTION ( 'NONE',  ( -1.000000000000000000, 0.000000000000000000, 0.000000000000000000 ) ) ;
#959 = LINE ( 'NONE', #119, #522 ) ;
#960 = CARTESIAN_POINT ( 'NONE',  ( 20.00000000000000000, 0.000000000000000000, 9.399999999999993250 ) ) ;
#961 = EDGE_CURVE ( 'NONE', #187, #317, #578, .T. ) ;
#962 = ORIENTED_EDGE ( 'NONE', *, *, #818, .F. ) ;
#963 = DIRECTION ( 'NONE',  ( -1.156482317317871331E-15, -1.000000000000000000, 0.000000000000000000 ) ) ;
#964 = ORIENTED_EDGE ( 'NONE', *, *, #453, .F. ) ;
#965 = VERTEX_POINT ( 'NONE', #663 ) ;
#966 = VECTOR ( 'NONE', #16, 1000.000000000000000 ) ;
#967 = CARTESIAN_POINT ( 'NONE',  ( 32.00000000000000000, 0.000000000000000000, 9.400000000000002132 ) ) ;
#968 = EDGE_CURVE ( 'NONE', #82, #823, #135, .T. ) ;
#969 = CARTESIAN_POINT ( 'NONE',  ( 45.00000000000000711, -1.999999999999997780, 5.499999999999998224 ) ) ;
#970 = AXIS2_PLACEMENT_3D ( 'NONE', #790, #274, #34 ) ;
#971 = LINE ( 'NONE', #282, #916 ) ;
#972 = AXIS2_PLACEMENT_3D ( 'NONE', #245, #472, #771 ) ;
#973 = CIRCLE ( 'NONE', #345, 3.499999999999999556 ) ;
#974 = CARTESIAN_POINT ( 'NONE',  ( 20.00000000000000000, 3.000000000000002665, 35.39999999999999858 ) ) ;
#975 = AXIS2_PLACEMENT_3D ( 'NONE', #47, #963, #802 ) ;
#976 = LINE ( 'NONE', #583, #66 ) ;
#977 = CARTESIAN_POINT ( 'NONE',  ( 38.00000000000000000, 3.000000000000000000, 48.00000000000000000 ) ) ;
#978 = PLANE ( 'NONE',  #951 ) ;
#979 = EDGE_CURVE ( 'NONE', #849, #257, #503, .T. ) ;
#980 = ORIENTED_EDGE ( 'NONE', *, *, #296, .F. ) ;
#981 = CARTESIAN_POINT ( 'NONE',  ( -2.999999999999996891, -7.000000000000002665, 0.000000000000000000 ) ) ;
#982 = CARTESIAN_POINT ( 'NONE',  ( 45.00000000000000711, 8.480000000000005755, 40.57999999999999829 ) ) ;
#983 = EDGE_CURVE ( 'NONE', #924, #473, #971, .T. ) ;
#984 = EDGE_CURVE ( 'NONE', #473, #521, #976, .T. ) ;
#985 = FACE_BOUND ( 'NONE', #90, .T. ) ;
ENDSEC;
END-ISO-10303-21;
