ISO-10303-21;
HEADER;
FILE_DESCRIPTION (( 'STEP AP214' ),
    '1' );
FILE_NAME ('Team A4-IR.STEP',
    '2026-05-01T16:45:44',
    ( '' ),
    ( '' ),
    'SwSTEP 2.0',
    'SolidWorks 2025',
    '' );
FILE_SCHEMA (( 'AUTOMOTIVE_DESIGN' ));
ENDSEC;

DATA;
#1 = VECTOR ( 'NONE', #883, 1000.000000000000000 ) ;
#2 = PLANE ( 'NONE',  #874 ) ;
#3 = ADVANCED_FACE ( 'NONE', ( #910 ), #705, .F. ) ;
#4 = ORIENTED_EDGE ( 'NONE', *, *, #608, .T. ) ;
#5 = CIRCLE ( 'NONE', #97, 1.600000000000004086 ) ;
#6 = CYLINDRICAL_SURFACE ( 'NONE', #655, 1.600000000000004974 ) ;
#7 = LINE ( 'NONE', #520, #414 ) ;
#8 = ORIENTED_EDGE ( 'NONE', *, *, #443, .F. ) ;
#9 = CARTESIAN_POINT ( 'NONE',  ( 75.59999999999999432, 8.919999999999999929, 1.250000000000000000 ) ) ;
#10 = EDGE_CURVE ( 'NONE', #175, #763, #697, .T. ) ;
#11 = DIRECTION ( 'NONE',  ( 1.000000000000000000, 0.000000000000000000, -2.115516434118057709E-16 ) ) ;
#12 = ORIENTED_EDGE ( 'NONE', *, *, #477, .T. ) ;
#13 = ORIENTED_EDGE ( 'NONE', *, *, #521, .T. ) ;
#14 = CARTESIAN_POINT ( 'NONE',  ( 3.389964328074552716E-16, 2.000000000000000000, 12.50000000000000000 ) ) ;
#15 = VECTOR ( 'NONE', #648, 1000.000000000000000 ) ;
#16 = LINE ( 'NONE', #299, #749 ) ;
#17 = ORIENTED_EDGE ( 'NONE', *, *, #630, .T. ) ;
#18 = VERTEX_POINT ( 'NONE', #250 ) ;
#19 = DIRECTION ( 'NONE',  ( 0.000000000000000000, 0.000000000000000000, -1.000000000000000000 ) ) ;
#20 = EDGE_CURVE ( 'NONE', #922, #675, #5, .T. ) ;
#21 = CARTESIAN_POINT ( 'NONE',  ( 24.34488726241303880, 0.000000000000000000, 6.250000000000000000 ) ) ;
#22 = ORIENTED_EDGE ( 'NONE', *, *, #851, .T. ) ;
#23 = ORIENTED_EDGE ( 'NONE', *, *, #630, .F. ) ;
#24 = LINE ( 'NONE', #454, #48 ) ;
#25 = CARTESIAN_POINT ( 'NONE',  ( 75.59999999999999432, 8.919999999999999929, 11.33999999999999986 ) ) ;
#26 = ORIENTED_EDGE ( 'NONE', *, *, #880, .F. ) ;
#27 = ORIENTED_EDGE ( 'NONE', *, *, #92, .F. ) ;
#28 = CARTESIAN_POINT ( 'NONE',  ( 78.25000000000000000, 10.91999999999999993, 6.250000000000000000 ) ) ;
#29 = DIRECTION ( 'NONE',  ( 1.000000000000000000, 1.652117596168388002E-16, 0.000000000000000000 ) ) ;
#30 = CIRCLE ( 'NONE', #446, 1.100000000000000311 ) ;
#31 = CARTESIAN_POINT ( 'NONE',  ( 40.00000000000000000, 2.000000000000004885, 12.50000000000000000 ) ) ;
#32 = ADVANCED_FACE ( 'NONE', ( #847 ), #178, .F. ) ;
#33 = ORIENTED_EDGE ( 'NONE', *, *, #135, .F. ) ;
#34 = CARTESIAN_POINT ( 'NONE',  ( 82.00000000000000000, 10.91999999999999993, 0.000000000000000000 ) ) ;
#35 = AXIS2_PLACEMENT_3D ( 'NONE', #927, #636, #261 ) ;
#36 = VECTOR ( 'NONE', #159, 1000.000000000000000 ) ;
#37 = DIRECTION ( 'NONE',  ( -0.000000000000000000, -1.000000000000000000, -0.000000000000000000 ) ) ;
#38 = ORIENTED_EDGE ( 'NONE', *, *, #471, .F. ) ;
#39 = ORIENTED_EDGE ( 'NONE', *, *, #812, .F. ) ;
#40 = CARTESIAN_POINT ( 'NONE',  ( 10.63911740544042850, 0.000000000000000000, 5.149999999999999467 ) ) ;
#41 = CARTESIAN_POINT ( 'NONE',  ( 45.00000000000000711, 8.919999999999999929, 6.700000000000000178 ) ) ;
#42 = CARTESIAN_POINT ( 'NONE',  ( 69.87999999999999545, 10.91999999999999815, 1.250000000000000000 ) ) ;
#43 = EDGE_LOOP ( 'NONE', ( #717, #445, #226, #148 ) ) ;
#44 = CARTESIAN_POINT ( 'NONE',  ( 0.000000000000000000, 0.000000000000000000, 0.000000000000000000 ) ) ;
#45 = FACE_OUTER_BOUND ( 'NONE', #623, .T. ) ;
#46 = LINE ( 'NONE', #132, #213 ) ;
#47 = VECTOR ( 'NONE', #512, 1000.000000000000000 ) ;
#48 = VECTOR ( 'NONE', #748, 1000.000000000000000 ) ;
#49 = VERTEX_POINT ( 'NONE', #319 ) ;
#50 = CARTESIAN_POINT ( 'NONE',  ( 24.34488726241303880, 2.000000000000003553, 7.349999999999999645 ) ) ;
#51 = CARTESIAN_POINT ( 'NONE',  ( 42.00000000000000000, 0.000000000000000000, 0.000000000000000000 ) ) ;
#52 = AXIS2_PLACEMENT_3D ( 'NONE', #28, #634, #263 ) ;
#53 = CARTESIAN_POINT ( 'NONE',  ( 69.87999999999999545, 8.919999999999999929, 11.33999999999999808 ) ) ;
#54 = EDGE_CURVE ( 'NONE', #675, #922, #673, .T. ) ;
#55 = ORIENTED_EDGE ( 'NONE', *, *, #452, .T. ) ;
#56 = CARTESIAN_POINT ( 'NONE',  ( 0.000000000000000000, 0.000000000000000000, 0.000000000000000000 ) ) ;
#57 = DIRECTION ( 'NONE',  ( 1.652117596168388002E-16, -1.000000000000000000, 0.000000000000000000 ) ) ;
#58 = ORIENTED_EDGE ( 'NONE', *, *, #812, .T. ) ;
#59 = APPLICATION_PROTOCOL_DEFINITION ( 'draft international standard', 'automotive_design', 1998, #113 ) ;
#60 = CARTESIAN_POINT ( 'NONE',  ( 49.10000000000000142, 8.919999999999999929, 1.500000000000000444 ) ) ;
#61 = ORIENTED_EDGE ( 'NONE', *, *, #387, .T. ) ;
#62 = LINE ( 'NONE', #799, #532 ) ;
#63 = EDGE_CURVE ( 'NONE', #859, #778, #328, .T. ) ;
#64 = ADVANCED_FACE ( 'NONE', ( #478 ), #116, .F. ) ;
#65 = VECTOR ( 'NONE', #702, 1000.000000000000000 ) ;
#66 = LINE ( 'NONE', #822, #706 ) ;
#67 = VECTOR ( 'NONE', #357, 1000.000000000000000 ) ;
#68 = PRODUCT_DEFINITION_CONTEXT ( 'detailed design', #508, 'design' ) ;
#69 = ORIENTED_EDGE ( 'NONE', *, *, #606, .T. ) ;
#70 = CARTESIAN_POINT ( 'NONE',  ( 45.00000000000000711, 8.919999999999999929, 6.700000000000000178 ) ) ;
#71 = DIRECTION ( 'NONE',  ( 0.000000000000000000, -1.000000000000000000, 0.000000000000000000 ) ) ;
#72 = VECTOR ( 'NONE', #879, 1000.000000000000000 ) ;
#73 = VERTEX_POINT ( 'NONE', #394 ) ;
#74 = DIRECTION ( 'NONE',  ( 0.000000000000000000, 0.000000000000000000, -1.000000000000000000 ) ) ;
#75 = VERTEX_POINT ( 'NONE', #108 ) ;
#76 = ORIENTED_EDGE ( 'NONE', *, *, #103, .F. ) ;
#77 = DIRECTION ( 'NONE',  ( -0.000000000000000000, -1.000000000000000000, -0.000000000000000000 ) ) ;
#78 = AXIS2_PLACEMENT_3D ( 'NONE', #120, #734, #125 ) ;
#79 = DIRECTION ( 'NONE',  ( 1.000000000000000000, 0.000000000000000000, 0.000000000000000000 ) ) ;
#80 = ORIENTED_EDGE ( 'NONE', *, *, #103, .T. ) ;
#81 = ADVANCED_FACE ( 'NONE', ( #408 ), #555, .F. ) ;
#82 = CIRCLE ( 'NONE', #627, 1.600000000000004974 ) ;
#83 = VERTEX_POINT ( 'NONE', #915 ) ;
#84 = DIRECTION ( 'NONE',  ( -0.000000000000000000, -1.000000000000000000, -0.000000000000000000 ) ) ;
#85 = FACE_BOUND ( 'NONE', #897, .T. ) ;
#86 = ORIENTED_EDGE ( 'NONE', *, *, #336, .F. ) ;
#87 = ORIENTED_EDGE ( 'NONE', *, *, #724, .F. ) ;
#88 = CARTESIAN_POINT ( 'NONE',  ( 75.59999999999999432, 8.919999999999999929, 11.33999999999999986 ) ) ;
#89 = CARTESIAN_POINT ( 'NONE',  ( 82.00000000000000000, 10.91999999999999993, 1.500000000000001332 ) ) ;
#90 = VERTEX_POINT ( 'NONE', #42 ) ;
#91 = VERTEX_POINT ( 'NONE', #339 ) ;
#92 = EDGE_CURVE ( 'NONE', #428, #436, #473, .T. ) ;
#93 = CARTESIAN_POINT ( 'NONE',  ( 49.10000000000000142, 10.91999999999999460, 6.699999999999999289 ) ) ;
#94 = DIRECTION ( 'NONE',  ( 1.000000000000000000, -0.000000000000000000, 0.000000000000000000 ) ) ;
#95 = DIRECTION ( 'NONE',  ( -0.000000000000000000, -1.000000000000000000, -0.000000000000000000 ) ) ;
#96 = DIRECTION ( 'NONE',  ( 0.000000000000000000, -1.000000000000000000, 0.000000000000000000 ) ) ;
#97 = AXIS2_PLACEMENT_3D ( 'NONE', #164, #837, #104 ) ;
#98 = DIRECTION ( 'NONE',  ( 1.652117596168388002E-16, -1.000000000000000000, 0.000000000000000000 ) ) ;
#99 = DIRECTION ( 'NONE',  ( 0.000000000000000000, 0.000000000000000000, 1.000000000000000000 ) ) ;
#100 = ORIENTED_EDGE ( 'NONE', *, *, #487, .F. ) ;
#101 = DIRECTION ( 'NONE',  ( 0.000000000000000000, 0.000000000000000000, -1.000000000000000000 ) ) ;
#102 = LINE ( 'NONE', #107, #154 ) ;
#103 = EDGE_CURVE ( 'NONE', #346, #381, #872, .T. ) ;
#104 = DIRECTION ( 'NONE',  ( 1.000000000000000000, 0.000000000000000000, 0.000000000000000000 ) ) ;
#105 = ORIENTED_EDGE ( 'NONE', *, *, #739, .T. ) ;
#106 = CARTESIAN_POINT ( 'NONE',  ( 66.69999999999998863, 8.919999999999999929, 6.250000000000000000 ) ) ;
#107 = CARTESIAN_POINT ( 'NONE',  ( 69.87999999999999545, 18.91999999999999815, 11.33999999999999808 ) ) ;
#108 = CARTESIAN_POINT ( 'NONE',  ( 58.60000000000000142, 8.919999999999999929, 3.049999999999997158 ) ) ;
#109 = ORIENTED_EDGE ( 'NONE', *, *, #135, .T. ) ;
#110 = DIRECTION ( 'NONE',  ( 0.000000000000000000, -1.000000000000000000, 0.000000000000000000 ) ) ;
#111 = EDGE_CURVE ( 'NONE', #854, #741, #294, .T. ) ;
#112 = AXIS2_PLACEMENT_3D ( 'NONE', #201, #126, #424 ) ;
#113 = APPLICATION_CONTEXT ( 'automotive_design' ) ;
#114 = VECTOR ( 'NONE', #780, 1000.000000000000000 ) ;
#115 = LINE ( 'NONE', #415, #372 ) ;
#116 = PLANE ( 'NONE',  #245 ) ;
#117 = ORIENTED_EDGE ( 'NONE', *, *, #487, .T. ) ;
#118 = LINE ( 'NONE', #562, #795 ) ;
#119 = VECTOR ( 'NONE', #360, 1000.000000000000000 ) ;
#120 = CARTESIAN_POINT ( 'NONE',  ( 78.25000000000000000, 18.91999999999999815, 6.250000000000000000 ) ) ;
#121 = FACE_OUTER_BOUND ( 'NONE', #507, .T. ) ;
#122 = EDGE_LOOP ( 'NONE', ( #657, #22, #651, #251, #433, #574, #903, #823 ) ) ;
#123 = CARTESIAN_POINT ( 'NONE',  ( 10.63911740544042850, 2.000000000000001776, 6.250000000000000000 ) ) ;
#124 = EDGE_CURVE ( 'NONE', #722, #75, #646, .T. ) ;
#125 = DIRECTION ( 'NONE',  ( 0.000000000000000000, 0.000000000000000000, -1.000000000000000000 ) ) ;
#126 = DIRECTION ( 'NONE',  ( -1.000000000000000000, 0.000000000000000000, 0.000000000000000000 ) ) ;
#127 = VECTOR ( 'NONE', #268, 1000.000000000000000 ) ;
#128 = VERTEX_POINT ( 'NONE', #193 ) ;
#129 = CIRCLE ( 'NONE', #947, 1.600000000000004974 ) ;
#130 = DIRECTION ( 'NONE',  ( 1.192622389734054877E-16, -1.000000000000000000, 0.000000000000000000 ) ) ;
#131 = AXIS2_PLACEMENT_3D ( 'NONE', #169, #620, #843 ) ;
#132 = CARTESIAN_POINT ( 'NONE',  ( 42.00000000000000000, 8.919999999999999929, 0.000000000000000000 ) ) ;
#133 = ORIENTED_EDGE ( 'NONE', *, *, #223, .F. ) ;
#134 = EDGE_CURVE ( 'NONE', #679, #221, #420, .T. ) ;
#135 = EDGE_CURVE ( 'NONE', #152, #802, #46, .T. ) ;
#136 = CARTESIAN_POINT ( 'NONE',  ( 66.69999999999998863, 8.919999999999999929, 4.649999999999995026 ) ) ;
#137 = ORIENTED_EDGE ( 'NONE', *, *, #583, .F. ) ;
#138 = LINE ( 'NONE', #431, #919 ) ;
#139 = ORIENTED_EDGE ( 'NONE', *, *, #356, .F. ) ;
#140 = PRODUCT_RELATED_PRODUCT_CATEGORY ( 'part', '', ( #337 ) ) ;
#141 = AXIS2_PLACEMENT_3D ( 'NONE', #495, #458, #761 ) ;
#142 = EDGE_CURVE ( 'NONE', #711, #83, #493, .T. ) ;
#143 = DIRECTION ( 'NONE',  ( -0.000000000000000000, 0.000000000000000000, 1.000000000000000000 ) ) ;
#144 = EDGE_LOOP ( 'NONE', ( #571, #891, #280, #886, #653, #33, #732, #911 ) ) ;
#145 = CARTESIAN_POINT ( 'NONE',  ( 24.34488726241303880, 12.50000000000000000, 5.150000000000001243 ) ) ;
#146 = CARTESIAN_POINT ( 'NONE',  ( 82.00000000000000000, 10.91999999999999993, 12.50000000000000000 ) ) ;
#147 = CIRCLE ( 'NONE', #756, 1.600000000000004086 ) ;
#148 = ORIENTED_EDGE ( 'NONE', *, *, #496, .F. ) ;
#149 =( NAMED_UNIT ( * ) PLANE_ANGLE_UNIT ( ) SI_UNIT ( $, .RADIAN. ) );
#150 = PLANE ( 'NONE',  #330 ) ;
#151 = ADVANCED_FACE ( 'NONE', ( #791 ), #936, .F. ) ;
#152 = VERTEX_POINT ( 'NONE', #800 ) ;
#153 = LINE ( 'NONE', #230, #523 ) ;
#154 = VECTOR ( 'NONE', #625, 1000.000000000000000 ) ;
#155 = DIRECTION ( 'NONE',  ( -1.694982164037276358E-16, -1.000000000000000000, 0.000000000000000000 ) ) ;
#156 = ORIENTED_EDGE ( 'NONE', *, *, #308, .T. ) ;
#157 = VECTOR ( 'NONE', #842, 1000.000000000000000 ) ;
#158 = DIRECTION ( 'NONE',  ( 0.000000000000000000, 0.000000000000000000, -1.000000000000000000 ) ) ;
#159 = DIRECTION ( 'NONE',  ( -0.000000000000000000, -1.000000000000000000, -0.000000000000000000 ) ) ;
#160 = EDGE_CURVE ( 'NONE', #221, #863, #188, .T. ) ;
#161 = VERTEX_POINT ( 'NONE', #787 ) ;
#162 = DIRECTION ( 'NONE',  ( -0.000000000000000000, -0.000000000000000000, -1.000000000000000000 ) ) ;
#163 = PLANE ( 'NONE',  #358 ) ;
#164 = CARTESIAN_POINT ( 'NONE',  ( 66.69999999999998863, 10.91999999999999815, 6.250000000000000000 ) ) ;
#165 = ORIENTED_EDGE ( 'NONE', *, *, #189, .F. ) ;
#166 = DIRECTION ( 'NONE',  ( 0.000000000000000000, 0.000000000000000000, -1.000000000000000000 ) ) ;
#167 = AXIS2_PLACEMENT_3D ( 'NONE', #239, #374, #908 ) ;
#168 = DIRECTION ( 'NONE',  ( 0.000000000000000000, 0.000000000000000000, -1.000000000000000000 ) ) ;
#169 = CARTESIAN_POINT ( 'NONE',  ( 24.34488726241303880, 2.000000000000003553, 6.250000000000000000 ) ) ;
#170 = ORIENTED_EDGE ( 'NONE', *, *, #820, .T. ) ;
#171 = DIRECTION ( 'NONE',  ( -0.000000000000000000, -1.000000000000000000, -0.000000000000000000 ) ) ;
#172 = ADVANCED_FACE ( 'NONE', ( #362, #663, #121 ), #725, .F. ) ;
#173 = DIRECTION ( 'NONE',  ( 0.000000000000000000, 0.000000000000000000, -1.000000000000000000 ) ) ;
#174 = DIRECTION ( 'NONE',  ( 0.000000000000000000, 0.000000000000000000, -1.000000000000000000 ) ) ;
#175 = VERTEX_POINT ( 'NONE', #862 ) ;
#176 = CARTESIAN_POINT ( 'NONE',  ( 66.69999999999998863, 18.91999999999999815, 7.850000000000005862 ) ) ;
#177 = LINE ( 'NONE', #407, #798 ) ;
#178 = CYLINDRICAL_SURFACE ( 'NONE', #361, 3.200000000000003286 ) ;
#179 = ADVANCED_FACE ( 'NONE', ( #497, #652, #350, #866, #649, #270 ), #948, .F. ) ;
#180 = EDGE_LOOP ( 'NONE', ( #671, #530, #956, #753 ) ) ;
#181 = PLANE ( 'NONE',  #225 ) ;
#182 = DIRECTION ( 'NONE',  ( 0.000000000000000000, 0.000000000000000000, -1.000000000000000000 ) ) ;
#183 = DIRECTION ( 'NONE',  ( 1.000000000000000000, 0.000000000000000000, 0.000000000000000000 ) ) ;
#184 = VERTEX_POINT ( 'NONE', #60 ) ;
#185 = DIRECTION ( 'NONE',  ( 0.000000000000000000, 0.000000000000000000, -1.000000000000000000 ) ) ;
#186 = VECTOR ( 'NONE', #204, 1000.000000000000000 ) ;
#187 = LINE ( 'NONE', #586, #47 ) ;
#188 = LINE ( 'NONE', #53, #723 ) ;
#189 = EDGE_CURVE ( 'NONE', #498, #175, #871, .T. ) ;
#190 = EDGE_LOOP ( 'NONE', ( #341, #275 ) ) ;
#191 = DIRECTION ( 'NONE',  ( -0.000000000000000000, -1.000000000000000000, -0.000000000000000000 ) ) ;
#192 = DIRECTION ( 'NONE',  ( -0.000000000000000000, -1.000000000000000000, -0.000000000000000000 ) ) ;
#193 = CARTESIAN_POINT ( 'NONE',  ( 0.000000000000000000, 0.000000000000000000, 12.50000000000000000 ) ) ;
#194 = ORIENTED_EDGE ( 'NONE', *, *, #553, .F. ) ;
#195 = CYLINDRICAL_SURFACE ( 'NONE', #78, 1.600000000000004974 ) ;
#196 = DIRECTION ( 'NONE',  ( 1.000000000000000000, 1.652117596168388002E-16, 0.000000000000000000 ) ) ;
#197 = VERTEX_POINT ( 'NONE', #136 ) ;
#198 =( NAMED_UNIT ( * ) SI_UNIT ( $, .STERADIAN. ) SOLID_ANGLE_UNIT ( ) );
#199 = EDGE_CURVE ( 'NONE', #763, #18, #944, .T. ) ;
#200 = VECTOR ( 'NONE', #738, 1000.000000000000000 ) ;
#201 = CARTESIAN_POINT ( 'NONE',  ( 42.00000000000000000, 0.000000000000000000, 12.50000000000000000 ) ) ;
#202 = EDGE_LOOP ( 'NONE', ( #39, #282, #315, #788 ) ) ;
#203 = LINE ( 'NONE', #70, #72 ) ;
#204 = DIRECTION ( 'NONE',  ( 0.000000000000000000, -1.000000000000000000, 0.000000000000000000 ) ) ;
#205 = EDGE_CURVE ( 'NONE', #778, #828, #274, .T. ) ;
#206 = EDGE_LOOP ( 'NONE', ( #589, #384, #220, #817 ) ) ;
#207 = FACE_BOUND ( 'NONE', #266, .T. ) ;
#208 = EDGE_LOOP ( 'NONE', ( #514, #784 ) ) ;
#209 = VECTOR ( 'NONE', #610, 1000.000000000000000 ) ;
#210 = DIRECTION ( 'NONE',  ( 1.000000000000000000, 0.000000000000000000, 0.000000000000000000 ) ) ;
#211 = CIRCLE ( 'NONE', #607, 1.100000000000001199 ) ;
#212 = CARTESIAN_POINT ( 'NONE',  ( 45.00000000000000711, 10.91999999999999282, 6.700000000000000178 ) ) ;
#213 = VECTOR ( 'NONE', #656, 1000.000000000000000 ) ;
#214 = ORIENTED_EDGE ( 'NONE', *, *, #199, .T. ) ;
#215 = EDGE_CURVE ( 'NONE', #515, #707, #727, .T. ) ;
#216 = LINE ( 'NONE', #735, #247 ) ;
#217 = ORIENTED_EDGE ( 'NONE', *, *, #893, .F. ) ;
#218 = LINE ( 'NONE', #524, #719 ) ;
#219 = PLANE ( 'NONE',  #951 ) ;
#220 = ORIENTED_EDGE ( 'NONE', *, *, #751, .T. ) ;
#221 = VERTEX_POINT ( 'NONE', #279 ) ;
#222 = LINE ( 'NONE', #676, #946 ) ;
#223 = EDGE_CURVE ( 'NONE', #498, #428, #877, .T. ) ;
#224 = CARTESIAN_POINT ( 'NONE',  ( 45.00000000000000711, 18.91999999999999815, 6.700000000000000178 ) ) ;
#225 = AXIS2_PLACEMENT_3D ( 'NONE', #44, #770, #647 ) ;
#226 = ORIENTED_EDGE ( 'NONE', *, *, #409, .F. ) ;
#227 = AXIS2_PLACEMENT_3D ( 'NONE', #781, #416, #404 ) ;
#228 = AXIS2_PLACEMENT_3D ( 'NONE', #560, #506, #804 ) ;
#229 = ORIENTED_EDGE ( 'NONE', *, *, #943, .T. ) ;
#230 = CARTESIAN_POINT ( 'NONE',  ( 69.87999999999999545, 18.91999999999999815, 1.250000000000000000 ) ) ;
#231 = LINE ( 'NONE', #631, #821 ) ;
#232 = AXIS2_PLACEMENT_3D ( 'NONE', #56, #276, #665 ) ;
#233 = ORIENTED_EDGE ( 'NONE', *, *, #111, .T. ) ;
#234 = ORIENTED_EDGE ( 'NONE', *, *, #893, .T. ) ;
#235 = FACE_OUTER_BOUND ( 'NONE', #503, .T. ) ;
#236 = DIRECTION ( 'NONE',  ( 0.000000000000000000, -1.000000000000000000, 0.000000000000000000 ) ) ;
#237 = DIRECTION ( 'NONE',  ( 0.000000000000000000, 0.000000000000000000, -1.000000000000000000 ) ) ;
#238 = ORIENTED_EDGE ( 'NONE', *, *, #744, .T. ) ;
#239 = CARTESIAN_POINT ( 'NONE',  ( 10.63911740544042850, 0.000000000000000000, 6.250000000000000000 ) ) ;
#240 = AXIS2_PLACEMENT_3D ( 'NONE', #935, #338, #856 ) ;
#241 = CARTESIAN_POINT ( 'NONE',  ( 40.00000000000000000, 2.000000000000004885, 12.50000000000000000 ) ) ;
#242 = EDGE_LOOP ( 'NONE', ( #684, #117, #217, #316 ) ) ;
#243 = CIRCLE ( 'NONE', #643, 1.099999999999999423 ) ;
#244 = ORIENTED_EDGE ( 'NONE', *, *, #943, .F. ) ;
#245 = AXIS2_PLACEMENT_3D ( 'NONE', #777, #483, #99 ) ;
#246 = LINE ( 'NONE', #176, #410 ) ;
#247 = VECTOR ( 'NONE', #383, 1000.000000000000000 ) ;
#248 = EDGE_CURVE ( 'NONE', #778, #859, #661, .T. ) ;
#249 = CARTESIAN_POINT ( 'NONE',  ( 49.10000000000000142, 10.91999999999999460, 1.500000000000001332 ) ) ;
#250 = CARTESIAN_POINT ( 'NONE',  ( 3.389964328074552716E-16, 2.000000000000000000, 0.000000000000000000 ) ) ;
#251 = ORIENTED_EDGE ( 'NONE', *, *, #336, .T. ) ;
#252 = DIRECTION ( 'NONE',  ( 0.000000000000000000, 0.000000000000000000, -1.000000000000000000 ) ) ;
#253 = DIRECTION ( 'NONE',  ( 1.000000000000000000, -0.000000000000000000, 0.000000000000000000 ) ) ;
#254 = DIRECTION ( 'NONE',  ( 1.652117596168388002E-16, -1.000000000000000000, 0.000000000000000000 ) ) ;
#255 = EDGE_LOOP ( 'NONE', ( #156, #518, #139, #467 ) ) ;
#256 = DIRECTION ( 'NONE',  ( 0.000000000000000000, 0.000000000000000000, -1.000000000000000000 ) ) ;
#257 = LINE ( 'NONE', #145, #853 ) ;
#258 = EDGE_CURVE ( 'NONE', #809, #637, #138, .T. ) ;
#259 = EDGE_CURVE ( 'NONE', #428, #763, #66, .T. ) ;
#260 = VECTOR ( 'NONE', #687, 1000.000000000000000 ) ;
#261 = DIRECTION ( 'NONE',  ( 0.000000000000000000, 0.000000000000000000, -1.000000000000000000 ) ) ;
#262 = ORIENTED_EDGE ( 'NONE', *, *, #801, .F. ) ;
#263 = DIRECTION ( 'NONE',  ( 1.000000000000000000, 0.000000000000000000, 0.000000000000000000 ) ) ;
#264 = CYLINDRICAL_SURFACE ( 'NONE', #323, 3.200000000000003286 ) ;
#265 = DIRECTION ( 'NONE',  ( 0.000000000000000000, 1.000000000000000000, 0.000000000000000000 ) ) ;
#266 = EDGE_LOOP ( 'NONE', ( #933, #694 ) ) ;
#267 = CARTESIAN_POINT ( 'NONE',  ( 58.60000000000000142, 8.919999999999999929, 6.250000000000000000 ) ) ;
#268 = DIRECTION ( 'NONE',  ( -0.000000000000000000, -0.000000000000000000, -1.000000000000000000 ) ) ;
#269 = PRODUCT_DEFINITION_SHAPE ( 'NONE', 'NONE',  #296 ) ;
#270 = FACE_OUTER_BOUND ( 'NONE', #484, .T. ) ;
#271 = ORIENTED_EDGE ( 'NONE', *, *, #924, .T. ) ;
#272 = CARTESIAN_POINT ( 'NONE',  ( 75.59999999999999432, 18.91999999999999815, 1.250000000000000000 ) ) ;
#273 = EDGE_CURVE ( 'NONE', #83, #498, #513, .T. ) ;
#274 = LINE ( 'NONE', #502, #485 ) ;
#275 = ORIENTED_EDGE ( 'NONE', *, *, #548, .F. ) ;
#276 = DIRECTION ( 'NONE',  ( 0.000000000000000000, 0.000000000000000000, 1.000000000000000000 ) ) ;
#277 = EDGE_CURVE ( 'NONE', #809, #421, #16, .T. ) ;
#278 = VECTOR ( 'NONE', #813, 1000.000000000000000 ) ;
#279 = CARTESIAN_POINT ( 'NONE',  ( 69.87999999999999545, 8.919999999999999929, 11.33999999999999808 ) ) ;
#280 = ORIENTED_EDGE ( 'NONE', *, *, #10, .F. ) ;
#281 = CARTESIAN_POINT ( 'NONE',  ( 40.00000000000000000, 10.91999999999999282, 12.50000000000000000 ) ) ;
#282 = ORIENTED_EDGE ( 'NONE', *, *, #54, .F. ) ;
#283 = PRODUCT_CONTEXT ( 'NONE', #113, 'mechanical' ) ;
#284 = SURFACE_SIDE_STYLE ('',( #419 ) ) ;
#285 = EDGE_CURVE ( 'NONE', #197, #529, #82, .T. ) ;
#286 = CARTESIAN_POINT ( 'NONE',  ( 0.000000000000000000, 0.000000000000000000, 0.000000000000000000 ) ) ;
#287 = VERTEX_POINT ( 'NONE', #370 ) ;
#288 = AXIS2_PLACEMENT_3D ( 'NONE', #386, #96, #166 ) ;
#289 = LINE ( 'NONE', #272, #119 ) ;
#290 = EDGE_CURVE ( 'NONE', #346, #75, #216, .T. ) ;
#291 = ORIENTED_EDGE ( 'NONE', *, *, #290, .T. ) ;
#292 = FACE_BOUND ( 'NONE', #941, .T. ) ;
#293 = DIRECTION ( 'NONE',  ( 0.000000000000000000, 1.000000000000000000, 0.000000000000000000 ) ) ;
#294 = CIRCLE ( 'NONE', #35, 1.600000000000004974 ) ;
#295 = ORIENTED_EDGE ( 'NONE', *, *, #654, .T. ) ;
#296 = PRODUCT_DEFINITION ( 'UNKNOWN', '', #925, #68 ) ;
#297 = ORIENTED_EDGE ( 'NONE', *, *, #277, .F. ) ;
#298 = CYLINDRICAL_SURFACE ( 'NONE', #743, 1.600000000000004974 ) ;
#299 = CARTESIAN_POINT ( 'NONE',  ( 42.00000000000000000, 0.000000000000000000, 12.50000000000000000 ) ) ;
#300 = VERTEX_POINT ( 'NONE', #212 ) ;
#301 = EDGE_CURVE ( 'NONE', #873, #637, #435, .T. ) ;
#302 = LINE ( 'NONE', #691, #510 ) ;
#303 = CARTESIAN_POINT ( 'NONE',  ( 0.000000000000000000, 0.000000000000000000, 12.50000000000000000 ) ) ;
#304 = ORIENTED_EDGE ( 'NONE', *, *, #680, .T. ) ;
#305 = EDGE_LOOP ( 'NONE', ( #262, #827, #764, #38 ) ) ;
#306 = DIRECTION ( 'NONE',  ( -1.000000000000000000, 0.000000000000000000, 0.000000000000000000 ) ) ;
#307 =( GEOMETRIC_REPRESENTATION_CONTEXT ( 3 ) GLOBAL_UNCERTAINTY_ASSIGNED_CONTEXT ( ( #805 ) ) GLOBAL_UNIT_ASSIGNED_CONTEXT ( ( #811, #149, #889 ) ) REPRESENTATION_CONTEXT ( 'NONE', 'WORKASPACE' ) );
#308 = EDGE_CURVE ( 'NONE', #18, #873, #816, .T. ) ;
#309 = CARTESIAN_POINT ( 'NONE',  ( 75.59999999999999432, 18.91999999999999815, 11.33999999999999986 ) ) ;
#310 = ADVANCED_FACE ( 'NONE', ( #444 ), #150, .F. ) ;
#311 = ORIENTED_EDGE ( 'NONE', *, *, #578, .F. ) ;
#312 = FACE_OUTER_BOUND ( 'NONE', #202, .T. ) ;
#313 = DIRECTION ( 'NONE',  ( -0.000000000000000000, -1.000000000000000000, -0.000000000000000000 ) ) ;
#314 = AXIS2_PLACEMENT_3D ( 'NONE', #267, #864, #101 ) ;
#315 = ORIENTED_EDGE ( 'NONE', *, *, #724, .T. ) ;
#316 = ORIENTED_EDGE ( 'NONE', *, *, #215, .F. ) ;
#317 = FACE_OUTER_BOUND ( 'NONE', #255, .T. ) ;
#318 = LINE ( 'NONE', #771, #114 ) ;
#319 = CARTESIAN_POINT ( 'NONE',  ( 45.00000000000000711, 10.91999999999999282, 1.500000000000000444 ) ) ;
#320 = ORIENTED_EDGE ( 'NONE', *, *, #759, .T. ) ;
#321 = PLANE ( 'NONE',  #857 ) ;
#322 = EDGE_CURVE ( 'NONE', #707, #300, #960, .T. ) ;
#323 = AXIS2_PLACEMENT_3D ( 'NONE', #563, #192, #492 ) ;
#324 = CARTESIAN_POINT ( 'NONE',  ( 0.000000000000000000, 0.000000000000000000, 12.50000000000000000 ) ) ;
#325 = DIRECTION ( 'NONE',  ( 1.000000000000000000, 0.000000000000000000, 0.000000000000000000 ) ) ;
#326 = ADVANCED_FACE ( 'NONE', ( #885, #207, #85, #826, #670, #895 ), #2, .F. ) ;
#327 = ORIENTED_EDGE ( 'NONE', *, *, #701, .T. ) ;
#328 = CIRCLE ( 'NONE', #131, 1.100000000000000311 ) ;
#329 = CARTESIAN_POINT ( 'NONE',  ( 82.00000000000000000, 8.919999999999999929, 0.000000000000000000 ) ) ;
#330 = AXIS2_PLACEMENT_3D ( 'NONE', #588, #74, #666 ) ;
#331 = LINE ( 'NONE', #324, #461 ) ;
#332 = CARTESIAN_POINT ( 'NONE',  ( 58.60000000000000142, 10.91999999999999638, 6.250000000000000000 ) ) ;
#333 = VERTEX_POINT ( 'NONE', #388 ) ;
#334 = CARTESIAN_POINT ( 'NONE',  ( 10.63911740544042850, 12.50000000000000000, 6.250000000000000000 ) ) ;
#335 = ADVANCED_FACE ( 'NONE', ( #593 ), #219, .T. ) ;
#336 = EDGE_CURVE ( 'NONE', #421, #711, #517, .T. ) ;
#337 = PRODUCT ( 'Team A4-IR', 'Team A4-IR', '', ( #283 ) ) ;
#338 = DIRECTION ( 'NONE',  ( 1.000000000000000000, 0.000000000000000000, -0.000000000000000000 ) ) ;
#339 = CARTESIAN_POINT ( 'NONE',  ( 78.25000000000000000, 10.91999999999999993, 4.649999999999994138 ) ) ;
#340 = ADVANCED_BREP_SHAPE_REPRESENTATION ( 'Team A4-IR', ( #581, #232 ), #892 ) ;
#341 = ORIENTED_EDGE ( 'NONE', *, *, #759, .F. ) ;
#342 = DIRECTION ( 'NONE',  ( 0.000000000000000000, -1.000000000000000000, 0.000000000000000000 ) ) ;
#343 = FACE_OUTER_BOUND ( 'NONE', #747, .T. ) ;
#344 = STYLED_ITEM ( 'NONE', ( #516 ), #581 ) ;
#345 = DIRECTION ( 'NONE',  ( 0.000000000000000000, 0.000000000000000000, -1.000000000000000000 ) ) ;
#346 = VERTEX_POINT ( 'NONE', #674 ) ;
#347 = FACE_OUTER_BOUND ( 'NONE', #945, .T. ) ;
#348 = AXIS2_PLACEMENT_3D ( 'NONE', #123, #938, #547 ) ;
#349 = FACE_OUTER_BOUND ( 'NONE', #604, .T. ) ;
#350 = FACE_BOUND ( 'NONE', #447, .T. ) ;
#351 = ORIENTED_EDGE ( 'NONE', *, *, #20, .T. ) ;
#352 =( NAMED_UNIT ( * ) PLANE_ANGLE_UNIT ( ) SI_UNIT ( $, .RADIAN. ) );
#353 = DIRECTION ( 'NONE',  ( -1.000000000000000000, -1.192622389734054877E-16, 0.000000000000000000 ) ) ;
#354 = ORIENTED_EDGE ( 'NONE', *, *, #680, .F. ) ;
#355 = CARTESIAN_POINT ( 'NONE',  ( 78.25000000000000000, 10.91999999999999993, 6.250000000000000000 ) ) ;
#356 = EDGE_CURVE ( 'NONE', #436, #128, #7, .T. ) ;
#357 = DIRECTION ( 'NONE',  ( 0.000000000000000000, 0.000000000000000000, 1.000000000000000000 ) ) ;
#358 = AXIS2_PLACEMENT_3D ( 'NONE', #850, #253, #182 ) ;
#359 = ORIENTED_EDGE ( 'NONE', *, *, #840, .T. ) ;
#360 = DIRECTION ( 'NONE',  ( -0.000000000000000000, -1.000000000000000000, -0.000000000000000000 ) ) ;
#361 = AXIS2_PLACEMENT_3D ( 'NONE', #632, #95, #237 ) ;
#362 = FACE_BOUND ( 'NONE', #208, .T. ) ;
#363 = ORIENTED_EDGE ( 'NONE', *, *, #443, .T. ) ;
#364 = DIRECTION ( 'NONE',  ( 1.000000000000000000, 0.000000000000000000, 0.000000000000000000 ) ) ;
#365 = FILL_AREA_STYLE_COLOUR ( '', #423 ) ;
#366 = ADVANCED_FACE ( 'NONE', ( #449 ), #750, .F. ) ;
#367 = DIRECTION ( 'NONE',  ( 0.000000000000000000, 0.000000000000000000, -1.000000000000000000 ) ) ;
#368 = EDGE_LOOP ( 'NONE', ( #80, #373 ) ) ;
#369 = CARTESIAN_POINT ( 'NONE',  ( 82.00000000000000000, 8.919999999999999929, 12.50000000000000000 ) ) ;
#370 = CARTESIAN_POINT ( 'NONE',  ( 49.10000000000000142, 8.919999999999999929, 6.699999999999999289 ) ) ;
#371 = EDGE_LOOP ( 'NONE', ( #833, #602, #4, #320 ) ) ;
#372 = VECTOR ( 'NONE', #920, 1000.000000000000000 ) ;
#373 = ORIENTED_EDGE ( 'NONE', *, *, #553, .T. ) ;
#374 = DIRECTION ( 'NONE',  ( 0.000000000000000000, -1.000000000000000000, 0.000000000000000000 ) ) ;
#375 = VECTOR ( 'NONE', #256, 1000.000000000000000 ) ;
#376 = VECTOR ( 'NONE', #642, 1000.000000000000000 ) ;
#377 = CARTESIAN_POINT ( 'NONE',  ( 3.389964328074552716E-16, 2.000000000000000000, 0.000000000000000000 ) ) ;
#378 = AXIS2_PLACEMENT_3D ( 'NONE', #309, #94, #168 ) ;
#379 = EDGE_CURVE ( 'NONE', #515, #184, #601, .T. ) ;
#380 = ORIENTED_EDGE ( 'NONE', *, *, #924, .F. ) ;
#381 = VERTEX_POINT ( 'NONE', #455 ) ;
#382 = DIRECTION ( 'NONE',  ( -0.000000000000000000, -1.000000000000000000, -0.000000000000000000 ) ) ;
#383 = DIRECTION ( 'NONE',  ( -0.000000000000000000, -1.000000000000000000, -0.000000000000000000 ) ) ;
#384 = ORIENTED_EDGE ( 'NONE', *, *, #427, .T. ) ;
#385 = ORIENTED_EDGE ( 'NONE', *, *, #820, .F. ) ;
#386 = CARTESIAN_POINT ( 'NONE',  ( 78.25000000000000000, 8.919999999999999929, 6.250000000000000000 ) ) ;
#387 = EDGE_CURVE ( 'NONE', #49, #515, #757, .T. ) ;
#388 = CARTESIAN_POINT ( 'NONE',  ( 75.59999999999999432, 10.91999999999999815, 1.249999999999999334 ) ) ;
#389 = ORIENTED_EDGE ( 'NONE', *, *, #290, .F. ) ;
#390 = ORIENTED_EDGE ( 'NONE', *, *, #596, .T. ) ;
#391 = CARTESIAN_POINT ( 'NONE',  ( 82.00000000000000000, 8.919999999999999929, 12.50000000000000000 ) ) ;
#392 = AXIS2_PLACEMENT_3D ( 'NONE', #672, #306, #537 ) ;
#393 = LINE ( 'NONE', #549, #209 ) ;
#394 = CARTESIAN_POINT ( 'NONE',  ( 24.34488726241303880, 0.000000000000000000, 5.150000000000001243 ) ) ;
#395 = VERTEX_POINT ( 'NONE', #776 ) ;
#396 = PLANE ( 'NONE',  #685 ) ;
#397 = CARTESIAN_POINT ( 'NONE',  ( 75.59999999999999432, 18.91999999999999815, 11.33999999999999986 ) ) ;
#398 = VECTOR ( 'NONE', #737, 1000.000000000000000 ) ;
#399 = ORIENTED_EDGE ( 'NONE', *, *, #752, .F. ) ;
#400 = EDGE_CURVE ( 'NONE', #469, #679, #692, .T. ) ;
#401 = ORIENTED_EDGE ( 'NONE', *, *, #142, .F. ) ;
#402 = FACE_OUTER_BOUND ( 'NONE', #206, .T. ) ;
#403 = PLANE ( 'NONE',  #378 ) ;
#404 = DIRECTION ( 'NONE',  ( 0.000000000000000000, 0.000000000000000000, 1.000000000000000000 ) ) ;
#405 = ORIENTED_EDGE ( 'NONE', *, *, #773, .T. ) ;
#406 = CYLINDRICAL_SURFACE ( 'NONE', #703, 1.100000000000001199 ) ;
#407 = CARTESIAN_POINT ( 'NONE',  ( 10.63911740544042850, 12.50000000000000000, 7.350000000000001421 ) ) ;
#408 = FACE_OUTER_BOUND ( 'NONE', #961, .T. ) ;
#409 = EDGE_CURVE ( 'NONE', #49, #667, #318, .T. ) ;
#410 = VECTOR ( 'NONE', #191, 1000.000000000000000 ) ;
#411 = ORIENTED_EDGE ( 'NONE', *, *, #713, .T. ) ;
#412 = VECTOR ( 'NONE', #539, 1000.000000000000000 ) ;
#413 = CARTESIAN_POINT ( 'NONE',  ( 69.87999999999999545, 8.919999999999999929, 1.250000000000000000 ) ) ;
#414 = VECTOR ( 'NONE', #155, 1000.000000000000000 ) ;
#415 = CARTESIAN_POINT ( 'NONE',  ( 45.00000000000000711, 8.919999999999999929, 1.500000000000000444 ) ) ;
#416 = DIRECTION ( 'NONE',  ( -1.000000000000000000, 0.000000000000000000, 0.000000000000000000 ) ) ;
#417 = ORIENTED_EDGE ( 'NONE', *, *, #534, .T. ) ;
#418 = FACE_OUTER_BOUND ( 'NONE', #144, .T. ) ;
#419 = SURFACE_STYLE_FILL_AREA ( #790 ) ;
#420 = LINE ( 'NONE', #796, #576 ) ;
#421 = VERTEX_POINT ( 'NONE', #846 ) ;
#422 = CARTESIAN_POINT ( 'NONE',  ( 42.00000000000000000, 0.000000000000000000, 12.50000000000000000 ) ) ;
#423 = COLOUR_RGB ( '',0.7921568627450980005, 0.8196078431372548767, 0.9333333333333333481 ) ;
#424 = DIRECTION ( 'NONE',  ( 0.000000000000000000, 0.000000000000000000, 1.000000000000000000 ) ) ;
#425 = EDGE_LOOP ( 'NONE', ( #440, #457, #401, #699 ) ) ;
#426 = CARTESIAN_POINT ( 'NONE',  ( 40.00000000000000000, 2.000000000000004885, 0.000000000000000000 ) ) ;
#427 = EDGE_CURVE ( 'NONE', #395, #161, #177, .T. ) ;
#428 = VERTEX_POINT ( 'NONE', #241 ) ;
#429 = DIRECTION ( 'NONE',  ( -0.000000000000000000, -1.000000000000000000, -0.000000000000000000 ) ) ;
#430 = ORIENTED_EDGE ( 'NONE', *, *, #548, .T. ) ;
#431 = CARTESIAN_POINT ( 'NONE',  ( 42.00000000000000000, 0.000000000000000000, 12.50000000000000000 ) ) ;
#432 = UNCERTAINTY_MEASURE_WITH_UNIT (LENGTH_MEASURE( 1.000000000000000082E-05 ), #957, 'distance_accuracy_value', 'NONE');
#433 = ORIENTED_EDGE ( 'NONE', *, *, #142, .T. ) ;
#434 = ADVANCED_FACE ( 'NONE', ( #538 ), #403, .F. ) ;
#435 = LINE ( 'NONE', #286, #278 ) ;
#436 = VERTEX_POINT ( 'NONE', #762 ) ;
#437 = CARTESIAN_POINT ( 'NONE',  ( 10.63911740544042850, 2.000000000000001776, 5.149999999999999467 ) ) ;
#438 = FACE_OUTER_BOUND ( 'NONE', #832, .T. ) ;
#439 = CARTESIAN_POINT ( 'NONE',  ( 66.69999999999998863, 8.919999999999999929, 6.250000000000000000 ) ) ;
#440 = ORIENTED_EDGE ( 'NONE', *, *, #525, .T. ) ;
#441 = ORIENTED_EDGE ( 'NONE', *, *, #409, .T. ) ;
#442 = PLANE ( 'NONE',  #836 ) ;
#443 = EDGE_CURVE ( 'NONE', #381, #722, #476, .T. ) ;
#444 = FACE_OUTER_BOUND ( 'NONE', #494, .T. ) ;
#445 = ORIENTED_EDGE ( 'NONE', *, *, #901, .T. ) ;
#446 = AXIS2_PLACEMENT_3D ( 'NONE', #909, #459, #688 ) ;
#447 = EDGE_LOOP ( 'NONE', ( #774, #351 ) ) ;
#448 = FACE_OUTER_BOUND ( 'NONE', #43, .T. ) ;
#449 = FACE_OUTER_BOUND ( 'NONE', #628, .T. ) ;
#450 = VECTOR ( 'NONE', #79, 1000.000000000000000 ) ;
#451 = ORIENTED_EDGE ( 'NONE', *, *, #189, .T. ) ;
#452 = EDGE_CURVE ( 'NONE', #128, #873, #331, .T. ) ;
#453 = ORIENTED_EDGE ( 'NONE', *, *, #248, .F. ) ;
#454 = CARTESIAN_POINT ( 'NONE',  ( 42.00000000000000000, 0.000000000000000000, 0.000000000000000000 ) ) ;
#455 = CARTESIAN_POINT ( 'NONE',  ( 58.60000000000000142, 10.91999999999999638, 9.450000000000002842 ) ) ;
#456 = ORIENTED_EDGE ( 'NONE', *, *, #901, .F. ) ;
#457 = ORIENTED_EDGE ( 'NONE', *, *, #606, .F. ) ;
#458 = DIRECTION ( 'NONE',  ( -0.000000000000000000, -1.000000000000000000, -0.000000000000000000 ) ) ;
#459 = DIRECTION ( 'NONE',  ( 1.192622389734054877E-16, -1.000000000000000000, 0.000000000000000000 ) ) ;
#460 = EDGE_LOOP ( 'NONE', ( #194, #363, #686, #389 ) ) ;
#461 = VECTOR ( 'NONE', #614, 1000.000000000000000 ) ;
#462 = EDGE_LOOP ( 'NONE', ( #359, #882 ) ) ;
#463 = EDGE_CURVE ( 'NONE', #852, #221, #102, .T. ) ;
#464 = CARTESIAN_POINT ( 'NONE',  ( 24.34488726241303880, 12.50000000000000000, 6.250000000000000000 ) ) ;
#465 = AXIS2_PLACEMENT_3D ( 'NONE', #464, #171, #19 ) ;
#466 = FACE_OUTER_BOUND ( 'NONE', #242, .T. ) ;
#467 = ORIENTED_EDGE ( 'NONE', *, *, #880, .T. ) ;
#468 = AXIS2_PLACEMENT_3D ( 'NONE', #616, #858, #345 ) ;
#469 = VERTEX_POINT ( 'NONE', #619 ) ;
#470 = CARTESIAN_POINT ( 'NONE',  ( 78.25000000000000000, 8.919999999999999929, 7.850000000000005862 ) ) ;
#471 = EDGE_CURVE ( 'NONE', #736, #679, #472, .T. ) ;
#472 = LINE ( 'NONE', #25, #65 ) ;
#473 = LINE ( 'NONE', #31, #526 ) ;
#474 = ORIENTED_EDGE ( 'NONE', *, *, #596, .F. ) ;
#475 = LINE ( 'NONE', #504, #565 ) ;
#476 = LINE ( 'NONE', #696, #558 ) ;
#477 = EDGE_CURVE ( 'NONE', #667, #184, #115, .T. ) ;
#478 = FACE_OUTER_BOUND ( 'NONE', #425, .T. ) ;
#479 = ORIENTED_EDGE ( 'NONE', *, *, #913, .T. ) ;
#480 = FACE_OUTER_BOUND ( 'NONE', #814, .T. ) ;
#481 = AXIS2_PLACEMENT_3D ( 'NONE', #767, #98, #210 ) ;
#482 = CARTESIAN_POINT ( 'NONE',  ( 82.00000000000000000, 8.919999999999999929, 0.000000000000000000 ) ) ;
#483 = DIRECTION ( 'NONE',  ( -1.000000000000000000, 0.000000000000000000, 0.000000000000000000 ) ) ;
#484 = EDGE_LOOP ( 'NONE', ( #411, #165, #612, #69 ) ) ;
#485 = VECTOR ( 'NONE', #429, 1000.000000000000000 ) ;
#486 = DIRECTION ( 'NONE',  ( 1.000000000000000000, 0.000000000000000000, 0.000000000000000000 ) ) ;
#487 = EDGE_CURVE ( 'NONE', #184, #287, #231, .T. ) ;
#488 = SURFACE_STYLE_USAGE ( .BOTH. , #284 ) ;
#489 = DIRECTION ( 'NONE',  ( -0.000000000000000000, -0.000000000000000000, -1.000000000000000000 ) ) ;
#490 = ORIENTED_EDGE ( 'NONE', *, *, #258, .F. ) ;
#491 = CARTESIAN_POINT ( 'NONE',  ( 69.87999999999999545, 10.91999999999999815, 11.33999999999999808 ) ) ;
#492 = DIRECTION ( 'NONE',  ( 0.000000000000000000, 0.000000000000000000, -1.000000000000000000 ) ) ;
#493 = LINE ( 'NONE', #573, #376 ) ;
#494 = EDGE_LOOP ( 'NONE', ( #304, #645, #380, #768 ) ) ;
#495 = CARTESIAN_POINT ( 'NONE',  ( 66.69999999999998863, 18.91999999999999815, 6.250000000000000000 ) ) ;
#496 = EDGE_CURVE ( 'NONE', #300, #49, #709, .T. ) ;
#497 = FACE_BOUND ( 'NONE', #580, .T. ) ;
#498 = VERTEX_POINT ( 'NONE', #926 ) ;
#499 = PLANE ( 'NONE',  #830 ) ;
#500 = AXIS2_PLACEMENT_3D ( 'NONE', #570, #57, #196 ) ;
#501 = VECTOR ( 'NONE', #683, 1000.000000000000000 ) ;
#502 = CARTESIAN_POINT ( 'NONE',  ( 24.34488726241303880, 12.50000000000000000, 7.349999999999999645 ) ) ;
#503 = EDGE_LOOP ( 'NONE', ( #23, #535, #390, #327 ) ) ;
#504 = CARTESIAN_POINT ( 'NONE',  ( 49.10000000000000142, 18.91999999999999815, 6.699999999999999289 ) ) ;
#505 = ADVANCED_FACE ( 'NONE', ( #466 ), #163, .F. ) ;
#506 = DIRECTION ( 'NONE',  ( 1.192622389734054877E-16, -1.000000000000000000, 0.000000000000000000 ) ) ;
#507 = EDGE_LOOP ( 'NONE', ( #541, #490, #728, #55 ) ) ;
#508 = APPLICATION_CONTEXT ( 'automotive_design' ) ;
#509 = DIRECTION ( 'NONE',  ( 0.000000000000000000, -0.000000000000000000, 1.000000000000000000 ) ) ;
#510 = VECTOR ( 'NONE', #162, 1000.000000000000000 ) ;
#511 = ORIENTED_EDGE ( 'NONE', *, *, #322, .F. ) ;
#512 = DIRECTION ( 'NONE',  ( -0.000000000000000000, -1.000000000000000000, -0.000000000000000000 ) ) ;
#513 = LINE ( 'NONE', #146, #501 ) ;
#514 = ORIENTED_EDGE ( 'NONE', *, *, #773, .F. ) ;
#515 = VERTEX_POINT ( 'NONE', #249 ) ;
#516 = PRESENTATION_STYLE_ASSIGNMENT (( #488 ) ) ;
#517 = LINE ( 'NONE', #745, #450 ) ;
#518 = ORIENTED_EDGE ( 'NONE', *, *, #452, .F. ) ;
#519 = CARTESIAN_POINT ( 'NONE',  ( 82.00000000000000000, 10.91999999999999993, 1.249999999999999334 ) ) ;
#520 = CARTESIAN_POINT ( 'NONE',  ( 3.389964328074552716E-16, 2.000000000000000000, 12.50000000000000000 ) ) ;
#521 = EDGE_CURVE ( 'NONE', #907, #792, #393, .T. ) ;
#522 = VERTEX_POINT ( 'NONE', #831 ) ;
#523 = VECTOR ( 'NONE', #382, 1000.000000000000000 ) ;
#524 = CARTESIAN_POINT ( 'NONE',  ( 45.00000000000000711, 18.91999999999999815, 6.700000000000000178 ) ) ;
#525 = EDGE_CURVE ( 'NONE', #802, #772, #554, .T. ) ;
#526 = VECTOR ( 'NONE', #710, 1000.000000000000000 ) ;
#527 = CARTESIAN_POINT ( 'NONE',  ( 82.00000000000000000, 10.91999999999999993, 6.699999999999992184 ) ) ;
#528 = AXIS2_PLACEMENT_3D ( 'NONE', #224, #677, #11 ) ;
#529 = VERTEX_POINT ( 'NONE', #533 ) ;
#530 = ORIENTED_EDGE ( 'NONE', *, *, #134, .T. ) ;
#531 = CARTESIAN_POINT ( 'NONE',  ( 66.69999999999998863, 18.91999999999999815, 6.250000000000000000 ) ) ;
#532 = VECTOR ( 'NONE', #575, 1000.000000000000000 ) ;
#533 = CARTESIAN_POINT ( 'NONE',  ( 66.69999999999998863, 8.919999999999999929, 7.850000000000005862 ) ) ;
#534 = EDGE_CURVE ( 'NONE', #907, #395, #30, .T. ) ;
#535 = ORIENTED_EDGE ( 'NONE', *, *, #840, .F. ) ;
#536 = ORIENTED_EDGE ( 'NONE', *, *, #379, .F. ) ;
#537 = DIRECTION ( 'NONE',  ( 0.000000000000000000, 0.000000000000000000, 1.000000000000000000 ) ) ;
#538 = FACE_OUTER_BOUND ( 'NONE', #806, .T. ) ;
#539 = DIRECTION ( 'NONE',  ( 0.000000000000000000, -1.000000000000000000, 0.000000000000000000 ) ) ;
#540 = AXIS2_PLACEMENT_3D ( 'NONE', #21, #236, #835 ) ;
#541 = ORIENTED_EDGE ( 'NONE', *, *, #301, .T. ) ;
#542 = LINE ( 'NONE', #600, #375 ) ;
#543 = CARTESIAN_POINT ( 'NONE',  ( 45.00000000000000711, 10.91999999999999282, 12.50000000000000000 ) ) ;
#544 = AXIS2_PLACEMENT_3D ( 'NONE', #334, #695, #185 ) ;
#545 = CARTESIAN_POINT ( 'NONE',  ( 66.69999999999998863, 10.91999999999999815, 6.250000000000000000 ) ) ;
#546 = ORIENTED_EDGE ( 'NONE', *, *, #258, .T. ) ;
#547 = DIRECTION ( 'NONE',  ( 1.000000000000000000, 0.000000000000000000, 0.000000000000000000 ) ) ;
#548 = EDGE_CURVE ( 'NONE', #828, #73, #669, .T. ) ;
#549 = CARTESIAN_POINT ( 'NONE',  ( 10.63911740544042850, 12.50000000000000000, 5.149999999999999467 ) ) ;
#550 = DIRECTION ( 'NONE',  ( -0.000000000000000000, -1.000000000000000000, -0.000000000000000000 ) ) ;
#551 = ORIENTED_EDGE ( 'NONE', *, *, #160, .T. ) ;
#552 = CYLINDRICAL_SURFACE ( 'NONE', #544, 1.100000000000001199 ) ;
#553 = EDGE_CURVE ( 'NONE', #381, #346, #639, .T. ) ;
#554 = LINE ( 'NONE', #482, #899 ) ;
#555 = PLANE ( 'NONE',  #227 ) ;
#556 = ORIENTED_EDGE ( 'NONE', *, *, #583, .T. ) ;
#557 = CARTESIAN_POINT ( 'NONE',  ( 45.00000000000000711, 18.91999999999999815, 1.500000000000000444 ) ) ;
#558 = VECTOR ( 'NONE', #313, 1000.000000000000000 ) ;
#559 = DIRECTION ( 'NONE',  ( -0.000000000000000000, -1.000000000000000000, -0.000000000000000000 ) ) ;
#560 = CARTESIAN_POINT ( 'NONE',  ( 24.34488726241303880, 2.000000000000003553, 6.250000000000000000 ) ) ;
#561 = ORIENTED_EDGE ( 'NONE', *, *, #205, .T. ) ;
#562 = CARTESIAN_POINT ( 'NONE',  ( 0.000000000000000000, 0.000000000000000000, 12.50000000000000000 ) ) ;
#563 = CARTESIAN_POINT ( 'NONE',  ( 58.60000000000000142, 18.91999999999999815, 6.250000000000000000 ) ) ;
#564 = DIRECTION ( 'NONE',  ( 0.000000000000000000, -0.000000000000000000, 1.000000000000000000 ) ) ;
#565 = VECTOR ( 'NONE', #875, 1000.000000000000000 ) ;
#566 = ORIENTED_EDGE ( 'NONE', *, *, #463, .T. ) ;
#567 = DIRECTION ( 'NONE',  ( 1.000000000000000000, 0.000000000000000000, 0.000000000000000000 ) ) ;
#568 = ADVANCED_FACE ( 'NONE', ( #640 ), #195, .F. ) ;
#569 = DIRECTION ( 'NONE',  ( -0.000000000000000000, -1.000000000000000000, -0.000000000000000000 ) ) ;
#570 = CARTESIAN_POINT ( 'NONE',  ( 82.00000000000000000, 10.91999999999999993, 12.50000000000000000 ) ) ;
#571 = ORIENTED_EDGE ( 'NONE', *, *, #308, .F. ) ;
#572 = DIRECTION ( 'NONE',  ( 1.000000000000000000, 0.000000000000000000, 3.032733349609801161E-16 ) ) ;
#573 = CARTESIAN_POINT ( 'NONE',  ( 82.00000000000000000, 8.919999999999999929, 12.50000000000000000 ) ) ;
#574 = ORIENTED_EDGE ( 'NONE', *, *, #273, .T. ) ;
#575 = DIRECTION ( 'NONE',  ( -1.000000000000000000, -1.652117596168388002E-16, -3.032733349609801161E-16 ) ) ;
#576 = VECTOR ( 'NONE', #716, 1000.000000000000000 ) ;
#577 = VECTOR ( 'NONE', #29, 1000.000000000000000 ) ;
#578 = EDGE_CURVE ( 'NONE', #711, #802, #786, .T. ) ;
#579 = CARTESIAN_POINT ( 'NONE',  ( 40.00000000000000000, 10.91999999999999282, 12.50000000000000000 ) ) ;
#580 = EDGE_LOOP ( 'NONE', ( #693, #902, #61, #754 ) ) ;
#581 = MANIFOLD_SOLID_BREP ( 'Cut-Extrude4', #704 ) ;
#582 = DIRECTION ( 'NONE',  ( 0.000000000000000000, 1.000000000000000000, 0.000000000000000000 ) ) ;
#583 = EDGE_CURVE ( 'NONE', #287, #584, #958, .T. ) ;
#584 = VERTEX_POINT ( 'NONE', #939 ) ;
#585 = SHAPE_DEFINITION_REPRESENTATION ( #269, #340 ) ;
#586 = CARTESIAN_POINT ( 'NONE',  ( 78.25000000000000000, 18.91999999999999815, 4.649999999999995026 ) ) ;
#587 = CIRCLE ( 'NONE', #167, 1.100000000000001199 ) ;
#588 = CARTESIAN_POINT ( 'NONE',  ( 69.87999999999999545, 18.91999999999999815, 1.250000000000000000 ) ) ;
#589 = ORIENTED_EDGE ( 'NONE', *, *, #782, .F. ) ;
#590 = APPLICATION_PROTOCOL_DEFINITION ( 'draft international standard', 'automotive_design', 1998, #508 ) ;
#591 = ORIENTED_EDGE ( 'NONE', *, *, #400, .F. ) ;
#592 = CARTESIAN_POINT ( 'NONE',  ( 78.25000000000000000, 18.91999999999999815, 7.850000000000005862 ) ) ;
#593 = FACE_OUTER_BOUND ( 'NONE', #122, .T. ) ;
#594 = ORIENTED_EDGE ( 'NONE', *, *, #534, .F. ) ;
#595 = CARTESIAN_POINT ( 'NONE',  ( 58.60000000000000142, 8.919999999999999929, 9.450000000000002842 ) ) ;
#596 = EDGE_CURVE ( 'NONE', #91, #741, #187, .T. ) ;
#597 = DIRECTION ( 'NONE',  ( -1.000000000000000000, -1.652117596168388002E-16, 2.115516434118057955E-16 ) ) ;
#598 = ORIENTED_EDGE ( 'NONE', *, *, #20, .F. ) ;
#599 = EDGE_LOOP ( 'NONE', ( #844, #17, #233, #474 ) ) ;
#600 = CARTESIAN_POINT ( 'NONE',  ( 69.87999999999999545, 10.91999999999999815, 12.50000000000000000 ) ) ;
#601 = LINE ( 'NONE', #900, #36 ) ;
#602 = ORIENTED_EDGE ( 'NONE', *, *, #63, .F. ) ;
#603 = PRESENTATION_LAYER_ASSIGNMENT (  '', '', ( #344 ) ) ;
#604 = EDGE_LOOP ( 'NONE', ( #598, #58, #170, #87 ) ) ;
#605 = DIRECTION ( 'NONE',  ( -0.000000000000000000, -1.000000000000000000, -0.000000000000000000 ) ) ;
#606 = EDGE_CURVE ( 'NONE', #83, #772, #715, .T. ) ;
#607 = AXIS2_PLACEMENT_3D ( 'NONE', #934, #342, #629 ) ;
#608 = EDGE_CURVE ( 'NONE', #859, #73, #257, .T. ) ;
#609 = AXIS2_PLACEMENT_3D ( 'NONE', #689, #550, #174 ) ;
#610 = DIRECTION ( 'NONE',  ( -0.000000000000000000, -1.000000000000000000, -0.000000000000000000 ) ) ;
#611 = EDGE_LOOP ( 'NONE', ( #109, #311, #86, #105 ) ) ;
#612 = ORIENTED_EDGE ( 'NONE', *, *, #273, .F. ) ;
#613 = CARTESIAN_POINT ( 'NONE',  ( 78.25000000000000000, 8.919999999999999929, 4.649999999999995026 ) ) ;
#614 = DIRECTION ( 'NONE',  ( -0.000000000000000000, -0.000000000000000000, -1.000000000000000000 ) ) ;
#615 = ADVANCED_FACE ( 'NONE', ( #720, #292, #45 ), #442, .F. ) ;
#616 = CARTESIAN_POINT ( 'NONE',  ( 58.60000000000000142, 8.919999999999999929, 6.250000000000000000 ) ) ;
#617 = ORIENTED_EDGE ( 'NONE', *, *, #248, .T. ) ;
#618 = CARTESIAN_POINT ( 'NONE',  ( 82.00000000000000000, 10.91999999999999993, 0.000000000000000000 ) ) ;
#619 = CARTESIAN_POINT ( 'NONE',  ( 75.59999999999999432, 10.91999999999999815, 11.33999999999999986 ) ) ;
#620 = DIRECTION ( 'NONE',  ( 1.192622389734054877E-16, -1.000000000000000000, 0.000000000000000000 ) ) ;
#621 = ADVANCED_FACE ( 'NONE', ( #438 ), #861, .F. ) ;
#622 = VECTOR ( 'NONE', #173, 1000.000000000000000 ) ;
#623 = EDGE_LOOP ( 'NONE', ( #214, #26, #27, #896 ) ) ;
#624 = LINE ( 'NONE', #917, #955 ) ;
#625 = DIRECTION ( 'NONE',  ( -0.000000000000000000, -1.000000000000000000, -0.000000000000000000 ) ) ;
#626 = ORIENTED_EDGE ( 'NONE', *, *, #608, .F. ) ;
#627 = AXIS2_PLACEMENT_3D ( 'NONE', #439, #71, #367 ) ;
#628 = EDGE_LOOP ( 'NONE', ( #234, #556, #950, #511 ) ) ;
#629 = DIRECTION ( 'NONE',  ( 0.000000000000000000, 0.000000000000000000, -1.000000000000000000 ) ) ;
#630 = EDGE_CURVE ( 'NONE', #522, #854, #930, .T. ) ;
#631 = CARTESIAN_POINT ( 'NONE',  ( 49.10000000000000142, 8.919999999999999929, 6.699999999999999289 ) ) ;
#632 = CARTESIAN_POINT ( 'NONE',  ( 58.60000000000000142, 18.91999999999999815, 6.250000000000000000 ) ) ;
#633 = EDGE_LOOP ( 'NONE', ( #848, #456, #137, #100 ) ) ;
#634 = DIRECTION ( 'NONE',  ( 1.652117596168388002E-16, -1.000000000000000000, 0.000000000000000000 ) ) ;
#635 = ADVANCED_FACE ( 'NONE', ( #343 ), #264, .F. ) ;
#636 = DIRECTION ( 'NONE',  ( 0.000000000000000000, -1.000000000000000000, 0.000000000000000000 ) ) ;
#637 = VERTEX_POINT ( 'NONE', #51 ) ;
#638 = CARTESIAN_POINT ( 'NONE',  ( 0.000000000000000000, 0.000000000000000000, 0.000000000000000000 ) ) ;
#639 = CIRCLE ( 'NONE', #481, 3.200000000000001510 ) ;
#640 = FACE_OUTER_BOUND ( 'NONE', #599, .T. ) ;
#641 = ADVANCED_FACE ( 'NONE', ( #349 ), #865, .F. ) ;
#642 = DIRECTION ( 'NONE',  ( 0.000000000000000000, 1.000000000000000000, 0.000000000000000000 ) ) ;
#643 = AXIS2_PLACEMENT_3D ( 'NONE', #860, #110, #789 ) ;
#644 = EDGE_CURVE ( 'NONE', #300, #584, #218, .T. ) ;
#645 = ORIENTED_EDGE ( 'NONE', *, *, #801, .T. ) ;
#646 = CIRCLE ( 'NONE', #468, 3.200000000000003286 ) ;
#647 = DIRECTION ( 'NONE',  ( 1.000000000000000000, 0.000000000000000000, 0.000000000000000000 ) ) ;
#648 = DIRECTION ( 'NONE',  ( -0.000000000000000000, -0.000000000000000000, -1.000000000000000000 ) ) ;
#649 = FACE_BOUND ( 'NONE', #760, .T. ) ;
#650 = ADVANCED_FACE ( 'NONE', ( #235 ), #298, .F. ) ;
#651 = ORIENTED_EDGE ( 'NONE', *, *, #277, .T. ) ;
#652 = FACE_BOUND ( 'NONE', #368, .T. ) ;
#653 = ORIENTED_EDGE ( 'NONE', *, *, #525, .F. ) ;
#654 = EDGE_CURVE ( 'NONE', #90, #333, #839, .T. ) ;
#655 = AXIS2_PLACEMENT_3D ( 'NONE', #531, #765, #158 ) ;
#656 = DIRECTION ( 'NONE',  ( 1.000000000000000000, 0.000000000000000000, 0.000000000000000000 ) ) ;
#657 = ORIENTED_EDGE ( 'NONE', *, *, #356, .T. ) ;
#658 = CARTESIAN_POINT ( 'NONE',  ( 75.59999999999999432, 10.91999999999999815, 12.50000000000000000 ) ) ;
#659 = CIRCLE ( 'NONE', #52, 1.600000000000004086 ) ;
#660 = VECTOR ( 'NONE', #489, 1000.000000000000000 ) ;
#661 = CIRCLE ( 'NONE', #228, 1.100000000000000311 ) ;
#662 = ADVANCED_FACE ( 'NONE', ( #317 ), #396, .F. ) ;
#663 = FACE_BOUND ( 'NONE', #190, .T. ) ;
#664 = ORIENTED_EDGE ( 'NONE', *, *, #259, .F. ) ;
#665 = DIRECTION ( 'NONE',  ( 1.000000000000000000, 0.000000000000000000, 0.000000000000000000 ) ) ;
#666 = DIRECTION ( 'NONE',  ( -1.000000000000000000, 0.000000000000000000, -0.000000000000000000 ) ) ;
#667 = VERTEX_POINT ( 'NONE', #824 ) ;
#668 = CARTESIAN_POINT ( 'NONE',  ( 82.00000000000000000, 10.91999999999999993, 12.50000000000000000 ) ) ;
#669 = CIRCLE ( 'NONE', #540, 1.099999999999999423 ) ;
#670 = FACE_BOUND ( 'NONE', #305, .T. ) ;
#671 = ORIENTED_EDGE ( 'NONE', *, *, #400, .T. ) ;
#672 = CARTESIAN_POINT ( 'NONE',  ( 45.00000000000000711, 18.91999999999999815, 6.700000000000000178 ) ) ;
#673 = CIRCLE ( 'NONE', #949, 1.600000000000004086 ) ;
#674 = CARTESIAN_POINT ( 'NONE',  ( 58.60000000000000142, 10.91999999999999638, 3.049999999999997158 ) ) ;
#675 = VERTEX_POINT ( 'NONE', #819 ) ;
#676 = CARTESIAN_POINT ( 'NONE',  ( 66.69999999999998863, 18.91999999999999815, 4.649999999999995026 ) ) ;
#677 = DIRECTION ( 'NONE',  ( 2.115516434118057709E-16, -0.000000000000000000, 1.000000000000000000 ) ) ;
#678 = ORIENTED_EDGE ( 'NONE', *, *, #285, .F. ) ;
#679 = VERTEX_POINT ( 'NONE', #88 ) ;
#680 = EDGE_CURVE ( 'NONE', #90, #863, #153, .T. ) ;
#681 = CYLINDRICAL_SURFACE ( 'NONE', #465, 1.099999999999999423 ) ;
#682 = ADVANCED_FACE ( 'NONE', ( #448 ), #894, .F. ) ;
#683 = DIRECTION ( 'NONE',  ( -1.000000000000000000, -1.652117596168387756E-16, 0.000000000000000000 ) ) ;
#684 = ORIENTED_EDGE ( 'NONE', *, *, #379, .T. ) ;
#685 = AXIS2_PLACEMENT_3D ( 'NONE', #14, #755, #834 ) ;
#686 = ORIENTED_EDGE ( 'NONE', *, *, #124, .T. ) ;
#687 = DIRECTION ( 'NONE',  ( -1.000000000000000000, -1.652117596168387756E-16, 0.000000000000000000 ) ) ;
#688 = DIRECTION ( 'NONE',  ( 1.000000000000000000, 0.000000000000000000, 0.000000000000000000 ) ) ;
#689 = CARTESIAN_POINT ( 'NONE',  ( 24.34488726241303880, 12.50000000000000000, 6.250000000000000000 ) ) ;
#690 = ORIENTED_EDGE ( 'NONE', *, *, #387, .F. ) ;
#691 = CARTESIAN_POINT ( 'NONE',  ( 42.00000000000000000, 8.919999999999999929, 12.50000000000000000 ) ) ;
#692 = LINE ( 'NONE', #397, #157 ) ;
#693 = ORIENTED_EDGE ( 'NONE', *, *, #322, .T. ) ;
#694 = ORIENTED_EDGE ( 'NONE', *, *, #124, .F. ) ;
#695 = DIRECTION ( 'NONE',  ( -0.000000000000000000, -1.000000000000000000, -0.000000000000000000 ) ) ;
#696 = CARTESIAN_POINT ( 'NONE',  ( 58.60000000000000142, 18.91999999999999815, 9.450000000000002842 ) ) ;
#697 = LINE ( 'NONE', #921, #412 ) ;
#698 = CIRCLE ( 'NONE', #288, 1.600000000000004974 ) ;
#699 = ORIENTED_EDGE ( 'NONE', *, *, #578, .T. ) ;
#700 = DIRECTION ( 'NONE',  ( 0.000000000000000000, -1.000000000000000000, 0.000000000000000000 ) ) ;
#701 = EDGE_CURVE ( 'NONE', #741, #854, #698, .T. ) ;
#702 = DIRECTION ( 'NONE',  ( -0.000000000000000000, -0.000000000000000000, 1.000000000000000000 ) ) ;
#703 = AXIS2_PLACEMENT_3D ( 'NONE', #708, #779, #785 ) ;
#704 = CLOSED_SHELL ( 'NONE', ( #32, #641, #568, #810, #714, #662, #172, #151, #326, #64, #179, #621, #615, #335, #870, #3, #783, #81, #953, #434, #310, #650, #730, #635, #682, #366, #505, #793 ) ) ;
#705 = CYLINDRICAL_SURFACE ( 'NONE', #609, 1.099999999999999423 ) ;
#706 = VECTOR ( 'NONE', #808, 1000.000000000000000 ) ;
#707 = VERTEX_POINT ( 'NONE', #93 ) ;
#708 = CARTESIAN_POINT ( 'NONE',  ( 10.63911740544042850, 12.50000000000000000, 6.250000000000000000 ) ) ;
#709 = LINE ( 'NONE', #543, #622 ) ;
#710 = DIRECTION ( 'NONE',  ( -1.000000000000000000, -1.192622389734054877E-16, 0.000000000000000000 ) ) ;
#711 = VERTEX_POINT ( 'NONE', #391 ) ;
#712 = DIRECTION ( 'NONE',  ( -1.000000000000000000, 0.000000000000000000, -0.000000000000000000 ) ) ;
#713 = EDGE_CURVE ( 'NONE', #772, #175, #912, .T. ) ;
#714 = ADVANCED_FACE ( 'NONE', ( #898 ), #681, .F. ) ;
#715 = LINE ( 'NONE', #668, #127 ) ;
#716 = DIRECTION ( 'NONE',  ( -1.000000000000000000, -0.000000000000000000, -3.032733349609801161E-16 ) ) ;
#717 = ORIENTED_EDGE ( 'NONE', *, *, #644, .T. ) ;
#718 = CARTESIAN_POINT ( 'NONE',  ( 24.34488726241303880, 0.000000000000000000, 7.349999999999999645 ) ) ;
#719 = VECTOR ( 'NONE', #605, 1000.000000000000000 ) ;
#720 = FACE_BOUND ( 'NONE', #838, .T. ) ;
#721 = CARTESIAN_POINT ( 'NONE',  ( 0.000000000000000000, 0.000000000000000000, 12.50000000000000000 ) ) ;
#722 = VERTEX_POINT ( 'NONE', #595 ) ;
#723 = VECTOR ( 'NONE', #940, 1000.000000000000000 ) ;
#724 = EDGE_CURVE ( 'NONE', #675, #197, #222, .T. ) ;
#725 = PLANE ( 'NONE',  #918 ) ;
#726 = EDGE_LOOP ( 'NONE', ( #238, #758, #297, #546 ) ) ;
#727 = LINE ( 'NONE', #954, #67 ) ;
#728 = ORIENTED_EDGE ( 'NONE', *, *, #851, .F. ) ;
#729 = CARTESIAN_POINT ( 'NONE',  ( 69.87999999999999545, 18.91999999999999815, 11.33999999999999808 ) ) ;
#730 = ADVANCED_FACE ( 'NONE', ( #312 ), #6, .F. ) ;
#731 = DIRECTION ( 'NONE',  ( -0.000000000000000000, -0.000000000000000000, -1.000000000000000000 ) ) ;
#732 = ORIENTED_EDGE ( 'NONE', *, *, #744, .F. ) ;
#733 = CIRCLE ( 'NONE', #314, 3.200000000000003286 ) ;
#734 = DIRECTION ( 'NONE',  ( -0.000000000000000000, -1.000000000000000000, -0.000000000000000000 ) ) ;
#735 = CARTESIAN_POINT ( 'NONE',  ( 58.60000000000000142, 18.91999999999999815, 3.049999999999997158 ) ) ;
#736 = VERTEX_POINT ( 'NONE', #9 ) ;
#737 = DIRECTION ( 'NONE',  ( 0.000000000000000000, 0.000000000000000000, 1.000000000000000000 ) ) ;
#738 = DIRECTION ( 'NONE',  ( -1.694982164037276358E-16, -1.000000000000000000, 0.000000000000000000 ) ) ;
#739 = EDGE_CURVE ( 'NONE', #421, #152, #302, .T. ) ;
#740 = EDGE_LOOP ( 'NONE', ( #453, #561, #430, #626 ) ) ;
#741 = VERTEX_POINT ( 'NONE', #613 ) ;
#742 = CARTESIAN_POINT ( 'NONE',  ( 78.25000000000000000, 18.91999999999999815, 6.250000000000000000 ) ) ;
#743 = AXIS2_PLACEMENT_3D ( 'NONE', #742, #84, #829 ) ;
#744 = EDGE_CURVE ( 'NONE', #637, #152, #24, .T. ) ;
#745 = CARTESIAN_POINT ( 'NONE',  ( 42.00000000000000000, 8.919999999999999929, 12.50000000000000000 ) ) ;
#746 = ORIENTED_EDGE ( 'NONE', *, *, #111, .F. ) ;
#747 = EDGE_LOOP ( 'NONE', ( #8, #76, #291, #769 ) ) ;
#748 = DIRECTION ( 'NONE',  ( 0.000000000000000000, 1.000000000000000000, 0.000000000000000000 ) ) ;
#749 = VECTOR ( 'NONE', #582, 1000.000000000000000 ) ;
#750 = PLANE ( 'NONE',  #528 ) ;
#751 = EDGE_CURVE ( 'NONE', #161, #792, #587, .T. ) ;
#752 = EDGE_CURVE ( 'NONE', #852, #90, #542, .T. ) ;
#753 = ORIENTED_EDGE ( 'NONE', *, *, #913, .F. ) ;
#754 = ORIENTED_EDGE ( 'NONE', *, *, #215, .T. ) ;
#755 = DIRECTION ( 'NONE',  ( 1.000000000000000000, -1.694982164037276605E-16, 0.000000000000000000 ) ) ;
#756 = AXIS2_PLACEMENT_3D ( 'NONE', #355, #868, #364 ) ;
#757 = LINE ( 'NONE', #89, #577 ) ;
#758 = ORIENTED_EDGE ( 'NONE', *, *, #739, .F. ) ;
#759 = EDGE_CURVE ( 'NONE', #73, #828, #243, .T. ) ;
#760 = EDGE_LOOP ( 'NONE', ( #479, #797, #295, #229 ) ) ;
#761 = DIRECTION ( 'NONE',  ( 0.000000000000000000, 0.000000000000000000, -1.000000000000000000 ) ) ;
#762 = CARTESIAN_POINT ( 'NONE',  ( 3.389964328074552716E-16, 2.000000000000000000, 12.50000000000000000 ) ) ;
#763 = VERTEX_POINT ( 'NONE', #855 ) ;
#764 = ORIENTED_EDGE ( 'NONE', *, *, #134, .F. ) ;
#765 = DIRECTION ( 'NONE',  ( -0.000000000000000000, -1.000000000000000000, -0.000000000000000000 ) ) ;
#766 = CIRCLE ( 'NONE', #348, 1.100000000000000311 ) ;
#767 = CARTESIAN_POINT ( 'NONE',  ( 58.60000000000000142, 10.91999999999999638, 6.250000000000000000 ) ) ;
#768 = ORIENTED_EDGE ( 'NONE', *, *, #654, .F. ) ;
#769 = ORIENTED_EDGE ( 'NONE', *, *, #876, .T. ) ;
#770 = DIRECTION ( 'NONE',  ( -0.000000000000000000, 0.000000000000000000, 1.000000000000000000 ) ) ;
#771 = CARTESIAN_POINT ( 'NONE',  ( 45.00000000000000711, 18.91999999999999815, 1.500000000000000444 ) ) ;
#772 = VERTEX_POINT ( 'NONE', #34 ) ;
#773 = EDGE_CURVE ( 'NONE', #792, #161, #211, .T. ) ;
#774 = ORIENTED_EDGE ( 'NONE', *, *, #54, .T. ) ;
#775 = LINE ( 'NONE', #413, #887 ) ;
#776 = CARTESIAN_POINT ( 'NONE',  ( 10.63911740544042850, 2.000000000000001776, 7.350000000000001421 ) ) ;
#777 = CARTESIAN_POINT ( 'NONE',  ( 82.00000000000000000, 8.919999999999999929, 12.50000000000000000 ) ) ;
#778 = VERTEX_POINT ( 'NONE', #50 ) ;
#779 = DIRECTION ( 'NONE',  ( -0.000000000000000000, -1.000000000000000000, -0.000000000000000000 ) ) ;
#780 = DIRECTION ( 'NONE',  ( -0.000000000000000000, -1.000000000000000000, -0.000000000000000000 ) ) ;
#781 = CARTESIAN_POINT ( 'NONE',  ( 69.87999999999999545, 18.91999999999999815, 11.33999999999999808 ) ) ;
#782 = EDGE_CURVE ( 'NONE', #395, #907, #766, .T. ) ;
#783 = ADVANCED_FACE ( 'NONE', ( #480 ), #552, .F. ) ;
#784 = ORIENTED_EDGE ( 'NONE', *, *, #751, .F. ) ;
#785 = DIRECTION ( 'NONE',  ( 0.000000000000000000, 0.000000000000000000, -1.000000000000000000 ) ) ;
#786 = LINE ( 'NONE', #369, #15 ) ;
#787 = CARTESIAN_POINT ( 'NONE',  ( 10.63911740544042850, 0.000000000000000000, 7.350000000000001421 ) ) ;
#788 = ORIENTED_EDGE ( 'NONE', *, *, #285, .T. ) ;
#789 = DIRECTION ( 'NONE',  ( 0.000000000000000000, 0.000000000000000000, -1.000000000000000000 ) ) ;
#790 = FILL_AREA_STYLE ('',( #365 ) ) ;
#791 = FACE_OUTER_BOUND ( 'NONE', #726, .T. ) ;
#792 = VERTEX_POINT ( 'NONE', #40 ) ;
#793 = ADVANCED_FACE ( 'NONE', ( #347 ), #321, .F. ) ;
#794 = CARTESIAN_POINT ( 'NONE',  ( 40.00000000000000000, 2.000000000000004885, 12.50000000000000000 ) ) ;
#795 = VECTOR ( 'NONE', #486, 1000.000000000000000 ) ;
#796 = CARTESIAN_POINT ( 'NONE',  ( 69.87999999999999545, 8.919999999999999929, 11.33999999999999808 ) ) ;
#797 = ORIENTED_EDGE ( 'NONE', *, *, #752, .T. ) ;
#798 = VECTOR ( 'NONE', #37, 1000.000000000000000 ) ;
#799 = CARTESIAN_POINT ( 'NONE',  ( 82.00000000000000000, 10.91999999999999993, 11.34000000000000163 ) ) ;
#800 = CARTESIAN_POINT ( 'NONE',  ( 42.00000000000000000, 8.919999999999999929, 0.000000000000000000 ) ) ;
#801 = EDGE_CURVE ( 'NONE', #863, #736, #775, .T. ) ;
#802 = VERTEX_POINT ( 'NONE', #329 ) ;
#803 = FACE_OUTER_BOUND ( 'NONE', #180, .T. ) ;
#804 = DIRECTION ( 'NONE',  ( 1.000000000000000000, 0.000000000000000000, 0.000000000000000000 ) ) ;
#805 = UNCERTAINTY_MEASURE_WITH_UNIT (LENGTH_MEASURE( 1.000000000000000082E-05 ), #811, 'distance_accuracy_value', 'NONE');
#806 = EDGE_LOOP ( 'NONE', ( #271, #818, #591, #244 ) ) ;
#807 = LINE ( 'NONE', #658, #398 ) ;
#808 = DIRECTION ( 'NONE',  ( -0.000000000000000000, -0.000000000000000000, -1.000000000000000000 ) ) ;
#809 = VERTEX_POINT ( 'NONE', #422 ) ;
#810 = ADVANCED_FACE ( 'NONE', ( #402 ), #406, .F. ) ;
#811 =( LENGTH_UNIT ( ) NAMED_UNIT ( * ) SI_UNIT ( .MILLI., .METRE. ) );
#812 = EDGE_CURVE ( 'NONE', #922, #529, #246, .T. ) ;
#813 = DIRECTION ( 'NONE',  ( 1.000000000000000000, 0.000000000000000000, 0.000000000000000000 ) ) ;
#814 = EDGE_LOOP ( 'NONE', ( #937, #594, #13, #405 ) ) ;
#815 = DIRECTION ( 'NONE',  ( 1.000000000000000000, 1.192622389734054877E-16, 0.000000000000000000 ) ) ;
#816 = LINE ( 'NONE', #377, #200 ) ;
#817 = ORIENTED_EDGE ( 'NONE', *, *, #521, .F. ) ;
#818 = ORIENTED_EDGE ( 'NONE', *, *, #471, .T. ) ;
#819 = CARTESIAN_POINT ( 'NONE',  ( 66.69999999999998863, 10.91999999999999815, 4.649999999999994138 ) ) ;
#820 = EDGE_CURVE ( 'NONE', #529, #197, #129, .T. ) ;
#821 = VECTOR ( 'NONE', #914, 1000.000000000000000 ) ;
#822 = CARTESIAN_POINT ( 'NONE',  ( 40.00000000000000000, 2.000000000000004885, 12.50000000000000000 ) ) ;
#823 = ORIENTED_EDGE ( 'NONE', *, *, #92, .T. ) ;
#824 = CARTESIAN_POINT ( 'NONE',  ( 45.00000000000000711, 8.919999999999999929, 1.500000000000001332 ) ) ;
#825 = VECTOR ( 'NONE', #597, 1000.000000000000000 ) ;
#826 = FACE_BOUND ( 'NONE', #916, .T. ) ;
#827 = ORIENTED_EDGE ( 'NONE', *, *, #160, .F. ) ;
#828 = VERTEX_POINT ( 'NONE', #718 ) ;
#829 = DIRECTION ( 'NONE',  ( 0.000000000000000000, 0.000000000000000000, -1.000000000000000000 ) ) ;
#830 = AXIS2_PLACEMENT_3D ( 'NONE', #729, #952, #572 ) ;
#831 = CARTESIAN_POINT ( 'NONE',  ( 78.25000000000000000, 10.91999999999999993, 7.850000000000005862 ) ) ;
#832 = EDGE_LOOP ( 'NONE', ( #878, #664, #133, #451 ) ) ;
#833 = ORIENTED_EDGE ( 'NONE', *, *, #205, .F. ) ;
#834 = DIRECTION ( 'NONE',  ( 1.694982164037276605E-16, 1.000000000000000000, 0.000000000000000000 ) ) ;
#835 = DIRECTION ( 'NONE',  ( 0.000000000000000000, 0.000000000000000000, -1.000000000000000000 ) ) ;
#836 = AXIS2_PLACEMENT_3D ( 'NONE', #794, #130, #815 ) ;
#837 = DIRECTION ( 'NONE',  ( 1.652117596168388002E-16, -1.000000000000000000, 0.000000000000000000 ) ) ;
#838 = EDGE_LOOP ( 'NONE', ( #417, #928 ) ) ;
#839 = LINE ( 'NONE', #519, #869 ) ;
#840 = EDGE_CURVE ( 'NONE', #91, #522, #659, .T. ) ;
#841 = AXIS2_PLACEMENT_3D ( 'NONE', #332, #931, #325 ) ;
#842 = DIRECTION ( 'NONE',  ( -0.000000000000000000, -1.000000000000000000, -0.000000000000000000 ) ) ;
#843 = DIRECTION ( 'NONE',  ( 1.000000000000000000, 0.000000000000000000, 0.000000000000000000 ) ) ;
#844 = ORIENTED_EDGE ( 'NONE', *, *, #959, .F. ) ;
#845 = DIRECTION ( 'NONE',  ( -0.000000000000000000, -0.000000000000000000, -1.000000000000000000 ) ) ;
#846 = CARTESIAN_POINT ( 'NONE',  ( 42.00000000000000000, 8.919999999999999929, 12.50000000000000000 ) ) ;
#847 = FACE_OUTER_BOUND ( 'NONE', #460, .T. ) ;
#848 = ORIENTED_EDGE ( 'NONE', *, *, #477, .F. ) ;
#849 = CARTESIAN_POINT ( 'NONE',  ( 24.34488726241303880, 2.000000000000003553, 5.150000000000001243 ) ) ;
#850 = CARTESIAN_POINT ( 'NONE',  ( 49.10000000000000142, 18.91999999999999815, 6.699999999999999289 ) ) ;
#851 = EDGE_CURVE ( 'NONE', #128, #809, #118, .T. ) ;
#852 = VERTEX_POINT ( 'NONE', #491 ) ;
#853 = VECTOR ( 'NONE', #569, 1000.000000000000000 ) ;
#854 = VERTEX_POINT ( 'NONE', #470 ) ;
#855 = CARTESIAN_POINT ( 'NONE',  ( 40.00000000000000000, 2.000000000000004885, 0.000000000000000000 ) ) ;
#856 = DIRECTION ( 'NONE',  ( -0.000000000000000000, 0.000000000000000000, -1.000000000000000000 ) ) ;
#857 = AXIS2_PLACEMENT_3D ( 'NONE', #557, #252, #712 ) ;
#858 = DIRECTION ( 'NONE',  ( 0.000000000000000000, -1.000000000000000000, 0.000000000000000000 ) ) ;
#859 = VERTEX_POINT ( 'NONE', #849 ) ;
#860 = CARTESIAN_POINT ( 'NONE',  ( 24.34488726241303880, 0.000000000000000000, 6.250000000000000000 ) ) ;
#861 = PLANE ( 'NONE',  #240 ) ;
#862 = CARTESIAN_POINT ( 'NONE',  ( 40.00000000000000000, 10.91999999999999282, 0.000000000000000000 ) ) ;
#863 = VERTEX_POINT ( 'NONE', #929 ) ;
#864 = DIRECTION ( 'NONE',  ( 0.000000000000000000, -1.000000000000000000, 0.000000000000000000 ) ) ;
#865 = CYLINDRICAL_SURFACE ( 'NONE', #141, 1.600000000000004974 ) ;
#866 = FACE_BOUND ( 'NONE', #462, .T. ) ;
#867 = ORIENTED_EDGE ( 'NONE', *, *, #701, .F. ) ;
#868 = DIRECTION ( 'NONE',  ( 1.652117596168388002E-16, -1.000000000000000000, 0.000000000000000000 ) ) ;
#869 = VECTOR ( 'NONE', #904, 1000.000000000000000 ) ;
#870 = ADVANCED_FACE ( 'NONE', ( #418 ), #181, .F. ) ;
#871 = LINE ( 'NONE', #281, #660 ) ;
#872 = CIRCLE ( 'NONE', #841, 3.200000000000001510 ) ;
#873 = VERTEX_POINT ( 'NONE', #638 ) ;
#874 = AXIS2_PLACEMENT_3D ( 'NONE', #881, #293, #509 ) ;
#875 = DIRECTION ( 'NONE',  ( -0.000000000000000000, -1.000000000000000000, -0.000000000000000000 ) ) ;
#876 = EDGE_CURVE ( 'NONE', #75, #722, #733, .T. ) ;
#877 = LINE ( 'NONE', #579, #186 ) ;
#878 = ORIENTED_EDGE ( 'NONE', *, *, #10, .T. ) ;
#879 = DIRECTION ( 'NONE',  ( 0.000000000000000000, 0.000000000000000000, -1.000000000000000000 ) ) ;
#880 = EDGE_CURVE ( 'NONE', #436, #18, #624, .T. ) ;
#881 = CARTESIAN_POINT ( 'NONE',  ( 42.00000000000000000, 8.919999999999999929, 12.50000000000000000 ) ) ;
#882 = ORIENTED_EDGE ( 'NONE', *, *, #959, .T. ) ;
#883 = DIRECTION ( 'NONE',  ( -1.000000000000000000, -0.000000000000000000, 2.115516434118057709E-16 ) ) ;
#884 = MECHANICAL_DESIGN_GEOMETRIC_PRESENTATION_REPRESENTATION (  '', ( #344 ), #307 ) ;
#885 = FACE_BOUND ( 'NONE', #633, .T. ) ;
#886 = ORIENTED_EDGE ( 'NONE', *, *, #713, .F. ) ;
#887 = VECTOR ( 'NONE', #567, 1000.000000000000000 ) ;
#888 = ORIENTED_EDGE ( 'NONE', *, *, #63, .T. ) ;
#889 =( NAMED_UNIT ( * ) SI_UNIT ( $, .STERADIAN. ) SOLID_ANGLE_UNIT ( ) );
#890 = DIRECTION ( 'NONE',  ( 1.000000000000000000, 0.000000000000000000, 0.000000000000000000 ) ) ;
#891 = ORIENTED_EDGE ( 'NONE', *, *, #199, .F. ) ;
#892 =( GEOMETRIC_REPRESENTATION_CONTEXT ( 3 ) GLOBAL_UNCERTAINTY_ASSIGNED_CONTEXT ( ( #432 ) ) GLOBAL_UNIT_ASSIGNED_CONTEXT ( ( #957, #352, #198 ) ) REPRESENTATION_CONTEXT ( 'NONE', 'WORKASPACE' ) );
#893 = EDGE_CURVE ( 'NONE', #707, #287, #475, .T. ) ;
#894 = PLANE ( 'NONE',  #392 ) ;
#895 = FACE_OUTER_BOUND ( 'NONE', #611, .T. ) ;
#896 = ORIENTED_EDGE ( 'NONE', *, *, #259, .T. ) ;
#897 = EDGE_LOOP ( 'NONE', ( #678, #385 ) ) ;
#898 = FACE_OUTER_BOUND ( 'NONE', #740, .T. ) ;
#899 = VECTOR ( 'NONE', #906, 1000.000000000000000 ) ;
#900 = CARTESIAN_POINT ( 'NONE',  ( 49.10000000000000142, 18.91999999999999815, 1.500000000000000444 ) ) ;
#901 = EDGE_CURVE ( 'NONE', #584, #667, #203, .T. ) ;
#902 = ORIENTED_EDGE ( 'NONE', *, *, #496, .T. ) ;
#903 = ORIENTED_EDGE ( 'NONE', *, *, #223, .T. ) ;
#904 = DIRECTION ( 'NONE',  ( 1.000000000000000000, 1.652117596168388002E-16, 0.000000000000000000 ) ) ;
#905 = VECTOR ( 'NONE', #353, 1000.000000000000000 ) ;
#906 = DIRECTION ( 'NONE',  ( 0.000000000000000000, 1.000000000000000000, 0.000000000000000000 ) ) ;
#907 = VERTEX_POINT ( 'NONE', #437 ) ;
#908 = DIRECTION ( 'NONE',  ( 0.000000000000000000, 0.000000000000000000, -1.000000000000000000 ) ) ;
#909 = CARTESIAN_POINT ( 'NONE',  ( 10.63911740544042850, 2.000000000000001776, 6.250000000000000000 ) ) ;
#910 = FACE_OUTER_BOUND ( 'NONE', #371, .T. ) ;
#911 = ORIENTED_EDGE ( 'NONE', *, *, #301, .F. ) ;
#912 = LINE ( 'NONE', #618, #260 ) ;
#913 = EDGE_CURVE ( 'NONE', #469, #852, #62, .T. ) ;
#914 = DIRECTION ( 'NONE',  ( -0.000000000000000000, -0.000000000000000000, 1.000000000000000000 ) ) ;
#915 = CARTESIAN_POINT ( 'NONE',  ( 82.00000000000000000, 10.91999999999999993, 12.50000000000000000 ) ) ;
#916 = EDGE_LOOP ( 'NONE', ( #867, #746 ) ) ;
#917 = CARTESIAN_POINT ( 'NONE',  ( 3.389964328074552716E-16, 2.000000000000000000, 12.50000000000000000 ) ) ;
#918 = AXIS2_PLACEMENT_3D ( 'NONE', #721, #265, #564 ) ;
#919 = VECTOR ( 'NONE', #731, 1000.000000000000000 ) ;
#920 = DIRECTION ( 'NONE',  ( 1.000000000000000000, 0.000000000000000000, 0.000000000000000000 ) ) ;
#921 = CARTESIAN_POINT ( 'NONE',  ( 40.00000000000000000, 10.91999999999999282, 0.000000000000000000 ) ) ;
#922 = VERTEX_POINT ( 'NONE', #942 ) ;
#923 = DIRECTION ( 'NONE',  ( 0.000000000000000000, 0.000000000000000000, -1.000000000000000000 ) ) ;
#924 = EDGE_CURVE ( 'NONE', #333, #736, #289, .T. ) ;
#925 = PRODUCT_DEFINITION_FORMATION_WITH_SPECIFIED_SOURCE ( 'ANY', '', #337, .NOT_KNOWN. ) ;
#926 = CARTESIAN_POINT ( 'NONE',  ( 40.00000000000000000, 10.91999999999999282, 12.50000000000000000 ) ) ;
#927 = CARTESIAN_POINT ( 'NONE',  ( 78.25000000000000000, 8.919999999999999929, 6.250000000000000000 ) ) ;
#928 = ORIENTED_EDGE ( 'NONE', *, *, #782, .T. ) ;
#929 = CARTESIAN_POINT ( 'NONE',  ( 69.87999999999999545, 8.919999999999999929, 1.249999999999999334 ) ) ;
#930 = LINE ( 'NONE', #592, #932 ) ;
#931 = DIRECTION ( 'NONE',  ( 1.652117596168388002E-16, -1.000000000000000000, 0.000000000000000000 ) ) ;
#932 = VECTOR ( 'NONE', #559, 1000.000000000000000 ) ;
#933 = ORIENTED_EDGE ( 'NONE', *, *, #876, .F. ) ;
#934 = CARTESIAN_POINT ( 'NONE',  ( 10.63911740544042850, 0.000000000000000000, 6.250000000000000000 ) ) ;
#935 = CARTESIAN_POINT ( 'NONE',  ( 40.00000000000000000, 10.91999999999999282, 12.50000000000000000 ) ) ;
#936 = PLANE ( 'NONE',  #112 ) ;
#937 = ORIENTED_EDGE ( 'NONE', *, *, #427, .F. ) ;
#938 = DIRECTION ( 'NONE',  ( 1.192622389734054877E-16, -1.000000000000000000, 0.000000000000000000 ) ) ;
#939 = CARTESIAN_POINT ( 'NONE',  ( 45.00000000000000711, 8.919999999999999929, 6.700000000000000178 ) ) ;
#940 = DIRECTION ( 'NONE',  ( 0.000000000000000000, 0.000000000000000000, -1.000000000000000000 ) ) ;
#941 = EDGE_LOOP ( 'NONE', ( #888, #617 ) ) ;
#942 = CARTESIAN_POINT ( 'NONE',  ( 66.69999999999998863, 10.91999999999999815, 7.850000000000005862 ) ) ;
#943 = EDGE_CURVE ( 'NONE', #333, #469, #807, .T. ) ;
#944 = LINE ( 'NONE', #426, #905 ) ;
#945 = EDGE_LOOP ( 'NONE', ( #441, #12, #536, #690 ) ) ;
#946 = VECTOR ( 'NONE', #77, 1000.000000000000000 ) ;
#947 = AXIS2_PLACEMENT_3D ( 'NONE', #106, #700, #923 ) ;
#948 = PLANE ( 'NONE',  #500 ) ;
#949 = AXIS2_PLACEMENT_3D ( 'NONE', #545, #254, #183 ) ;
#950 = ORIENTED_EDGE ( 'NONE', *, *, #644, .F. ) ;
#951 = AXIS2_PLACEMENT_3D ( 'NONE', #303, #143, #890 ) ;
#952 = DIRECTION ( 'NONE',  ( -3.032733349609801161E-16, 0.000000000000000000, 1.000000000000000000 ) ) ;
#953 = ADVANCED_FACE ( 'NONE', ( #803 ), #499, .F. ) ;
#954 = CARTESIAN_POINT ( 'NONE',  ( 49.10000000000000142, 10.91999999999999460, 12.50000000000000000 ) ) ;
#955 = VECTOR ( 'NONE', #845, 1000.000000000000000 ) ;
#956 = ORIENTED_EDGE ( 'NONE', *, *, #463, .F. ) ;
#957 =( LENGTH_UNIT ( ) NAMED_UNIT ( * ) SI_UNIT ( .MILLI., .METRE. ) );
#958 = LINE ( 'NONE', #41, #1 ) ;
#959 = EDGE_CURVE ( 'NONE', #522, #91, #147, .T. ) ;
#960 = LINE ( 'NONE', #527, #825 ) ;
#961 = EDGE_LOOP ( 'NONE', ( #566, #551, #354, #399 ) ) ;
ENDSEC;
END-ISO-10303-21;
