ISO-10303-21;
HEADER;
FILE_DESCRIPTION (( 'STEP AP214' ),
    '1' );
FILE_NAME ('Team A4 ultrasonic.STEP',
    '2026-05-01T19:13:45',
    ( '' ),
    ( '' ),
    'SwSTEP 2.0',
    'SolidWorks 2025',
    '' );
FILE_SCHEMA (( 'AUTOMOTIVE_DESIGN' ));
ENDSEC;

DATA;
#1 = ORIENTED_EDGE ( 'NONE', *, *, #626, .T. ) ;
#2 = DIRECTION ( 'NONE',  ( -1.548860246407863336E-16, 1.000000000000000000, 0.000000000000000000 ) ) ;
#3 = ADVANCED_FACE ( 'NONE', ( #667 ), #774, .F. ) ;
#4 = DIRECTION ( 'NONE',  ( 5.387339987505611631E-17, 1.000000000000000000, 0.000000000000000000 ) ) ;
#5 = CYLINDRICAL_SURFACE ( 'NONE', #377, 0.8500000000000000888 ) ;
#6 = EDGE_LOOP ( 'NONE', ( #269, #1016, #243, #558 ) ) ;
#7 = CARTESIAN_POINT ( 'NONE',  ( 0.000000000000000000, 0.000000000000000000, 49.29999999999999716 ) ) ;
#8 = EDGE_CURVE ( 'NONE', #724, #334, #573, .T. ) ;
#9 = CARTESIAN_POINT ( 'NONE',  ( 8.400000000000000355, 2.999999999999998668, 34.29999999999999716 ) ) ;
#10 = AXIS2_PLACEMENT_3D ( 'NONE', #512, #841, #764 ) ;
#11 = EDGE_LOOP ( 'NONE', ( #743, #529, #30, #860 ) ) ;
#12 = AXIS2_PLACEMENT_3D ( 'NONE', #541, #1033, #867 ) ;
#13 = CIRCLE ( 'NONE', #312, 8.049999999999998934 ) ;
#14 = EDGE_LOOP ( 'NONE', ( #308, #818, #293, #937 ) ) ;
#15 = DIRECTION ( 'NONE',  ( -7.138779736530069592E-17, -1.000000000000000000, -2.628368902995161532E-16 ) ) ;
#16 = CARTESIAN_POINT ( 'NONE',  ( 0.000000000000000000, 0.000000000000000000, 0.000000000000000000 ) ) ;
#17 = FACE_OUTER_BOUND ( 'NONE', #79, .T. ) ;
#18 = VERTEX_POINT ( 'NONE', #534 ) ;
#19 = DIRECTION ( 'NONE',  ( 1.000000000000000000, -7.138779736530069592E-17, -0.000000000000000000 ) ) ;
#20 = CARTESIAN_POINT ( 'NONE',  ( 17.00000000000000711, -46.29999999999999716, 49.29999999999999716 ) ) ;
#21 = DIRECTION ( 'NONE',  ( 1.000000000000000000, -3.877326898496162534E-17, 0.000000000000000000 ) ) ;
#22 = ADVANCED_FACE ( 'NONE', ( #264 ), #5, .F. ) ;
#23 = ORIENTED_EDGE ( 'NONE', *, *, #616, .F. ) ;
#24 = CARTESIAN_POINT ( 'NONE',  ( 7.000000000000000888, 0.000000000000000000, 0.000000000000000000 ) ) ;
#25 = CARTESIAN_POINT ( 'NONE',  ( 3.000000000000000888, 24.40000000000000213, 46.39999999999999858 ) ) ;
#26 = LINE ( 'NONE', #1003, #33 ) ;
#27 = AXIS2_PLACEMENT_3D ( 'NONE', #489, #255, #413 ) ;
#28 = EDGE_CURVE ( 'NONE', #116, #851, #46, .T. ) ;
#29 = AXIS2_PLACEMENT_3D ( 'NONE', #354, #39, #358 ) ;
#30 = ORIENTED_EDGE ( 'NONE', *, *, #142, .T. ) ;
#31 = DIRECTION ( 'NONE',  ( 1.000000000000000000, -7.138779736530069592E-17, 0.000000000000000000 ) ) ;
#32 = EDGE_CURVE ( 'NONE', #159, #645, #609, .T. ) ;
#33 = VECTOR ( 'NONE', #114, 1000.000000000000000 ) ;
#34 = CARTESIAN_POINT ( 'NONE',  ( 3.000000000000000000, 15.15000000000000036, 11.40000000000000036 ) ) ;
#35 = DIRECTION ( 'NONE',  ( 1.000000000000000000, 1.548860246407863336E-16, 0.000000000000000000 ) ) ;
#36 = EDGE_LOOP ( 'NONE', ( #869, #1, #496, #45 ) ) ;
#37 = ORIENTED_EDGE ( 'NONE', *, *, #495, .T. ) ;
#38 = DIRECTION ( 'NONE',  ( 3.877326898496163150E-17, 1.000000000000000000, 0.000000000000000000 ) ) ;
#39 = DIRECTION ( 'NONE',  ( -1.548860246407863336E-16, 1.000000000000000000, -0.000000000000000000 ) ) ;
#40 = FACE_OUTER_BOUND ( 'NONE', #251, .T. ) ;
#41 = VERTEX_POINT ( 'NONE', #447 ) ;
#42 = ORIENTED_EDGE ( 'NONE', *, *, #436, .T. ) ;
#43 = CYLINDRICAL_SURFACE ( 'NONE', #167, 10.00000000000000178 ) ;
#44 = APPLICATION_CONTEXT ( 'automotive_design' ) ;
#45 = ORIENTED_EDGE ( 'NONE', *, *, #975, .F. ) ;
#46 = CIRCLE ( 'NONE', #96, 0.8499999999999992006 ) ;
#47 = ORIENTED_EDGE ( 'NONE', *, *, #523, .F. ) ;
#48 = CARTESIAN_POINT ( 'NONE',  ( 2.999999999999999556, 5.899999999999997691, 46.39999999999999858 ) ) ;
#49 = AXIS2_PLACEMENT_3D ( 'NONE', #735, #2, #160 ) ;
#50 = AXIS2_PLACEMENT_3D ( 'NONE', #590, #288, #931 ) ;
#51 = DIRECTION ( 'NONE',  ( -0.000000000000000000, -0.000000000000000000, -1.000000000000000000 ) ) ;
#52 = ORIENTED_EDGE ( 'NONE', *, *, #236, .T. ) ;
#53 = DIRECTION ( 'NONE',  ( -1.548860246407863336E-16, 1.000000000000000000, -0.000000000000000000 ) ) ;
#54 = CARTESIAN_POINT ( 'NONE',  ( 11.60000000000000142, 0.000000000000000000, 15.00000000000000000 ) ) ;
#55 = EDGE_CURVE ( 'NONE', #68, #879, #982, .T. ) ;
#56 = VERTEX_POINT ( 'NONE', #175 ) ;
#57 = EDGE_CURVE ( 'NONE', #898, #938, #1030, .T. ) ;
#58 = DIRECTION ( 'NONE',  ( 7.138779736530073289E-17, 1.000000000000000000, 0.000000000000000000 ) ) ;
#59 = CARTESIAN_POINT ( 'NONE',  ( 7.000000000000000888, 2.999999999999998224, 0.000000000000000000 ) ) ;
#60 = ORIENTED_EDGE ( 'NONE', *, *, #350, .F. ) ;
#61 = CARTESIAN_POINT ( 'NONE',  ( 17.00000000000000000, -46.29999999999999716, 39.29999999999999716 ) ) ;
#62 = EDGE_CURVE ( 'NONE', #68, #737, #553, .T. ) ;
#63 = CIRCLE ( 'NONE', #796, 0.8500000000000000888 ) ;
#64 = DIRECTION ( 'NONE',  ( -1.548860246407863336E-16, 1.000000000000000000, -0.000000000000000000 ) ) ;
#65 = CIRCLE ( 'NONE', #965, 10.00000000000000178 ) ;
#66 = VECTOR ( 'NONE', #360, 1000.000000000000000 ) ;
#67 = EDGE_LOOP ( 'NONE', ( #961, #927, #589, #133 ) ) ;
#68 = VERTEX_POINT ( 'NONE', #59 ) ;
#69 = DIRECTION ( 'NONE',  ( 0.000000000000000000, 1.000000000000000000, 0.000000000000000000 ) ) ;
#70 = CARTESIAN_POINT ( 'NONE',  ( 2.999999999999999112, 2.999999999999997780, 0.000000000000000000 ) ) ;
#71 = VERTEX_POINT ( 'NONE', #643 ) ;
#72 = ORIENTED_EDGE ( 'NONE', *, *, #901, .F. ) ;
#73 = CARTESIAN_POINT ( 'NONE',  ( 2.999999999999999556, 7.099999999999998757, 37.89999999999999858 ) ) ;
#74 = DIRECTION ( 'NONE',  ( 3.877326898496163150E-17, 1.000000000000000000, 0.000000000000000000 ) ) ;
#75 = ADVANCED_FACE ( 'NONE', ( #1044 ), #233, .F. ) ;
#76 = EDGE_CURVE ( 'NONE', #585, #724, #877, .T. ) ;
#77 = EDGE_CURVE ( 'NONE', #737, #1009, #635, .T. ) ;
#78 = ORIENTED_EDGE ( 'NONE', *, *, #789, .T. ) ;
#79 = EDGE_LOOP ( 'NONE', ( #916, #219, #47, #368 ) ) ;
#80 = DIRECTION ( 'NONE',  ( 0.000000000000000000, -0.000000000000000000, 1.000000000000000000 ) ) ;
#81 = CARTESIAN_POINT ( 'NONE',  ( 10.00000000000000711, -46.29999999999999716, 15.00000000000000000 ) ) ;
#82 = AXIS2_PLACEMENT_3D ( 'NONE', #81, #263, #664 ) ;
#83 = VECTOR ( 'NONE', #619, 1000.000000000000000 ) ;
#84 = VERTEX_POINT ( 'NONE', #54 ) ;
#85 = ORIENTED_EDGE ( 'NONE', *, *, #76, .T. ) ;
#86 = DIRECTION ( 'NONE',  ( 0.000000000000000000, 0.000000000000000000, 1.000000000000000000 ) ) ;
#87 = CYLINDRICAL_SURFACE ( 'NONE', #82, 1.600000000000000755 ) ;
#88 = EDGE_LOOP ( 'NONE', ( #805, #839 ) ) ;
#89 = EDGE_CURVE ( 'NONE', #56, #159, #322, .T. ) ;
#90 = FACE_OUTER_BOUND ( 'NONE', #729, .T. ) ;
#91 = CARTESIAN_POINT ( 'NONE',  ( -46.29999999999999716, 15.15000000000000391, 11.40000000000000036 ) ) ;
#92 = ORIENTED_EDGE ( 'NONE', *, *, #203, .T. ) ;
#93 = ORIENTED_EDGE ( 'NONE', *, *, #89, .T. ) ;
#94 = LINE ( 'NONE', #576, #896 ) ;
#95 = CARTESIAN_POINT ( 'NONE',  ( -4.336808689942017736E-16, 5.899999999999997691, 46.39999999999999858 ) ) ;
#96 = AXIS2_PLACEMENT_3D ( 'NONE', #522, #539, #339 ) ;
#97 = DIRECTION ( 'NONE',  ( 1.000000000000000000, -7.138779736530069592E-17, -0.000000000000000000 ) ) ;
#98 = VECTOR ( 'NONE', #397, 1000.000000000000000 ) ;
#99 = VECTOR ( 'NONE', #604, 1000.000000000000000 ) ;
#100 = ORIENTED_EDGE ( 'NONE', *, *, #829, .F. ) ;
#101 = DIRECTION ( 'NONE',  ( 1.000000000000000000, -7.138779736530069592E-17, -0.000000000000000000 ) ) ;
#102 = CARTESIAN_POINT ( 'NONE',  ( -46.29999999999999716, 7.100000000000002309, 37.89999999999999858 ) ) ;
#103 = FACE_BOUND ( 'NONE', #335, .T. ) ;
#104 = ORIENTED_EDGE ( 'NONE', *, *, #8, .T. ) ;
#105 = CARTESIAN_POINT ( 'NONE',  ( 10.00000000000000000, 0.000000000000000000, 34.29999999999999716 ) ) ;
#106 = CARTESIAN_POINT ( 'NONE',  ( 2.999999999999999556, 5.999999999999998224, 27.94999999999999929 ) ) ;
#107 = CARTESIAN_POINT ( 'NONE',  ( 17.00000000000000000, 3.000000000000000000, 49.29999999999999716 ) ) ;
#108 = EDGE_CURVE ( 'NONE', #762, #425, #787, .T. ) ;
#109 = EDGE_CURVE ( 'NONE', #425, #242, #1024, .T. ) ;
#110 = PRODUCT_DEFINITION_FORMATION_WITH_SPECIFIED_SOURCE ( 'ANY', '', #992, .NOT_KNOWN. ) ;
#111 = ORIENTED_EDGE ( 'NONE', *, *, #712, .T. ) ;
#112 = LINE ( 'NONE', #189, #967 ) ;
#113 = DIRECTION ( 'NONE',  ( 7.138779736530070824E-17, 1.000000000000000000, 0.000000000000000000 ) ) ;
#114 = DIRECTION ( 'NONE',  ( 1.000000000000000000, -7.138779736530069592E-17, -0.000000000000000000 ) ) ;
#115 = DIRECTION ( 'NONE',  ( 0.000000000000000000, 1.000000000000000000, 0.000000000000000000 ) ) ;
#116 = VERTEX_POINT ( 'NONE', #717 ) ;
#117 = CIRCLE ( 'NONE', #294, 0.8500000000000000888 ) ;
#118 = LINE ( 'NONE', #677, #850 ) ;
#119 = CIRCLE ( 'NONE', #207, 1.899999999999999023 ) ;
#120 = LINE ( 'NONE', #934, #395 ) ;
#121 = CARTESIAN_POINT ( 'NONE',  ( 17.00000000000000000, 3.000000000000000000, 49.29999999999999716 ) ) ;
#122 = ORIENTED_EDGE ( 'NONE', *, *, #908, .T. ) ;
#123 = ORIENTED_EDGE ( 'NONE', *, *, #257, .F. ) ;
#124 = DIRECTION ( 'NONE',  ( -1.000000000000000000, 0.000000000000000000, 0.000000000000000000 ) ) ;
#125 = FACE_OUTER_BOUND ( 'NONE', #67, .T. ) ;
#126 = CARTESIAN_POINT ( 'NONE',  ( -46.29999999999999716, 9.800000000000000711, 27.94999999999999929 ) ) ;
#127 = ORIENTED_EDGE ( 'NONE', *, *, #303, .F. ) ;
#128 = VERTEX_POINT ( 'NONE', #883 ) ;
#129 = FACE_OUTER_BOUND ( 'NONE', #14, .T. ) ;
#130 =( NAMED_UNIT ( * ) SI_UNIT ( $, .STERADIAN. ) SOLID_ANGLE_UNIT ( ) );
#131 = ORIENTED_EDGE ( 'NONE', *, *, #606, .F. ) ;
#132 = VECTOR ( 'NONE', #902, 1000.000000000000000 ) ;
#133 = ORIENTED_EDGE ( 'NONE', *, *, #597, .F. ) ;
#134 = AXIS2_PLACEMENT_3D ( 'NONE', #305, #629, #951 ) ;
#135 = CARTESIAN_POINT ( 'NONE',  ( 2.999999999999999556, 5.899999999999997691, 2.899999999999999911 ) ) ;
#136 = APPLICATION_PROTOCOL_DEFINITION ( 'draft international standard', 'automotive_design', 1998, #44 ) ;
#137 = LINE ( 'NONE', #383, #630 ) ;
#138 = EDGE_CURVE ( 'NONE', #41, #177, #475, .T. ) ;
#139 = VERTEX_POINT ( 'NONE', #239 ) ;
#140 = DIRECTION ( 'NONE',  ( 1.000000000000000000, -7.138779736530069592E-17, 0.000000000000000000 ) ) ;
#141 = CARTESIAN_POINT ( 'NONE',  ( 3.121248153289411453E-16, 23.20000000000000284, 37.89999999999999858 ) ) ;
#142 = EDGE_CURVE ( 'NONE', #18, #334, #795, .T. ) ;
#143 = VERTEX_POINT ( 'NONE', #863 ) ;
#144 = ADVANCED_FACE ( 'NONE', ( #709 ), #868, .F. ) ;
#145 = CARTESIAN_POINT ( 'NONE',  ( 3.000000000000000888, 25.25000000000000000, 46.39999999999999858 ) ) ;
#146 = CARTESIAN_POINT ( 'NONE',  ( 9.280413657489091825E-16, 25.25000000000000000, 46.39999999999999858 ) ) ;
#147 = ORIENTED_EDGE ( 'NONE', *, *, #284, .F. ) ;
#148 = AXIS2_PLACEMENT_3D ( 'NONE', #859, #661, #115 ) ;
#149 = CIRCLE ( 'NONE', #27, 0.8500000000000000888 ) ;
#150 = FACE_OUTER_BOUND ( 'NONE', #954, .T. ) ;
#151 = AXIS2_PLACEMENT_3D ( 'NONE', #1006, #183, #283 ) ;
#152 = CARTESIAN_POINT ( 'NONE',  ( 1.058510243289452425E-15, 27.30000000000000071, 49.29999999999999716 ) ) ;
#153 = AXIS2_PLACEMENT_3D ( 'NONE', #262, #332, #238 ) ;
#154 = COLOUR_RGB ( '',0.7921568627450980005, 0.8196078431372548767, 0.9333333333333333481 ) ;
#155 = EDGE_LOOP ( 'NONE', ( #707, #323 ) ) ;
#156 = CARTESIAN_POINT ( 'NONE',  ( 9.280413657489091825E-16, 25.25000000000000000, 46.39999999999999858 ) ) ;
#157 = EDGE_CURVE ( 'NONE', #778, #1009, #137, .T. ) ;
#158 = LINE ( 'NONE', #583, #981 ) ;
#159 = VERTEX_POINT ( 'NONE', #563 ) ;
#160 = DIRECTION ( 'NONE',  ( -1.000000000000000000, -2.710505431213759606E-16, 0.000000000000000000 ) ) ;
#161 = DIRECTION ( 'NONE',  ( 0.000000000000000000, 0.000000000000000000, 1.000000000000000000 ) ) ;
#162 = ORIENTED_EDGE ( 'NONE', *, *, #428, .F. ) ;
#163 = ORIENTED_EDGE ( 'NONE', *, *, #945, .T. ) ;
#164 = CARTESIAN_POINT ( 'NONE',  ( -46.29999999999999716, 23.20000000000000639, 37.89999999999999858 ) ) ;
#165 = CIRCLE ( 'NONE', #292, 8.050000000000000711 ) ;
#166 = DIRECTION ( 'NONE',  ( 1.000000000000000000, -7.138779736530069592E-17, -0.000000000000000000 ) ) ;
#167 = AXIS2_PLACEMENT_3D ( 'NONE', #20, #1002, #375 ) ;
#168 = AXIS2_PLACEMENT_3D ( 'NONE', #791, #943, #58 ) ;
#169 = STYLED_ITEM ( 'NONE', ( #387 ), #1049 ) ;
#170 = ORIENTED_EDGE ( 'NONE', *, *, #32, .T. ) ;
#171 = EDGE_CURVE ( 'NONE', #710, #41, #956, .T. ) ;
#172 = ORIENTED_EDGE ( 'NONE', *, *, #874, .T. ) ;
#173 = CARTESIAN_POINT ( 'NONE',  ( 3.000000000000000000, 9.799999999999997158, 27.94999999999999929 ) ) ;
#174 = DIRECTION ( 'NONE',  ( 1.000000000000000000, -7.138779736530069592E-17, -0.000000000000000000 ) ) ;
#175 = CARTESIAN_POINT ( 'NONE',  ( -3.730012412336961383E-16, 6.749999999999997335, 2.899999999999999911 ) ) ;
#176 = EDGE_CURVE ( 'NONE', #143, #653, #1048, .T. ) ;
#177 = VERTEX_POINT ( 'NONE', #471 ) ;
#178 = LINE ( 'NONE', #326, #615 ) ;
#179 = CYLINDRICAL_SURFACE ( 'NONE', #445, 8.050000000000000711 ) ;
#180 = AXIS2_PLACEMENT_3D ( 'NONE', #623, #950, #217 ) ;
#181 = ORIENTED_EDGE ( 'NONE', *, *, #441, .T. ) ;
#182 = CARTESIAN_POINT ( 'NONE',  ( 9.280413657489091825E-16, 25.25000000000000000, 2.899999999999999911 ) ) ;
#183 = DIRECTION ( 'NONE',  ( 1.000000000000000000, -7.138779736530069592E-17, 0.000000000000000000 ) ) ;
#184 = VECTOR ( 'NONE', #624, 1000.000000000000000 ) ;
#185 = FACE_OUTER_BOUND ( 'NONE', #6, .T. ) ;
#186 = AXIS2_PLACEMENT_3D ( 'NONE', #25, #830, #854 ) ;
#187 = AXIS2_PLACEMENT_3D ( 'NONE', #457, #270, #846 ) ;
#188 = ORIENTED_EDGE ( 'NONE', *, *, #55, .T. ) ;
#189 = CARTESIAN_POINT ( 'NONE',  ( -46.29999999999999716, 6.000000000000001776, 27.94999999999999929 ) ) ;
#190 = DIRECTION ( 'NONE',  ( 1.000000000000000000, -7.138779736530069592E-17, -0.000000000000000000 ) ) ;
#191 = EDGE_CURVE ( 'NONE', #607, #344, #254, .T. ) ;
#192 = DIRECTION ( 'NONE',  ( 0.000000000000000000, -0.000000000000000000, -1.000000000000000000 ) ) ;
#193 = ORIENTED_EDGE ( 'NONE', *, *, #191, .F. ) ;
#194 = DIRECTION ( 'NONE',  ( 0.000000000000000000, 1.000000000000000000, 0.000000000000000000 ) ) ;
#195 = DIRECTION ( 'NONE',  ( 7.138779736530070824E-17, 1.000000000000000000, 0.000000000000000000 ) ) ;
#196 = DIRECTION ( 'NONE',  ( 7.138779736530073289E-17, 1.000000000000000000, 0.000000000000000000 ) ) ;
#197 = ORIENTED_EDGE ( 'NONE', *, *, #226, .F. ) ;
#198 = EDGE_LOOP ( 'NONE', ( #147, #948, #768, #988 ) ) ;
#199 = FACE_OUTER_BOUND ( 'NONE', #36, .T. ) ;
#200 = CARTESIAN_POINT ( 'NONE',  ( 7.000000000000006217, -46.29999999999999716, 49.29999999999999716 ) ) ;
#201 = FACE_BOUND ( 'NONE', #940, .T. ) ;
#202 = ORIENTED_EDGE ( 'NONE', *, *, #538, .T. ) ;
#203 = EDGE_CURVE ( 'NONE', #790, #737, #225, .T. ) ;
#204 = VERTEX_POINT ( 'NONE', #141 ) ;
#205 = VECTOR ( 'NONE', #642, 1000.000000000000000 ) ;
#206 = DIRECTION ( 'NONE',  ( 7.138779736530069592E-17, 1.000000000000000000, 2.628368902995161532E-16 ) ) ;
#207 = AXIS2_PLACEMENT_3D ( 'NONE', #657, #882, #194 ) ;
#208 = DIRECTION ( 'NONE',  ( 7.138779736530073289E-17, 1.000000000000000000, 0.000000000000000000 ) ) ;
#209 = CARTESIAN_POINT ( 'NONE',  ( 3.000000000000000888, 27.30000000000000071, 49.29999999999999716 ) ) ;
#210 = ORIENTED_EDGE ( 'NONE', *, *, #428, .T. ) ;
#211 = UNCERTAINTY_MEASURE_WITH_UNIT (LENGTH_MEASURE( 1.000000000000000082E-05 ), #858, 'distance_accuracy_value', 'NONE');
#212 = ORIENTED_EDGE ( 'NONE', *, *, #944, .T. ) ;
#213 = CARTESIAN_POINT ( 'NONE',  ( 8.673617379884035472E-16, 24.40000000000000213, 2.899999999999999911 ) ) ;
#214 = ORIENTED_EDGE ( 'NONE', *, *, #191, .T. ) ;
#215 = EDGE_LOOP ( 'NONE', ( #42, #769 ) ) ;
#216 = DIRECTION ( 'NONE',  ( 1.000000000000000000, -3.877326898496162534E-17, 0.000000000000000000 ) ) ;
#217 = DIRECTION ( 'NONE',  ( 1.000000000000000000, 0.000000000000000000, 0.000000000000000000 ) ) ;
#218 = CARTESIAN_POINT ( 'NONE',  ( 3.000000000000000000, 15.15000000000000036, 37.89999999999999858 ) ) ;
#219 = ORIENTED_EDGE ( 'NONE', *, *, #817, .F. ) ;
#220 = CIRCLE ( 'NONE', #411, 8.050000000000000711 ) ;
#221 = VECTOR ( 'NONE', #752, 1000.000000000000000 ) ;
#222 = DIRECTION ( 'NONE',  ( 0.000000000000000000, 1.000000000000000000, 0.000000000000000000 ) ) ;
#223 = EDGE_CURVE ( 'NONE', #695, #531, #872, .T. ) ;
#224 = PRODUCT_CONTEXT ( 'NONE', #44, 'mechanical' ) ;
#225 = LINE ( 'NONE', #317, #727 ) ;
#226 = EDGE_CURVE ( 'NONE', #71, #56, #862, .T. ) ;
#227 = ORIENTED_EDGE ( 'NONE', *, *, #260, .F. ) ;
#228 = DIRECTION ( 'NONE',  ( -3.877326898496162534E-17, -1.000000000000000000, 0.000000000000000000 ) ) ;
#229 = DIRECTION ( 'NONE',  ( -0.000000000000000000, -0.000000000000000000, -1.000000000000000000 ) ) ;
#230 = EDGE_CURVE ( 'NONE', #653, #143, #220, .T. ) ;
#231 = EDGE_LOOP ( 'NONE', ( #450, #524, #100, #973 ) ) ;
#232 = CARTESIAN_POINT ( 'NONE',  ( 3.000000000000000888, 24.40000000000000213, 2.899999999999999911 ) ) ;
#233 = CYLINDRICAL_SURFACE ( 'NONE', #306, 1.899999999999999023 ) ;
#234 = ADVANCED_FACE ( 'NONE', ( #747 ), #87, .F. ) ;
#235 = ORIENTED_EDGE ( 'NONE', *, *, #89, .F. ) ;
#236 = EDGE_CURVE ( 'NONE', #320, #601, #359, .T. ) ;
#237 = VERTEX_POINT ( 'NONE', #587 ) ;
#238 = DIRECTION ( 'NONE',  ( 7.138779736530070824E-17, 1.000000000000000000, 0.000000000000000000 ) ) ;
#239 = CARTESIAN_POINT ( 'NONE',  ( 8.400000000000000355, 0.000000000000000000, 15.00000000000000000 ) ) ;
#240 = CIRCLE ( 'NONE', #12, 1.599999999999998979 ) ;
#241 = VECTOR ( 'NONE', #19, 1000.000000000000000 ) ;
#242 = VERTEX_POINT ( 'NONE', #16 ) ;
#243 = ORIENTED_EDGE ( 'NONE', *, *, #739, .F. ) ;
#244 = LINE ( 'NONE', #336, #205 ) ;
#245 = DIRECTION ( 'NONE',  ( 0.000000000000000000, 0.000000000000000000, 1.000000000000000000 ) ) ;
#246 = VERTEX_POINT ( 'NONE', #333 ) ;
#247 = ORIENTED_EDGE ( 'NONE', *, *, #415, .F. ) ;
#248 = DIRECTION ( 'NONE',  ( 1.000000000000000000, -7.138779736530069592E-17, -0.000000000000000000 ) ) ;
#249 = EDGE_CURVE ( 'NONE', #128, #777, #680, .T. ) ;
#250 = DIRECTION ( 'NONE',  ( 1.000000000000000000, -7.138779736530069592E-17, -0.000000000000000000 ) ) ;
#251 = EDGE_LOOP ( 'NONE', ( #331, #845, #212, #618 ) ) ;
#252 = ORIENTED_EDGE ( 'NONE', *, *, #280, .T. ) ;
#253 = DIRECTION ( 'NONE',  ( 7.138779736530070824E-17, 1.000000000000000000, 0.000000000000000000 ) ) ;
#254 = CIRCLE ( 'NONE', #134, 10.00000000000000178 ) ;
#255 = DIRECTION ( 'NONE',  ( 1.000000000000000000, -7.138779736530069592E-17, 0.000000000000000000 ) ) ;
#256 = VECTOR ( 'NONE', #296, 1000.000000000000000 ) ;
#257 = EDGE_CURVE ( 'NONE', #898, #281, #158, .T. ) ;
#258 = AXIS2_PLACEMENT_3D ( 'NONE', #836, #669, #685 ) ;
#259 = VERTEX_POINT ( 'NONE', #338 ) ;
#260 = EDGE_CURVE ( 'NONE', #879, #41, #678, .T. ) ;
#261 = ORIENTED_EDGE ( 'NONE', *, *, #754, .T. ) ;
#262 = CARTESIAN_POINT ( 'NONE',  ( 8.673617379884035472E-16, 24.40000000000000213, 46.39999999999999858 ) ) ;
#263 = DIRECTION ( 'NONE',  ( -1.548860246407863336E-16, 1.000000000000000000, -0.000000000000000000 ) ) ;
#264 = FACE_OUTER_BOUND ( 'NONE', #486, .T. ) ;
#265 = VERTEX_POINT ( 'NONE', #659 ) ;
#266 = DIRECTION ( 'NONE',  ( 1.000000000000000000, -7.138779736530069592E-17, -0.000000000000000000 ) ) ;
#267 = DIRECTION ( 'NONE',  ( 7.138779736530073289E-17, 1.000000000000000000, 0.000000000000000000 ) ) ;
#268 = DIRECTION ( 'NONE',  ( 0.000000000000000000, 0.000000000000000000, 1.000000000000000000 ) ) ;
#269 = ORIENTED_EDGE ( 'NONE', *, *, #901, .T. ) ;
#270 = DIRECTION ( 'NONE',  ( 1.000000000000000000, -3.877326898496162534E-17, 0.000000000000000000 ) ) ;
#271 = ADVANCED_FACE ( 'NONE', ( #905 ), #179, .F. ) ;
#272 = ADVANCED_FACE ( 'NONE', ( #980 ), #429, .F. ) ;
#273 = FACE_OUTER_BOUND ( 'NONE', #1025, .T. ) ;
#274 = DIRECTION ( 'NONE',  ( 0.000000000000000000, -1.000000000000000000, 0.000000000000000000 ) ) ;
#275 = CIRCLE ( 'NONE', #700, 0.8500000000000000888 ) ;
#276 = VERTEX_POINT ( 'NONE', #493 ) ;
#277 = PLANE ( 'NONE',  #579 ) ;
#278 = DIRECTION ( 'NONE',  ( -0.000000000000000000, 0.000000000000000000, 1.000000000000000000 ) ) ;
#279 = DIRECTION ( 'NONE',  ( 1.000000000000000000, -7.138779736530069592E-17, -0.000000000000000000 ) ) ;
#280 = EDGE_CURVE ( 'NONE', #18, #585, #742, .T. ) ;
#281 = VERTEX_POINT ( 'NONE', #346 ) ;
#282 = CYLINDRICAL_SURFACE ( 'NONE', #50, 10.00000000000000000 ) ;
#283 = DIRECTION ( 'NONE',  ( 7.138779736530070824E-17, 1.000000000000000000, 0.000000000000000000 ) ) ;
#284 = EDGE_CURVE ( 'NONE', #938, #259, #815, .T. ) ;
#285 = DIRECTION ( 'NONE',  ( -1.000000000000000000, -1.734723475976807094E-16, 0.000000000000000000 ) ) ;
#286 = ORIENTED_EDGE ( 'NONE', *, *, #415, .T. ) ;
#287 = ORIENTED_EDGE ( 'NONE', *, *, #142, .F. ) ;
#288 = DIRECTION ( 'NONE',  ( -1.548860246407863336E-16, 1.000000000000000000, -0.000000000000000000 ) ) ;
#289 = LINE ( 'NONE', #370, #256 ) ;
#290 = FACE_BOUND ( 'NONE', #88, .T. ) ;
#291 = EDGE_LOOP ( 'NONE', ( #52, #855 ) ) ;
#292 = AXIS2_PLACEMENT_3D ( 'NONE', #807, #736, #74 ) ;
#293 = ORIENTED_EDGE ( 'NONE', *, *, #706, .T. ) ;
#294 = AXIS2_PLACEMENT_3D ( 'NONE', #814, #500, #886 ) ;
#295 = AXIS2_PLACEMENT_3D ( 'NONE', #675, #682, #285 ) ;
#296 = DIRECTION ( 'NONE',  ( 1.000000000000000000, 0.000000000000000000, 0.000000000000000000 ) ) ;
#297 = DIRECTION ( 'NONE',  ( -1.548860246407863336E-16, 1.000000000000000000, 0.000000000000000000 ) ) ;
#298 = EDGE_LOOP ( 'NONE', ( #632, #324, #649, #1010 ) ) ;
#299 = CARTESIAN_POINT ( 'NONE',  ( -4.943604967547074089E-16, 5.049999999999997158, 2.899999999999999911 ) ) ;
#300 = CARTESIAN_POINT ( 'NONE',  ( -4.336808689942017736E-16, 5.899999999999997691, 2.899999999999999911 ) ) ;
#301 = ORIENTED_EDGE ( 'NONE', *, *, #495, .F. ) ;
#302 = CARTESIAN_POINT ( 'NONE',  ( 0.000000000000000000, 9.799999999999997158, 27.94999999999999929 ) ) ;
#303 = EDGE_CURVE ( 'NONE', #281, #259, #149, .T. ) ;
#304 = FILL_AREA_STYLE_COLOUR ( '', #154 ) ;
#305 = CARTESIAN_POINT ( 'NONE',  ( 17.00000000000000000, 3.000000000000000000, 49.29999999999999716 ) ) ;
#306 = AXIS2_PLACEMENT_3D ( 'NONE', #543, #557, #479 ) ;
#307 = AXIS2_PLACEMENT_3D ( 'NONE', #342, #990, #423 ) ;
#308 = ORIENTED_EDGE ( 'NONE', *, *, #364, .F. ) ;
#309 = AXIS2_PLACEMENT_3D ( 'NONE', #592, #278, #681 ) ;
#310 = AXIS2_PLACEMENT_3D ( 'NONE', #979, #248, #253 ) ;
#311 = LINE ( 'NONE', #478, #502 ) ;
#312 = AXIS2_PLACEMENT_3D ( 'NONE', #907, #770, #38 ) ;
#313 =( NAMED_UNIT ( * ) PLANE_ANGLE_UNIT ( ) SI_UNIT ( $, .RADIAN. ) );
#314 = CARTESIAN_POINT ( 'NONE',  ( 11.60000000000000675, -46.29999999999999716, 34.29999999999999716 ) ) ;
#315 = ORIENTED_EDGE ( 'NONE', *, *, #754, .F. ) ;
#316 = DIRECTION ( 'NONE',  ( 1.000000000000000000, -7.138779736530069592E-17, -0.000000000000000000 ) ) ;
#317 = CARTESIAN_POINT ( 'NONE',  ( 2.999999999999999112, 2.999999999999997780, 49.29999999999999716 ) ) ;
#318 = EDGE_CURVE ( 'NONE', #204, #246, #165, .T. ) ;
#319 = ORIENTED_EDGE ( 'NONE', *, *, #908, .F. ) ;
#320 = VERTEX_POINT ( 'NONE', #578 ) ;
#321 = DIRECTION ( 'NONE',  ( 0.000000000000000000, 1.000000000000000000, 0.000000000000000000 ) ) ;
#322 = LINE ( 'NONE', #399, #713 ) ;
#323 = ORIENTED_EDGE ( 'NONE', *, *, #351, .T. ) ;
#324 = ORIENTED_EDGE ( 'NONE', *, *, #572, .T. ) ;
#325 = VECTOR ( 'NONE', #705, 1000.000000000000000 ) ;
#326 = CARTESIAN_POINT ( 'NONE',  ( 3.000000000000000888, 27.30000000000000071, 49.29999999999999716 ) ) ;
#327 = DIRECTION ( 'NONE',  ( 7.138779736530070824E-17, 1.000000000000000000, 0.000000000000000000 ) ) ;
#328 = AXIS2_PLACEMENT_3D ( 'NONE', #1005, #15, #515 ) ;
#329 = ORIENTED_EDGE ( 'NONE', *, *, #350, .T. ) ;
#330 = EDGE_CURVE ( 'NONE', #702, #237, #740, .T. ) ;
#331 = ORIENTED_EDGE ( 'NONE', *, *, #466, .F. ) ;
#332 = DIRECTION ( 'NONE',  ( 1.000000000000000000, -7.138779736530069592E-17, -0.000000000000000000 ) ) ;
#333 = CARTESIAN_POINT ( 'NONE',  ( -3.121248153289411453E-16, 7.099999999999998757, 37.89999999999999858 ) ) ;
#334 = VERTEX_POINT ( 'NONE', #9 ) ;
#335 = EDGE_LOOP ( 'NONE', ( #958, #356 ) ) ;
#336 = CARTESIAN_POINT ( 'NONE',  ( 17.00000000000000000, 3.000000000000000000, 49.29999999999999716 ) ) ;
#337 = EDGE_CURVE ( 'NONE', #56, #71, #1034, .T. ) ;
#338 = CARTESIAN_POINT ( 'NONE',  ( 3.000000000000000888, 23.55000000000000071, 2.899999999999999911 ) ) ;
#339 = DIRECTION ( 'NONE',  ( 0.000000000000000000, 1.000000000000000000, 0.000000000000000000 ) ) ;
#340 = ORIENTED_EDGE ( 'NONE', *, *, #1007, .T. ) ;
#341 = FACE_OUTER_BOUND ( 'NONE', #402, .T. ) ;
#342 = CARTESIAN_POINT ( 'NONE',  ( -4.336808689942017736E-16, 5.899999999999997691, 2.899999999999999911 ) ) ;
#343 = CARTESIAN_POINT ( 'NONE',  ( -46.29999999999999716, 15.15000000000000391, 11.40000000000000036 ) ) ;
#344 = VERTEX_POINT ( 'NONE', #651 ) ;
#345 = CARTESIAN_POINT ( 'NONE',  ( 3.000000000000000444, 23.19999999999999929, 11.40000000000000036 ) ) ;
#346 = CARTESIAN_POINT ( 'NONE',  ( 3.000000000000000888, 25.25000000000000000, 2.899999999999999911 ) ) ;
#347 = FACE_BOUND ( 'NONE', #406, .T. ) ;
#348 = ADVANCED_FACE ( 'NONE', ( #970 ), #732, .F. ) ;
#349 = EDGE_CURVE ( 'NONE', #873, #540, #458, .T. ) ;
#350 = EDGE_CURVE ( 'NONE', #265, #930, #776, .T. ) ;
#351 = EDGE_CURVE ( 'NONE', #246, #204, #614, .T. ) ;
#352 = ORIENTED_EDGE ( 'NONE', *, *, #591, .T. ) ;
#353 = DIRECTION ( 'NONE',  ( 5.387339987505612864E-17, 1.000000000000000000, 0.000000000000000000 ) ) ;
#354 = CARTESIAN_POINT ( 'NONE',  ( 10.00000000000000711, -46.29999999999999716, 15.00000000000000000 ) ) ;
#355 = DIRECTION ( 'NONE',  ( 3.877326898496162534E-17, 1.000000000000000000, 0.000000000000000000 ) ) ;
#356 = ORIENTED_EDGE ( 'NONE', *, *, #226, .T. ) ;
#357 = DIRECTION ( 'NONE',  ( 0.000000000000000000, 0.000000000000000000, 1.000000000000000000 ) ) ;
#358 = DIRECTION ( 'NONE',  ( -1.000000000000000000, 0.000000000000000000, 0.000000000000000000 ) ) ;
#359 = CIRCLE ( 'NONE', #544, 0.8499999999999992006 ) ;
#360 = DIRECTION ( 'NONE',  ( -1.019104544675399041E-32, -2.628368902995161532E-16, 1.000000000000000000 ) ) ;
#361 = VECTOR ( 'NONE', #870, 1000.000000000000000 ) ;
#362 = ORIENTED_EDGE ( 'NONE', *, *, #865, .F. ) ;
#363 = CARTESIAN_POINT ( 'NONE',  ( 3.000000000000000888, 27.30000000000000071, 49.29999999999999716 ) ) ;
#364 = EDGE_CURVE ( 'NONE', #246, #653, #758, .T. ) ;
#365 = DIRECTION ( 'NONE',  ( 0.000000000000000000, 1.000000000000000000, 0.000000000000000000 ) ) ;
#366 = CYLINDRICAL_SURFACE ( 'NONE', #665, 0.8499999999999992006 ) ;
#367 = ORIENTED_EDGE ( 'NONE', *, *, #463, .F. ) ;
#368 = ORIENTED_EDGE ( 'NONE', *, *, #108, .T. ) ;
#369 = LINE ( 'NONE', #827, #701 ) ;
#370 = CARTESIAN_POINT ( 'NONE',  ( 0.000000000000000000, 0.000000000000000000, 0.000000000000000000 ) ) ;
#371 = EDGE_CURVE ( 'NONE', #276, #531, #782, .T. ) ;
#372 = CARTESIAN_POINT ( 'NONE',  ( 10.00000000000000000, 0.000000000000000000, 15.00000000000000000 ) ) ;
#373 = ORIENTED_EDGE ( 'NONE', *, *, #972, .F. ) ;
#374 = ORIENTED_EDGE ( 'NONE', *, *, #538, .F. ) ;
#375 = DIRECTION ( 'NONE',  ( -1.000000000000000000, 0.000000000000000000, 0.000000000000000000 ) ) ;
#376 = ORIENTED_EDGE ( 'NONE', *, *, #349, .T. ) ;
#377 = AXIS2_PLACEMENT_3D ( 'NONE', #605, #584, #506 ) ;
#378 = ORIENTED_EDGE ( 'NONE', *, *, #351, .F. ) ;
#379 = CIRCLE ( 'NONE', #448, 1.899999999999999689 ) ;
#380 = AXIS2_PLACEMENT_3D ( 'NONE', #753, #21, #355 ) ;
#381 = DIRECTION ( 'NONE',  ( 0.000000000000000000, 1.000000000000000000, 0.000000000000000000 ) ) ;
#382 = LINE ( 'NONE', #126, #633 ) ;
#383 = CARTESIAN_POINT ( 'NONE',  ( 3.000000000000000888, 27.30000000000000071, 49.29999999999999716 ) ) ;
#384 = ADVANCED_FACE ( 'NONE', ( #598 ), #43, .F. ) ;
#385 = EDGE_LOOP ( 'NONE', ( #60, #637, #921, #181 ) ) ;
#386 = FACE_OUTER_BOUND ( 'NONE', #393, .T. ) ;
#387 = PRESENTATION_STYLE_ASSIGNMENT (( #780 ) ) ;
#388 = CARTESIAN_POINT ( 'NONE',  ( 1.058510243289452425E-15, 27.30000000000000071, 0.000000000000000000 ) ) ;
#389 = ORIENTED_EDGE ( 'NONE', *, *, #463, .T. ) ;
#390 = DIRECTION ( 'NONE',  ( 1.000000000000000000, -7.138779736530069592E-17, 0.000000000000000000 ) ) ;
#391 = DIRECTION ( 'NONE',  ( 1.000000000000000000, -7.138779736530069592E-17, 0.000000000000000000 ) ) ;
#392 = VECTOR ( 'NONE', #250, 1000.000000000000000 ) ;
#393 = EDGE_LOOP ( 'NONE', ( #162, #889, #352, #123 ) ) ;
#394 = ADVANCED_BREP_SHAPE_REPRESENTATION ( 'Team A4 ultrasonic', ( #1049, #180 ), #757 ) ;
#395 = VECTOR ( 'NONE', #533, 1000.000000000000000 ) ;
#396 = ADVANCED_FACE ( 'NONE', ( #125 ), #697, .F. ) ;
#397 = DIRECTION ( 'NONE',  ( -1.548860246407863336E-16, 1.000000000000000000, -0.000000000000000000 ) ) ;
#398 = AXIS2_PLACEMENT_3D ( 'NONE', #451, #31, #353 ) ;
#399 = CARTESIAN_POINT ( 'NONE',  ( -3.730012412336961383E-16, 6.749999999999997335, 2.899999999999999911 ) ) ;
#400 = ADVANCED_FACE ( 'NONE', ( #1017 ), #1012, .T. ) ;
#401 = ORIENTED_EDGE ( 'NONE', *, *, #922, .F. ) ;
#402 = EDGE_LOOP ( 'NONE', ( #1051, #812, #93, #170 ) ) ;
#403 = CARTESIAN_POINT ( 'NONE',  ( 11.59999999999999964, 0.000000000000000000, 34.29999999999999716 ) ) ;
#404 = DIRECTION ( 'NONE',  ( 7.138779736530069592E-17, 1.000000000000000000, 0.000000000000000000 ) ) ;
#405 = EDGE_LOOP ( 'NONE', ( #127, #621 ) ) ;
#406 = EDGE_LOOP ( 'NONE', ( #437, #374 ) ) ;
#407 = DIRECTION ( 'NONE',  ( 7.138779736530069592E-17, 1.000000000000000000, 0.000000000000000000 ) ) ;
#408 = DIRECTION ( 'NONE',  ( 1.000000000000000000, 0.000000000000000000, 0.000000000000000000 ) ) ;
#409 = ORIENTED_EDGE ( 'NONE', *, *, #567, .F. ) ;
#410 = AXIS2_PLACEMENT_3D ( 'NONE', #343, #699, #1019 ) ;
#411 = AXIS2_PLACEMENT_3D ( 'NONE', #655, #571, #4 ) ;
#412 = DIRECTION ( 'NONE',  ( 0.000000000000000000, -1.000000000000000000, 0.000000000000000000 ) ) ;
#413 = DIRECTION ( 'NONE',  ( 0.000000000000000000, 1.000000000000000000, 0.000000000000000000 ) ) ;
#414 = VECTOR ( 'NONE', #556, 1000.000000000000000 ) ;
#415 = EDGE_CURVE ( 'NONE', #242, #879, #289, .T. ) ;
#416 = ORIENTED_EDGE ( 'NONE', *, *, #658, .F. ) ;
#417 = EDGE_CURVE ( 'NONE', #755, #695, #63, .T. ) ;
#418 = EDGE_LOOP ( 'NONE', ( #340, #693 ) ) ;
#419 = CARTESIAN_POINT ( 'NONE',  ( 11.59999999999999964, 2.999999999999999556, 34.29999999999999716 ) ) ;
#420 = DIRECTION ( 'NONE',  ( 1.000000000000000000, -7.138779736530069592E-17, -0.000000000000000000 ) ) ;
#421 = ORIENTED_EDGE ( 'NONE', *, *, #739, .T. ) ;
#422 = FACE_BOUND ( 'NONE', #418, .T. ) ;
#423 = DIRECTION ( 'NONE',  ( 7.138779736530070824E-17, 1.000000000000000000, 0.000000000000000000 ) ) ;
#424 = ORIENTED_EDGE ( 'NONE', *, *, #646, .T. ) ;
#425 = VERTEX_POINT ( 'NONE', #520 ) ;
#426 = CYLINDRICAL_SURFACE ( 'NONE', #310, 0.8500000000000000888 ) ;
#427 = VECTOR ( 'NONE', #1028, 1000.000000000000000 ) ;
#428 = EDGE_CURVE ( 'NONE', #938, #898, #933, .T. ) ;
#429 = CYLINDRICAL_SURFACE ( 'NONE', #1032, 8.050000000000000711 ) ;
#430 = FACE_BOUND ( 'NONE', #155, .T. ) ;
#431 = AXIS2_PLACEMENT_3D ( 'NONE', #1011, #912, #124 ) ;
#432 = EDGE_LOOP ( 'NONE', ( #214, #389, #884, #301 ) ) ;
#433 = LINE ( 'NONE', #596, #241 ) ;
#434 = DIRECTION ( 'NONE',  ( 1.000000000000000000, -7.138779736530069592E-17, 0.000000000000000000 ) ) ;
#435 = PLANE ( 'NONE',  #380 ) ;
#436 = EDGE_CURVE ( 'NONE', #695, #755, #481, .T. ) ;
#437 = ORIENTED_EDGE ( 'NONE', *, *, #32, .F. ) ;
#438 = DIRECTION ( 'NONE',  ( 0.000000000000000000, 1.000000000000000000, 0.000000000000000000 ) ) ;
#439 = CARTESIAN_POINT ( 'NONE',  ( 0.000000000000000000, 15.15000000000000036, 37.89999999999999858 ) ) ;
#440 = CARTESIAN_POINT ( 'NONE',  ( -3.730012412336961876E-16, 6.749999999999996447, 46.39999999999999858 ) ) ;
#441 = EDGE_CURVE ( 'NONE', #835, #930, #783, .T. ) ;
#442 = ORIENTED_EDGE ( 'NONE', *, *, #722, .F. ) ;
#443 = CARTESIAN_POINT ( 'NONE',  ( -46.29999999999999716, 9.800000000000000711, 27.94999999999999929 ) ) ;
#444 = DIRECTION ( 'NONE',  ( 3.877326898496163150E-17, 1.000000000000000000, 0.000000000000000000 ) ) ;
#445 = AXIS2_PLACEMENT_3D ( 'NONE', #91, #166, #568 ) ;
#446 = DIRECTION ( 'NONE',  ( 0.000000000000000000, 1.000000000000000000, 0.000000000000000000 ) ) ;
#447 = CARTESIAN_POINT ( 'NONE',  ( 17.00000000000000000, 0.000000000000000000, 10.00000000000000000 ) ) ;
#448 = AXIS2_PLACEMENT_3D ( 'NONE', #904, #488, #412 ) ;
#449 = MECHANICAL_DESIGN_GEOMETRIC_PRESENTATION_REPRESENTATION (  '', ( #169 ), #888 ) ;
#450 = ORIENTED_EDGE ( 'NONE', *, *, #1031, .T. ) ;
#451 = CARTESIAN_POINT ( 'NONE',  ( 3.000000000000000000, 15.15000000000000036, 11.40000000000000036 ) ) ;
#452 = ADVANCED_FACE ( 'NONE', ( #273 ), #610, .F. ) ;
#453 = DIRECTION ( 'NONE',  ( 1.000000000000000000, -7.138779736530069592E-17, -0.000000000000000000 ) ) ;
#454 = CARTESIAN_POINT ( 'NONE',  ( -4.336808689942017736E-16, 5.899999999999997691, 46.39999999999999858 ) ) ;
#455 = VERTEX_POINT ( 'NONE', #603 ) ;
#456 = EDGE_LOOP ( 'NONE', ( #741, #852 ) ) ;
#457 = CARTESIAN_POINT ( 'NONE',  ( 0.000000000000000000, 15.15000000000000036, 11.40000000000000036 ) ) ;
#458 = LINE ( 'NONE', #106, #221 ) ;
#459 =( LENGTH_UNIT ( ) NAMED_UNIT ( * ) SI_UNIT ( .MILLI., .METRE. ) );
#460 = ORIENTED_EDGE ( 'NONE', *, *, #829, .T. ) ;
#461 = ORIENTED_EDGE ( 'NONE', *, *, #62, .T. ) ;
#462 = CYLINDRICAL_SURFACE ( 'NONE', #765, 8.050000000000000711 ) ;
#463 = EDGE_CURVE ( 'NONE', #344, #237, #925, .T. ) ;
#464 = CARTESIAN_POINT ( 'NONE',  ( 17.00000000000000000, 0.000000000000000000, 49.29999999999999716 ) ) ;
#465 = EDGE_CURVE ( 'NONE', #601, #320, #1050, .T. ) ;
#466 = EDGE_CURVE ( 'NONE', #601, #851, #120, .T. ) ;
#467 = ORIENTED_EDGE ( 'NONE', *, *, #844, .F. ) ;
#468 = AXIS2_PLACEMENT_3D ( 'NONE', #34, #434, #995 ) ;
#469 = AXIS2_PLACEMENT_3D ( 'NONE', #105, #438, #357 ) ;
#470 = CARTESIAN_POINT ( 'NONE',  ( 1.058510243289452425E-15, 27.30000000000000071, 49.29999999999999716 ) ) ;
#471 = CARTESIAN_POINT ( 'NONE',  ( 17.00000000000000000, 3.000000000000000000, 10.00000000000000000 ) ) ;
#472 = ORIENTED_EDGE ( 'NONE', *, *, #223, .F. ) ;
#473 = CARTESIAN_POINT ( 'NONE',  ( 2.326396139097694192E-16, 5.999999999999991118, 49.29999999999999005 ) ) ;
#474 = DIRECTION ( 'NONE',  ( 1.000000000000000000, -7.138779736530069592E-17, -0.000000000000000000 ) ) ;
#475 = LINE ( 'NONE', #947, #427 ) ;
#476 = ADVANCED_FACE ( 'NONE', ( #716 ), #551, .F. ) ;
#477 = ORIENTED_EDGE ( 'NONE', *, *, #658, .T. ) ;
#478 = CARTESIAN_POINT ( 'NONE',  ( 3.000000000000000000, 9.799999999999997158, 27.94999999999999929 ) ) ;
#479 = DIRECTION ( 'NONE',  ( 0.000000000000000000, 1.000000000000000000, 0.000000000000000000 ) ) ;
#480 = VERTEX_POINT ( 'NONE', #483 ) ;
#481 = CIRCLE ( 'NONE', #10, 0.8500000000000000888 ) ;
#482 = AXIS2_PLACEMENT_3D ( 'NONE', #1043, #53, #1026 ) ;
#483 = CARTESIAN_POINT ( 'NONE',  ( 0.000000000000000000, 5.999999999999998224, 27.94999999999999929 ) ) ;
#484 = CIRCLE ( 'NONE', #187, 8.049999999999998934 ) ;
#485 = DIRECTION ( 'NONE',  ( 7.138779736530070824E-17, 1.000000000000000000, 0.000000000000000000 ) ) ;
#486 = EDGE_LOOP ( 'NONE', ( #319, #564, #821, #111 ) ) ;
#487 = ORIENTED_EDGE ( 'NONE', *, *, #466, .T. ) ;
#488 = DIRECTION ( 'NONE',  ( 1.000000000000000000, -7.138779736530069592E-17, -0.000000000000000000 ) ) ;
#489 = CARTESIAN_POINT ( 'NONE',  ( 3.000000000000000888, 24.40000000000000213, 2.899999999999999911 ) ) ;
#490 = ORIENTED_EDGE ( 'NONE', *, *, #441, .F. ) ;
#491 = EDGE_LOOP ( 'NONE', ( #378, #971, #625, #885 ) ) ;
#492 = DIRECTION ( 'NONE',  ( 0.000000000000000000, 1.000000000000000000, 0.000000000000000000 ) ) ;
#493 = CARTESIAN_POINT ( 'NONE',  ( 3.000000000000000888, 23.55000000000000071, 46.39999999999999858 ) ) ;
#494 = ADVANCED_FACE ( 'NONE', ( #150 ), #955, .F. ) ;
#495 = EDGE_CURVE ( 'NONE', #607, #710, #1040, .T. ) ;
#496 = ORIENTED_EDGE ( 'NONE', *, *, #1031, .F. ) ;
#497 = AXIS2_PLACEMENT_3D ( 'NONE', #505, #824, #161 ) ;
#498 = ORIENTED_EDGE ( 'NONE', *, *, #660, .F. ) ;
#499 = VECTOR ( 'NONE', #686, 1000.000000000000000 ) ;
#500 = DIRECTION ( 'NONE',  ( 1.000000000000000000, -7.138779736530069592E-17, 0.000000000000000000 ) ) ;
#501 = CARTESIAN_POINT ( 'NONE',  ( -46.29999999999999716, 15.15000000000000391, 37.89999999999999858 ) ) ;
#502 = VECTOR ( 'NONE', #634, 1000.000000000000000 ) ;
#503 = VERTEX_POINT ( 'NONE', #302 ) ;
#504 = CARTESIAN_POINT ( 'NONE',  ( 0.000000000000000000, 0.000000000000000000, 49.29999999999999716 ) ) ;
#505 = CARTESIAN_POINT ( 'NONE',  ( 10.00000000000000000, 0.000000000000000000, 34.29999999999999716 ) ) ;
#506 = DIRECTION ( 'NONE',  ( 7.138779736530070824E-17, 1.000000000000000000, 0.000000000000000000 ) ) ;
#507 = ORIENTED_EDGE ( 'NONE', *, *, #597, .T. ) ;
#508 = CARTESIAN_POINT ( 'NONE',  ( 8.066821102278979119E-16, 23.55000000000000071, 46.39999999999999858 ) ) ;
#509 = DIRECTION ( 'NONE',  ( 1.000000000000000000, -7.138779736530069592E-17, -0.000000000000000000 ) ) ;
#510 = ORIENTED_EDGE ( 'NONE', *, *, #771, .F. ) ;
#511 = LINE ( 'NONE', #673, #784 ) ;
#512 = CARTESIAN_POINT ( 'NONE',  ( 8.673617379884035472E-16, 24.40000000000000213, 46.39999999999999858 ) ) ;
#513 = FACE_BOUND ( 'NONE', #405, .T. ) ;
#514 = ORIENTED_EDGE ( 'NONE', *, *, #942, .F. ) ;
#515 = DIRECTION ( 'NONE',  ( 0.000000000000000000, 2.628368902995161532E-16, -1.000000000000000000 ) ) ;
#516 = CARTESIAN_POINT ( 'NONE',  ( -46.29999999999999716, 7.100000000000004086, 11.40000000000000213 ) ) ;
#517 = CARTESIAN_POINT ( 'NONE',  ( 3.799780360526235228E-16, 9.799999999999990052, 49.29999999999999005 ) ) ;
#518 = ORIENTED_EDGE ( 'NONE', *, *, #465, .F. ) ;
#519 = DIRECTION ( 'NONE',  ( 1.000000000000000000, -7.138779736530069592E-17, -0.000000000000000000 ) ) ;
#520 = CARTESIAN_POINT ( 'NONE',  ( 1.058510243289452425E-15, 27.30000000000000071, 0.000000000000000000 ) ) ;
#521 = FACE_BOUND ( 'NONE', #298, .T. ) ;
#522 = CARTESIAN_POINT ( 'NONE',  ( 2.999999999999999556, 5.899999999999997691, 46.39999999999999858 ) ) ;
#523 = EDGE_CURVE ( 'NONE', #762, #702, #622, .T. ) ;
#524 = ORIENTED_EDGE ( 'NONE', *, *, #771, .T. ) ;
#525 = DIRECTION ( 'NONE',  ( 0.000000000000000000, -2.628368902995161532E-16, 1.000000000000000000 ) ) ;
#526 = DIRECTION ( 'NONE',  ( 1.548860246407863336E-16, -1.000000000000000000, 0.000000000000000000 ) ) ;
#527 = AXIS2_PLACEMENT_3D ( 'NONE', #976, #985, #810 ) ;
#528 = DIRECTION ( 'NONE',  ( 0.000000000000000000, 1.000000000000000000, 0.000000000000000000 ) ) ;
#529 = ORIENTED_EDGE ( 'NONE', *, *, #280, .F. ) ;
#530 = CIRCLE ( 'NONE', #398, 8.049999999999998934 ) ;
#531 = VERTEX_POINT ( 'NONE', #145 ) ;
#532 = FACE_OUTER_BOUND ( 'NONE', #906, .T. ) ;
#533 = DIRECTION ( 'NONE',  ( 1.000000000000000000, -7.138779736530069592E-17, -0.000000000000000000 ) ) ;
#534 = CARTESIAN_POINT ( 'NONE',  ( 8.400000000000000355, 0.000000000000000000, 34.29999999999999716 ) ) ;
#535 = ORIENTED_EDGE ( 'NONE', *, *, #1007, .F. ) ;
#536 = EDGE_CURVE ( 'NONE', #84, #128, #794, .T. ) ;
#537 = CARTESIAN_POINT ( 'NONE',  ( 17.00000000000000000, 3.000000000000000000, 39.29999999999999716 ) ) ;
#538 = EDGE_CURVE ( 'NONE', #645, #159, #275, .T. ) ;
#539 = DIRECTION ( 'NONE',  ( 1.000000000000000000, -7.138779736530069592E-17, 0.000000000000000000 ) ) ;
#540 = VERTEX_POINT ( 'NONE', #779 ) ;
#541 = CARTESIAN_POINT ( 'NONE',  ( 10.00000000000000000, 2.999999999999999112, 34.29999999999999716 ) ) ;
#542 = AXIS2_PLACEMENT_3D ( 'NONE', #803, #721, #639 ) ;
#543 = CARTESIAN_POINT ( 'NONE',  ( -46.29999999999999716, 7.900000000000000355, 27.94999999999999929 ) ) ;
#544 = AXIS2_PLACEMENT_3D ( 'NONE', #95, #1055, #267 ) ;
#545 = EDGE_LOOP ( 'NONE', ( #401, #85, #104, #287 ) ) ;
#546 = AXIS2_PLACEMENT_3D ( 'NONE', #232, #140, #222 ) ;
#547 = CARTESIAN_POINT ( 'NONE',  ( 8.400000000000005684, -46.29999999999999716, 15.00000000000000000 ) ) ;
#548 = DIRECTION ( 'NONE',  ( 1.000000000000000000, -7.138779736530069592E-17, -0.000000000000000000 ) ) ;
#549 = PRODUCT_RELATED_PRODUCT_CATEGORY ( 'part', '', ( #992 ) ) ;
#550 = EDGE_LOOP ( 'NONE', ( #613, #188, #247, #775, #72, #1042 ) ) ;
#551 = CYLINDRICAL_SURFACE ( 'NONE', #482, 1.599999999999998979 ) ;
#552 =( NAMED_UNIT ( * ) PLANE_ANGLE_UNIT ( ) SI_UNIT ( $, .RADIAN. ) );
#553 = LINE ( 'NONE', #960, #184 ) ;
#554 = ADVANCED_FACE ( 'NONE', ( #386 ), #627, .F. ) ;
#555 = ORIENTED_EDGE ( 'NONE', *, *, #919, .F. ) ;
#556 = DIRECTION ( 'NONE',  ( 1.548860246407863336E-16, -1.000000000000000000, 0.000000000000000000 ) ) ;
#557 = DIRECTION ( 'NONE',  ( 1.000000000000000000, -7.138779736530069592E-17, -0.000000000000000000 ) ) ;
#558 = ORIENTED_EDGE ( 'NONE', *, *, #157, .T. ) ;
#559 = CIRCLE ( 'NONE', #1001, 1.899999999999999023 ) ;
#560 = EDGE_LOOP ( 'NONE', ( #719, #424, #595, #640, #286, #798 ) ) ;
#561 = DIRECTION ( 'NONE',  ( 1.000000000000000000, 0.000000000000000000, 0.000000000000000000 ) ) ;
#562 = CIRCLE ( 'NONE', #1038, 1.600000000000000755 ) ;
#563 = CARTESIAN_POINT ( 'NONE',  ( 2.999999999999999556, 6.749999999999997335, 2.899999999999999911 ) ) ;
#564 = ORIENTED_EDGE ( 'NONE', *, *, #436, .F. ) ;
#565 = ORIENTED_EDGE ( 'NONE', *, *, #55, .F. ) ;
#566 = CYLINDRICAL_SURFACE ( 'NONE', #153, 0.8500000000000000888 ) ;
#567 = EDGE_CURVE ( 'NONE', #851, #116, #683, .T. ) ;
#568 = DIRECTION ( 'NONE',  ( 0.000000000000000000, 1.000000000000000000, 0.000000000000000000 ) ) ;
#569 = ORIENTED_EDGE ( 'NONE', *, *, #57, .T. ) ;
#570 = CARTESIAN_POINT ( 'NONE',  ( 17.00000000000000000, 0.000000000000000000, 49.29999999999999716 ) ) ;
#571 = DIRECTION ( 'NONE',  ( 1.000000000000000000, -7.138779736530069592E-17, 0.000000000000000000 ) ) ;
#572 = EDGE_CURVE ( 'NONE', #503, #480, #559, .T. ) ;
#573 = CIRCLE ( 'NONE', #628, 1.599999999999998979 ) ;
#574 = EDGE_LOOP ( 'NONE', ( #131, #822 ) ) ;
#575 = ORIENTED_EDGE ( 'NONE', *, *, #722, .T. ) ;
#576 = CARTESIAN_POINT ( 'NONE',  ( 2.999999999999999112, 2.999999999999997780, 49.29999999999999716 ) ) ;
#577 = VECTOR ( 'NONE', #730, 1000.000000000000000 ) ;
#578 = CARTESIAN_POINT ( 'NONE',  ( -3.730012412336961876E-16, 6.749999999999996447, 46.39999999999999858 ) ) ;
#579 = AXIS2_PLACEMENT_3D ( 'NONE', #443, #206, #525 ) ;
#580 = CARTESIAN_POINT ( 'NONE',  ( 7.000000000000007994, -46.29999999999999716, 0.000000000000000000 ) ) ;
#581 = EDGE_LOOP ( 'NONE', ( #460, #376, #514, #23 ) ) ;
#582 = CARTESIAN_POINT ( 'NONE',  ( 2.999999999999999112, 2.999999999999997780, 0.000000000000000000 ) ) ;
#583 = CARTESIAN_POINT ( 'NONE',  ( 9.280413657489091825E-16, 25.25000000000000000, 2.899999999999999911 ) ) ;
#584 = DIRECTION ( 'NONE',  ( 1.000000000000000000, -7.138779736530069592E-17, -0.000000000000000000 ) ) ;
#585 = VERTEX_POINT ( 'NONE', #403 ) ;
#586 = DIRECTION ( 'NONE',  ( -0.000000000000000000, -0.000000000000000000, -1.000000000000000000 ) ) ;
#587 = CARTESIAN_POINT ( 'NONE',  ( 6.999999999999999112, 0.000000000000000000, 49.29999999999999716 ) ) ;
#588 = FACE_BOUND ( 'NONE', #574, .T. ) ;
#589 = ORIENTED_EDGE ( 'NONE', *, *, #249, .T. ) ;
#590 = CARTESIAN_POINT ( 'NONE',  ( 17.00000000000000711, -46.29999999999999716, 0.000000000000000000 ) ) ;
#591 = EDGE_CURVE ( 'NONE', #259, #281, #813, .T. ) ;
#592 = CARTESIAN_POINT ( 'NONE',  ( 0.000000000000000000, 0.000000000000000000, 49.29999999999999716 ) ) ;
#593 = FACE_OUTER_BOUND ( 'NONE', #785, .T. ) ;
#594 = CIRCLE ( 'NONE', #617, 1.600000000000000755 ) ;
#595 = ORIENTED_EDGE ( 'NONE', *, *, #330, .F. ) ;
#596 = CARTESIAN_POINT ( 'NONE',  ( -46.29999999999999716, 23.20000000000000639, 11.40000000000000036 ) ) ;
#597 = EDGE_CURVE ( 'NONE', #139, #777, #857, .T. ) ;
#598 = FACE_OUTER_BOUND ( 'NONE', #432, .T. ) ;
#599 = LINE ( 'NONE', #517, #66 ) ;
#600 = UNCERTAINTY_MEASURE_WITH_UNIT (LENGTH_MEASURE( 1.000000000000000082E-05 ), #459, 'distance_accuracy_value', 'NONE');
#601 = VERTEX_POINT ( 'NONE', #720 ) ;
#602 = CARTESIAN_POINT ( 'NONE',  ( 2.999999999999999556, 5.049999999999998046, 46.39999999999999858 ) ) ;
#603 = CARTESIAN_POINT ( 'NONE',  ( 0.000000000000000000, 9.799999999999998934, 21.34999999999999787 ) ) ;
#604 = DIRECTION ( 'NONE',  ( -1.000000000000000000, -1.548860246407863336E-16, 0.000000000000000000 ) ) ;
#605 = CARTESIAN_POINT ( 'NONE',  ( 8.673617379884035472E-16, 24.40000000000000213, 46.39999999999999858 ) ) ;
#606 = EDGE_CURVE ( 'NONE', #334, #724, #240, .T. ) ;
#607 = VERTEX_POINT ( 'NONE', #537 ) ;
#608 = CARTESIAN_POINT ( 'NONE',  ( 3.121248153289410960E-16, 23.19999999999999929, 11.40000000000000036 ) ) ;
#609 = CIRCLE ( 'NONE', #148, 0.8500000000000000888 ) ;
#610 = CYLINDRICAL_SURFACE ( 'NONE', #983, 1.899999999999999023 ) ;
#611 = AXIS2_PLACEMENT_3D ( 'NONE', #218, #391, #1041 ) ;
#612 = CARTESIAN_POINT ( 'NONE',  ( 3.000000000000000888, 27.30000000000000071, 0.000000000000000000 ) ) ;
#613 = ORIENTED_EDGE ( 'NONE', *, *, #62, .F. ) ;
#614 = CIRCLE ( 'NONE', #631, 8.050000000000000711 ) ;
#615 = VECTOR ( 'NONE', #745, 1000.000000000000000 ) ;
#616 = EDGE_CURVE ( 'NONE', #480, #676, #638, .T. ) ;
#617 = AXIS2_PLACEMENT_3D ( 'NONE', #1013, #528, #268 ) ;
#618 = ORIENTED_EDGE ( 'NONE', *, *, #28, .T. ) ;
#619 = DIRECTION ( 'NONE',  ( -1.548860246407863336E-16, 1.000000000000000000, -0.000000000000000000 ) ) ;
#620 = DIRECTION ( 'NONE',  ( -1.000000000000000000, -2.710505431213763057E-16, 0.000000000000000000 ) ) ;
#621 = ORIENTED_EDGE ( 'NONE', *, *, #591, .F. ) ;
#622 = LINE ( 'NONE', #470, #953 ) ;
#623 = CARTESIAN_POINT ( 'NONE',  ( 0.000000000000000000, 0.000000000000000000, 0.000000000000000000 ) ) ;
#624 = DIRECTION ( 'NONE',  ( -1.000000000000000000, -1.548860246407863336E-16, 0.000000000000000000 ) ) ;
#625 = ORIENTED_EDGE ( 'NONE', *, *, #230, .T. ) ;
#626 = EDGE_CURVE ( 'NONE', #715, #733, #311, .T. ) ;
#627 = CYLINDRICAL_SURFACE ( 'NONE', #663, 0.8500000000000000888 ) ;
#628 = AXIS2_PLACEMENT_3D ( 'NONE', #987, #297, #620 ) ;
#629 = DIRECTION ( 'NONE',  ( -1.548860246407863336E-16, 1.000000000000000000, 0.000000000000000000 ) ) ;
#630 = VECTOR ( 'NONE', #1036, 1000.000000000000000 ) ;
#631 = AXIS2_PLACEMENT_3D ( 'NONE', #439, #674, #444 ) ;
#632 = ORIENTED_EDGE ( 'NONE', *, *, #975, .T. ) ;
#633 = VECTOR ( 'NONE', #474, 1000.000000000000000 ) ;
#634 = DIRECTION ( 'NONE',  ( -0.000000000000000000, -2.628368902995161532E-16, 1.000000000000000000 ) ) ;
#635 = LINE ( 'NONE', #70, #696 ) ;
#636 = ADVANCED_FACE ( 'NONE', ( #129 ), #462, .F. ) ;
#637 = ORIENTED_EDGE ( 'NONE', *, *, #894, .F. ) ;
#638 = LINE ( 'NONE', #473, #361 ) ;
#639 = DIRECTION ( 'NONE',  ( 7.138779736530070824E-17, 1.000000000000000000, 0.000000000000000000 ) ) ;
#640 = ORIENTED_EDGE ( 'NONE', *, *, #817, .T. ) ;
#641 = ORIENTED_EDGE ( 'NONE', *, *, #203, .F. ) ;
#642 = DIRECTION ( 'NONE',  ( -0.000000000000000000, -0.000000000000000000, -1.000000000000000000 ) ) ;
#643 = CARTESIAN_POINT ( 'NONE',  ( -4.943604967547074089E-16, 5.049999999999997158, 2.899999999999999911 ) ) ;
#644 = EDGE_CURVE ( 'NONE', #71, #645, #1022, .T. ) ;
#645 = VERTEX_POINT ( 'NONE', #786 ) ;
#646 = EDGE_CURVE ( 'NONE', #710, #237, #65, .T. ) ;
#647 = ADVANCED_FACE ( 'NONE', ( #341 ), #426, .F. ) ;
#648 = AXIS2_PLACEMENT_3D ( 'NONE', #48, #949, #381 ) ;
#649 = ORIENTED_EDGE ( 'NONE', *, *, #616, .T. ) ;
#650 = CARTESIAN_POINT ( 'NONE',  ( 3.000000000000000000, 9.799999999999998934, 21.34999999999999787 ) ) ;
#651 = CARTESIAN_POINT ( 'NONE',  ( 6.999999999999999112, 2.999999999999998224, 49.29999999999999716 ) ) ;
#652 = EDGE_LOOP ( 'NONE', ( #315, #968 ) ) ;
#653 = VERTEX_POINT ( 'NONE', #73 ) ;
#654 = CARTESIAN_POINT ( 'NONE',  ( 1.058510243289452425E-15, 27.30000000000000071, 49.29999999999999716 ) ) ;
#655 = CARTESIAN_POINT ( 'NONE',  ( 3.000000000000000000, 15.15000000000000036, 37.89999999999999858 ) ) ;
#656 = EDGE_LOOP ( 'NONE', ( #197, #1053, #202, #235 ) ) ;
#657 = CARTESIAN_POINT ( 'NONE',  ( 2.999999999999999556, 7.899999999999997691, 27.94999999999999929 ) ) ;
#658 = EDGE_CURVE ( 'NONE', #790, #778, #94, .T. ) ;
#659 = CARTESIAN_POINT ( 'NONE',  ( -3.121248153289410960E-16, 7.100000000000000533, 11.40000000000000213 ) ) ;
#660 = EDGE_CURVE ( 'NONE', #540, #715, #379, .T. ) ;
#661 = DIRECTION ( 'NONE',  ( 1.000000000000000000, -7.138779736530069592E-17, 0.000000000000000000 ) ) ;
#662 = DIRECTION ( 'NONE',  ( -0.000000000000000000, 0.000000000000000000, 1.000000000000000000 ) ) ;
#663 = AXIS2_PLACEMENT_3D ( 'NONE', #213, #316, #711 ) ;
#664 = DIRECTION ( 'NONE',  ( -1.000000000000000000, 0.000000000000000000, 0.000000000000000000 ) ) ;
#665 = AXIS2_PLACEMENT_3D ( 'NONE', #454, #279, #196 ) ;
#666 = PRODUCT_DEFINITION_SHAPE ( 'NONE', 'NONE',  #694 ) ;
#667 = FACE_OUTER_BOUND ( 'NONE', #385, .T. ) ;
#668 = ORIENTED_EDGE ( 'NONE', *, *, #536, .F. ) ;
#669 = DIRECTION ( 'NONE',  ( 1.000000000000000000, -3.877326898496162534E-17, 0.000000000000000000 ) ) ;
#670 = CARTESIAN_POINT ( 'NONE',  ( 8.066821102278979119E-16, 23.55000000000000071, 2.899999999999999911 ) ) ;
#671 = PLANE ( 'NONE',  #1052 ) ;
#672 = EDGE_LOOP ( 'NONE', ( #1039, #510, #966, #498 ) ) ;
#673 = CARTESIAN_POINT ( 'NONE',  ( 8.066821102278979119E-16, 23.55000000000000071, 46.39999999999999858 ) ) ;
#674 = DIRECTION ( 'NONE',  ( 1.000000000000000000, -3.877326898496162534E-17, 0.000000000000000000 ) ) ;
#675 = CARTESIAN_POINT ( 'NONE',  ( 17.00000000000000000, 3.000000000000000000, 0.000000000000000000 ) ) ;
#676 = VERTEX_POINT ( 'NONE', #809 ) ;
#677 = CARTESIAN_POINT ( 'NONE',  ( -46.29999999999999716, 9.800000000000002487, 21.34999999999999787 ) ) ;
#678 = CIRCLE ( 'NONE', #893, 10.00000000000000000 ) ;
#679 = ADVANCED_FACE ( 'NONE', ( #890 ), #819, .F. ) ;
#680 = CIRCLE ( 'NONE', #527, 1.600000000000000755 ) ;
#681 = DIRECTION ( 'NONE',  ( 1.000000000000000000, 0.000000000000000000, 0.000000000000000000 ) ) ;
#682 = DIRECTION ( 'NONE',  ( -1.548860246407863336E-16, 1.000000000000000000, 0.000000000000000000 ) ) ;
#683 = CIRCLE ( 'NONE', #648, 0.8499999999999992006 ) ;
#684 = ORIENTED_EDGE ( 'NONE', *, *, #894, .T. ) ;
#685 = DIRECTION ( 'NONE',  ( 3.877326898496163766E-17, 1.000000000000000000, 0.000000000000000000 ) ) ;
#686 = DIRECTION ( 'NONE',  ( 1.000000000000000000, -7.138779736530069592E-17, -0.000000000000000000 ) ) ;
#687 = FACE_BOUND ( 'NONE', #672, .T. ) ;
#688 = ORIENTED_EDGE ( 'NONE', *, *, #138, .F. ) ;
#689 = ORIENTED_EDGE ( 'NONE', *, *, #171, .T. ) ;
#690 = DIRECTION ( 'NONE',  ( -1.000000000000000000, 0.000000000000000000, 0.000000000000000000 ) ) ;
#691 = DIRECTION ( 'NONE',  ( 1.000000000000000000, -7.138779736530069592E-17, 0.000000000000000000 ) ) ;
#692 = CARTESIAN_POINT ( 'NONE',  ( 2.999999999999999112, 2.999999999999997780, 49.29999999999999716 ) ) ;
#693 = ORIENTED_EDGE ( 'NONE', *, *, #957, .T. ) ;
#694 = PRODUCT_DEFINITION ( 'UNKNOWN', '', #110, #834 ) ;
#695 = VERTEX_POINT ( 'NONE', #156 ) ;
#696 = VECTOR ( 'NONE', #404, 1000.000000000000000 ) ;
#697 = CYLINDRICAL_SURFACE ( 'NONE', #29, 1.600000000000000755 ) ;
#698 = APPLICATION_PROTOCOL_DEFINITION ( 'draft international standard', 'automotive_design', 1998, #871 ) ;
#699 = DIRECTION ( 'NONE',  ( 1.000000000000000000, -7.138779736530069592E-17, -0.000000000000000000 ) ) ;
#700 = AXIS2_PLACEMENT_3D ( 'NONE', #135, #390, #69 ) ;
#701 = VECTOR ( 'NONE', #690, 1000.000000000000000 ) ;
#702 = VERTEX_POINT ( 'NONE', #504 ) ;
#703 = DIRECTION ( 'NONE',  ( 1.000000000000000000, -7.138779736530069592E-17, -0.000000000000000000 ) ) ;
#704 = SURFACE_STYLE_FILL_AREA ( #1023 ) ;
#705 = DIRECTION ( 'NONE',  ( -0.000000000000000000, -0.000000000000000000, -1.000000000000000000 ) ) ;
#706 = EDGE_CURVE ( 'NONE', #204, #143, #899, .T. ) ;
#707 = ORIENTED_EDGE ( 'NONE', *, *, #318, .T. ) ;
#708 = DIRECTION ( 'NONE',  ( 3.877326898496163766E-17, 1.000000000000000000, 0.000000000000000000 ) ) ;
#709 = FACE_OUTER_BOUND ( 'NONE', #656, .T. ) ;
#710 = VERTEX_POINT ( 'NONE', #806 ) ;
#711 = DIRECTION ( 'NONE',  ( 7.138779736530070824E-17, 1.000000000000000000, 0.000000000000000000 ) ) ;
#712 = EDGE_CURVE ( 'NONE', #531, #276, #117, .T. ) ;
#713 = VECTOR ( 'NONE', #548, 1000.000000000000000 ) ;
#714 = CARTESIAN_POINT ( 'NONE',  ( 8.400000000000007461, -46.29999999999999716, 34.29999999999999716 ) ) ;
#715 = VERTEX_POINT ( 'NONE', #650 ) ;
#716 = FACE_OUTER_BOUND ( 'NONE', #545, .T. ) ;
#717 = CARTESIAN_POINT ( 'NONE',  ( 2.999999999999999556, 6.749999999999996447, 46.39999999999999858 ) ) ;
#718 = EDGE_LOOP ( 'NONE', ( #373, #193, #575, #816, #461, #641 ) ) ;
#719 = ORIENTED_EDGE ( 'NONE', *, *, #171, .F. ) ;
#720 = CARTESIAN_POINT ( 'NONE',  ( -4.943604967547073103E-16, 5.049999999999998046, 46.39999999999999858 ) ) ;
#721 = DIRECTION ( 'NONE',  ( 1.000000000000000000, -7.138779736530069592E-17, 0.000000000000000000 ) ) ;
#722 = EDGE_CURVE ( 'NONE', #607, #177, #244, .T. ) ;
#723 = ADVANCED_FACE ( 'NONE', ( #90 ), #725, .F. ) ;
#724 = VERTEX_POINT ( 'NONE', #419 ) ;
#725 = PLANE ( 'NONE',  #797 ) ;
#726 = CARTESIAN_POINT ( 'NONE',  ( -4.336808689942017736E-16, 5.899999999999997691, 2.899999999999999911 ) ) ;
#727 = VECTOR ( 'NONE', #229, 1000.000000000000000 ) ;
#728 = ORIENTED_EDGE ( 'NONE', *, *, #972, .T. ) ;
#729 = EDGE_LOOP ( 'NONE', ( #442, #37, #689, #977 ) ) ;
#730 = DIRECTION ( 'NONE',  ( 1.000000000000000000, -7.138779736530069592E-17, -0.000000000000000000 ) ) ;
#731 = VECTOR ( 'NONE', #586, 1000.000000000000000 ) ;
#732 = CYLINDRICAL_SURFACE ( 'NONE', #998, 0.8500000000000000888 ) ;
#733 = VERTEX_POINT ( 'NONE', #173 ) ;
#734 = ADVANCED_FACE ( 'NONE', ( #963 ), #566, .F. ) ;
#735 = CARTESIAN_POINT ( 'NONE',  ( 10.00000000000000000, 2.999999999999999112, 15.00000000000000000 ) ) ;
#736 = DIRECTION ( 'NONE',  ( 1.000000000000000000, -3.877326898496162534E-17, 0.000000000000000000 ) ) ;
#737 = VERTEX_POINT ( 'NONE', #582 ) ;
#738 = FACE_OUTER_BOUND ( 'NONE', #560, .T. ) ;
#739 = EDGE_CURVE ( 'NONE', #778, #762, #178, .T. ) ;
#740 = LINE ( 'NONE', #820, #878 ) ;
#741 = ORIENTED_EDGE ( 'NONE', *, *, #176, .F. ) ;
#742 = CIRCLE ( 'NONE', #497, 1.599999999999997202 ) ;
#743 = ORIENTED_EDGE ( 'NONE', *, *, #76, .F. ) ;
#744 = VECTOR ( 'NONE', #190, 1000.000000000000000 ) ;
#745 = DIRECTION ( 'NONE',  ( -1.000000000000000000, 0.000000000000000000, 0.000000000000000000 ) ) ;
#746 = CIRCLE ( 'NONE', #49, 1.600000000000000755 ) ;
#747 = FACE_OUTER_BOUND ( 'NONE', #793, .T. ) ;
#748 = CIRCLE ( 'NONE', #295, 10.00000000000000000 ) ;
#749 = FACE_BOUND ( 'NONE', #1021, .T. ) ;
#750 = ORIENTED_EDGE ( 'NONE', *, *, #371, .T. ) ;
#751 = CARTESIAN_POINT ( 'NONE',  ( 2.999999999999999112, 2.999999999999997780, 49.29999999999999716 ) ) ;
#752 = DIRECTION ( 'NONE',  ( 0.000000000000000000, 2.628368902995161532E-16, -1.000000000000000000 ) ) ;
#753 = CARTESIAN_POINT ( 'NONE',  ( 1.058510243289452425E-15, 27.30000000000000071, 49.29999999999999716 ) ) ;
#754 = EDGE_CURVE ( 'NONE', #777, #128, #746, .T. ) ;
#755 = VERTEX_POINT ( 'NONE', #508 ) ;
#756 = FACE_OUTER_BOUND ( 'NONE', #581, .T. ) ;
#757 =( GEOMETRIC_REPRESENTATION_CONTEXT ( 3 ) GLOBAL_UNCERTAINTY_ASSIGNED_CONTEXT ( ( #600 ) ) GLOBAL_UNIT_ASSIGNED_CONTEXT ( ( #459, #313, #1035 ) ) REPRESENTATION_CONTEXT ( 'NONE', 'WORKASPACE' ) );
#758 = LINE ( 'NONE', #102, #499 ) ;
#759 = FACE_BOUND ( 'NONE', #978, .T. ) ;
#760 = ADVANCED_FACE ( 'NONE', ( #422, #823, #738 ), #974, .F. ) ;
#761 = VECTOR ( 'NONE', #64, 1000.000000000000000 ) ;
#762 = VERTEX_POINT ( 'NONE', #654 ) ;
#763 = CARTESIAN_POINT ( 'NONE',  ( 2.999999999999999112, 5.999999999999998224, 27.94999999999999929 ) ) ;
#764 = DIRECTION ( 'NONE',  ( 7.138779736530070824E-17, 1.000000000000000000, 0.000000000000000000 ) ) ;
#765 = AXIS2_PLACEMENT_3D ( 'NONE', #959, #703, #875 ) ;
#766 = PLANE ( 'NONE',  #799 ) ;
#767 = PRESENTATION_LAYER_ASSIGNMENT (  '', '', ( #169 ) ) ;
#768 = ORIENTED_EDGE ( 'NONE', *, *, #257, .T. ) ;
#769 = ORIENTED_EDGE ( 'NONE', *, *, #417, .T. ) ;
#770 = DIRECTION ( 'NONE',  ( 1.000000000000000000, -3.877326898496162534E-17, 0.000000000000000000 ) ) ;
#771 = EDGE_CURVE ( 'NONE', #733, #873, #119, .T. ) ;
#772 = CARTESIAN_POINT ( 'NONE',  ( 8.673617379884035472E-16, 24.40000000000000213, 2.899999999999999911 ) ) ;
#773 = FACE_OUTER_BOUND ( 'NONE', #718, .T. ) ;
#774 = CYLINDRICAL_SURFACE ( 'NONE', #410, 8.050000000000000711 ) ;
#775 = ORIENTED_EDGE ( 'NONE', *, *, #109, .F. ) ;
#776 = LINE ( 'NONE', #516, #744 ) ;
#777 = VERTEX_POINT ( 'NONE', #994 ) ;
#778 = VERTEX_POINT ( 'NONE', #363 ) ;
#779 = CARTESIAN_POINT ( 'NONE',  ( 2.999999999999999556, 6.000000000000000888, 21.34999999999999787 ) ) ;
#780 = SURFACE_STYLE_USAGE ( .BOTH. , #946 ) ;
#781 = DIRECTION ( 'NONE',  ( 1.000000000000000000, -7.138779736530069592E-17, -0.000000000000000000 ) ) ;
#782 = CIRCLE ( 'NONE', #186, 0.8500000000000000888 ) ;
#783 = CIRCLE ( 'NONE', #468, 8.049999999999998934 ) ;
#784 = VECTOR ( 'NONE', #101, 1000.000000000000000 ) ;
#785 = EDGE_LOOP ( 'NONE', ( #826, #804, #416, #92 ) ) ;
#786 = CARTESIAN_POINT ( 'NONE',  ( 2.999999999999999556, 5.049999999999997158, 2.899999999999999911 ) ) ;
#787 = LINE ( 'NONE', #152, #892 ) ;
#788 = ADVANCED_FACE ( 'NONE', ( #199 ), #277, .F. ) ;
#789 = EDGE_CURVE ( 'NONE', #265, #801, #484, .T. ) ;
#790 = VERTEX_POINT ( 'NONE', #751 ) ;
#791 = CARTESIAN_POINT ( 'NONE',  ( -4.336808689942017736E-16, 5.899999999999997691, 46.39999999999999858 ) ) ;
#792 = DIRECTION ( 'NONE',  ( -1.548860246407863336E-16, 1.000000000000000000, -0.000000000000000000 ) ) ;
#793 = EDGE_LOOP ( 'NONE', ( #668, #535, #507, #261 ) ) ;
#794 = LINE ( 'NONE', #802, #98 ) ;
#795 = LINE ( 'NONE', #714, #1015 ) ;
#796 = AXIS2_PLACEMENT_3D ( 'NONE', #918, #909, #195 ) ;
#797 = AXIS2_PLACEMENT_3D ( 'NONE', #969, #1046, #86 ) ;
#798 = ORIENTED_EDGE ( 'NONE', *, *, #260, .T. ) ;
#799 = AXIS2_PLACEMENT_3D ( 'NONE', #209, #274, #192 ) ;
#801 = VERTEX_POINT ( 'NONE', #608 ) ;
#800 = ADVANCED_FACE ( 'NONE', ( #853 ), #989, .F. ) ;
#802 = CARTESIAN_POINT ( 'NONE',  ( 11.60000000000000853, -46.29999999999999716, 15.00000000000000000 ) ) ;
#803 = CARTESIAN_POINT ( 'NONE',  ( 8.673617379884035472E-16, 24.40000000000000213, 2.899999999999999911 ) ) ;
#804 = ORIENTED_EDGE ( 'NONE', *, *, #157, .F. ) ;
#805 = ORIENTED_EDGE ( 'NONE', *, *, #712, .F. ) ;
#806 = CARTESIAN_POINT ( 'NONE',  ( 17.00000000000000000, 0.000000000000000000, 39.29999999999999716 ) ) ;
#807 = CARTESIAN_POINT ( 'NONE',  ( 0.000000000000000000, 15.15000000000000036, 37.89999999999999858 ) ) ;
#808 = ORIENTED_EDGE ( 'NONE', *, *, #944, .F. ) ;
#809 = CARTESIAN_POINT ( 'NONE',  ( 2.326396139097697151E-16, 5.999999999999998224, 21.34999999999999787 ) ) ;
#810 = DIRECTION ( 'NONE',  ( -1.000000000000000000, -2.710505431213759606E-16, 0.000000000000000000 ) ) ;
#811 = ADVANCED_FACE ( 'NONE', ( #756 ), #999, .F. ) ;
#812 = ORIENTED_EDGE ( 'NONE', *, *, #337, .F. ) ;
#813 = CIRCLE ( 'NONE', #546, 0.8500000000000000888 ) ;
#814 = CARTESIAN_POINT ( 'NONE',  ( 3.000000000000000888, 24.40000000000000213, 46.39999999999999858 ) ) ;
#815 = LINE ( 'NONE', #670, #932 ) ;
#816 = ORIENTED_EDGE ( 'NONE', *, *, #945, .F. ) ;
#817 = EDGE_CURVE ( 'NONE', #702, #242, #924, .T. ) ;
#818 = ORIENTED_EDGE ( 'NONE', *, *, #318, .F. ) ;
#819 = PLANE ( 'NONE',  #1037 ) ;
#820 = CARTESIAN_POINT ( 'NONE',  ( 0.000000000000000000, 0.000000000000000000, 49.29999999999999716 ) ) ;
#821 = ORIENTED_EDGE ( 'NONE', *, *, #223, .T. ) ;
#822 = ORIENTED_EDGE ( 'NONE', *, *, #8, .F. ) ;
#823 = FACE_BOUND ( 'NONE', #993, .T. ) ;
#824 = DIRECTION ( 'NONE',  ( 0.000000000000000000, 1.000000000000000000, 0.000000000000000000 ) ) ;
#825 = LINE ( 'NONE', #440, #831 ) ;
#826 = ORIENTED_EDGE ( 'NONE', *, *, #77, .T. ) ;
#827 = CARTESIAN_POINT ( 'NONE',  ( 3.000000000000000888, 27.30000000000000071, 0.000000000000000000 ) ) ;
#828 = VECTOR ( 'NONE', #861, 1000.000000000000000 ) ;
#829 = EDGE_CURVE ( 'NONE', #480, #873, #112, .T. ) ;
#830 = DIRECTION ( 'NONE',  ( 1.000000000000000000, -7.138779736530069592E-17, 0.000000000000000000 ) ) ;
#831 = VECTOR ( 'NONE', #97, 1000.000000000000000 ) ;
#832 = ADVANCED_FACE ( 'NONE', ( #532 ), #282, .F. ) ;
#833 = FACE_BOUND ( 'NONE', #843, .T. ) ;
#834 = PRODUCT_DEFINITION_CONTEXT ( 'detailed design', #871, 'design' ) ;
#835 = VERTEX_POINT ( 'NONE', #345 ) ;
#836 = CARTESIAN_POINT ( 'NONE',  ( 0.000000000000000000, 7.900000000000000355, 21.34999999999999787 ) ) ;
#837 = DIRECTION ( 'NONE',  ( 1.000000000000000000, -7.138779736530069592E-17, -0.000000000000000000 ) ) ;
#838 = DIRECTION ( 'NONE',  ( -7.138779736530069592E-17, -1.000000000000000000, 0.000000000000000000 ) ) ;
#839 = ORIENTED_EDGE ( 'NONE', *, *, #371, .F. ) ;
#840 = CARTESIAN_POINT ( 'NONE',  ( 0.000000000000000000, 0.000000000000000000, 49.29999999999999716 ) ) ;
#841 = DIRECTION ( 'NONE',  ( 1.000000000000000000, -7.138779736530069592E-17, 0.000000000000000000 ) ) ;
#842 = DIRECTION ( 'NONE',  ( 0.000000000000000000, 0.000000000000000000, 1.000000000000000000 ) ) ;
#843 = EDGE_LOOP ( 'NONE', ( #856, #409 ) ) ;
#844 = EDGE_CURVE ( 'NONE', #676, #455, #914, .T. ) ;
#845 = ORIENTED_EDGE ( 'NONE', *, *, #236, .F. ) ;
#846 = DIRECTION ( 'NONE',  ( 3.877326898496163150E-17, 1.000000000000000000, 0.000000000000000000 ) ) ;
#847 = AXIS2_PLACEMENT_3D ( 'NONE', #300, #781, #485 ) ;
#848 = CARTESIAN_POINT ( 'NONE',  ( -4.336808689942017736E-16, 5.899999999999997691, 46.39999999999999858 ) ) ;
#849 = CARTESIAN_POINT ( 'NONE',  ( 8.066821102278979119E-16, 23.55000000000000071, 2.899999999999999911 ) ) ;
#850 = VECTOR ( 'NONE', #266, 1000.000000000000000 ) ;
#851 = VERTEX_POINT ( 'NONE', #602 ) ;
#852 = ORIENTED_EDGE ( 'NONE', *, *, #230, .F. ) ;
#853 = FACE_OUTER_BOUND ( 'NONE', #11, .T. ) ;
#854 = DIRECTION ( 'NONE',  ( 0.000000000000000000, 1.000000000000000000, 0.000000000000000000 ) ) ;
#855 = ORIENTED_EDGE ( 'NONE', *, *, #465, .T. ) ;
#856 = ORIENTED_EDGE ( 'NONE', *, *, #28, .F. ) ;
#857 = LINE ( 'NONE', #547, #83 ) ;
#858 =( LENGTH_UNIT ( ) NAMED_UNIT ( * ) SI_UNIT ( .MILLI., .METRE. ) );
#859 = CARTESIAN_POINT ( 'NONE',  ( 2.999999999999999556, 5.899999999999997691, 2.899999999999999911 ) ) ;
#860 = ORIENTED_EDGE ( 'NONE', *, *, #606, .T. ) ;
#861 = DIRECTION ( 'NONE',  ( 1.000000000000000000, -7.138779736530069592E-17, -0.000000000000000000 ) ) ;
#862 = CIRCLE ( 'NONE', #307, 0.8500000000000000888 ) ;
#863 = CARTESIAN_POINT ( 'NONE',  ( 3.000000000000000444, 23.20000000000000284, 37.89999999999999858 ) ) ;
#864 = AXIS2_PLACEMENT_3D ( 'NONE', #726, #1047, #327 ) ;
#865 = EDGE_CURVE ( 'NONE', #455, #715, #118, .T. ) ;
#866 = ORIENTED_EDGE ( 'NONE', *, *, #330, .T. ) ;
#867 = DIRECTION ( 'NONE',  ( -1.000000000000000000, -2.710505431213763057E-16, 0.000000000000000000 ) ) ;
#868 = CYLINDRICAL_SURFACE ( 'NONE', #847, 0.8500000000000000888 ) ;
#869 = ORIENTED_EDGE ( 'NONE', *, *, #865, .T. ) ;
#870 = DIRECTION ( 'NONE',  ( 1.019104544675399041E-32, 2.628368902995161532E-16, -1.000000000000000000 ) ) ;
#871 = APPLICATION_CONTEXT ( 'automotive_design' ) ;
#872 = LINE ( 'NONE', #146, #392 ) ;
#873 = VERTEX_POINT ( 'NONE', #763 ) ;
#874 = EDGE_CURVE ( 'NONE', #930, #835, #530, .T. ) ;
#875 = DIRECTION ( 'NONE',  ( 0.000000000000000000, 1.000000000000000000, 0.000000000000000000 ) ) ;
#876 = VECTOR ( 'NONE', #964, 1000.000000000000000 ) ;
#877 = LINE ( 'NONE', #314, #761 ) ;
#878 = VECTOR ( 'NONE', #408, 1000.000000000000000 ) ;
#879 = VERTEX_POINT ( 'NONE', #24 ) ;
#880 = AXIS2_PLACEMENT_3D ( 'NONE', #7, #492, #80 ) ;
#881 = ORIENTED_EDGE ( 'NONE', *, *, #567, .T. ) ;
#882 = DIRECTION ( 'NONE',  ( 1.000000000000000000, -7.138779736530069592E-17, 0.000000000000000000 ) ) ;
#883 = CARTESIAN_POINT ( 'NONE',  ( 11.60000000000000142, 2.999999999999999556, 15.00000000000000000 ) ) ;
#884 = ORIENTED_EDGE ( 'NONE', *, *, #646, .F. ) ;
#885 = ORIENTED_EDGE ( 'NONE', *, *, #706, .F. ) ;
#886 = DIRECTION ( 'NONE',  ( 0.000000000000000000, 1.000000000000000000, 0.000000000000000000 ) ) ;
#887 = DIRECTION ( 'NONE',  ( 0.000000000000000000, 1.000000000000000000, 0.000000000000000000 ) ) ;
#888 =( GEOMETRIC_REPRESENTATION_CONTEXT ( 3 ) GLOBAL_UNCERTAINTY_ASSIGNED_CONTEXT ( ( #211 ) ) GLOBAL_UNIT_ASSIGNED_CONTEXT ( ( #858, #552, #130 ) ) REPRESENTATION_CONTEXT ( 'NONE', 'WORKASPACE' ) );
#889 = ORIENTED_EDGE ( 'NONE', *, *, #284, .T. ) ;
#890 = FACE_OUTER_BOUND ( 'NONE', #550, .T. ) ;
#891 = CARTESIAN_POINT ( 'NONE',  ( 17.00000000000000000, 0.000000000000000000, 0.000000000000000000 ) ) ;
#892 = VECTOR ( 'NONE', #51, 1000.000000000000000 ) ;
#893 = AXIS2_PLACEMENT_3D ( 'NONE', #891, #900, #245 ) ;
#894 = EDGE_CURVE ( 'NONE', #801, #265, #13, .T. ) ;
#895 = ORIENTED_EDGE ( 'NONE', *, *, #523, .T. ) ;
#896 = VECTOR ( 'NONE', #407, 1000.000000000000000 ) ;
#897 = CIRCLE ( 'NONE', #469, 1.599999999999997202 ) ;
#898 = VERTEX_POINT ( 'NONE', #182 ) ;
#899 = LINE ( 'NONE', #164, #577 ) ;
#900 = DIRECTION ( 'NONE',  ( 0.000000000000000000, 1.000000000000000000, 0.000000000000000000 ) ) ;
#901 = EDGE_CURVE ( 'NONE', #1009, #425, #369, .T. ) ;
#902 = DIRECTION ( 'NONE',  ( 1.548860246407863336E-16, -1.000000000000000000, 0.000000000000000000 ) ) ;
#903 = EDGE_LOOP ( 'NONE', ( #367, #728, #477, #421, #895, #866 ) ) ;
#904 = CARTESIAN_POINT ( 'NONE',  ( 2.999999999999999556, 7.900000000000000355, 21.34999999999999787 ) ) ;
#905 = FACE_OUTER_BOUND ( 'NONE', #923, .T. ) ;
#906 = EDGE_LOOP ( 'NONE', ( #227, #565, #163, #688 ) ) ;
#907 = CARTESIAN_POINT ( 'NONE',  ( 0.000000000000000000, 15.15000000000000036, 11.40000000000000036 ) ) ;
#908 = EDGE_CURVE ( 'NONE', #755, #276, #511, .T. ) ;
#909 = DIRECTION ( 'NONE',  ( 1.000000000000000000, -7.138779736530069592E-17, 0.000000000000000000 ) ) ;
#910 = DIRECTION ( 'NONE',  ( 1.548860246407863336E-16, -1.000000000000000000, 0.000000000000000000 ) ) ;
#911 = ORIENTED_EDGE ( 'NONE', *, *, #874, .F. ) ;
#912 = DIRECTION ( 'NONE',  ( -1.548860246407863336E-16, 1.000000000000000000, -0.000000000000000000 ) ) ;
#913 = CARTESIAN_POINT ( 'NONE',  ( -46.29999999999999716, 7.900000000000003908, 21.34999999999999787 ) ) ;
#914 = CIRCLE ( 'NONE', #258, 1.899999999999999023 ) ;
#915 = CARTESIAN_POINT ( 'NONE',  ( 2.999999999999999556, 7.100000000000000533, 11.40000000000000213 ) ) ;
#916 = ORIENTED_EDGE ( 'NONE', *, *, #109, .T. ) ;
#917 = FACE_BOUND ( 'NONE', #652, .T. ) ;
#918 = CARTESIAN_POINT ( 'NONE',  ( 8.673617379884035472E-16, 24.40000000000000213, 46.39999999999999858 ) ) ;
#919 = EDGE_CURVE ( 'NONE', #801, #835, #433, .T. ) ;
#920 = LINE ( 'NONE', #121, #99 ) ;
#921 = ORIENTED_EDGE ( 'NONE', *, *, #919, .T. ) ;
#922 = EDGE_CURVE ( 'NONE', #585, #18, #897, .T. ) ;
#923 = EDGE_LOOP ( 'NONE', ( #1004, #329, #172, #555 ) ) ;
#924 = LINE ( 'NONE', #840, #731 ) ;
#925 = LINE ( 'NONE', #200, #952 ) ;
#926 = FACE_BOUND ( 'NONE', #456, .T. ) ;
#927 = ORIENTED_EDGE ( 'NONE', *, *, #536, .T. ) ;
#928 = ADVANCED_FACE ( 'NONE', ( #917, #588, #773 ), #991, .F. ) ;
#929 = CLOSED_SHELL ( 'NONE', ( #734, #554, #494, #144, #272, #271, #396, #476, #1020, #760, #723, #928, #1000, #962, #400, #679, #800, #234, #3, #636, #75, #788, #452, #811, #832, #384, #647, #986, #348, #22 ) ) ;
#930 = VERTEX_POINT ( 'NONE', #915 ) ;
#931 = DIRECTION ( 'NONE',  ( -1.000000000000000000, 0.000000000000000000, 0.000000000000000000 ) ) ;
#932 = VECTOR ( 'NONE', #420, 1000.000000000000000 ) ;
#933 = CIRCLE ( 'NONE', #151, 0.8500000000000000888 ) ;
#934 = CARTESIAN_POINT ( 'NONE',  ( -4.943604967547074089E-16, 5.049999999999998046, 46.39999999999999858 ) ) ;
#935 = FACE_BOUND ( 'NONE', #215, .T. ) ;
#936 = AXIS2_PLACEMENT_3D ( 'NONE', #107, #910, #35 ) ;
#937 = ORIENTED_EDGE ( 'NONE', *, *, #176, .T. ) ;
#938 = VERTEX_POINT ( 'NONE', #849 ) ;
#939 = CARTESIAN_POINT ( 'NONE',  ( 0.000000000000000000, 7.899999999999997691, 27.94999999999999929 ) ) ;
#940 = EDGE_LOOP ( 'NONE', ( #490, #911 ) ) ;
#941 = ORIENTED_EDGE ( 'NONE', *, *, #942, .T. ) ;
#942 = EDGE_CURVE ( 'NONE', #676, #540, #26, .T. ) ;
#943 = DIRECTION ( 'NONE',  ( 1.000000000000000000, -7.138779736530069592E-17, -0.000000000000000000 ) ) ;
#944 = EDGE_CURVE ( 'NONE', #320, #116, #825, .T. ) ;
#945 = EDGE_CURVE ( 'NONE', #68, #177, #748, .T. ) ;
#946 = SURFACE_SIDE_STYLE ('',( #704 ) ) ;
#947 = CARTESIAN_POINT ( 'NONE',  ( 17.00000000000000000, -46.29999999999999716, 10.00000000000000000 ) ) ;
#948 = ORIENTED_EDGE ( 'NONE', *, *, #57, .F. ) ;
#949 = DIRECTION ( 'NONE',  ( 1.000000000000000000, -7.138779736530069592E-17, 0.000000000000000000 ) ) ;
#950 = DIRECTION ( 'NONE',  ( 0.000000000000000000, 0.000000000000000000, 1.000000000000000000 ) ) ;
#951 = DIRECTION ( 'NONE',  ( -1.000000000000000000, -1.734723475976806848E-16, 0.000000000000000000 ) ) ;
#952 = VECTOR ( 'NONE', #526, 1000.000000000000000 ) ;
#953 = VECTOR ( 'NONE', #228, 1000.000000000000000 ) ;
#954 = EDGE_LOOP ( 'NONE', ( #518, #487, #881, #808 ) ) ;
#955 = CYLINDRICAL_SURFACE ( 'NONE', #168, 0.8499999999999992006 ) ;
#956 = LINE ( 'NONE', #464, #325 ) ;
#957 = EDGE_CURVE ( 'NONE', #84, #139, #562, .T. ) ;
#958 = ORIENTED_EDGE ( 'NONE', *, *, #337, .T. ) ;
#959 = CARTESIAN_POINT ( 'NONE',  ( -46.29999999999999716, 15.15000000000000391, 37.89999999999999858 ) ) ;
#960 = CARTESIAN_POINT ( 'NONE',  ( 17.00000000000000000, 3.000000000000000000, 0.000000000000000000 ) ) ;
#961 = ORIENTED_EDGE ( 'NONE', *, *, #957, .F. ) ;
#962 = ADVANCED_FACE ( 'NONE', ( #185 ), #766, .F. ) ;
#963 = FACE_OUTER_BOUND ( 'NONE', #997, .T. ) ;
#964 = DIRECTION ( 'NONE',  ( -3.877326898496162534E-17, -1.000000000000000000, 0.000000000000000000 ) ) ;
#965 = AXIS2_PLACEMENT_3D ( 'NONE', #570, #321, #1054 ) ;
#966 = ORIENTED_EDGE ( 'NONE', *, *, #626, .F. ) ;
#967 = VECTOR ( 'NONE', #519, 1000.000000000000000 ) ;
#968 = ORIENTED_EDGE ( 'NONE', *, *, #249, .F. ) ;
#969 = CARTESIAN_POINT ( 'NONE',  ( 17.00000000000000000, 0.000000000000000000, 49.29999999999999716 ) ) ;
#970 = FACE_OUTER_BOUND ( 'NONE', #198, .T. ) ;
#971 = ORIENTED_EDGE ( 'NONE', *, *, #364, .T. ) ;
#973 = ORIENTED_EDGE ( 'NONE', *, *, #572, .F. ) ;
#972 = EDGE_CURVE ( 'NONE', #344, #790, #920, .T. ) ;
#974 = PLANE ( 'NONE',  #880 ) ;
#975 = EDGE_CURVE ( 'NONE', #455, #503, #599, .T. ) ;
#976 = CARTESIAN_POINT ( 'NONE',  ( 10.00000000000000000, 2.999999999999999112, 15.00000000000000000 ) ) ;
#977 = ORIENTED_EDGE ( 'NONE', *, *, #138, .T. ) ;
#978 = EDGE_LOOP ( 'NONE', ( #569, #210 ) ) ;
#979 = CARTESIAN_POINT ( 'NONE',  ( -4.336808689942017736E-16, 5.899999999999997691, 2.899999999999999911 ) ) ;
#980 = FACE_OUTER_BOUND ( 'NONE', #491, .T. ) ;
#981 = VECTOR ( 'NONE', #509, 1000.000000000000000 ) ;
#982 = LINE ( 'NONE', #580, #132 ) ;
#983 = AXIS2_PLACEMENT_3D ( 'NONE', #913, #453, #365 ) ;
#984 = CARTESIAN_POINT ( 'NONE',  ( 0.000000000000000000, 0.000000000000000000, 0.000000000000000000 ) ) ;
#985 = DIRECTION ( 'NONE',  ( -1.548860246407863336E-16, 1.000000000000000000, 0.000000000000000000 ) ) ;
#986 = ADVANCED_FACE ( 'NONE', ( #40 ), #366, .F. ) ;
#987 = CARTESIAN_POINT ( 'NONE',  ( 10.00000000000000000, 2.999999999999999112, 34.29999999999999716 ) ) ;
#988 = ORIENTED_EDGE ( 'NONE', *, *, #303, .T. ) ;
#989 = CYLINDRICAL_SURFACE ( 'NONE', #431, 1.599999999999998979 ) ;
#990 = DIRECTION ( 'NONE',  ( 1.000000000000000000, -7.138779736530069592E-17, 0.000000000000000000 ) ) ;
#991 = PLANE ( 'NONE',  #936 ) ;
#992 = PRODUCT ( 'Team A4 ultrasonic', 'Team A4 ultrasonic', '', ( #224 ) ) ;
#993 = EDGE_LOOP ( 'NONE', ( #252, #1014 ) ) ;
#994 = CARTESIAN_POINT ( 'NONE',  ( 8.400000000000000355, 2.999999999999998668, 15.00000000000000000 ) ) ;
#995 = DIRECTION ( 'NONE',  ( 5.387339987505612864E-17, 1.000000000000000000, 0.000000000000000000 ) ) ;
#996 = FACE_BOUND ( 'NONE', #291, .T. ) ;
#997 = EDGE_LOOP ( 'NONE', ( #1029, #122, #750, #472 ) ) ;
#998 = AXIS2_PLACEMENT_3D ( 'NONE', #772, #837, #113 ) ;
#999 = PLANE ( 'NONE',  #328 ) ;
#1000 = ADVANCED_FACE ( 'NONE', ( #290, #513, #833, #347, #687, #926, #201, #593 ), #671, .F. ) ;
#1001 = AXIS2_PLACEMENT_3D ( 'NONE', #939, #216, #708 ) ;
#1002 = DIRECTION ( 'NONE',  ( -1.548860246407863336E-16, 1.000000000000000000, -0.000000000000000000 ) ) ;
#1003 = CARTESIAN_POINT ( 'NONE',  ( -46.29999999999999716, 6.000000000000004441, 21.34999999999999787 ) ) ;
#1004 = ORIENTED_EDGE ( 'NONE', *, *, #789, .F. ) ;
#1005 = CARTESIAN_POINT ( 'NONE',  ( -46.29999999999999716, 6.000000000000001776, 27.94999999999999929 ) ) ;
#1006 = CARTESIAN_POINT ( 'NONE',  ( 8.673617379884035472E-16, 24.40000000000000213, 2.899999999999999911 ) ) ;
#1007 = EDGE_CURVE ( 'NONE', #139, #84, #594, .T. ) ;
#1008 = DIRECTION ( 'NONE',  ( -1.000000000000000000, 7.138779736530069592E-17, 0.000000000000000000 ) ) ;
#1009 = VERTEX_POINT ( 'NONE', #612 ) ;
#1010 = ORIENTED_EDGE ( 'NONE', *, *, #844, .T. ) ;
#1011 = CARTESIAN_POINT ( 'NONE',  ( 10.00000000000000711, -46.29999999999999716, 34.29999999999999716 ) ) ;
#1012 = PLANE ( 'NONE',  #309 ) ;
#1013 = CARTESIAN_POINT ( 'NONE',  ( 10.00000000000000000, 0.000000000000000000, 15.00000000000000000 ) ) ;
#1014 = ORIENTED_EDGE ( 'NONE', *, *, #922, .T. ) ;
#1015 = VECTOR ( 'NONE', #792, 1000.000000000000000 ) ;
#1016 = ORIENTED_EDGE ( 'NONE', *, *, #108, .F. ) ;
#1017 = FACE_OUTER_BOUND ( 'NONE', #903, .T. ) ;
#1018 = AXIS2_PLACEMENT_3D ( 'NONE', #848, #691, #208 ) ;
#1019 = DIRECTION ( 'NONE',  ( 0.000000000000000000, 1.000000000000000000, 0.000000000000000000 ) ) ;
#1020 = ADVANCED_FACE ( 'NONE', ( #935, #759, #996, #103, #521, #430, #749, #17 ), #435, .F. ) ;
#1021 = EDGE_LOOP ( 'NONE', ( #684, #78 ) ) ;
#1022 = LINE ( 'NONE', #299, #828 ) ;
#1023 = FILL_AREA_STYLE ('',( #304 ) ) ;
#1024 = LINE ( 'NONE', #388, #876 ) ;
#1025 = EDGE_LOOP ( 'NONE', ( #941, #1045, #362, #467 ) ) ;
#1026 = DIRECTION ( 'NONE',  ( -1.000000000000000000, 0.000000000000000000, 0.000000000000000000 ) ) ;
#1027 = SHAPE_DEFINITION_REPRESENTATION ( #666, #394 ) ;
#1028 = DIRECTION ( 'NONE',  ( -1.548860246407863336E-16, 1.000000000000000000, -0.000000000000000000 ) ) ;
#1029 = ORIENTED_EDGE ( 'NONE', *, *, #417, .F. ) ;
#1030 = CIRCLE ( 'NONE', #542, 0.8500000000000000888 ) ;
#1031 = EDGE_CURVE ( 'NONE', #503, #733, #382, .T. ) ;
#1032 = AXIS2_PLACEMENT_3D ( 'NONE', #501, #174, #887 ) ;
#1033 = DIRECTION ( 'NONE',  ( -1.548860246407863336E-16, 1.000000000000000000, 0.000000000000000000 ) ) ;
#1034 = CIRCLE ( 'NONE', #864, 0.8500000000000000888 ) ;
#1035 =( NAMED_UNIT ( * ) SI_UNIT ( $, .STERADIAN. ) SOLID_ANGLE_UNIT ( ) );
#1036 = DIRECTION ( 'NONE',  ( -0.000000000000000000, -0.000000000000000000, -1.000000000000000000 ) ) ;
#1037 = AXIS2_PLACEMENT_3D ( 'NONE', #984, #662, #561 ) ;
#1038 = AXIS2_PLACEMENT_3D ( 'NONE', #372, #446, #842 ) ;
#1039 = ORIENTED_EDGE ( 'NONE', *, *, #349, .F. ) ;
#1040 = LINE ( 'NONE', #61, #414 ) ;
#1041 = DIRECTION ( 'NONE',  ( 5.387339987505611631E-17, 1.000000000000000000, 0.000000000000000000 ) ) ;
#1042 = ORIENTED_EDGE ( 'NONE', *, *, #77, .F. ) ;
#1043 = CARTESIAN_POINT ( 'NONE',  ( 10.00000000000000711, -46.29999999999999716, 34.29999999999999716 ) ) ;
#1044 = FACE_OUTER_BOUND ( 'NONE', #231, .T. ) ;
#1045 = ORIENTED_EDGE ( 'NONE', *, *, #660, .T. ) ;
#1046 = DIRECTION ( 'NONE',  ( -1.000000000000000000, 0.000000000000000000, 0.000000000000000000 ) ) ;
#1047 = DIRECTION ( 'NONE',  ( 1.000000000000000000, -7.138779736530069592E-17, 0.000000000000000000 ) ) ;
#1048 = CIRCLE ( 'NONE', #611, 8.050000000000000711 ) ;
#1049 = MANIFOLD_SOLID_BREP ( 'Cut-Extrude8', #929 ) ;
#1050 = CIRCLE ( 'NONE', #1018, 0.8499999999999992006 ) ;
#1051 = ORIENTED_EDGE ( 'NONE', *, *, #644, .F. ) ;
#1052 = AXIS2_PLACEMENT_3D ( 'NONE', #692, #1008, #838 ) ;
#1053 = ORIENTED_EDGE ( 'NONE', *, *, #644, .T. ) ;
#1054 = DIRECTION ( 'NONE',  ( 0.000000000000000000, 0.000000000000000000, 1.000000000000000000 ) ) ;
#1055 = DIRECTION ( 'NONE',  ( 1.000000000000000000, -7.138779736530069592E-17, 0.000000000000000000 ) ) ;
ENDSEC;
END-ISO-10303-21;
