ISO-10303-21;
HEADER;
FILE_DESCRIPTION (( 'STEP AP214' ),
    '1' );
FILE_NAME ('Team-A4_motor-holder-right.STEP',
    '2026-05-03T15:52:07',
    ( '' ),
    ( '' ),
    'SwSTEP 2.0',
    'SolidWorks 2025',
    '' );
FILE_SCHEMA (( 'AUTOMOTIVE_DESIGN' ));
ENDSEC;

DATA;
#1 = DIRECTION ( 'NONE',  ( 0.000000000000000000, 0.000000000000000000, 1.000000000000000000 ) ) ;
#2 = EDGE_CURVE ( 'NONE', #250, #775, #106, .T. ) ;
#3 = DIRECTION ( 'NONE',  ( 0.000000000000000000, -1.000000000000000000, 0.000000000000000000 ) ) ;
#4 = ORIENTED_EDGE ( 'NONE', *, *, #776, .T. ) ;
#5 = DIRECTION ( 'NONE',  ( 0.000000000000000000, 0.000000000000000000, -1.000000000000000000 ) ) ;
#6 = ORIENTED_EDGE ( 'NONE', *, *, #191, .T. ) ;
#7 = CIRCLE ( 'NONE', #426, 1.600000000000002531 ) ;
#8 = CARTESIAN_POINT ( 'NONE',  ( -3.000000000000000000, 21.99999999999999645, 50.00000000000000000 ) ) ;
#9 = EDGE_LOOP ( 'NONE', ( #687, #451 ) ) ;
#10 = EDGE_CURVE ( 'NONE', #609, #147, #572, .T. ) ;
#11 = DIRECTION ( 'NONE',  ( -0.000000000000000000, -0.000000000000000000, -1.000000000000000000 ) ) ;
#12 = ORIENTED_EDGE ( 'NONE', *, *, #221, .T. ) ;
#13 = CARTESIAN_POINT ( 'NONE',  ( 0.000000000000000000, 6.879999999999994564, 32.34000000000001052 ) ) ;
#14 = VECTOR ( 'NONE', #842, 1000.000000000000000 ) ;
#15 = VERTEX_POINT ( 'NONE', #876 ) ;
#16 = CARTESIAN_POINT ( 'NONE',  ( 32.00000000000000000, 0.000000000000000000, 13.91740050056587918 ) ) ;
#17 = ORIENTED_EDGE ( 'NONE', *, *, #213, .F. ) ;
#18 = EDGE_CURVE ( 'NONE', #387, #544, #484, .T. ) ;
#19 = FACE_OUTER_BOUND ( 'NONE', #868, .T. ) ;
#20 = ORIENTED_EDGE ( 'NONE', *, *, #180, .T. ) ;
#21 = LINE ( 'NONE', #97, #763 ) ;
#22 = EDGE_LOOP ( 'NONE', ( #17, #718, #816, #84 ) ) ;
#23 = DIRECTION ( 'NONE',  ( 0.000000000000000000, -1.000000000000000000, 0.000000000000000000 ) ) ;
#24 = DIRECTION ( 'NONE',  ( 0.000000000000000000, -1.000000000000000000, 0.000000000000000000 ) ) ;
#25 = VERTEX_POINT ( 'NONE', #487 ) ;
#26 = DIRECTION ( 'NONE',  ( 0.000000000000000000, 0.000000000000000000, -1.000000000000000000 ) ) ;
#27 = EDGE_CURVE ( 'NONE', #250, #766, #951, .T. ) ;
#28 = VECTOR ( 'NONE', #974, 1000.000000000000000 ) ;
#29 = AXIS2_PLACEMENT_3D ( 'NONE', #349, #648, #193 ) ;
#30 = AXIS2_PLACEMENT_3D ( 'NONE', #900, #386, #758 ) ;
#31 = CARTESIAN_POINT ( 'NONE',  ( 32.00000000000000000, 3.000000000000002665, 37.40159272817569303 ) ) ;
#32 = ORIENTED_EDGE ( 'NONE', *, *, #533, .F. ) ;
#33 = CARTESIAN_POINT ( 'NONE',  ( 0.000000000000000000, 21.99999999999999645, 0.000000000000000000 ) ) ;
#34 = DIRECTION ( 'NONE',  ( 0.000000000000000000, -1.000000000000000000, 0.000000000000000000 ) ) ;
#35 = SURFACE_STYLE_USAGE ( .BOTH. , #640 ) ;
#36 = ORIENTED_EDGE ( 'NONE', *, *, #813, .T. ) ;
#37 = VECTOR ( 'NONE', #88, 1000.000000000000000 ) ;
#38 = PLANE ( 'NONE',  #289 ) ;
#39 = CARTESIAN_POINT ( 'NONE',  ( 32.00000000000000000, 0.000000000000000000, 34.20159272817569729 ) ) ;
#40 = EDGE_CURVE ( 'NONE', #511, #158, #473, .T. ) ;
#41 = CARTESIAN_POINT ( 'NONE',  ( 20.00000000000000000, 3.000000000000002665, 10.71740050056587812 ) ) ;
#42 = EDGE_LOOP ( 'NONE', ( #412, #745 ) ) ;
#43 = ORIENTED_EDGE ( 'NONE', *, *, #265, .F. ) ;
#44 = VECTOR ( 'NONE', #885, 1000.000000000000000 ) ;
#45 = ADVANCED_FACE ( 'NONE', ( #499 ), #866, .F. ) ;
#46 = CARTESIAN_POINT ( 'NONE',  ( -2.999999999999998668, 10.37999999999999368, 21.68000000000000327 ) ) ;
#47 = CIRCLE ( 'NONE', #295, 3.499999999999999556 ) ;
#48 = EDGE_LOOP ( 'NONE', ( #592, #945, #198, #943 ) ) ;
#49 = FACE_BOUND ( 'NONE', #393, .T. ) ;
#50 = DIRECTION ( 'NONE',  ( 1.000000000000000000, 2.891205793294681778E-16, 0.000000000000000000 ) ) ;
#51 = CARTESIAN_POINT ( 'NONE',  ( 0.000000000000000000, -7.000000000000005329, 0.000000000000000000 ) ) ;
#52 = LINE ( 'NONE', #577, #880 ) ;
#53 = ORIENTED_EDGE ( 'NONE', *, *, #977, .T. ) ;
#54 = DIRECTION ( 'NONE',  ( -0.000000000000000000, -1.000000000000000000, -0.000000000000000000 ) ) ;
#55 = EDGE_CURVE ( 'NONE', #775, #848, #802, .T. ) ;
#56 = MANIFOLD_SOLID_BREP ( 'Cut-Extrude2', #391 ) ;
#57 = CARTESIAN_POINT ( 'NONE',  ( 0.000000000000000000, 21.99999999999999645, 0.000000000000000000 ) ) ;
#58 = CARTESIAN_POINT ( 'NONE',  ( 0.000000000000000000, 21.99999999999999645, 50.00000000000000000 ) ) ;
#59 = VERTEX_POINT ( 'NONE', #39 ) ;
#60 = CARTESIAN_POINT ( 'NONE',  ( 20.00000000000000000, 0.000000000000000000, 37.40159272817570013 ) ) ;
#61 = PLANE ( 'NONE',  #932 ) ;
#62 = FACE_OUTER_BOUND ( 'NONE', #184, .T. ) ;
#63 = DIRECTION ( 'NONE',  ( 2.115516434118056723E-16, -1.000000000000000000, 0.000000000000000000 ) ) ;
#64 = DIRECTION ( 'NONE',  ( -0.000000000000000000, -1.000000000000000000, -0.000000000000000000 ) ) ;
#65 = EDGE_CURVE ( 'NONE', #416, #242, #273, .T. ) ;
#66 = CARTESIAN_POINT ( 'NONE',  ( 20.00000000000000000, 50.00000000000000000, 13.91740050056588451 ) ) ;
#67 = CARTESIAN_POINT ( 'NONE',  ( 0.000000000000000000, -3.600000000000004086, 43.00000000000000000 ) ) ;
#68 = CARTESIAN_POINT ( 'NONE',  ( -3.000000000000000000, 21.99999999999999645, 50.00000000000000000 ) ) ;
#69 = CARTESIAN_POINT ( 'NONE',  ( -3.000000000000000000, 21.99999999999999645, 50.00000000000000000 ) ) ;
#70 = AXIS2_PLACEMENT_3D ( 'NONE', #128, #963, #421 ) ;
#71 = EDGE_CURVE ( 'NONE', #841, #761, #735, .T. ) ;
#72 = VECTOR ( 'NONE', #279, 1000.000000000000000 ) ;
#73 = DIRECTION ( 'NONE',  ( -1.000000000000000000, 0.000000000000000000, 0.000000000000000000 ) ) ;
#74 = VECTOR ( 'NONE', #209, 1000.000000000000000 ) ;
#75 = CARTESIAN_POINT ( 'NONE',  ( 0.000000000000000000, 5.279999999999993143, 7.920000000000003482 ) ) ;
#76 = DIRECTION ( 'NONE',  ( 0.000000000000000000, 0.000000000000000000, 1.000000000000000000 ) ) ;
#77 = EDGE_LOOP ( 'NONE', ( #788, #342, #79, #554 ) ) ;
#78 = DIRECTION ( 'NONE',  ( -1.000000000000000000, -2.891205793294681778E-16, 0.000000000000000000 ) ) ;
#79 = ORIENTED_EDGE ( 'NONE', *, *, #481, .F. ) ;
#80 = EDGE_CURVE ( 'NONE', #544, #387, #607, .T. ) ;
#81 = DIRECTION ( 'NONE',  ( 0.000000000000000000, -1.000000000000000000, 0.000000000000000000 ) ) ;
#82 = ORIENTED_EDGE ( 'NONE', *, *, #213, .T. ) ;
#83 = DIRECTION ( 'NONE',  ( 0.000000000000000000, 0.000000000000000000, 1.000000000000000000 ) ) ;
#84 = ORIENTED_EDGE ( 'NONE', *, *, #388, .T. ) ;
#85 = CARTESIAN_POINT ( 'NONE',  ( 0.000000000000000000, 0.000000000000000000, 0.000000000000000000 ) ) ;
#86 = PRODUCT_DEFINITION ( 'UNKNOWN', '', #551, #583 ) ;
#87 = ORIENTED_EDGE ( 'NONE', *, *, #803, .F. ) ;
#88 = DIRECTION ( 'NONE',  ( -1.000000000000000000, 0.000000000000000000, 0.000000000000000000 ) ) ;
#89 = ORIENTED_EDGE ( 'NONE', *, *, #180, .F. ) ;
#90 = CARTESIAN_POINT ( 'NONE',  ( 32.00000000000000000, 3.000000000000002665, 10.71740050056588345 ) ) ;
#91 = VERTEX_POINT ( 'NONE', #433 ) ;
#92 = DIRECTION ( 'NONE',  ( 0.000000000000000000, 0.000000000000000000, -1.000000000000000000 ) ) ;
#93 = ORIENTED_EDGE ( 'NONE', *, *, #462, .F. ) ;
#94 = DIRECTION ( 'NONE',  ( 0.000000000000000000, 0.000000000000000000, -1.000000000000000000 ) ) ;
#95 = CARTESIAN_POINT ( 'NONE',  ( -3.000000000000000000, 21.99999999999999645, 0.000000000000000000 ) ) ;
#96 = ORIENTED_EDGE ( 'NONE', *, *, #632, .F. ) ;
#97 = CARTESIAN_POINT ( 'NONE',  ( 47.00000000000000000, 14.15000000000000036, 43.00000000000000000 ) ) ;
#98 = ORIENTED_EDGE ( 'NONE', *, *, #110, .F. ) ;
#99 = ADVANCED_FACE ( 'NONE', ( #752 ), #742, .F. ) ;
#100 = FACE_OUTER_BOUND ( 'NONE', #286, .T. ) ;
#101 = AXIS2_PLACEMENT_3D ( 'NONE', #616, #545, #172 ) ;
#102 = CARTESIAN_POINT ( 'NONE',  ( -2.999999999999996891, -2.000000000000006661, 43.00000000000000000 ) ) ;
#103 = EDGE_LOOP ( 'NONE', ( #379, #149, #314, #20 ) ) ;
#104 = ADVANCED_FACE ( 'NONE', ( #216 ), #446, .F. ) ;
#105 = FACE_OUTER_BOUND ( 'NONE', #22, .T. ) ;
#106 = LINE ( 'NONE', #116, #294 ) ;
#107 = ORIENTED_EDGE ( 'NONE', *, *, #697, .T. ) ;
#108 = CARTESIAN_POINT ( 'NONE',  ( 47.00000000000000711, 6.879999999999999893, 32.34000000000001052 ) ) ;
#109 = VERTEX_POINT ( 'NONE', #505 ) ;
#110 = EDGE_CURVE ( 'NONE', #532, #260, #747, .T. ) ;
#111 = CARTESIAN_POINT ( 'NONE',  ( 0.000000000000000000, 0.000000000000000000, 0.000000000000000000 ) ) ;
#112 = VERTEX_POINT ( 'NONE', #673 ) ;
#113 = AXIS2_PLACEMENT_3D ( 'NONE', #111, #431, #142 ) ;
#114 = EDGE_CURVE ( 'NONE', #848, #453, #733, .T. ) ;
#115 = DIRECTION ( 'NONE',  ( 0.000000000000000000, 1.000000000000000000, 0.000000000000000000 ) ) ;
#116 = CARTESIAN_POINT ( 'NONE',  ( 0.000000000000000000, -7.000000000000005329, 50.00000000000000000 ) ) ;
#117 = ORIENTED_EDGE ( 'NONE', *, *, #836, .F. ) ;
#118 = DIRECTION ( 'NONE',  ( 0.000000000000000000, 0.000000000000000000, -1.000000000000000000 ) ) ;
#119 = VERTEX_POINT ( 'NONE', #57 ) ;
#120 = AXIS2_PLACEMENT_3D ( 'NONE', #660, #133, #5 ) ;
#121 = CARTESIAN_POINT ( 'NONE',  ( 0.000000000000000000, 6.879999999999994564, 32.34000000000001052 ) ) ;
#122 = CIRCLE ( 'NONE', #933, 1.599999999999997202 ) ;
#123 = AXIS2_PLACEMENT_3D ( 'NONE', #202, #344, #958 ) ;
#124 = CARTESIAN_POINT ( 'NONE',  ( 32.00000000000000000, 3.000000000000002665, 12.31740050056588132 ) ) ;
#125 = AXIS2_PLACEMENT_3D ( 'NONE', #562, #170, #322 ) ;
#126 = EDGE_LOOP ( 'NONE', ( #267, #773 ) ) ;
#127 = CARTESIAN_POINT ( 'NONE',  ( 20.00000000000000000, 50.00000000000000000, 37.40159272817570013 ) ) ;
#128 = CARTESIAN_POINT ( 'NONE',  ( 47.00000000000000711, 6.879999999999999893, 7.920000000000003482 ) ) ;
#129 = EDGE_CURVE ( 'NONE', #242, #119, #353, .T. ) ;
#130 = AXIS2_PLACEMENT_3D ( 'NONE', #938, #710, #324 ) ;
#131 = CARTESIAN_POINT ( 'NONE',  ( -2.999999999999998224, 8.479999999999996874, 7.920000000000003482 ) ) ;
#132 = PLANE ( 'NONE',  #113 ) ;
#133 = DIRECTION ( 'NONE',  ( 0.000000000000000000, -1.000000000000000000, 0.000000000000000000 ) ) ;
#134 = ORIENTED_EDGE ( 'NONE', *, *, #647, .T. ) ;
#135 = VECTOR ( 'NONE', #631, 1000.000000000000000 ) ;
#136 = ORIENTED_EDGE ( 'NONE', *, *, #738, .T. ) ;
#137 = DIRECTION ( 'NONE',  ( 0.000000000000000000, -1.000000000000000000, 0.000000000000000000 ) ) ;
#138 = DIRECTION ( 'NONE',  ( 0.000000000000000000, 0.000000000000000000, -1.000000000000000000 ) ) ;
#139 = EDGE_CURVE ( 'NONE', #681, #15, #339, .T. ) ;
#140 = CYLINDRICAL_SURFACE ( 'NONE', #455, 1.599999999999997202 ) ;
#141 = EDGE_LOOP ( 'NONE', ( #167, #190, #523, #4, #566, #179, #537, #949 ) ) ;
#142 = DIRECTION ( 'NONE',  ( -1.000000000000000000, 0.000000000000000000, -0.000000000000000000 ) ) ;
#143 = DIRECTION ( 'NONE',  ( -1.000000000000000000, 0.000000000000000000, 0.000000000000000000 ) ) ;
#144 = EDGE_CURVE ( 'NONE', #437, #646, #297, .T. ) ;
#145 = CIRCLE ( 'NONE', #465, 1.600000000000001643 ) ;
#146 = DIRECTION ( 'NONE',  ( -0.000000000000000000, -0.000000000000000000, -1.000000000000000000 ) ) ;
#147 = VERTEX_POINT ( 'NONE', #60 ) ;
#148 = CARTESIAN_POINT ( 'NONE',  ( 20.00000000000000000, 0.000000000000000000, 12.31740050056588132 ) ) ;
#149 = ORIENTED_EDGE ( 'NONE', *, *, #950, .F. ) ;
#150 = DIRECTION ( 'NONE',  ( -1.000000000000000000, -1.196361017915039732E-16, -0.000000000000000000 ) ) ;
#151 = VERTEX_POINT ( 'NONE', #358 ) ;
#152 = DIRECTION ( 'NONE',  ( -1.000000000000000000, -1.196361017915039732E-16, -0.000000000000000000 ) ) ;
#153 = EDGE_CURVE ( 'NONE', #728, #489, #47, .T. ) ;
#154 = CARTESIAN_POINT ( 'NONE',  ( 0.000000000000000000, 15.74999999999999289, 43.00000000000000000 ) ) ;
#155 = CARTESIAN_POINT ( 'NONE',  ( 20.00000000000000000, 0.000000000000000000, 35.80159272817569160 ) ) ;
#156 = VERTEX_POINT ( 'NONE', #973 ) ;
#157 = FACE_OUTER_BOUND ( 'NONE', #559, .T. ) ;
#158 = VERTEX_POINT ( 'NONE', #75 ) ;
#159 = ADVANCED_FACE ( 'NONE', ( #457 ), #161, .F. ) ;
#160 = DIRECTION ( 'NONE',  ( -1.000000000000000000, 0.000000000000000000, 0.000000000000000000 ) ) ;
#161 = CYLINDRICAL_SURFACE ( 'NONE', #30, 1.599999999999997202 ) ;
#162 = ORIENTED_EDGE ( 'NONE', *, *, #71, .T. ) ;
#163 = CARTESIAN_POINT ( 'NONE',  ( -2.999999999999997780, 3.379999999999994120, 21.68000000000000327 ) ) ;
#164 = ORIENTED_EDGE ( 'NONE', *, *, #632, .T. ) ;
#165 = CIRCLE ( 'NONE', #970, 3.499999999999999556 ) ;
#166 = CARTESIAN_POINT ( 'NONE',  ( 47.00000000000000000, 15.75000000000000000, 43.00000000000000000 ) ) ;
#167 = ORIENTED_EDGE ( 'NONE', *, *, #27, .T. ) ;
#168 = CARTESIAN_POINT ( 'NONE',  ( 0.000000000000000000, 8.929999999999994387, 32.34000000000001052 ) ) ;
#169 = VERTEX_POINT ( 'NONE', #67 ) ;
#170 = DIRECTION ( 'NONE',  ( -1.000000000000000000, -1.196361017915039486E-16, 0.000000000000000000 ) ) ;
#171 = AXIS2_PLACEMENT_3D ( 'NONE', #228, #531, #299 ) ;
#172 = DIRECTION ( 'NONE',  ( 0.000000000000000000, 0.000000000000000000, 1.000000000000000000 ) ) ;
#173 = AXIS2_PLACEMENT_3D ( 'NONE', #422, #187, #340 ) ;
#174 = EDGE_LOOP ( 'NONE', ( #624, #528, #930, #902 ) ) ;
#175 = EDGE_CURVE ( 'NONE', #260, #109, #605, .T. ) ;
#176 = CARTESIAN_POINT ( 'NONE',  ( 0.000000000000000000, 21.99999999999999645, 50.00000000000000000 ) ) ;
#177 = ORIENTED_EDGE ( 'NONE', *, *, #18, .T. ) ;
#178 = CARTESIAN_POINT ( 'NONE',  ( 0.000000000000000000, 14.14999999999999503, 43.00000000000000000 ) ) ;
#179 = ORIENTED_EDGE ( 'NONE', *, *, #714, .T. ) ;
#180 = EDGE_CURVE ( 'NONE', #151, #147, #653, .T. ) ;
#181 = CARTESIAN_POINT ( 'NONE',  ( -2.999999999999998668, 8.929999999999992610, 32.34000000000001052 ) ) ;
#182 =( NAMED_UNIT ( * ) SI_UNIT ( $, .STERADIAN. ) SOLID_ANGLE_UNIT ( ) );
#183 = LINE ( 'NONE', #703, #373 ) ;
#184 = EDGE_LOOP ( 'NONE', ( #971, #828, #601, #136 ) ) ;
#185 = EDGE_CURVE ( 'NONE', #112, #382, #692, .T. ) ;
#186 = DIRECTION ( 'NONE',  ( -0.000000000000000000, -1.000000000000000000, -0.000000000000000000 ) ) ;
#187 = DIRECTION ( 'NONE',  ( 0.000000000000000000, -1.000000000000000000, 0.000000000000000000 ) ) ;
#188 = ORIENTED_EDGE ( 'NONE', *, *, #343, .F. ) ;
#189 = DIRECTION ( 'NONE',  ( -1.000000000000000000, -1.196361017915039732E-16, -0.000000000000000000 ) ) ;
#190 = ORIENTED_EDGE ( 'NONE', *, *, #743, .T. ) ;
#191 = EDGE_CURVE ( 'NONE', #475, #685, #737, .T. ) ;
#192 = CARTESIAN_POINT ( 'NONE',  ( 0.000000000000000000, 0.000000000000000000, 0.000000000000000000 ) ) ;
#193 = DIRECTION ( 'NONE',  ( -1.000000000000000000, 0.000000000000000000, -0.000000000000000000 ) ) ;
#194 = CARTESIAN_POINT ( 'NONE',  ( 0.000000000000000000, 6.879999999999994564, 21.68000000000000327 ) ) ;
#195 = ORIENTED_EDGE ( 'NONE', *, *, #114, .F. ) ;
#196 = AXIS2_PLACEMENT_3D ( 'NONE', #657, #54, #368 ) ;
#197 = VECTOR ( 'NONE', #152, 1000.000000000000000 ) ;
#198 = ORIENTED_EDGE ( 'NONE', *, *, #375, .T. ) ;
#199 = DIRECTION ( 'NONE',  ( 0.000000000000000000, 0.000000000000000000, -1.000000000000000000 ) ) ;
#200 = ORIENTED_EDGE ( 'NONE', *, *, #497, .T. ) ;
#201 = VECTOR ( 'NONE', #11, 1000.000000000000000 ) ;
#202 = CARTESIAN_POINT ( 'NONE',  ( 0.000000000000000000, 6.879999999999994564, 7.920000000000003482 ) ) ;
#203 = EDGE_CURVE ( 'NONE', #609, #618, #625, .T. ) ;
#204 = AXIS2_PLACEMENT_3D ( 'NONE', #246, #397, #26 ) ;
#205 = DIRECTION ( 'NONE',  ( 0.000000000000000000, 0.000000000000000000, -1.000000000000000000 ) ) ;
#206 = VECTOR ( 'NONE', #150, 1000.000000000000000 ) ;
#207 = VERTEX_POINT ( 'NONE', #90 ) ;
#208 = DIRECTION ( 'NONE',  ( 0.000000000000000000, 0.000000000000000000, -1.000000000000000000 ) ) ;
#209 = DIRECTION ( 'NONE',  ( -1.000000000000000000, -1.196361017915039732E-16, -0.000000000000000000 ) ) ;
#210 = CARTESIAN_POINT ( 'NONE',  ( 47.00000000000000000, 17.34999999999999787, 43.00000000000000000 ) ) ;
#211 = CARTESIAN_POINT ( 'NONE',  ( 38.00000000000000000, 3.000000000000000000, 0.000000000000000000 ) ) ;
#212 = ORIENTED_EDGE ( 'NONE', *, *, #909, .T. ) ;
#213 = EDGE_CURVE ( 'NONE', #761, #681, #524, .T. ) ;
#214 = FACE_OUTER_BOUND ( 'NONE', #957, .T. ) ;
#215 = DIRECTION ( 'NONE',  ( 0.000000000000000000, -0.000000000000000000, -1.000000000000000000 ) ) ;
#216 = FACE_OUTER_BOUND ( 'NONE', #399, .T. ) ;
#217 = FACE_OUTER_BOUND ( 'NONE', #275, .T. ) ;
#218 = VERTEX_POINT ( 'NONE', #222 ) ;
#219 = AXIS2_PLACEMENT_3D ( 'NONE', #300, #908, #381 ) ;
#220 = DIRECTION ( 'NONE',  ( -1.000000000000000000, -1.196361017915039732E-16, -0.000000000000000000 ) ) ;
#221 = EDGE_CURVE ( 'NONE', #59, #783, #392, .T. ) ;
#222 = CARTESIAN_POINT ( 'NONE',  ( 32.00000000000000000, 3.000000000000002665, 34.20159272817569729 ) ) ;
#223 = FACE_OUTER_BOUND ( 'NONE', #887, .T. ) ;
#224 = ORIENTED_EDGE ( 'NONE', *, *, #569, .T. ) ;
#225 =( NAMED_UNIT ( * ) PLANE_ANGLE_UNIT ( ) SI_UNIT ( $, .RADIAN. ) );
#226 = DIRECTION ( 'NONE',  ( 0.000000000000000000, 0.000000000000000000, 1.000000000000000000 ) ) ;
#227 = EDGE_LOOP ( 'NONE', ( #722, #794, #6, #291 ) ) ;
#228 = CARTESIAN_POINT ( 'NONE',  ( 32.00000000000000000, 0.000000000000000000, 35.80159272817569160 ) ) ;
#229 = CIRCLE ( 'NONE', #872, 1.599999999999997202 ) ;
#230 = FACE_BOUND ( 'NONE', #42, .T. ) ;
#231 = ORIENTED_EDGE ( 'NONE', *, *, #776, .F. ) ;
#232 = DIRECTION ( 'NONE',  ( 0.000000000000000000, -1.000000000000000000, 0.000000000000000000 ) ) ;
#233 = EDGE_CURVE ( 'NONE', #761, #841, #514, .T. ) ;
#234 = PRODUCT_CONTEXT ( 'NONE', #749, 'mechanical' ) ;
#235 = CARTESIAN_POINT ( 'NONE',  ( 38.00000000000000000, 3.000000000000000000, 50.00000000000000000 ) ) ;
#236 = DIRECTION ( 'NONE',  ( -1.000000000000000000, -1.196361017915039732E-16, -0.000000000000000000 ) ) ;
#237 = EDGE_LOOP ( 'NONE', ( #824, #764 ) ) ;
#238 = PLANE ( 'NONE',  #750 ) ;
#239 = ORIENTED_EDGE ( 'NONE', *, *, #593, .F. ) ;
#240 = LINE ( 'NONE', #461, #444 ) ;
#241 = PLANE ( 'NONE',  #894 ) ;
#242 = VERTEX_POINT ( 'NONE', #463 ) ;
#243 = CARTESIAN_POINT ( 'NONE',  ( 32.00000000000000000, 3.000000000000002665, 35.80159272817569160 ) ) ;
#244 = ORIENTED_EDGE ( 'NONE', *, *, #519, .F. ) ;
#245 = VECTOR ( 'NONE', #491, 1000.000000000000000 ) ;
#246 = CARTESIAN_POINT ( 'NONE',  ( 32.00000000000000000, 50.00000000000000000, 12.31740050056588132 ) ) ;
#247 = ADVANCED_FACE ( 'NONE', ( #683 ), #445, .F. ) ;
#248 = ORIENTED_EDGE ( 'NONE', *, *, #315, .F. ) ;
#249 = DIRECTION ( 'NONE',  ( -1.000000000000000000, -1.196361017915039732E-16, -0.000000000000000000 ) ) ;
#250 = VERTEX_POINT ( 'NONE', #369 ) ;
#251 = DIRECTION ( 'NONE',  ( -0.000000000000000000, -1.000000000000000000, -0.000000000000000000 ) ) ;
#252 = CIRCLE ( 'NONE', #120, 1.600000000000002531 ) ;
#253 = AXIS2_PLACEMENT_3D ( 'NONE', #311, #377, #81 ) ;
#254 = ADVANCED_FACE ( 'NONE', ( #230, #611, #826, #296, #838, #594 ), #241, .F. ) ;
#255 = VECTOR ( 'NONE', #717, 1000.000000000000000 ) ;
#256 = DIRECTION ( 'NONE',  ( 0.000000000000000000, -1.000000000000000000, 0.000000000000000000 ) ) ;
#257 = ORIENTED_EDGE ( 'NONE', *, *, #403, .F. ) ;
#258 = DIRECTION ( 'NONE',  ( 0.000000000000000000, -1.000000000000000000, 0.000000000000000000 ) ) ;
#259 = CARTESIAN_POINT ( 'NONE',  ( 47.00000000000000711, 6.879999999999999893, 32.34000000000001052 ) ) ;
#260 = VERTEX_POINT ( 'NONE', #832 ) ;
#261 = ADVANCED_FACE ( 'NONE', ( #19 ), #944, .F. ) ;
#262 = CYLINDRICAL_SURFACE ( 'NONE', #672, 3.499999999999999556 ) ;
#263 = CARTESIAN_POINT ( 'NONE',  ( 20.00000000000000000, 3.000000000000002665, 12.31740050056588132 ) ) ;
#264 = ORIENTED_EDGE ( 'NONE', *, *, #323, .T. ) ;
#265 = EDGE_CURVE ( 'NONE', #207, #437, #782, .T. ) ;
#266 = DIRECTION ( 'NONE',  ( 0.000000000000000000, -1.000000000000000000, 0.000000000000000000 ) ) ;
#267 = ORIENTED_EDGE ( 'NONE', *, *, #950, .T. ) ;
#268 = VECTOR ( 'NONE', #871, 1000.000000000000000 ) ;
#269 = CARTESIAN_POINT ( 'NONE',  ( 0.000000000000000000, 0.000000000000000000, 50.00000000000000000 ) ) ;
#270 =( NAMED_UNIT ( * ) PLANE_ANGLE_UNIT ( ) SI_UNIT ( $, .RADIAN. ) );
#271 = DIRECTION ( 'NONE',  ( -0.000000000000000000, -0.000000000000000000, -1.000000000000000000 ) ) ;
#272 = EDGE_LOOP ( 'NONE', ( #811, #541, #36, #12 ) ) ;
#273 = LINE ( 'NONE', #946, #268 ) ;
#274 = CARTESIAN_POINT ( 'NONE',  ( 47.00000000000000711, 10.38000000000000078, 21.68000000000000327 ) ) ;
#275 = EDGE_LOOP ( 'NONE', ( #304, #334, #786, #585 ) ) ;
#276 = ADVANCED_FACE ( 'NONE', ( #478 ), #940, .F. ) ;
#277 = AXIS2_PLACEMENT_3D ( 'NONE', #582, #890, #215 ) ;
#278 = ORIENTED_EDGE ( 'NONE', *, *, #661, .T. ) ;
#279 = DIRECTION ( 'NONE',  ( 1.000000000000000000, 2.891205793294681778E-16, 0.000000000000000000 ) ) ;
#280 = EDGE_CURVE ( 'NONE', #618, #151, #863, .T. ) ;
#281 = CIRCLE ( 'NONE', #404, 1.600000000000004086 ) ;
#282 = DIRECTION ( 'NONE',  ( 0.000000000000000000, -1.000000000000000000, 0.000000000000000000 ) ) ;
#283 = DIRECTION ( 'NONE',  ( -1.000000000000000000, 0.000000000000000000, 0.000000000000000000 ) ) ;
#284 = CARTESIAN_POINT ( 'NONE',  ( -2.999999999999998224, 6.879999999999993676, 32.34000000000001052 ) ) ;
#285 = FACE_OUTER_BOUND ( 'NONE', #851, .T. ) ;
#286 = EDGE_LOOP ( 'NONE', ( #535, #612, #264, #257 ) ) ;
#287 = EDGE_CURVE ( 'NONE', #119, #923, #852, .T. ) ;
#288 = PLANE ( 'NONE',  #363 ) ;
#289 = AXIS2_PLACEMENT_3D ( 'NONE', #269, #115, #560 ) ;
#290 = CARTESIAN_POINT ( 'NONE',  ( 0.000000000000000000, 3.000000000000000000, 50.00000000000000000 ) ) ;
#291 = ORIENTED_EDGE ( 'NONE', *, *, #977, .F. ) ;
#292 = EDGE_CURVE ( 'NONE', #382, #112, #915, .T. ) ;
#293 = LINE ( 'NONE', #968, #622 ) ;
#294 = VECTOR ( 'NONE', #724, 1000.000000000000000 ) ;
#295 = AXIS2_PLACEMENT_3D ( 'NONE', #659, #966, #366 ) ;
#296 = FACE_BOUND ( 'NONE', #237, .T. ) ;
#297 = LINE ( 'NONE', #654, #44 ) ;
#298 = EDGE_LOOP ( 'NONE', ( #712, #395, #563, #164 ) ) ;
#299 = DIRECTION ( 'NONE',  ( 0.000000000000000000, 0.000000000000000000, -1.000000000000000000 ) ) ;
#300 = CARTESIAN_POINT ( 'NONE',  ( 32.00000000000000000, 0.000000000000000000, 35.80159272817569160 ) ) ;
#301 = ADVANCED_FACE ( 'NONE', ( #472 ), #262, .F. ) ;
#302 = ORIENTED_EDGE ( 'NONE', *, *, #233, .T. ) ;
#303 = DIRECTION ( 'NONE',  ( -1.000000000000000000, -1.196361017915039732E-16, -0.000000000000000000 ) ) ;
#304 = ORIENTED_EDGE ( 'NONE', *, *, #129, .T. ) ;
#305 = DIRECTION ( 'NONE',  ( 1.000000000000000000, 0.000000000000000000, 0.000000000000000000 ) ) ;
#306 = DIRECTION ( 'NONE',  ( 1.000000000000000000, 1.196361017915039486E-16, -0.000000000000000000 ) ) ;
#307 = ORIENTED_EDGE ( 'NONE', *, *, #844, .T. ) ;
#308 = LINE ( 'NONE', #603, #206 ) ;
#309 = VERTEX_POINT ( 'NONE', #558 ) ;
#310 = AXIS2_PLACEMENT_3D ( 'NONE', #148, #450, #427 ) ;
#311 = CARTESIAN_POINT ( 'NONE',  ( -2.999999999999999112, 15.74999999999999289, 43.00000000000000000 ) ) ;
#312 = ORIENTED_EDGE ( 'NONE', *, *, #396, .F. ) ;
#313 = LINE ( 'NONE', #929, #633 ) ;
#314 = ORIENTED_EDGE ( 'NONE', *, *, #280, .T. ) ;
#315 = EDGE_CURVE ( 'NONE', #489, #731, #183, .T. ) ;
#316 = DIRECTION ( 'NONE',  ( 0.000000000000000000, -1.000000000000000000, 0.000000000000000000 ) ) ;
#317 = DIRECTION ( 'NONE',  ( -0.000000000000000000, -0.000000000000000000, -1.000000000000000000 ) ) ;
#318 = ORIENTED_EDGE ( 'NONE', *, *, #323, .F. ) ;
#319 = DIRECTION ( 'NONE',  ( -1.000000000000000000, -1.196361017915039732E-16, -0.000000000000000000 ) ) ;
#320 = EDGE_LOOP ( 'NONE', ( #458, #985 ) ) ;
#321 = CIRCLE ( 'NONE', #716, 1.599999999999997202 ) ;
#322 = DIRECTION ( 'NONE',  ( 0.000000000000000000, -1.000000000000000000, 0.000000000000000000 ) ) ;
#323 = EDGE_CURVE ( 'NONE', #646, #634, #122, .T. ) ;
#324 = DIRECTION ( 'NONE',  ( 0.000000000000000000, 0.000000000000000000, 1.000000000000000000 ) ) ;
#325 = ORIENTED_EDGE ( 'NONE', *, *, #610, .F. ) ;
#326 = VECTOR ( 'NONE', #50, 1000.000000000000000 ) ;
#327 = CIRCLE ( 'NONE', #797, 2.050000000000000711 ) ;
#328 = AXIS2_PLACEMENT_3D ( 'NONE', #194, #793, #500 ) ;
#329 = CARTESIAN_POINT ( 'NONE',  ( 0.000000000000000000, 0.000000000000000000, 50.00000000000000000 ) ) ;
#330 = ORIENTED_EDGE ( 'NONE', *, *, #129, .F. ) ;
#331 = ADVANCED_FACE ( 'NONE', ( #100 ), #615, .F. ) ;
#332 = CYLINDRICAL_SURFACE ( 'NONE', #888, 2.050000000000000711 ) ;
#333 = PRESENTATION_STYLE_ASSIGNMENT (( #35 ) ) ;
#334 = ORIENTED_EDGE ( 'NONE', *, *, #448, .F. ) ;
#335 = CYLINDRICAL_SURFACE ( 'NONE', #196, 1.600000000000002531 ) ;
#336 = SURFACE_STYLE_FILL_AREA ( #795 ) ;
#337 = CARTESIAN_POINT ( 'NONE',  ( -2.999999999999996447, -7.000000000000006217, 50.00000000000000000 ) ) ;
#338 = ORIENTED_EDGE ( 'NONE', *, *, #813, .F. ) ;
#339 = CIRCLE ( 'NONE', #893, 2.050000000000000711 ) ;
#340 = DIRECTION ( 'NONE',  ( 0.000000000000000000, 0.000000000000000000, -1.000000000000000000 ) ) ;
#341 = LINE ( 'NONE', #493, #255 ) ;
#342 = ORIENTED_EDGE ( 'NONE', *, *, #2, .F. ) ;
#343 = EDGE_CURVE ( 'NONE', #406, #387, #621, .T. ) ;
#344 = DIRECTION ( 'NONE',  ( -1.000000000000000000, 0.000000000000000000, 0.000000000000000000 ) ) ;
#345 = DIRECTION ( 'NONE',  ( 2.115516434118056723E-16, -1.000000000000000000, 0.000000000000000000 ) ) ;
#346 = EDGE_LOOP ( 'NONE', ( #89, #969 ) ) ;
#347 = AXIS2_PLACEMENT_3D ( 'NONE', #627, #405, #700 ) ;
#348 = PLANE ( 'NONE',  #277 ) ;
#349 = CARTESIAN_POINT ( 'NONE',  ( 0.000000000000000000, 0.000000000000000000, 50.00000000000000000 ) ) ;
#350 = DIRECTION ( 'NONE',  ( -1.000000000000000000, -1.196361017915039486E-16, 0.000000000000000000 ) ) ;
#351 = CARTESIAN_POINT ( 'NONE',  ( 0.000000000000000000, -7.000000000000005329, 50.00000000000000000 ) ) ;
#352 = EDGE_CURVE ( 'NONE', #109, #775, #573, .T. ) ;
#353 = LINE ( 'NONE', #739, #769 ) ;
#354 = AXIS2_PLACEMENT_3D ( 'NONE', #155, #539, #746 ) ;
#355 = CARTESIAN_POINT ( 'NONE',  ( -2.999999999999999112, 14.14999999999999503, 43.00000000000000000 ) ) ;
#356 = FACE_OUTER_BOUND ( 'NONE', #460, .T. ) ;
#357 = CARTESIAN_POINT ( 'NONE',  ( 20.00000000000000000, 3.000000000000002665, 35.80159272817569160 ) ) ;
#358 = CARTESIAN_POINT ( 'NONE',  ( 20.00000000000000000, 0.000000000000000000, 34.20159272817569018 ) ) ;
#359 = EDGE_CURVE ( 'NONE', #156, #242, #423, .T. ) ;
#360 = CARTESIAN_POINT ( 'NONE',  ( 38.00000000000000000, 0.000000000000000000, 50.00000000000000000 ) ) ;
#361 = APPLICATION_PROTOCOL_DEFINITION ( 'draft international standard', 'automotive_design', 1998, #430 ) ;
#362 = LINE ( 'NONE', #670, #494 ) ;
#363 = AXIS2_PLACEMENT_3D ( 'NONE', #351, #283, #587 ) ;
#364 = CARTESIAN_POINT ( 'NONE',  ( -2.999999999999998224, 6.879999999999993676, 21.68000000000000327 ) ) ;
#365 = CIRCLE ( 'NONE', #927, 1.600000000000004086 ) ;
#366 = DIRECTION ( 'NONE',  ( 0.000000000000000000, 0.000000000000000000, 1.000000000000000000 ) ) ;
#367 = CARTESIAN_POINT ( 'NONE',  ( -2.999999999999996447, -7.000000000000006217, 50.00000000000000000 ) ) ;
#368 = DIRECTION ( 'NONE',  ( 0.000000000000000000, 0.000000000000000000, -1.000000000000000000 ) ) ;
#369 = CARTESIAN_POINT ( 'NONE',  ( 0.000000000000000000, -7.000000000000005329, 50.00000000000000000 ) ) ;
#370 = AXIS2_PLACEMENT_3D ( 'NONE', #886, #567, #199 ) ;
#371 = DIRECTION ( 'NONE',  ( 0.000000000000000000, 1.000000000000000000, 0.000000000000000000 ) ) ;
#372 = CARTESIAN_POINT ( 'NONE',  ( 20.00000000000000000, 50.00000000000000000, 12.31740050056588132 ) ) ;
#373 = VECTOR ( 'NONE', #189, 1000.000000000000000 ) ;
#374 = AXIS2_PLACEMENT_3D ( 'NONE', #124, #725, #118 ) ;
#375 = EDGE_CURVE ( 'NONE', #147, #151, #281, .T. ) ;
#376 = CARTESIAN_POINT ( 'NONE',  ( 0.000000000000000000, -2.000000000000006217, 43.00000000000000000 ) ) ;
#377 = DIRECTION ( 'NONE',  ( -1.000000000000000000, -1.196361017915039486E-16, 0.000000000000000000 ) ) ;
#378 = DIRECTION ( 'NONE',  ( -1.000000000000000000, -1.196361017915039732E-16, -0.000000000000000000 ) ) ;
#379 = ORIENTED_EDGE ( 'NONE', *, *, #10, .F. ) ;
#380 = CARTESIAN_POINT ( 'NONE',  ( 38.00000000000000000, 0.000000000000000000, 50.00000000000000000 ) ) ;
#381 = DIRECTION ( 'NONE',  ( 0.000000000000000000, 0.000000000000000000, -1.000000000000000000 ) ) ;
#382 = VERTEX_POINT ( 'NONE', #355 ) ;
#383 = CIRCLE ( 'NONE', #508, 1.599999999999998090 ) ;
#384 = DIRECTION ( 'NONE',  ( -1.000000000000000000, 0.000000000000000000, 0.000000000000000000 ) ) ;
#385 = ORIENTED_EDGE ( 'NONE', *, *, #919, .F. ) ;
#386 = DIRECTION ( 'NONE',  ( -0.000000000000000000, -1.000000000000000000, -0.000000000000000000 ) ) ;
#387 = VERTEX_POINT ( 'NONE', #804 ) ;
#388 = EDGE_CURVE ( 'NONE', #15, #681, #327, .T. ) ;
#389 = CYLINDRICAL_SURFACE ( 'NONE', #730, 1.600000000000004086 ) ;
#390 = EDGE_LOOP ( 'NONE', ( #674, #574 ) ) ;
#391 = CLOSED_SHELL ( 'NONE', ( #261, #276, #626, #889, #99, #875, #669, #538, #331, #807, #796, #507, #962, #586, #425, #254, #525, #45, #869, #104, #159, #454, #636, #856, #420, #301, #768, #247 ) ) ;
#392 = CIRCLE ( 'NONE', #219, 1.599999999999997202 ) ;
#393 = EDGE_LOOP ( 'NONE', ( #644, #516 ) ) ;
#394 = DIRECTION ( 'NONE',  ( 1.239088197126290817E-16, -1.000000000000000000, 0.000000000000000000 ) ) ;
#395 = ORIENTED_EDGE ( 'NONE', *, *, #909, .F. ) ;
#396 = EDGE_CURVE ( 'NONE', #511, #475, #341, .T. ) ;
#397 = DIRECTION ( 'NONE',  ( -0.000000000000000000, -1.000000000000000000, -0.000000000000000000 ) ) ;
#398 = DIRECTION ( 'NONE',  ( -1.000000000000000000, -1.196361017915039486E-16, 0.000000000000000000 ) ) ;
#399 = EDGE_LOOP ( 'NONE', ( #568, #43, #480, #529 ) ) ;
#400 = DIRECTION ( 'NONE',  ( 1.000000000000000000, 0.000000000000000000, 0.000000000000000000 ) ) ;
#401 = ORIENTED_EDGE ( 'NONE', *, *, #114, .T. ) ;
#402 = DIRECTION ( 'NONE',  ( 0.000000000000000000, 0.000000000000000000, -1.000000000000000000 ) ) ;
#403 = EDGE_CURVE ( 'NONE', #207, #634, #655, .T. ) ;
#404 = AXIS2_PLACEMENT_3D ( 'NONE', #956, #506, #205 ) ;
#405 = DIRECTION ( 'NONE',  ( -1.000000000000000000, -1.196361017915039486E-16, 0.000000000000000000 ) ) ;
#406 = VERTEX_POINT ( 'NONE', #41 ) ;
#407 = VERTEX_POINT ( 'NONE', #46 ) ;
#408 = DIRECTION ( 'NONE',  ( 0.000000000000000000, 0.000000000000000000, 1.000000000000000000 ) ) ;
#409 =( LENGTH_UNIT ( ) NAMED_UNIT ( * ) SI_UNIT ( .MILLI., .METRE. ) );
#410 = DIRECTION ( 'NONE',  ( -1.000000000000000000, -1.196361017915039732E-16, -0.000000000000000000 ) ) ;
#411 = VECTOR ( 'NONE', #979, 1000.000000000000000 ) ;
#412 = ORIENTED_EDGE ( 'NONE', *, *, #292, .F. ) ;
#413 = VECTOR ( 'NONE', #555, 1000.000000000000000 ) ;
#414 = CARTESIAN_POINT ( 'NONE',  ( 0.000000000000000000, 4.829999999999993854, 32.34000000000001052 ) ) ;
#415 = FACE_OUTER_BOUND ( 'NONE', #298, .T. ) ;
#416 = VERTEX_POINT ( 'NONE', #211 ) ;
#417 = CIRCLE ( 'NONE', #171, 1.599999999999997202 ) ;
#418 = MECHANICAL_DESIGN_GEOMETRIC_PRESENTATION_REPRESENTATION (  '', ( #651 ), #978 ) ;
#419 = ORIENTED_EDGE ( 'NONE', *, *, #825, .T. ) ;
#420 = ADVANCED_FACE ( 'NONE', ( #285 ), #649, .F. ) ;
#421 = DIRECTION ( 'NONE',  ( 0.000000000000000000, -1.000000000000000000, 0.000000000000000000 ) ) ;
#422 = CARTESIAN_POINT ( 'NONE',  ( 20.00000000000000000, 0.000000000000000000, 12.31740050056588132 ) ) ;
#423 = LINE ( 'NONE', #878, #827 ) ;
#424 = EDGE_LOOP ( 'NONE', ( #419, #983 ) ) ;
#425 = ADVANCED_FACE ( 'NONE', ( #729 ), #867, .F. ) ;
#426 = AXIS2_PLACEMENT_3D ( 'NONE', #263, #779, #543 ) ;
#427 = DIRECTION ( 'NONE',  ( 0.000000000000000000, 0.000000000000000000, -1.000000000000000000 ) ) ;
#428 = LINE ( 'NONE', #337, #326 ) ;
#429 = ORIENTED_EDGE ( 'NONE', *, *, #185, .T. ) ;
#430 = APPLICATION_CONTEXT ( 'automotive_design' ) ;
#431 = DIRECTION ( 'NONE',  ( 0.000000000000000000, 0.000000000000000000, -1.000000000000000000 ) ) ;
#432 = EDGE_CURVE ( 'NONE', #169, #833, #52, .T. ) ;
#433 = CARTESIAN_POINT ( 'NONE',  ( 38.00000000000000000, 0.000000000000000000, 50.00000000000000000 ) ) ;
#434 = AXIS2_PLACEMENT_3D ( 'NONE', #924, #266, #402 ) ;
#435 = DIRECTION ( 'NONE',  ( -1.000000000000000000, 0.000000000000000000, 0.000000000000000000 ) ) ;
#436 = LINE ( 'NONE', #442, #197 ) ;
#437 = VERTEX_POINT ( 'NONE', #798 ) ;
#438 = DIRECTION ( 'NONE',  ( -1.000000000000000000, -1.196361017915039732E-16, -0.000000000000000000 ) ) ;
#439 = CARTESIAN_POINT ( 'NONE',  ( 0.000000000000000000, 0.000000000000000000, 0.000000000000000000 ) ) ;
#440 = FACE_OUTER_BOUND ( 'NONE', #77, .T. ) ;
#441 = EDGE_LOOP ( 'NONE', ( #689, #713, #546, #188 ) ) ;
#442 = CARTESIAN_POINT ( 'NONE',  ( 47.00000000000000711, 5.279999999999998472, 7.920000000000003482 ) ) ;
#443 = DIRECTION ( 'NONE',  ( 0.000000000000000000, -1.000000000000000000, 0.000000000000000000 ) ) ;
#444 = VECTOR ( 'NONE', #907, 1000.000000000000000 ) ;
#445 = CYLINDRICAL_SURFACE ( 'NONE', #772, 1.599999999999998979 ) ;
#446 = CYLINDRICAL_SURFACE ( 'NONE', #564, 1.599999999999997202 ) ;
#447 = CARTESIAN_POINT ( 'NONE',  ( 32.00000000000000000, 0.000000000000000000, 10.71740050056588345 ) ) ;
#448 = EDGE_CURVE ( 'NONE', #25, #119, #637, .T. ) ;
#449 = AXIS2_PLACEMENT_3D ( 'NONE', #510, #282, #959 ) ;
#450 = DIRECTION ( 'NONE',  ( 0.000000000000000000, -1.000000000000000000, 0.000000000000000000 ) ) ;
#451 = ORIENTED_EDGE ( 'NONE', *, *, #919, .T. ) ;
#452 = DIRECTION ( 'NONE',  ( -2.891205793294681778E-16, 1.000000000000000000, 0.000000000000000000 ) ) ;
#453 = VERTEX_POINT ( 'NONE', #806 ) ;
#454 = ADVANCED_FACE ( 'NONE', ( #570 ), #873, .F. ) ;
#455 = AXIS2_PLACEMENT_3D ( 'NONE', #744, #64, #892 ) ;
#456 = DIRECTION ( 'NONE',  ( 0.000000000000000000, 0.000000000000000000, 1.000000000000000000 ) ) ;
#457 = FACE_OUTER_BOUND ( 'NONE', #272, .T. ) ;
#458 = ORIENTED_EDGE ( 'NONE', *, *, #954, .F. ) ;
#459 = FACE_BOUND ( 'NONE', #424, .T. ) ;
#460 = EDGE_LOOP ( 'NONE', ( #805, #93, #504, #726 ) ) ;
#461 = CARTESIAN_POINT ( 'NONE',  ( 38.00000000000000000, 0.000000000000000000, 0.000000000000000000 ) ) ;
#462 = EDGE_CURVE ( 'NONE', #766, #848, #721, .T. ) ;
#463 = CARTESIAN_POINT ( 'NONE',  ( 0.000000000000000000, 3.000000000000000000, 0.000000000000000000 ) ) ;
#464 = ORIENTED_EDGE ( 'NONE', *, *, #153, .T. ) ;
#465 = AXIS2_PLACEMENT_3D ( 'NONE', #834, #398, #770 ) ;
#466 = DIRECTION ( 'NONE',  ( -1.000000000000000000, -1.196361017915039486E-16, 0.000000000000000000 ) ) ;
#467 = CARTESIAN_POINT ( 'NONE',  ( 0.000000000000000000, 17.34999999999999076, 43.00000000000000000 ) ) ;
#468 = DIRECTION ( 'NONE',  ( -0.000000000000000000, -0.000000000000000000, -1.000000000000000000 ) ) ;
#469 = EDGE_CURVE ( 'NONE', #728, #407, #952, .T. ) ;
#470 = ORIENTED_EDGE ( 'NONE', *, *, #462, .T. ) ;
#471 = DIRECTION ( 'NONE',  ( 0.000000000000000000, -1.000000000000000000, 0.000000000000000000 ) ) ;
#472 = FACE_OUTER_BOUND ( 'NONE', #174, .T. ) ;
#473 = CIRCLE ( 'NONE', #123, 1.600000000000002531 ) ;
#474 = CARTESIAN_POINT ( 'NONE',  ( 38.00000000000000000, 3.000000000000000000, 50.00000000000000000 ) ) ;
#475 = VERTEX_POINT ( 'NONE', #131 ) ;
#476 = FACE_BOUND ( 'NONE', #495, .T. ) ;
#477 = ORIENTED_EDGE ( 'NONE', *, *, #448, .T. ) ;
#478 = FACE_OUTER_BOUND ( 'NONE', #904, .T. ) ;
#479 = CARTESIAN_POINT ( 'NONE',  ( 20.00000000000000000, 50.00000000000000000, 35.80159272817569160 ) ) ;
#480 = ORIENTED_EDGE ( 'NONE', *, *, #403, .T. ) ;
#481 = EDGE_CURVE ( 'NONE', #260, #250, #428, .T. ) ;
#482 = DIRECTION ( 'NONE',  ( -0.000000000000000000, -1.000000000000000000, -0.000000000000000000 ) ) ;
#483 = ORIENTED_EDGE ( 'NONE', *, *, #432, .F. ) ;
#484 = CIRCLE ( 'NONE', #173, 1.600000000000002531 ) ;
#485 =( GEOMETRIC_REPRESENTATION_CONTEXT ( 3 ) GLOBAL_UNCERTAINTY_ASSIGNED_CONTEXT ( ( #862 ) ) GLOBAL_UNIT_ASSIGNED_CONTEXT ( ( #899, #225, #598 ) ) REPRESENTATION_CONTEXT ( 'NONE', 'WORKASPACE' ) );
#486 = CARTESIAN_POINT ( 'NONE',  ( -2.999999999999996891, -3.600000000000004530, 43.00000000000000000 ) ) ;
#487 = CARTESIAN_POINT ( 'NONE',  ( 0.000000000000000000, 21.99999999999999645, 50.00000000000000000 ) ) ;
#488 = CARTESIAN_POINT ( 'NONE',  ( 47.00000000000000711, 6.879999999999999893, 21.68000000000000327 ) ) ;
#489 = VERTEX_POINT ( 'NONE', #948 ) ;
#490 = EDGE_CURVE ( 'NONE', #489, #728, #575, .T. ) ;
#491 = DIRECTION ( 'NONE',  ( 0.000000000000000000, 1.000000000000000000, 0.000000000000000000 ) ) ;
#492 = DIRECTION ( 'NONE',  ( 0.000000000000000000, 1.000000000000000000, 0.000000000000000000 ) ) ;
#493 = CARTESIAN_POINT ( 'NONE',  ( 47.00000000000000711, 8.480000000000002203, 7.920000000000003482 ) ) ;
#494 = VECTOR ( 'NONE', #664, 1000.000000000000000 ) ;
#495 = EDGE_LOOP ( 'NONE', ( #741, #318 ) ) ;
#496 = PRODUCT_DEFINITION_SHAPE ( 'NONE', 'NONE',  #86 ) ;
#497 = EDGE_CURVE ( 'NONE', #437, #207, #801, .T. ) ;
#498 = FACE_BOUND ( 'NONE', #126, .T. ) ;
#499 = FACE_OUTER_BOUND ( 'NONE', #141, .T. ) ;
#500 = DIRECTION ( 'NONE',  ( 0.000000000000000000, 0.000000000000000000, 1.000000000000000000 ) ) ;
#501 = ORIENTED_EDGE ( 'NONE', *, *, #292, .T. ) ;
#502 = EDGE_LOOP ( 'NONE', ( #628, #599, #939, #248 ) ) ;
#503 = DIRECTION ( 'NONE',  ( -0.000000000000000000, -1.000000000000000000, -0.000000000000000000 ) ) ;
#504 = ORIENTED_EDGE ( 'NONE', *, *, #27, .F. ) ;
#505 = CARTESIAN_POINT ( 'NONE',  ( -2.999999999999996447, -7.000000000000006217, 0.000000000000000000 ) ) ;
#506 = DIRECTION ( 'NONE',  ( 0.000000000000000000, -1.000000000000000000, 0.000000000000000000 ) ) ;
#507 = ADVANCED_FACE ( 'NONE', ( #415 ), #818, .F. ) ;
#508 = AXIS2_PLACEMENT_3D ( 'NONE', #102, #466, #34 ) ;
#509 = CARTESIAN_POINT ( 'NONE',  ( 47.00000000000000711, -2.000000000000000444, 43.00000000000000000 ) ) ;
#510 = CARTESIAN_POINT ( 'NONE',  ( 0.000000000000000000, 21.99999999999999645, 50.00000000000000000 ) ) ;
#511 = VERTEX_POINT ( 'NONE', #755 ) ;
#512 = CARTESIAN_POINT ( 'NONE',  ( 47.00000000000000711, 6.879999999999999893, 7.920000000000003482 ) ) ;
#513 = VECTOR ( 'NONE', #809, 1000.000000000000000 ) ;
#514 = CIRCLE ( 'NONE', #980, 2.050000000000003375 ) ;
#515 = DIRECTION ( 'NONE',  ( 0.000000000000000000, 0.000000000000000000, 1.000000000000000000 ) ) ;
#516 = ORIENTED_EDGE ( 'NONE', *, *, #593, .T. ) ;
#517 = LINE ( 'NONE', #859, #967 ) ;
#518 = DIRECTION ( 'NONE',  ( 0.000000000000000000, 0.000000000000000000, -1.000000000000000000 ) ) ;
#519 = EDGE_CURVE ( 'NONE', #923, #109, #293, .T. ) ;
#520 = UNCERTAINTY_MEASURE_WITH_UNIT (LENGTH_MEASURE( 1.000000000000000082E-05 ), #409, 'distance_accuracy_value', 'NONE');
#521 = CARTESIAN_POINT ( 'NONE',  ( 47.00000000000000711, 6.879999999999999893, 21.68000000000000327 ) ) ;
#522 = SHAPE_DEFINITION_REPRESENTATION ( #496, #702 ) ;
#523 = ORIENTED_EDGE ( 'NONE', *, *, #576, .T. ) ;
#524 = LINE ( 'NONE', #688, #590 ) ;
#525 = ADVANCED_FACE ( 'NONE', ( #440 ), #61, .F. ) ;
#526 = ORIENTED_EDGE ( 'NONE', *, *, #359, .F. ) ;
#527 = CARTESIAN_POINT ( 'NONE',  ( 20.00000000000000000, 3.000000000000002665, 34.20159272817569018 ) ) ;
#528 = ORIENTED_EDGE ( 'NONE', *, *, #490, .F. ) ;
#529 = ORIENTED_EDGE ( 'NONE', *, *, #727, .T. ) ;
#530 = VECTOR ( 'NONE', #561, 1000.000000000000000 ) ;
#531 = DIRECTION ( 'NONE',  ( 0.000000000000000000, -1.000000000000000000, 0.000000000000000000 ) ) ;
#532 = VERTEX_POINT ( 'NONE', #740 ) ;
#533 = EDGE_CURVE ( 'NONE', #532, #923, #748, .T. ) ;
#534 = DIRECTION ( 'NONE',  ( -1.196361017915039486E-16, 1.000000000000000000, 0.000000000000000000 ) ) ;
#535 = ORIENTED_EDGE ( 'NONE', *, *, #497, .F. ) ;
#536 = LINE ( 'NONE', #380, #547 ) ;
#537 = ORIENTED_EDGE ( 'NONE', *, *, #110, .T. ) ;
#538 = ADVANCED_FACE ( 'NONE', ( #223 ), #140, .F. ) ;
#539 = DIRECTION ( 'NONE',  ( 0.000000000000000000, -1.000000000000000000, 0.000000000000000000 ) ) ;
#540 = AXIS2_PLACEMENT_3D ( 'NONE', #565, #736, #408 ) ;
#541 = ORIENTED_EDGE ( 'NONE', *, *, #684, .F. ) ;
#542 = VECTOR ( 'NONE', #317, 1000.000000000000000 ) ;
#543 = DIRECTION ( 'NONE',  ( 0.000000000000000000, 0.000000000000000000, -1.000000000000000000 ) ) ;
#544 = VERTEX_POINT ( 'NONE', #911 ) ;
#545 = DIRECTION ( 'NONE',  ( -1.000000000000000000, 0.000000000000000000, 0.000000000000000000 ) ) ;
#546 = ORIENTED_EDGE ( 'NONE', *, *, #80, .T. ) ;
#547 = VECTOR ( 'NONE', #682, 1000.000000000000000 ) ;
#548 = FACE_BOUND ( 'NONE', #706, .T. ) ;
#549 = EDGE_LOOP ( 'NONE', ( #865, #200 ) ) ;
#550 = AXIS2_PLACEMENT_3D ( 'NONE', #629, #777, #23 ) ;
#551 = PRODUCT_DEFINITION_FORMATION_WITH_SPECIFIED_SOURCE ( 'ANY', '', #641, .NOT_KNOWN. ) ;
#552 = EDGE_CURVE ( 'NONE', #841, #15, #308, .T. ) ;
#553 = FACE_OUTER_BOUND ( 'NONE', #48, .T. ) ;
#554 = ORIENTED_EDGE ( 'NONE', *, *, #175, .T. ) ;
#555 = DIRECTION ( 'NONE',  ( -1.000000000000000000, 0.000000000000000000, 0.000000000000000000 ) ) ;
#556 = DIRECTION ( 'NONE',  ( -1.000000000000000000, 0.000000000000000000, 0.000000000000000000 ) ) ;
#557 = CIRCLE ( 'NONE', #130, 1.599999999999997202 ) ;
#558 = CARTESIAN_POINT ( 'NONE',  ( 20.00000000000000000, 3.000000000000002665, 13.91740050056588451 ) ) ;
#559 = EDGE_LOOP ( 'NONE', ( #87, #325, #874, #177 ) ) ;
#560 = DIRECTION ( 'NONE',  ( 0.000000000000000000, -0.000000000000000000, 1.000000000000000000 ) ) ;
#561 = DIRECTION ( 'NONE',  ( -0.000000000000000000, -1.000000000000000000, -0.000000000000000000 ) ) ;
#562 = CARTESIAN_POINT ( 'NONE',  ( -2.999999999999999112, 15.74999999999999289, 43.00000000000000000 ) ) ;
#563 = ORIENTED_EDGE ( 'NONE', *, *, #576, .F. ) ;
#564 = AXIS2_PLACEMENT_3D ( 'NONE', #891, #680, #208 ) ;
#565 = CARTESIAN_POINT ( 'NONE',  ( 0.000000000000000000, 6.879999999999994564, 7.920000000000003482 ) ) ;
#566 = ORIENTED_EDGE ( 'NONE', *, *, #883, .T. ) ;
#567 = DIRECTION ( 'NONE',  ( -0.000000000000000000, -1.000000000000000000, -0.000000000000000000 ) ) ;
#568 = ORIENTED_EDGE ( 'NONE', *, *, #144, .F. ) ;
#569 = EDGE_CURVE ( 'NONE', #783, #59, #417, .T. ) ;
#570 = FACE_OUTER_BOUND ( 'NONE', #103, .T. ) ;
#571 = ORIENTED_EDGE ( 'NONE', *, *, #533, .T. ) ;
#572 = LINE ( 'NONE', #127, #530 ) ;
#573 = LINE ( 'NONE', #645, #72 ) ;
#574 = ORIENTED_EDGE ( 'NONE', *, *, #569, .F. ) ;
#575 = CIRCLE ( 'NONE', #328, 3.499999999999999556 ) ;
#576 = EDGE_CURVE ( 'NONE', #91, #921, #536, .T. ) ;
#577 = CARTESIAN_POINT ( 'NONE',  ( 47.00000000000000711, -3.599999999999998757, 43.00000000000000000 ) ) ;
#578 = LINE ( 'NONE', #210, #820 ) ;
#579 = DIRECTION ( 'NONE',  ( 1.196361017915039486E-16, -1.000000000000000000, 0.000000000000000000 ) ) ;
#580 = DIRECTION ( 'NONE',  ( -0.000000000000000000, -0.000000000000000000, -1.000000000000000000 ) ) ;
#581 = ORIENTED_EDGE ( 'NONE', *, *, #287, .F. ) ;
#582 = CARTESIAN_POINT ( 'NONE',  ( 38.00000000000000000, 3.000000000000000000, 50.00000000000000000 ) ) ;
#583 = PRODUCT_DEFINITION_CONTEXT ( 'detailed design', #430, 'design' ) ;
#584 = FACE_BOUND ( 'NONE', #691, .T. ) ;
#585 = ORIENTED_EDGE ( 'NONE', *, *, #359, .T. ) ;
#586 = ADVANCED_FACE ( 'NONE', ( #686, #608, #584, #459, #217 ), #238, .F. ) ;
#587 = DIRECTION ( 'NONE',  ( 0.000000000000000000, 0.000000000000000000, 1.000000000000000000 ) ) ;
#588 = FACE_BOUND ( 'NONE', #595, .T. ) ;
#589 = PRESENTATION_LAYER_ASSIGNMENT (  '', '', ( #651 ) ) ;
#590 = VECTOR ( 'NONE', #617, 1000.000000000000000 ) ;
#591 = FACE_OUTER_BOUND ( 'NONE', #502, .T. ) ;
#592 = ORIENTED_EDGE ( 'NONE', *, *, #203, .F. ) ;
#593 = EDGE_CURVE ( 'NONE', #756, #218, #720, .T. ) ;
#594 = FACE_OUTER_BOUND ( 'NONE', #597, .T. ) ;
#595 = EDGE_LOOP ( 'NONE', ( #650, #107 ) ) ;
#596 = DIRECTION ( 'NONE',  ( 1.196361017915039486E-16, -1.000000000000000000, 0.000000000000000000 ) ) ;
#597 = EDGE_LOOP ( 'NONE', ( #614, #668, #98, #571 ) ) ;
#598 =( NAMED_UNIT ( * ) SI_UNIT ( $, .STERADIAN. ) SOLID_ANGLE_UNIT ( ) );
#599 = ORIENTED_EDGE ( 'NONE', *, *, #469, .T. ) ;
#600 = CARTESIAN_POINT ( 'NONE',  ( -2.999999999999998224, 6.879999999999993676, 7.920000000000003482 ) ) ;
#601 = ORIENTED_EDGE ( 'NONE', *, *, #432, .T. ) ;
#602 = EDGE_CURVE ( 'NONE', #791, #928, #676, .T. ) ;
#603 = CARTESIAN_POINT ( 'NONE',  ( 47.00000000000000711, 4.829999999999999183, 32.34000000000001052 ) ) ;
#604 = ORIENTED_EDGE ( 'NONE', *, *, #490, .T. ) ;
#605 = LINE ( 'NONE', #981, #639 ) ;
#606 = ORIENTED_EDGE ( 'NONE', *, *, #661, .F. ) ;
#607 = CIRCLE ( 'NONE', #310, 1.600000000000002531 ) ;
#608 = FACE_BOUND ( 'NONE', #835, .T. ) ;
#609 = VERTEX_POINT ( 'NONE', #815 ) ;
#610 = EDGE_CURVE ( 'NONE', #406, #309, #252, .T. ) ;
#611 = FACE_BOUND ( 'NONE', #696, .T. ) ;
#612 = ORIENTED_EDGE ( 'NONE', *, *, #144, .T. ) ;
#613 = CARTESIAN_POINT ( 'NONE',  ( 32.00000000000000000, 0.000000000000000000, 37.40159272817569303 ) ) ;
#614 = ORIENTED_EDGE ( 'NONE', *, *, #519, .T. ) ;
#615 = CYLINDRICAL_SURFACE ( 'NONE', #204, 1.599999999999997202 ) ;
#616 = CARTESIAN_POINT ( 'NONE',  ( 0.000000000000000000, -2.000000000000006217, 43.00000000000000000 ) ) ;
#617 = DIRECTION ( 'NONE',  ( -1.000000000000000000, -1.196361017915039732E-16, -0.000000000000000000 ) ) ;
#618 = VERTEX_POINT ( 'NONE', #527 ) ;
#619 = FACE_BOUND ( 'NONE', #346, .T. ) ;
#620 = EDGE_LOOP ( 'NONE', ( #759, #912 ) ) ;
#621 = LINE ( 'NONE', #931, #751 ) ;
#622 = VECTOR ( 'NONE', #596, 1000.000000000000000 ) ;
#623 = LINE ( 'NONE', #176, #413 ) ;
#624 = ORIENTED_EDGE ( 'NONE', *, *, #469, .F. ) ;
#625 = CIRCLE ( 'NONE', #814, 1.600000000000004086 ) ;
#626 = ADVANCED_FACE ( 'NONE', ( #591 ), #897, .F. ) ;
#627 = CARTESIAN_POINT ( 'NONE',  ( -2.999999999999996891, -2.000000000000006661, 43.00000000000000000 ) ) ;
#628 = ORIENTED_EDGE ( 'NONE', *, *, #153, .F. ) ;
#629 = CARTESIAN_POINT ( 'NONE',  ( 47.00000000000000000, 15.75000000000000000, 43.00000000000000000 ) ) ;
#630 = LINE ( 'NONE', #765, #37 ) ;
#631 = DIRECTION ( 'NONE',  ( 0.000000000000000000, 1.000000000000000000, 0.000000000000000000 ) ) ;
#632 = EDGE_CURVE ( 'NONE', #91, #453, #984, .T. ) ;
#633 = VECTOR ( 'NONE', #400, 1000.000000000000000 ) ;
#634 = VERTEX_POINT ( 'NONE', #447 ) ;
#635 = ORIENTED_EDGE ( 'NONE', *, *, #139, .T. ) ;
#636 = ADVANCED_FACE ( 'NONE', ( #157 ), #760, .F. ) ;
#637 = LINE ( 'NONE', #58, #754 ) ;
#638 = ORIENTED_EDGE ( 'NONE', *, *, #937, .F. ) ;
#639 = VECTOR ( 'NONE', #468, 1000.000000000000000 ) ;
#640 = SURFACE_SIDE_STYLE ('',( #336 ) ) ;
#641 = PRODUCT ( 'Team-A4_motor-holder-right', 'Team-A4_motor-holder-right', '', ( #234 ) ) ;
#642 = CARTESIAN_POINT ( 'NONE',  ( 32.00000000000000000, 50.00000000000000000, 10.71740050056588345 ) ) ;
#643 = ORIENTED_EDGE ( 'NONE', *, *, #80, .F. ) ;
#644 = ORIENTED_EDGE ( 'NONE', *, *, #684, .T. ) ;
#645 = CARTESIAN_POINT ( 'NONE',  ( -2.999999999999996447, -7.000000000000006217, 0.000000000000000000 ) ) ;
#646 = VERTEX_POINT ( 'NONE', #16 ) ;
#647 = EDGE_CURVE ( 'NONE', #685, #475, #145, .T. ) ;
#648 = DIRECTION ( 'NONE',  ( 0.000000000000000000, 0.000000000000000000, -1.000000000000000000 ) ) ;
#649 = CYLINDRICAL_SURFACE ( 'NONE', #70, 1.600000000000001643 ) ;
#650 = ORIENTED_EDGE ( 'NONE', *, *, #610, .T. ) ;
#651 = STYLED_ITEM ( 'NONE', ( #333 ), #56 ) ;
#652 = CYLINDRICAL_SURFACE ( 'NONE', #854, 1.600000000000001643 ) ;
#653 = CIRCLE ( 'NONE', #354, 1.600000000000004086 ) ;
#654 = CARTESIAN_POINT ( 'NONE',  ( 32.00000000000000000, 50.00000000000000000, 13.91740050056587918 ) ) ;
#655 = LINE ( 'NONE', #642, #877 ) ;
#656 = EDGE_LOOP ( 'NONE', ( #401, #96, #918, #470 ) ) ;
#657 = CARTESIAN_POINT ( 'NONE',  ( 20.00000000000000000, 50.00000000000000000, 12.31740050056588132 ) ) ;
#658 = DIRECTION ( 'NONE',  ( -1.000000000000000000, -1.196361017915039486E-16, 0.000000000000000000 ) ) ;
#659 = CARTESIAN_POINT ( 'NONE',  ( 0.000000000000000000, 6.879999999999994564, 21.68000000000000327 ) ) ;
#660 = CARTESIAN_POINT ( 'NONE',  ( 20.00000000000000000, 3.000000000000002665, 12.31740050056588132 ) ) ;
#661 = EDGE_CURVE ( 'NONE', #928, #833, #853, .T. ) ;
#662 = AXIS2_PLACEMENT_3D ( 'NONE', #808, #732, #443 ) ;
#663 = CIRCLE ( 'NONE', #101, 1.599999999999997202 ) ;
#664 = DIRECTION ( 'NONE',  ( -0.000000000000000000, -1.000000000000000000, -0.000000000000000000 ) ) ;
#665 = CARTESIAN_POINT ( 'NONE',  ( 32.00000000000000000, 3.000000000000002665, 35.80159272817569160 ) ) ;
#666 = ORIENTED_EDGE ( 'NONE', *, *, #901, .F. ) ;
#667 = APPLICATION_PROTOCOL_DEFINITION ( 'draft international standard', 'automotive_design', 1998, #749 ) ;
#668 = ORIENTED_EDGE ( 'NONE', *, *, #175, .F. ) ;
#669 = ADVANCED_FACE ( 'NONE', ( #553 ), #389, .F. ) ;
#670 = CARTESIAN_POINT ( 'NONE',  ( 32.00000000000000000, 50.00000000000000000, 37.40159272817569303 ) ) ;
#671 = DIRECTION ( 'NONE',  ( 0.000000000000000000, -1.000000000000000000, 0.000000000000000000 ) ) ;
#672 = AXIS2_PLACEMENT_3D ( 'NONE', #488, #787, #936 ) ;
#673 = CARTESIAN_POINT ( 'NONE',  ( -2.999999999999999112, 17.34999999999999076, 43.00000000000000000 ) ) ;
#674 = ORIENTED_EDGE ( 'NONE', *, *, #221, .F. ) ;
#675 = AXIS2_PLACEMENT_3D ( 'NONE', #665, #829, #917 ) ;
#676 = LINE ( 'NONE', #903, #28 ) ;
#677 = ORIENTED_EDGE ( 'NONE', *, *, #552, .F. ) ;
#678 = CARTESIAN_POINT ( 'NONE',  ( -2.999999999999996891, -0.4000000000000084044, 43.00000000000000000 ) ) ;
#679 = DIRECTION ( 'NONE',  ( -1.000000000000000000, -1.196361017915039486E-16, 0.000000000000000000 ) ) ;
#680 = DIRECTION ( 'NONE',  ( -0.000000000000000000, -1.000000000000000000, -0.000000000000000000 ) ) ;
#681 = VERTEX_POINT ( 'NONE', #181 ) ;
#682 = DIRECTION ( 'NONE',  ( 0.000000000000000000, 1.000000000000000000, 0.000000000000000000 ) ) ;
#683 = FACE_OUTER_BOUND ( 'NONE', #771, .T. ) ;
#684 = EDGE_CURVE ( 'NONE', #218, #756, #321, .T. ) ;
#685 = VERTEX_POINT ( 'NONE', #781 ) ;
#686 = FACE_BOUND ( 'NONE', #620, .T. ) ;
#687 = ORIENTED_EDGE ( 'NONE', *, *, #925, .T. ) ;
#688 = CARTESIAN_POINT ( 'NONE',  ( 47.00000000000000711, 8.929999999999999716, 32.34000000000001052 ) ) ;
#689 = ORIENTED_EDGE ( 'NONE', *, *, #697, .F. ) ;
#690 = DIRECTION ( 'NONE',  ( 0.000000000000000000, 0.000000000000000000, -1.000000000000000000 ) ) ;
#691 = EDGE_LOOP ( 'NONE', ( #604, #464 ) ) ;
#692 = CIRCLE ( 'NONE', #253, 1.599999999999998979 ) ;
#693 = CARTESIAN_POINT ( 'NONE',  ( 32.00000000000000000, 0.000000000000000000, 12.31740050056588132 ) ) ;
#694 = ORIENTED_EDGE ( 'NONE', *, *, #352, .F. ) ;
#695 = CARTESIAN_POINT ( 'NONE',  ( 0.000000000000000000, -0.4000000000000077938, 43.00000000000000000 ) ) ;
#696 = EDGE_LOOP ( 'NONE', ( #960, #858 ) ) ;
#697 = EDGE_CURVE ( 'NONE', #309, #406, #7, .T. ) ;
#698 = VECTOR ( 'NONE', #146, 1000.000000000000000 ) ;
#699 = CIRCLE ( 'NONE', #792, 1.599999999999997202 ) ;
#700 = DIRECTION ( 'NONE',  ( 0.000000000000000000, -1.000000000000000000, 0.000000000000000000 ) ) ;
#701 = ORIENTED_EDGE ( 'NONE', *, *, #714, .F. ) ;
#702 = ADVANCED_BREP_SHAPE_REPRESENTATION ( 'Team-A4_motor-holder-right', ( #56, #881 ), #485 ) ;
#703 = CARTESIAN_POINT ( 'NONE',  ( 47.00000000000000711, 3.380000000000000338, 21.68000000000000327 ) ) ;
#704 = PRODUCT_RELATED_PRODUCT_CATEGORY ( 'part', '', ( #641 ) ) ;
#705 = DIRECTION ( 'NONE',  ( -0.000000000000000000, -1.000000000000000000, -0.000000000000000000 ) ) ;
#706 = EDGE_LOOP ( 'NONE', ( #860, #643 ) ) ;
#707 = CARTESIAN_POINT ( 'NONE',  ( 20.00000000000000000, 50.00000000000000000, 34.20159272817569018 ) ) ;
#708 = VECTOR ( 'NONE', #857, 1000.000000000000000 ) ;
#709 = EDGE_CURVE ( 'NONE', #898, #753, #557, .T. ) ;
#710 = DIRECTION ( 'NONE',  ( -1.000000000000000000, 0.000000000000000000, 0.000000000000000000 ) ) ;
#711 = CARTESIAN_POINT ( 'NONE',  ( 0.000000000000000000, -7.000000000000005329, 50.00000000000000000 ) ) ;
#712 = ORIENTED_EDGE ( 'NONE', *, *, #901, .T. ) ;
#713 = ORIENTED_EDGE ( 'NONE', *, *, #803, .T. ) ;
#714 = EDGE_CURVE ( 'NONE', #25, #532, #623, .T. ) ;
#715 = LINE ( 'NONE', #66, #411 ) ;
#716 = AXIS2_PLACEMENT_3D ( 'NONE', #243, #24, #690 ) ;
#717 = DIRECTION ( 'NONE',  ( -1.000000000000000000, -1.196361017915039732E-16, -0.000000000000000000 ) ) ;
#718 = ORIENTED_EDGE ( 'NONE', *, *, #71, .F. ) ;
#719 = ORIENTED_EDGE ( 'NONE', *, *, #65, .T. ) ;
#720 = CIRCLE ( 'NONE', #675, 1.599999999999997202 ) ;
#721 = LINE ( 'NONE', #810, #976 ) ;
#722 = ORIENTED_EDGE ( 'NONE', *, *, #40, .F. ) ;
#723 = DIRECTION ( 'NONE',  ( 1.239088197126290817E-16, -1.000000000000000000, 0.000000000000000000 ) ) ;
#724 = DIRECTION ( 'NONE',  ( -0.000000000000000000, -0.000000000000000000, -1.000000000000000000 ) ) ;
#725 = DIRECTION ( 'NONE',  ( 0.000000000000000000, -1.000000000000000000, 0.000000000000000000 ) ) ;
#726 = ORIENTED_EDGE ( 'NONE', *, *, #2, .T. ) ;
#727 = EDGE_CURVE ( 'NONE', #634, #646, #789, .T. ) ;
#728 = VERTEX_POINT ( 'NONE', #850 ) ;
#729 = FACE_OUTER_BOUND ( 'NONE', #975, .T. ) ;
#730 = AXIS2_PLACEMENT_3D ( 'NONE', #479, #705, #941 ) ;
#731 = VERTEX_POINT ( 'NONE', #163 ) ;
#732 = DIRECTION ( 'NONE',  ( -1.000000000000000000, -1.196361017915039732E-16, -0.000000000000000000 ) ) ;
#733 = LINE ( 'NONE', #439, #513 ) ;
#734 = CARTESIAN_POINT ( 'NONE',  ( -2.999999999999998224, 6.879999999999993676, 32.34000000000001052 ) ) ;
#735 = CIRCLE ( 'NONE', #913, 2.050000000000003375 ) ;
#736 = DIRECTION ( 'NONE',  ( -1.000000000000000000, 0.000000000000000000, 0.000000000000000000 ) ) ;
#737 = CIRCLE ( 'NONE', #864, 1.600000000000001643 ) ;
#738 = EDGE_CURVE ( 'NONE', #833, #928, #383, .T. ) ;
#739 = CARTESIAN_POINT ( 'NONE',  ( 0.000000000000000000, 3.000000000000000000, 0.000000000000000000 ) ) ;
#740 = CARTESIAN_POINT ( 'NONE',  ( -3.000000000000000000, 21.99999999999999645, 50.00000000000000000 ) ) ;
#741 = ORIENTED_EDGE ( 'NONE', *, *, #727, .F. ) ;
#742 = CYLINDRICAL_SURFACE ( 'NONE', #812, 1.599999999999998090 ) ;
#743 = EDGE_CURVE ( 'NONE', #766, #91, #313, .T. ) ;
#744 = CARTESIAN_POINT ( 'NONE',  ( 32.00000000000000000, 50.00000000000000000, 35.80159272817569160 ) ) ;
#745 = ORIENTED_EDGE ( 'NONE', *, *, #185, .F. ) ;
#746 = DIRECTION ( 'NONE',  ( 0.000000000000000000, 0.000000000000000000, -1.000000000000000000 ) ) ;
#747 = LINE ( 'NONE', #68, #947 ) ;
#748 = LINE ( 'NONE', #69, #201 ) ;
#749 = APPLICATION_CONTEXT ( 'automotive_design' ) ;
#750 = AXIS2_PLACEMENT_3D ( 'NONE', #290, #384, #515 ) ;
#751 = VECTOR ( 'NONE', #251, 1000.000000000000000 ) ;
#752 = FACE_OUTER_BOUND ( 'NONE', #953, .T. ) ;
#753 = VERTEX_POINT ( 'NONE', #178 ) ;
#754 = VECTOR ( 'NONE', #580, 1000.000000000000000 ) ;
#755 = CARTESIAN_POINT ( 'NONE',  ( 0.000000000000000000, 8.479999999999996874, 7.920000000000003482 ) ) ;
#756 = VERTEX_POINT ( 'NONE', #31 ) ;
#757 = EDGE_CURVE ( 'NONE', #753, #382, #21, .T. ) ;
#758 = DIRECTION ( 'NONE',  ( 0.000000000000000000, 0.000000000000000000, -1.000000000000000000 ) ) ;
#759 = ORIENTED_EDGE ( 'NONE', *, *, #937, .T. ) ;
#760 = CYLINDRICAL_SURFACE ( 'NONE', #778, 1.600000000000002531 ) ;
#761 = VERTEX_POINT ( 'NONE', #168 ) ;
#762 = LINE ( 'NONE', #235, #542 ) ;
#763 = VECTOR ( 'NONE', #319, 1000.000000000000000 ) ;
#764 = ORIENTED_EDGE ( 'NONE', *, *, #191, .F. ) ;
#765 = CARTESIAN_POINT ( 'NONE',  ( 38.00000000000000000, 3.000000000000000000, 50.00000000000000000 ) ) ;
#766 = VERTEX_POINT ( 'NONE', #329 ) ;
#767 = ORIENTED_EDGE ( 'NONE', *, *, #757, .T. ) ;
#768 = ADVANCED_FACE ( 'NONE', ( #105 ), #332, .F. ) ;
#769 = VECTOR ( 'NONE', #371, 1000.000000000000000 ) ;
#770 = DIRECTION ( 'NONE',  ( 0.000000000000000000, -1.000000000000000000, 0.000000000000000000 ) ) ;
#771 = EDGE_LOOP ( 'NONE', ( #117, #638, #767, #501 ) ) ;
#772 = AXIS2_PLACEMENT_3D ( 'NONE', #166, #236, #671 ) ;
#773 = ORIENTED_EDGE ( 'NONE', *, *, #203, .T. ) ;
#774 = DIRECTION ( 'NONE',  ( 0.000000000000000000, 0.000000000000000000, -1.000000000000000000 ) ) ;
#775 = VERTEX_POINT ( 'NONE', #855 ) ;
#776 = EDGE_CURVE ( 'NONE', #921, #156, #630, .T. ) ;
#777 = DIRECTION ( 'NONE',  ( -1.000000000000000000, -1.196361017915039732E-16, -0.000000000000000000 ) ) ;
#778 = AXIS2_PLACEMENT_3D ( 'NONE', #372, #482, #92 ) ;
#779 = DIRECTION ( 'NONE',  ( 0.000000000000000000, -1.000000000000000000, 0.000000000000000000 ) ) ;
#780 = ORIENTED_EDGE ( 'NONE', *, *, #233, .F. ) ;
#781 = CARTESIAN_POINT ( 'NONE',  ( -2.999999999999998224, 5.279999999999992255, 7.920000000000003482 ) ) ;
#782 = CIRCLE ( 'NONE', #434, 1.599999999999997202 ) ;
#783 = VERTEX_POINT ( 'NONE', #613 ) ;
#784 = EDGE_CURVE ( 'NONE', #407, #731, #165, .T. ) ;
#785 = CYLINDRICAL_SURFACE ( 'NONE', #662, 1.599999999999998090 ) ;
#786 = ORIENTED_EDGE ( 'NONE', *, *, #883, .F. ) ;
#787 = DIRECTION ( 'NONE',  ( -1.000000000000000000, -1.196361017915039732E-16, -0.000000000000000000 ) ) ;
#788 = ORIENTED_EDGE ( 'NONE', *, *, #352, .T. ) ;
#789 = CIRCLE ( 'NONE', #926, 1.599999999999997202 ) ;
#790 = FACE_OUTER_BOUND ( 'NONE', #227, .T. ) ;
#791 = VERTEX_POINT ( 'NONE', #695 ) ;
#792 = AXIS2_PLACEMENT_3D ( 'NONE', #154, #160, #456 ) ;
#793 = DIRECTION ( 'NONE',  ( -1.000000000000000000, 0.000000000000000000, 0.000000000000000000 ) ) ;
#794 = ORIENTED_EDGE ( 'NONE', *, *, #396, .T. ) ;
#795 = FILL_AREA_STYLE ('',( #942 ) ) ;
#796 = ADVANCED_FACE ( 'NONE', ( #548, #619, #847, #476, #961 ), #38, .F. ) ;
#797 = AXIS2_PLACEMENT_3D ( 'NONE', #734, #350, #345 ) ;
#798 = CARTESIAN_POINT ( 'NONE',  ( 32.00000000000000000, 3.000000000000002665, 13.91740050056587918 ) ) ;
#799 = ORIENTED_EDGE ( 'NONE', *, *, #55, .F. ) ;
#800 = AXIS2_PLACEMENT_3D ( 'NONE', #108, #849, #258 ) ;
#801 = CIRCLE ( 'NONE', #374, 1.599999999999997202 ) ;
#802 = LINE ( 'NONE', #51, #861 ) ;
#803 = EDGE_CURVE ( 'NONE', #309, #544, #715, .T. ) ;
#804 = CARTESIAN_POINT ( 'NONE',  ( 20.00000000000000000, 0.000000000000000000, 10.71740050056587812 ) ) ;
#805 = ORIENTED_EDGE ( 'NONE', *, *, #55, .T. ) ;
#806 = CARTESIAN_POINT ( 'NONE',  ( 38.00000000000000000, 0.000000000000000000, 0.000000000000000000 ) ) ;
#807 = ADVANCED_FACE ( 'NONE', ( #817, #356 ), #288, .F. ) ;
#808 = CARTESIAN_POINT ( 'NONE',  ( 47.00000000000000711, -2.000000000000000444, 43.00000000000000000 ) ) ;
#809 = DIRECTION ( 'NONE',  ( 1.000000000000000000, 0.000000000000000000, 0.000000000000000000 ) ) ;
#810 = CARTESIAN_POINT ( 'NONE',  ( 0.000000000000000000, 0.000000000000000000, 50.00000000000000000 ) ) ;
#811 = ORIENTED_EDGE ( 'NONE', *, *, #844, .F. ) ;
#812 = AXIS2_PLACEMENT_3D ( 'NONE', #509, #378, #896 ) ;
#813 = EDGE_CURVE ( 'NONE', #218, #59, #517, .T. ) ;
#814 = AXIS2_PLACEMENT_3D ( 'NONE', #914, #3, #518 ) ;
#815 = CARTESIAN_POINT ( 'NONE',  ( 20.00000000000000000, 3.000000000000002665, 37.40159272817570013 ) ) ;
#816 = ORIENTED_EDGE ( 'NONE', *, *, #552, .T. ) ;
#817 = FACE_BOUND ( 'NONE', #9, .T. ) ;
#818 = PLANE ( 'NONE',  #843 ) ;
#819 = ORIENTED_EDGE ( 'NONE', *, *, #287, .T. ) ;
#820 = VECTOR ( 'NONE', #220, 1000.000000000000000 ) ;
#821 = AXIS2_PLACEMENT_3D ( 'NONE', #364, #658, #723 ) ;
#822 = ORIENTED_EDGE ( 'NONE', *, *, #836, .T. ) ;
#823 = CARTESIAN_POINT ( 'NONE',  ( 38.00000000000000000, 0.000000000000000000, 50.00000000000000000 ) ) ;
#824 = ORIENTED_EDGE ( 'NONE', *, *, #647, .F. ) ;
#825 = EDGE_CURVE ( 'NONE', #158, #511, #870, .T. ) ;
#826 = FACE_BOUND ( 'NONE', #320, .T. ) ;
#827 = VECTOR ( 'NONE', #271, 1000.000000000000000 ) ;
#828 = ORIENTED_EDGE ( 'NONE', *, *, #925, .F. ) ;
#829 = DIRECTION ( 'NONE',  ( 0.000000000000000000, -1.000000000000000000, 0.000000000000000000 ) ) ;
#830 = ORIENTED_EDGE ( 'NONE', *, *, #825, .F. ) ;
#831 = DIRECTION ( 'NONE',  ( 0.000000000000000000, 0.000000000000000000, 1.000000000000000000 ) ) ;
#832 = CARTESIAN_POINT ( 'NONE',  ( -2.999999999999996447, -7.000000000000006217, 50.00000000000000000 ) ) ;
#833 = VERTEX_POINT ( 'NONE', #486 ) ;
#834 = CARTESIAN_POINT ( 'NONE',  ( -2.999999999999998224, 6.879999999999993676, 7.920000000000003482 ) ) ;
#835 = EDGE_LOOP ( 'NONE', ( #162, #302 ) ) ;
#836 = EDGE_CURVE ( 'NONE', #898, #112, #578, .T. ) ;
#837 = AXIS2_PLACEMENT_3D ( 'NONE', #521, #303, #232 ) ;
#838 = FACE_BOUND ( 'NONE', #916, .T. ) ;
#839 = ORIENTED_EDGE ( 'NONE', *, *, #602, .T. ) ;
#840 = DIRECTION ( 'NONE',  ( -1.000000000000000000, -1.196361017915039486E-16, 0.000000000000000000 ) ) ;
#841 = VERTEX_POINT ( 'NONE', #414 ) ;
#842 = DIRECTION ( 'NONE',  ( -0.000000000000000000, -1.000000000000000000, -0.000000000000000000 ) ) ;
#843 = AXIS2_PLACEMENT_3D ( 'NONE', #360, #435, #83 ) ;
#844 = EDGE_CURVE ( 'NONE', #756, #783, #362, .T. ) ;
#845 = ORIENTED_EDGE ( 'NONE', *, *, #738, .F. ) ;
#846 = COLOUR_RGB ( '',0.7921568627450980005, 0.8196078431372548767, 0.9333333333333333481 ) ;
#847 = FACE_BOUND ( 'NONE', #390, .T. ) ;
#848 = VERTEX_POINT ( 'NONE', #192 ) ;
#849 = DIRECTION ( 'NONE',  ( -1.000000000000000000, -1.196361017915039732E-16, -0.000000000000000000 ) ) ;
#850 = CARTESIAN_POINT ( 'NONE',  ( 0.000000000000000000, 10.37999999999999368, 21.68000000000000327 ) ) ;
#851 = EDGE_LOOP ( 'NONE', ( #312, #830, #53, #134 ) ) ;
#852 = LINE ( 'NONE', #33, #708 ) ;
#853 = CIRCLE ( 'NONE', #347, 1.599999999999998090 ) ;
#854 = AXIS2_PLACEMENT_3D ( 'NONE', #512, #438, #137 ) ;
#855 = CARTESIAN_POINT ( 'NONE',  ( 0.000000000000000000, -7.000000000000005329, 0.000000000000000000 ) ) ;
#856 = ADVANCED_FACE ( 'NONE', ( #62 ), #785, .F. ) ;
#857 = DIRECTION ( 'NONE',  ( -1.000000000000000000, 0.000000000000000000, 0.000000000000000000 ) ) ;
#858 = ORIENTED_EDGE ( 'NONE', *, *, #139, .F. ) ;
#859 = CARTESIAN_POINT ( 'NONE',  ( 32.00000000000000000, 50.00000000000000000, 34.20159272817569729 ) ) ;
#860 = ORIENTED_EDGE ( 'NONE', *, *, #18, .F. ) ;
#861 = VECTOR ( 'NONE', #492, 1000.000000000000000 ) ;
#862 = UNCERTAINTY_MEASURE_WITH_UNIT (LENGTH_MEASURE( 1.000000000000000082E-05 ), #899, 'distance_accuracy_value', 'NONE');
#863 = LINE ( 'NONE', #707, #14 ) ;
#864 = AXIS2_PLACEMENT_3D ( 'NONE', #600, #679, #920 ) ;
#865 = ORIENTED_EDGE ( 'NONE', *, *, #265, .T. ) ;
#866 = PLANE ( 'NONE',  #29 ) ;
#867 = PLANE ( 'NONE',  #449 ) ;
#868 = EDGE_LOOP ( 'NONE', ( #935, #822, #429, #879 ) ) ;
#869 = ADVANCED_FACE ( 'NONE', ( #214 ), #132, .T. ) ;
#870 = CIRCLE ( 'NONE', #540, 1.600000000000002531 ) ;
#871 = DIRECTION ( 'NONE',  ( -1.000000000000000000, 0.000000000000000000, 0.000000000000000000 ) ) ;
#872 = AXIS2_PLACEMENT_3D ( 'NONE', #376, #73, #831 ) ;
#873 = CYLINDRICAL_SURFACE ( 'NONE', #370, 1.600000000000004086 ) ;
#874 = ORIENTED_EDGE ( 'NONE', *, *, #343, .T. ) ;
#875 = ADVANCED_FACE ( 'NONE', ( #972 ), #335, .F. ) ;
#876 = CARTESIAN_POINT ( 'NONE',  ( -2.999999999999997780, 4.829999999999992966, 32.34000000000001052 ) ) ;
#877 = VECTOR ( 'NONE', #503, 1000.000000000000000 ) ;
#878 = CARTESIAN_POINT ( 'NONE',  ( 0.000000000000000000, 3.000000000000000000, 50.00000000000000000 ) ) ;
#879 = ORIENTED_EDGE ( 'NONE', *, *, #757, .F. ) ;
#880 = VECTOR ( 'NONE', #410, 1000.000000000000000 ) ;
#881 = AXIS2_PLACEMENT_3D ( 'NONE', #85, #1, #305 ) ;
#882 = DIRECTION ( 'NONE',  ( -0.000000000000000000, -0.000000000000000000, -1.000000000000000000 ) ) ;
#883 = EDGE_CURVE ( 'NONE', #156, #25, #884, .T. ) ;
#884 = LINE ( 'NONE', #964, #245 ) ;
#885 = DIRECTION ( 'NONE',  ( -0.000000000000000000, -1.000000000000000000, -0.000000000000000000 ) ) ;
#886 = CARTESIAN_POINT ( 'NONE',  ( 20.00000000000000000, 50.00000000000000000, 35.80159272817569160 ) ) ;
#887 = EDGE_LOOP ( 'NONE', ( #239, #307, #224, #338 ) ) ;
#888 = AXIS2_PLACEMENT_3D ( 'NONE', #259, #249, #471 ) ;
#889 = ADVANCED_FACE ( 'NONE', ( #790 ), #652, .F. ) ;
#890 = DIRECTION ( 'NONE',  ( 0.000000000000000000, -1.000000000000000000, 0.000000000000000000 ) ) ;
#891 = CARTESIAN_POINT ( 'NONE',  ( 32.00000000000000000, 50.00000000000000000, 12.31740050056588132 ) ) ;
#892 = DIRECTION ( 'NONE',  ( 0.000000000000000000, 0.000000000000000000, -1.000000000000000000 ) ) ;
#893 = AXIS2_PLACEMENT_3D ( 'NONE', #284, #982, #63 ) ;
#894 = AXIS2_PLACEMENT_3D ( 'NONE', #8, #306, #534 ) ;
#895 = DIRECTION ( 'NONE',  ( 0.000000000000000000, -1.000000000000000000, 0.000000000000000000 ) ) ;
#896 = DIRECTION ( 'NONE',  ( 0.000000000000000000, -1.000000000000000000, 0.000000000000000000 ) ) ;
#897 = CYLINDRICAL_SURFACE ( 'NONE', #837, 3.499999999999999556 ) ;
#898 = VERTEX_POINT ( 'NONE', #467 ) ;
#899 =( LENGTH_UNIT ( ) NAMED_UNIT ( * ) SI_UNIT ( .MILLI., .METRE. ) );
#900 = CARTESIAN_POINT ( 'NONE',  ( 32.00000000000000000, 50.00000000000000000, 35.80159272817569160 ) ) ;
#901 = EDGE_CURVE ( 'NONE', #453, #416, #240, .T. ) ;
#902 = ORIENTED_EDGE ( 'NONE', *, *, #954, .T. ) ;
#903 = CARTESIAN_POINT ( 'NONE',  ( 47.00000000000000711, -0.4000000000000023537, 43.00000000000000000 ) ) ;
#904 = EDGE_LOOP ( 'NONE', ( #780, #82, #635, #677 ) ) ;
#905 = ORIENTED_EDGE ( 'NONE', *, *, #65, .F. ) ;
#906 = CIRCLE ( 'NONE', #821, 3.499999999999999556 ) ;
#907 = DIRECTION ( 'NONE',  ( 0.000000000000000000, 1.000000000000000000, 0.000000000000000000 ) ) ;
#908 = DIRECTION ( 'NONE',  ( 0.000000000000000000, -1.000000000000000000, 0.000000000000000000 ) ) ;
#909 = EDGE_CURVE ( 'NONE', #921, #416, #762, .T. ) ;
#910 = EDGE_LOOP ( 'NONE', ( #719, #526, #231, #212 ) ) ;
#911 = CARTESIAN_POINT ( 'NONE',  ( 20.00000000000000000, 0.000000000000000000, 13.91740050056588451 ) ) ;
#912 = ORIENTED_EDGE ( 'NONE', *, *, #709, .T. ) ;
#913 = AXIS2_PLACEMENT_3D ( 'NONE', #121, #556, #76 ) ;
#914 = CARTESIAN_POINT ( 'NONE',  ( 20.00000000000000000, 3.000000000000002665, 35.80159272817569160 ) ) ;
#915 = CIRCLE ( 'NONE', #125, 1.599999999999998979 ) ;
#916 = EDGE_LOOP ( 'NONE', ( #845, #606 ) ) ;
#917 = DIRECTION ( 'NONE',  ( 0.000000000000000000, 0.000000000000000000, -1.000000000000000000 ) ) ;
#918 = ORIENTED_EDGE ( 'NONE', *, *, #743, .F. ) ;
#919 = EDGE_CURVE ( 'NONE', #791, #169, #663, .T. ) ;
#920 = DIRECTION ( 'NONE',  ( 0.000000000000000000, -1.000000000000000000, 0.000000000000000000 ) ) ;
#921 = VERTEX_POINT ( 'NONE', #474 ) ;
#922 = CARTESIAN_POINT ( 'NONE',  ( -2.999999999999998224, 6.879999999999993676, 21.68000000000000327 ) ) ;
#923 = VERTEX_POINT ( 'NONE', #95 ) ;
#924 = CARTESIAN_POINT ( 'NONE',  ( 32.00000000000000000, 3.000000000000002665, 12.31740050056588132 ) ) ;
#925 = EDGE_CURVE ( 'NONE', #169, #791, #229, .T. ) ;
#926 = AXIS2_PLACEMENT_3D ( 'NONE', #934, #256, #774 ) ;
#927 = AXIS2_PLACEMENT_3D ( 'NONE', #357, #895, #138 ) ;
#928 = VERTEX_POINT ( 'NONE', #678 ) ;
#929 = CARTESIAN_POINT ( 'NONE',  ( 0.000000000000000000, 0.000000000000000000, 50.00000000000000000 ) ) ;
#930 = ORIENTED_EDGE ( 'NONE', *, *, #315, .T. ) ;
#931 = CARTESIAN_POINT ( 'NONE',  ( 20.00000000000000000, 50.00000000000000000, 10.71740050056587812 ) ) ;
#932 = AXIS2_PLACEMENT_3D ( 'NONE', #367, #452, #78 ) ;
#933 = AXIS2_PLACEMENT_3D ( 'NONE', #693, #316, #94 ) ;
#934 = CARTESIAN_POINT ( 'NONE',  ( 32.00000000000000000, 0.000000000000000000, 12.31740050056588132 ) ) ;
#935 = ORIENTED_EDGE ( 'NONE', *, *, #709, .F. ) ;
#936 = DIRECTION ( 'NONE',  ( 0.000000000000000000, -1.000000000000000000, 0.000000000000000000 ) ) ;
#937 = EDGE_CURVE ( 'NONE', #753, #898, #699, .T. ) ;
#938 = CARTESIAN_POINT ( 'NONE',  ( 0.000000000000000000, 15.74999999999999289, 43.00000000000000000 ) ) ;
#939 = ORIENTED_EDGE ( 'NONE', *, *, #784, .T. ) ;
#940 = CYLINDRICAL_SURFACE ( 'NONE', #800, 2.050000000000000711 ) ;
#941 = DIRECTION ( 'NONE',  ( 0.000000000000000000, 0.000000000000000000, -1.000000000000000000 ) ) ;
#942 = FILL_AREA_STYLE_COLOUR ( '', #846 ) ;
#943 = ORIENTED_EDGE ( 'NONE', *, *, #280, .F. ) ;
#944 = CYLINDRICAL_SURFACE ( 'NONE', #550, 1.599999999999998979 ) ;
#945 = ORIENTED_EDGE ( 'NONE', *, *, #10, .T. ) ;
#946 = CARTESIAN_POINT ( 'NONE',  ( 38.00000000000000000, 3.000000000000000000, 0.000000000000000000 ) ) ;
#947 = VECTOR ( 'NONE', #579, 1000.000000000000000 ) ;
#948 = CARTESIAN_POINT ( 'NONE',  ( 0.000000000000000000, 3.379999999999995008, 21.68000000000000327 ) ) ;
#949 = ORIENTED_EDGE ( 'NONE', *, *, #481, .T. ) ;
#950 = EDGE_CURVE ( 'NONE', #618, #609, #365, .T. ) ;
#951 = LINE ( 'NONE', #711, #135 ) ;
#952 = LINE ( 'NONE', #274, #74 ) ;
#953 = EDGE_LOOP ( 'NONE', ( #385, #839, #278, #483 ) ) ;
#954 = EDGE_CURVE ( 'NONE', #731, #407, #906, .T. ) ;
#955 = FACE_BOUND ( 'NONE', #549, .T. ) ;
#956 = CARTESIAN_POINT ( 'NONE',  ( 20.00000000000000000, 0.000000000000000000, 35.80159272817569160 ) ) ;
#957 = EDGE_LOOP ( 'NONE', ( #799, #694, #244, #581, #330, #905, #666, #195 ) ) ;
#958 = DIRECTION ( 'NONE',  ( 0.000000000000000000, 0.000000000000000000, 1.000000000000000000 ) ) ;
#959 = DIRECTION ( 'NONE',  ( 0.000000000000000000, -0.000000000000000000, -1.000000000000000000 ) ) ;
#960 = ORIENTED_EDGE ( 'NONE', *, *, #388, .F. ) ;
#961 = FACE_OUTER_BOUND ( 'NONE', #656, .T. ) ;
#962 = ADVANCED_FACE ( 'NONE', ( #588, #498, #49, #955, #965 ), #348, .F. ) ;
#963 = DIRECTION ( 'NONE',  ( -1.000000000000000000, -1.196361017915039732E-16, -0.000000000000000000 ) ) ;
#964 = CARTESIAN_POINT ( 'NONE',  ( 0.000000000000000000, 3.000000000000000000, 50.00000000000000000 ) ) ;
#965 = FACE_OUTER_BOUND ( 'NONE', #910, .T. ) ;
#966 = DIRECTION ( 'NONE',  ( -1.000000000000000000, 0.000000000000000000, 0.000000000000000000 ) ) ;
#967 = VECTOR ( 'NONE', #186, 1000.000000000000000 ) ;
#968 = CARTESIAN_POINT ( 'NONE',  ( -3.000000000000000000, 21.99999999999999645, 0.000000000000000000 ) ) ;
#969 = ORIENTED_EDGE ( 'NONE', *, *, #375, .F. ) ;
#970 = AXIS2_PLACEMENT_3D ( 'NONE', #922, #840, #394 ) ;
#971 = ORIENTED_EDGE ( 'NONE', *, *, #602, .F. ) ;
#972 = FACE_OUTER_BOUND ( 'NONE', #441, .T. ) ;
#973 = CARTESIAN_POINT ( 'NONE',  ( 0.000000000000000000, 3.000000000000000000, 50.00000000000000000 ) ) ;
#974 = DIRECTION ( 'NONE',  ( -1.000000000000000000, -1.196361017915039732E-16, -0.000000000000000000 ) ) ;
#975 = EDGE_LOOP ( 'NONE', ( #819, #32, #701, #477 ) ) ;
#976 = VECTOR ( 'NONE', #882, 1000.000000000000000 ) ;
#977 = EDGE_CURVE ( 'NONE', #158, #685, #436, .T. ) ;
#978 =( GEOMETRIC_REPRESENTATION_CONTEXT ( 3 ) GLOBAL_UNCERTAINTY_ASSIGNED_CONTEXT ( ( #520 ) ) GLOBAL_UNIT_ASSIGNED_CONTEXT ( ( #409, #270, #182 ) ) REPRESENTATION_CONTEXT ( 'NONE', 'WORKASPACE' ) );
#979 = DIRECTION ( 'NONE',  ( -0.000000000000000000, -1.000000000000000000, -0.000000000000000000 ) ) ;
#980 = AXIS2_PLACEMENT_3D ( 'NONE', #13, #143, #226 ) ;
#981 = CARTESIAN_POINT ( 'NONE',  ( -2.999999999999996447, -7.000000000000006217, 50.00000000000000000 ) ) ;
#982 = DIRECTION ( 'NONE',  ( -1.000000000000000000, -1.196361017915039486E-16, 0.000000000000000000 ) ) ;
#983 = ORIENTED_EDGE ( 'NONE', *, *, #40, .T. ) ;
#984 = LINE ( 'NONE', #823, #698 ) ;
#985 = ORIENTED_EDGE ( 'NONE', *, *, #784, .F. ) ;
ENDSEC;
END-ISO-10303-21;
