ISO-10303-21;
HEADER;
FILE_DESCRIPTION (( 'STEP AP214' ),
    '1' );
FILE_NAME ('Team-A4-Battery+Breadboard.STEP',
    '2026-05-01T22:52:09',
    ( '' ),
    ( '' ),
    'SwSTEP 2.0',
    'SolidWorks 2025',
    '' );
FILE_SCHEMA (( 'AUTOMOTIVE_DESIGN' ));
ENDSEC;

DATA;
#1 = ORIENTED_EDGE ( 'NONE', *, *, #566, .T. ) ;
#2 = CARTESIAN_POINT ( 'NONE',  ( 11.99999999999999645, 28.19999999999999218, 0.000000000000000000 ) ) ;
#3 = DIRECTION ( 'NONE',  ( -1.084202172485504187E-16, 1.000000000000000000, -0.000000000000000000 ) ) ;
#4 = PRODUCT_DEFINITION_SHAPE ( 'NONE', 'NONE',  #553 ) ;
#5 = LINE ( 'NONE', #762, #920 ) ;
#6 = EDGE_CURVE ( 'NONE', #225, #283, #475, .T. ) ;
#7 = EDGE_CURVE ( 'NONE', #225, #146, #641, .T. ) ;
#8 = LINE ( 'NONE', #344, #316 ) ;
#9 = DIRECTION ( 'NONE',  ( 1.000000000000000000, 0.000000000000000000, 0.000000000000000000 ) ) ;
#10 = CARTESIAN_POINT ( 'NONE',  ( 57.50000000000000000, -3.000000000000000000, 20.00000000000000000 ) ) ;
#11 = DIRECTION ( 'NONE',  ( -1.000000000000000000, -0.000000000000000000, -0.000000000000000000 ) ) ;
#12 = DIRECTION ( 'NONE',  ( -0.000000000000000000, 0.000000000000000000, 1.000000000000000000 ) ) ;
#13 = VECTOR ( 'NONE', #312, 1000.000000000000000 ) ;
#14 = DIRECTION ( 'NONE',  ( -0.000000000000000000, -0.000000000000000000, -1.000000000000000000 ) ) ;
#15 = VECTOR ( 'NONE', #324, 1000.000000000000000 ) ;
#16 = DIRECTION ( 'NONE',  ( -1.084202172485504187E-16, 1.000000000000000000, -0.000000000000000000 ) ) ;
#17 = ADVANCED_FACE ( 'NONE', ( #161 ), #575, .F. ) ;
#18 = CARTESIAN_POINT ( 'NONE',  ( 3.000000000000002665, -3.000000000000000000, 0.000000000000000000 ) ) ;
#19 = LINE ( 'NONE', #493, #654 ) ;
#20 = EDGE_CURVE ( 'NONE', #1054, #166, #69, .T. ) ;
#21 = VERTEX_POINT ( 'NONE', #485 ) ;
#22 = ADVANCED_BREP_SHAPE_REPRESENTATION ( '', ( #107, #446 ), #901 ) ;
#23 = DIRECTION ( 'NONE',  ( -0.000000000000000000, -0.000000000000000000, -1.000000000000000000 ) ) ;
#24 = CARTESIAN_POINT ( 'NONE',  ( 15.00000000000000000, 25.19999999999999929, 10.00000000000000000 ) ) ;
#25 = PRODUCT_RELATED_PRODUCT_CATEGORY ( 'part', '', ( #339 ) ) ;
#26 = VERTEX_POINT ( 'NONE', #818 ) ;
#27 = FACE_OUTER_BOUND ( 'NONE', #479, .T. ) ;
#28 = ORIENTED_EDGE ( 'NONE', *, *, #498, .F. ) ;
#29 = AXIS2_PLACEMENT_3D ( 'NONE', #461, #32, #689 ) ;
#30 = LINE ( 'NONE', #515, #919 ) ;
#31 = DIRECTION ( 'NONE',  ( 0.000000000000000000, 0.000000000000000000, 1.000000000000000000 ) ) ;
#32 = DIRECTION ( 'NONE',  ( 1.000000000000000000, 0.000000000000000000, 3.928197317821491882E-16 ) ) ;
#33 = ADVANCED_FACE ( 'NONE', ( #1075 ), #409, .F. ) ;
#34 = ORIENTED_EDGE ( 'NONE', *, *, #1019, .F. ) ;
#35 = EDGE_CURVE ( 'NONE', #875, #186, #908, .T. ) ;
#36 = CARTESIAN_POINT ( 'NONE',  ( 4.249999999999996447, -6.000000000000000000, 8.000000000000000000 ) ) ;
#37 = CARTESIAN_POINT ( 'NONE',  ( 57.50000000000000000, -3.000000000000000000, 0.000000000000000000 ) ) ;
#38 = ORIENTED_EDGE ( 'NONE', *, *, #623, .F. ) ;
#39 =( NAMED_UNIT ( * ) PLANE_ANGLE_UNIT ( ) SI_UNIT ( $, .RADIAN. ) );
#40 = ORIENTED_EDGE ( 'NONE', *, *, #204, .F. ) ;
#41 = CARTESIAN_POINT ( 'NONE',  ( -7.328595018519588832E-17, 3.000000000000000000, 10.00000000000000000 ) ) ;
#42 = CARTESIAN_POINT ( 'NONE',  ( 71.19999999999998863, 3.000000000000007994, 5.000000000000000000 ) ) ;
#43 = VERTEX_POINT ( 'NONE', #1086 ) ;
#44 = AXIS2_PLACEMENT_3D ( 'NONE', #1007, #923, #657 ) ;
#45 = PRODUCT_CONTEXT ( 'NONE', #914, 'mechanical' ) ;
#46 = AXIS2_PLACEMENT_3D ( 'NONE', #301, #369, #930 ) ;
#47 = VECTOR ( 'NONE', #754, 1000.000000000000000 ) ;
#48 = EDGE_CURVE ( 'NONE', #166, #607, #489, .T. ) ;
#49 = VERTEX_POINT ( 'NONE', #1002 ) ;
#50 = DIRECTION ( 'NONE',  ( -0.000000000000000000, -0.000000000000000000, -1.000000000000000000 ) ) ;
#51 = CARTESIAN_POINT ( 'NONE',  ( 62.20000000000000284, 0.000000000000000000, 10.00000000000000000 ) ) ;
#52 = EDGE_CURVE ( 'NONE', #803, #362, #281, .T. ) ;
#53 = ORIENTED_EDGE ( 'NONE', *, *, #728, .F. ) ;
#54 = ORIENTED_EDGE ( 'NONE', *, *, #562, .T. ) ;
#55 = FACE_OUTER_BOUND ( 'NONE', #1071, .T. ) ;
#56 = CARTESIAN_POINT ( 'NONE',  ( 65.20000000000000284, 2.999999999999998668, 10.00000000000000000 ) ) ;
#57 = DIRECTION ( 'NONE',  ( -1.000000000000000000, 0.000000000000000000, 0.000000000000000000 ) ) ;
#58 = ORIENTED_EDGE ( 'NONE', *, *, #823, .F. ) ;
#59 = DIRECTION ( 'NONE',  ( -1.000000000000000000, 0.000000000000000000, -0.000000000000000000 ) ) ;
#60 = DIRECTION ( 'NONE',  ( -0.000000000000000000, -0.000000000000000000, -1.000000000000000000 ) ) ;
#61 = VERTEX_POINT ( 'NONE', #392 ) ;
#62 = VECTOR ( 'NONE', #321, 1000.000000000000000 ) ;
#63 = VERTEX_POINT ( 'NONE', #313 ) ;
#64 = AXIS2_PLACEMENT_3D ( 'NONE', #94, #1040, #1048 ) ;
#65 = FACE_BOUND ( 'NONE', #384, .T. ) ;
#66 = VECTOR ( 'NONE', #366, 1000.000000000000000 ) ;
#67 = LINE ( 'NONE', #251, #724 ) ;
#68 = AXIS2_PLACEMENT_3D ( 'NONE', #371, #451, #695 ) ;
#69 = LINE ( 'NONE', #403, #233 ) ;
#70 = ORIENTED_EDGE ( 'NONE', *, *, #1041, .F. ) ;
#71 = DIRECTION ( 'NONE',  ( 0.000000000000000000, 1.000000000000000000, 0.000000000000000000 ) ) ;
#72 = EDGE_CURVE ( 'NONE', #703, #826, #5, .T. ) ;
#73 = DIRECTION ( 'NONE',  ( 0.000000000000000000, 0.000000000000000000, 1.000000000000000000 ) ) ;
#74 = EDGE_LOOP ( 'NONE', ( #193, #397, #596, #277, #931, #414, #433, #448, #79, #799, #198, #555 ) ) ;
#75 = VERTEX_POINT ( 'NONE', #435 ) ;
#76 = DIRECTION ( 'NONE',  ( 1.000000000000000000, 0.000000000000000000, 0.000000000000000000 ) ) ;
#77 = LINE ( 'NONE', #889, #1009 ) ;
#78 = PRODUCT_DEFINITION ( 'UNKNOWN', '', #547, #783 ) ;
#79 = ORIENTED_EDGE ( 'NONE', *, *, #200, .T. ) ;
#80 = ORIENTED_EDGE ( 'NONE', *, *, #382, .T. ) ;
#81 = DIRECTION ( 'NONE',  ( -1.000000000000000000, -1.084202172485504187E-16, 0.000000000000000000 ) ) ;
#82 = DIRECTION ( 'NONE',  ( 0.000000000000000000, 1.000000000000000000, 0.000000000000000000 ) ) ;
#83 = AXIS2_PLACEMENT_3D ( 'NONE', #551, #389, #804 ) ;
#84 = VECTOR ( 'NONE', #777, 1000.000000000000000 ) ;
#85 =( NAMED_UNIT ( * ) SI_UNIT ( $, .STERADIAN. ) SOLID_ANGLE_UNIT ( ) );
#86 = EDGE_CURVE ( 'NONE', #879, #719, #500, .T. ) ;
#87 = DIRECTION ( 'NONE',  ( 1.000000000000000000, 0.000000000000000000, 0.000000000000000000 ) ) ;
#88 = FACE_OUTER_BOUND ( 'NONE', #589, .T. ) ;
#89 = SURFACE_SIDE_STYLE ('',( #586 ) ) ;
#90 = DIRECTION ( 'NONE',  ( -1.084202172485504187E-16, 1.000000000000000000, -0.000000000000000000 ) ) ;
#91 = DIRECTION ( 'NONE',  ( -1.000000000000000000, -1.084202172485506036E-16, 0.000000000000000000 ) ) ;
#92 = LINE ( 'NONE', #928, #615 ) ;
#93 = EDGE_CURVE ( 'NONE', #897, #1028, #92, .T. ) ;
#94 = CARTESIAN_POINT ( 'NONE',  ( 15.00000000000000000, 0.000000000000000000, 10.00000000000000000 ) ) ;
#95 = DIRECTION ( 'NONE',  ( -1.000000000000000000, 0.000000000000000000, 0.000000000000000000 ) ) ;
#96 = CIRCLE ( 'NONE', #704, 1.600000000000004086 ) ;
#97 = DIRECTION ( 'NONE',  ( 9.820493294553729705E-17, 0.000000000000000000, 1.000000000000000000 ) ) ;
#98 =( GEOMETRIC_REPRESENTATION_CONTEXT ( 3 ) GLOBAL_UNCERTAINTY_ASSIGNED_CONTEXT ( ( #1024 ) ) GLOBAL_UNIT_ASSIGNED_CONTEXT ( ( #718, #618, #892 ) ) REPRESENTATION_CONTEXT ( 'NONE', 'WORKASPACE' ) );
#99 = ORIENTED_EDGE ( 'NONE', *, *, #642, .F. ) ;
#100 = ADVANCED_FACE ( 'NONE', ( #834 ), #183, .F. ) ;
#101 =( LENGTH_UNIT ( ) NAMED_UNIT ( * ) SI_UNIT ( .MILLI., .METRE. ) );
#102 = DIRECTION ( 'NONE',  ( 1.000000000000000000, 0.000000000000000000, 0.000000000000000000 ) ) ;
#103 = CARTESIAN_POINT ( 'NONE',  ( 77.19999999999998863, 0.000000000000000000, 0.000000000000000000 ) ) ;
#104 = EDGE_LOOP ( 'NONE', ( #541, #243, #701, #542 ) ) ;
#105 = DIRECTION ( 'NONE',  ( -1.000000000000000000, 0.000000000000000000, 0.000000000000000000 ) ) ;
#106 = PRESENTATION_STYLE_ASSIGNMENT (( #694 ) ) ;
#107 = MANIFOLD_SOLID_BREP ( 'Cut-Extrude1', #1012 ) ;
#108 = CARTESIAN_POINT ( 'NONE',  ( 69.59999999999998010, 3.000000000000007994, 5.000000000000000000 ) ) ;
#109 = ADVANCED_BREP_SHAPE_REPRESENTATION ( '', ( #697, #446 ), #565 ) ;
#110 = ORIENTED_EDGE ( 'NONE', *, *, #154, .T. ) ;
#111 = CARTESIAN_POINT ( 'NONE',  ( 57.50000000000000000, -12.80000000000000249, 0.000000000000000000 ) ) ;
#112 = CARTESIAN_POINT ( 'NONE',  ( 3.000000000000003997, -12.80000000000000249, 0.000000000000000000 ) ) ;
#113 = EDGE_CURVE ( 'NONE', #770, #563, #262, .T. ) ;
#114 = CARTESIAN_POINT ( 'NONE',  ( 60.50000000000000000, 0.000000000000000000, 20.00000000000000000 ) ) ;
#115 = VECTOR ( 'NONE', #182, 1000.000000000000000 ) ;
#116 = EDGE_LOOP ( 'NONE', ( #1082, #195, #681, #965 ) ) ;
#117 = EDGE_CURVE ( 'NONE', #43, #878, #581, .T. ) ;
#118 = AXIS2_PLACEMENT_3D ( 'NONE', #700, #976, #801 ) ;
#119 = CARTESIAN_POINT ( 'NONE',  ( 0.000000000000000000, 0.000000000000000000, 0.000000000000000000 ) ) ;
#120 = CARTESIAN_POINT ( 'NONE',  ( 62.20000000000000284, 25.19999999999999929, 0.000000000000000000 ) ) ;
#121 = LINE ( 'NONE', #1038, #266 ) ;
#122 = ORIENTED_EDGE ( 'NONE', *, *, #872, .T. ) ;
#123 = CARTESIAN_POINT ( 'NONE',  ( 0.000000000000000000, 0.000000000000000000, 0.000000000000000000 ) ) ;
#124 = ORIENTED_EDGE ( 'NONE', *, *, #93, .F. ) ;
#125 = CARTESIAN_POINT ( 'NONE',  ( 12.00000000000000355, 3.000000000000001332, 0.000000000000000000 ) ) ;
#126 = CARTESIAN_POINT ( 'NONE',  ( 4.249999999999996447, 0.000000000000000000, 8.000000000000000000 ) ) ;
#127 = APPLICATION_CONTEXT ( 'automotive_design' ) ;
#128 = ORIENTED_EDGE ( 'NONE', *, *, #795, .T. ) ;
#129 = EDGE_CURVE ( 'NONE', #723, #532, #19, .T. ) ;
#130 = VERTEX_POINT ( 'NONE', #177 ) ;
#131 = CARTESIAN_POINT ( 'NONE',  ( 0.000000000000000000, 0.000000000000000000, 20.00000000000000000 ) ) ;
#132 = EDGE_CURVE ( 'NONE', #387, #63, #419, .T. ) ;
#133 = LINE ( 'NONE', #958, #84 ) ;
#134 = ORIENTED_EDGE ( 'NONE', *, *, #849, .T. ) ;
#135 = VECTOR ( 'NONE', #947, 1000.000000000000000 ) ;
#136 = VECTOR ( 'NONE', #71, 1000.000000000000000 ) ;
#137 = ORIENTED_EDGE ( 'NONE', *, *, #819, .T. ) ;
#138 = LINE ( 'NONE', #473, #956 ) ;
#139 = PLANE ( 'NONE',  #1013 ) ;
#140 = ORIENTED_EDGE ( 'NONE', *, *, #756, .F. ) ;
#141 = APPLICATION_PROTOCOL_DEFINITION ( 'draft international standard', 'automotive_design', 1998, #516 ) ;
#142 = APPLICATION_CONTEXT ( 'automotive_design' ) ;
#143 = ORIENTED_EDGE ( 'NONE', *, *, #72, .F. ) ;
#144 = CARTESIAN_POINT ( 'NONE',  ( 71.19999999999998863, 3.000000000000007994, 5.000000000000000000 ) ) ;
#145 = LINE ( 'NONE', #729, #214 ) ;
#146 = VERTEX_POINT ( 'NONE', #103 ) ;
#147 = APPLICATION_PROTOCOL_DEFINITION ( 'draft international standard', 'automotive_design', 1998, #1023 ) ;
#148 = EDGE_LOOP ( 'NONE', ( #774, #985, #247, #602, #620, #870, #959, #950 ) ) ;
#149 = DIRECTION ( 'NONE',  ( 1.084202172485505913E-16, -1.000000000000000000, 0.000000000000000000 ) ) ;
#150 = LINE ( 'NONE', #18, #115 ) ;
#151 = EDGE_CURVE ( 'NONE', #1042, #803, #751, .T. ) ;
#152 = ORIENTED_EDGE ( 'NONE', *, *, #269, .T. ) ;
#153 = ITEM_DEFINED_TRANSFORMATION ( 'NONE', 'NONE', #334,  #446 ) ;
#154 = EDGE_CURVE ( 'NONE', #21, #875, #357, .T. ) ;
#155 = AXIS2_PLACEMENT_3D ( 'NONE', #223, #196, #682 ) ;
#156 = VERTEX_POINT ( 'NONE', #748 ) ;
#157 = VECTOR ( 'NONE', #733, 1000.000000000000000 ) ;
#158 = CARTESIAN_POINT ( 'NONE',  ( 62.20000000000000284, 0.000000000000000000, 10.00000000000000000 ) ) ;
#159 = COLOUR_RGB ( '',0.7921568627450980005, 0.8196078431372548767, 0.9333333333333333481 ) ;
#160 = CARTESIAN_POINT ( 'NONE',  ( 4.400000000000000355, 3.000000000000000444, 5.000000000000000000 ) ) ;
#161 = FACE_OUTER_BOUND ( 'NONE', #842, .T. ) ;
#162 = EDGE_LOOP ( 'NONE', ( #971, #991, #143, #152 ) ) ;
#163 = CARTESIAN_POINT ( 'NONE',  ( 62.20000000000000284, 25.19999999999999929, 10.00000000000000000 ) ) ;
#164 = CARTESIAN_POINT ( 'NONE',  ( -7.328595018519588832E-17, 3.000000000000000000, 0.000000000000000000 ) ) ;
#165 = DIRECTION ( 'NONE',  ( -1.000000000000000000, -0.000000000000000000, -0.000000000000000000 ) ) ;
#166 = VERTEX_POINT ( 'NONE', #346 ) ;
#167 = CARTESIAN_POINT ( 'NONE',  ( 4.249999999999996447, 0.000000000000000000, 8.000000000000000000 ) ) ;
#168 = PLANE ( 'NONE',  #598 ) ;
#169 = EDGE_CURVE ( 'NONE', #532, #601, #354, .T. ) ;
#170 = DIRECTION ( 'NONE',  ( -1.000000000000000000, -1.304303365396095688E-16, 0.000000000000000000 ) ) ;
#171 = PRODUCT_DEFINITION_SHAPE ( 'NONE', 'NONE',  #78 ) ;
#172 = CARTESIAN_POINT ( 'NONE',  ( 56.24999999999999289, -3.000000000000000000, 2.091765071739944200E-14 ) ) ;
#173 = VECTOR ( 'NONE', #492, 1000.000000000000000 ) ;
#174 = CIRCLE ( 'NONE', #899, 1.599999999999999867 ) ;
#175 = DIRECTION ( 'NONE',  ( -4.391705002472929091E-16, 1.000000000000000000, 0.000000000000000000 ) ) ;
#176 = CIRCLE ( 'NONE', #317, 1.600000000000004086 ) ;
#177 = CARTESIAN_POINT ( 'NONE',  ( 15.00000000000000000, 25.19999999999999929, 0.000000000000000000 ) ) ;
#178 = LINE ( 'NONE', #502, #843 ) ;
#179 = LINE ( 'NONE', #503, #993 ) ;
#180 = SURFACE_STYLE_USAGE ( .BOTH. , #89 ) ;
#181 = DIRECTION ( 'NONE',  ( -0.000000000000000000, -0.000000000000000000, -1.000000000000000000 ) ) ;
#182 = DIRECTION ( 'NONE',  ( -0.000000000000000000, -0.000000000000000000, 1.000000000000000000 ) ) ;
#183 = PLANE ( 'NONE',  #417 ) ;
#184 = EDGE_CURVE ( 'NONE', #470, #897, #1010, .T. ) ;
#185 =( REPRESENTATION_RELATIONSHIP ('NONE','NONE', #576, #213 ) REPRESENTATION_RELATIONSHIP_WITH_TRANSFORMATION ( #464 )SHAPE_REPRESENTATION_RELATIONSHIP( ) );
#186 = VERTEX_POINT ( 'NONE', #673 ) ;
#187 = ADVANCED_FACE ( 'NONE', ( #1016 ), #677, .F. ) ;
#188 = CARTESIAN_POINT ( 'NONE',  ( 637.2361189256380385, 862.9774581870799466, 1284.516648511179710 ) ) ;
#189 = ORIENTED_EDGE ( 'NONE', *, *, #282, .T. ) ;
#190 = DIRECTION ( 'NONE',  ( 1.000000000000000000, 0.000000000000000000, 0.000000000000000000 ) ) ;
#191 = VECTOR ( 'NONE', #9, 1000.000000000000000 ) ;
#192 = DIRECTION ( 'NONE',  ( 1.000000000000000000, 0.000000000000000000, 0.000000000000000000 ) ) ;
#193 = ORIENTED_EDGE ( 'NONE', *, *, #72, .T. ) ;
#194 =( NAMED_UNIT ( * ) PLANE_ANGLE_UNIT ( ) SI_UNIT ( $, .RADIAN. ) );
#195 = ORIENTED_EDGE ( 'NONE', *, *, #282, .F. ) ;
#196 = DIRECTION ( 'NONE',  ( 0.000000000000000000, 1.000000000000000000, 0.000000000000000000 ) ) ;
#197 = DIRECTION ( 'NONE',  ( -1.084202172485504187E-16, 1.000000000000000000, 0.000000000000000000 ) ) ;
#198 = ORIENTED_EDGE ( 'NONE', *, *, #670, .T. ) ;
#199 =( LENGTH_UNIT ( ) NAMED_UNIT ( * ) SI_UNIT ( .MILLI., .METRE. ) );
#200 = EDGE_CURVE ( 'NONE', #387, #550, #133, .T. ) ;
#201 = ORIENTED_EDGE ( 'NONE', *, *, #925, .T. ) ;
#202 = CARTESIAN_POINT ( 'NONE',  ( 56.24999999999998579, 0.000000000000000000, 20.00000000000000000 ) ) ;
#203 = LINE ( 'NONE', #952, #722 ) ;
#204 = EDGE_CURVE ( 'NONE', #75, #607, #540, .T. ) ;
#205 = ORIENTED_EDGE ( 'NONE', *, *, #577, .T. ) ;
#206 = CARTESIAN_POINT ( 'NONE',  ( 77.19999999999998863, 3.000000000000000000, 10.00000000000000000 ) ) ;
#207 = CARTESIAN_POINT ( 'NONE',  ( 0.000000000000000000, 0.000000000000000000, 10.00000000000000000 ) ) ;
#208 = AXIS2_PLACEMENT_3D ( 'NONE', #760, #574, #175 ) ;
#209 = AXIS2_PLACEMENT_3D ( 'NONE', #639, #149, #632 ) ;
#210 = EDGE_LOOP ( 'NONE', ( #110, #691, #368, #379 ) ) ;
#211 = VECTOR ( 'NONE', #304, 1000.000000000000000 ) ;
#212 = PRODUCT_DEFINITION_SHAPE ( 'NONE', 'NONE',  #1087 ) ;
#213 = SHAPE_REPRESENTATION ( 'Battery', ( #446 ), #901 ) ;
#214 = VECTOR ( 'NONE', #629, 1000.000000000000000 ) ;
#215 = CARTESIAN_POINT ( 'NONE',  ( 3.000000000000002665, -3.000000000000000000, 8.000000000000000000 ) ) ;
#216 = VERTEX_POINT ( 'NONE', #868 ) ;
#217 = CYLINDRICAL_SURFACE ( 'NONE', #583, 1.600000000000004086 ) ;
#218 = ADVANCED_FACE ( 'NONE', ( #27 ), #786, .F. ) ;
#219 = ORIENTED_EDGE ( 'NONE', *, *, #151, .T. ) ;
#220 = PRODUCT_CONTEXT ( 'NONE', #516, 'mechanical' ) ;
#221 = EDGE_CURVE ( 'NONE', #452, #225, #769, .T. ) ;
#222 = EDGE_LOOP ( 'NONE', ( #383, #1072, #936, #276, #309, #1036, #322, #333, #572, #687, #568, #441 ) ) ;
#223 = CARTESIAN_POINT ( 'NONE',  ( 6.000000000000000000, 0.000000000000000000, 5.000000000000000000 ) ) ;
#224 = LINE ( 'NONE', #291, #758 ) ;
#225 = VERTEX_POINT ( 'NONE', #871 ) ;
#226 = SHAPE_DEFINITION_REPRESENTATION ( #171, #576 ) ;
#227 = ORIENTED_EDGE ( 'NONE', *, *, #6, .F. ) ;
#228 = CARTESIAN_POINT ( 'NONE',  ( 15.00000000000000000, 0.000000000000000000, 10.00000000000000000 ) ) ;
#229 = LINE ( 'NONE', #805, #935 ) ;
#230 = ORIENTED_EDGE ( 'NONE', *, *, #595, .F. ) ;
#231 = COLOUR_RGB ( '',0.7921568627450980005, 0.8196078431372548767, 0.9333333333333333481 ) ;
#232 = PRODUCT_DEFINITION_FORMATION_WITH_SPECIFIED_SOURCE ( 'ANY', '', #866, .NOT_KNOWN. ) ;
#233 = VECTOR ( 'NONE', #1063, 1000.000000000000000 ) ;
#234 = VERTEX_POINT ( 'NONE', #37 ) ;
#235 = DIRECTION ( 'NONE',  ( 1.327594496921025224E-16, -1.000000000000000000, 0.000000000000000000 ) ) ;
#236 = FACE_OUTER_BOUND ( 'NONE', #638, .T. ) ;
#237 = VERTEX_POINT ( 'NONE', #126 ) ;
#238 = ORIENTED_EDGE ( 'NONE', *, *, #771, .T. ) ;
#239 = CARTESIAN_POINT ( 'NONE',  ( 7.599999999999999645, 3.000000000000000444, 5.000000000000000000 ) ) ;
#240 = CARTESIAN_POINT ( 'NONE',  ( 3.000000000000002665, -3.000000000000000000, 0.000000000000000000 ) ) ;
#241 = EDGE_CURVE ( 'NONE', #999, #452, #224, .T. ) ;
#242 = CARTESIAN_POINT ( 'NONE',  ( 77.19999999999998863, 0.000000000000000000, 10.00000000000000000 ) ) ;
#243 = ORIENTED_EDGE ( 'NONE', *, *, #269, .F. ) ;
#244 = DIRECTION ( 'NONE',  ( -0.000000000000000000, -0.000000000000000000, 1.000000000000000000 ) ) ;
#245 = DIRECTION ( 'NONE',  ( 3.928197317821491882E-16, -0.000000000000000000, -1.000000000000000000 ) ) ;
#246 = ORIENTED_EDGE ( 'NONE', *, *, #606, .F. ) ;
#247 = ORIENTED_EDGE ( 'NONE', *, *, #169, .T. ) ;
#248 = VECTOR ( 'NONE', #487, 1000.000000000000000 ) ;
#249 = CARTESIAN_POINT ( 'NONE',  ( 56.24999999999998579, 0.000000000000000000, 20.00000000000000000 ) ) ;
#250 = MECHANICAL_DESIGN_GEOMETRIC_PRESENTATION_REPRESENTATION (  '', ( #977 ), #997 ) ;
#251 = CARTESIAN_POINT ( 'NONE',  ( 15.00000000000000000, 0.000000000000000000, 10.00000000000000000 ) ) ;
#252 = DIRECTION ( 'NONE',  ( 0.000000000000000000, -0.000000000000000000, -1.000000000000000000 ) ) ;
#253 = EDGE_CURVE ( 'NONE', #234, #470, #614, .T. ) ;
#254 = EDGE_CURVE ( 'NONE', #61, #305, #176, .T. ) ;
#255 = EDGE_LOOP ( 'NONE', ( #807, #455, #559, #437 ) ) ;
#256 = CARTESIAN_POINT ( 'NONE',  ( 0.000000000000000000, 0.000000000000000000, 20.00000000000000000 ) ) ;
#257 = DIRECTION ( 'NONE',  ( 0.000000000000000000, 0.000000000000000000, -1.000000000000000000 ) ) ;
#258 = DIRECTION ( 'NONE',  ( -1.084202172485504187E-16, 1.000000000000000000, 0.000000000000000000 ) ) ;
#259 = EDGE_LOOP ( 'NONE', ( #289, #1057, #490, #902 ) ) ;
#260 = DIRECTION ( 'NONE',  ( -1.000000000000000000, 0.000000000000000000, 0.000000000000000000 ) ) ;
#261 = LINE ( 'NONE', #828, #860 ) ;
#262 = LINE ( 'NONE', #683, #512 ) ;
#263 = DIRECTION ( 'NONE',  ( -4.391705002472929091E-16, 1.000000000000000000, -0.000000000000000000 ) ) ;
#264 = VECTOR ( 'NONE', #881, 1000.000000000000000 ) ;
#265 = CARTESIAN_POINT ( 'NONE',  ( 65.20000000000000284, 28.19999999999999929, 10.00000000000000000 ) ) ;
#266 = VECTOR ( 'NONE', #530, 1000.000000000000000 ) ;
#267 = DIRECTION ( 'NONE',  ( 1.327594496921025224E-16, -1.000000000000000000, 0.000000000000000000 ) ) ;
#268 = DIRECTION ( 'NONE',  ( 9.820493294553729705E-17, 0.000000000000000000, 1.000000000000000000 ) ) ;
#269 = EDGE_CURVE ( 'NONE', #703, #388, #964, .T. ) ;
#270 = CARTESIAN_POINT ( 'NONE',  ( 60.50000000000000000, 0.000000000000000000, 0.000000000000000000 ) ) ;
#271 = ADVANCED_FACE ( 'NONE', ( #296 ), #217, .F. ) ;
#272 = FACE_OUTER_BOUND ( 'NONE', #259, .T. ) ;
#273 = ORIENTED_EDGE ( 'NONE', *, *, #925, .F. ) ;
#274 = FACE_OUTER_BOUND ( 'NONE', #74, .T. ) ;
#275 = CARTESIAN_POINT ( 'NONE',  ( 7.600000000000000533, -6.999999999999999112, 5.000000000000000000 ) ) ;
#276 = ORIENTED_EDGE ( 'NONE', *, *, #1019, .T. ) ;
#277 = ORIENTED_EDGE ( 'NONE', *, *, #785, .T. ) ;
#278 = DIRECTION ( 'NONE',  ( -0.000000000000000000, 0.000000000000000000, -1.000000000000000000 ) ) ;
#279 = AXIS2_PLACEMENT_3D ( 'NONE', #112, #699, #963 ) ;
#280 = FILL_AREA_STYLE ('',( #663 ) ) ;
#281 = CIRCLE ( 'NONE', #884, 1.599999999999999867 ) ;
#282 = EDGE_CURVE ( 'NONE', #537, #878, #286, .T. ) ;
#283 = VERTEX_POINT ( 'NONE', #1056 ) ;
#284 = EDGE_CURVE ( 'NONE', #156, #526, #943, .T. ) ;
#285 = DIRECTION ( 'NONE',  ( 1.000000000000000000, 0.000000000000000000, -0.000000000000000000 ) ) ;
#286 = LINE ( 'NONE', #712, #211 ) ;
#287 = ORIENTED_EDGE ( 'NONE', *, *, #678, .F. ) ;
#288 = CARTESIAN_POINT ( 'NONE',  ( 7.599999999999999645, 0.000000000000000000, 5.000000000000000000 ) ) ;
#289 = ORIENTED_EDGE ( 'NONE', *, *, #424, .F. ) ;
#290 = LINE ( 'NONE', #206, #652 ) ;
#291 = CARTESIAN_POINT ( 'NONE',  ( 62.20000000000000284, 25.19999999999999929, 10.00000000000000000 ) ) ;
#292 = EDGE_LOOP ( 'NONE', ( #726, #534, #520, #238 ) ) ;
#293 = LINE ( 'NONE', #359, #975 ) ;
#294 = ORIENTED_EDGE ( 'NONE', *, *, #771, .F. ) ;
#295 = FILL_AREA_STYLE_COLOUR ( '', #231 ) ;
#296 = FACE_OUTER_BOUND ( 'NONE', #709, .T. ) ;
#297 = STYLED_ITEM ( 'NONE', ( #106 ), #697 ) ;
#298 = AXIS2_PLACEMENT_3D ( 'NONE', #496, #922, #87 ) ;
#299 = ORIENTED_EDGE ( 'NONE', *, *, #675, .F. ) ;
#300 = VECTOR ( 'NONE', #1033, 1000.000000000000000 ) ;
#301 = CARTESIAN_POINT ( 'NONE',  ( 0.000000000000000000, 0.000000000000000000, 0.000000000000000000 ) ) ;
#302 = ORIENTED_EDGE ( 'NONE', *, *, #200, .F. ) ;
#303 = LINE ( 'NONE', #36, #135 ) ;
#304 = DIRECTION ( 'NONE',  ( -0.000000000000000000, -0.000000000000000000, -1.000000000000000000 ) ) ;
#305 = VERTEX_POINT ( 'NONE', #108 ) ;
#306 = EDGE_LOOP ( 'NONE', ( #1034, #1053, #34, #962 ) ) ;
#307 = DIRECTION ( 'NONE',  ( 1.000000000000000000, 1.304303365396095688E-16, 0.000000000000000000 ) ) ;
#308 = CARTESIAN_POINT ( 'NONE',  ( 12.00000000000000355, 3.000000000000001332, 10.00000000000000000 ) ) ;
#309 = ORIENTED_EDGE ( 'NONE', *, *, #1008, .T. ) ;
#310 = EDGE_LOOP ( 'NONE', ( #717, #201, #405, #966 ) ) ;
#311 = DIRECTION ( 'NONE',  ( -0.000000000000000000, 0.000000000000000000, 1.000000000000000000 ) ) ;
#312 = DIRECTION ( 'NONE',  ( -1.084202172485504187E-16, 1.000000000000000000, -0.000000000000000000 ) ) ;
#313 = CARTESIAN_POINT ( 'NONE',  ( 65.20000000000000284, 2.999999999999998668, 0.000000000000000000 ) ) ;
#314 = VECTOR ( 'NONE', #942, 1000.000000000000000 ) ;
#315 = EDGE_CURVE ( 'NONE', #624, #532, #203, .T. ) ;
#316 = VECTOR ( 'NONE', #76, 1000.000000000000000 ) ;
#317 = AXIS2_PLACEMENT_3D ( 'NONE', #42, #197, #600 ) ;
#318 = EDGE_LOOP ( 'NONE', ( #998, #28, #1003, #376 ) ) ;
#319 = FACE_OUTER_BOUND ( 'NONE', #524, .T. ) ;
#320 = EDGE_CURVE ( 'NONE', #826, #216, #604, .T. ) ;
#321 = DIRECTION ( 'NONE',  ( 0.000000000000000000, 1.000000000000000000, 0.000000000000000000 ) ) ;
#322 = ORIENTED_EDGE ( 'NONE', *, *, #693, .F. ) ;
#323 = EDGE_LOOP ( 'NONE', ( #820, #891, #482, #128 ) ) ;
#324 = DIRECTION ( 'NONE',  ( 1.000000000000000000, 0.000000000000000000, 0.000000000000000000 ) ) ;
#325 = LINE ( 'NONE', #561, #13 ) ;
#326 = CARTESIAN_POINT ( 'NONE',  ( 77.19999999999998863, 0.000000000000000000, 10.00000000000000000 ) ) ;
#327 = ORIENTED_EDGE ( 'NONE', *, *, #642, .T. ) ;
#328 = PLANE ( 'NONE',  #209 ) ;
#329 = ADVANCED_FACE ( 'NONE', ( #523 ), #857, .F. ) ;
#330 = LINE ( 'NONE', #545, #444 ) ;
#331 = ORIENTED_EDGE ( 'NONE', *, *, #424, .T. ) ;
#332 = EDGE_CURVE ( 'NONE', #797, #166, #121, .T. ) ;
#333 = ORIENTED_EDGE ( 'NONE', *, *, #35, .F. ) ;
#334 = AXIS2_PLACEMENT_3D ( 'NONE', #525, #449, #798 ) ;
#335 = LINE ( 'NONE', #167, #635 ) ;
#336 = VECTOR ( 'NONE', #666, 1000.000000000000000 ) ;
#337 = CARTESIAN_POINT ( 'NONE',  ( 62.20000000000000284, 0.000000000000000000, 0.000000000000000000 ) ) ;
#338 = DIRECTION ( 'NONE',  ( -4.391705002472929091E-16, 1.000000000000000000, -0.000000000000000000 ) ) ;
#339 = PRODUCT ( 'Team-A4-Battery+Breadboard', 'Team-A4-Battery+Breadboard', '', ( #45 ) ) ;
#340 = VERTEX_POINT ( 'NONE', #609 ) ;
#341 = DIRECTION ( 'NONE',  ( 1.327594496921025224E-16, -1.000000000000000000, 0.000000000000000000 ) ) ;
#342 = CARTESIAN_POINT ( 'NONE',  ( 0.000000000000000000, 0.000000000000000000, 0.000000000000000000 ) ) ;
#343 = PRESENTATION_STYLE_ASSIGNMENT (( #180 ) ) ;
#344 = CARTESIAN_POINT ( 'NONE',  ( 0.000000000000000000, 0.000000000000000000, 0.000000000000000000 ) ) ;
#345 = CARTESIAN_POINT ( 'NONE',  ( 3.000000000000002665, -3.000000000000000000, 20.00000000000000000 ) ) ;
#346 = CARTESIAN_POINT ( 'NONE',  ( 60.50000000000000711, -15.80000000000000071, 0.000000000000000000 ) ) ;
#347 = ADVANCED_FACE ( 'NONE', ( #780 ), #375, .F. ) ;
#348 = DIRECTION ( 'NONE',  ( -1.000000000000000000, -1.327594496921025224E-16, 0.000000000000000000 ) ) ;
#349 = VECTOR ( 'NONE', #190, 1000.000000000000000 ) ;
#350 = AXIS2_PLACEMENT_3D ( 'NONE', #782, #680, #845 ) ;
#351 = CARTESIAN_POINT ( 'NONE',  ( 56.24999999999999289, 0.000000000000000000, 8.000000000000000000 ) ) ;
#352 = EDGE_CURVE ( 'NONE', #216, #735, #67, .T. ) ;
#353 = VECTOR ( 'NONE', #422, 1000.000000000000000 ) ;
#354 = LINE ( 'NONE', #924, #336 ) ;
#355 = CARTESIAN_POINT ( 'NONE',  ( 4.249999999999996447, 0.000000000000000000, 8.000000000000000000 ) ) ;
#356 = CARTESIAN_POINT ( 'NONE',  ( 6.000000000000000000, 0.000000000000000000, 5.000000000000000000 ) ) ;
#357 = LINE ( 'NONE', #10, #47 ) ;
#358 = ORIENTED_EDGE ( 'NONE', *, *, #480, .T. ) ;
#359 = CARTESIAN_POINT ( 'NONE',  ( 0.000000000000000000, 0.000000000000000000, 0.000000000000000000 ) ) ;
#360 = ORIENTED_EDGE ( 'NONE', *, *, #363, .F. ) ;
#361 = LINE ( 'NONE', #727, #1047 ) ;
#362 = VERTEX_POINT ( 'NONE', #160 ) ;
#363 = EDGE_CURVE ( 'NONE', #878, #563, #650, .T. ) ;
#364 = SHAPE_REPRESENTATION_RELATIONSHIP ( 'NONE' , 'NONE' ,  #213, #22 ) ;
#365 = CARTESIAN_POINT ( 'NONE',  ( 4.249999999999997335, 0.000000000000000000, 20.00000000000000000 ) ) ;
#366 = DIRECTION ( 'NONE',  ( 1.000000000000000000, 0.000000000000000000, 0.000000000000000000 ) ) ;
#367 = VECTOR ( 'NONE', #263, 1000.000000000000000 ) ;
#368 = ORIENTED_EDGE ( 'NONE', *, *, #795, .F. ) ;
#369 = DIRECTION ( 'NONE',  ( 0.000000000000000000, 0.000000000000000000, 1.000000000000000000 ) ) ;
#370 = PLANE ( 'NONE',  #613 ) ;
#371 = CARTESIAN_POINT ( 'NONE',  ( 11.99999999999999645, 28.19999999999999218, 10.00000000000000000 ) ) ;
#372 = ORIENTED_EDGE ( 'NONE', *, *, #86, .F. ) ;
#373 = LINE ( 'NONE', #865, #429 ) ;
#374 = PRODUCT_DEFINITION_SHAPE ( 'NONE', 'NONE',  #653 ) ;
#375 = PLANE ( 'NONE',  #118 ) ;
#376 = ORIENTED_EDGE ( 'NONE', *, *, #1077, .T. ) ;
#377 = CARTESIAN_POINT ( 'NONE',  ( 0.000000000000000000, 0.000000000000000000, 0.000000000000000000 ) ) ;
#378 = ADVANCED_FACE ( 'NONE', ( #1080 ), #139, .F. ) ;
#379 = ORIENTED_EDGE ( 'NONE', *, *, #408, .T. ) ;
#380 =( NAMED_UNIT ( * ) PLANE_ANGLE_UNIT ( ) SI_UNIT ( $, .RADIAN. ) );
#381 = DIRECTION ( 'NONE',  ( 0.000000000000000000, -1.000000000000000000, 0.000000000000000000 ) ) ;
#382 = EDGE_CURVE ( 'NONE', #63, #43, #145, .T. ) ;
#383 = ORIENTED_EDGE ( 'NONE', *, *, #315, .F. ) ;
#384 = EDGE_LOOP ( 'NONE', ( #205, #978 ) ) ;
#385 = FACE_BOUND ( 'NONE', #323, .T. ) ;
#386 = CARTESIAN_POINT ( 'NONE',  ( 71.19999999999998863, -6.999999999999992006, 5.000000000000000000 ) ) ;
#387 = VERTEX_POINT ( 'NONE', #56 ) ;
#388 = VERTEX_POINT ( 'NONE', #164 ) ;
#389 = DIRECTION ( 'NONE',  ( -1.084202172485504187E-16, 1.000000000000000000, 0.000000000000000000 ) ) ;
#390 = DIRECTION ( 'NONE',  ( 0.000000000000000000, 1.000000000000000000, 0.000000000000000000 ) ) ;
#391 = ADVANCED_FACE ( 'NONE', ( #988, #907 ), #1062, .F. ) ;
#392 = CARTESIAN_POINT ( 'NONE',  ( 72.79999999999998295, 3.000000000000007994, 5.000000000000000000 ) ) ;
#393 = EDGE_CURVE ( 'NONE', #75, #864, #488, .T. ) ;
#394 = ORIENTED_EDGE ( 'NONE', *, *, #254, .F. ) ;
#395 = CARTESIAN_POINT ( 'NONE',  ( 77.19999999999998863, 3.000000000000000000, 10.00000000000000000 ) ) ;
#396 = DIRECTION ( 'NONE',  ( -1.000000000000000000, 0.000000000000000000, 0.000000000000000000 ) ) ;
#397 = ORIENTED_EDGE ( 'NONE', *, *, #320, .T. ) ;
#398 = AXIS2_PLACEMENT_3D ( 'NONE', #569, #711, #307 ) ;
#399 = VECTOR ( 'NONE', #948, 1000.000000000000000 ) ;
#400 = ORIENTED_EDGE ( 'NONE', *, *, #204, .T. ) ;
#401 = CARTESIAN_POINT ( 'NONE',  ( 6.938893903907228378E-15, -15.80000000000000071, 0.000000000000000000 ) ) ;
#402 = LINE ( 'NONE', #716, #1085 ) ;
#403 = CARTESIAN_POINT ( 'NONE',  ( 60.50000000000000711, -15.80000000000000071, 20.00000000000000000 ) ) ;
#404 = ADVANCED_FACE ( 'NONE', ( #236 ), #557, .F. ) ;
#405 = ORIENTED_EDGE ( 'NONE', *, *, #626, .F. ) ;
#406 = FACE_BOUND ( 'NONE', #592, .T. ) ;
#407 = CARTESIAN_POINT ( 'NONE',  ( 0.000000000000000000, 0.000000000000000000, 20.00000000000000000 ) ) ;
#408 = EDGE_CURVE ( 'NONE', #1028, #21, #402, .T. ) ;
#409 = CYLINDRICAL_SURFACE ( 'NONE', #796, 1.599999999999999867 ) ;
#410 = VERTEX_POINT ( 'NONE', #822 ) ;
#411 = CARTESIAN_POINT ( 'NONE',  ( 3.000000000000003997, -12.80000000000000249, 0.000000000000000000 ) ) ;
#412 = DIRECTION ( 'NONE',  ( -0.000000000000000000, -0.000000000000000000, 1.000000000000000000 ) ) ;
#413 = DIRECTION ( 'NONE',  ( -1.000000000000000000, 0.000000000000000000, 0.000000000000000000 ) ) ;
#414 = ORIENTED_EDGE ( 'NONE', *, *, #221, .T. ) ;
#415 = VECTOR ( 'NONE', #105, 1000.000000000000000 ) ;
#416 = DIRECTION ( 'NONE',  ( 0.000000000000000000, 1.000000000000000000, 0.000000000000000000 ) ) ;
#417 = AXIS2_PLACEMENT_3D ( 'NONE', #847, #841, #933 ) ;
#418 = FACE_OUTER_BOUND ( 'NONE', #210, .T. ) ;
#419 = LINE ( 'NONE', #913, #497 ) ;
#420 = FACE_OUTER_BOUND ( 'NONE', #162, .T. ) ;
#421 = CARTESIAN_POINT ( 'NONE',  ( 15.00000000000000000, 25.19999999999999929, 0.000000000000000000 ) ) ;
#422 = DIRECTION ( 'NONE',  ( 4.391705002472929091E-16, -1.000000000000000000, 0.000000000000000000 ) ) ;
#423 = EDGE_CURVE ( 'NONE', #864, #526, #330, .T. ) ;
#424 = EDGE_CURVE ( 'NONE', #340, #61, #325, .T. ) ;
#425 = LINE ( 'NONE', #427, #1011 ) ;
#426 = DIRECTION ( 'NONE',  ( 1.000000000000000000, 0.000000000000000000, 0.000000000000000000 ) ) ;
#427 = CARTESIAN_POINT ( 'NONE',  ( 4.400000000000001243, -6.999999999999999112, 5.000000000000000000 ) ) ;
#428 = UNCERTAINTY_MEASURE_WITH_UNIT (LENGTH_MEASURE( 1.000000000000000082E-05 ), #199, 'distance_accuracy_value', 'NONE');
#429 = VECTOR ( 'NONE', #439, 1000.000000000000000 ) ;
#430 = VECTOR ( 'NONE', #181, 1000.000000000000000 ) ;
#431 = FACE_OUTER_BOUND ( 'NONE', #781, .T. ) ;
#432 =( NAMED_UNIT ( * ) PLANE_ANGLE_UNIT ( ) SI_UNIT ( $, .RADIAN. ) );
#433 = ORIENTED_EDGE ( 'NONE', *, *, #6, .T. ) ;
#434 = CARTESIAN_POINT ( 'NONE',  ( 4.249999999999997335, -3.000000000000000000, 20.00000000000000000 ) ) ;
#435 = CARTESIAN_POINT ( 'NONE',  ( 60.50000000000000000, 0.000000000000000000, 20.00000000000000000 ) ) ;
#436 = EDGE_CURVE ( 'NONE', #897, #443, #77, .T. ) ;
#437 = ORIENTED_EDGE ( 'NONE', *, *, #498, .T. ) ;
#438 = ORIENTED_EDGE ( 'NONE', *, *, #738, .F. ) ;
#439 = DIRECTION ( 'NONE',  ( 2.442865006173196175E-17, -1.000000000000000000, 0.000000000000000000 ) ) ;
#440 = DIRECTION ( 'NONE',  ( 0.000000000000000000, -1.000000000000000000, 0.000000000000000000 ) ) ;
#441 = ORIENTED_EDGE ( 'NONE', *, *, #169, .F. ) ;
#442 = CARTESIAN_POINT ( 'NONE',  ( 60.50000000000000711, -15.80000000000000071, 20.00000000000000000 ) ) ;
#443 = VERTEX_POINT ( 'NONE', #640 ) ;
#444 = VECTOR ( 'NONE', #245, 1000.000000000000000 ) ;
#445 = LINE ( 'NONE', #527, #880 ) ;
#446 = AXIS2_PLACEMENT_3D ( 'NONE', #377, #939, #597 ) ;
#447 = DIRECTION ( 'NONE',  ( 0.000000000000000000, -0.000000000000000000, 1.000000000000000000 ) ) ;
#448 = ORIENTED_EDGE ( 'NONE', *, *, #823, .T. ) ;
#449 = DIRECTION ( 'NONE',  ( 0.000000000000000000, 0.000000000000000000, 1.000000000000000000 ) ) ;
#450 = LINE ( 'NONE', #202, #314 ) ;
#451 = DIRECTION ( 'NONE',  ( 1.000000000000000000, 2.753529326947313913E-16, -0.000000000000000000 ) ) ;
#452 = VERTEX_POINT ( 'NONE', #813 ) ;
#453 = DIRECTION ( 'NONE',  ( 4.391705002472929091E-16, -1.000000000000000000, 0.000000000000000000 ) ) ;
#454 = ADVANCED_FACE ( 'NONE', ( #633, #474 ), #739, .F. ) ;
#455 = ORIENTED_EDGE ( 'NONE', *, *, #742, .F. ) ;
#456 = DIRECTION ( 'NONE',  ( -0.000000000000000000, -0.000000000000000000, -1.000000000000000000 ) ) ;
#457 = CARTESIAN_POINT ( 'NONE',  ( 15.00000000000000000, 25.19999999999999929, 10.00000000000000000 ) ) ;
#458 = VERTEX_POINT ( 'NONE', #968 ) ;
#459 = ORIENTED_EDGE ( 'NONE', *, *, #7, .F. ) ;
#460 = LINE ( 'NONE', #973, #937 ) ;
#461 = CARTESIAN_POINT ( 'NONE',  ( 56.24999999999999289, -6.000000000000000000, 8.000000000000000000 ) ) ;
#462 = CIRCLE ( 'NONE', #83, 1.599999999999999867 ) ;
#463 = ORIENTED_EDGE ( 'NONE', *, *, #132, .T. ) ;
#464 = ITEM_DEFINED_TRANSFORMATION ( 'NONE', 'NONE', #495,  #446 ) ;
#465 = EDGE_CURVE ( 'NONE', #550, #43, #229, .T. ) ;
#466 = ORIENTED_EDGE ( 'NONE', *, *, #117, .F. ) ;
#467 = LINE ( 'NONE', #158, #564 ) ;
#468 = DIRECTION ( 'NONE',  ( 2.753529326947313913E-16, -1.000000000000000000, 0.000000000000000000 ) ) ;
#469 = EDGE_CURVE ( 'NONE', #476, #130, #721, .T. ) ;
#470 = VERTEX_POINT ( 'NONE', #240 ) ;
#471 = APPLICATION_PROTOCOL_DEFINITION ( 'draft international standard', 'automotive_design', 1998, #789 ) ;
#472 = EDGE_LOOP ( 'NONE', ( #767, #294, #929, #548 ) ) ;
#473 = CARTESIAN_POINT ( 'NONE',  ( 57.50000000000000000, -3.000000000000000000, 0.000000000000000000 ) ) ;
#474 = FACE_OUTER_BOUND ( 'NONE', #104, .T. ) ;
#475 = LINE ( 'NONE', #326, #863 ) ;
#476 = VERTEX_POINT ( 'NONE', #895 ) ;
#477 = PLANE ( 'NONE',  #686 ) ;
#478 = DIRECTION ( 'NONE',  ( 0.000000000000000000, 1.000000000000000000, 0.000000000000000000 ) ) ;
#479 = EDGE_LOOP ( 'NONE', ( #605, #612, #887, #953 ) ) ;
#480 = EDGE_CURVE ( 'NONE', #470, #601, #150, .T. ) ;
#481 = CIRCLE ( 'NONE', #155, 1.599999999999999867 ) ;
#482 = ORIENTED_EDGE ( 'NONE', *, *, #93, .T. ) ;
#483 = LINE ( 'NONE', #981, #15 ) ;
#484 = CARTESIAN_POINT ( 'NONE',  ( 11.99999999999999645, 28.19999999999999218, 0.000000000000000000 ) ) ;
#485 = CARTESIAN_POINT ( 'NONE',  ( 57.50000000000000000, -12.80000000000000249, 20.00000000000000000 ) ) ;
#486 = EDGE_LOOP ( 'NONE', ( #869, #38, #360, #466, #989, #246, #909, #848, #438, #230, #732, #627 ) ) ;
#487 = DIRECTION ( 'NONE',  ( 3.928197317821491882E-16, 0.000000000000000000, -1.000000000000000000 ) ) ;
#488 = LINE ( 'NONE', #407, #671 ) ;
#489 = LINE ( 'NONE', #824, #707 ) ;
#490 = ORIENTED_EDGE ( 'NONE', *, *, #528, .T. ) ;
#491 = DIRECTION ( 'NONE',  ( 1.000000000000000000, 0.000000000000000000, 0.000000000000000000 ) ) ;
#492 = DIRECTION ( 'NONE',  ( -0.000000000000000000, -0.000000000000000000, -1.000000000000000000 ) ) ;
#493 = CARTESIAN_POINT ( 'NONE',  ( 4.249999999999995559, -3.000000000000000000, -1.227561661819209804E-16 ) ) ;
#494 = PRESENTATION_LAYER_ASSIGNMENT (  '', '', ( #297 ) ) ;
#495 = AXIS2_PLACEMENT_3D ( 'NONE', #188, #692, #1035 ) ;
#496 = CARTESIAN_POINT ( 'NONE',  ( 0.000000000000000000, 0.000000000000000000, 20.00000000000000000 ) ) ;
#497 = VECTOR ( 'NONE', #1020, 1000.000000000000000 ) ;
#498 = EDGE_CURVE ( 'NONE', #999, #647, #665, .T. ) ;
#499 = PLANE ( 'NONE',  #741 ) ;
#500 = LINE ( 'NONE', #513, #353 ) ;
#501 = ADVANCED_FACE ( 'NONE', ( #418 ), #168, .F. ) ;
#502 = CARTESIAN_POINT ( 'NONE',  ( 6.938893903907228378E-15, -15.80000000000000071, 20.00000000000000000 ) ) ;
#503 = CARTESIAN_POINT ( 'NONE',  ( 77.19999999999998863, 3.000000000000000000, 0.000000000000000000 ) ) ;
#504 = LINE ( 'NONE', #256, #430 ) ;
#505 = CARTESIAN_POINT ( 'NONE',  ( 4.249999999999996447, -6.000000000000000000, 8.000000000000000000 ) ) ;
#506 = ORIENTED_EDGE ( 'NONE', *, *, #742, .T. ) ;
#507 = FACE_OUTER_BOUND ( 'NONE', #710, .T. ) ;
#508 = PRODUCT_DEFINITION_CONTEXT ( 'detailed design', #1023, 'design' ) ;
#509 = VECTOR ( 'NONE', #851, 1000.000000000000000 ) ;
#510 = ADVANCED_FACE ( 'NONE', ( #431 ), #585, .F. ) ;
#511 = PLANE ( 'NONE',  #791 ) ;
#512 = VECTOR ( 'NONE', #14, 1000.000000000000000 ) ;
#513 = CARTESIAN_POINT ( 'NONE',  ( 0.000000000000000000, 0.000000000000000000, 20.00000000000000000 ) ) ;
#514 = EDGE_LOOP ( 'NONE', ( #122, #1060, #1050, #358 ) ) ;
#515 = CARTESIAN_POINT ( 'NONE',  ( 15.00000000000000000, 25.19999999999999929, 10.00000000000000000 ) ) ;
#516 = APPLICATION_CONTEXT ( 'automotive_design' ) ;
#517 = EDGE_LOOP ( 'NONE', ( #54, #815 ) ) ;
#518 = LINE ( 'NONE', #621, #972 ) ;
#519 = CARTESIAN_POINT ( 'NONE',  ( 56.24999999999999289, -6.000000000000000000, 8.000000000000000000 ) ) ;
#520 = ORIENTED_EDGE ( 'NONE', *, *, #352, .F. ) ;
#521 = ORIENTED_EDGE ( 'NONE', *, *, #423, .F. ) ;
#522 = CARTESIAN_POINT ( 'NONE',  ( 6.938893903907228378E-15, -15.80000000000000071, 20.00000000000000000 ) ) ;
#523 = FACE_OUTER_BOUND ( 'NONE', #763, .T. ) ;
#524 = EDGE_LOOP ( 'NONE', ( #630, #554, #58, #327 ) ) ;
#525 = CARTESIAN_POINT ( 'NONE',  ( 645.2565307079348713, 903.9774581870798329, 1284.516648511179937 ) ) ;
#526 = VERTEX_POINT ( 'NONE', #351 ) ;
#527 = CARTESIAN_POINT ( 'NONE',  ( 11.99999999999999645, 28.19999999999999218, 10.00000000000000000 ) ) ;
#528 = EDGE_CURVE ( 'NONE', #873, #305, #261, .T. ) ;
#529 = AXIS2_PLACEMENT_3D ( 'NONE', #674, #1017, #749 ) ;
#530 = DIRECTION ( 'NONE',  ( 1.000000000000000000, 0.000000000000000000, 0.000000000000000000 ) ) ;
#531 = AXIS2_PLACEMENT_3D ( 'NONE', #883, #390, #570 ) ;
#532 = VERTEX_POINT ( 'NONE', #434 ) ;
#533 = UNCERTAINTY_MEASURE_WITH_UNIT (LENGTH_MEASURE( 1.000000000000000082E-05 ), #918, 'distance_accuracy_value', 'NONE');
#534 = ORIENTED_EDGE ( 'NONE', *, *, #1077, .F. ) ;
#535 =( NAMED_UNIT ( * ) SI_UNIT ( $, .STERADIAN. ) SOLID_ANGLE_UNIT ( ) );
#536 = DIRECTION ( 'NONE',  ( -0.000000000000000000, -0.000000000000000000, -1.000000000000000000 ) ) ;
#537 = VERTEX_POINT ( 'NONE', #579 ) ;
#538 = ORIENTED_EDGE ( 'NONE', *, *, #363, .T. ) ;
#539 = LINE ( 'NONE', #131, #755 ) ;
#540 = LINE ( 'NONE', #114, #668 ) ;
#541 = ORIENTED_EDGE ( 'NONE', *, *, #623, .T. ) ;
#542 = ORIENTED_EDGE ( 'NONE', *, *, #113, .T. ) ;
#543 = DIRECTION ( 'NONE',  ( 1.000000000000000000, 0.000000000000000000, 0.000000000000000000 ) ) ;
#544 = ADVANCED_FACE ( 'NONE', ( #662 ), #499, .F. ) ;
#545 = CARTESIAN_POINT ( 'NONE',  ( 56.24999999999999289, 0.000000000000000000, 8.000000000000000000 ) ) ;
#546 = MECHANICAL_DESIGN_GEOMETRIC_PRESENTATION_REPRESENTATION (  '', ( #297 ), #954 ) ;
#547 = PRODUCT_DEFINITION_FORMATION_WITH_SPECIFIED_SOURCE ( 'ANY', '', #339, .NOT_KNOWN. ) ;
#548 = ORIENTED_EDGE ( 'NONE', *, *, #761, .T. ) ;
#549 = VECTOR ( 'NONE', #267, 1000.000000000000000 ) ;
#550 = VERTEX_POINT ( 'NONE', #265 ) ;
#551 = CARTESIAN_POINT ( 'NONE',  ( 6.000000000000000000, 3.000000000000000444, 5.000000000000000000 ) ) ;
#552 = DIRECTION ( 'NONE',  ( 1.084202172485504187E-16, -1.000000000000000000, 0.000000000000000000 ) ) ;
#553 = PRODUCT_DEFINITION ( 'UNKNOWN', '', #882, #508 ) ;
#554 = ORIENTED_EDGE ( 'NONE', *, *, #132, .F. ) ;
#555 = ORIENTED_EDGE ( 'NONE', *, *, #995, .T. ) ;
#556 = FACE_OUTER_BOUND ( 'NONE', #116, .T. ) ;
#557 = PLANE ( 'NONE',  #1070 ) ;
#558 = CARTESIAN_POINT ( 'NONE',  ( 0.000000000000000000, 0.000000000000000000, 20.00000000000000000 ) ) ;
#559 = ORIENTED_EDGE ( 'NONE', *, *, #241, .F. ) ;
#560 = FACE_OUTER_BOUND ( 'NONE', #310, .T. ) ;
#561 = CARTESIAN_POINT ( 'NONE',  ( 72.79999999999998295, -6.999999999999992006, 5.000000000000000000 ) ) ;
#562 = EDGE_CURVE ( 'NONE', #458, #1042, #174, .T. ) ;
#563 = VERTEX_POINT ( 'NONE', #672 ) ;
#564 = VECTOR ( 'NONE', #50, 1000.000000000000000 ) ;
#565 =( GEOMETRIC_REPRESENTATION_CONTEXT ( 3 ) GLOBAL_UNCERTAINTY_ASSIGNED_CONTEXT ( ( #428 ) ) GLOBAL_UNIT_ASSIGNED_CONTEXT ( ( #199, #194, #1031 ) ) REPRESENTATION_CONTEXT ( 'NONE', 'WORKASPACE' ) );
#566 = EDGE_CURVE ( 'NONE', #410, #146, #830, .T. ) ;
#567 = AXIS2_PLACEMENT_3D ( 'NONE', #558, #814, #252 ) ;
#568 = ORIENTED_EDGE ( 'NONE', *, *, #872, .F. ) ;
#569 = CARTESIAN_POINT ( 'NONE',  ( 65.20000000000000284, 28.19999999999999929, 10.00000000000000000 ) ) ;
#570 = DIRECTION ( 'NONE',  ( 0.000000000000000000, -0.000000000000000000, 1.000000000000000000 ) ) ;
#571 = DIRECTION ( 'NONE',  ( -1.084202172485504187E-16, 1.000000000000000000, -0.000000000000000000 ) ) ;
#572 = ORIENTED_EDGE ( 'NONE', *, *, #154, .F. ) ;
#573 = LINE ( 'NONE', #355, #862 ) ;
#574 = DIRECTION ( 'NONE',  ( 1.000000000000000000, 4.391705002472929091E-16, -0.000000000000000000 ) ) ;
#575 = PLANE ( 'NONE',  #567 ) ;
#576 = SHAPE_REPRESENTATION ( 'Team-A4-Battery+Breadboard', ( #793, #495, #334 ), #98 ) ;
#577 = EDGE_CURVE ( 'NONE', #873, #340, #812, .T. ) ;
#578 = CARTESIAN_POINT ( 'NONE',  ( 12.00000000000000355, 3.000000000000001332, 10.00000000000000000 ) ) ;
#579 = CARTESIAN_POINT ( 'NONE',  ( 11.99999999999999645, 28.19999999999999218, 10.00000000000000000 ) ) ;
#580 = ADVANCED_FACE ( 'NONE', ( #88 ), #836, .F. ) ;
#581 = LINE ( 'NONE', #837, #776 ) ;
#582 = VECTOR ( 'NONE', #81, 1000.000000000000000 ) ;
#583 = AXIS2_PLACEMENT_3D ( 'NONE', #386, #1052, #622 ) ;
#584 = CARTESIAN_POINT ( 'NONE',  ( 71.19999999999998863, -6.999999999999992006, 5.000000000000000000 ) ) ;
#585 = CYLINDRICAL_SURFACE ( 'NONE', #772, 1.599999999999999867 ) ;
#586 = SURFACE_STYLE_FILL_AREA ( #280 ) ;
#587 = PLANE ( 'NONE',  #996 ) ;
#588 = LINE ( 'NONE', #593, #349 ) ;
#589 = EDGE_LOOP ( 'NONE', ( #790, #299, #372, #714 ) ) ;
#590 = ADVANCED_FACE ( 'NONE', ( #274 ), #833, .T. ) ;
#591 = LINE ( 'NONE', #1000, #743 ) ;
#592 = EDGE_LOOP ( 'NONE', ( #140, #394 ) ) ;
#593 = CARTESIAN_POINT ( 'NONE',  ( 3.000000000000003997, -12.80000000000000249, 20.00000000000000000 ) ) ;
#594 = CARTESIAN_POINT ( 'NONE',  ( 3.000000000000002665, -3.000000000000000000, 0.000000000000000000 ) ) ;
#595 = EDGE_CURVE ( 'NONE', #130, #647, #912, .T. ) ;
#596 = ORIENTED_EDGE ( 'NONE', *, *, #352, .T. ) ;
#597 = DIRECTION ( 'NONE',  ( 1.000000000000000000, 0.000000000000000000, 0.000000000000000000 ) ) ;
#598 = AXIS2_PLACEMENT_3D ( 'NONE', #1005, #102, #257 ) ;
#599 = SURFACE_SIDE_STYLE ('',( #856 ) ) ;
#600 = DIRECTION ( 'NONE',  ( -1.000000000000000000, 0.000000000000000000, 0.000000000000000000 ) ) ;
#601 = VERTEX_POINT ( 'NONE', #345 ) ;
#602 = ORIENTED_EDGE ( 'NONE', *, *, #480, .F. ) ;
#603 = DIRECTION ( 'NONE',  ( 0.000000000000000000, 1.000000000000000000, 0.000000000000000000 ) ) ;
#604 = LINE ( 'NONE', #207, #399 ) ;
#605 = ORIENTED_EDGE ( 'NONE', *, *, #693, .T. ) ;
#606 = EDGE_CURVE ( 'NONE', #957, #63, #179, .T. ) ;
#607 = VERTEX_POINT ( 'NONE', #270 ) ;
#608 =( LENGTH_UNIT ( ) NAMED_UNIT ( * ) SI_UNIT ( .MILLI., .METRE. ) );
#609 = CARTESIAN_POINT ( 'NONE',  ( 72.79999999999998295, 0.000000000000000000, 5.000000000000000000 ) ) ;
#610 = EDGE_CURVE ( 'NONE', #443, #21, #588, .T. ) ;
#611 = ORIENTED_EDGE ( 'NONE', *, *, #408, .F. ) ;
#612 = ORIENTED_EDGE ( 'NONE', *, *, #423, .T. ) ;
#613 = AXIS2_PLACEMENT_3D ( 'NONE', #951, #285, #278 ) ;
#614 = LINE ( 'NONE', #1044, #637 ) ;
#615 = VECTOR ( 'NONE', #192, 1000.000000000000000 ) ;
#616 = ADVANCED_FACE ( 'NONE', ( #927 ), #511, .F. ) ;
#617 = ORIENTED_EDGE ( 'NONE', *, *, #1045, .F. ) ;
#618 =( NAMED_UNIT ( * ) PLANE_ANGLE_UNIT ( ) SI_UNIT ( $, .RADIAN. ) );
#619 = UNCERTAINTY_MEASURE_WITH_UNIT (LENGTH_MEASURE( 1.000000000000000082E-05 ), #608, 'distance_accuracy_value', 'NONE');
#620 = ORIENTED_EDGE ( 'NONE', *, *, #253, .F. ) ;
#621 = CARTESIAN_POINT ( 'NONE',  ( 6.938893903907228378E-15, -15.80000000000000071, 20.00000000000000000 ) ) ;
#622 = DIRECTION ( 'NONE',  ( -1.000000000000000000, 0.000000000000000000, 0.000000000000000000 ) ) ;
#623 = EDGE_CURVE ( 'NONE', #563, #388, #846, .T. ) ;
#624 = VERTEX_POINT ( 'NONE', #365 ) ;
#625 = DIRECTION ( 'NONE',  ( 1.000000000000000000, 0.000000000000000000, 0.000000000000000000 ) ) ;
#626 = EDGE_CURVE ( 'NONE', #723, #237, #303, .T. ) ;
#627 = ORIENTED_EDGE ( 'NONE', *, *, #974, .F. ) ;
#628 = LINE ( 'NONE', #992, #264 ) ;
#629 = DIRECTION ( 'NONE',  ( 0.000000000000000000, 1.000000000000000000, 0.000000000000000000 ) ) ;
#630 = ORIENTED_EDGE ( 'NONE', *, *, #606, .T. ) ;
#631 = ORIENTED_EDGE ( 'NONE', *, *, #315, .T. ) ;
#632 = DIRECTION ( 'NONE',  ( 1.000000000000000000, 1.084202172485505913E-16, 0.000000000000000000 ) ) ;
#633 = FACE_BOUND ( 'NONE', #896, .T. ) ;
#634 = AXIS2_PLACEMENT_3D ( 'NONE', #308, #552, #645 ) ;
#635 = VECTOR ( 'NONE', #268, 1000.000000000000000 ) ;
#636 = DIRECTION ( 'NONE',  ( 0.000000000000000000, 1.000000000000000000, 0.000000000000000000 ) ) ;
#637 = VECTOR ( 'NONE', #794, 1000.000000000000000 ) ;
#638 = EDGE_LOOP ( 'NONE', ( #1083, #40, #885, #810 ) ) ;
#639 = CARTESIAN_POINT ( 'NONE',  ( 77.19999999999998863, 3.000000000000000000, 10.00000000000000000 ) ) ;
#640 = CARTESIAN_POINT ( 'NONE',  ( 3.000000000000003997, -12.80000000000000249, 20.00000000000000000 ) ) ;
#641 = LINE ( 'NONE', #242, #744 ) ;
#642 = EDGE_CURVE ( 'NONE', #283, #957, #290, .T. ) ;
#643 = EDGE_LOOP ( 'NONE', ( #1, #459, #1039, #506 ) ) ;
#644 = CARTESIAN_POINT ( 'NONE',  ( 0.000000000000000000, 0.000000000000000000, 10.00000000000000000 ) ) ;
#645 = DIRECTION ( 'NONE',  ( 1.000000000000000000, 1.084202172485504187E-16, 0.000000000000000000 ) ) ;
#646 = ADVANCED_FACE ( 'NONE', ( #775 ), #688, .F. ) ;
#647 = VERTEX_POINT ( 'NONE', #120 ) ;
#648 = ORIENTED_EDGE ( 'NONE', *, *, #151, .F. ) ;
#649 = CARTESIAN_POINT ( 'NONE',  ( 0.000000000000000000, 0.000000000000000000, 10.00000000000000000 ) ) ;
#650 = LINE ( 'NONE', #484, #867 ) ;
#651 = CARTESIAN_POINT ( 'NONE',  ( 6.000000000000000888, -6.999999999999999112, 5.000000000000000000 ) ) ;
#652 = VECTOR ( 'NONE', #456, 1000.000000000000000 ) ;
#653 = PRODUCT_DEFINITION ( 'UNKNOWN', '', #232, #698 ) ;
#654 = VECTOR ( 'NONE', #97, 1000.000000000000000 ) ;
#655 = ORIENTED_EDGE ( 'NONE', *, *, #52, .F. ) ;
#656 = PLANE ( 'NONE',  #529 ) ;
#657 = DIRECTION ( 'NONE',  ( 0.000000000000000000, 0.000000000000000000, 1.000000000000000000 ) ) ;
#658 = CARTESIAN_POINT ( 'NONE',  ( 6.000000000000000000, 3.000000000000000444, 5.000000000000000000 ) ) ;
#659 = ADVANCED_FACE ( 'NONE', ( #1032 ), #370, .F. ) ;
#660 = ORIENTED_EDGE ( 'NONE', *, *, #670, .F. ) ;
#661 = CARTESIAN_POINT ( 'NONE',  ( 62.20000000000000284, 0.000000000000000000, 10.00000000000000000 ) ) ;
#662 = FACE_OUTER_BOUND ( 'NONE', #486, .T. ) ;
#663 = FILL_AREA_STYLE_COLOUR ( '', #159 ) ;
#664 = LINE ( 'NONE', #578, #582 ) ;
#665 = LINE ( 'NONE', #1015, #173 ) ;
#666 = DIRECTION ( 'NONE',  ( -1.000000000000000000, -0.000000000000000000, -0.000000000000000000 ) ) ;
#667 = VECTOR ( 'NONE', #453, 1000.000000000000000 ) ;
#668 = VECTOR ( 'NONE', #536, 1000.000000000000000 ) ;
#669 = CARTESIAN_POINT ( 'NONE',  ( 77.19999999999998863, 3.000000000000000000, 0.000000000000000000 ) ) ;
#670 = EDGE_CURVE ( 'NONE', #537, #770, #445, .T. ) ;
#671 = VECTOR ( 'NONE', #982, 1000.000000000000000 ) ;
#672 = CARTESIAN_POINT ( 'NONE',  ( 12.00000000000000355, 3.000000000000001332, 0.000000000000000000 ) ) ;
#673 = CARTESIAN_POINT ( 'NONE',  ( 56.24999999999998579, -3.000000000000000000, 20.00000000000000000 ) ) ;
#674 = CARTESIAN_POINT ( 'NONE',  ( -7.328595018519588832E-17, 3.000000000000000000, 10.00000000000000000 ) ) ;
#675 = EDGE_CURVE ( 'NONE', #719, #797, #518, .T. ) ;
#676 = DIRECTION ( 'NONE',  ( -1.000000000000000000, 0.000000000000000000, 9.820493294553729705E-17 ) ) ;
#677 = PLANE ( 'NONE',  #938 ) ;
#678 = EDGE_CURVE ( 'NONE', #340, #873, #829, .T. ) ;
#679 = ORIENTED_EDGE ( 'NONE', *, *, #7, .T. ) ;
#680 = DIRECTION ( 'NONE',  ( -1.000000000000000000, 0.000000000000000000, 0.000000000000000000 ) ) ;
#681 = ORIENTED_EDGE ( 'NONE', *, *, #987, .F. ) ;
#682 = DIRECTION ( 'NONE',  ( 0.000000000000000000, 0.000000000000000000, 1.000000000000000000 ) ) ;
#683 = CARTESIAN_POINT ( 'NONE',  ( 12.00000000000000355, 3.000000000000001332, 10.00000000000000000 ) ) ;
#684 = ORIENTED_EDGE ( 'NONE', *, *, #819, .F. ) ;
#685 = AXIS2_PLACEMENT_3D ( 'NONE', #840, #753, #750 ) ;
#686 = AXIS2_PLACEMENT_3D ( 'NONE', #816, #1061, #59 ) ;
#687 = ORIENTED_EDGE ( 'NONE', *, *, #610, .F. ) ;
#688 = PLANE ( 'NONE',  #279 ) ;
#689 = DIRECTION ( 'NONE',  ( 3.928197317821491882E-16, 0.000000000000000000, -1.000000000000000000 ) ) ;
#690 = EDGE_CURVE ( 'NONE', #388, #26, #373, .T. ) ;
#691 = ORIENTED_EDGE ( 'NONE', *, *, #806, .F. ) ;
#692 = DIRECTION ( 'NONE',  ( 0.000000000000000000, 0.000000000000000000, 1.000000000000000000 ) ) ;
#693 = EDGE_CURVE ( 'NONE', #186, #864, #450, .T. ) ;
#694 = SURFACE_STYLE_USAGE ( .BOTH. , #599 ) ;
#695 = DIRECTION ( 'NONE',  ( -2.753529326947313913E-16, 1.000000000000000000, 0.000000000000000000 ) ) ;
#696 = ORIENTED_EDGE ( 'NONE', *, *, #465, .F. ) ;
#697 = MANIFOLD_SOLID_BREP ( 'Cut-Extrude3', #844 ) ;
#698 = PRODUCT_DEFINITION_CONTEXT ( 'detailed design', #142, 'design' ) ;
#699 = DIRECTION ( 'NONE',  ( 0.000000000000000000, -1.000000000000000000, 0.000000000000000000 ) ) ;
#700 = CARTESIAN_POINT ( 'NONE',  ( 6.938893903907228378E-15, -15.80000000000000071, 20.00000000000000000 ) ) ;
#701 = ORIENTED_EDGE ( 'NONE', *, *, #995, .F. ) ;
#702 = DIRECTION ( 'NONE',  ( -1.000000000000000000, -0.000000000000000000, -0.000000000000000000 ) ) ;
#703 = VERTEX_POINT ( 'NONE', #41 ) ;
#704 = AXIS2_PLACEMENT_3D ( 'NONE', #144, #888, #720 ) ;
#705 = AXIS2_PLACEMENT_3D ( 'NONE', #1079, #311, #543 ) ;
#706 = CARTESIAN_POINT ( 'NONE',  ( -7.328595018519588832E-17, 3.000000000000000000, 10.00000000000000000 ) ) ;
#707 = VECTOR ( 'NONE', #338, 1000.000000000000000 ) ;
#708 = EDGE_CURVE ( 'NONE', #1042, #458, #481, .T. ) ;
#709 = EDGE_LOOP ( 'NONE', ( #287, #331, #787, #736 ) ) ;
#710 = EDGE_LOOP ( 'NONE', ( #134, #99, #227, #679 ) ) ;
#711 = DIRECTION ( 'NONE',  ( 1.304303365396095688E-16, -1.000000000000000000, 0.000000000000000000 ) ) ;
#712 = CARTESIAN_POINT ( 'NONE',  ( 11.99999999999999645, 28.19999999999999218, 10.00000000000000000 ) ) ;
#713 = ORIENTED_EDGE ( 'NONE', *, *, #562, .F. ) ;
#714 = ORIENTED_EDGE ( 'NONE', *, *, #890, .T. ) ;
#715 = LINE ( 'NONE', #1073, #136 ) ;
#716 = CARTESIAN_POINT ( 'NONE',  ( 57.50000000000000000, -12.80000000000000249, 0.000000000000000000 ) ) ;
#717 = ORIENTED_EDGE ( 'NONE', *, *, #284, .T. ) ;
#718 =( LENGTH_UNIT ( ) NAMED_UNIT ( * ) SI_UNIT ( .MILLI., .METRE. ) );
#719 = VERTEX_POINT ( 'NONE', #522 ) ;
#720 = DIRECTION ( 'NONE',  ( -1.000000000000000000, 0.000000000000000000, 0.000000000000000000 ) ) ;
#721 = LINE ( 'NONE', #1069, #62 ) ;
#722 = VECTOR ( 'NONE', #440, 1000.000000000000000 ) ;
#723 = VERTEX_POINT ( 'NONE', #1051 ) ;
#724 = VECTOR ( 'NONE', #478, 1000.000000000000000 ) ;
#725 = APPLICATION_PROTOCOL_DEFINITION ( 'draft international standard', 'automotive_design', 1998, #914 ) ;
#726 = ORIENTED_EDGE ( 'NONE', *, *, #469, .T. ) ;
#727 = CARTESIAN_POINT ( 'NONE',  ( 62.20000000000000284, 25.19999999999999929, 0.000000000000000000 ) ) ;
#728 = EDGE_CURVE ( 'NONE', #624, #879, #539, .T. ) ;
#729 = CARTESIAN_POINT ( 'NONE',  ( 65.20000000000000284, 2.999999999999998668, 0.000000000000000000 ) ) ;
#730 = PRODUCT_DEFINITION_SHAPE ( 'NONE', 'NONE',  #1088 ) ;
#731 = ORIENTED_EDGE ( 'NONE', *, *, #48, .F. ) ;
#732 = ORIENTED_EDGE ( 'NONE', *, *, #469, .F. ) ;
#733 = DIRECTION ( 'NONE',  ( -0.000000000000000000, -0.000000000000000000, -1.000000000000000000 ) ) ;
#734 = DIRECTION ( 'NONE',  ( 4.391705002472929091E-16, -1.000000000000000000, 0.000000000000000000 ) ) ;
#735 = VERTEX_POINT ( 'NONE', #24 ) ;
#736 = ORIENTED_EDGE ( 'NONE', *, *, #528, .F. ) ;
#737 = PLANE ( 'NONE',  #298 ) ;
#738 = EDGE_CURVE ( 'NONE', #647, #410, #361, .T. ) ;
#739 = PLANE ( 'NONE',  #634 ) ;
#740 = DIRECTION ( 'NONE',  ( -0.000000000000000000, -0.000000000000000000, -1.000000000000000000 ) ) ;
#741 = AXIS2_PLACEMENT_3D ( 'NONE', #342, #12, #916 ) ;
#742 = EDGE_CURVE ( 'NONE', #452, #410, #467, .T. ) ;
#743 = VECTOR ( 'NONE', #1084, 1000.000000000000000 ) ;
#744 = VECTOR ( 'NONE', #740, 1000.000000000000000 ) ;
#745 = ORIENTED_EDGE ( 'NONE', *, *, #610, .T. ) ;
#746 = FACE_OUTER_BOUND ( 'NONE', #643, .T. ) ;
#747 = DIRECTION ( 'NONE',  ( 0.000000000000000000, 0.000000000000000000, 1.000000000000000000 ) ) ;
#748 = CARTESIAN_POINT ( 'NONE',  ( 56.24999999999999289, -3.000000000000000000, 8.000000000000000000 ) ) ;
#749 = DIRECTION ( 'NONE',  ( -2.442865006173196483E-17, 1.000000000000000000, 0.000000000000000000 ) ) ;
#750 = DIRECTION ( 'NONE',  ( 1.000000000000000000, 0.000000000000000000, 0.000000000000000000 ) ) ;
#751 = LINE ( 'NONE', #275, #921 ) ;
#752 = FACE_OUTER_BOUND ( 'NONE', #514, .T. ) ;
#753 = DIRECTION ( 'NONE',  ( -0.000000000000000000, 0.000000000000000000, 1.000000000000000000 ) ) ;
#754 = DIRECTION ( 'NONE',  ( -0.000000000000000000, 1.000000000000000000, -0.000000000000000000 ) ) ;
#755 = VECTOR ( 'NONE', #764, 1000.000000000000000 ) ;
#756 = EDGE_CURVE ( 'NONE', #305, #61, #96, .T. ) ;
#757 = VECTOR ( 'NONE', #898, 1000.000000000000000 ) ;
#758 = VECTOR ( 'NONE', #381, 1000.000000000000000 ) ;
#759 = PLANE ( 'NONE',  #1029 ) ;
#760 = CARTESIAN_POINT ( 'NONE',  ( 0.000000000000000000, 0.000000000000000000, 20.00000000000000000 ) ) ;
#761 = EDGE_CURVE ( 'NONE', #826, #26, #967, .T. ) ;
#762 = CARTESIAN_POINT ( 'NONE',  ( -7.328595018519588832E-17, 3.000000000000000000, 10.00000000000000000 ) ) ;
#763 = EDGE_LOOP ( 'NONE', ( #538, #1065, #660, #189 ) ) ;
#764 = DIRECTION ( 'NONE',  ( -1.000000000000000000, -0.000000000000000000, -0.000000000000000000 ) ) ;
#765 = SHAPE_REPRESENTATION ( 'Part12', ( #446 ), #565 ) ;
#766 = DIRECTION ( 'NONE',  ( -1.084202172485504187E-16, 1.000000000000000000, -0.000000000000000000 ) ) ;
#767 = ORIENTED_EDGE ( 'NONE', *, *, #974, .T. ) ;
#768 = FILL_AREA_STYLE ('',( #295 ) ) ;
#769 = LINE ( 'NONE', #51, #66 ) ;
#770 = VERTEX_POINT ( 'NONE', #1067 ) ;
#771 = EDGE_CURVE ( 'NONE', #216, #476, #792, .T. ) ;
#772 = AXIS2_PLACEMENT_3D ( 'NONE', #1001, #3, #95 ) ;
#773 =( NAMED_UNIT ( * ) SI_UNIT ( $, .STERADIAN. ) SOLID_ANGLE_UNIT ( ) );
#774 = ORIENTED_EDGE ( 'NONE', *, *, #1081, .T. ) ;
#775 = FACE_OUTER_BOUND ( 'NONE', #980, .T. ) ;
#776 = VECTOR ( 'NONE', #170, 1000.000000000000000 ) ;
#777 = DIRECTION ( 'NONE',  ( 0.000000000000000000, 1.000000000000000000, 0.000000000000000000 ) ) ;
#778 = ORIENTED_EDGE ( 'NONE', *, *, #903, .F. ) ;
#779 = SHAPE_REPRESENTATION_RELATIONSHIP ( 'NONE' , 'NONE' ,  #765, #109 ) ;
#780 = FACE_OUTER_BOUND ( 'NONE', #306, .T. ) ;
#781 = EDGE_LOOP ( 'NONE', ( #648, #713, #969, #137 ) ) ;
#782 = CARTESIAN_POINT ( 'NONE',  ( 77.19999999999998863, 0.000000000000000000, 10.00000000000000000 ) ) ;
#783 = PRODUCT_DEFINITION_CONTEXT ( 'detailed design', #127, 'design' ) ;
#784 = ORIENTED_EDGE ( 'NONE', *, *, #129, .F. ) ;
#785 = EDGE_CURVE ( 'NONE', #735, #999, #483, .T. ) ;
#786 = PLANE ( 'NONE',  #29 ) ;
#787 = ORIENTED_EDGE ( 'NONE', *, *, #254, .T. ) ;
#788 = ADVANCED_FACE ( 'NONE', ( #385, #55 ), #986, .F. ) ;
#789 = APPLICATION_CONTEXT ( 'automotive_design' ) ;
#790 = ORIENTED_EDGE ( 'NONE', *, *, #1045, .T. ) ;
#791 = AXIS2_PLACEMENT_3D ( 'NONE', #505, #676, #1018 ) ;
#792 = LINE ( 'NONE', #228, #157 ) ;
#793 = AXIS2_PLACEMENT_3D ( 'NONE', #119, #961, #625 ) ;
#794 = DIRECTION ( 'NONE',  ( -1.000000000000000000, -0.000000000000000000, -0.000000000000000000 ) ) ;
#795 = EDGE_CURVE ( 'NONE', #1028, #234, #628, .T. ) ;
#796 = AXIS2_PLACEMENT_3D ( 'NONE', #651, #571, #413 ) ;
#797 = VERTEX_POINT ( 'NONE', #401 ) ;
#798 = DIRECTION ( 'NONE',  ( 1.000000000000000000, 0.000000000000000000, 0.000000000000000000 ) ) ;
#799 = ORIENTED_EDGE ( 'NONE', *, *, #987, .T. ) ;
#800 = DIRECTION ( 'NONE',  ( -1.000000000000000000, -1.084202172485506036E-16, 0.000000000000000000 ) ) ;
#801 = DIRECTION ( 'NONE',  ( 0.000000000000000000, -0.000000000000000000, 1.000000000000000000 ) ) ;
#802 = CARTESIAN_POINT ( 'NONE',  ( 3.000000000000002665, -3.000000000000000000, 20.00000000000000000 ) ) ;
#803 = VERTEX_POINT ( 'NONE', #239 ) ;
#804 = DIRECTION ( 'NONE',  ( -1.000000000000000000, 0.000000000000000000, 0.000000000000000000 ) ) ;
#805 = CARTESIAN_POINT ( 'NONE',  ( 65.20000000000000284, 28.19999999999999929, 10.00000000000000000 ) ) ;
#806 = EDGE_CURVE ( 'NONE', #234, #875, #138, .T. ) ;
#807 = ORIENTED_EDGE ( 'NONE', *, *, #738, .T. ) ;
#808 = SHAPE_DEFINITION_REPRESENTATION ( #374, #213 ) ;
#809 = ADVANCED_FACE ( 'NONE', ( #560 ), #477, .F. ) ;
#810 = ORIENTED_EDGE ( 'NONE', *, *, #20, .T. ) ;
#811 = CARTESIAN_POINT ( 'NONE',  ( 69.59999999999998010, 0.000000000000000000, 5.000000000000000000 ) ) ;
#812 = CIRCLE ( 'NONE', #44, 1.600000000000004974 ) ;
#813 = CARTESIAN_POINT ( 'NONE',  ( 62.20000000000000284, 0.000000000000000000, 10.00000000000000000 ) ) ;
#814 = DIRECTION ( 'NONE',  ( 0.000000000000000000, -1.000000000000000000, 0.000000000000000000 ) ) ;
#815 = ORIENTED_EDGE ( 'NONE', *, *, #708, .T. ) ;
#816 = CARTESIAN_POINT ( 'NONE',  ( 4.249999999999996447, -6.000000000000000000, 8.000000000000000000 ) ) ;
#817 = CARTESIAN_POINT ( 'NONE',  ( 65.20000000000000284, 2.999999999999998668, 10.00000000000000000 ) ) ;
#818 = CARTESIAN_POINT ( 'NONE',  ( 0.000000000000000000, 0.000000000000000000, 0.000000000000000000 ) ) ;
#819 = EDGE_CURVE ( 'NONE', #362, #803, #462, .T. ) ;
#820 = ORIENTED_EDGE ( 'NONE', *, *, #253, .T. ) ;
#821 = CARTESIAN_POINT ( 'NONE',  ( 0.000000000000000000, 0.000000000000000000, 20.00000000000000000 ) ) ;
#822 = CARTESIAN_POINT ( 'NONE',  ( 62.20000000000000284, 0.000000000000000000, 0.000000000000000000 ) ) ;
#823 = EDGE_CURVE ( 'NONE', #283, #387, #906, .T. ) ;
#824 = CARTESIAN_POINT ( 'NONE',  ( 60.50000000000000000, 0.000000000000000000, 0.000000000000000000 ) ) ;
#825 = PRODUCT ( 'Part12', 'Part12', '', ( #220 ) ) ;
#826 = VERTEX_POINT ( 'NONE', #649 ) ;
#827 = DIRECTION ( 'NONE',  ( 0.000000000000000000, -0.000000000000000000, 1.000000000000000000 ) ) ;
#828 = CARTESIAN_POINT ( 'NONE',  ( 69.59999999999998010, -6.999999999999992006, 5.000000000000000000 ) ) ;
#829 = CIRCLE ( 'NONE', #1027, 1.600000000000004974 ) ;
#830 = LINE ( 'NONE', #337, #917 ) ;
#831 = VECTOR ( 'NONE', #165, 1000.000000000000000 ) ;
#832 = LINE ( 'NONE', #172, #248 ) ;
#833 = PLANE ( 'NONE',  #685 ) ;
#834 = FACE_OUTER_BOUND ( 'NONE', #148, .T. ) ;
#835 = PLANE ( 'NONE',  #64 ) ;
#836 = PLANE ( 'NONE',  #208 ) ;
#837 = CARTESIAN_POINT ( 'NONE',  ( 65.20000000000000284, 28.19999999999999929, 0.000000000000000000 ) ) ;
#838 = ADVANCED_FACE ( 'NONE', ( #556 ), #894, .F. ) ;
#839 = FACE_OUTER_BOUND ( 'NONE', #222, .T. ) ;
#840 = CARTESIAN_POINT ( 'NONE',  ( 0.000000000000000000, 0.000000000000000000, 10.00000000000000000 ) ) ;
#841 = DIRECTION ( 'NONE',  ( -0.000000000000000000, 1.000000000000000000, 0.000000000000000000 ) ) ;
#842 = EDGE_LOOP ( 'NONE', ( #53, #949, #273, #521, #854, #400, #1021, #941 ) ) ;
#843 = VECTOR ( 'NONE', #491, 1000.000000000000000 ) ;
#844 = CLOSED_SHELL ( 'NONE', ( #580, #347, #404, #17, #940, #788, #934, #100, #501, #646, #809, #616, #218 ) ) ;
#845 = DIRECTION ( 'NONE',  ( 0.000000000000000000, 0.000000000000000000, 1.000000000000000000 ) ) ;
#846 = LINE ( 'NONE', #125, #509 ) ;
#847 = CARTESIAN_POINT ( 'NONE',  ( 3.000000000000002665, -3.000000000000000000, 0.000000000000000000 ) ) ;
#848 = ORIENTED_EDGE ( 'NONE', *, *, #566, .F. ) ;
#849 = EDGE_CURVE ( 'NONE', #146, #957, #715, .T. ) ;
#850 = UNCERTAINTY_MEASURE_WITH_UNIT (LENGTH_MEASURE( 1.000000000000000082E-05 ), #101, 'distance_accuracy_value', 'NONE');
#851 = DIRECTION ( 'NONE',  ( -1.000000000000000000, -1.084202172485504187E-16, 0.000000000000000000 ) ) ;
#852 = DIRECTION ( 'NONE',  ( -0.000000000000000000, 1.000000000000000000, -0.000000000000000000 ) ) ;
#853 = ADVANCED_FACE ( 'NONE', ( #406, #319 ), #328, .F. ) ;
#854 = ORIENTED_EDGE ( 'NONE', *, *, #393, .F. ) ;
#855 = ORIENTED_EDGE ( 'NONE', *, *, #708, .F. ) ;
#856 = SURFACE_STYLE_FILL_AREA ( #768 ) ;
#857 = PLANE ( 'NONE',  #68 ) ;
#858 = PRODUCT_RELATED_PRODUCT_CATEGORY ( 'part', '', ( #825 ) ) ;
#859 = ORIENTED_EDGE ( 'NONE', *, *, #52, .T. ) ;
#860 = VECTOR ( 'NONE', #932, 1000.000000000000000 ) ;
#861 = LINE ( 'NONE', #123, #667 ) ;
#862 = VECTOR ( 'NONE', #11, 1000.000000000000000 ) ;
#863 = VECTOR ( 'NONE', #636, 1000.000000000000000 ) ;
#864 = VERTEX_POINT ( 'NONE', #249 ) ;
#865 = CARTESIAN_POINT ( 'NONE',  ( -7.328595018519588832E-17, 3.000000000000000000, 0.000000000000000000 ) ) ;
#866 = PRODUCT ( 'Battery', 'Battery', '', ( #1064 ) ) ;
#867 = VECTOR ( 'NONE', #468, 1000.000000000000000 ) ;
#868 = CARTESIAN_POINT ( 'NONE',  ( 15.00000000000000000, 0.000000000000000000, 10.00000000000000000 ) ) ;
#869 = ORIENTED_EDGE ( 'NONE', *, *, #690, .F. ) ;
#870 = ORIENTED_EDGE ( 'NONE', *, *, #806, .T. ) ;
#871 = CARTESIAN_POINT ( 'NONE',  ( 77.19999999999998863, 0.000000000000000000, 10.00000000000000000 ) ) ;
#872 = EDGE_CURVE ( 'NONE', #601, #443, #460, .T. ) ;
#873 = VERTEX_POINT ( 'NONE', #811 ) ;
#874 = ADVANCED_FACE ( 'NONE', ( #65, #746 ), #759, .F. ) ;
#875 = VERTEX_POINT ( 'NONE', #915 ) ;
#876 = DIRECTION ( 'NONE',  ( -0.000000000000000000, -0.000000000000000000, -1.000000000000000000 ) ) ;
#877 = DIRECTION ( 'NONE',  ( 0.000000000000000000, 1.000000000000000000, 0.000000000000000000 ) ) ;
#878 = VERTEX_POINT ( 'NONE', #2 ) ;
#879 = VERTEX_POINT ( 'NONE', #821 ) ;
#880 = VECTOR ( 'NONE', #1037, 1000.000000000000000 ) ;
#881 = DIRECTION ( 'NONE',  ( -0.000000000000000000, 1.000000000000000000, -0.000000000000000000 ) ) ;
#882 = PRODUCT_DEFINITION_FORMATION_WITH_SPECIFIED_SOURCE ( 'ANY', '', #825, .NOT_KNOWN. ) ;
#883 = CARTESIAN_POINT ( 'NONE',  ( 0.000000000000000000, 0.000000000000000000, 10.00000000000000000 ) ) ;
#884 = AXIS2_PLACEMENT_3D ( 'NONE', #658, #258, #57 ) ;
#885 = ORIENTED_EDGE ( 'NONE', *, *, #1008, .F. ) ;
#886 = ADVANCED_FACE ( 'NONE', ( #272 ), #1014, .F. ) ;
#887 = ORIENTED_EDGE ( 'NONE', *, *, #284, .F. ) ;
#888 = DIRECTION ( 'NONE',  ( -1.084202172485504187E-16, 1.000000000000000000, 0.000000000000000000 ) ) ;
#889 = CARTESIAN_POINT ( 'NONE',  ( 3.000000000000003997, -12.80000000000000249, 0.000000000000000000 ) ) ;
#890 = EDGE_CURVE ( 'NONE', #879, #49, #504, .T. ) ;
#891 = ORIENTED_EDGE ( 'NONE', *, *, #184, .T. ) ;
#892 =( NAMED_UNIT ( * ) SI_UNIT ( $, .STERADIAN. ) SOLID_ANGLE_UNIT ( ) );
#893 = ORIENTED_EDGE ( 'NONE', *, *, #332, .F. ) ;
#894 = PLANE ( 'NONE',  #398 ) ;
#895 = CARTESIAN_POINT ( 'NONE',  ( 15.00000000000000000, 0.000000000000000000, 0.000000000000000000 ) ) ;
#896 = EDGE_LOOP ( 'NONE', ( #684, #655 ) ) ;
#897 = VERTEX_POINT ( 'NONE', #411 ) ;
#898 = DIRECTION ( 'NONE',  ( -0.000000000000000000, -0.000000000000000000, -1.000000000000000000 ) ) ;
#899 = AXIS2_PLACEMENT_3D ( 'NONE', #356, #82, #747 ) ;
#900 = DIRECTION ( 'NONE',  ( -0.000000000000000000, -0.000000000000000000, 1.000000000000000000 ) ) ;
#901 =( GEOMETRIC_REPRESENTATION_CONTEXT ( 3 ) GLOBAL_UNCERTAINTY_ASSIGNED_CONTEXT ( ( #850 ) ) GLOBAL_UNIT_ASSIGNED_CONTEXT ( ( #101, #39, #773 ) ) REPRESENTATION_CONTEXT ( 'NONE', 'WORKASPACE' ) );
#902 = ORIENTED_EDGE ( 'NONE', *, *, #756, .T. ) ;
#903 = EDGE_CURVE ( 'NONE', #458, #362, #425, .T. ) ;
#904 = EDGE_CURVE ( 'NONE', #186, #156, #832, .T. ) ;
#905 = ORIENTED_EDGE ( 'NONE', *, *, #990, .T. ) ;
#906 = LINE ( 'NONE', #395, #1049 ) ;
#907 = FACE_OUTER_BOUND ( 'NONE', #472, .T. ) ;
#908 = LINE ( 'NONE', #802, #831 ) ;
#909 = ORIENTED_EDGE ( 'NONE', *, *, #849, .F. ) ;
#910 = CARTESIAN_POINT ( 'NONE',  ( 3.000000000000002665, -3.000000000000000000, 0.000000000000000000 ) ) ;
#911 = PRODUCT_RELATED_PRODUCT_CATEGORY ( 'part', '', ( #866 ) ) ;
#912 = LINE ( 'NONE', #421, #191 ) ;
#913 = CARTESIAN_POINT ( 'NONE',  ( 65.20000000000000284, 2.999999999999998668, 10.00000000000000000 ) ) ;
#914 = APPLICATION_CONTEXT ( 'automotive_design' ) ;
#915 = CARTESIAN_POINT ( 'NONE',  ( 57.50000000000000000, -3.000000000000000000, 20.00000000000000000 ) ) ;
#916 = DIRECTION ( 'NONE',  ( 1.000000000000000000, 0.000000000000000000, 0.000000000000000000 ) ) ;
#917 = VECTOR ( 'NONE', #426, 1000.000000000000000 ) ;
#918 =( LENGTH_UNIT ( ) NAMED_UNIT ( * ) SI_UNIT ( .MILLI., .METRE. ) );
#919 = VECTOR ( 'NONE', #23, 1000.000000000000000 ) ;
#920 = VECTOR ( 'NONE', #1026, 1000.000000000000000 ) ;
#921 = VECTOR ( 'NONE', #766, 1000.000000000000000 ) ;
#922 = DIRECTION ( 'NONE',  ( -0.000000000000000000, 0.000000000000000000, 1.000000000000000000 ) ) ;
#923 = DIRECTION ( 'NONE',  ( 0.000000000000000000, 1.000000000000000000, 0.000000000000000000 ) ) ;
#924 = CARTESIAN_POINT ( 'NONE',  ( 3.000000000000002665, -3.000000000000000000, 20.00000000000000000 ) ) ;
#925 = EDGE_CURVE ( 'NONE', #526, #237, #573, .T. ) ;
#926 = FACE_OUTER_BOUND ( 'NONE', #292, .T. ) ;
#927 = FACE_OUTER_BOUND ( 'NONE', #944, .T. ) ;
#928 = CARTESIAN_POINT ( 'NONE',  ( 3.000000000000003997, -12.80000000000000249, 0.000000000000000000 ) ) ;
#929 = ORIENTED_EDGE ( 'NONE', *, *, #320, .F. ) ;
#930 = DIRECTION ( 'NONE',  ( 1.000000000000000000, 0.000000000000000000, 0.000000000000000000 ) ) ;
#931 = ORIENTED_EDGE ( 'NONE', *, *, #241, .T. ) ;
#932 = DIRECTION ( 'NONE',  ( -1.084202172485504187E-16, 1.000000000000000000, -0.000000000000000000 ) ) ;
#933 = DIRECTION ( 'NONE',  ( 0.000000000000000000, -0.000000000000000000, 1.000000000000000000 ) ) ;
#934 = ADVANCED_FACE ( 'NONE', ( #752 ), #587, .F. ) ;
#935 = VECTOR ( 'NONE', #60, 1000.000000000000000 ) ;
#936 = ORIENTED_EDGE ( 'NONE', *, *, #86, .T. ) ;
#937 = VECTOR ( 'NONE', #235, 1000.000000000000000 ) ;
#938 = AXIS2_PLACEMENT_3D ( 'NONE', #457, #877, #447 ) ;
#939 = DIRECTION ( 'NONE',  ( 0.000000000000000000, 0.000000000000000000, 1.000000000000000000 ) ) ;
#940 = ADVANCED_FACE ( 'NONE', ( #839 ), #737, .T. ) ;
#941 = ORIENTED_EDGE ( 'NONE', *, *, #890, .F. ) ;
#942 = DIRECTION ( 'NONE',  ( 0.000000000000000000, 1.000000000000000000, -0.000000000000000000 ) ) ;
#943 = LINE ( 'NONE', #519, #1068 ) ;
#944 = EDGE_LOOP ( 'NONE', ( #631, #784, #1046, #905 ) ) ;
#945 = LINE ( 'NONE', #215, #415 ) ;
#946 =( REPRESENTATION_RELATIONSHIP ('NONE','NONE', #576, #765 ) REPRESENTATION_RELATIONSHIP_WITH_TRANSFORMATION ( #153 )SHAPE_REPRESENTATION_RELATIONSHIP( ) );
#947 = DIRECTION ( 'NONE',  ( -0.000000000000000000, 1.000000000000000000, -0.000000000000000000 ) ) ;
#948 = DIRECTION ( 'NONE',  ( 1.000000000000000000, 0.000000000000000000, 0.000000000000000000 ) ) ;
#949 = ORIENTED_EDGE ( 'NONE', *, *, #990, .F. ) ;
#950 = ORIENTED_EDGE ( 'NONE', *, *, #904, .T. ) ;
#951 = CARTESIAN_POINT ( 'NONE',  ( 62.20000000000000284, 25.19999999999999929, 10.00000000000000000 ) ) ;
#952 = CARTESIAN_POINT ( 'NONE',  ( 4.249999999999997335, 0.000000000000000000, 20.00000000000000000 ) ) ;
#953 = ORIENTED_EDGE ( 'NONE', *, *, #904, .F. ) ;
#954 =( GEOMETRIC_REPRESENTATION_CONTEXT ( 3 ) GLOBAL_UNCERTAINTY_ASSIGNED_CONTEXT ( ( #619 ) ) GLOBAL_UNIT_ASSIGNED_CONTEXT ( ( #608, #380, #535 ) ) REPRESENTATION_CONTEXT ( 'NONE', 'WORKASPACE' ) );
#955 = PLANE ( 'NONE',  #350 ) ;
#956 = VECTOR ( 'NONE', #244, 1000.000000000000000 ) ;
#957 = VERTEX_POINT ( 'NONE', #669 ) ;
#958 = CARTESIAN_POINT ( 'NONE',  ( 65.20000000000000284, 2.999999999999998668, 10.00000000000000000 ) ) ;
#959 = ORIENTED_EDGE ( 'NONE', *, *, #35, .T. ) ;
#960 = ADVANCED_FACE ( 'NONE', ( #420 ), #656, .F. ) ;
#961 = DIRECTION ( 'NONE',  ( 0.000000000000000000, 0.000000000000000000, 1.000000000000000000 ) ) ;
#962 = ORIENTED_EDGE ( 'NONE', *, *, #675, .T. ) ;
#963 = DIRECTION ( 'NONE',  ( 0.000000000000000000, -0.000000000000000000, -1.000000000000000000 ) ) ;
#964 = LINE ( 'NONE', #706, #300 ) ;
#965 = ORIENTED_EDGE ( 'NONE', *, *, #465, .T. ) ;
#966 = ORIENTED_EDGE ( 'NONE', *, *, #1081, .F. ) ;
#967 = LINE ( 'NONE', #644, #757 ) ;
#968 = CARTESIAN_POINT ( 'NONE',  ( 4.400000000000000355, 0.000000000000000000, 5.000000000000000000 ) ) ;
#969 = ORIENTED_EDGE ( 'NONE', *, *, #903, .T. ) ;
#970 = SHAPE_DEFINITION_REPRESENTATION ( #4, #765 ) ;
#971 = ORIENTED_EDGE ( 'NONE', *, *, #690, .T. ) ;
#972 = VECTOR ( 'NONE', #876, 1000.000000000000000 ) ;
#973 = CARTESIAN_POINT ( 'NONE',  ( 3.000000000000002665, -3.000000000000000000, 20.00000000000000000 ) ) ;
#974 = EDGE_CURVE ( 'NONE', #26, #476, #8, .T. ) ;
#975 = VECTOR ( 'NONE', #702, 1000.000000000000000 ) ;
#976 = DIRECTION ( 'NONE',  ( 0.000000000000000000, 1.000000000000000000, 0.000000000000000000 ) ) ;
#977 = STYLED_ITEM ( 'NONE', ( #343 ), #107 ) ;
#978 = ORIENTED_EDGE ( 'NONE', *, *, #678, .T. ) ;
#979 = APPLICATION_PROTOCOL_DEFINITION ( 'draft international standard', 'automotive_design', 1998, #142 ) ;
#980 = EDGE_LOOP ( 'NONE', ( #745, #611, #124, #1078 ) ) ;
#981 = CARTESIAN_POINT ( 'NONE',  ( 15.00000000000000000, 25.19999999999999929, 10.00000000000000000 ) ) ;
#982 = DIRECTION ( 'NONE',  ( -1.000000000000000000, -0.000000000000000000, -0.000000000000000000 ) ) ;
#983 = EDGE_LOOP ( 'NONE', ( #80, #696, #302, #463 ) ) ;
#984 = CONTEXT_DEPENDENT_SHAPE_REPRESENTATION ( #185, #212 ) ;
#985 = ORIENTED_EDGE ( 'NONE', *, *, #129, .T. ) ;
#986 = PLANE ( 'NONE',  #705 ) ;
#987 = EDGE_CURVE ( 'NONE', #550, #537, #591, .T. ) ;
#988 = FACE_BOUND ( 'NONE', #517, .T. ) ;
#989 = ORIENTED_EDGE ( 'NONE', *, *, #382, .F. ) ;
#990 = EDGE_CURVE ( 'NONE', #237, #624, #335, .T. ) ;
#991 = ORIENTED_EDGE ( 'NONE', *, *, #761, .F. ) ;
#992 = CARTESIAN_POINT ( 'NONE',  ( 57.50000000000000000, -3.000000000000000000, 0.000000000000000000 ) ) ;
#993 = VECTOR ( 'NONE', #91, 1000.000000000000000 ) ;
#994 = DIRECTION ( 'NONE',  ( -1.000000000000000000, -4.391705002472929091E-16, 0.000000000000000000 ) ) ;
#995 = EDGE_CURVE ( 'NONE', #770, #703, #664, .T. ) ;
#996 = AXIS2_PLACEMENT_3D ( 'NONE', #910, #348, #341 ) ;
#997 =( GEOMETRIC_REPRESENTATION_CONTEXT ( 3 ) GLOBAL_UNCERTAINTY_ASSIGNED_CONTEXT ( ( #533 ) ) GLOBAL_UNIT_ASSIGNED_CONTEXT ( ( #918, #432, #85 ) ) REPRESENTATION_CONTEXT ( 'NONE', 'WORKASPACE' ) );
#998 = ORIENTED_EDGE ( 'NONE', *, *, #595, .T. ) ;
#999 = VERTEX_POINT ( 'NONE', #163 ) ;
#1000 = CARTESIAN_POINT ( 'NONE',  ( 65.20000000000000284, 28.19999999999999929, 10.00000000000000000 ) ) ;
#1001 = CARTESIAN_POINT ( 'NONE',  ( 6.000000000000000888, -6.999999999999999112, 5.000000000000000000 ) ) ;
#1002 = CARTESIAN_POINT ( 'NONE',  ( 0.000000000000000000, 0.000000000000000000, 0.000000000000000000 ) ) ;
#1003 = ORIENTED_EDGE ( 'NONE', *, *, #785, .F. ) ;
#1004 = LINE ( 'NONE', #1006, #367 ) ;
#1005 = CARTESIAN_POINT ( 'NONE',  ( 57.50000000000000000, -3.000000000000000000, 0.000000000000000000 ) ) ;
#1006 = CARTESIAN_POINT ( 'NONE',  ( 60.50000000000000000, 0.000000000000000000, 20.00000000000000000 ) ) ;
#1007 = CARTESIAN_POINT ( 'NONE',  ( 71.19999999999998863, 0.000000000000000000, 5.000000000000000000 ) ) ;
#1008 = EDGE_CURVE ( 'NONE', #1054, #75, #1004, .T. ) ;
#1009 = VECTOR ( 'NONE', #900, 1000.000000000000000 ) ;
#1010 = LINE ( 'NONE', #594, #549 ) ;
#1011 = VECTOR ( 'NONE', #16, 1000.000000000000000 ) ;
#1012 = CLOSED_SHELL ( 'NONE', ( #271, #33, #960, #391, #1022, #187, #659, #874, #1059, #853, #378, #838, #329, #454, #590, #544, #510, #886 ) ) ;
#1013 = AXIS2_PLACEMENT_3D ( 'NONE', #817, #396, #73 ) ;
#1014 = CYLINDRICAL_SURFACE ( 'NONE', #1066, 1.600000000000004086 ) ;
#1015 = CARTESIAN_POINT ( 'NONE',  ( 62.20000000000000284, 25.19999999999999929, 10.00000000000000000 ) ) ;
#1016 = FACE_OUTER_BOUND ( 'NONE', #318, .T. ) ;
#1017 = DIRECTION ( 'NONE',  ( 1.000000000000000000, 2.442865006173196483E-17, -0.000000000000000000 ) ) ;
#1018 = DIRECTION ( 'NONE',  ( 9.820493294553729705E-17, 0.000000000000000000, 1.000000000000000000 ) ) ;
#1019 = EDGE_CURVE ( 'NONE', #719, #1054, #178, .T. ) ;
#1020 = DIRECTION ( 'NONE',  ( -0.000000000000000000, -0.000000000000000000, -1.000000000000000000 ) ) ;
#1021 = ORIENTED_EDGE ( 'NONE', *, *, #1041, .T. ) ;
#1022 = ADVANCED_FACE ( 'NONE', ( #926 ), #835, .F. ) ;
#1023 = APPLICATION_CONTEXT ( 'automotive_design' ) ;
#1024 = UNCERTAINTY_MEASURE_WITH_UNIT (LENGTH_MEASURE( 1.000000000000000082E-05 ), #718, 'distance_accuracy_value', 'NONE');
#1025 = EDGE_LOOP ( 'NONE', ( #855, #219, #859, #778 ) ) ;
#1026 = DIRECTION ( 'NONE',  ( 2.442865006173196175E-17, -1.000000000000000000, 0.000000000000000000 ) ) ;
#1027 = AXIS2_PLACEMENT_3D ( 'NONE', #1043, #603, #31 ) ;
#1028 = VERTEX_POINT ( 'NONE', #111 ) ;
#1029 = AXIS2_PLACEMENT_3D ( 'NONE', #661, #416, #827 ) ;
#1030 = PRESENTATION_LAYER_ASSIGNMENT (  '', '', ( #977 ) ) ;
#1031 =( NAMED_UNIT ( * ) SI_UNIT ( $, .STERADIAN. ) SOLID_ANGLE_UNIT ( ) );
#1032 = FACE_OUTER_BOUND ( 'NONE', #255, .T. ) ;
#1033 = DIRECTION ( 'NONE',  ( -0.000000000000000000, -0.000000000000000000, -1.000000000000000000 ) ) ;
#1034 = ORIENTED_EDGE ( 'NONE', *, *, #332, .T. ) ;
#1035 = DIRECTION ( 'NONE',  ( 1.000000000000000000, 0.000000000000000000, 0.000000000000000000 ) ) ;
#1036 = ORIENTED_EDGE ( 'NONE', *, *, #393, .T. ) ;
#1037 = DIRECTION ( 'NONE',  ( 2.753529326947313913E-16, -1.000000000000000000, 0.000000000000000000 ) ) ;
#1038 = CARTESIAN_POINT ( 'NONE',  ( 6.938893903907228378E-15, -15.80000000000000071, 0.000000000000000000 ) ) ;
#1039 = ORIENTED_EDGE ( 'NONE', *, *, #221, .F. ) ;
#1040 = DIRECTION ( 'NONE',  ( -1.000000000000000000, 0.000000000000000000, 0.000000000000000000 ) ) ;
#1041 = EDGE_CURVE ( 'NONE', #607, #49, #293, .T. ) ;
#1042 = VERTEX_POINT ( 'NONE', #288 ) ;
#1043 = CARTESIAN_POINT ( 'NONE',  ( 71.19999999999998863, 0.000000000000000000, 5.000000000000000000 ) ) ;
#1044 = CARTESIAN_POINT ( 'NONE',  ( 3.000000000000002665, -3.000000000000000000, 0.000000000000000000 ) ) ;
#1045 = EDGE_CURVE ( 'NONE', #49, #797, #861, .T. ) ;
#1046 = ORIENTED_EDGE ( 'NONE', *, *, #626, .T. ) ;
#1047 = VECTOR ( 'NONE', #1055, 1000.000000000000000 ) ;
#1048 = DIRECTION ( 'NONE',  ( 0.000000000000000000, 0.000000000000000000, 1.000000000000000000 ) ) ;
#1049 = VECTOR ( 'NONE', #800, 1000.000000000000000 ) ;
#1050 = ORIENTED_EDGE ( 'NONE', *, *, #184, .F. ) ;
#1051 = CARTESIAN_POINT ( 'NONE',  ( 4.249999999999996447, -3.000000000000000000, 8.000000000000000000 ) ) ;
#1052 = DIRECTION ( 'NONE',  ( -1.084202172485504187E-16, 1.000000000000000000, -0.000000000000000000 ) ) ;
#1053 = ORIENTED_EDGE ( 'NONE', *, *, #20, .F. ) ;
#1054 = VERTEX_POINT ( 'NONE', #442 ) ;
#1055 = DIRECTION ( 'NONE',  ( 0.000000000000000000, -1.000000000000000000, 0.000000000000000000 ) ) ;
#1056 = CARTESIAN_POINT ( 'NONE',  ( 77.19999999999998863, 3.000000000000000000, 10.00000000000000000 ) ) ;
#1057 = ORIENTED_EDGE ( 'NONE', *, *, #577, .F. ) ;
#1058 = APPLICATION_PROTOCOL_DEFINITION ( 'draft international standard', 'automotive_design', 1998, #127 ) ;
#1059 = ADVANCED_FACE ( 'NONE', ( #507 ), #955, .F. ) ;
#1060 = ORIENTED_EDGE ( 'NONE', *, *, #436, .F. ) ;
#1061 = DIRECTION ( 'NONE',  ( 0.000000000000000000, 0.000000000000000000, -1.000000000000000000 ) ) ;
#1062 = PLANE ( 'NONE',  #531 ) ;
#1063 = DIRECTION ( 'NONE',  ( -0.000000000000000000, -0.000000000000000000, -1.000000000000000000 ) ) ;
#1064 = PRODUCT_CONTEXT ( 'NONE', #789, 'mechanical' ) ;
#1065 = ORIENTED_EDGE ( 'NONE', *, *, #113, .F. ) ;
#1066 = AXIS2_PLACEMENT_3D ( 'NONE', #584, #90, #260 ) ;
#1067 = CARTESIAN_POINT ( 'NONE',  ( 12.00000000000000355, 3.000000000000001332, 10.00000000000000000 ) ) ;
#1068 = VECTOR ( 'NONE', #852, 1000.000000000000000 ) ;
#1069 = CARTESIAN_POINT ( 'NONE',  ( 15.00000000000000000, 0.000000000000000000, 0.000000000000000000 ) ) ;
#1070 = AXIS2_PLACEMENT_3D ( 'NONE', #1074, #994, #734 ) ;
#1071 = EDGE_LOOP ( 'NONE', ( #617, #70, #731, #893 ) ) ;
#1072 = ORIENTED_EDGE ( 'NONE', *, *, #728, .T. ) ;
#1073 = CARTESIAN_POINT ( 'NONE',  ( 77.19999999999998863, 0.000000000000000000, 0.000000000000000000 ) ) ;
#1074 = CARTESIAN_POINT ( 'NONE',  ( 60.50000000000000000, 0.000000000000000000, 20.00000000000000000 ) ) ;
#1075 = FACE_OUTER_BOUND ( 'NONE', #1025, .T. ) ;
#1076 = CONTEXT_DEPENDENT_SHAPE_REPRESENTATION ( #946, #730 ) ;
#1077 = EDGE_CURVE ( 'NONE', #735, #130, #30, .T. ) ;
#1078 = ORIENTED_EDGE ( 'NONE', *, *, #436, .T. ) ;
#1079 = CARTESIAN_POINT ( 'NONE',  ( 0.000000000000000000, 0.000000000000000000, 0.000000000000000000 ) ) ;
#1080 = FACE_OUTER_BOUND ( 'NONE', #983, .T. ) ;
#1081 = EDGE_CURVE ( 'NONE', #156, #723, #945, .T. ) ;
#1082 = ORIENTED_EDGE ( 'NONE', *, *, #117, .T. ) ;
#1083 = ORIENTED_EDGE ( 'NONE', *, *, #48, .T. ) ;
#1084 = DIRECTION ( 'NONE',  ( -1.000000000000000000, -1.304303365396095688E-16, 0.000000000000000000 ) ) ;
#1085 = VECTOR ( 'NONE', #412, 1000.000000000000000 ) ;
#1086 = CARTESIAN_POINT ( 'NONE',  ( 65.20000000000000284, 28.19999999999999929, 0.000000000000000000 ) ) ;
#1087 = NEXT_ASSEMBLY_USAGE_OCCURRENCE ( 'NAUO1', ' ', ' ', #78, #653, $ ) ;
#1088 = NEXT_ASSEMBLY_USAGE_OCCURRENCE ( 'NAUO2', ' ', ' ', #78, #553, $ ) ;
ENDSEC;
END-ISO-10303-21;
