ISO-10303-21;
HEADER;
FILE_DESCRIPTION (( 'STEP AP214' ),
    '1' );
FILE_NAME ('Sticks.STEP',
    '2026-05-13T00:31:23',
    ( '' ),
    ( '' ),
    'SwSTEP 2.0',
    'SolidWorks 2025',
    '' );
FILE_SCHEMA (( 'AUTOMOTIVE_DESIGN' ));
ENDSEC;

DATA;
#1 = EDGE_LOOP ( 'NONE', ( #122, #20 ) ) ;
#2 = ORIENTED_EDGE ( 'NONE', *, *, #168, .F. ) ;
#3 = EDGE_LOOP ( 'NONE', ( #33, #62, #205, #34 ) ) ;
#4 = CARTESIAN_POINT ( 'NONE',  ( 2.250000000000000000, 2.755455298081544285E-16, 0.000000000000000000 ) ) ;
#5 = DIRECTION ( 'NONE',  ( 1.000000000000000000, 0.000000000000000000, 0.000000000000000000 ) ) ;
#6 = FACE_OUTER_BOUND ( 'NONE', #95, .T. ) ;
#7 = DIRECTION ( 'NONE',  ( 1.000000000000000000, 0.000000000000000000, 0.000000000000000000 ) ) ;
#8 = EDGE_CURVE ( 'NONE', #63, #91, #108, .T. ) ;
#9 = PRODUCT_DEFINITION_SHAPE ( 'NONE', 'NONE',  #85 ) ;
#10 = FILL_AREA_STYLE_COLOUR ( '', #143 ) ;
#11 = DIRECTION ( 'NONE',  ( 0.000000000000000000, 0.000000000000000000, 1.000000000000000000 ) ) ;
#12 = ADVANCED_FACE ( 'NONE', ( #30 ), #29, .T. ) ;
#13 = AXIS2_PLACEMENT_3D ( 'NONE', #27, #185, #26 ) ;
#14 = FACE_OUTER_BOUND ( 'NONE', #164, .T. ) ;
#15 = FACE_OUTER_BOUND ( 'NONE', #3, .T. ) ;
#16 = EDGE_CURVE ( 'NONE', #92, #113, #138, .T. ) ;
#17 = DIRECTION ( 'NONE',  ( -1.000000000000000000, 0.000000000000000000, 0.000000000000000000 ) ) ;
#18 = CARTESIAN_POINT ( 'NONE',  ( 1.399999999999999911, 1.714505518806294391E-16, 28.00000000000000000 ) ) ;
#19 = VERTEX_POINT ( 'NONE', #161 ) ;
#20 = ORIENTED_EDGE ( 'NONE', *, *, #125, .T. ) ;
#21 = AXIS2_PLACEMENT_3D ( 'NONE', #117, #182, #71 ) ;
#22 = FACE_BOUND ( 'NONE', #110, .T. ) ;
#23 = DIRECTION ( 'NONE',  ( 1.000000000000000000, 0.000000000000000000, 0.000000000000000000 ) ) ;
#24 = PLANE ( 'NONE',  #147 ) ;
#25 = CARTESIAN_POINT ( 'NONE',  ( 0.000000000000000000, 0.000000000000000000, 3.000000000000000000 ) ) ;
#26 = DIRECTION ( 'NONE',  ( 1.000000000000000000, 0.000000000000000000, 0.000000000000000000 ) ) ;
#27 = CARTESIAN_POINT ( 'NONE',  ( 0.000000000000000000, 0.000000000000000000, 28.00000000000000000 ) ) ;
#28 = PRODUCT_CONTEXT ( 'NONE', #45, 'mechanical' ) ;
#29 = CYLINDRICAL_SURFACE ( 'NONE', #203, 2.250000000000000000 ) ;
#30 = FACE_OUTER_BOUND ( 'NONE', #77, .T. ) ;
#31 = CARTESIAN_POINT ( 'NONE',  ( 2.250000000000000000, 2.755455298081544285E-16, 3.000000000000000000 ) ) ;
#32 = CIRCLE ( 'NONE', #157, 2.250000000000000000 ) ;
#33 = ORIENTED_EDGE ( 'NONE', *, *, #8, .F. ) ;
#34 = ORIENTED_EDGE ( 'NONE', *, *, #129, .T. ) ;
#35 = CARTESIAN_POINT ( 'NONE',  ( 0.000000000000000000, 0.000000000000000000, 3.000000000000000000 ) ) ;
#36 =( NAMED_UNIT ( * ) SI_UNIT ( $, .STERADIAN. ) SOLID_ANGLE_UNIT ( ) );
#37 = DIRECTION ( 'NONE',  ( 1.000000000000000000, 0.000000000000000000, 0.000000000000000000 ) ) ;
#38 = ADVANCED_FACE ( 'NONE', ( #15 ), #188, .T. ) ;
#39 = CARTESIAN_POINT ( 'NONE',  ( 0.000000000000000000, 0.000000000000000000, 3.000000000000000000 ) ) ;
#40 = VECTOR ( 'NONE', #76, 1000.000000000000000 ) ;
#41 = APPLICATION_PROTOCOL_DEFINITION ( 'draft international standard', 'automotive_design', 1998, #45 ) ;
#42 = PLANE ( 'NONE',  #75 ) ;
#43 = CIRCLE ( 'NONE', #148, 1.399999999999999911 ) ;
#44 = ORIENTED_EDGE ( 'NONE', *, *, #120, .F. ) ;
#45 = APPLICATION_CONTEXT ( 'automotive_design' ) ;
#46 = ORIENTED_EDGE ( 'NONE', *, *, #153, .F. ) ;
#47 = ORIENTED_EDGE ( 'NONE', *, *, #16, .F. ) ;
#48 = MECHANICAL_DESIGN_GEOMETRIC_PRESENTATION_REPRESENTATION (  '', ( #87 ), #112 ) ;
#49 = VERTEX_POINT ( 'NONE', #187 ) ;
#50 = SURFACE_SIDE_STYLE ('',( #130 ) ) ;
#51 = SURFACE_STYLE_USAGE ( .BOTH. , #50 ) ;
#52 = UNCERTAINTY_MEASURE_WITH_UNIT (LENGTH_MEASURE( 1.000000000000000082E-05 ), #181, 'distance_accuracy_value', 'NONE');
#53 = AXIS2_PLACEMENT_3D ( 'NONE', #202, #60, #109 ) ;
#54 = CARTESIAN_POINT ( 'NONE',  ( 0.000000000000000000, 0.000000000000000000, 0.000000000000000000 ) ) ;
#55 = DIRECTION ( 'NONE',  ( -1.000000000000000000, 0.000000000000000000, 0.000000000000000000 ) ) ;
#56 = EDGE_CURVE ( 'NONE', #92, #49, #175, .T. ) ;
#57 = DIRECTION ( 'NONE',  ( 0.000000000000000000, 0.000000000000000000, 1.000000000000000000 ) ) ;
#58 = CIRCLE ( 'NONE', #131, 2.250000000000000000 ) ;
#59 = DIRECTION ( 'NONE',  ( -1.000000000000000000, 0.000000000000000000, 0.000000000000000000 ) ) ;
#60 = DIRECTION ( 'NONE',  ( -0.000000000000000000, -0.000000000000000000, -1.000000000000000000 ) ) ;
#61 = VECTOR ( 'NONE', #126, 1000.000000000000000 ) ;
#62 = ORIENTED_EDGE ( 'NONE', *, *, #151, .F. ) ;
#63 = VERTEX_POINT ( 'NONE', #84 ) ;
#64 = ORIENTED_EDGE ( 'NONE', *, *, #16, .T. ) ;
#65 = ORIENTED_EDGE ( 'NONE', *, *, #125, .F. ) ;
#66 = DIRECTION ( 'NONE',  ( -0.000000000000000000, -0.000000000000000000, -1.000000000000000000 ) ) ;
#67 = DIRECTION ( 'NONE',  ( 0.000000000000000000, 0.000000000000000000, 1.000000000000000000 ) ) ;
#68 = AXIS2_PLACEMENT_3D ( 'NONE', #166, #114, #55 ) ;
#69 = PRESENTATION_STYLE_ASSIGNMENT (( #51 ) ) ;
#70 = DIRECTION ( 'NONE',  ( 0.000000000000000000, 0.000000000000000000, 1.000000000000000000 ) ) ;
#71 = DIRECTION ( 'NONE',  ( 1.000000000000000000, 0.000000000000000000, -0.000000000000000000 ) ) ;
#72 = CLOSED_SHELL ( 'NONE', ( #115, #12, #38, #136, #81, #189, #176 ) ) ;
#73 = DIRECTION ( 'NONE',  ( 1.000000000000000000, 0.000000000000000000, 0.000000000000000000 ) ) ;
#74 = CARTESIAN_POINT ( 'NONE',  ( 0.000000000000000000, 0.000000000000000000, 28.00000000000000000 ) ) ;
#75 = AXIS2_PLACEMENT_3D ( 'NONE', #103, #57, #200 ) ;
#76 = DIRECTION ( 'NONE',  ( -0.000000000000000000, -0.000000000000000000, -1.000000000000000000 ) ) ;
#77 = EDGE_LOOP ( 'NONE', ( #65, #123, #159, #46 ) ) ;
#78 = CIRCLE ( 'NONE', #197, 1.399999999999999911 ) ;
#79 = PLANE ( 'NONE',  #21 ) ;
#80 = CARTESIAN_POINT ( 'NONE',  ( -2.250000000000000000, 0.000000000000000000, 3.000000000000000000 ) ) ;
#81 = ADVANCED_FACE ( 'NONE', ( #146 ), #24, .F. ) ;
#82 = DIRECTION ( 'NONE',  ( 0.000000000000000000, 0.000000000000000000, 1.000000000000000000 ) ) ;
#83 = CARTESIAN_POINT ( 'NONE',  ( -1.399999999999999911, 0.000000000000000000, 28.00000000000000000 ) ) ;
#84 = CARTESIAN_POINT ( 'NONE',  ( 2.250000000000000000, 2.755455298081544285E-16, 3.000000000000000000 ) ) ;
#85 = PRODUCT_DEFINITION ( 'UNKNOWN', '', #107, #98 ) ;
#86 = VECTOR ( 'NONE', #173, 1000.000000000000000 ) ;
#87 = STYLED_ITEM ( 'NONE', ( #69 ), #155 ) ;
#88 = CARTESIAN_POINT ( 'NONE',  ( -1.399999999999999911, 0.000000000000000000, 3.000000000000000000 ) ) ;
#89 = AXIS2_PLACEMENT_3D ( 'NONE', #133, #11, #132 ) ;
#90 = CARTESIAN_POINT ( 'NONE',  ( 0.000000000000000000, 0.000000000000000000, 3.000000000000000000 ) ) ;
#91 = VERTEX_POINT ( 'NONE', #4 ) ;
#92 = VERTEX_POINT ( 'NONE', #194 ) ;
#93 = AXIS2_PLACEMENT_3D ( 'NONE', #25, #70, #37 ) ;
#94 = ORIENTED_EDGE ( 'NONE', *, *, #204, .F. ) ;
#95 = EDGE_LOOP ( 'NONE', ( #47, #142, #192, #2 ) ) ;
#96 = LINE ( 'NONE', #165, #172 ) ;
#97 = DIRECTION ( 'NONE',  ( 0.000000000000000000, 0.000000000000000000, 1.000000000000000000 ) ) ;
#98 = PRODUCT_DEFINITION_CONTEXT ( 'detailed design', #152, 'design' ) ;
#99 = DIRECTION ( 'NONE',  ( 1.000000000000000000, 0.000000000000000000, 0.000000000000000000 ) ) ;
#100 = DIRECTION ( 'NONE',  ( 1.000000000000000000, 0.000000000000000000, 0.000000000000000000 ) ) ;
#101 = CYLINDRICAL_SURFACE ( 'NONE', #68, 1.399999999999999911 ) ;
#102 =( LENGTH_UNIT ( ) NAMED_UNIT ( * ) SI_UNIT ( .MILLI., .METRE. ) );
#103 = CARTESIAN_POINT ( 'NONE',  ( 0.000000000000000000, 0.000000000000000000, 28.00000000000000000 ) ) ;
#104 = AXIS2_PLACEMENT_3D ( 'NONE', #171, #118, #59 ) ;
#105 =( NAMED_UNIT ( * ) SI_UNIT ( $, .STERADIAN. ) SOLID_ANGLE_UNIT ( ) );
#106 = CYLINDRICAL_SURFACE ( 'NONE', #104, 1.399999999999999911 ) ;
#107 = PRODUCT_DEFINITION_FORMATION_WITH_SPECIFIED_SOURCE ( 'ANY', '', #116, .NOT_KNOWN. ) ;
#108 = LINE ( 'NONE', #31, #86 ) ;
#109 = DIRECTION ( 'NONE',  ( -1.000000000000000000, 0.000000000000000000, 0.000000000000000000 ) ) ;
#110 = EDGE_LOOP ( 'NONE', ( #140, #190 ) ) ;
#111 = UNCERTAINTY_MEASURE_WITH_UNIT (LENGTH_MEASURE( 1.000000000000000082E-05 ), #102, 'distance_accuracy_value', 'NONE');
#112 =( GEOMETRIC_REPRESENTATION_CONTEXT ( 3 ) GLOBAL_UNCERTAINTY_ASSIGNED_CONTEXT ( ( #52 ) ) GLOBAL_UNIT_ASSIGNED_CONTEXT ( ( #181, #195, #36 ) ) REPRESENTATION_CONTEXT ( 'NONE', 'WORKASPACE' ) );
#113 = VERTEX_POINT ( 'NONE', #83 ) ;
#114 = DIRECTION ( 'NONE',  ( -0.000000000000000000, -0.000000000000000000, -1.000000000000000000 ) ) ;
#115 = ADVANCED_FACE ( 'NONE', ( #6 ), #101, .T. ) ;
#116 = PRODUCT ( 'Sticks', 'Sticks', '', ( #28 ) ) ;
#117 = CARTESIAN_POINT ( 'NONE',  ( 0.000000000000000000, 0.000000000000000000, 3.000000000000000000 ) ) ;
#118 = DIRECTION ( 'NONE',  ( -0.000000000000000000, -0.000000000000000000, -1.000000000000000000 ) ) ;
#119 = SHAPE_DEFINITION_REPRESENTATION ( #9, #201 ) ;
#120 = EDGE_CURVE ( 'NONE', #91, #19, #160, .T. ) ;
#121 = DIRECTION ( 'NONE',  ( -0.000000000000000000, -0.000000000000000000, -1.000000000000000000 ) ) ;
#122 = ORIENTED_EDGE ( 'NONE', *, *, #151, .T. ) ;
#123 = ORIENTED_EDGE ( 'NONE', *, *, #8, .T. ) ;
#124 = VERTEX_POINT ( 'NONE', #145 ) ;
#125 = EDGE_CURVE ( 'NONE', #63, #124, #186, .T. ) ;
#126 = DIRECTION ( 'NONE',  ( -0.000000000000000000, -0.000000000000000000, -1.000000000000000000 ) ) ;
#127 = AXIS2_PLACEMENT_3D ( 'NONE', #74, #158, #73 ) ;
#128 = DIRECTION ( 'NONE',  ( 0.000000000000000000, 0.000000000000000000, 1.000000000000000000 ) ) ;
#129 = EDGE_CURVE ( 'NONE', #19, #91, #32, .T. ) ;
#130 = SURFACE_STYLE_FILL_AREA ( #167 ) ;
#131 = AXIS2_PLACEMENT_3D ( 'NONE', #39, #128, #99 ) ;
#132 = DIRECTION ( 'NONE',  ( 1.000000000000000000, 0.000000000000000000, 0.000000000000000000 ) ) ;
#133 = CARTESIAN_POINT ( 'NONE',  ( 0.000000000000000000, 0.000000000000000000, 0.000000000000000000 ) ) ;
#134 = EDGE_CURVE ( 'NONE', #49, #174, #78, .T. ) ;
#135 = AXIS2_PLACEMENT_3D ( 'NONE', #149, #169, #5 ) ;
#136 = ADVANCED_FACE ( 'NONE', ( #22, #180 ), #79, .T. ) ;
#137 = ORIENTED_EDGE ( 'NONE', *, *, #163, .T. ) ;
#138 = CIRCLE ( 'NONE', #127, 1.399999999999999911 ) ;
#139 = ORIENTED_EDGE ( 'NONE', *, *, #204, .T. ) ;
#140 = ORIENTED_EDGE ( 'NONE', *, *, #163, .F. ) ;
#141 = EDGE_LOOP ( 'NONE', ( #139, #64 ) ) ;
#142 = ORIENTED_EDGE ( 'NONE', *, *, #56, .T. ) ;
#143 = COLOUR_RGB ( '',0.7921568627450980005, 0.8196078431372548767, 0.9333333333333333481 ) ;
#144 = DIRECTION ( 'NONE',  ( 0.000000000000000000, 0.000000000000000000, 1.000000000000000000 ) ) ;
#145 = CARTESIAN_POINT ( 'NONE',  ( -2.250000000000000000, 0.000000000000000000, 3.000000000000000000 ) ) ;
#146 = FACE_OUTER_BOUND ( 'NONE', #179, .T. ) ;
#147 = AXIS2_PLACEMENT_3D ( 'NONE', #170, #144, #196 ) ;
#148 = AXIS2_PLACEMENT_3D ( 'NONE', #35, #97, #100 ) ;
#149 = CARTESIAN_POINT ( 'NONE',  ( 0.000000000000000000, 0.000000000000000000, 0.000000000000000000 ) ) ;
#150 = LINE ( 'NONE', #80, #61 ) ;
#151 = EDGE_CURVE ( 'NONE', #124, #63, #58, .T. ) ;
#152 = APPLICATION_CONTEXT ( 'automotive_design' ) ;
#153 = EDGE_CURVE ( 'NONE', #124, #19, #150, .T. ) ;
#154 =( NAMED_UNIT ( * ) PLANE_ANGLE_UNIT ( ) SI_UNIT ( $, .RADIAN. ) );
#155 = MANIFOLD_SOLID_BREP ( 'Boss-Extrude4', #72 ) ;
#156 = APPLICATION_PROTOCOL_DEFINITION ( 'draft international standard', 'automotive_design', 1998, #152 ) ;
#157 = AXIS2_PLACEMENT_3D ( 'NONE', #54, #82, #7 ) ;
#158 = DIRECTION ( 'NONE',  ( 0.000000000000000000, 0.000000000000000000, 1.000000000000000000 ) ) ;
#159 = ORIENTED_EDGE ( 'NONE', *, *, #120, .T. ) ;
#160 = CIRCLE ( 'NONE', #135, 2.250000000000000000 ) ;
#161 = CARTESIAN_POINT ( 'NONE',  ( -2.250000000000000000, 0.000000000000000000, 0.000000000000000000 ) ) ;
#162 = ORIENTED_EDGE ( 'NONE', *, *, #56, .F. ) ;
#163 = EDGE_CURVE ( 'NONE', #174, #49, #43, .T. ) ;
#164 = EDGE_LOOP ( 'NONE', ( #162, #94, #178, #137 ) ) ;
#165 = CARTESIAN_POINT ( 'NONE',  ( -1.399999999999999911, 0.000000000000000000, 28.00000000000000000 ) ) ;
#166 = CARTESIAN_POINT ( 'NONE',  ( 0.000000000000000000, 0.000000000000000000, 28.00000000000000000 ) ) ;
#167 = FILL_AREA_STYLE ('',( #10 ) ) ;
#168 = EDGE_CURVE ( 'NONE', #113, #174, #96, .T. ) ;
#169 = DIRECTION ( 'NONE',  ( 0.000000000000000000, 0.000000000000000000, 1.000000000000000000 ) ) ;
#170 = CARTESIAN_POINT ( 'NONE',  ( 0.000000000000000000, 0.000000000000000000, 0.000000000000000000 ) ) ;
#171 = CARTESIAN_POINT ( 'NONE',  ( 0.000000000000000000, 0.000000000000000000, 28.00000000000000000 ) ) ;
#172 = VECTOR ( 'NONE', #66, 1000.000000000000000 ) ;
#173 = DIRECTION ( 'NONE',  ( -0.000000000000000000, -0.000000000000000000, -1.000000000000000000 ) ) ;
#174 = VERTEX_POINT ( 'NONE', #88 ) ;
#175 = LINE ( 'NONE', #18, #40 ) ;
#176 = ADVANCED_FACE ( 'NONE', ( #198 ), #42, .T. ) ;
#177 = CIRCLE ( 'NONE', #13, 1.399999999999999911 ) ;
#178 = ORIENTED_EDGE ( 'NONE', *, *, #168, .T. ) ;
#179 = EDGE_LOOP ( 'NONE', ( #191, #44 ) ) ;
#180 = FACE_OUTER_BOUND ( 'NONE', #1, .T. ) ;
#181 =( LENGTH_UNIT ( ) NAMED_UNIT ( * ) SI_UNIT ( .MILLI., .METRE. ) );
#182 = DIRECTION ( 'NONE',  ( 0.000000000000000000, 0.000000000000000000, 1.000000000000000000 ) ) ;
#183 = PRESENTATION_LAYER_ASSIGNMENT (  '', '', ( #87 ) ) ;
#184 = PRODUCT_RELATED_PRODUCT_CATEGORY ( 'part', '', ( #116 ) ) ;
#185 = DIRECTION ( 'NONE',  ( 0.000000000000000000, 0.000000000000000000, 1.000000000000000000 ) ) ;
#186 = CIRCLE ( 'NONE', #93, 2.250000000000000000 ) ;
#187 = CARTESIAN_POINT ( 'NONE',  ( 1.399999999999999911, 1.714505518806294391E-16, 3.000000000000000000 ) ) ;
#188 = CYLINDRICAL_SURFACE ( 'NONE', #53, 2.250000000000000000 ) ;
#189 = ADVANCED_FACE ( 'NONE', ( #14 ), #106, .T. ) ;
#190 = ORIENTED_EDGE ( 'NONE', *, *, #134, .F. ) ;
#191 = ORIENTED_EDGE ( 'NONE', *, *, #129, .F. ) ;
#192 = ORIENTED_EDGE ( 'NONE', *, *, #134, .T. ) ;
#193 = CARTESIAN_POINT ( 'NONE',  ( 0.000000000000000000, 0.000000000000000000, 3.000000000000000000 ) ) ;
#194 = CARTESIAN_POINT ( 'NONE',  ( 1.399999999999999911, 1.714505518806294391E-16, 28.00000000000000000 ) ) ;
#195 =( NAMED_UNIT ( * ) PLANE_ANGLE_UNIT ( ) SI_UNIT ( $, .RADIAN. ) );
#196 = DIRECTION ( 'NONE',  ( 1.000000000000000000, 0.000000000000000000, -0.000000000000000000 ) ) ;
#197 = AXIS2_PLACEMENT_3D ( 'NONE', #193, #67, #23 ) ;
#198 = FACE_OUTER_BOUND ( 'NONE', #141, .T. ) ;
#199 =( GEOMETRIC_REPRESENTATION_CONTEXT ( 3 ) GLOBAL_UNCERTAINTY_ASSIGNED_CONTEXT ( ( #111 ) ) GLOBAL_UNIT_ASSIGNED_CONTEXT ( ( #102, #154, #105 ) ) REPRESENTATION_CONTEXT ( 'NONE', 'WORKASPACE' ) );
#200 = DIRECTION ( 'NONE',  ( 1.000000000000000000, 0.000000000000000000, -0.000000000000000000 ) ) ;
#201 = ADVANCED_BREP_SHAPE_REPRESENTATION ( 'Sticks', ( #155, #89 ), #199 ) ;
#202 = CARTESIAN_POINT ( 'NONE',  ( 0.000000000000000000, 0.000000000000000000, 3.000000000000000000 ) ) ;
#203 = AXIS2_PLACEMENT_3D ( 'NONE', #90, #121, #17 ) ;
#204 = EDGE_CURVE ( 'NONE', #113, #92, #177, .T. ) ;
#205 = ORIENTED_EDGE ( 'NONE', *, *, #153, .T. ) ;
ENDSEC;
END-ISO-10303-21;
