ISO-10303-21;
HEADER;
FILE_DESCRIPTION (( 'STEP AP214' ),
    '1' );
FILE_NAME ('Stick-part.STEP',
    '2026-05-13T00:39:14',
    ( '' ),
    ( '' ),
    'SwSTEP 2.0',
    'SolidWorks 2025',
    '' );
FILE_SCHEMA (( 'AUTOMOTIVE_DESIGN' ));
ENDSEC;

DATA;
#1 = ADVANCED_FACE ( 'NONE', ( #256 ), #115, .F. ) ;
#2 = DIRECTION ( 'NONE',  ( 0.000000000000000000, 0.000000000000000000, 1.000000000000000000 ) ) ;
#3 = DIRECTION ( 'NONE',  ( -1.000000000000000000, -0.000000000000000000, -0.000000000000000000 ) ) ;
#4 = SURFACE_SIDE_STYLE ('',( #163 ) ) ;
#5 = CIRCLE ( 'NONE', #202, 1.449999999999999956 ) ;
#6 = CARTESIAN_POINT ( 'NONE',  ( 0.000000000000000000, 0.000000000000000000, 0.000000000000000000 ) ) ;
#7 = LINE ( 'NONE', #170, #206 ) ;
#8 = AXIS2_PLACEMENT_3D ( 'NONE', #10, #126, #247 ) ;
#9 = ADVANCED_FACE ( 'NONE', ( #34 ), #179, .F. ) ;
#10 = CARTESIAN_POINT ( 'NONE',  ( 1.734723475976807094E-15, -4.500000000000000000, 4.000000000000000000 ) ) ;
#11 = DIRECTION ( 'NONE',  ( 1.000000000000000000, 0.000000000000000000, 0.000000000000000000 ) ) ;
#12 = EDGE_LOOP ( 'NONE', ( #109, #20, #173, #74 ) ) ;
#13 = VERTEX_POINT ( 'NONE', #69 ) ;
#14 = SHAPE_DEFINITION_REPRESENTATION ( #141, #251 ) ;
#15 = ORIENTED_EDGE ( 'NONE', *, *, #139, .T. ) ;
#16 = EDGE_LOOP ( 'NONE', ( #178, #237, #191, #136 ) ) ;
#17 = VECTOR ( 'NONE', #174, 1000.000000000000000 ) ;
#18 = EDGE_LOOP ( 'NONE', ( #151, #199, #38, #133 ) ) ;
#19 = ORIENTED_EDGE ( 'NONE', *, *, #224, .F. ) ;
#20 = ORIENTED_EDGE ( 'NONE', *, *, #161, .F. ) ;
#21 = AXIS2_PLACEMENT_3D ( 'NONE', #222, #138, #22 ) ;
#22 = DIRECTION ( 'NONE',  ( 1.000000000000000000, 0.000000000000000000, 0.000000000000000000 ) ) ;
#23 = EDGE_CURVE ( 'NONE', #35, #218, #219, .T. ) ;
#24 = FACE_OUTER_BOUND ( 'NONE', #16, .T. ) ;
#25 = DIRECTION ( 'NONE',  ( 1.000000000000000000, 0.000000000000000000, 0.000000000000000000 ) ) ;
#26 = AXIS2_PLACEMENT_3D ( 'NONE', #223, #208, #122 ) ;
#27 = PLANE ( 'NONE',  #8 ) ;
#28 = EDGE_CURVE ( 'NONE', #36, #218, #110, .T. ) ;
#29 = CARTESIAN_POINT ( 'NONE',  ( 0.000000000000000000, 0.000000000000000000, 4.000000000000000000 ) ) ;
#30 = FACE_OUTER_BOUND ( 'NONE', #67, .T. ) ;
#31 = MECHANICAL_DESIGN_GEOMETRIC_PRESENTATION_REPRESENTATION (  '', ( #232 ), #83 ) ;
#32 = APPLICATION_CONTEXT ( 'automotive_design' ) ;
#33 = PRODUCT_RELATED_PRODUCT_CATEGORY ( 'part', '', ( #238 ) ) ;
#34 = FACE_OUTER_BOUND ( 'NONE', #12, .T. ) ;
#35 = VERTEX_POINT ( 'NONE', #112 ) ;
#36 = VERTEX_POINT ( 'NONE', #194 ) ;
#37 = ORIENTED_EDGE ( 'NONE', *, *, #91, .T. ) ;
#38 = ORIENTED_EDGE ( 'NONE', *, *, #53, .T. ) ;
#39 =( LENGTH_UNIT ( ) NAMED_UNIT ( * ) SI_UNIT ( .MILLI., .METRE. ) );
#40 = AXIS2_PLACEMENT_3D ( 'NONE', #160, #100, #221 ) ;
#41 = CARTESIAN_POINT ( 'NONE',  ( 0.000000000000000000, 0.000000000000000000, 4.000000000000000000 ) ) ;
#42 = CARTESIAN_POINT ( 'NONE',  ( 2.250000000000000000, -2.250000000000000000, 0.000000000000000000 ) ) ;
#43 = DIRECTION ( 'NONE',  ( 1.000000000000000000, 0.000000000000000000, 0.000000000000000000 ) ) ;
#44 = CARTESIAN_POINT ( 'NONE',  ( 0.000000000000000000, 0.000000000000000000, 0.000000000000000000 ) ) ;
#45 = CARTESIAN_POINT ( 'NONE',  ( 0.7999999999999999334, -2.250000000000000000, 0.000000000000000000 ) ) ;
#46 = EDGE_CURVE ( 'NONE', #13, #239, #61, .T. ) ;
#47 = AXIS2_PLACEMENT_3D ( 'NONE', #201, #95, #254 ) ;
#48 = DIRECTION ( 'NONE',  ( -3.854941057726238097E-16, 1.000000000000000000, -0.000000000000000000 ) ) ;
#49 = VECTOR ( 'NONE', #204, 1000.000000000000000 ) ;
#50 = ORIENTED_EDGE ( 'NONE', *, *, #161, .T. ) ;
#51 = ORIENTED_EDGE ( 'NONE', *, *, #243, .T. ) ;
#52 = EDGE_LOOP ( 'NONE', ( #135, #193, #216, #233 ) ) ;
#53 = EDGE_CURVE ( 'NONE', #158, #239, #152, .T. ) ;
#54 = EDGE_LOOP ( 'NONE', ( #15, #172 ) ) ;
#55 = ORIENTED_EDGE ( 'NONE', *, *, #23, .F. ) ;
#56 = DIRECTION ( 'NONE',  ( -0.000000000000000000, -0.000000000000000000, -1.000000000000000000 ) ) ;
#57 = CYLINDRICAL_SURFACE ( 'NONE', #253, 1.449999999999999956 ) ;
#58 = VECTOR ( 'NONE', #155, 1000.000000000000000 ) ;
#59 = FILL_AREA_STYLE ('',( #242 ) ) ;
#60 = CIRCLE ( 'NONE', #21, 1.449999999999999956 ) ;
#61 = LINE ( 'NONE', #121, #211 ) ;
#62 = DIRECTION ( 'NONE',  ( 3.854941057726238097E-16, -1.000000000000000000, 0.000000000000000000 ) ) ;
#63 = EDGE_CURVE ( 'NONE', #94, #36, #205, .T. ) ;
#64 = VECTOR ( 'NONE', #48, 1000.000000000000000 ) ;
#65 = DIRECTION ( 'NONE',  ( -0.000000000000000000, -0.000000000000000000, -1.000000000000000000 ) ) ;
#66 = CARTESIAN_POINT ( 'NONE',  ( 3.699999999999999734, -2.250000000000000000, 4.000000000000000000 ) ) ;
#67 = EDGE_LOOP ( 'NONE', ( #19, #258, #259, #215 ) ) ;
#68 = VECTOR ( 'NONE', #56, 1000.000000000000000 ) ;
#69 = CARTESIAN_POINT ( 'NONE',  ( 3.699999999999999734, -2.250000000000000000, 0.000000000000000000 ) ) ;
#70 = EDGE_CURVE ( 'NONE', #92, #197, #245, .T. ) ;
#71 = CARTESIAN_POINT ( 'NONE',  ( 0.000000000000000000, 0.000000000000000000, 4.000000000000000000 ) ) ;
#72 = VECTOR ( 'NONE', #62, 1000.000000000000000 ) ;
#73 = EDGE_LOOP ( 'NONE', ( #51, #37, #153, #176 ) ) ;
#74 = ORIENTED_EDGE ( 'NONE', *, *, #105, .T. ) ;
#75 = CARTESIAN_POINT ( 'NONE',  ( 1.734723475976807094E-15, -4.500000000000000000, 4.000000000000000000 ) ) ;
#76 = EDGE_CURVE ( 'NONE', #35, #92, #260, .T. ) ;
#77 = CARTESIAN_POINT ( 'NONE',  ( 4.500000000000000000, 0.000000000000000000, 4.000000000000000000 ) ) ;
#78 = CARTESIAN_POINT ( 'NONE',  ( 2.250000000000000000, -2.250000000000000000, 4.000000000000000000 ) ) ;
#79 = DIRECTION ( 'NONE',  ( 1.000000000000000000, 0.000000000000000000, 0.000000000000000000 ) ) ;
#80 =( NAMED_UNIT ( * ) SI_UNIT ( $, .STERADIAN. ) SOLID_ANGLE_UNIT ( ) );
#81 = MANIFOLD_SOLID_BREP ( 'Cut-Extrude1', #175 ) ;
#82 = APPLICATION_CONTEXT ( 'automotive_design' ) ;
#83 =( GEOMETRIC_REPRESENTATION_CONTEXT ( 3 ) GLOBAL_UNCERTAINTY_ASSIGNED_CONTEXT ( ( #198 ) ) GLOBAL_UNIT_ASSIGNED_CONTEXT ( ( #39, #184, #80 ) ) REPRESENTATION_CONTEXT ( 'NONE', 'WORKASPACE' ) );
#84 = CARTESIAN_POINT ( 'NONE',  ( 4.500000000000000000, 0.000000000000000000, 0.000000000000000000 ) ) ;
#85 = AXIS2_PLACEMENT_3D ( 'NONE', #108, #229, #11 ) ;
#86 = LINE ( 'NONE', #230, #120 ) ;
#87 = FACE_OUTER_BOUND ( 'NONE', #52, .T. ) ;
#88 = ORIENTED_EDGE ( 'NONE', *, *, #119, .F. ) ;
#89 = CARTESIAN_POINT ( 'NONE',  ( 1.734723475976807094E-15, -4.500000000000000000, 0.000000000000000000 ) ) ;
#90 = ORIENTED_EDGE ( 'NONE', *, *, #53, .F. ) ;
#91 = EDGE_CURVE ( 'NONE', #94, #35, #140, .T. ) ;
#92 = VERTEX_POINT ( 'NONE', #162 ) ;
#93 = VERTEX_POINT ( 'NONE', #165 ) ;
#94 = VERTEX_POINT ( 'NONE', #75 ) ;
#95 = DIRECTION ( 'NONE',  ( 1.000000000000000000, 3.854941057726238097E-16, -0.000000000000000000 ) ) ;
#96 = PRODUCT_DEFINITION ( 'UNKNOWN', '', #131, #134 ) ;
#97 = PRESENTATION_STYLE_ASSIGNMENT (( #101 ) ) ;
#98 = AXIS2_PLACEMENT_3D ( 'NONE', #104, #212, #209 ) ;
#99 = CARTESIAN_POINT ( 'NONE',  ( 1.734723475976807094E-15, -4.500000000000000000, 4.000000000000000000 ) ) ;
#100 = DIRECTION ( 'NONE',  ( 0.000000000000000000, 0.000000000000000000, 1.000000000000000000 ) ) ;
#101 = SURFACE_STYLE_USAGE ( .BOTH. , #4 ) ;
#102 = CARTESIAN_POINT ( 'NONE',  ( 0.7999999999999999334, -2.250000000000000000, 4.000000000000000000 ) ) ;
#103 = VECTOR ( 'NONE', #3, 1000.000000000000000 ) ;
#104 = CARTESIAN_POINT ( 'NONE',  ( 4.500000000000000000, 0.000000000000000000, 4.000000000000000000 ) ) ;
#105 = EDGE_CURVE ( 'NONE', #92, #157, #241, .T. ) ;
#106 = PRODUCT_CONTEXT ( 'NONE', #82, 'mechanical' ) ;
#107 =( GEOMETRIC_REPRESENTATION_CONTEXT ( 3 ) GLOBAL_UNCERTAINTY_ASSIGNED_CONTEXT ( ( #180 ) ) GLOBAL_UNIT_ASSIGNED_CONTEXT ( ( #231, #128, #190 ) ) REPRESENTATION_CONTEXT ( 'NONE', 'WORKASPACE' ) );
#108 = CARTESIAN_POINT ( 'NONE',  ( 2.250000000000000000, -2.250000000000000000, 0.000000000000000000 ) ) ;
#109 = ORIENTED_EDGE ( 'NONE', *, *, #111, .T. ) ;
#110 = LINE ( 'NONE', #89, #17 ) ;
#111 = EDGE_CURVE ( 'NONE', #157, #93, #244, .T. ) ;
#112 = CARTESIAN_POINT ( 'NONE',  ( 4.500000000000001776, -4.500000000000000000, 4.000000000000000000 ) ) ;
#113 = ORIENTED_EDGE ( 'NONE', *, *, #224, .T. ) ;
#114 = EDGE_LOOP ( 'NONE', ( #88, #90 ) ) ;
#115 = PLANE ( 'NONE',  #47 ) ;
#116 = PRESENTATION_LAYER_ASSIGNMENT (  '', '', ( #232 ) ) ;
#117 = DIRECTION ( 'NONE',  ( -3.854941057726238097E-16, 1.000000000000000000, -0.000000000000000000 ) ) ;
#118 = PLANE ( 'NONE',  #26 ) ;
#119 = EDGE_CURVE ( 'NONE', #239, #158, #5, .T. ) ;
#120 = VECTOR ( 'NONE', #65, 1000.000000000000000 ) ;
#121 = CARTESIAN_POINT ( 'NONE',  ( 3.699999999999999734, -2.250000000000000000, 0.000000000000000000 ) ) ;
#122 = DIRECTION ( 'NONE',  ( 1.000000000000000000, 0.000000000000000000, 0.000000000000000000 ) ) ;
#123 = PLANE ( 'NONE',  #98 ) ;
#124 = ADVANCED_FACE ( 'NONE', ( #185 ), #57, .F. ) ;
#125 = DIRECTION ( 'NONE',  ( 3.854941057726238097E-16, -1.000000000000000000, 0.000000000000000000 ) ) ;
#126 = DIRECTION ( 'NONE',  ( 0.000000000000000000, 1.000000000000000000, 0.000000000000000000 ) ) ;
#127 = FACE_OUTER_BOUND ( 'NONE', #159, .T. ) ;
#128 =( NAMED_UNIT ( * ) PLANE_ANGLE_UNIT ( ) SI_UNIT ( $, .RADIAN. ) );
#129 = COLOUR_RGB ( '',0.7921568627450980005, 0.8196078431372548767, 0.9333333333333333481 ) ;
#130 = ORIENTED_EDGE ( 'NONE', *, *, #28, .T. ) ;
#131 = PRODUCT_DEFINITION_FORMATION_WITH_SPECIFIED_SOURCE ( 'ANY', '', #238, .NOT_KNOWN. ) ;
#132 = CARTESIAN_POINT ( 'NONE',  ( 4.500000000000001776, -4.500000000000000000, 4.000000000000000000 ) ) ;
#133 = ORIENTED_EDGE ( 'NONE', *, *, #46, .F. ) ;
#134 = PRODUCT_DEFINITION_CONTEXT ( 'detailed design', #32, 'design' ) ;
#135 = ORIENTED_EDGE ( 'NONE', *, *, #183, .T. ) ;
#136 = ORIENTED_EDGE ( 'NONE', *, *, #119, .T. ) ;
#137 = DIRECTION ( 'NONE',  ( 0.000000000000000000, -1.000000000000000000, 0.000000000000000000 ) ) ;
#138 = DIRECTION ( 'NONE',  ( 0.000000000000000000, 0.000000000000000000, 1.000000000000000000 ) ) ;
#139 = EDGE_CURVE ( 'NONE', #13, #257, #60, .T. ) ;
#140 = LINE ( 'NONE', #99, #49 ) ;
#141 = PRODUCT_DEFINITION_SHAPE ( 'NONE', 'NONE',  #96 ) ;
#142 = DIRECTION ( 'NONE',  ( -0.000000000000000000, -0.000000000000000000, 1.000000000000000000 ) ) ;
#143 = CARTESIAN_POINT ( 'NONE',  ( 0.000000000000000000, 0.000000000000000000, 0.000000000000000000 ) ) ;
#144 = DIRECTION ( 'NONE',  ( -0.000000000000000000, -0.000000000000000000, 1.000000000000000000 ) ) ;
#145 = CARTESIAN_POINT ( 'NONE',  ( 4.500000000000000000, 0.000000000000000000, 0.000000000000000000 ) ) ;
#146 = AXIS2_PLACEMENT_3D ( 'NONE', #44, #210, #167 ) ;
#147 = CARTESIAN_POINT ( 'NONE',  ( 2.250000000000000000, -2.250000000000000000, 0.000000000000000000 ) ) ;
#148 = DIRECTION ( 'NONE',  ( -0.000000000000000000, -0.000000000000000000, 1.000000000000000000 ) ) ;
#149 = ADVANCED_FACE ( 'NONE', ( #182, #261 ), #118, .T. ) ;
#150 = LINE ( 'NONE', #84, #64 ) ;
#151 = ORIENTED_EDGE ( 'NONE', *, *, #234, .F. ) ;
#152 = CIRCLE ( 'NONE', #40, 1.449999999999999956 ) ;
#153 = ORIENTED_EDGE ( 'NONE', *, *, #76, .T. ) ;
#154 = ADVANCED_FACE ( 'NONE', ( #24 ), #246, .F. ) ;
#155 = DIRECTION ( 'NONE',  ( -0.000000000000000000, -0.000000000000000000, -1.000000000000000000 ) ) ;
#156 = VECTOR ( 'NONE', #125, 1000.000000000000000 ) ;
#157 = VERTEX_POINT ( 'NONE', #145 ) ;
#158 = VERTEX_POINT ( 'NONE', #102 ) ;
#159 = EDGE_LOOP ( 'NONE', ( #130, #55, #192, #240 ) ) ;
#160 = CARTESIAN_POINT ( 'NONE',  ( 2.250000000000000000, -2.250000000000000000, 4.000000000000000000 ) ) ;
#161 = EDGE_CURVE ( 'NONE', #197, #93, #86, .T. ) ;
#162 = CARTESIAN_POINT ( 'NONE',  ( 4.500000000000000000, 0.000000000000000000, 4.000000000000000000 ) ) ;
#163 = SURFACE_STYLE_FILL_AREA ( #59 ) ;
#164 = DIRECTION ( 'NONE',  ( -0.000000000000000000, -0.000000000000000000, -1.000000000000000000 ) ) ;
#165 = CARTESIAN_POINT ( 'NONE',  ( 0.000000000000000000, 0.000000000000000000, 0.000000000000000000 ) ) ;
#166 = VECTOR ( 'NONE', #164, 1000.000000000000000 ) ;
#167 = DIRECTION ( 'NONE',  ( 1.000000000000000000, 0.000000000000000000, 0.000000000000000000 ) ) ;
#168 = CIRCLE ( 'NONE', #85, 1.449999999999999956 ) ;
#169 = EDGE_CURVE ( 'NONE', #257, #158, #7, .T. ) ;
#170 = CARTESIAN_POINT ( 'NONE',  ( 0.7999999999999999334, -2.250000000000000000, 0.000000000000000000 ) ) ;
#171 = LINE ( 'NONE', #213, #156 ) ;
#172 = ORIENTED_EDGE ( 'NONE', *, *, #234, .T. ) ;
#173 = ORIENTED_EDGE ( 'NONE', *, *, #70, .F. ) ;
#174 = DIRECTION ( 'NONE',  ( 1.000000000000000000, 0.000000000000000000, 0.000000000000000000 ) ) ;
#175 = CLOSED_SHELL ( 'NONE', ( #124, #1, #187, #195, #9, #149, #255, #154 ) ) ;
#176 = ORIENTED_EDGE ( 'NONE', *, *, #70, .T. ) ;
#177 = EDGE_LOOP ( 'NONE', ( #113, #217, #252, #50 ) ) ;
#178 = ORIENTED_EDGE ( 'NONE', *, *, #169, .F. ) ;
#179 = PLANE ( 'NONE',  #196 ) ;
#180 = UNCERTAINTY_MEASURE_WITH_UNIT (LENGTH_MEASURE( 1.000000000000000082E-05 ), #231, 'distance_accuracy_value', 'NONE');
#181 = DIRECTION ( 'NONE',  ( -1.000000000000000000, -0.000000000000000000, -0.000000000000000000 ) ) ;
#182 = FACE_BOUND ( 'NONE', #114, .T. ) ;
#183 = EDGE_CURVE ( 'NONE', #218, #157, #150, .T. ) ;
#184 =( NAMED_UNIT ( * ) PLANE_ANGLE_UNIT ( ) SI_UNIT ( $, .RADIAN. ) );
#185 = FACE_OUTER_BOUND ( 'NONE', #18, .T. ) ;
#186 = LINE ( 'NONE', #227, #72 ) ;
#187 = ADVANCED_FACE ( 'NONE', ( #127 ), #27, .F. ) ;
#188 = FACE_BOUND ( 'NONE', #54, .T. ) ;
#189 = DIRECTION ( 'NONE',  ( -0.000000000000000000, -0.000000000000000000, 1.000000000000000000 ) ) ;
#190 =( NAMED_UNIT ( * ) SI_UNIT ( $, .STERADIAN. ) SOLID_ANGLE_UNIT ( ) );
#191 = ORIENTED_EDGE ( 'NONE', *, *, #46, .T. ) ;
#192 = ORIENTED_EDGE ( 'NONE', *, *, #91, .F. ) ;
#193 = ORIENTED_EDGE ( 'NONE', *, *, #105, .F. ) ;
#194 = CARTESIAN_POINT ( 'NONE',  ( 1.734723475976807094E-15, -4.500000000000000000, 0.000000000000000000 ) ) ;
#195 = ADVANCED_FACE ( 'NONE', ( #87 ), #123, .F. ) ;
#196 = AXIS2_PLACEMENT_3D ( 'NONE', #71, #137, #235 ) ;
#197 = VERTEX_POINT ( 'NONE', #29 ) ;
#198 = UNCERTAINTY_MEASURE_WITH_UNIT (LENGTH_MEASURE( 1.000000000000000082E-05 ), #39, 'distance_accuracy_value', 'NONE');
#199 = ORIENTED_EDGE ( 'NONE', *, *, #169, .T. ) ;
#200 = APPLICATION_PROTOCOL_DEFINITION ( 'draft international standard', 'automotive_design', 1998, #32 ) ;
#201 = CARTESIAN_POINT ( 'NONE',  ( 0.000000000000000000, 0.000000000000000000, 4.000000000000000000 ) ) ;
#202 = AXIS2_PLACEMENT_3D ( 'NONE', #78, #2, #79 ) ;
#203 = CARTESIAN_POINT ( 'NONE',  ( 1.734723475976807094E-15, -4.500000000000000000, 4.000000000000000000 ) ) ;
#204 = DIRECTION ( 'NONE',  ( 1.000000000000000000, 0.000000000000000000, 0.000000000000000000 ) ) ;
#205 = LINE ( 'NONE', #203, #166 ) ;
#206 = VECTOR ( 'NONE', #189, 1000.000000000000000 ) ;
#207 = DIRECTION ( 'NONE',  ( 1.000000000000000000, 0.000000000000000000, 0.000000000000000000 ) ) ;
#208 = DIRECTION ( 'NONE',  ( -0.000000000000000000, 0.000000000000000000, 1.000000000000000000 ) ) ;
#209 = DIRECTION ( 'NONE',  ( 3.854941057726238097E-16, -1.000000000000000000, 0.000000000000000000 ) ) ;
#210 = DIRECTION ( 'NONE',  ( -0.000000000000000000, 0.000000000000000000, 1.000000000000000000 ) ) ;
#211 = VECTOR ( 'NONE', #144, 1000.000000000000000 ) ;
#212 = DIRECTION ( 'NONE',  ( -1.000000000000000000, -3.854941057726238097E-16, 0.000000000000000000 ) ) ;
#213 = CARTESIAN_POINT ( 'NONE',  ( 0.000000000000000000, 0.000000000000000000, 4.000000000000000000 ) ) ;
#214 = VECTOR ( 'NONE', #117, 1000.000000000000000 ) ;
#215 = ORIENTED_EDGE ( 'NONE', *, *, #28, .F. ) ;
#216 = ORIENTED_EDGE ( 'NONE', *, *, #76, .F. ) ;
#217 = ORIENTED_EDGE ( 'NONE', *, *, #63, .F. ) ;
#218 = VERTEX_POINT ( 'NONE', #249 ) ;
#219 = LINE ( 'NONE', #132, #58 ) ;
#220 = VECTOR ( 'NONE', #181, 1000.000000000000000 ) ;
#221 = DIRECTION ( 'NONE',  ( 1.000000000000000000, 0.000000000000000000, 0.000000000000000000 ) ) ;
#222 = CARTESIAN_POINT ( 'NONE',  ( 2.250000000000000000, -2.250000000000000000, 0.000000000000000000 ) ) ;
#223 = CARTESIAN_POINT ( 'NONE',  ( 0.000000000000000000, 0.000000000000000000, 4.000000000000000000 ) ) ;
#224 = EDGE_CURVE ( 'NONE', #93, #36, #186, .T. ) ;
#225 = CARTESIAN_POINT ( 'NONE',  ( 4.500000000000000000, 0.000000000000000000, 4.000000000000000000 ) ) ;
#226 = DIRECTION ( 'NONE',  ( 0.000000000000000000, 0.000000000000000000, 1.000000000000000000 ) ) ;
#227 = CARTESIAN_POINT ( 'NONE',  ( 0.000000000000000000, 0.000000000000000000, 0.000000000000000000 ) ) ;
#228 = AXIS2_PLACEMENT_3D ( 'NONE', #6, #226, #25 ) ;
#229 = DIRECTION ( 'NONE',  ( 0.000000000000000000, 0.000000000000000000, 1.000000000000000000 ) ) ;
#230 = CARTESIAN_POINT ( 'NONE',  ( 0.000000000000000000, 0.000000000000000000, 4.000000000000000000 ) ) ;
#231 =( LENGTH_UNIT ( ) NAMED_UNIT ( * ) SI_UNIT ( .MILLI., .METRE. ) );
#232 = STYLED_ITEM ( 'NONE', ( #97 ), #81 ) ;
#233 = ORIENTED_EDGE ( 'NONE', *, *, #23, .T. ) ;
#234 = EDGE_CURVE ( 'NONE', #257, #13, #168, .T. ) ;
#235 = DIRECTION ( 'NONE',  ( 0.000000000000000000, -0.000000000000000000, -1.000000000000000000 ) ) ;
#236 = AXIS2_PLACEMENT_3D ( 'NONE', #147, #148, #43 ) ;
#237 = ORIENTED_EDGE ( 'NONE', *, *, #139, .F. ) ;
#238 = PRODUCT ( 'Stick-part', 'Stick-part', '', ( #106 ) ) ;
#239 = VERTEX_POINT ( 'NONE', #66 ) ;
#240 = ORIENTED_EDGE ( 'NONE', *, *, #63, .T. ) ;
#241 = LINE ( 'NONE', #77, #68 ) ;
#242 = FILL_AREA_STYLE_COLOUR ( '', #129 ) ;
#243 = EDGE_CURVE ( 'NONE', #197, #94, #171, .T. ) ;
#244 = LINE ( 'NONE', #143, #103 ) ;
#245 = LINE ( 'NONE', #41, #220 ) ;
#246 = CYLINDRICAL_SURFACE ( 'NONE', #236, 1.449999999999999956 ) ;
#247 = DIRECTION ( 'NONE',  ( 0.000000000000000000, -0.000000000000000000, 1.000000000000000000 ) ) ;
#248 = APPLICATION_PROTOCOL_DEFINITION ( 'draft international standard', 'automotive_design', 1998, #82 ) ;
#249 = CARTESIAN_POINT ( 'NONE',  ( 4.500000000000001776, -4.500000000000000000, 0.000000000000000000 ) ) ;
#250 = PLANE ( 'NONE',  #146 ) ;
#251 = ADVANCED_BREP_SHAPE_REPRESENTATION ( 'Stick-part', ( #81, #228 ), #107 ) ;
#252 = ORIENTED_EDGE ( 'NONE', *, *, #243, .F. ) ;
#253 = AXIS2_PLACEMENT_3D ( 'NONE', #42, #142, #207 ) ;
#254 = DIRECTION ( 'NONE',  ( -3.854941057726238097E-16, 1.000000000000000000, 0.000000000000000000 ) ) ;
#255 = ADVANCED_FACE ( 'NONE', ( #188, #30 ), #250, .F. ) ;
#256 = FACE_OUTER_BOUND ( 'NONE', #177, .T. ) ;
#257 = VERTEX_POINT ( 'NONE', #45 ) ;
#258 = ORIENTED_EDGE ( 'NONE', *, *, #111, .F. ) ;
#259 = ORIENTED_EDGE ( 'NONE', *, *, #183, .F. ) ;
#260 = LINE ( 'NONE', #225, #214 ) ;
#261 = FACE_OUTER_BOUND ( 'NONE', #73, .T. ) ;
ENDSEC;
END-ISO-10303-21;
