ISO-10303-21;
HEADER;
FILE_DESCRIPTION (( 'STEP AP214' ),
    '1' );
FILE_NAME ('Team-A4-Motor Left.STEP',
    '2026-05-12T23:25:27',
    ( '' ),
    ( '' ),
    'SwSTEP 2.0',
    'SolidWorks 2025',
    '' );
FILE_SCHEMA (( 'AUTOMOTIVE_DESIGN' ));
ENDSEC;

DATA;
#1 = CARTESIAN_POINT ( 'NONE',  ( 34.00000000000000000, -47.00000000000000000, 10.00000000000000000 ) ) ;
#2 = EDGE_LOOP ( 'NONE', ( #266, #216, #144, #37 ) ) ;
#3 = EDGE_CURVE ( 'NONE', #109, #717, #674, .T. ) ;
#4 = FACE_OUTER_BOUND ( 'NONE', #23, .T. ) ;
#5 = FACE_OUTER_BOUND ( 'NONE', #283, .T. ) ;
#6 = DIRECTION ( 'NONE',  ( 1.000000000000000000, 4.456627968671307474E-17, -0.000000000000000000 ) ) ;
#7 = EDGE_LOOP ( 'NONE', ( #433, #167 ) ) ;
#8 = SHAPE_DEFINITION_REPRESENTATION ( #808, #481 ) ;
#9 = CARTESIAN_POINT ( 'NONE',  ( 2.999999999999998668, 22.07999999999999829, 26.76999999999999957 ) ) ;
#10 = CARTESIAN_POINT ( 'NONE',  ( -1.426120949974818392E-15, 32.00000000000000000, 0.000000000000000000 ) ) ;
#11 = EDGE_LOOP ( 'NONE', ( #229, #743, #784, #459 ) ) ;
#12 = PRODUCT_CONTEXT ( 'NONE', #295, 'mechanical' ) ;
#13 = EDGE_CURVE ( 'NONE', #320, #193, #467, .T. ) ;
#14 = AXIS2_PLACEMENT_3D ( 'NONE', #1, #639, #287 ) ;
#15 = CARTESIAN_POINT ( 'NONE',  ( 22.59999999999999787, 0.000000000000000000, 40.00000000000000000 ) ) ;
#16 = CIRCLE ( 'NONE', #902, 1.600000000000000755 ) ;
#17 = CARTESIAN_POINT ( 'NONE',  ( 20.99999999999999645, 0.000000000000000000, 10.00000000000000000 ) ) ;
#18 = EDGE_LOOP ( 'NONE', ( #261, #905 ) ) ;
#19 = FACE_BOUND ( 'NONE', #894, .T. ) ;
#20 = VERTEX_POINT ( 'NONE', #822 ) ;
#21 = DIRECTION ( 'NONE',  ( -6.847592668329500326E-17, 1.000000000000000000, 0.000000000000000000 ) ) ;
#22 = CARTESIAN_POINT ( 'NONE',  ( 34.00000000000000000, 0.000000000000000000, 10.00000000000000000 ) ) ;
#23 = EDGE_LOOP ( 'NONE', ( #724, #823, #51, #376 ) ) ;
#24 = PRODUCT ( 'Team-A4-Motor Left', 'Team-A4-Motor Left', '', ( #12 ) ) ;
#25 = DIRECTION ( 'NONE',  ( -6.847592668329500326E-17, 1.000000000000000000, -0.000000000000000000 ) ) ;
#26 = CARTESIAN_POINT ( 'NONE',  ( 0.000000000000000000, 16.07999999999999829, 40.53000000000000114 ) ) ;
#27 = CIRCLE ( 'NONE', #205, 1.600000000000004086 ) ;
#28 = VECTOR ( 'NONE', #120, 1000.000000000000000 ) ;
#29 = EDGE_CURVE ( 'NONE', #519, #494, #498, .T. ) ;
#30 = ORIENTED_EDGE ( 'NONE', *, *, #310, .F. ) ;
#31 = CARTESIAN_POINT ( 'NONE',  ( 41.00000000000000000, 0.000000000000000000, 50.00000000000000000 ) ) ;
#32 = VERTEX_POINT ( 'NONE', #399 ) ;
#33 = EDGE_LOOP ( 'NONE', ( #317, #807, #319, #293 ) ) ;
#34 = EDGE_CURVE ( 'NONE', #472, #32, #916, .T. ) ;
#35 = CARTESIAN_POINT ( 'NONE',  ( -47.00000000000000711, 24.94999999999999929, 7.000000000000000000 ) ) ;
#36 = DIRECTION ( 'NONE',  ( 1.000000000000000000, 4.456627968671307474E-17, -0.000000000000000000 ) ) ;
#37 = ORIENTED_EDGE ( 'NONE', *, *, #813, .T. ) ;
#38 = EDGE_CURVE ( 'NONE', #253, #274, #41, .T. ) ;
#39 = ADVANCED_FACE ( 'NONE', ( #611, #680, #53, #333, #748, #49 ), #336, .F. ) ;
#40 = LINE ( 'NONE', #610, #234 ) ;
#41 = CIRCLE ( 'NONE', #222, 1.599999999999997202 ) ;
#42 = AXIS2_PLACEMENT_3D ( 'NONE', #580, #300, #371 ) ;
#43 = VERTEX_POINT ( 'NONE', #897 ) ;
#44 = AXIS2_PLACEMENT_3D ( 'NONE', #769, #691, #63 ) ;
#45 = ORIENTED_EDGE ( 'NONE', *, *, #289, .F. ) ;
#46 = AXIS2_PLACEMENT_3D ( 'NONE', #446, #82, #645 ) ;
#47 = CARTESIAN_POINT ( 'NONE',  ( 35.60000000000000142, 0.000000000000000000, 40.00000000000000000 ) ) ;
#48 = EDGE_CURVE ( 'NONE', #512, #671, #121, .T. ) ;
#49 = FACE_OUTER_BOUND ( 'NONE', #754, .T. ) ;
#50 = EDGE_CURVE ( 'NONE', #140, #746, #734, .T. ) ;
#51 = ORIENTED_EDGE ( 'NONE', *, *, #540, .T. ) ;
#52 = DIRECTION ( 'NONE',  ( 0.000000000000000000, 1.000000000000000000, 0.000000000000000000 ) ) ;
#53 = FACE_BOUND ( 'NONE', #307, .T. ) ;
#54 = EDGE_CURVE ( 'NONE', #59, #538, #452, .T. ) ;
#55 = ORIENTED_EDGE ( 'NONE', *, *, #655, .F. ) ;
#56 = DIRECTION ( 'NONE',  ( 1.000000000000000000, 1.495451272393799049E-17, 0.000000000000000000 ) ) ;
#57 = DIRECTION ( 'NONE',  ( -1.495451272393799049E-17, 1.000000000000000000, 0.000000000000000000 ) ) ;
#58 = AXIS2_PLACEMENT_3D ( 'NONE', #525, #249, #669 ) ;
#59 = VERTEX_POINT ( 'NONE', #403 ) ;
#60 = CIRCLE ( 'NONE', #856, 6.000000000000001776 ) ;
#61 = EDGE_CURVE ( 'NONE', #898, #612, #548, .T. ) ;
#62 = AXIS2_PLACEMENT_3D ( 'NONE', #286, #364, #835 ) ;
#63 = DIRECTION ( 'NONE',  ( -1.000000000000000000, 0.000000000000000000, 0.000000000000000000 ) ) ;
#64 = CYLINDRICAL_SURFACE ( 'NONE', #131, 1.600000000000000755 ) ;
#65 = PLANE ( 'NONE',  #780 ) ;
#66 = CARTESIAN_POINT ( 'NONE',  ( 32.40000000000000568, 0.000000000000000000, 40.00000000000000000 ) ) ;
#67 = CARTESIAN_POINT ( 'NONE',  ( -47.00000000000000711, 18.12999999999999545, 16.10999999999999943 ) ) ;
#68 = DIRECTION ( 'NONE',  ( -1.000000000000000000, 0.000000000000000000, 0.000000000000000000 ) ) ;
#69 = FACE_BOUND ( 'NONE', #103, .T. ) ;
#70 = CARTESIAN_POINT ( 'NONE',  ( 2.999999999999998668, 32.00000000000000000, 50.00000000000000000 ) ) ;
#71 = FACE_OUTER_BOUND ( 'NONE', #786, .T. ) ;
#72 = FACE_BOUND ( 'NONE', #337, .T. ) ;
#73 = VERTEX_POINT ( 'NONE', #832 ) ;
#74 = AXIS2_PLACEMENT_3D ( 'NONE', #809, #457, #744 ) ;
#75 = DIRECTION ( 'NONE',  ( 0.000000000000000000, 1.000000000000000000, 0.000000000000000000 ) ) ;
#76 = CARTESIAN_POINT ( 'NONE',  ( 2.999999999999998668, 24.94999999999999929, 7.000000000000000000 ) ) ;
#77 = CYLINDRICAL_SURFACE ( 'NONE', #604, 6.000000000000001776 ) ;
#78 = ORIENTED_EDGE ( 'NONE', *, *, #424, .T. ) ;
#79 = DIRECTION ( 'NONE',  ( 1.000000000000000000, 1.495451272393799049E-17, -0.000000000000000000 ) ) ;
#80 = CYLINDRICAL_SURFACE ( 'NONE', #14, 1.599999999999997202 ) ;
#81 = ORIENTED_EDGE ( 'NONE', *, *, #883, .F. ) ;
#82 = DIRECTION ( 'NONE',  ( 1.000000000000000000, 1.495451272393799049E-17, -0.000000000000000000 ) ) ;
#83 = CARTESIAN_POINT ( 'NONE',  ( 41.00000000000000000, 3.000000000000000000, 50.00000000000000000 ) ) ;
#84 = ORIENTED_EDGE ( 'NONE', *, *, #539, .T. ) ;
#85 = EDGE_CURVE ( 'NONE', #746, #494, #458, .T. ) ;
#86 = AXIS2_PLACEMENT_3D ( 'NONE', #134, #6, #490 ) ;
#87 = LINE ( 'NONE', #377, #711 ) ;
#88 = AXIS2_PLACEMENT_3D ( 'NONE', #568, #201, #170 ) ;
#89 = FACE_OUTER_BOUND ( 'NONE', #323, .T. ) ;
#90 = VERTEX_POINT ( 'NONE', #461 ) ;
#91 = VERTEX_POINT ( 'NONE', #771 ) ;
#92 = FACE_BOUND ( 'NONE', #7, .T. ) ;
#93 = ORIENTED_EDGE ( 'NONE', *, *, #572, .F. ) ;
#94 = DIRECTION ( 'NONE',  ( 0.000000000000000000, 1.000000000000000000, 0.000000000000000000 ) ) ;
#95 = EDGE_CURVE ( 'NONE', #372, #653, #852, .T. ) ;
#96 = FACE_BOUND ( 'NONE', #18, .T. ) ;
#97 = EDGE_CURVE ( 'NONE', #400, #725, #716, .T. ) ;
#98 = ORIENTED_EDGE ( 'NONE', *, *, #29, .F. ) ;
#99 = ORIENTED_EDGE ( 'NONE', *, *, #545, .F. ) ;
#100 = CARTESIAN_POINT ( 'NONE',  ( 2.999999999999998668, 14.02999999999999758, 16.10999999999999943 ) ) ;
#101 = VECTOR ( 'NONE', #821, 1000.000000000000000 ) ;
#102 = AXIS2_PLACEMENT_3D ( 'NONE', #270, #697, #841 ) ;
#103 = EDGE_LOOP ( 'NONE', ( #334, #535 ) ) ;
#104 = EDGE_CURVE ( 'NONE', #462, #586, #558, .T. ) ;
#105 = CARTESIAN_POINT ( 'NONE',  ( -47.00000000000000000, 7.199999999999997513, 6.999999999999999112 ) ) ;
#106 = ORIENTED_EDGE ( 'NONE', *, *, #155, .F. ) ;
#107 = DIRECTION ( 'NONE',  ( 1.000000000000000000, 1.495451272393799049E-17, -0.000000000000000000 ) ) ;
#108 = DIRECTION ( 'NONE',  ( -4.456627968671308090E-17, 1.000000000000000000, 0.000000000000000000 ) ) ;
#109 = VERTEX_POINT ( 'NONE', #408 ) ;
#110 = EDGE_CURVE ( 'NONE', #32, #472, #393, .T. ) ;
#111 = DIRECTION ( 'NONE',  ( -4.456627968671308090E-17, 1.000000000000000000, 0.000000000000000000 ) ) ;
#112 = AXIS2_PLACEMENT_3D ( 'NONE', #22, #875, #503 ) ;
#113 = DIRECTION ( 'NONE',  ( -1.000000000000000000, 0.000000000000000000, 0.000000000000000000 ) ) ;
#114 = CIRCLE ( 'NONE', #130, 1.600000000000004086 ) ;
#115 = ORIENTED_EDGE ( 'NONE', *, *, #866, .T. ) ;
#116 = AXIS2_PLACEMENT_3D ( 'NONE', #212, #358, #151 ) ;
#117 = FACE_OUTER_BOUND ( 'NONE', #436, .T. ) ;
#118 = EDGE_LOOP ( 'NONE', ( #591, #772 ) ) ;
#119 = ORIENTED_EDGE ( 'NONE', *, *, #849, .T. ) ;
#120 = DIRECTION ( 'NONE',  ( 1.000000000000000000, 0.000000000000000000, 0.000000000000000000 ) ) ;
#121 = LINE ( 'NONE', #322, #555 ) ;
#122 = ADVANCED_FACE ( 'NONE', ( #72, #69, #575, #553, #775 ), #65, .F. ) ;
#123 = EDGE_LOOP ( 'NONE', ( #631, #872, #448, #524 ) ) ;
#124 = ADVANCED_FACE ( 'NONE', ( #199 ), #80, .F. ) ;
#125 = CARTESIAN_POINT ( 'NONE',  ( 0.000000000000000000, 16.07999999999999829, 26.76999999999999957 ) ) ;
#126 = CARTESIAN_POINT ( 'NONE',  ( 35.60000000000000142, 0.000000000000000000, 10.00000000000000000 ) ) ;
#127 = DIRECTION ( 'NONE',  ( 4.456627968671307474E-17, -1.000000000000000000, 0.000000000000000000 ) ) ;
#128 = CIRCLE ( 'NONE', #294, 6.000000000000001776 ) ;
#129 = ORIENTED_EDGE ( 'NONE', *, *, #104, .F. ) ;
#130 = AXIS2_PLACEMENT_3D ( 'NONE', #686, #56, #878 ) ;
#131 = AXIS2_PLACEMENT_3D ( 'NONE', #417, #413, #344 ) ;
#132 = FACE_OUTER_BOUND ( 'NONE', #571, .T. ) ;
#133 = LINE ( 'NONE', #623, #888 ) ;
#134 = CARTESIAN_POINT ( 'NONE',  ( 0.000000000000000000, 16.07999999999999829, 40.53000000000000114 ) ) ;
#135 = EDGE_LOOP ( 'NONE', ( #306, #279, #616, #820 ) ) ;
#136 = ADVANCED_FACE ( 'NONE', ( #635 ), #277, .T. ) ;
#137 = DIRECTION ( 'NONE',  ( 0.000000000000000000, -1.000000000000000000, 0.000000000000000000 ) ) ;
#138 = LINE ( 'NONE', #634, #164 ) ;
#139 = DIRECTION ( 'NONE',  ( 6.847592668329500326E-17, -1.000000000000000000, 0.000000000000000000 ) ) ;
#140 = VERTEX_POINT ( 'NONE', #414 ) ;
#141 = CARTESIAN_POINT ( 'NONE',  ( 0.000000000000000000, 0.000000000000000000, 50.00000000000000000 ) ) ;
#142 = CARTESIAN_POINT ( 'NONE',  ( 41.00000000000000000, 0.000000000000000000, 0.000000000000000000 ) ) ;
#143 = CARTESIAN_POINT ( 'NONE',  ( -2.673976781202785594E-16, 22.07999999999999829, 26.76999999999999957 ) ) ;
#144 = ORIENTED_EDGE ( 'NONE', *, *, #726, .T. ) ;
#145 = AXIS2_PLACEMENT_3D ( 'NONE', #105, #896, #752 ) ;
#146 = CARTESIAN_POINT ( 'NONE',  ( 34.00000000000000000, 0.000000000000000000, 40.00000000000000000 ) ) ;
#147 = CYLINDRICAL_SURFACE ( 'NONE', #62, 2.049999999999999822 ) ;
#148 = EDGE_CURVE ( 'NONE', #761, #184, #486, .T. ) ;
#149 = CARTESIAN_POINT ( 'NONE',  ( 19.39999999999999858, 2.999999999999998668, 40.00000000000000000 ) ) ;
#150 = VERTEX_POINT ( 'NONE', #143 ) ;
#151 = DIRECTION ( 'NONE',  ( -1.000000000000000000, 0.000000000000000000, 0.000000000000000000 ) ) ;
#152 = PRODUCT_RELATED_PRODUCT_CATEGORY ( 'part', '', ( #24 ) ) ;
#153 = LINE ( 'NONE', #308, #606 ) ;
#154 = DIRECTION ( 'NONE',  ( 0.000000000000000000, -0.000000000000000000, 1.000000000000000000 ) ) ;
#155 = EDGE_CURVE ( 'NONE', #725, #805, #128, .T. ) ;
#156 = ORIENTED_EDGE ( 'NONE', *, *, #552, .F. ) ;
#157 = EDGE_CURVE ( 'NONE', #20, #776, #273, .T. ) ;
#158 = LINE ( 'NONE', #224, #677 ) ;
#159 = CYLINDRICAL_SURFACE ( 'NONE', #340, 1.599999999999997202 ) ;
#160 = ORIENTED_EDGE ( 'NONE', *, *, #203, .T. ) ;
#161 = AXIS2_PLACEMENT_3D ( 'NONE', #602, #827, #196 ) ;
#162 = VECTOR ( 'NONE', #652, 1000.000000000000000 ) ;
#163 = FACE_OUTER_BOUND ( 'NONE', #247, .T. ) ;
#164 = VECTOR ( 'NONE', #702, 1000.000000000000000 ) ;
#165 = AXIS2_PLACEMENT_3D ( 'NONE', #730, #94, #861 ) ;
#166 = FACE_BOUND ( 'NONE', #380, .T. ) ;
#167 = ORIENTED_EDGE ( 'NONE', *, *, #332, .T. ) ;
#168 = ORIENTED_EDGE ( 'NONE', *, *, #554, .F. ) ;
#169 = ADVANCED_FACE ( 'NONE', ( #493 ), #422, .F. ) ;
#170 = DIRECTION ( 'NONE',  ( 0.000000000000000000, 1.000000000000000000, 0.000000000000000000 ) ) ;
#171 = DIRECTION ( 'NONE',  ( 1.000000000000000000, 1.495451272393799049E-17, 0.000000000000000000 ) ) ;
#172 = CARTESIAN_POINT ( 'NONE',  ( -47.00000000000000711, 22.07999999999999829, 26.76999999999999957 ) ) ;
#173 = ORIENTED_EDGE ( 'NONE', *, *, #97, .T. ) ;
#174 = ORIENTED_EDGE ( 'NONE', *, *, #34, .T. ) ;
#175 = ADVANCED_FACE ( 'NONE', ( #432 ), #77, .F. ) ;
#176 = DIRECTION ( 'NONE',  ( 1.000000000000000000, 1.495451272393799049E-17, -0.000000000000000000 ) ) ;
#177 = EDGE_LOOP ( 'NONE', ( #801, #168, #453, #737 ) ) ;
#178 = AXIS2_PLACEMENT_3D ( 'NONE', #447, #443, #378 ) ;
#179 = DIRECTION ( 'NONE',  ( -6.847592668329500326E-17, 1.000000000000000000, -0.000000000000000000 ) ) ;
#180 = AXIS2_PLACEMENT_3D ( 'NONE', #35, #107, #818 ) ;
#181 = EDGE_LOOP ( 'NONE', ( #909, #595, #594, #860 ) ) ;
#182 = ORIENTED_EDGE ( 'NONE', *, *, #862, .T. ) ;
#183 = CARTESIAN_POINT ( 'NONE',  ( 34.00000000000000000, 0.000000000000000000, 40.00000000000000000 ) ) ;
#184 = VERTEX_POINT ( 'NONE', #149 ) ;
#185 = ORIENTED_EDGE ( 'NONE', *, *, #50, .T. ) ;
#186 = CARTESIAN_POINT ( 'NONE',  ( -47.00000000000000711, 14.02999999999999758, 16.10999999999999943 ) ) ;
#187 = DIRECTION ( 'NONE',  ( -6.847592668329500326E-17, 1.000000000000000000, 0.000000000000000000 ) ) ;
#188 = EDGE_LOOP ( 'NONE', ( #543, #745, #346, #681 ) ) ;
#189 = CARTESIAN_POINT ( 'NONE',  ( -7.130604749874115378E-17, 17.67999999999999972, 40.53000000000000114 ) ) ;
#190 = AXIS2_PLACEMENT_3D ( 'NONE', #31, #374, #656 ) ;
#191 = ORIENTED_EDGE ( 'NONE', *, *, #529, .F. ) ;
#192 = AXIS2_PLACEMENT_3D ( 'NONE', #353, #851, #202 ) ;
#193 = VERTEX_POINT ( 'NONE', #479 ) ;
#194 = AXIS2_PLACEMENT_3D ( 'NONE', #868, #521, #366 ) ;
#195 = DIRECTION ( 'NONE',  ( -4.456627968671309939E-17, 1.000000000000000000, 0.000000000000000000 ) ) ;
#196 = DIRECTION ( 'NONE',  ( -4.456627968671309939E-17, 1.000000000000000000, 0.000000000000000000 ) ) ;
#197 = ORIENTED_EDGE ( 'NONE', *, *, #655, .T. ) ;
#198 = DIRECTION ( 'NONE',  ( -6.847592668329500326E-17, 1.000000000000000000, -0.000000000000000000 ) ) ;
#199 = FACE_OUTER_BOUND ( 'NONE', #451, .T. ) ;
#200 = EDGE_LOOP ( 'NONE', ( #356, #233 ) ) ;
#201 = DIRECTION ( 'NONE',  ( 1.000000000000000000, 1.495451272393799049E-17, -0.000000000000000000 ) ) ;
#202 = DIRECTION ( 'NONE',  ( 0.000000000000000000, 1.000000000000000000, 0.000000000000000000 ) ) ;
#203 = EDGE_CURVE ( 'NONE', #508, #109, #843, .T. ) ;
#204 = DIRECTION ( 'NONE',  ( 1.000000000000000000, 4.456627968671307474E-17, -0.000000000000000000 ) ) ;
#205 = AXIS2_PLACEMENT_3D ( 'NONE', #26, #587, #785 ) ;
#206 = EDGE_CURVE ( 'NONE', #449, #797, #210, .T. ) ;
#207 = EDGE_LOOP ( 'NONE', ( #156, #106 ) ) ;
#208 = PLANE ( 'NONE',  #296 ) ;
#209 = CYLINDRICAL_SURFACE ( 'NONE', #192, 1.599999999999998090 ) ;
#210 = LINE ( 'NONE', #345, #248 ) ;
#211 = ORIENTED_EDGE ( 'NONE', *, *, #913, .T. ) ;
#212 = CARTESIAN_POINT ( 'NONE',  ( 20.99999999999999645, 2.999999999999998668, 10.00000000000000000 ) ) ;
#213 = CARTESIAN_POINT ( 'NONE',  ( 35.60000000000000142, -47.00000000000000000, 40.00000000000000000 ) ) ;
#214 = CYLINDRICAL_SURFACE ( 'NONE', #559, 6.000000000000001776 ) ;
#215 = DIRECTION ( 'NONE',  ( 1.000000000000000000, 0.000000000000000000, 0.000000000000000000 ) ) ;
#216 = ORIENTED_EDGE ( 'NONE', *, *, #520, .F. ) ;
#217 =( NAMED_UNIT ( * ) SI_UNIT ( $, .STERADIAN. ) SOLID_ANGLE_UNIT ( ) );
#218 = EDGE_CURVE ( 'NONE', #512, #612, #624, .T. ) ;
#219 = DIRECTION ( 'NONE',  ( -0.000000000000000000, -0.000000000000000000, -1.000000000000000000 ) ) ;
#220 = LINE ( 'NONE', #226, #840 ) ;
#221 = DIRECTION ( 'NONE',  ( 1.000000000000000000, 6.847592668329500326E-17, 0.000000000000000000 ) ) ;
#222 = AXIS2_PLACEMENT_3D ( 'NONE', #252, #187, #113 ) ;
#223 = ORIENTED_EDGE ( 'NONE', *, *, #241, .F. ) ;
#224 = CARTESIAN_POINT ( 'NONE',  ( 2.999999999999999112, 2.999999999999997335, 0.000000000000000000 ) ) ;
#225 = CIRCLE ( 'NONE', #665, 1.600000000000000755 ) ;
#226 = CARTESIAN_POINT ( 'NONE',  ( -47.00000000000000711, 23.35000000000000142, 7.000000000000000000 ) ) ;
#227 = EDGE_CURVE ( 'NONE', #20, #91, #762, .T. ) ;
#228 = DIRECTION ( 'NONE',  ( 1.000000000000000000, 4.456627968671307474E-17, -0.000000000000000000 ) ) ;
#229 = ORIENTED_EDGE ( 'NONE', *, *, #849, .F. ) ;
#230 = CARTESIAN_POINT ( 'NONE',  ( 2.999999999999998668, 32.00000000000000000, 0.000000000000000000 ) ) ;
#231 = EDGE_LOOP ( 'NONE', ( #643, #84, #675, #812, #444, #828 ) ) ;
#232 = DIRECTION ( 'NONE',  ( -0.000000000000000000, -0.000000000000000000, -1.000000000000000000 ) ) ;
#233 = ORIENTED_EDGE ( 'NONE', *, *, #540, .F. ) ;
#234 = VECTOR ( 'NONE', #682, 1000.000000000000000 ) ;
#235 = CARTESIAN_POINT ( 'NONE',  ( 34.00000000000000000, 2.999999999999999556, 40.00000000000000000 ) ) ;
#236 = AXIS2_PLACEMENT_3D ( 'NONE', #701, #343, #547 ) ;
#237 = PRESENTATION_LAYER_ASSIGNMENT (  '', '', ( #456 ) ) ;
#238 = CARTESIAN_POINT ( 'NONE',  ( -1.426120949974818392E-15, 32.00000000000000000, 50.00000000000000000 ) ) ;
#239 = ORIENTED_EDGE ( 'NONE', *, *, #700, .T. ) ;
#240 = EDGE_LOOP ( 'NONE', ( #880, #518 ) ) ;
#241 = EDGE_CURVE ( 'NONE', #150, #805, #384, .T. ) ;
#242 = SURFACE_SIDE_STYLE ('',( #592 ) ) ;
#243 = DIRECTION ( 'NONE',  ( 1.000000000000000000, 1.495451272393799049E-17, -0.000000000000000000 ) ) ;
#244 = ORIENTED_EDGE ( 'NONE', *, *, #203, .F. ) ;
#245 = DIRECTION ( 'NONE',  ( -1.000000000000000000, 0.000000000000000000, 0.000000000000000000 ) ) ;
#246 = ORIENTED_EDGE ( 'NONE', *, *, #227, .F. ) ;
#247 = EDGE_LOOP ( 'NONE', ( #720, #78, #790, #445 ) ) ;
#248 = VECTOR ( 'NONE', #693, 1000.000000000000000 ) ;
#249 = DIRECTION ( 'NONE',  ( 1.000000000000000000, 4.456627968671307474E-17, -0.000000000000000000 ) ) ;
#250 = AXIS2_PLACEMENT_3D ( 'NONE', #618, #778, #628 ) ;
#251 = AXIS2_PLACEMENT_3D ( 'NONE', #516, #171, #874 ) ;
#252 = CARTESIAN_POINT ( 'NONE',  ( 34.00000000000000000, 2.999999999999999556, 40.00000000000000000 ) ) ;
#253 = VERTEX_POINT ( 'NONE', #858 ) ;
#254 = DIRECTION ( 'NONE',  ( 0.000000000000000000, 0.000000000000000000, 1.000000000000000000 ) ) ;
#255 = ORIENTED_EDGE ( 'NONE', *, *, #289, .T. ) ;
#256 = UNCERTAINTY_MEASURE_WITH_UNIT (LENGTH_MEASURE( 1.000000000000000082E-05 ), #288, 'distance_accuracy_value', 'NONE');
#257 = EDGE_LOOP ( 'NONE', ( #191, #173, #373, #223 ) ) ;
#258 = CARTESIAN_POINT ( 'NONE',  ( 32.40000000000000568, 2.999999999999999556, 10.00000000000000000 ) ) ;
#259 = ORIENTED_EDGE ( 'NONE', *, *, #644, .T. ) ;
#260 = ADVANCED_FACE ( 'NONE', ( #316, #96, #19, #869, #92, #89 ), #309, .F. ) ;
#261 = ORIENTED_EDGE ( 'NONE', *, *, #534, .T. ) ;
#262 = DIRECTION ( 'NONE',  ( 1.000000000000000000, 4.456627968671307474E-17, -0.000000000000000000 ) ) ;
#263 = CIRCLE ( 'NONE', #383, 1.599999999999997202 ) ;
#264 = DIRECTION ( 'NONE',  ( 1.495451272393799049E-17, -1.000000000000000000, 0.000000000000000000 ) ) ;
#265 = AXIS2_PLACEMENT_3D ( 'NONE', #705, #757, #275 ) ;
#266 = ORIENTED_EDGE ( 'NONE', *, *, #644, .F. ) ;
#267 = DIRECTION ( 'NONE',  ( -0.000000000000000000, -0.000000000000000000, -1.000000000000000000 ) ) ;
#268 = CARTESIAN_POINT ( 'NONE',  ( 0.000000000000000000, 24.94999999999999929, 7.000000000000000000 ) ) ;
#269 = ORIENTED_EDGE ( 'NONE', *, *, #627, .F. ) ;
#270 = CARTESIAN_POINT ( 'NONE',  ( 2.999999999999998668, 16.07999999999999829, 26.76999999999999957 ) ) ;
#271 = CARTESIAN_POINT ( 'NONE',  ( 21.00000000000000000, -47.00000000000000711, 40.00000000000000000 ) ) ;
#272 = EDGE_CURVE ( 'NONE', #184, #649, #735, .T. ) ;
#273 = LINE ( 'NONE', #350, #899 ) ;
#274 = VERTEX_POINT ( 'NONE', #731 ) ;
#275 = DIRECTION ( 'NONE',  ( 0.000000000000000000, 1.000000000000000000, 0.000000000000000000 ) ) ;
#276 = CYLINDRICAL_SURFACE ( 'NONE', #650, 1.600000000000000755 ) ;
#277 = PLANE ( 'NONE',  #647 ) ;
#278 = AXIS2_PLACEMENT_3D ( 'NONE', #318, #517, #154 ) ;
#279 = ORIENTED_EDGE ( 'NONE', *, *, #437, .T. ) ;
#280 = CARTESIAN_POINT ( 'NONE',  ( 32.40000000000000568, -47.00000000000000000, 10.00000000000000000 ) ) ;
#281 = DIRECTION ( 'NONE',  ( 0.000000000000000000, 1.000000000000000000, 0.000000000000000000 ) ) ;
#282 = CARTESIAN_POINT ( 'NONE',  ( 19.40000000000000213, -47.00000000000000711, 40.00000000000000000 ) ) ;
#283 = EDGE_LOOP ( 'NONE', ( #385, #368, #668, #115 ) ) ;
#284 = ADVANCED_FACE ( 'NONE', ( #593, #450, #166, #304, #863 ), #584, .F. ) ;
#285 = CYLINDRICAL_SURFACE ( 'NONE', #88, 1.600000000000004086 ) ;
#286 = CARTESIAN_POINT ( 'NONE',  ( -47.00000000000000711, 16.07999999999999829, 16.10999999999999943 ) ) ;
#287 = DIRECTION ( 'NONE',  ( -1.000000000000000000, 0.000000000000000000, 0.000000000000000000 ) ) ;
#288 =( LENGTH_UNIT ( ) NAMED_UNIT ( * ) SI_UNIT ( .MILLI., .METRE. ) );
#289 = EDGE_CURVE ( 'NONE', #890, #761, #795, .T. ) ;
#290 = LINE ( 'NONE', #492, #825 ) ;
#291 = LINE ( 'NONE', #698, #577 ) ;
#292 = DIRECTION ( 'NONE',  ( 4.456627968671307474E-17, -1.000000000000000000, 0.000000000000000000 ) ) ;
#293 = ORIENTED_EDGE ( 'NONE', *, *, #552, .T. ) ;
#294 = AXIS2_PLACEMENT_3D ( 'NONE', #354, #846, #699 ) ;
#295 = APPLICATION_CONTEXT ( 'automotive_design' ) ;
#296 = AXIS2_PLACEMENT_3D ( 'NONE', #70, #137, #430 ) ;
#297 = AXIS2_PLACEMENT_3D ( 'NONE', #235, #313, #299 ) ;
#298 = EDGE_CURVE ( 'NONE', #761, #890, #500, .T. ) ;
#299 = DIRECTION ( 'NONE',  ( -1.000000000000000000, 0.000000000000000000, 0.000000000000000000 ) ) ;
#300 = DIRECTION ( 'NONE',  ( -6.847592668329500326E-17, 1.000000000000000000, 0.000000000000000000 ) ) ;
#301 = ORIENTED_EDGE ( 'NONE', *, *, #760, .F. ) ;
#302 = DIRECTION ( 'NONE',  ( 0.000000000000000000, 1.000000000000000000, 0.000000000000000000 ) ) ;
#303 = EDGE_CURVE ( 'NONE', #449, #717, #728, .T. ) ;
#304 = FACE_BOUND ( 'NONE', #848, .T. ) ;
#305 = ADVANCED_FACE ( 'NONE', ( #660 ), #438, .F. ) ;
#306 = ORIENTED_EDGE ( 'NONE', *, *, #54, .F. ) ;
#307 = EDGE_LOOP ( 'NONE', ( #419, #658 ) ) ;
#308 = CARTESIAN_POINT ( 'NONE',  ( 22.60000000000000142, -47.00000000000000711, 40.00000000000000000 ) ) ;
#309 = PLANE ( 'NONE',  #440 ) ;
#310 = EDGE_CURVE ( 'NONE', #746, #140, #484, .T. ) ;
#311 = ORIENTED_EDGE ( 'NONE', *, *, #554, .T. ) ;
#312 = VECTOR ( 'NONE', #469, 1000.000000000000000 ) ;
#313 = DIRECTION ( 'NONE',  ( -6.847592668329500326E-17, 1.000000000000000000, 0.000000000000000000 ) ) ;
#314 = VECTOR ( 'NONE', #773, 1000.000000000000000 ) ;
#315 = CIRCLE ( 'NONE', #739, 2.049999999999999822 ) ;
#316 = FACE_BOUND ( 'NONE', #392, .T. ) ;
#317 = ORIENTED_EDGE ( 'NONE', *, *, #97, .F. ) ;
#318 = CARTESIAN_POINT ( 'NONE',  ( 0.000000000000000000, 0.000000000000000000, 50.00000000000000000 ) ) ;
#319 = ORIENTED_EDGE ( 'NONE', *, *, #241, .T. ) ;
#320 = VERTEX_POINT ( 'NONE', #367 ) ;
#321 = CARTESIAN_POINT ( 'NONE',  ( 41.00000000000000000, 0.000000000000000000, 50.00000000000000000 ) ) ;
#322 = CARTESIAN_POINT ( 'NONE',  ( 2.999999999999999112, 2.999999999999997335, 50.00000000000000000 ) ) ;
#323 = EDGE_LOOP ( 'NONE', ( #160, #873, #386, #311 ) ) ;
#324 = CLOSED_SHELL ( 'NONE', ( #546, #455, #877, #175, #672, #579, #806, #507, #124, #260, #284, #305, #122, #39, #562, #136, #169, #857, #810, #588, #402, #600, #708, #777, #683, #791 ) ) ;
#325 = CYLINDRICAL_SURFACE ( 'NONE', #180, 1.599999999999997202 ) ;
#326 = CIRCLE ( 'NONE', #74, 1.599999999999997202 ) ;
#327 =( GEOMETRIC_REPRESENTATION_CONTEXT ( 3 ) GLOBAL_UNCERTAINTY_ASSIGNED_CONTEXT ( ( #915 ) ) GLOBAL_UNIT_ASSIGNED_CONTEXT ( ( #793, #502, #505 ) ) REPRESENTATION_CONTEXT ( 'NONE', 'WORKASPACE' ) );
#328 = ORIENTED_EDGE ( 'NONE', *, *, #38, .T. ) ;
#329 = AXIS2_PLACEMENT_3D ( 'NONE', #787, #712, #910 ) ;
#330 = ORIENTED_EDGE ( 'NONE', *, *, #477, .F. ) ;
#331 = CARTESIAN_POINT ( 'NONE',  ( 35.60000000000000142, 2.999999999999999556, 10.00000000000000000 ) ) ;
#332 = EDGE_CURVE ( 'NONE', #586, #462, #27, .T. ) ;
#333 = FACE_BOUND ( 'NONE', #207, .T. ) ;
#334 = ORIENTED_EDGE ( 'NONE', *, *, #862, .F. ) ;
#335 = CARTESIAN_POINT ( 'NONE',  ( 21.00000000000000000, -47.00000000000000711, 40.00000000000000000 ) ) ;
#336 = PLANE ( 'NONE',  #404 ) ;
#337 = EDGE_LOOP ( 'NONE', ( #663, #688 ) ) ;
#338 = AXIS2_PLACEMENT_3D ( 'NONE', #542, #741, #341 ) ;
#339 = CARTESIAN_POINT ( 'NONE',  ( 0.000000000000000000, 0.000000000000000000, 50.00000000000000000 ) ) ;
#340 = AXIS2_PLACEMENT_3D ( 'NONE', #679, #179, #245 ) ;
#341 = DIRECTION ( 'NONE',  ( 0.000000000000000000, 0.000000000000000000, 1.000000000000000000 ) ) ;
#342 = ORIENTED_EDGE ( 'NONE', *, *, #837, .T. ) ;
#343 = DIRECTION ( 'NONE',  ( -6.847592668329500326E-17, 1.000000000000000000, -0.000000000000000000 ) ) ;
#344 = DIRECTION ( 'NONE',  ( -1.000000000000000000, 0.000000000000000000, 0.000000000000000000 ) ) ;
#345 = CARTESIAN_POINT ( 'NONE',  ( 41.00000000000000000, 0.000000000000000000, 50.00000000000000000 ) ) ;
#346 = ORIENTED_EDGE ( 'NONE', *, *, #572, .T. ) ;
#347 =( NAMED_UNIT ( * ) PLANE_ANGLE_UNIT ( ) SI_UNIT ( $, .RADIAN. ) );
#348 = CARTESIAN_POINT ( 'NONE',  ( 2.999999999999999112, 2.999999999999997335, 0.000000000000000000 ) ) ;
#349 = CARTESIAN_POINT ( 'NONE',  ( 2.999999999999998668, 16.07999999999999829, 40.53000000000000114 ) ) ;
#350 = CARTESIAN_POINT ( 'NONE',  ( 19.40000000000000213, -47.00000000000000711, 10.00000000000000000 ) ) ;
#351 = ORIENTED_EDGE ( 'NONE', *, *, #615, .T. ) ;
#352 = CARTESIAN_POINT ( 'NONE',  ( -47.00000000000000711, 17.67999999999999972, 40.53000000000000114 ) ) ;
#353 = CARTESIAN_POINT ( 'NONE',  ( -47.00000000000000000, 7.199999999999997513, 6.999999999999999112 ) ) ;
#354 = CARTESIAN_POINT ( 'NONE',  ( 2.999999999999998668, 16.07999999999999829, 26.76999999999999957 ) ) ;
#355 = VECTOR ( 'NONE', #388, 1000.000000000000000 ) ;
#356 = ORIENTED_EDGE ( 'NONE', *, *, #700, .F. ) ;
#357 = CIRCLE ( 'NONE', #441, 1.599999999999997202 ) ;
#358 = DIRECTION ( 'NONE',  ( -6.847592668329500326E-17, 1.000000000000000000, 0.000000000000000000 ) ) ;
#359 = LINE ( 'NONE', #67, #796 ) ;
#360 = DIRECTION ( 'NONE',  ( 1.000000000000000000, 1.495451272393799049E-17, 0.000000000000000000 ) ) ;
#361 = DIRECTION ( 'NONE',  ( 1.000000000000000000, 1.495451272393799049E-17, -0.000000000000000000 ) ) ;
#362 = ORIENTED_EDGE ( 'NONE', *, *, #110, .F. ) ;
#363 = APPLICATION_PROTOCOL_DEFINITION ( 'draft international standard', 'automotive_design', 1998, #544 ) ;
#364 = DIRECTION ( 'NONE',  ( 1.000000000000000000, 1.495451272393799049E-17, -0.000000000000000000 ) ) ;
#365 = CARTESIAN_POINT ( 'NONE',  ( 0.000000000000000000, 0.000000000000000000, 50.00000000000000000 ) ) ;
#366 = DIRECTION ( 'NONE',  ( -1.000000000000000000, 0.000000000000000000, 0.000000000000000000 ) ) ;
#367 = CARTESIAN_POINT ( 'NONE',  ( -9.136087335776181400E-17, 18.12999999999999545, 16.10999999999999943 ) ) ;
#368 = ORIENTED_EDGE ( 'NONE', *, *, #13, .F. ) ;
#369 = VECTOR ( 'NONE', #68, 1000.000000000000000 ) ;
#370 = PRESENTATION_STYLE_ASSIGNMENT (( #727 ) ) ;
#371 = DIRECTION ( 'NONE',  ( -1.000000000000000000, 0.000000000000000000, 0.000000000000000000 ) ) ;
#372 = VERTEX_POINT ( 'NONE', #522 ) ;
#373 = ORIENTED_EDGE ( 'NONE', *, *, #155, .T. ) ;
#374 = DIRECTION ( 'NONE',  ( -1.000000000000000000, 0.000000000000000000, 0.000000000000000000 ) ) ;
#375 = VERTEX_POINT ( 'NONE', #100 ) ;
#376 = ORIENTED_EDGE ( 'NONE', *, *, #599, .F. ) ;
#377 = CARTESIAN_POINT ( 'NONE',  ( 22.60000000000000142, -47.00000000000000711, 10.00000000000000000 ) ) ;
#378 = DIRECTION ( 'NONE',  ( 0.000000000000000000, 0.000000000000000000, 1.000000000000000000 ) ) ;
#379 = EDGE_CURVE ( 'NONE', #32, #43, #733, .T. ) ;
#380 = EDGE_LOOP ( 'NONE', ( #581, #255 ) ) ;
#381 = EDGE_CURVE ( 'NONE', #797, #512, #435, .T. ) ;
#382 = VERTEX_POINT ( 'NONE', #230 ) ;
#383 = AXIS2_PLACEMENT_3D ( 'NONE', #740, #541, #52 ) ;
#384 = LINE ( 'NONE', #172, #707 ) ;
#385 = ORIENTED_EDGE ( 'NONE', *, *, #424, .F. ) ;
#386 = ORIENTED_EDGE ( 'NONE', *, *, #95, .F. ) ;
#387 = FACE_OUTER_BOUND ( 'NONE', #181, .T. ) ;
#388 = DIRECTION ( 'NONE',  ( 1.000000000000000000, 0.000000000000000000, 0.000000000000000000 ) ) ;
#389 = ORIENTED_EDGE ( 'NONE', *, *, #891, .F. ) ;
#390 = CARTESIAN_POINT ( 'NONE',  ( -1.426120949974818392E-15, 32.00000000000000000, 0.000000000000000000 ) ) ;
#391 = DIRECTION ( 'NONE',  ( -1.000000000000000000, -1.495451272393799049E-17, 0.000000000000000000 ) ) ;
#392 = EDGE_LOOP ( 'NONE', ( #537, #174 ) ) ;
#393 = CIRCLE ( 'NONE', #425, 1.599999999999997202 ) ;
#394 = FACE_OUTER_BOUND ( 'NONE', #135, .T. ) ;
#395 = AXIS2_PLACEMENT_3D ( 'NONE', #76, #360, #569 ) ;
#396 = DIRECTION ( 'NONE',  ( -1.000000000000000000, 0.000000000000000000, 0.000000000000000000 ) ) ;
#397 = ORIENTED_EDGE ( 'NONE', *, *, #627, .T. ) ;
#398 = CYLINDRICAL_SURFACE ( 'NONE', #900, 1.600000000000000755 ) ;
#399 = CARTESIAN_POINT ( 'NONE',  ( -7.130604749874084563E-17, 26.54999999999999716, 7.000000000000000000 ) ) ;
#400 = VERTEX_POINT ( 'NONE', #506 ) ;
#401 = DIRECTION ( 'NONE',  ( 0.000000000000000000, 1.000000000000000000, 0.000000000000000000 ) ) ;
#402 = ADVANCED_FACE ( 'NONE', ( #789 ), #159, .F. ) ;
#403 = CARTESIAN_POINT ( 'NONE',  ( 7.130604749874083330E-17, 5.599999999999999645, 6.999999999999999112 ) ) ;
#404 = AXIS2_PLACEMENT_3D ( 'NONE', #614, #391, #264 ) ;
#405 = LINE ( 'NONE', #280, #709 ) ;
#406 = LINE ( 'NONE', #912, #369 ) ;
#407 = AXIS2_PLACEMENT_3D ( 'NONE', #183, #755, #254 ) ;
#408 = CARTESIAN_POINT ( 'NONE',  ( 0.000000000000000000, 0.000000000000000000, 0.000000000000000000 ) ) ;
#409 = MECHANICAL_DESIGN_GEOMETRIC_PRESENTATION_REPRESENTATION (  '', ( #456 ), #327 ) ;
#410 = ORIENTED_EDGE ( 'NONE', *, *, #830, .T. ) ;
#411 = LINE ( 'NONE', #626, #751 ) ;
#412 = CARTESIAN_POINT ( 'NONE',  ( 2.999999999999998668, 23.35000000000000142, 7.000000000000000000 ) ) ;
#413 = DIRECTION ( 'NONE',  ( -6.847592668329500326E-17, 1.000000000000000000, -0.000000000000000000 ) ) ;
#414 = CARTESIAN_POINT ( 'NONE',  ( 32.40000000000000568, 0.000000000000000000, 10.00000000000000000 ) ) ;
#415 = ORIENTED_EDGE ( 'NONE', *, *, #495, .T. ) ;
#416 = DIRECTION ( 'NONE',  ( 1.000000000000000000, 1.495451272393799049E-17, -0.000000000000000000 ) ) ;
#417 = CARTESIAN_POINT ( 'NONE',  ( 21.00000000000000000, -47.00000000000000711, 10.00000000000000000 ) ) ;
#418 = CARTESIAN_POINT ( 'NONE',  ( 0.000000000000000000, 24.94999999999999929, 7.000000000000000000 ) ) ;
#419 = ORIENTED_EDGE ( 'NONE', *, *, #866, .F. ) ;
#420 = DIRECTION ( 'NONE',  ( -1.000000000000000000, 0.000000000000000000, 0.000000000000000000 ) ) ;
#421 = EDGE_CURVE ( 'NONE', #671, #382, #40, .T. ) ;
#422 = PLANE ( 'NONE',  #811 ) ;
#423 = AXIS2_PLACEMENT_3D ( 'NONE', #465, #756, #396 ) ;
#424 = EDGE_CURVE ( 'NONE', #193, #375, #826, .T. ) ;
#425 = AXIS2_PLACEMENT_3D ( 'NONE', #418, #204, #703 ) ;
#426 = EDGE_LOOP ( 'NONE', ( #351, #876 ) ) ;
#427 = VECTOR ( 'NONE', #219, 1000.000000000000000 ) ;
#428 =( GEOMETRIC_REPRESENTATION_CONTEXT ( 3 ) GLOBAL_UNCERTAINTY_ASSIGNED_CONTEXT ( ( #256 ) ) GLOBAL_UNIT_ASSIGNED_CONTEXT ( ( #288, #347, #217 ) ) REPRESENTATION_CONTEXT ( 'NONE', 'WORKASPACE' ) );
#429 = DIRECTION ( 'NONE',  ( -1.495451272393799049E-17, 1.000000000000000000, 0.000000000000000000 ) ) ;
#430 = DIRECTION ( 'NONE',  ( 0.000000000000000000, -0.000000000000000000, -1.000000000000000000 ) ) ;
#431 = DIRECTION ( 'NONE',  ( 0.000000000000000000, 1.000000000000000000, 0.000000000000000000 ) ) ;
#432 = FACE_OUTER_BOUND ( 'NONE', #257, .T. ) ;
#433 = ORIENTED_EDGE ( 'NONE', *, *, #104, .T. ) ;
#434 = DIRECTION ( 'NONE',  ( -1.000000000000000000, 0.000000000000000000, 0.000000000000000000 ) ) ;
#435 = LINE ( 'NONE', #83, #664 ) ;
#436 = EDGE_LOOP ( 'NONE', ( #45, #119, #410, #685 ) ) ;
#437 = EDGE_CURVE ( 'NONE', #59, #625, #882, .T. ) ;
#438 = PLANE ( 'NONE',  #190 ) ;
#439 = ORIENTED_EDGE ( 'NONE', *, *, #534, .F. ) ;
#440 = AXIS2_PLACEMENT_3D ( 'NONE', #238, #228, #511 ) ;
#441 = AXIS2_PLACEMENT_3D ( 'NONE', #146, #75, #834 ) ;
#442 = FILL_AREA_STYLE ('',( #583 ) ) ;
#443 = DIRECTION ( 'NONE',  ( 0.000000000000000000, 1.000000000000000000, 0.000000000000000000 ) ) ;
#444 = ORIENTED_EDGE ( 'NONE', *, *, #48, .T. ) ;
#445 = ORIENTED_EDGE ( 'NONE', *, *, #560, .F. ) ;
#446 = CARTESIAN_POINT ( 'NONE',  ( -47.00000000000000711, 16.07999999999999829, 16.10999999999999943 ) ) ;
#447 = CARTESIAN_POINT ( 'NONE',  ( 20.99999999999999645, 0.000000000000000000, 40.00000000000000000 ) ) ;
#448 = ORIENTED_EDGE ( 'NONE', *, *, #381, .F. ) ;
#449 = VERTEX_POINT ( 'NONE', #321 ) ;
#450 = FACE_BOUND ( 'NONE', #240, .T. ) ;
#451 = EDGE_LOOP ( 'NONE', ( #30, #879, #397, #93 ) ) ;
#452 = CIRCLE ( 'NONE', #161, 1.599999999999997202 ) ;
#453 = ORIENTED_EDGE ( 'NONE', *, *, #678, .F. ) ;
#454 = CIRCLE ( 'NONE', #58, 2.049999999999999822 ) ;
#455 = ADVANCED_FACE ( 'NONE', ( #394 ), #601, .F. ) ;
#456 = STYLED_ITEM ( 'NONE', ( #370 ), #829 ) ;
#457 = DIRECTION ( 'NONE',  ( 1.000000000000000000, 1.495451272393799049E-17, 0.000000000000000000 ) ) ;
#458 = LINE ( 'NONE', #530, #468 ) ;
#459 = ORIENTED_EDGE ( 'NONE', *, *, #272, .T. ) ;
#460 = CARTESIAN_POINT ( 'NONE',  ( 0.000000000000000000, 16.07999999999999829, 26.76999999999999957 ) ) ;
#461 = CARTESIAN_POINT ( 'NONE',  ( 2.999999999999999112, 8.799999999999995381, 6.999999999999999112 ) ) ;
#462 = VERTEX_POINT ( 'NONE', #189 ) ;
#463 = EDGE_CURVE ( 'NONE', #375, #576, #689, .T. ) ;
#464 = CARTESIAN_POINT ( 'NONE',  ( 2.999999999999999112, 2.999999999999997335, 50.00000000000000000 ) ) ;
#465 = CARTESIAN_POINT ( 'NONE',  ( 34.00000000000000000, 2.999999999999999556, 10.00000000000000000 ) ) ;
#466 = ORIENTED_EDGE ( 'NONE', *, *, #891, .T. ) ;
#467 = CIRCLE ( 'NONE', #574, 2.049999999999999822 ) ;
#468 = VECTOR ( 'NONE', #816, 1000.000000000000000 ) ;
#469 = DIRECTION ( 'NONE',  ( 1.000000000000000000, 1.495451272393799049E-17, -0.000000000000000000 ) ) ;
#470 = CIRCLE ( 'NONE', #738, 1.599999999999997202 ) ;
#471 = CIRCLE ( 'NONE', #165, 1.600000000000002531 ) ;
#472 = VERTEX_POINT ( 'NONE', #893 ) ;
#473 = VERTEX_POINT ( 'NONE', #747 ) ;
#474 = LINE ( 'NONE', #889, #28 ) ;
#475 = ORIENTED_EDGE ( 'NONE', *, *, #48, .F. ) ;
#476 = ORIENTED_EDGE ( 'NONE', *, *, #715, .F. ) ;
#477 = EDGE_CURVE ( 'NONE', #625, #90, #263, .T. ) ;
#478 = LINE ( 'NONE', #352, #750 ) ;
#479 = CARTESIAN_POINT ( 'NONE',  ( 9.136087335776181400E-17, 14.02999999999999758, 16.10999999999999943 ) ) ;
#480 = ORIENTED_EDGE ( 'NONE', *, *, #662, .T. ) ;
#481 = ADVANCED_BREP_SHAPE_REPRESENTATION ( 'Team-A4-Motor Left', ( #829, #329 ), #428 ) ;
#482 = FACE_OUTER_BOUND ( 'NONE', #177, .T. ) ;
#483 = DIRECTION ( 'NONE',  ( 1.000000000000000000, 1.495451272393799049E-17, -0.000000000000000000 ) ) ;
#484 = CIRCLE ( 'NONE', #112, 1.599999999999997202 ) ;
#485 = CIRCLE ( 'NONE', #648, 6.000000000000001776 ) ;
#486 = LINE ( 'NONE', #282, #590 ) ;
#487 = VERTEX_POINT ( 'NONE', #47 ) ;
#488 = CYLINDRICAL_SURFACE ( 'NONE', #44, 1.599999999999997202 ) ;
#489 = CYLINDRICAL_SURFACE ( 'NONE', #619, 1.599999999999997202 ) ;
#490 = DIRECTION ( 'NONE',  ( -4.456627968671310556E-17, 1.000000000000000000, 0.000000000000000000 ) ) ;
#491 = LINE ( 'NONE', #213, #314 ) ;
#492 = CARTESIAN_POINT ( 'NONE',  ( 2.999999999999998668, 32.00000000000000000, 50.00000000000000000 ) ) ;
#493 = FACE_OUTER_BOUND ( 'NONE', #589, .T. ) ;
#494 = VERTEX_POINT ( 'NONE', #331 ) ;
#495 = EDGE_CURVE ( 'NONE', #193, #320, #454, .T. ) ;
#496 = FACE_OUTER_BOUND ( 'NONE', #608, .T. ) ;
#497 = CARTESIAN_POINT ( 'NONE',  ( 19.39999999999999858, 0.000000000000000000, 40.00000000000000000 ) ) ;
#498 = CIRCLE ( 'NONE', #423, 1.599999999999997202 ) ;
#499 = DIRECTION ( 'NONE',  ( -6.847592668329500326E-17, 1.000000000000000000, -0.000000000000000000 ) ) ;
#500 = CIRCLE ( 'NONE', #178, 1.599999999999997202 ) ;
#501 = CIRCLE ( 'NONE', #395, 1.599999999999997202 ) ;
#502 =( NAMED_UNIT ( * ) PLANE_ANGLE_UNIT ( ) SI_UNIT ( $, .RADIAN. ) );
#503 = DIRECTION ( 'NONE',  ( 0.000000000000000000, 0.000000000000000000, 1.000000000000000000 ) ) ;
#504 = ORIENTED_EDGE ( 'NONE', *, *, #157, .F. ) ;
#505 =( NAMED_UNIT ( * ) SI_UNIT ( $, .STERADIAN. ) SOLID_ANGLE_UNIT ( ) );
#506 = CARTESIAN_POINT ( 'NONE',  ( 2.673976781202786087E-16, 10.07999999999999297, 26.76999999999999957 ) ) ;
#507 = ADVANCED_FACE ( 'NONE', ( #117 ), #398, .F. ) ;
#508 = VERTEX_POINT ( 'NONE', #390 ) ;
#509 = ORIENTED_EDGE ( 'NONE', *, *, #695, .F. ) ;
#510 = DIRECTION ( 'NONE',  ( -6.847592668329500326E-17, 1.000000000000000000, -0.000000000000000000 ) ) ;
#511 = DIRECTION ( 'NONE',  ( -4.456627968671307474E-17, 1.000000000000000000, 0.000000000000000000 ) ) ;
#512 = VERTEX_POINT ( 'NONE', #464 ) ;
#513 = VECTOR ( 'NONE', #127, 1000.000000000000000 ) ;
#514 = CIRCLE ( 'NONE', #407, 1.599999999999997202 ) ;
#515 = CIRCLE ( 'NONE', #116, 1.600000000000000755 ) ;
#516 = CARTESIAN_POINT ( 'NONE',  ( 2.999999999999999112, 7.199999999999998401, 6.999999999999999112 ) ) ;
#517 = DIRECTION ( 'NONE',  ( 0.000000000000000000, 1.000000000000000000, 0.000000000000000000 ) ) ;
#518 = ORIENTED_EDGE ( 'NONE', *, *, #881, .T. ) ;
#519 = VERTEX_POINT ( 'NONE', #258 ) ;
#520 = EDGE_CURVE ( 'NONE', #892, #487, #514, .T. ) ;
#521 = DIRECTION ( 'NONE',  ( -6.847592668329500326E-17, 1.000000000000000000, -0.000000000000000000 ) ) ;
#522 = CARTESIAN_POINT ( 'NONE',  ( -1.426120949974818392E-15, 32.00000000000000000, 50.00000000000000000 ) ) ;
#523 = EDGE_LOOP ( 'NONE', ( #549, #330 ) ) ;
#524 = ORIENTED_EDGE ( 'NONE', *, *, #760, .T. ) ;
#525 = CARTESIAN_POINT ( 'NONE',  ( 0.000000000000000000, 16.07999999999999829, 16.10999999999999943 ) ) ;
#526 = ORIENTED_EDGE ( 'NONE', *, *, #599, .T. ) ;
#527 = ORIENTED_EDGE ( 'NONE', *, *, #303, .T. ) ;
#528 = DIRECTION ( 'NONE',  ( -1.000000000000000000, 0.000000000000000000, 0.000000000000000000 ) ) ;
#529 = EDGE_CURVE ( 'NONE', #400, #150, #60, .T. ) ;
#530 = CARTESIAN_POINT ( 'NONE',  ( 35.60000000000000142, -47.00000000000000000, 10.00000000000000000 ) ) ;
#531 = ORIENTED_EDGE ( 'NONE', *, *, #13, .T. ) ;
#532 = CARTESIAN_POINT ( 'NONE',  ( 2.999999999999998668, 16.07999999999999829, 16.10999999999999943 ) ) ;
#533 = ORIENTED_EDGE ( 'NONE', *, *, #539, .F. ) ;
#534 = EDGE_CURVE ( 'NONE', #538, #59, #470, .T. ) ;
#535 = ORIENTED_EDGE ( 'NONE', *, *, #901, .F. ) ;
#536 = CARTESIAN_POINT ( 'NONE',  ( -47.00000000000000000, 5.599999999999998757, 6.999999999999999112 ) ) ;
#537 = ORIENTED_EDGE ( 'NONE', *, *, #110, .T. ) ;
#538 = VERTEX_POINT ( 'NONE', #673 ) ;
#539 = EDGE_CURVE ( 'NONE', #653, #449, #474, .T. ) ;
#540 = EDGE_CURVE ( 'NONE', #73, #473, #114, .T. ) ;
#541 = DIRECTION ( 'NONE',  ( 1.000000000000000000, 1.495451272393799049E-17, 0.000000000000000000 ) ) ;
#542 = CARTESIAN_POINT ( 'NONE',  ( 34.00000000000000000, 0.000000000000000000, 10.00000000000000000 ) ) ;
#543 = ORIENTED_EDGE ( 'NONE', *, *, #85, .F. ) ;
#544 = APPLICATION_CONTEXT ( 'automotive_design' ) ;
#545 = EDGE_CURVE ( 'NONE', #597, #43, #326, .T. ) ;
#546 = ADVANCED_FACE ( 'NONE', ( #387 ), #325, .F. ) ;
#547 = DIRECTION ( 'NONE',  ( -1.000000000000000000, 0.000000000000000000, 0.000000000000000000 ) ) ;
#548 = LINE ( 'NONE', #687, #617 ) ;
#549 = ORIENTED_EDGE ( 'NONE', *, *, #837, .F. ) ;
#550 = DIRECTION ( 'NONE',  ( 1.000000000000000000, 1.495451272393799049E-17, -0.000000000000000000 ) ) ;
#551 = CARTESIAN_POINT ( 'NONE',  ( 2.999999999999998668, 10.07999999999999297, 26.76999999999999957 ) ) ;
#552 = EDGE_CURVE ( 'NONE', #805, #725, #690, .T. ) ;
#553 = FACE_BOUND ( 'NONE', #603, .T. ) ;
#554 = EDGE_CURVE ( 'NONE', #372, #508, #918, .T. ) ;
#555 = VECTOR ( 'NONE', #57, 1000.000000000000000 ) ;
#556 = CARTESIAN_POINT ( 'NONE',  ( 2.999999999999998668, 18.12999999999999545, 16.10999999999999943 ) ) ;
#557 = DIRECTION ( 'NONE',  ( -6.847592668329500326E-17, 1.000000000000000000, -0.000000000000000000 ) ) ;
#558 = CIRCLE ( 'NONE', #86, 1.600000000000004086 ) ;
#559 = AXIS2_PLACEMENT_3D ( 'NONE', #855, #774, #706 ) ;
#560 = EDGE_CURVE ( 'NONE', #320, #576, #359, .T. ) ;
#561 = DIRECTION ( 'NONE',  ( 0.000000000000000000, 1.000000000000000000, 0.000000000000000000 ) ) ;
#562 = ADVANCED_FACE ( 'NONE', ( #482 ), #208, .F. ) ;
#563 = EDGE_LOOP ( 'NONE', ( #585, #753, #887, #504 ) ) ;
#564 = CYLINDRICAL_SURFACE ( 'NONE', #265, 1.600000000000004086 ) ;
#565 = LINE ( 'NONE', #714, #763 ) ;
#566 = DIRECTION ( 'NONE',  ( -0.000000000000000000, 0.000000000000000000, 1.000000000000000000 ) ) ;
#567 = ORIENTED_EDGE ( 'NONE', *, *, #61, .F. ) ;
#568 = CARTESIAN_POINT ( 'NONE',  ( -47.00000000000000711, 16.07999999999999829, 40.53000000000000114 ) ) ;
#569 = DIRECTION ( 'NONE',  ( 0.000000000000000000, 1.000000000000000000, 0.000000000000000000 ) ) ;
#570 = DIRECTION ( 'NONE',  ( -6.847592668329500326E-17, 1.000000000000000000, -0.000000000000000000 ) ) ;
#571 = EDGE_LOOP ( 'NONE', ( #55, #259, #328, #667 ) ) ;
#572 = EDGE_CURVE ( 'NONE', #140, #519, #405, .T. ) ;
#573 = DIRECTION ( 'NONE',  ( 1.000000000000000000, 1.495451272393799049E-17, 0.000000000000000000 ) ) ;
#574 = AXIS2_PLACEMENT_3D ( 'NONE', #670, #36, #108 ) ;
#575 = FACE_BOUND ( 'NONE', #118, .T. ) ;
#576 = VERTEX_POINT ( 'NONE', #556 ) ;
#577 = VECTOR ( 'NONE', #79, 1000.000000000000000 ) ;
#578 = FACE_OUTER_BOUND ( 'NONE', #188, .T. ) ;
#579 = ADVANCED_FACE ( 'NONE', ( #132 ), #488, .F. ) ;
#580 = CARTESIAN_POINT ( 'NONE',  ( 20.99999999999999645, 2.999999999999998668, 40.00000000000000000 ) ) ;
#581 = ORIENTED_EDGE ( 'NONE', *, *, #298, .T. ) ;
#582 = ORIENTED_EDGE ( 'NONE', *, *, #742, .T. ) ;
#583 = FILL_AREA_STYLE_COLOUR ( '', #859 ) ;
#584 = PLANE ( 'NONE',  #278 ) ;
#585 = ORIENTED_EDGE ( 'NONE', *, *, #881, .F. ) ;
#586 = VERTEX_POINT ( 'NONE', #633 ) ;
#587 = DIRECTION ( 'NONE',  ( 1.000000000000000000, 4.456627968671307474E-17, -0.000000000000000000 ) ) ;
#588 = ADVANCED_FACE ( 'NONE', ( #496 ), #713, .F. ) ;
#589 = EDGE_LOOP ( 'NONE', ( #244, #885, #389, #567, #509, #867 ) ) ;
#590 = VECTOR ( 'NONE', #570, 1000.000000000000000 ) ;
#591 = ORIENTED_EDGE ( 'NONE', *, *, #272, .F. ) ;
#592 = SURFACE_STYLE_FILL_AREA ( #442 ) ;
#593 = FACE_BOUND ( 'NONE', #657, .T. ) ;
#594 = ORIENTED_EDGE ( 'NONE', *, *, #545, .T. ) ;
#595 = ORIENTED_EDGE ( 'NONE', *, *, #715, .T. ) ;
#596 = DIRECTION ( 'NONE',  ( 1.000000000000000000, 1.495451272393799049E-17, 0.000000000000000000 ) ) ;
#597 = VERTEX_POINT ( 'NONE', #412 ) ;
#598 = ORIENTED_EDGE ( 'NONE', *, *, #803, .F. ) ;
#599 = EDGE_CURVE ( 'NONE', #462, #473, #478, .T. ) ;
#600 = ADVANCED_FACE ( 'NONE', ( #850 ), #564, .F. ) ;
#601 = CYLINDRICAL_SURFACE ( 'NONE', #145, 1.599999999999998090 ) ;
#602 = CARTESIAN_POINT ( 'NONE',  ( 0.000000000000000000, 7.199999999999998401, 6.999999999999999112 ) ) ;
#603 = EDGE_LOOP ( 'NONE', ( #98, #269 ) ) ;
#604 = AXIS2_PLACEMENT_3D ( 'NONE', #766, #782, #561 ) ;
#605 = AXIS2_PLACEMENT_3D ( 'NONE', #349, #573, #845 ) ;
#606 = VECTOR ( 'NONE', #510, 1000.000000000000000 ) ;
#607 = DIRECTION ( 'NONE',  ( 1.000000000000000000, 4.456627968671307474E-17, -0.000000000000000000 ) ) ;
#608 = EDGE_LOOP ( 'NONE', ( #81, #246, #609, #182 ) ) ;
#609 = ORIENTED_EDGE ( 'NONE', *, *, #157, .T. ) ;
#610 = CARTESIAN_POINT ( 'NONE',  ( 2.999999999999998668, 32.00000000000000000, 50.00000000000000000 ) ) ;
#611 = FACE_BOUND ( 'NONE', #895, .T. ) ;
#612 = VERTEX_POINT ( 'NONE', #348 ) ;
#613 = CARTESIAN_POINT ( 'NONE',  ( 0.000000000000000000, 7.199999999999998401, 6.999999999999999112 ) ) ;
#614 = CARTESIAN_POINT ( 'NONE',  ( 2.999999999999999112, 2.999999999999997335, 50.00000000000000000 ) ) ;
#615 = EDGE_CURVE ( 'NONE', #150, #400, #485, .T. ) ;
#616 = ORIENTED_EDGE ( 'NONE', *, *, #477, .T. ) ;
#617 = VECTOR ( 'NONE', #620, 1000.000000000000000 ) ;
#618 = CARTESIAN_POINT ( 'NONE',  ( 34.00000000000000000, 2.999999999999999556, 10.00000000000000000 ) ) ;
#619 = AXIS2_PLACEMENT_3D ( 'NONE', #765, #770, #431 ) ;
#620 = DIRECTION ( 'NONE',  ( -1.000000000000000000, -6.847592668329500326E-17, 0.000000000000000000 ) ) ;
#621 = ORIENTED_EDGE ( 'NONE', *, *, #206, .F. ) ;
#622 = CARTESIAN_POINT ( 'NONE',  ( 22.59999999999999787, 2.999999999999998668, 10.00000000000000000 ) ) ;
#623 = CARTESIAN_POINT ( 'NONE',  ( 41.00000000000000000, 3.000000000000000000, 50.00000000000000000 ) ) ;
#624 = LINE ( 'NONE', #908, #162 ) ;
#625 = VERTEX_POINT ( 'NONE', #844 ) ;
#626 = CARTESIAN_POINT ( 'NONE',  ( -47.00000000000000000, 8.799999999999995381, 6.999999999999999112 ) ) ;
#627 = EDGE_CURVE ( 'NONE', #494, #519, #871, .T. ) ;
#628 = DIRECTION ( 'NONE',  ( -1.000000000000000000, 0.000000000000000000, 0.000000000000000000 ) ) ;
#629 = CARTESIAN_POINT ( 'NONE',  ( 41.00000000000000000, 3.000000000000000000, 50.00000000000000000 ) ) ;
#630 = CARTESIAN_POINT ( 'NONE',  ( 0.000000000000000000, 0.000000000000000000, 0.000000000000000000 ) ) ;
#631 = ORIENTED_EDGE ( 'NONE', *, *, #61, .T. ) ;
#632 = CARTESIAN_POINT ( 'NONE',  ( 41.00000000000000000, 3.000000000000000000, 0.000000000000000000 ) ) ;
#633 = CARTESIAN_POINT ( 'NONE',  ( 7.130604749874114145E-17, 14.47999999999999332, 40.53000000000000114 ) ) ;
#634 = CARTESIAN_POINT ( 'NONE',  ( 32.40000000000000568, -47.00000000000000000, 40.00000000000000000 ) ) ;
#635 = FACE_OUTER_BOUND ( 'NONE', #231, .T. ) ;
#636 = ORIENTED_EDGE ( 'NONE', *, *, #218, .T. ) ;
#637 = LINE ( 'NONE', #339, #781 ) ;
#638 = CARTESIAN_POINT ( 'NONE',  ( 19.39999999999999858, 2.999999999999998668, 10.00000000000000000 ) ) ;
#639 = DIRECTION ( 'NONE',  ( -6.847592668329500326E-17, 1.000000000000000000, -0.000000000000000000 ) ) ;
#640 = VERTEX_POINT ( 'NONE', #622 ) ;
#641 = FACE_OUTER_BOUND ( 'NONE', #814, .T. ) ;
#642 = DIRECTION ( 'NONE',  ( -0.000000000000000000, 0.000000000000000000, 1.000000000000000000 ) ) ;
#643 = ORIENTED_EDGE ( 'NONE', *, *, #95, .T. ) ;
#644 = EDGE_CURVE ( 'NONE', #487, #253, #491, .T. ) ;
#645 = DIRECTION ( 'NONE',  ( 0.000000000000000000, 1.000000000000000000, 0.000000000000000000 ) ) ;
#646 = DIRECTION ( 'NONE',  ( -1.000000000000000000, -6.847592668329500326E-17, 0.000000000000000000 ) ) ;
#647 = AXIS2_PLACEMENT_3D ( 'NONE', #365, #566, #215 ) ;
#648 = AXIS2_PLACEMENT_3D ( 'NONE', #125, #764, #911 ) ;
#649 = VERTEX_POINT ( 'NONE', #906 ) ;
#650 = AXIS2_PLACEMENT_3D ( 'NONE', #271, #557, #842 ) ;
#651 = DIRECTION ( 'NONE',  ( 1.000000000000000000, 1.495451272393799049E-17, 0.000000000000000000 ) ) ;
#652 = DIRECTION ( 'NONE',  ( -0.000000000000000000, -0.000000000000000000, -1.000000000000000000 ) ) ;
#653 = VERTEX_POINT ( 'NONE', #141 ) ;
#654 = CARTESIAN_POINT ( 'NONE',  ( 20.99999999999999645, 2.999999999999998668, 40.00000000000000000 ) ) ;
#655 = EDGE_CURVE ( 'NONE', #487, #892, #357, .T. ) ;
#656 = DIRECTION ( 'NONE',  ( 0.000000000000000000, 0.000000000000000000, 1.000000000000000000 ) ) ;
#657 = EDGE_LOOP ( 'NONE', ( #792, #197 ) ) ;
#658 = ORIENTED_EDGE ( 'NONE', *, *, #463, .F. ) ;
#659 = CARTESIAN_POINT ( 'NONE',  ( 2.999999999999998668, 16.07999999999999829, 16.10999999999999943 ) ) ;
#660 = FACE_OUTER_BOUND ( 'NONE', #732, .T. ) ;
#661 = AXIS2_PLACEMENT_3D ( 'NONE', #268, #819, #684 ) ;
#662 = EDGE_CURVE ( 'NONE', #653, #109, #637, .T. ) ;
#663 = ORIENTED_EDGE ( 'NONE', *, *, #813, .F. ) ;
#664 = VECTOR ( 'NONE', #646, 1000.000000000000000 ) ;
#665 = AXIS2_PLACEMENT_3D ( 'NONE', #654, #21, #434 ) ;
#666 = CARTESIAN_POINT ( 'NONE',  ( 20.99999999999999645, 0.000000000000000000, 40.00000000000000000 ) ) ;
#667 = ORIENTED_EDGE ( 'NONE', *, *, #726, .F. ) ;
#668 = ORIENTED_EDGE ( 'NONE', *, *, #560, .T. ) ;
#669 = DIRECTION ( 'NONE',  ( -4.456627968671308090E-17, 1.000000000000000000, 0.000000000000000000 ) ) ;
#670 = CARTESIAN_POINT ( 'NONE',  ( 0.000000000000000000, 16.07999999999999829, 16.10999999999999943 ) ) ;
#671 = VERTEX_POINT ( 'NONE', #831 ) ;
#672 = ADVANCED_FACE ( 'NONE', ( #4 ), #285, .F. ) ;
#673 = CARTESIAN_POINT ( 'NONE',  ( -7.130604749874083330E-17, 8.799999999999995381, 6.999999999999999112 ) ) ;
#674 = LINE ( 'NONE', #904, #355 ) ;
#675 = ORIENTED_EDGE ( 'NONE', *, *, #206, .T. ) ;
#676 = AXIS2_PLACEMENT_3D ( 'NONE', #17, #722, #719 ) ;
#677 = VECTOR ( 'NONE', #429, 1000.000000000000000 ) ;
#678 = EDGE_CURVE ( 'NONE', #671, #372, #290, .T. ) ;
#679 = CARTESIAN_POINT ( 'NONE',  ( 34.00000000000000000, -47.00000000000000000, 40.00000000000000000 ) ) ;
#680 = FACE_BOUND ( 'NONE', #523, .T. ) ;
#681 = ORIENTED_EDGE ( 'NONE', *, *, #29, .T. ) ;
#682 = DIRECTION ( 'NONE',  ( -0.000000000000000000, -0.000000000000000000, -1.000000000000000000 ) ) ;
#683 = ADVANCED_FACE ( 'NONE', ( #71 ), #209, .F. ) ;
#684 = DIRECTION ( 'NONE',  ( -4.456627968671310556E-17, 1.000000000000000000, 0.000000000000000000 ) ) ;
#685 = ORIENTED_EDGE ( 'NONE', *, *, #148, .F. ) ;
#686 = CARTESIAN_POINT ( 'NONE',  ( 2.999999999999998668, 16.07999999999999829, 40.53000000000000114 ) ) ;
#687 = CARTESIAN_POINT ( 'NONE',  ( 41.00000000000000000, 3.000000000000000000, 0.000000000000000000 ) ) ;
#688 = ORIENTED_EDGE ( 'NONE', *, *, #38, .F. ) ;
#689 = CIRCLE ( 'NONE', #824, 2.049999999999999822 ) ;
#690 = CIRCLE ( 'NONE', #102, 6.000000000000001776 ) ;
#691 = DIRECTION ( 'NONE',  ( -6.847592668329500326E-17, 1.000000000000000000, -0.000000000000000000 ) ) ;
#692 = FACE_OUTER_BOUND ( 'NONE', #563, .T. ) ;
#693 = DIRECTION ( 'NONE',  ( 0.000000000000000000, 1.000000000000000000, 0.000000000000000000 ) ) ;
#694 = EDGE_LOOP ( 'NONE', ( #817, #854, #533, #480 ) ) ;
#695 = EDGE_CURVE ( 'NONE', #717, #898, #565, .T. ) ;
#696 = EDGE_CURVE ( 'NONE', #382, #508, #406, .T. ) ;
#697 = DIRECTION ( 'NONE',  ( 1.000000000000000000, 1.495451272393799049E-17, 0.000000000000000000 ) ) ;
#698 = CARTESIAN_POINT ( 'NONE',  ( -47.00000000000000711, 14.47999999999999332, 40.53000000000000114 ) ) ;
#699 = DIRECTION ( 'NONE',  ( 0.000000000000000000, 1.000000000000000000, 0.000000000000000000 ) ) ;
#700 = EDGE_CURVE ( 'NONE', #473, #73, #886, .T. ) ;
#701 = CARTESIAN_POINT ( 'NONE',  ( 21.00000000000000000, -47.00000000000000711, 10.00000000000000000 ) ) ;
#702 = DIRECTION ( 'NONE',  ( -6.847592668329500326E-17, 1.000000000000000000, -0.000000000000000000 ) ) ;
#703 = DIRECTION ( 'NONE',  ( -4.456627968671310556E-17, 1.000000000000000000, 0.000000000000000000 ) ) ;
#704 = ORIENTED_EDGE ( 'NONE', *, *, #310, .T. ) ;
#705 = CARTESIAN_POINT ( 'NONE',  ( -47.00000000000000711, 16.07999999999999829, 40.53000000000000114 ) ) ;
#706 = DIRECTION ( 'NONE',  ( 0.000000000000000000, 1.000000000000000000, 0.000000000000000000 ) ) ;
#707 = VECTOR ( 'NONE', #243, 1000.000000000000000 ) ;
#708 = ADVANCED_FACE ( 'NONE', ( #758 ), #214, .F. ) ;
#709 = VECTOR ( 'NONE', #198, 1000.000000000000000 ) ;
#710 = DIRECTION ( 'NONE',  ( 1.000000000000000000, 0.000000000000000000, 0.000000000000000000 ) ) ;
#711 = VECTOR ( 'NONE', #25, 1000.000000000000000 ) ;
#712 = DIRECTION ( 'NONE',  ( 0.000000000000000000, 0.000000000000000000, 1.000000000000000000 ) ) ;
#713 = CYLINDRICAL_SURFACE ( 'NONE', #236, 1.600000000000000755 ) ;
#714 = CARTESIAN_POINT ( 'NONE',  ( 41.00000000000000000, 0.000000000000000000, 0.000000000000000000 ) ) ;
#715 = EDGE_CURVE ( 'NONE', #472, #597, #220, .T. ) ;
#716 = LINE ( 'NONE', #836, #839 ) ;
#717 = VERTEX_POINT ( 'NONE', #142 ) ;
#718 = CYLINDRICAL_SURFACE ( 'NONE', #194, 1.599999999999997202 ) ;
#719 = DIRECTION ( 'NONE',  ( 0.000000000000000000, 0.000000000000000000, 1.000000000000000000 ) ) ;
#720 = ORIENTED_EDGE ( 'NONE', *, *, #495, .F. ) ;
#721 = DIRECTION ( 'NONE',  ( -1.000000000000000000, 0.000000000000000000, 0.000000000000000000 ) ) ;
#722 = DIRECTION ( 'NONE',  ( 0.000000000000000000, 1.000000000000000000, 0.000000000000000000 ) ) ;
#723 = VECTOR ( 'NONE', #176, 1000.000000000000000 ) ;
#724 = ORIENTED_EDGE ( 'NONE', *, *, #332, .F. ) ;
#725 = VERTEX_POINT ( 'NONE', #551 ) ;
#726 = EDGE_CURVE ( 'NONE', #892, #274, #138, .T. ) ;
#727 = SURFACE_STYLE_USAGE ( .BOTH. , #242 ) ;
#728 = LINE ( 'NONE', #865, #870 ) ;
#729 = ORIENTED_EDGE ( 'NONE', *, *, #695, .T. ) ;
#730 = CARTESIAN_POINT ( 'NONE',  ( 20.99999999999999645, 0.000000000000000000, 10.00000000000000000 ) ) ;
#731 = CARTESIAN_POINT ( 'NONE',  ( 32.40000000000000568, 2.999999999999999556, 40.00000000000000000 ) ) ;
#732 = EDGE_LOOP ( 'NONE', ( #729, #301, #621, #527 ) ) ;
#733 = LINE ( 'NONE', #804, #723 ) ;
#734 = CIRCLE ( 'NONE', #338, 1.599999999999997202 ) ;
#735 = CIRCLE ( 'NONE', #42, 1.600000000000000755 ) ;
#736 = ORIENTED_EDGE ( 'NONE', *, *, #742, .F. ) ;
#737 = ORIENTED_EDGE ( 'NONE', *, *, #421, .T. ) ;
#738 = AXIS2_PLACEMENT_3D ( 'NONE', #613, #262, #195 ) ;
#739 = AXIS2_PLACEMENT_3D ( 'NONE', #659, #651, #302 ) ;
#740 = CARTESIAN_POINT ( 'NONE',  ( 2.999999999999999112, 7.199999999999998401, 6.999999999999999112 ) ) ;
#741 = DIRECTION ( 'NONE',  ( 0.000000000000000000, 1.000000000000000000, 0.000000000000000000 ) ) ;
#742 = EDGE_CURVE ( 'NONE', #43, #597, #501, .T. ) ;
#743 = ORIENTED_EDGE ( 'NONE', *, *, #298, .F. ) ;
#744 = DIRECTION ( 'NONE',  ( 0.000000000000000000, 1.000000000000000000, 0.000000000000000000 ) ) ;
#745 = ORIENTED_EDGE ( 'NONE', *, *, #50, .F. ) ;
#746 = VERTEX_POINT ( 'NONE', #126 ) ;
#747 = CARTESIAN_POINT ( 'NONE',  ( 2.999999999999998668, 17.67999999999999972, 40.53000000000000114 ) ) ;
#748 = FACE_BOUND ( 'NONE', #200, .T. ) ;
#749 = ORIENTED_EDGE ( 'NONE', *, *, #437, .F. ) ;
#750 = VECTOR ( 'NONE', #550, 1000.000000000000000 ) ;
#751 = VECTOR ( 'NONE', #768, 1000.000000000000000 ) ;
#752 = DIRECTION ( 'NONE',  ( 0.000000000000000000, 1.000000000000000000, 0.000000000000000000 ) ) ;
#753 = ORIENTED_EDGE ( 'NONE', *, *, #883, .T. ) ;
#754 = EDGE_LOOP ( 'NONE', ( #466, #767, #475, #636 ) ) ;
#755 = DIRECTION ( 'NONE',  ( 0.000000000000000000, 1.000000000000000000, 0.000000000000000000 ) ) ;
#756 = DIRECTION ( 'NONE',  ( -6.847592668329500326E-17, 1.000000000000000000, 0.000000000000000000 ) ) ;
#757 = DIRECTION ( 'NONE',  ( 1.000000000000000000, 1.495451272393799049E-17, -0.000000000000000000 ) ) ;
#758 = FACE_OUTER_BOUND ( 'NONE', #33, .T. ) ;
#759 = CARTESIAN_POINT ( 'NONE',  ( -1.426120949974818392E-15, 32.00000000000000000, 50.00000000000000000 ) ) ;
#760 = EDGE_CURVE ( 'NONE', #797, #898, #133, .T. ) ;
#761 = VERTEX_POINT ( 'NONE', #497 ) ;
#762 = CIRCLE ( 'NONE', #676, 1.600000000000002531 ) ;
#763 = VECTOR ( 'NONE', #281, 1000.000000000000000 ) ;
#764 = DIRECTION ( 'NONE',  ( 1.000000000000000000, 4.456627968671307474E-17, -0.000000000000000000 ) ) ;
#765 = CARTESIAN_POINT ( 'NONE',  ( -47.00000000000000711, 24.94999999999999929, 7.000000000000000000 ) ) ;
#766 = CARTESIAN_POINT ( 'NONE',  ( -47.00000000000000711, 16.07999999999999829, 26.76999999999999957 ) ) ;
#767 = ORIENTED_EDGE ( 'NONE', *, *, #421, .F. ) ;
#768 = DIRECTION ( 'NONE',  ( 1.000000000000000000, 1.495451272393799049E-17, -0.000000000000000000 ) ) ;
#769 = CARTESIAN_POINT ( 'NONE',  ( 34.00000000000000000, -47.00000000000000000, 40.00000000000000000 ) ) ;
#770 = DIRECTION ( 'NONE',  ( 1.000000000000000000, 1.495451272393799049E-17, -0.000000000000000000 ) ) ;
#771 = CARTESIAN_POINT ( 'NONE',  ( 22.59999999999999787, 0.000000000000000000, 10.00000000000000000 ) ) ;
#772 = ORIENTED_EDGE ( 'NONE', *, *, #830, .F. ) ;
#773 = DIRECTION ( 'NONE',  ( -6.847592668329500326E-17, 1.000000000000000000, -0.000000000000000000 ) ) ;
#774 = DIRECTION ( 'NONE',  ( 1.000000000000000000, 1.495451272393799049E-17, -0.000000000000000000 ) ) ;
#775 = FACE_OUTER_BOUND ( 'NONE', #123, .T. ) ;
#776 = VERTEX_POINT ( 'NONE', #638 ) ;
#777 = ADVANCED_FACE ( 'NONE', ( #5 ), #147, .F. ) ;
#778 = DIRECTION ( 'NONE',  ( -6.847592668329500326E-17, 1.000000000000000000, 0.000000000000000000 ) ) ;
#779 = DIRECTION ( 'NONE',  ( -0.000000000000000000, -0.000000000000000000, -1.000000000000000000 ) ) ;
#780 = AXIS2_PLACEMENT_3D ( 'NONE', #914, #139, #221 ) ;
#781 = VECTOR ( 'NONE', #267, 1000.000000000000000 ) ;
#782 = DIRECTION ( 'NONE',  ( 1.000000000000000000, 1.495451272393799049E-17, -0.000000000000000000 ) ) ;
#783 = CIRCLE ( 'NONE', #297, 1.599999999999997202 ) ;
#784 = ORIENTED_EDGE ( 'NONE', *, *, #148, .T. ) ;
#785 = DIRECTION ( 'NONE',  ( -4.456627968671310556E-17, 1.000000000000000000, 0.000000000000000000 ) ) ;
#786 = EDGE_LOOP ( 'NONE', ( #749, #439, #211, #342 ) ) ;
#787 = CARTESIAN_POINT ( 'NONE',  ( 0.000000000000000000, 0.000000000000000000, 0.000000000000000000 ) ) ;
#788 = CYLINDRICAL_SURFACE ( 'NONE', #46, 2.049999999999999822 ) ;
#789 = FACE_OUTER_BOUND ( 'NONE', #2, .T. ) ;
#790 = ORIENTED_EDGE ( 'NONE', *, *, #463, .T. ) ;
#791 = ADVANCED_FACE ( 'NONE', ( #641 ), #489, .F. ) ;
#792 = ORIENTED_EDGE ( 'NONE', *, *, #520, .T. ) ;
#793 =( LENGTH_UNIT ( ) NAMED_UNIT ( * ) SI_UNIT ( .MILLI., .METRE. ) );
#794 = DIRECTION ( 'NONE',  ( 0.000000000000000000, 0.000000000000000000, 1.000000000000000000 ) ) ;
#795 = CIRCLE ( 'NONE', #884, 1.599999999999997202 ) ;
#796 = VECTOR ( 'NONE', #416, 1000.000000000000000 ) ;
#797 = VERTEX_POINT ( 'NONE', #629 ) ;
#798 = PRODUCT_DEFINITION_FORMATION_WITH_SPECIFIED_SOURCE ( 'ANY', '', #24, .NOT_KNOWN. ) ;
#799 = DIRECTION ( 'NONE',  ( -6.847592668329500326E-17, 1.000000000000000000, 0.000000000000000000 ) ) ;
#800 = DIRECTION ( 'NONE',  ( 0.000000000000000000, 1.000000000000000000, 0.000000000000000000 ) ) ;
#801 = ORIENTED_EDGE ( 'NONE', *, *, #696, .T. ) ;
#802 = CARTESIAN_POINT ( 'NONE',  ( 20.99999999999999645, 2.999999999999998668, 10.00000000000000000 ) ) ;
#803 = EDGE_CURVE ( 'NONE', #586, #73, #291, .T. ) ;
#804 = CARTESIAN_POINT ( 'NONE',  ( -47.00000000000000711, 26.54999999999999716, 7.000000000000000000 ) ) ;
#805 = VERTEX_POINT ( 'NONE', #9 ) ;
#806 = ADVANCED_FACE ( 'NONE', ( #692 ), #64, .F. ) ;
#807 = ORIENTED_EDGE ( 'NONE', *, *, #615, .F. ) ;
#808 = PRODUCT_DEFINITION_SHAPE ( 'NONE', 'NONE',  #853 ) ;
#809 = CARTESIAN_POINT ( 'NONE',  ( 2.999999999999998668, 24.94999999999999929, 7.000000000000000000 ) ) ;
#810 = ADVANCED_FACE ( 'NONE', ( #907 ), #276, .F. ) ;
#811 = AXIS2_PLACEMENT_3D ( 'NONE', #630, #642, #710 ) ;
#812 = ORIENTED_EDGE ( 'NONE', *, *, #381, .T. ) ;
#813 = EDGE_CURVE ( 'NONE', #274, #253, #783, .T. ) ;
#814 = EDGE_LOOP ( 'NONE', ( #476, #362, #864, #582 ) ) ;
#815 = DIRECTION ( 'NONE',  ( -6.847592668329500326E-17, 1.000000000000000000, -0.000000000000000000 ) ) ;
#816 = DIRECTION ( 'NONE',  ( -6.847592668329500326E-17, 1.000000000000000000, -0.000000000000000000 ) ) ;
#817 = ORIENTED_EDGE ( 'NONE', *, *, #3, .T. ) ;
#818 = DIRECTION ( 'NONE',  ( 0.000000000000000000, 1.000000000000000000, 0.000000000000000000 ) ) ;
#819 = DIRECTION ( 'NONE',  ( 1.000000000000000000, 4.456627968671307474E-17, -0.000000000000000000 ) ) ;
#820 = ORIENTED_EDGE ( 'NONE', *, *, #913, .F. ) ;
#821 = DIRECTION ( 'NONE',  ( 1.000000000000000000, 1.495451272393799049E-17, -0.000000000000000000 ) ) ;
#822 = CARTESIAN_POINT ( 'NONE',  ( 19.39999999999999858, 0.000000000000000000, 10.00000000000000000 ) ) ;
#823 = ORIENTED_EDGE ( 'NONE', *, *, #803, .T. ) ;
#824 = AXIS2_PLACEMENT_3D ( 'NONE', #532, #596, #401 ) ;
#825 = VECTOR ( 'NONE', #420, 1000.000000000000000 ) ;
#826 = LINE ( 'NONE', #186, #101 ) ;
#827 = DIRECTION ( 'NONE',  ( 1.000000000000000000, 4.456627968671307474E-17, -0.000000000000000000 ) ) ;
#828 = ORIENTED_EDGE ( 'NONE', *, *, #678, .T. ) ;
#829 = MANIFOLD_SOLID_BREP ( 'Cut-Extrude3', #324 ) ;
#830 = EDGE_CURVE ( 'NONE', #649, #184, #225, .T. ) ;
#831 = CARTESIAN_POINT ( 'NONE',  ( 2.999999999999998668, 32.00000000000000000, 50.00000000000000000 ) ) ;
#832 = CARTESIAN_POINT ( 'NONE',  ( 2.999999999999998668, 14.47999999999999332, 40.53000000000000114 ) ) ;
#833 = EDGE_LOOP ( 'NONE', ( #598, #129, #526, #239 ) ) ;
#834 = DIRECTION ( 'NONE',  ( 0.000000000000000000, 0.000000000000000000, 1.000000000000000000 ) ) ;
#835 = DIRECTION ( 'NONE',  ( 0.000000000000000000, 1.000000000000000000, 0.000000000000000000 ) ) ;
#836 = CARTESIAN_POINT ( 'NONE',  ( -47.00000000000000711, 10.07999999999999474, 26.76999999999999957 ) ) ;
#837 = EDGE_CURVE ( 'NONE', #90, #625, #919, .T. ) ;
#838 = APPLICATION_PROTOCOL_DEFINITION ( 'draft international standard', 'automotive_design', 1998, #295 ) ;
#839 = VECTOR ( 'NONE', #361, 1000.000000000000000 ) ;
#840 = VECTOR ( 'NONE', #483, 1000.000000000000000 ) ;
#841 = DIRECTION ( 'NONE',  ( 0.000000000000000000, 1.000000000000000000, 0.000000000000000000 ) ) ;
#842 = DIRECTION ( 'NONE',  ( -1.000000000000000000, 0.000000000000000000, 0.000000000000000000 ) ) ;
#843 = LINE ( 'NONE', #10, #917 ) ;
#844 = CARTESIAN_POINT ( 'NONE',  ( 2.999999999999999112, 5.599999999999999645, 6.999999999999999112 ) ) ;
#845 = DIRECTION ( 'NONE',  ( 0.000000000000000000, 1.000000000000000000, 0.000000000000000000 ) ) ;
#846 = DIRECTION ( 'NONE',  ( 1.000000000000000000, 1.495451272393799049E-17, 0.000000000000000000 ) ) ;
#847 = PRODUCT_DEFINITION_CONTEXT ( 'detailed design', #544, 'design' ) ;
#848 = EDGE_LOOP ( 'NONE', ( #185, #704 ) ) ;
#849 = EDGE_CURVE ( 'NONE', #890, #649, #153, .T. ) ;
#850 = FACE_OUTER_BOUND ( 'NONE', #833, .T. ) ;
#851 = DIRECTION ( 'NONE',  ( 1.000000000000000000, 1.495451272393799049E-17, -0.000000000000000000 ) ) ;
#852 = LINE ( 'NONE', #759, #513 ) ;
#853 = PRODUCT_DEFINITION ( 'UNKNOWN', '', #798, #847 ) ;
#854 = ORIENTED_EDGE ( 'NONE', *, *, #303, .F. ) ;
#855 = CARTESIAN_POINT ( 'NONE',  ( -47.00000000000000711, 16.07999999999999829, 26.76999999999999957 ) ) ;
#856 = AXIS2_PLACEMENT_3D ( 'NONE', #460, #607, #111 ) ;
#857 = ADVANCED_FACE ( 'NONE', ( #578 ), #718, .F. ) ;
#858 = CARTESIAN_POINT ( 'NONE',  ( 35.60000000000000142, 2.999999999999999556, 40.00000000000000000 ) ) ;
#859 = COLOUR_RGB ( '',0.7921568627450980005, 0.8196078431372548767, 0.9333333333333333481 ) ;
#860 = ORIENTED_EDGE ( 'NONE', *, *, #379, .F. ) ;
#861 = DIRECTION ( 'NONE',  ( 0.000000000000000000, 0.000000000000000000, 1.000000000000000000 ) ) ;
#862 = EDGE_CURVE ( 'NONE', #776, #640, #16, .T. ) ;
#863 = FACE_OUTER_BOUND ( 'NONE', #694, .T. ) ;
#864 = ORIENTED_EDGE ( 'NONE', *, *, #379, .T. ) ;
#865 = CARTESIAN_POINT ( 'NONE',  ( 41.00000000000000000, 0.000000000000000000, 50.00000000000000000 ) ) ;
#866 = EDGE_CURVE ( 'NONE', #576, #375, #315, .T. ) ;
#867 = ORIENTED_EDGE ( 'NONE', *, *, #3, .F. ) ;
#868 = CARTESIAN_POINT ( 'NONE',  ( 34.00000000000000000, -47.00000000000000000, 10.00000000000000000 ) ) ;
#869 = FACE_BOUND ( 'NONE', #426, .T. ) ;
#870 = VECTOR ( 'NONE', #232, 1000.000000000000000 ) ;
#871 = CIRCLE ( 'NONE', #250, 1.599999999999997202 ) ;
#872 = ORIENTED_EDGE ( 'NONE', *, *, #218, .F. ) ;
#873 = ORIENTED_EDGE ( 'NONE', *, *, #662, .F. ) ;
#874 = DIRECTION ( 'NONE',  ( 0.000000000000000000, 1.000000000000000000, 0.000000000000000000 ) ) ;
#875 = DIRECTION ( 'NONE',  ( 0.000000000000000000, 1.000000000000000000, 0.000000000000000000 ) ) ;
#876 = ORIENTED_EDGE ( 'NONE', *, *, #529, .T. ) ;
#877 = ADVANCED_FACE ( 'NONE', ( #163 ), #788, .F. ) ;
#878 = DIRECTION ( 'NONE',  ( 0.000000000000000000, 1.000000000000000000, 0.000000000000000000 ) ) ;
#879 = ORIENTED_EDGE ( 'NONE', *, *, #85, .T. ) ;
#880 = ORIENTED_EDGE ( 'NONE', *, *, #227, .T. ) ;
#881 = EDGE_CURVE ( 'NONE', #91, #20, #471, .T. ) ;
#882 = LINE ( 'NONE', #536, #312 ) ;
#883 = EDGE_CURVE ( 'NONE', #91, #640, #87, .T. ) ;
#884 = AXIS2_PLACEMENT_3D ( 'NONE', #666, #800, #794 ) ;
#885 = ORIENTED_EDGE ( 'NONE', *, *, #696, .F. ) ;
#886 = CIRCLE ( 'NONE', #605, 1.600000000000004086 ) ;
#887 = ORIENTED_EDGE ( 'NONE', *, *, #901, .T. ) ;
#888 = VECTOR ( 'NONE', #779, 1000.000000000000000 ) ;
#889 = CARTESIAN_POINT ( 'NONE',  ( 0.000000000000000000, 0.000000000000000000, 50.00000000000000000 ) ) ;
#890 = VERTEX_POINT ( 'NONE', #15 ) ;
#891 = EDGE_CURVE ( 'NONE', #612, #382, #158, .T. ) ;
#892 = VERTEX_POINT ( 'NONE', #66 ) ;
#893 = CARTESIAN_POINT ( 'NONE',  ( 7.130604749874083330E-17, 23.35000000000000142, 7.000000000000000000 ) ) ;
#894 = EDGE_LOOP ( 'NONE', ( #531, #415 ) ) ;
#895 = EDGE_LOOP ( 'NONE', ( #736, #99 ) ) ;
#896 = DIRECTION ( 'NONE',  ( 1.000000000000000000, 1.495451272393799049E-17, -0.000000000000000000 ) ) ;
#897 = CARTESIAN_POINT ( 'NONE',  ( 2.999999999999998668, 26.54999999999999716, 7.000000000000000000 ) ) ;
#898 = VERTEX_POINT ( 'NONE', #632 ) ;
#899 = VECTOR ( 'NONE', #499, 1000.000000000000000 ) ;
#900 = AXIS2_PLACEMENT_3D ( 'NONE', #335, #815, #528 ) ;
#901 = EDGE_CURVE ( 'NONE', #640, #776, #515, .T. ) ;
#902 = AXIS2_PLACEMENT_3D ( 'NONE', #802, #799, #721 ) ;
#903 = CARTESIAN_POINT ( 'NONE',  ( -1.426120949974818392E-15, 32.00000000000000000, 50.00000000000000000 ) ) ;
#904 = CARTESIAN_POINT ( 'NONE',  ( 0.000000000000000000, 0.000000000000000000, 0.000000000000000000 ) ) ;
#905 = ORIENTED_EDGE ( 'NONE', *, *, #54, .T. ) ;
#906 = CARTESIAN_POINT ( 'NONE',  ( 22.59999999999999787, 2.999999999999998668, 40.00000000000000000 ) ) ;
#907 = FACE_OUTER_BOUND ( 'NONE', #11, .T. ) ;
#908 = CARTESIAN_POINT ( 'NONE',  ( 2.999999999999999112, 2.999999999999997335, 50.00000000000000000 ) ) ;
#909 = ORIENTED_EDGE ( 'NONE', *, *, #34, .F. ) ;
#910 = DIRECTION ( 'NONE',  ( 1.000000000000000000, 0.000000000000000000, 0.000000000000000000 ) ) ;
#911 = DIRECTION ( 'NONE',  ( -4.456627968671308090E-17, 1.000000000000000000, 0.000000000000000000 ) ) ;
#912 = CARTESIAN_POINT ( 'NONE',  ( 2.999999999999998668, 32.00000000000000000, 0.000000000000000000 ) ) ;
#913 = EDGE_CURVE ( 'NONE', #538, #90, #411, .T. ) ;
#914 = CARTESIAN_POINT ( 'NONE',  ( 41.00000000000000000, 3.000000000000000000, 50.00000000000000000 ) ) ;
#915 = UNCERTAINTY_MEASURE_WITH_UNIT (LENGTH_MEASURE( 1.000000000000000082E-05 ), #793, 'distance_accuracy_value', 'NONE');
#916 = CIRCLE ( 'NONE', #661, 1.599999999999997202 ) ;
#917 = VECTOR ( 'NONE', #292, 1000.000000000000000 ) ;
#918 = LINE ( 'NONE', #903, #427 ) ;
#919 = CIRCLE ( 'NONE', #251, 1.599999999999997202 ) ;
ENDSEC;
END-ISO-10303-21;
