ISO-10303-21;
HEADER;
FILE_DESCRIPTION (( 'STEP AP214' ),
    '1' );
FILE_NAME ('Team-A4-Battery+Breadboard.STEP',
    '2026-05-05T22:43:04',
    ( '' ),
    ( '' ),
    'SwSTEP 2.0',
    'SolidWorks 2025',
    '' );
FILE_SCHEMA (( 'AUTOMOTIVE_DESIGN' ));
ENDSEC;

DATA;
#1 = DIRECTION ( 'NONE',  ( -1.000000000000000000, -1.304303365396095934E-16, 0.000000000000000000 ) ) ;
#2 = PRODUCT_RELATED_PRODUCT_CATEGORY ( 'part', '', ( #315 ) ) ;
#3 = ORIENTED_EDGE ( 'NONE', *, *, #435, .F. ) ;
#4 = ORIENTED_EDGE ( 'NONE', *, *, #833, .F. ) ;
#5 = DIRECTION ( 'NONE',  ( 1.000000000000000000, 0.000000000000000000, 0.000000000000000000 ) ) ;
#6 = CARTESIAN_POINT ( 'NONE',  ( 3.000000000000000000, -3.000000000000000000, 0.000000000000000000 ) ) ;
#7 = CARTESIAN_POINT ( 'NONE',  ( 71.20000000000000284, 0.000000000000000000, 5.000000000000000000 ) ) ;
#8 = ORIENTED_EDGE ( 'NONE', *, *, #260, .T. ) ;
#9 = EDGE_CURVE ( 'NONE', #710, #366, #725, .T. ) ;
#10 = ORIENTED_EDGE ( 'NONE', *, *, #717, .F. ) ;
#11 = VECTOR ( 'NONE', #713, 1000.000000000000000 ) ;
#12 = DIRECTION ( 'NONE',  ( 0.000000000000000000, 1.000000000000000000, 0.000000000000000000 ) ) ;
#13 = VECTOR ( 'NONE', #254, 1000.000000000000000 ) ;
#14 = CARTESIAN_POINT ( 'NONE',  ( 15.00000000000000000, 0.000000000000000000, 10.00000000000000000 ) ) ;
#15 = ORIENTED_EDGE ( 'NONE', *, *, #291, .F. ) ;
#16 = DIRECTION ( 'NONE',  ( -1.327594496921023745E-16, 1.000000000000000000, 0.000000000000000000 ) ) ;
#17 = DIRECTION ( 'NONE',  ( 0.000000000000000000, -1.000000000000000000, 0.000000000000000000 ) ) ;
#18 = EDGE_LOOP ( 'NONE', ( #34, #997, #586, #255 ) ) ;
#19 = SHAPE_REPRESENTATION_RELATIONSHIP ( 'NONE' , 'NONE' ,  #759, #342 ) ;
#20 = EDGE_CURVE ( 'NONE', #448, #92, #1115, .T. ) ;
#21 = CARTESIAN_POINT ( 'NONE',  ( 59.20000000000000284, -12.80000000000000071, 0.000000000000000000 ) ) ;
#22 = DIRECTION ( 'NONE',  ( 0.000000000000000000, 1.000000000000000000, 0.000000000000000000 ) ) ;
#23 = VERTEX_POINT ( 'NONE', #578 ) ;
#24 = COLOUR_RGB ( '',0.7921568627450980005, 0.8196078431372548767, 0.9333333333333333481 ) ;
#25 =( GEOMETRIC_REPRESENTATION_CONTEXT ( 3 ) GLOBAL_UNCERTAINTY_ASSIGNED_CONTEXT ( ( #168 ) ) GLOBAL_UNIT_ASSIGNED_CONTEXT ( ( #1059, #987, #805 ) ) REPRESENTATION_CONTEXT ( 'NONE', 'WORKASPACE' ) );
#26 = EDGE_CURVE ( 'NONE', #23, #108, #680, .T. ) ;
#27 = VECTOR ( 'NONE', #286, 1000.000000000000000 ) ;
#28 = CARTESIAN_POINT ( 'NONE',  ( 15.00000000000000000, 0.000000000000000000, 10.00000000000000000 ) ) ;
#29 = EDGE_CURVE ( 'NONE', #374, #38, #1025, .T. ) ;
#30 = EDGE_LOOP ( 'NONE', ( #736, #3, #10, #817 ) ) ;
#31 = ORIENTED_EDGE ( 'NONE', *, *, #260, .F. ) ;
#32 = CARTESIAN_POINT ( 'NONE',  ( 645.7335680134500535, 860.2730470302110461, 1281.869997467113080 ) ) ;
#33 = PLANE ( 'NONE',  #500 ) ;
#34 = ORIENTED_EDGE ( 'NONE', *, *, #336, .T. ) ;
#35 = PRODUCT_RELATED_PRODUCT_CATEGORY ( 'part', '', ( #1110 ) ) ;
#36 = LINE ( 'NONE', #380, #1090 ) ;
#37 = CARTESIAN_POINT ( 'NONE',  ( 15.00000000000000000, 25.39999999999999858, 10.00000000000000000 ) ) ;
#38 = VERTEX_POINT ( 'NONE', #337 ) ;
#39 = ORIENTED_EDGE ( 'NONE', *, *, #436, .F. ) ;
#40 = EDGE_CURVE ( 'NONE', #118, #964, #1010, .T. ) ;
#41 = DIRECTION ( 'NONE',  ( 2.710505431213760099E-16, -1.000000000000000000, 0.000000000000000000 ) ) ;
#42 = VECTOR ( 'NONE', #1, 1000.000000000000000 ) ;
#43 = AXIS2_PLACEMENT_3D ( 'NONE', #65, #762, #1096 ) ;
#44 = ORIENTED_EDGE ( 'NONE', *, *, #730, .T. ) ;
#45 = VECTOR ( 'NONE', #245, 1000.000000000000000 ) ;
#46 = ORIENTED_EDGE ( 'NONE', *, *, #1027, .T. ) ;
#47 = DIRECTION ( 'NONE',  ( 0.000000000000000000, 0.000000000000000000, 1.000000000000000000 ) ) ;
#48 = ORIENTED_EDGE ( 'NONE', *, *, #969, .F. ) ;
#49 = DIRECTION ( 'NONE',  ( 0.000000000000000000, 0.000000000000000000, -1.000000000000000000 ) ) ;
#50 = LINE ( 'NONE', #934, #426 ) ;
#51 =( NAMED_UNIT ( * ) SI_UNIT ( $, .STERADIAN. ) SOLID_ANGLE_UNIT ( ) );
#52 = EDGE_CURVE ( 'NONE', #218, #619, #930, .T. ) ;
#53 = PLANE ( 'NONE',  #404 ) ;
#54 = ORIENTED_EDGE ( 'NONE', *, *, #543, .F. ) ;
#55 =( LENGTH_UNIT ( ) NAMED_UNIT ( * ) SI_UNIT ( .MILLI., .METRE. ) );
#56 = CARTESIAN_POINT ( 'NONE',  ( 0.000000000000000000, 0.000000000000000000, 0.000000000000000000 ) ) ;
#57 = DIRECTION ( 'NONE',  ( 0.000000000000000000, 0.000000000000000000, -1.000000000000000000 ) ) ;
#58 =( LENGTH_UNIT ( ) NAMED_UNIT ( * ) SI_UNIT ( .MILLI., .METRE. ) );
#59 = ADVANCED_FACE ( 'NONE', ( #399 ), #1005, .F. ) ;
#60 = STYLED_ITEM ( 'NONE', ( #733 ), #803 ) ;
#61 = CARTESIAN_POINT ( 'NONE',  ( 65.19999999999998863, 28.40000000000000213, 0.000000000000000000 ) ) ;
#62 = EDGE_CURVE ( 'NONE', #296, #466, #750, .T. ) ;
#63 = DIRECTION ( 'NONE',  ( 0.000000000000000000, 0.000000000000000000, -1.000000000000000000 ) ) ;
#64 = VERTEX_POINT ( 'NONE', #596 ) ;
#65 = CARTESIAN_POINT ( 'NONE',  ( 62.19999999999999574, 0.000000000000000000, 10.00000000000000000 ) ) ;
#66 = CARTESIAN_POINT ( 'NONE',  ( 15.00000000000000000, 25.39999999999999858, 0.000000000000000000 ) ) ;
#67 = CARTESIAN_POINT ( 'NONE',  ( 71.20000000000000284, 3.000000000000000000, 5.000000000000000000 ) ) ;
#68 = ORIENTED_EDGE ( 'NONE', *, *, #923, .T. ) ;
#69 = PRODUCT_DEFINITION ( 'UNKNOWN', '', #705, #612 ) ;
#70 = CARTESIAN_POINT ( 'NONE',  ( 0.000000000000000000, 3.000000000000000000, 0.000000000000000000 ) ) ;
#71 = PLANE ( 'NONE',  #576 ) ;
#72 = CARTESIAN_POINT ( 'NONE',  ( 15.00000000000000000, 25.39999999999999858, 10.00000000000000000 ) ) ;
#73 = DIRECTION ( 'NONE',  ( 0.000000000000000000, 0.000000000000000000, -1.000000000000000000 ) ) ;
#74 = VERTEX_POINT ( 'NONE', #232 ) ;
#75 = CARTESIAN_POINT ( 'NONE',  ( 77.20000000000000284, 3.000000000000000000, 10.00000000000000000 ) ) ;
#76 = CARTESIAN_POINT ( 'NONE',  ( 62.19999999999999574, -15.80000000000000071, 25.00000000000000000 ) ) ;
#77 = VECTOR ( 'NONE', #794, 1000.000000000000000 ) ;
#78 = CARTESIAN_POINT ( 'NONE',  ( 0.000000000000000000, 0.000000000000000000, 25.00000000000000000 ) ) ;
#79 = EDGE_LOOP ( 'NONE', ( #682, #761, #886, #421, #363, #204, #1036, #365 ) ) ;
#80 = VECTOR ( 'NONE', #247, 1000.000000000000000 ) ;
#81 = DIRECTION ( 'NONE',  ( 0.000000000000000000, 1.000000000000000000, 0.000000000000000000 ) ) ;
#82 = DIRECTION ( 'NONE',  ( -1.000000000000000000, 0.000000000000000000, 0.000000000000000000 ) ) ;
#83 = FACE_BOUND ( 'NONE', #207, .T. ) ;
#84 = CARTESIAN_POINT ( 'NONE',  ( 59.20000000000000284, -3.000000000000000000, 25.00000000000000000 ) ) ;
#85 = ORIENTED_EDGE ( 'NONE', *, *, #173, .T. ) ;
#86 = ORIENTED_EDGE ( 'NONE', *, *, #792, .T. ) ;
#87 = CARTESIAN_POINT ( 'NONE',  ( 3.000000000000000000, -3.000000000000000000, 25.00000000000000000 ) ) ;
#88 = DIRECTION ( 'NONE',  ( 1.000000000000000000, 2.710505431213761085E-16, 0.000000000000000000 ) ) ;
#89 = EDGE_CURVE ( 'NONE', #147, #721, #330, .T. ) ;
#90 = CARTESIAN_POINT ( 'NONE',  ( 0.000000000000000000, 3.000000000000000000, 0.000000000000000000 ) ) ;
#91 = VERTEX_POINT ( 'NONE', #495 ) ;
#92 = VERTEX_POINT ( 'NONE', #758 ) ;
#93 = CARTESIAN_POINT ( 'NONE',  ( 0.000000000000000000, 3.000000000000000000, 10.00000000000000000 ) ) ;
#94 = PLANE ( 'NONE',  #299 ) ;
#95 = ORIENTED_EDGE ( 'NONE', *, *, #833, .T. ) ;
#96 = VERTEX_POINT ( 'NONE', #845 ) ;
#97 = VECTOR ( 'NONE', #526, 1000.000000000000000 ) ;
#98 = AXIS2_PLACEMENT_3D ( 'NONE', #441, #959, #684 ) ;
#99 = AXIS2_PLACEMENT_3D ( 'NONE', #195, #527, #454 ) ;
#100 = CYLINDRICAL_SURFACE ( 'NONE', #190, 1.599999999999999867 ) ;
#101 = LINE ( 'NONE', #852, #285 ) ;
#102 = ORIENTED_EDGE ( 'NONE', *, *, #280, .T. ) ;
#103 = VERTEX_POINT ( 'NONE', #61 ) ;
#104 = ADVANCED_FACE ( 'NONE', ( #1102 ), #406, .F. ) ;
#105 = CARTESIAN_POINT ( 'NONE',  ( 0.000000000000000000, 0.000000000000000000, 0.000000000000000000 ) ) ;
#106 = DIRECTION ( 'NONE',  ( 0.000000000000000000, 0.000000000000000000, 1.000000000000000000 ) ) ;
#107 = DIRECTION ( 'NONE',  ( 1.000000000000000000, 0.000000000000000000, 0.000000000000000000 ) ) ;
#108 = VERTEX_POINT ( 'NONE', #936 ) ;
#109 = ADVANCED_FACE ( 'NONE', ( #1098 ), #149, .F. ) ;
#110 = EDGE_CURVE ( 'NONE', #715, #999, #689, .T. ) ;
#111 = FACE_OUTER_BOUND ( 'NONE', #1052, .T. ) ;
#112 = ORIENTED_EDGE ( 'NONE', *, *, #20, .T. ) ;
#113 = ORIENTED_EDGE ( 'NONE', *, *, #702, .T. ) ;
#114 = VECTOR ( 'NONE', #1109, 1000.000000000000000 ) ;
#115 = APPLICATION_CONTEXT ( 'automotive_design' ) ;
#116 = LINE ( 'NONE', #813, #11 ) ;
#117 = PRODUCT_DEFINITION ( 'UNKNOWN', '', #1108, #789 ) ;
#118 = VERTEX_POINT ( 'NONE', #156 ) ;
#119 = APPLICATION_PROTOCOL_DEFINITION ( 'draft international standard', 'automotive_design', 1998, #422 ) ;
#120 = ADVANCED_FACE ( 'NONE', ( #1028, #602 ), #948, .F. ) ;
#121 = ORIENTED_EDGE ( 'NONE', *, *, #324, .F. ) ;
#122 = ORIENTED_EDGE ( 'NONE', *, *, #717, .T. ) ;
#123 = PRODUCT_DEFINITION_SHAPE ( 'NONE', 'NONE',  #415 ) ;
#124 = DIRECTION ( 'NONE',  ( 0.000000000000000000, 0.000000000000000000, 1.000000000000000000 ) ) ;
#125 = LINE ( 'NONE', #827, #889 ) ;
#126 = ORIENTED_EDGE ( 'NONE', *, *, #820, .F. ) ;
#127 = EDGE_CURVE ( 'NONE', #103, #250, #437, .T. ) ;
#128 = DIRECTION ( 'NONE',  ( 0.000000000000000000, 0.000000000000000000, -1.000000000000000000 ) ) ;
#129 = LINE ( 'NONE', #494, #484 ) ;
#130 = VECTOR ( 'NONE', #277, 1000.000000000000000 ) ;
#131 = FILL_AREA_STYLE_COLOUR ( '', #24 ) ;
#132 = VECTOR ( 'NONE', #587, 1000.000000000000000 ) ;
#133 = VECTOR ( 'NONE', #1097, 1000.000000000000000 ) ;
#134 = ORIENTED_EDGE ( 'NONE', *, *, #373, .F. ) ;
#135 = PLANE ( 'NONE',  #795 ) ;
#136 = APPLICATION_PROTOCOL_DEFINITION ( 'draft international standard', 'automotive_design', 1998, #174 ) ;
#137 = ADVANCED_FACE ( 'NONE', ( #446 ), #1033, .F. ) ;
#138 = SURFACE_STYLE_USAGE ( .BOTH. , #914 ) ;
#139 = CARTESIAN_POINT ( 'NONE',  ( 77.20000000000000284, 0.000000000000000000, 10.00000000000000000 ) ) ;
#140 = LINE ( 'NONE', #1094, #385 ) ;
#141 = VERTEX_POINT ( 'NONE', #90 ) ;
#142 = EDGE_CURVE ( 'NONE', #956, #283, #522, .T. ) ;
#143 = CARTESIAN_POINT ( 'NONE',  ( 71.20000000000000284, 3.000000000000000000, 5.000000000000000000 ) ) ;
#144 = EDGE_CURVE ( 'NONE', #571, #227, #651, .T. ) ;
#145 = LINE ( 'NONE', #844, #167 ) ;
#146 = FACE_OUTER_BOUND ( 'NONE', #878, .T. ) ;
#147 = VERTEX_POINT ( 'NONE', #962 ) ;
#148 = DIRECTION ( 'NONE',  ( 0.000000000000000000, -1.000000000000000000, 0.000000000000000000 ) ) ;
#149 = PLANE ( 'NONE',  #249 ) ;
#150 = CARTESIAN_POINT ( 'NONE',  ( 5.299999999999999822, -3.000000000000000000, 25.00000000000000000 ) ) ;
#151 = VECTOR ( 'NONE', #326, 1000.000000000000000 ) ;
#152 = ORIENTED_EDGE ( 'NONE', *, *, #479, .T. ) ;
#153 = DIRECTION ( 'NONE',  ( -1.000000000000000000, 0.000000000000000000, 0.000000000000000000 ) ) ;
#154 = CARTESIAN_POINT ( 'NONE',  ( 62.19999999999999574, 0.000000000000000000, 0.000000000000000000 ) ) ;
#155 = CARTESIAN_POINT ( 'NONE',  ( 56.89999999999999858, -3.000000000000000000, 0.000000000000000000 ) ) ;
#156 = CARTESIAN_POINT ( 'NONE',  ( 15.00000000000000000, 25.39999999999999858, 10.00000000000000000 ) ) ;
#157 = CARTESIAN_POINT ( 'NONE',  ( 0.000000000000000000, 0.000000000000000000, 0.000000000000000000 ) ) ;
#158 = EDGE_LOOP ( 'NONE', ( #39, #461, #860, #910 ) ) ;
#159 = DIRECTION ( 'NONE',  ( 1.327594496921023745E-16, -1.000000000000000000, 0.000000000000000000 ) ) ;
#160 = CARTESIAN_POINT ( 'NONE',  ( 77.20000000000000284, 0.000000000000000000, 10.00000000000000000 ) ) ;
#161 = DIRECTION ( 'NONE',  ( -4.625929269271490844E-15, 1.000000000000000000, 0.000000000000000000 ) ) ;
#162 = PLANE ( 'NONE',  #427 ) ;
#163 = ORIENTED_EDGE ( 'NONE', *, *, #543, .T. ) ;
#164 = DIRECTION ( 'NONE',  ( 1.000000000000000000, 0.000000000000000000, 0.000000000000000000 ) ) ;
#165 = DIRECTION ( 'NONE',  ( -1.000000000000000000, 0.000000000000000000, 0.000000000000000000 ) ) ;
#166 = LINE ( 'NONE', #955, #1103 ) ;
#167 = VECTOR ( 'NONE', #942, 1000.000000000000000 ) ;
#168 = UNCERTAINTY_MEASURE_WITH_UNIT (LENGTH_MEASURE( 1.000000000000000082E-05 ), #1059, 'distance_accuracy_value', 'NONE');
#169 = EDGE_LOOP ( 'NONE', ( #353, #312, #1058, #345 ) ) ;
#170 =( GEOMETRIC_REPRESENTATION_CONTEXT ( 3 ) GLOBAL_UNCERTAINTY_ASSIGNED_CONTEXT ( ( #763 ) ) GLOBAL_UNIT_ASSIGNED_CONTEXT ( ( #903, #178, #793 ) ) REPRESENTATION_CONTEXT ( 'NONE', 'WORKASPACE' ) );
#171 = CARTESIAN_POINT ( 'NONE',  ( 0.000000000000000000, 0.000000000000000000, 25.00000000000000000 ) ) ;
#172 = CARTESIAN_POINT ( 'NONE',  ( 6.000000000000000000, 0.000000000000000000, 6.599999999999999645 ) ) ;
#173 = EDGE_CURVE ( 'NONE', #973, #23, #694, .T. ) ;
#174 = APPLICATION_CONTEXT ( 'automotive_design' ) ;
#175 = FACE_OUTER_BOUND ( 'NONE', #79, .T. ) ;
#176 = ORIENTED_EDGE ( 'NONE', *, *, #519, .T. ) ;
#177 = ORIENTED_EDGE ( 'NONE', *, *, #291, .T. ) ;
#178 =( NAMED_UNIT ( * ) PLANE_ANGLE_UNIT ( ) SI_UNIT ( $, .RADIAN. ) );
#179 = LINE ( 'NONE', #693, #77 ) ;
#180 = EDGE_CURVE ( 'NONE', #390, #188, #979, .T. ) ;
#181 = FACE_OUTER_BOUND ( 'NONE', #938, .T. ) ;
#182 = ORIENTED_EDGE ( 'NONE', *, *, #837, .T. ) ;
#183 = ORIENTED_EDGE ( 'NONE', *, *, #918, .T. ) ;
#184 = DIRECTION ( 'NONE',  ( 0.000000000000000000, 0.000000000000000000, -1.000000000000000000 ) ) ;
#185 = CARTESIAN_POINT ( 'NONE',  ( 3.000000000000000000, -12.80000000000000071, 0.000000000000000000 ) ) ;
#186 = DIRECTION ( 'NONE',  ( 0.000000000000000000, -1.000000000000000000, 0.000000000000000000 ) ) ;
#187 = ORIENTED_EDGE ( 'NONE', *, *, #470, .F. ) ;
#188 = VERTEX_POINT ( 'NONE', #610 ) ;
#189 = AXIS2_PLACEMENT_3D ( 'NONE', #1056, #788, #618 ) ;
#190 = AXIS2_PLACEMENT_3D ( 'NONE', #463, #723, #1066 ) ;
#191 = DIRECTION ( 'NONE',  ( 1.000000000000000000, 0.000000000000000000, 0.000000000000000000 ) ) ;
#192 = VECTOR ( 'NONE', #82, 1000.000000000000000 ) ;
#193 = VECTOR ( 'NONE', #57, 1000.000000000000000 ) ;
#194 = CARTESIAN_POINT ( 'NONE',  ( 12.00000000000000000, 3.000000000000000000, 10.00000000000000000 ) ) ;
#195 = CARTESIAN_POINT ( 'NONE',  ( 0.000000000000000000, 0.000000000000000000, 25.00000000000000000 ) ) ;
#196 = UNCERTAINTY_MEASURE_WITH_UNIT (LENGTH_MEASURE( 1.000000000000000082E-05 ), #740, 'distance_accuracy_value', 'NONE');
#197 = ORIENTED_EDGE ( 'NONE', *, *, #632, .F. ) ;
#198 = ADVANCED_FACE ( 'NONE', ( #175 ), #356, .F. ) ;
#199 = ORIENTED_EDGE ( 'NONE', *, *, #271, .F. ) ;
#200 = EDGE_CURVE ( 'NONE', #623, #571, #532, .T. ) ;
#201 = ADVANCED_BREP_SHAPE_REPRESENTATION ( '', ( #803, #387 ), #617 ) ;
#202 = DIRECTION ( 'NONE',  ( -2.731847993664264698E-16, 1.000000000000000000, 0.000000000000000000 ) ) ;
#203 = ORIENTED_EDGE ( 'NONE', *, *, #373, .T. ) ;
#204 = ORIENTED_EDGE ( 'NONE', *, *, #645, .T. ) ;
#205 = DIRECTION ( 'NONE',  ( -1.000000000000000000, -1.327594496921023745E-16, 0.000000000000000000 ) ) ;
#206 = ORIENTED_EDGE ( 'NONE', *, *, #712, .F. ) ;
#207 = EDGE_LOOP ( 'NONE', ( #199, #297 ) ) ;
#208 = VECTOR ( 'NONE', #307, 1000.000000000000000 ) ;
#209 = ADVANCED_FACE ( 'NONE', ( #349 ), #94, .F. ) ;
#210 = VECTOR ( 'NONE', #1112, 1000.000000000000000 ) ;
#211 = CARTESIAN_POINT ( 'NONE',  ( 15.00000000000000000, 0.000000000000000000, 0.000000000000000000 ) ) ;
#212 = ORIENTED_EDGE ( 'NONE', *, *, #957, .F. ) ;
#213 = ORIENTED_EDGE ( 'NONE', *, *, #1067, .T. ) ;
#214 = PRODUCT_CONTEXT ( 'NONE', #625, 'mechanical' ) ;
#215 =( NAMED_UNIT ( * ) PLANE_ANGLE_UNIT ( ) SI_UNIT ( $, .RADIAN. ) );
#216 = EDGE_LOOP ( 'NONE', ( #665, #126, #894, #339 ) ) ;
#217 = SURFACE_STYLE_FILL_AREA ( #656 ) ;
#218 = VERTEX_POINT ( 'NONE', #706 ) ;
#219 = ORIENTED_EDGE ( 'NONE', *, *, #918, .F. ) ;
#220 = EDGE_CURVE ( 'NONE', #908, #103, #166, .T. ) ;
#221 =( NAMED_UNIT ( * ) PLANE_ANGLE_UNIT ( ) SI_UNIT ( $, .RADIAN. ) );
#222 = CIRCLE ( 'NONE', #865, 1.599999999999999867 ) ;
#223 = FILL_AREA_STYLE ('',( #564 ) ) ;
#224 = EDGE_LOOP ( 'NONE', ( #842, #872, #234, #48 ) ) ;
#225 = EDGE_CURVE ( 'NONE', #658, #431, #1045, .T. ) ;
#226 = PLANE ( 'NONE',  #367 ) ;
#227 = VERTEX_POINT ( 'NONE', #272 ) ;
#228 = DIRECTION ( 'NONE',  ( 1.000000000000000000, 0.000000000000000000, 0.000000000000000000 ) ) ;
#229 = ADVANCED_FACE ( 'NONE', ( #181 ), #443, .F. ) ;
#230 = DIRECTION ( 'NONE',  ( 1.445602896647339903E-16, 0.000000000000000000, 1.000000000000000000 ) ) ;
#231 = DIRECTION ( 'NONE',  ( 0.000000000000000000, -1.000000000000000000, 0.000000000000000000 ) ) ;
#232 = CARTESIAN_POINT ( 'NONE',  ( 77.20000000000000284, 0.000000000000000000, 0.000000000000000000 ) ) ;
#233 = CARTESIAN_POINT ( 'NONE',  ( 62.19999999999999574, 25.39999999999999858, 0.000000000000000000 ) ) ;
#234 = ORIENTED_EDGE ( 'NONE', *, *, #180, .F. ) ;
#235 = DIRECTION ( 'NONE',  ( 1.000000000000000000, 2.710505431213761085E-16, 0.000000000000000000 ) ) ;
#236 = PRODUCT_DEFINITION_SHAPE ( 'NONE', 'NONE',  #1119 ) ;
#237 = CARTESIAN_POINT ( 'NONE',  ( 15.00000000000000000, 25.39999999999999858, 0.000000000000000000 ) ) ;
#238 = DIRECTION ( 'NONE',  ( 0.000000000000000000, -1.000000000000000000, 0.000000000000000000 ) ) ;
#239 = DIRECTION ( 'NONE',  ( -2.731847993664264698E-16, 1.000000000000000000, 0.000000000000000000 ) ) ;
#240 = EDGE_LOOP ( 'NONE', ( #197, #86, #605, #707 ) ) ;
#241 = LINE ( 'NONE', #1024, #907 ) ;
#242 = CARTESIAN_POINT ( 'NONE',  ( 0.000000000000000000, 0.000000000000000000, 0.000000000000000000 ) ) ;
#243 = VECTOR ( 'NONE', #490, 1000.000000000000000 ) ;
#244 = DIRECTION ( 'NONE',  ( 0.000000000000000000, 0.000000000000000000, -1.000000000000000000 ) ) ;
#245 = DIRECTION ( 'NONE',  ( -5.463695987328529395E-16, 1.000000000000000000, 0.000000000000000000 ) ) ;
#246 = VECTOR ( 'NONE', #766, 1000.000000000000000 ) ;
#247 = DIRECTION ( 'NONE',  ( 1.000000000000000000, 0.000000000000000000, 0.000000000000000000 ) ) ;
#248 = PRODUCT ( 'Team-A4-Battery+Breadboard.STEP', 'Team-A4-Battery+Breadboard.STEP', '', ( #650 ) ) ;
#249 = AXIS2_PLACEMENT_3D ( 'NONE', #502, #253, #943 ) ;
#250 = VERTEX_POINT ( 'NONE', #546 ) ;
#251 = LINE ( 'NONE', #946, #114 ) ;
#252 = CARTESIAN_POINT ( 'NONE',  ( 0.000000000000000000, 0.000000000000000000, 10.00000000000000000 ) ) ;
#253 = DIRECTION ( 'NONE',  ( 1.000000000000000000, 0.000000000000000000, 0.000000000000000000 ) ) ;
#254 = DIRECTION ( 'NONE',  ( 2.731847993664264698E-16, -1.000000000000000000, 0.000000000000000000 ) ) ;
#255 = ORIENTED_EDGE ( 'NONE', *, *, #319, .T. ) ;
#256 = CARTESIAN_POINT ( 'NONE',  ( 77.20000000000000284, 3.000000000000000000, 10.00000000000000000 ) ) ;
#257 = DIRECTION ( 'NONE',  ( 1.000000000000000000, 0.000000000000000000, 0.000000000000000000 ) ) ;
#258 = CARTESIAN_POINT ( 'NONE',  ( 62.19999999999999574, 0.000000000000000000, 0.000000000000000000 ) ) ;
#259 = ORIENTED_EDGE ( 'NONE', *, *, #961, .T. ) ;
#260 = EDGE_CURVE ( 'NONE', #721, #558, #1051, .T. ) ;
#261 = CARTESIAN_POINT ( 'NONE',  ( 62.19999999999999574, 0.000000000000000000, 0.000000000000000000 ) ) ;
#262 = DIRECTION ( 'NONE',  ( 0.000000000000000000, 0.000000000000000000, -1.000000000000000000 ) ) ;
#263 = DIRECTION ( 'NONE',  ( 0.000000000000000000, 0.000000000000000000, -1.000000000000000000 ) ) ;
#264 = VECTOR ( 'NONE', #1062, 1000.000000000000000 ) ;
#265 = VERTEX_POINT ( 'NONE', #627 ) ;
#266 = VECTOR ( 'NONE', #5, 1000.000000000000000 ) ;
#267 = ORIENTED_EDGE ( 'NONE', *, *, #720, .T. ) ;
#268 = EDGE_CURVE ( 'NONE', #558, #658, #783, .T. ) ;
#269 = CARTESIAN_POINT ( 'NONE',  ( 0.000000000000000000, 0.000000000000000000, 0.000000000000000000 ) ) ;
#270 = LINE ( 'NONE', #93, #1063 ) ;
#271 = EDGE_CURVE ( 'NONE', #38, #374, #772, .T. ) ;
#272 = CARTESIAN_POINT ( 'NONE',  ( 71.20000000000000284, 0.000000000000000000, 6.599999999999999645 ) ) ;
#273 = ORIENTED_EDGE ( 'NONE', *, *, #62, .T. ) ;
#274 = CARTESIAN_POINT ( 'NONE',  ( 77.20000000000000284, 0.000000000000000000, 0.000000000000000000 ) ) ;
#275 = LINE ( 'NONE', #704, #97 ) ;
#276 = CARTESIAN_POINT ( 'NONE',  ( 12.00000000000000000, 28.40000000000000213, 10.00000000000000000 ) ) ;
#277 = DIRECTION ( 'NONE',  ( 0.000000000000000000, 1.000000000000000000, 0.000000000000000000 ) ) ;
#278 = ORIENTED_EDGE ( 'NONE', *, *, #144, .F. ) ;
#279 = CARTESIAN_POINT ( 'NONE',  ( 0.000000000000000000, 0.000000000000000000, 25.00000000000000000 ) ) ;
#280 = EDGE_CURVE ( 'NONE', #566, #619, #101, .T. ) ;
#281 = DIRECTION ( 'NONE',  ( 0.000000000000000000, 0.000000000000000000, -1.000000000000000000 ) ) ;
#282 = CARTESIAN_POINT ( 'NONE',  ( 0.000000000000000000, 0.000000000000000000, 0.000000000000000000 ) ) ;
#283 = VERTEX_POINT ( 'NONE', #929 ) ;
#284 = ORIENTED_EDGE ( 'NONE', *, *, #1050, .T. ) ;
#285 = VECTOR ( 'NONE', #230, 1000.000000000000000 ) ;
#286 = DIRECTION ( 'NONE',  ( -4.625929269271490844E-15, 1.000000000000000000, 0.000000000000000000 ) ) ;
#287 = PRODUCT_DEFINITION_FORMATION_WITH_SPECIFIED_SOURCE ( 'ANY', '', #315, .NOT_KNOWN. ) ;
#288 = VECTOR ( 'NONE', #348, 1000.000000000000000 ) ;
#289 = DIRECTION ( 'NONE',  ( 0.000000000000000000, -1.000000000000000000, 0.000000000000000000 ) ) ;
#290 = ORIENTED_EDGE ( 'NONE', *, *, #1114, .T. ) ;
#291 = EDGE_CURVE ( 'NONE', #1053, #74, #489, .T. ) ;
#292 = LINE ( 'NONE', #274, #27 ) ;
#293 = FACE_OUTER_BOUND ( 'NONE', #492, .T. ) ;
#294 = CARTESIAN_POINT ( 'NONE',  ( 59.20000000000000284, -3.000000000000000000, 0.000000000000000000 ) ) ;
#295 = EDGE_CURVE ( 'NONE', #715, #908, #569, .T. ) ;
#296 = VERTEX_POINT ( 'NONE', #237 ) ;
#297 = ORIENTED_EDGE ( 'NONE', *, *, #29, .F. ) ;
#298 = AXIS2_PLACEMENT_3D ( 'NONE', #557, #106, #458 ) ;
#299 = AXIS2_PLACEMENT_3D ( 'NONE', #538, #892, #883 ) ;
#300 = PLANE ( 'NONE',  #633 ) ;
#301 = ORIENTED_EDGE ( 'NONE', *, *, #127, .T. ) ;
#302 = ORIENTED_EDGE ( 'NONE', *, *, #268, .F. ) ;
#303 = CONTEXT_DEPENDENT_SHAPE_REPRESENTATION ( #368, #585 ) ;
#304 = EDGE_CURVE ( 'NONE', #701, #908, #50, .T. ) ;
#305 = ORIENTED_EDGE ( 'NONE', *, *, #319, .F. ) ;
#306 = LINE ( 'NONE', #411, #133 ) ;
#307 = DIRECTION ( 'NONE',  ( 0.000000000000000000, 0.000000000000000000, 1.000000000000000000 ) ) ;
#308 = EDGE_CURVE ( 'NONE', #623, #96, #980, .T. ) ;
#309 = EDGE_LOOP ( 'NONE', ( #450, #1021, #984, #176 ) ) ;
#310 = EDGE_CURVE ( 'NONE', #414, #791, #129, .T. ) ;
#311 = LINE ( 'NONE', #233, #13 ) ;
#312 = ORIENTED_EDGE ( 'NONE', *, *, #876, .F. ) ;
#313 = VECTOR ( 'NONE', #739, 1000.000000000000000 ) ;
#314 = PLANE ( 'NONE',  #616 ) ;
#315 = PRODUCT ( 'bread_1.STEP', 'bread_1.STEP', '', ( #214 ) ) ;
#316 = CARTESIAN_POINT ( 'NONE',  ( 6.000000000000000000, 0.000000000000000000, 5.000000000000000000 ) ) ;
#317 = CARTESIAN_POINT ( 'NONE',  ( 12.00000000000000000, 3.000000000000000000, 10.00000000000000000 ) ) ;
#318 = ORIENTED_EDGE ( 'NONE', *, *, #110, .T. ) ;
#319 = EDGE_CURVE ( 'NONE', #746, #250, #673, .T. ) ;
#320 = DIRECTION ( 'NONE',  ( 0.000000000000000000, -1.000000000000000000, 0.000000000000000000 ) ) ;
#321 = DIRECTION ( 'NONE',  ( 0.000000000000000000, -1.000000000000000000, 0.000000000000000000 ) ) ;
#322 = DIRECTION ( 'NONE',  ( 0.000000000000000000, 0.000000000000000000, -1.000000000000000000 ) ) ;
#323 = ORIENTED_EDGE ( 'NONE', *, *, #531, .T. ) ;
#324 = EDGE_CURVE ( 'NONE', #547, #265, #306, .T. ) ;
#325 = FACE_OUTER_BOUND ( 'NONE', #972, .T. ) ;
#326 = DIRECTION ( 'NONE',  ( 0.000000000000000000, 1.000000000000000000, 0.000000000000000000 ) ) ;
#327 = VERTEX_POINT ( 'NONE', #678 ) ;
#328 = CARTESIAN_POINT ( 'NONE',  ( 65.19999999999998863, 28.40000000000000213, 10.00000000000000000 ) ) ;
#329 = MECHANICAL_DESIGN_GEOMETRIC_PRESENTATION_REPRESENTATION (  '', ( #481 ), #917 ) ;
#330 = LINE ( 'NONE', #769, #635 ) ;
#331 = CYLINDRICAL_SURFACE ( 'NONE', #1006, 1.599999999999999867 ) ;
#332 = AXIS2_PLACEMENT_3D ( 'NONE', #1040, #17, #263 ) ;
#333 = VERTEX_POINT ( 'NONE', #242 ) ;
#334 = DIRECTION ( 'NONE',  ( -0.000000000000000000, 1.000000000000000000, 0.000000000000000000 ) ) ;
#335 = CARTESIAN_POINT ( 'NONE',  ( 6.000000000000000000, 3.000000000000000000, 3.399999999999999911 ) ) ;
#336 = EDGE_CURVE ( 'NONE', #250, #327, #660, .T. ) ;
#337 = CARTESIAN_POINT ( 'NONE',  ( 6.000000000000000000, 0.000000000000000000, 3.399999999999999911 ) ) ;
#338 = CARTESIAN_POINT ( 'NONE',  ( 65.19999999999998863, 3.000000000000000000, 10.00000000000000000 ) ) ;
#339 = ORIENTED_EDGE ( 'NONE', *, *, #360, .T. ) ;
#340 = PLANE ( 'NONE',  #43 ) ;
#341 = CARTESIAN_POINT ( 'NONE',  ( 6.000000000000000000, 3.000000000000000000, 6.599999999999999645 ) ) ;
#342 = ADVANCED_BREP_SHAPE_REPRESENTATION ( '', ( #810, #387 ), #25 ) ;
#343 = DIRECTION ( 'NONE',  ( -5.463695987328529395E-16, 1.000000000000000000, 0.000000000000000000 ) ) ;
#344 = ADVANCED_FACE ( 'NONE', ( #575 ), #71, .F. ) ;
#345 = ORIENTED_EDGE ( 'NONE', *, *, #271, .T. ) ;
#346 = EDGE_CURVE ( 'NONE', #23, #74, #874, .T. ) ;
#347 = PLANE ( 'NONE',  #98 ) ;
#348 = DIRECTION ( 'NONE',  ( 0.000000000000000000, 0.000000000000000000, 1.000000000000000000 ) ) ;
#349 = FACE_OUTER_BOUND ( 'NONE', #670, .T. ) ;
#350 = AXIS2_PLACEMENT_3D ( 'NONE', #397, #41, #235 ) ;
#351 = PRODUCT_DEFINITION_CONTEXT ( 'detailed design', #422, 'design' ) ;
#352 = VERTEX_POINT ( 'NONE', #442 ) ;
#353 = ORIENTED_EDGE ( 'NONE', *, *, #1069, .F. ) ;
#354 = VECTOR ( 'NONE', #496, 1000.000000000000000 ) ;
#355 = CARTESIAN_POINT ( 'NONE',  ( 71.20000000000000284, 0.000000000000000000, 5.000000000000000000 ) ) ;
#356 = PLANE ( 'NONE',  #99 ) ;
#357 = ORIENTED_EDGE ( 'NONE', *, *, #127, .F. ) ;
#358 = ORIENTED_EDGE ( 'NONE', *, *, #9, .F. ) ;
#359 = DIRECTION ( 'NONE',  ( 1.000000000000000000, 0.000000000000000000, 0.000000000000000000 ) ) ;
#360 = EDGE_CURVE ( 'NONE', #771, #147, #424, .T. ) ;
#361 = CARTESIAN_POINT ( 'NONE',  ( 1.934941942652819995E-15, -15.80000000000000071, 25.00000000000000000 ) ) ;
#362 = DIRECTION ( 'NONE',  ( 0.000000000000000000, 0.000000000000000000, -1.000000000000000000 ) ) ;
#363 = ORIENTED_EDGE ( 'NONE', *, *, #1067, .F. ) ;
#364 = CARTESIAN_POINT ( 'NONE',  ( 62.19999999999999574, 25.39999999999999858, 10.00000000000000000 ) ) ;
#365 = ORIENTED_EDGE ( 'NONE', *, *, #1114, .F. ) ;
#366 = VERTEX_POINT ( 'NONE', #698 ) ;
#367 = AXIS2_PLACEMENT_3D ( 'NONE', #584, #836, #239 ) ;
#368 =( REPRESENTATION_RELATIONSHIP ('NONE','NONE', #882, #716 ) REPRESENTATION_RELATIONSHIP_WITH_TRANSFORMATION ( #1070 )SHAPE_REPRESENTATION_RELATIONSHIP( ) );
#369 = AXIS2_PLACEMENT_3D ( 'NONE', #157, #927, #1091 ) ;
#370 = DIRECTION ( 'NONE',  ( 0.000000000000000000, 0.000000000000000000, -1.000000000000000000 ) ) ;
#371 =( GEOMETRIC_REPRESENTATION_CONTEXT ( 3 ) GLOBAL_UNCERTAINTY_ASSIGNED_CONTEXT ( ( #438 ) ) GLOBAL_UNIT_ASSIGNED_CONTEXT ( ( #55, #221, #567 ) ) REPRESENTATION_CONTEXT ( 'NONE', 'WORKASPACE' ) );
#372 = CARTESIAN_POINT ( 'NONE',  ( 59.20000000000000284, -12.80000000000000071, 25.00000000000000000 ) ) ;
#373 = EDGE_CURVE ( 'NONE', #973, #1053, #1044, .T. ) ;
#374 = VERTEX_POINT ( 'NONE', #172 ) ;
#375 = ORIENTED_EDGE ( 'NONE', *, *, #304, .F. ) ;
#376 = DIRECTION ( 'NONE',  ( 0.000000000000000000, 0.000000000000000000, -1.000000000000000000 ) ) ;
#377 = ORIENTED_EDGE ( 'NONE', *, *, #565, .F. ) ;
#378 = EDGE_CURVE ( 'NONE', #431, #448, #275, .T. ) ;
#379 = APPLICATION_PROTOCOL_DEFINITION ( 'draft international standard', 'automotive_design', 1998, #552 ) ;
#380 = CARTESIAN_POINT ( 'NONE',  ( 5.299999999999999822, 0.000000000000000000, 8.000000000000000000 ) ) ;
#381 = CARTESIAN_POINT ( 'NONE',  ( 71.20000000000000284, 10.00000000000000000, 6.599999999999999645 ) ) ;
#382 = ORIENTED_EDGE ( 'NONE', *, *, #606, .F. ) ;
#383 = VECTOR ( 'NONE', #622, 1000.000000000000000 ) ;
#384 = SHAPE_DEFINITION_REPRESENTATION ( #123, #529 ) ;
#385 = VECTOR ( 'NONE', #49, 1000.000000000000000 ) ;
#386 = CARTESIAN_POINT ( 'NONE',  ( 3.000000000000000000, -12.80000000000000071, 0.000000000000000000 ) ) ;
#387 = AXIS2_PLACEMENT_3D ( 'NONE', #452, #624, #191 ) ;
#388 = PRODUCT_DEFINITION_SHAPE ( 'NONE', 'NONE',  #884 ) ;
#389 = AXIS2_PLACEMENT_3D ( 'NONE', #316, #674, #926 ) ;
#390 = VERTEX_POINT ( 'NONE', #867 ) ;
#391 = APPLICATION_PROTOCOL_DEFINITION ( 'draft international standard', 'automotive_design', 1998, #469 ) ;
#392 = CARTESIAN_POINT ( 'NONE',  ( 62.19999999999999574, 0.000000000000000000, 25.00000000000000000 ) ) ;
#393 = EDGE_CURVE ( 'NONE', #91, #932, #270, .T. ) ;
#394 = ORIENTED_EDGE ( 'NONE', *, *, #606, .T. ) ;
#395 = CARTESIAN_POINT ( 'NONE',  ( 71.20000000000000284, 0.000000000000000000, 3.399999999999999911 ) ) ;
#396 = ITEM_DEFINED_TRANSFORMATION ( 'NONE', 'NONE', #796,  #387 ) ;
#397 = CARTESIAN_POINT ( 'NONE',  ( 6.000000000000000000, 3.000000000000000000, 5.000000000000000000 ) ) ;
#398 = SURFACE_STYLE_USAGE ( .BOTH. , #1086 ) ;
#399 = FACE_OUTER_BOUND ( 'NONE', #855, .T. ) ;
#400 = CARTESIAN_POINT ( 'NONE',  ( 0.000000000000000000, 0.000000000000000000, 10.00000000000000000 ) ) ;
#401 = ORIENTED_EDGE ( 'NONE', *, *, #310, .T. ) ;
#402 = CONTEXT_DEPENDENT_SHAPE_REPRESENTATION ( #432, #417 ) ;
#403 = DIRECTION ( 'NONE',  ( -8.783410004945860154E-16, 1.000000000000000000, 0.000000000000000000 ) ) ;
#404 = AXIS2_PLACEMENT_3D ( 'NONE', #491, #510, #854 ) ;
#405 = PLANE ( 'NONE',  #775 ) ;
#406 = CYLINDRICAL_SURFACE ( 'NONE', #544, 1.599999999999999867 ) ;
#407 = EDGE_CURVE ( 'NONE', #366, #547, #608, .T. ) ;
#408 = DIRECTION ( 'NONE',  ( 0.000000000000000000, 0.000000000000000000, -1.000000000000000000 ) ) ;
#409 = VERTEX_POINT ( 'NONE', #341 ) ;
#410 = FACE_OUTER_BOUND ( 'NONE', #30, .T. ) ;
#411 = CARTESIAN_POINT ( 'NONE',  ( 3.000000000000000000, -3.000000000000000000, 0.000000000000000000 ) ) ;
#412 = DIRECTION ( 'NONE',  ( -1.000000000000000000, -4.625929269271490844E-15, 0.000000000000000000 ) ) ;
#413 = DIRECTION ( 'NONE',  ( 0.000000000000000000, -1.000000000000000000, 0.000000000000000000 ) ) ;
#414 = VERTEX_POINT ( 'NONE', #781 ) ;
#415 = PRODUCT_DEFINITION ( 'UNKNOWN', '', #574, #351 ) ;
#416 = LINE ( 'NONE', #70, #521 ) ;
#417 = PRODUCT_DEFINITION_SHAPE ( 'NONE', 'NONE',  #1117 ) ;
#418 = CARTESIAN_POINT ( 'NONE',  ( 5.299999999999999822, -5.000000000000000000, 8.000000000000000000 ) ) ;
#419 = DIRECTION ( 'NONE',  ( -4.625929269271490844E-15, 1.000000000000000000, 0.000000000000000000 ) ) ;
#420 = FACE_OUTER_BOUND ( 'NONE', #240, .T. ) ;
#421 = ORIENTED_EDGE ( 'NONE', *, *, #378, .F. ) ;
#422 = APPLICATION_CONTEXT ( 'automotive_design' ) ;
#423 = DIRECTION ( 'NONE',  ( 1.000000000000000000, 0.000000000000000000, 0.000000000000000000 ) ) ;
#424 = LINE ( 'NONE', #1116, #288 ) ;
#425 = ADVANCED_FACE ( 'NONE', ( #83, #1032 ), #530, .F. ) ;
#426 = VECTOR ( 'NONE', #582, 1000.000000000000000 ) ;
#427 = AXIS2_PLACEMENT_3D ( 'NONE', #514, #205, #16 ) ;
#428 = VECTOR ( 'NONE', #159, 1000.000000000000000 ) ;
#429 = DIRECTION ( 'NONE',  ( 1.000000000000000000, 1.224646799147351975E-16, 0.000000000000000000 ) ) ;
#430 = AXIS2_PLACEMENT_3D ( 'NONE', #143, #320, #838 ) ;
#431 = VERTEX_POINT ( 'NONE', #787 ) ;
#432 =( REPRESENTATION_RELATIONSHIP ('NONE','NONE', #529, #882 ) REPRESENTATION_RELATIONSHIP_WITH_TRANSFORMATION ( #843 )SHAPE_REPRESENTATION_RELATIONSHIP( ) );
#433 = DIRECTION ( 'NONE',  ( -1.000000000000000000, -1.084202172485505913E-16, 0.000000000000000000 ) ) ;
#434 = DIRECTION ( 'NONE',  ( 0.000000000000000000, 0.000000000000000000, -1.000000000000000000 ) ) ;
#435 = EDGE_CURVE ( 'NONE', #414, #390, #1026, .T. ) ;
#436 = EDGE_CURVE ( 'NONE', #409, #504, #572, .T. ) ;
#437 = LINE ( 'NONE', #809, #42 ) ;
#438 = UNCERTAINTY_MEASURE_WITH_UNIT (LENGTH_MEASURE( 1.000000000000000082E-05 ), #55, 'distance_accuracy_value', 'NONE');
#439 = ORIENTED_EDGE ( 'NONE', *, *, #180, .T. ) ;
#440 = ORIENTED_EDGE ( 'NONE', *, *, #663, .T. ) ;
#441 = CARTESIAN_POINT ( 'NONE',  ( 3.000000000000000000, -3.000000000000000000, 0.000000000000000000 ) ) ;
#442 = CARTESIAN_POINT ( 'NONE',  ( 0.000000000000000000, 0.000000000000000000, 25.00000000000000000 ) ) ;
#443 = PLANE ( 'NONE',  #688 ) ;
#444 = ORIENTED_EDGE ( 'NONE', *, *, #820, .T. ) ;
#445 = CARTESIAN_POINT ( 'NONE',  ( 0.000000000000000000, 3.000000000000000000, 10.00000000000000000 ) ) ;
#446 = FACE_OUTER_BOUND ( 'NONE', #1106, .T. ) ;
#447 = AXIS2_PLACEMENT_3D ( 'NONE', #67, #413, #1099 ) ;
#448 = VERTEX_POINT ( 'NONE', #966 ) ;
#449 = EDGE_CURVE ( 'NONE', #64, #566, #179, .T. ) ;
#450 = ORIENTED_EDGE ( 'NONE', *, *, #142, .T. ) ;
#451 = AXIS2_PLACEMENT_3D ( 'NONE', #7, #459, #362 ) ;
#452 = CARTESIAN_POINT ( 'NONE',  ( 0.000000000000000000, 0.000000000000000000, 0.000000000000000000 ) ) ;
#453 = PLANE ( 'NONE',  #298 ) ;
#454 = DIRECTION ( 'NONE',  ( 0.000000000000000000, 0.000000000000000000, -1.000000000000000000 ) ) ;
#455 = ORIENTED_EDGE ( 'NONE', *, *, #308, .T. ) ;
#456 = DIRECTION ( 'NONE',  ( 0.000000000000000000, 0.000000000000000000, 1.000000000000000000 ) ) ;
#457 = PRODUCT_RELATED_PRODUCT_CATEGORY ( 'part', '', ( #950 ) ) ;
#458 = DIRECTION ( 'NONE',  ( 1.000000000000000000, 0.000000000000000000, 0.000000000000000000 ) ) ;
#459 = DIRECTION ( 'NONE',  ( 0.000000000000000000, -1.000000000000000000, 0.000000000000000000 ) ) ;
#460 = ORIENTED_EDGE ( 'NONE', *, *, #645, .F. ) ;
#461 = ORIENTED_EDGE ( 'NONE', *, *, #1069, .T. ) ;
#462 = DIRECTION ( 'NONE',  ( 0.000000000000000000, 0.000000000000000000, 1.000000000000000000 ) ) ;
#463 = CARTESIAN_POINT ( 'NONE',  ( 6.000000000000000000, 10.00000000000000000, 5.000000000000000000 ) ) ;
#464 = EDGE_LOOP ( 'NONE', ( #898, #741, #163, #68 ) ) ;
#465 = VECTOR ( 'NONE', #1074, 1000.000000000000000 ) ;
#466 = VERTEX_POINT ( 'NONE', #960 ) ;
#467 = ADVANCED_FACE ( 'NONE', ( #518 ), #881, .F. ) ;
#468 = LINE ( 'NONE', #636, #539 ) ;
#469 = APPLICATION_CONTEXT ( 'automotive_design' ) ;
#470 = EDGE_CURVE ( 'NONE', #227, #571, #222, .T. ) ;
#471 = ORIENTED_EDGE ( 'NONE', *, *, #200, .T. ) ;
#472 = CARTESIAN_POINT ( 'NONE',  ( 0.000000000000000000, 0.000000000000000000, 25.00000000000000000 ) ) ;
#473 = ORIENTED_EDGE ( 'NONE', *, *, #110, .F. ) ;
#474 = ORIENTED_EDGE ( 'NONE', *, *, #393, .T. ) ;
#475 = PRODUCT_CONTEXT ( 'NONE', #879, 'mechanical' ) ;
#476 = FACE_OUTER_BOUND ( 'NONE', #216, .T. ) ;
#477 = EDGE_LOOP ( 'NONE', ( #323, #134, #206, #440 ) ) ;
#478 = ORIENTED_EDGE ( 'NONE', *, *, #868, .T. ) ;
#479 = EDGE_CURVE ( 'NONE', #327, #141, #513, .T. ) ;
#480 = APPLICATION_PROTOCOL_DEFINITION ( 'draft international standard', 'automotive_design', 1998, #625 ) ;
#481 = STYLED_ITEM ( 'NONE', ( #646 ), #810 ) ;
#482 = AXIS2_PLACEMENT_3D ( 'NONE', #921, #47, #493 ) ;
#483 = CLOSED_SHELL ( 'NONE', ( #640, #104, #671, #986, #120, #745, #549, #782, #588, #59, #1037, #555, #839, #229, #425, #467, #749, #603 ) ) ;
#484 = VECTOR ( 'NONE', #403, 1000.000000000000000 ) ;
#485 = LINE ( 'NONE', #925, #208 ) ;
#486 = EDGE_LOOP ( 'NONE', ( #804, #284, #548, #735 ) ) ;
#487 = LINE ( 'NONE', #681, #648 ) ;
#488 = APPLICATION_PROTOCOL_DEFINITION ( 'draft international standard', 'automotive_design', 1998, #505 ) ;
#489 = LINE ( 'NONE', #154, #915 ) ;
#490 = DIRECTION ( 'NONE',  ( -1.000000000000000000, 0.000000000000000000, 0.000000000000000000 ) ) ;
#491 = CARTESIAN_POINT ( 'NONE',  ( 77.20000000000000284, 3.000000000000000000, 10.00000000000000000 ) ) ;
#492 = EDGE_LOOP ( 'NONE', ( #267, #377, #985, #290 ) ) ;
#493 = DIRECTION ( 'NONE',  ( 1.000000000000000000, 0.000000000000000000, 0.000000000000000000 ) ) ;
#494 = CARTESIAN_POINT ( 'NONE',  ( 62.19999999999999574, 0.000000000000000000, 25.00000000000000000 ) ) ;
#495 = CARTESIAN_POINT ( 'NONE',  ( 0.000000000000000000, 3.000000000000000000, 10.00000000000000000 ) ) ;
#496 = DIRECTION ( 'NONE',  ( -1.000000000000000000, -1.445602896647339903E-16, 0.000000000000000000 ) ) ;
#497 = ORIENTED_EDGE ( 'NONE', *, *, #346, .F. ) ;
#498 = CARTESIAN_POINT ( 'NONE',  ( 62.19999999999999574, 0.000000000000000000, 10.00000000000000000 ) ) ;
#499 = DIRECTION ( 'NONE',  ( 0.000000000000000000, 0.000000000000000000, -1.000000000000000000 ) ) ;
#500 = AXIS2_PLACEMENT_3D ( 'NONE', #78, #429, #629 ) ;
#501 = VECTOR ( 'NONE', #322, 1000.000000000000000 ) ;
#502 = CARTESIAN_POINT ( 'NONE',  ( 56.89999999999999858, -5.000000000000000000, 8.000000000000000000 ) ) ;
#503 = CARTESIAN_POINT ( 'NONE',  ( 1.934941942652819995E-15, -15.80000000000000071, 25.00000000000000000 ) ) ;
#504 = VERTEX_POINT ( 'NONE', #335 ) ;
#505 = APPLICATION_CONTEXT ( 'automotive_design' ) ;
#506 = DIRECTION ( 'NONE',  ( 0.000000000000000000, 0.000000000000000000, 1.000000000000000000 ) ) ;
#507 = CARTESIAN_POINT ( 'NONE',  ( 12.00000000000000000, 28.40000000000000213, 0.000000000000000000 ) ) ;
#508 = LINE ( 'NONE', #601, #1061 ) ;
#509 = DIRECTION ( 'NONE',  ( 1.000000000000000000, 0.000000000000000000, 0.000000000000000000 ) ) ;
#510 = DIRECTION ( 'NONE',  ( 1.084202172485505913E-16, -1.000000000000000000, 0.000000000000000000 ) ) ;
#511 = ORIENTED_EDGE ( 'NONE', *, *, #89, .F. ) ;
#512 = CARTESIAN_POINT ( 'NONE',  ( 0.000000000000000000, 0.000000000000000000, 10.00000000000000000 ) ) ;
#513 = LINE ( 'NONE', #862, #210 ) ;
#514 = CARTESIAN_POINT ( 'NONE',  ( 3.000000000000000000, -3.000000000000000000, 0.000000000000000000 ) ) ;
#515 = ORIENTED_EDGE ( 'NONE', *, *, #346, .T. ) ;
#516 = EDGE_CURVE ( 'NONE', #653, #91, #841, .T. ) ;
#517 = CARTESIAN_POINT ( 'NONE',  ( 15.00000000000000000, 0.000000000000000000, 10.00000000000000000 ) ) ;
#518 = FACE_OUTER_BOUND ( 'NONE', #785, .T. ) ;
#519 = EDGE_CURVE ( 'NONE', #932, #956, #1029, .T. ) ;
#520 = MECHANICAL_DESIGN_GEOMETRIC_PRESENTATION_REPRESENTATION (  '', ( #60 ), #906 ) ;
#521 = VECTOR ( 'NONE', #148, 1000.000000000000000 ) ;
#522 = LINE ( 'NONE', #282, #851 ) ;
#523 = VECTOR ( 'NONE', #370, 1000.000000000000000 ) ;
#524 = ORIENTED_EDGE ( 'NONE', *, *, #663, .F. ) ;
#525 = CARTESIAN_POINT ( 'NONE',  ( 0.000000000000000000, 0.000000000000000000, 25.00000000000000000 ) ) ;
#526 = DIRECTION ( 'NONE',  ( 0.000000000000000000, 0.000000000000000000, -1.000000000000000000 ) ) ;
#527 = DIRECTION ( 'NONE',  ( 0.000000000000000000, -1.000000000000000000, 0.000000000000000000 ) ) ;
#528 = ORIENTED_EDGE ( 'NONE', *, *, #220, .F. ) ;
#529 = SHAPE_REPRESENTATION ( 'Team-A4-Battery+Breadboard', ( #649, #482 ), #371 ) ;
#530 = PLANE ( 'NONE',  #1019 ) ;
#531 = EDGE_CURVE ( 'NONE', #466, #1053, #311, .T. ) ;
#532 = LINE ( 'NONE', #797, #683 ) ;
#533 = ORIENTED_EDGE ( 'NONE', *, *, #324, .T. ) ;
#534 = ORIENTED_EDGE ( 'NONE', *, *, #1000, .F. ) ;
#535 = LINE ( 'NONE', #722, #523 ) ;
#536 = CARTESIAN_POINT ( 'NONE',  ( 77.20000000000000284, 3.000000000000000000, 0.000000000000000000 ) ) ;
#537 = VECTOR ( 'NONE', #615, 1000.000000000000000 ) ;
#538 = CARTESIAN_POINT ( 'NONE',  ( 62.19999999999999574, 0.000000000000000000, 25.00000000000000000 ) ) ;
#539 = VECTOR ( 'NONE', #727, 1000.000000000000000 ) ;
#540 = ORIENTED_EDGE ( 'NONE', *, *, #1082, .T. ) ;
#541 = AXIS2_PLACEMENT_3D ( 'NONE', #703, #334, #423 ) ;
#542 = ORIENTED_EDGE ( 'NONE', *, *, #435, .T. ) ;
#543 = EDGE_CURVE ( 'NONE', #566, #92, #1105, .T. ) ;
#544 = AXIS2_PLACEMENT_3D ( 'NONE', #1093, #321, #589 ) ;
#545 = CARTESIAN_POINT ( 'NONE',  ( 56.89999999999999858, -3.000000000000000000, 25.00000000000000000 ) ) ;
#546 = CARTESIAN_POINT ( 'NONE',  ( 12.00000000000000000, 28.40000000000000213, 0.000000000000000000 ) ) ;
#547 = VERTEX_POINT ( 'NONE', #579 ) ;
#548 = ORIENTED_EDGE ( 'NONE', *, *, #895, .T. ) ;
#549 = ADVANCED_FACE ( 'NONE', ( #146 ), #135, .F. ) ;
#550 = CARTESIAN_POINT ( 'NONE',  ( 653.1807480734199771, 901.4730470302109779, 1281.869997467113080 ) ) ;
#551 = LINE ( 'NONE', #983, #975 ) ;
#552 = APPLICATION_CONTEXT ( 'automotive_design' ) ;
#553 = ORIENTED_EDGE ( 'NONE', *, *, #961, .F. ) ;
#554 = ORIENTED_EDGE ( 'NONE', *, *, #449, .F. ) ;
#555 = ADVANCED_FACE ( 'NONE', ( #1008 ), #226, .F. ) ;
#556 = ADVANCED_FACE ( 'NONE', ( #669, #1011 ), #937, .F. ) ;
#557 = CARTESIAN_POINT ( 'NONE',  ( 0.000000000000000000, 0.000000000000000000, 0.000000000000000000 ) ) ;
#558 = VERTEX_POINT ( 'NONE', #752 ) ;
#559 = COLOUR_RGB ( '',0.7921568627450980005, 0.8196078431372548767, 0.9333333333333333481 ) ;
#560 = DIRECTION ( 'NONE',  ( 0.000000000000000000, 1.000000000000000000, 0.000000000000000000 ) ) ;
#561 = ORIENTED_EDGE ( 'NONE', *, *, #62, .F. ) ;
#562 = ORIENTED_EDGE ( 'NONE', *, *, #632, .T. ) ;
#563 = DIRECTION ( 'NONE',  ( 1.445602896647339903E-16, 0.000000000000000000, 1.000000000000000000 ) ) ;
#564 = FILL_AREA_STYLE_COLOUR ( '', #559 ) ;
#565 = EDGE_CURVE ( 'NONE', #628, #742, #487, .T. ) ;
#566 = VERTEX_POINT ( 'NONE', #859 ) ;
#567 =( NAMED_UNIT ( * ) SI_UNIT ( $, .STERADIAN. ) SOLID_ANGLE_UNIT ( ) );
#568 = FACE_OUTER_BOUND ( 'NONE', #790, .T. ) ;
#569 = LINE ( 'NONE', #593, #193 ) ;
#570 = SURFACE_STYLE_FILL_AREA ( #223 ) ;
#571 = VERTEX_POINT ( 'NONE', #395 ) ;
#572 = CIRCLE ( 'NONE', #994, 1.599999999999999867 ) ;
#573 = VECTOR ( 'NONE', #1085, 1000.000000000000000 ) ;
#574 = PRODUCT_DEFINITION_FORMATION_WITH_SPECIFIED_SOURCE ( 'ANY', '', #1110, .NOT_KNOWN. ) ;
#575 = FACE_OUTER_BOUND ( 'NONE', #464, .T. ) ;
#576 = AXIS2_PLACEMENT_3D ( 'NONE', #418, #767, #924 ) ;
#577 = LINE ( 'NONE', #381, #939 ) ;
#578 = CARTESIAN_POINT ( 'NONE',  ( 77.20000000000000284, 0.000000000000000000, 10.00000000000000000 ) ) ;
#579 = CARTESIAN_POINT ( 'NONE',  ( 3.000000000000000000, -3.000000000000000000, 0.000000000000000000 ) ) ;
#580 = ORIENTED_EDGE ( 'NONE', *, *, #712, .T. ) ;
#581 = EDGE_CURVE ( 'NONE', #999, #103, #140, .T. ) ;
#582 = DIRECTION ( 'NONE',  ( -1.000000000000000000, -1.084202172485505913E-16, 0.000000000000000000 ) ) ;
#583 = DIRECTION ( 'NONE',  ( 1.000000000000000000, 0.000000000000000000, 0.000000000000000000 ) ) ;
#584 = CARTESIAN_POINT ( 'NONE',  ( 62.19999999999999574, 25.39999999999999858, 10.00000000000000000 ) ) ;
#585 = PRODUCT_DEFINITION_SHAPE ( 'NONE', 'NONE',  #1118 ) ;
#586 = ORIENTED_EDGE ( 'NONE', *, *, #875, .F. ) ;
#587 = DIRECTION ( 'NONE',  ( 0.000000000000000000, 0.000000000000000000, -1.000000000000000000 ) ) ;
#588 = ADVANCED_FACE ( 'NONE', ( #931, #675 ), #53, .F. ) ;
#589 = DIRECTION ( 'NONE',  ( 0.000000000000000000, 0.000000000000000000, -1.000000000000000000 ) ) ;
#590 = LINE ( 'NONE', #760, #594 ) ;
#591 = EDGE_LOOP ( 'NONE', ( #990, #847, #473, #1068 ) ) ;
#592 = CARTESIAN_POINT ( 'NONE',  ( 1.934941942652819995E-15, -15.80000000000000071, 0.000000000000000000 ) ) ;
#593 = CARTESIAN_POINT ( 'NONE',  ( 65.19999999999998863, 3.000000000000000000, 10.00000000000000000 ) ) ;
#594 = VECTOR ( 'NONE', #1015, 1000.000000000000000 ) ;
#595 = AXIS2_PLACEMENT_3D ( 'NONE', #802, #107, #22 ) ;
#596 = CARTESIAN_POINT ( 'NONE',  ( 56.89999999999999858, -3.000000000000000000, 8.000000000000000000 ) ) ;
#597 = CYLINDRICAL_SURFACE ( 'NONE', #830, 1.599999999999999867 ) ;
#598 = ORIENTED_EDGE ( 'NONE', *, *, #531, .F. ) ;
#599 = CARTESIAN_POINT ( 'NONE',  ( 0.000000000000000000, 0.000000000000000000, 0.000000000000000000 ) ) ;
#600 = CARTESIAN_POINT ( 'NONE',  ( 6.000000000000000000, 3.000000000000000000, 5.000000000000000000 ) ) ;
#601 = CARTESIAN_POINT ( 'NONE',  ( 12.00000000000000000, 28.40000000000000213, 10.00000000000000000 ) ) ;
#602 = FACE_OUTER_BOUND ( 'NONE', #800, .T. ) ;
#603 = ADVANCED_FACE ( 'NONE', ( #420 ), #331, .F. ) ;
#604 = DIRECTION ( 'NONE',  ( 0.000000000000000000, 0.000000000000000000, -1.000000000000000000 ) ) ;
#605 = ORIENTED_EDGE ( 'NONE', *, *, #470, .T. ) ;
#606 = EDGE_CURVE ( 'NONE', #999, #746, #590, .T. ) ;
#607 = CARTESIAN_POINT ( 'NONE',  ( 0.000000000000000000, 0.000000000000000000, 10.00000000000000000 ) ) ;
#608 = LINE ( 'NONE', #6, #734 ) ;
#609 = DIRECTION ( 'NONE',  ( 1.000000000000000000, 0.000000000000000000, 0.000000000000000000 ) ) ;
#610 = CARTESIAN_POINT ( 'NONE',  ( 62.19999999999999574, 0.000000000000000000, 0.000000000000000000 ) ) ;
#611 =( REPRESENTATION_RELATIONSHIP ('NONE','NONE', #882, #759 ) REPRESENTATION_RELATIONSHIP_WITH_TRANSFORMATION ( #396 )SHAPE_REPRESENTATION_RELATIONSHIP( ) );
#612 = PRODUCT_DEFINITION_CONTEXT ( 'detailed design', #552, 'design' ) ;
#613 = ORIENTED_EDGE ( 'NONE', *, *, #1034, .F. ) ;
#614 = PLANE ( 'NONE',  #890 ) ;
#615 = DIRECTION ( 'NONE',  ( 0.000000000000000000, 0.000000000000000000, -1.000000000000000000 ) ) ;
#616 = AXIS2_PLACEMENT_3D ( 'NONE', #37, #768, #609 ) ;
#617 =( GEOMETRIC_REPRESENTATION_CONTEXT ( 3 ) GLOBAL_UNCERTAINTY_ASSIGNED_CONTEXT ( ( #700 ) ) GLOBAL_UNIT_ASSIGNED_CONTEXT ( ( #974, #1054, #887 ) ) REPRESENTATION_CONTEXT ( 'NONE', 'WORKASPACE' ) );
#618 = DIRECTION ( 'NONE',  ( 0.000000000000000000, 0.000000000000000000, -1.000000000000000000 ) ) ;
#619 = VERTEX_POINT ( 'NONE', #150 ) ;
#620 = ORIENTED_EDGE ( 'NONE', *, *, #268, .T. ) ;
#621 = DIRECTION ( 'NONE',  ( 2.710505431213760099E-16, -1.000000000000000000, 0.000000000000000000 ) ) ;
#622 = DIRECTION ( 'NONE',  ( -8.783410004945860154E-16, 1.000000000000000000, 0.000000000000000000 ) ) ;
#623 = VERTEX_POINT ( 'NONE', #770 ) ;
#624 = DIRECTION ( 'NONE',  ( 0.000000000000000000, 0.000000000000000000, 1.000000000000000000 ) ) ;
#625 = APPLICATION_CONTEXT ( 'automotive_design' ) ;
#626 = CARTESIAN_POINT ( 'NONE',  ( 65.19999999999998863, 3.000000000000000000, 10.00000000000000000 ) ) ;
#627 = CARTESIAN_POINT ( 'NONE',  ( 3.000000000000000000, -3.000000000000000000, 25.00000000000000000 ) ) ;
#628 = VERTEX_POINT ( 'NONE', #503 ) ;
#629 = DIRECTION ( 'NONE',  ( -1.224646799147351975E-16, 1.000000000000000000, 0.000000000000000000 ) ) ;
#630 = VECTOR ( 'NONE', #777, 1000.000000000000000 ) ;
#631 = DIRECTION ( 'NONE',  ( 1.000000000000000000, 0.000000000000000000, 0.000000000000000000 ) ) ;
#632 = EDGE_CURVE ( 'NONE', #96, #623, #754, .T. ) ;
#633 = AXIS2_PLACEMENT_3D ( 'NONE', #1075, #757, #744 ) ;
#634 = ORIENTED_EDGE ( 'NONE', *, *, #1082, .F. ) ;
#635 = VECTOR ( 'NONE', #583, 1000.000000000000000 ) ;
#636 = CARTESIAN_POINT ( 'NONE',  ( 3.000000000000000000, -3.000000000000000000, 25.00000000000000000 ) ) ;
#637 = ORIENTED_EDGE ( 'NONE', *, *, #173, .F. ) ;
#638 = EDGE_CURVE ( 'NONE', #932, #951, #764, .T. ) ;
#639 = EDGE_LOOP ( 'NONE', ( #1083, #726, #471, #1012 ) ) ;
#640 = ADVANCED_FACE ( 'NONE', ( #690 ), #597, .F. ) ;
#641 = LINE ( 'NONE', #279, #870 ) ;
#642 = CARTESIAN_POINT ( 'NONE',  ( 12.00000000000000000, 28.40000000000000213, 10.00000000000000000 ) ) ;
#643 = ORIENTED_EDGE ( 'NONE', *, *, #40, .T. ) ;
#644 = APPLICATION_PROTOCOL_DEFINITION ( 'draft international standard', 'automotive_design', 1998, #879 ) ;
#645 = EDGE_CURVE ( 'NONE', #791, #188, #808, .T. ) ;
#646 = PRESENTATION_STYLE_ASSIGNMENT (( #398 ) ) ;
#647 = ORIENTED_EDGE ( 'NONE', *, *, #310, .F. ) ;
#648 = VECTOR ( 'NONE', #63, 1000.000000000000000 ) ;
#649 = AXIS2_PLACEMENT_3D ( 'NONE', #269, #1084, #228 ) ;
#650 = PRODUCT_CONTEXT ( 'NONE', #115, 'mechanical' ) ;
#651 = CIRCLE ( 'NONE', #451, 1.599999999999999867 ) ;
#652 = EDGE_CURVE ( 'NONE', #951, #283, #949, .T. ) ;
#653 = VERTEX_POINT ( 'NONE', #194 ) ;
#654 = PRODUCT_CONTEXT ( 'NONE', #469, 'mechanical' ) ;
#655 = LINE ( 'NONE', #56, #313 ) ;
#656 = FILL_AREA_STYLE ('',( #131 ) ) ;
#657 = PRODUCT_RELATED_PRODUCT_CATEGORY ( 'part', '', ( #248 ) ) ;
#658 = VERTEX_POINT ( 'NONE', #545 ) ;
#659 = SHAPE_DEFINITION_REPRESENTATION ( #850, #882 ) ;
#660 = LINE ( 'NONE', #507, #776 ) ;
#661 = LINE ( 'NONE', #211, #666 ) ;
#662 = ORIENTED_EDGE ( 'NONE', *, *, #479, .F. ) ;
#663 = EDGE_CURVE ( 'NONE', #964, #466, #1035, .T. ) ;
#664 = CARTESIAN_POINT ( 'NONE',  ( 65.19999999999998863, 28.40000000000000213, 10.00000000000000000 ) ) ;
#665 = ORIENTED_EDGE ( 'NONE', *, *, #89, .T. ) ;
#666 = VECTOR ( 'NONE', #560, 1000.000000000000000 ) ;
#667 = CARTESIAN_POINT ( 'NONE',  ( 5.299999999999999822, 0.000000000000000000, 8.000000000000000000 ) ) ;
#668 = ADVANCED_FACE ( 'NONE', ( #111 ), #162, .F. ) ;
#669 = FACE_BOUND ( 'NONE', #486, .T. ) ;
#670 = EDGE_LOOP ( 'NONE', ( #439, #460, #647, #542 ) ) ;
#671 = ADVANCED_FACE ( 'NONE', ( #978 ), #453, .F. ) ;
#672 = LINE ( 'NONE', #909, #465 ) ;
#673 = LINE ( 'NONE', #756, #1111 ) ;
#674 = DIRECTION ( 'NONE',  ( 0.000000000000000000, -1.000000000000000000, 0.000000000000000000 ) ) ;
#675 = FACE_OUTER_BOUND ( 'NONE', #989, .T. ) ;
#676 = ORIENTED_EDGE ( 'NONE', *, *, #652, .T. ) ;
#677 = DIRECTION ( 'NONE',  ( 0.000000000000000000, 0.000000000000000000, 1.000000000000000000 ) ) ;
#678 = CARTESIAN_POINT ( 'NONE',  ( 12.00000000000000000, 3.000000000000000000, 0.000000000000000000 ) ) ;
#679 = LINE ( 'NONE', #155, #848 ) ;
#680 = LINE ( 'NONE', #840, #832 ) ;
#681 = CARTESIAN_POINT ( 'NONE',  ( 1.934941942652819995E-15, -15.80000000000000071, 25.00000000000000000 ) ) ;
#682 = ORIENTED_EDGE ( 'NONE', *, *, #1027, .F. ) ;
#683 = VECTOR ( 'NONE', #186, 1000.000000000000000 ) ;
#684 = DIRECTION ( 'NONE',  ( 1.000000000000000000, 0.000000000000000000, 0.000000000000000000 ) ) ;
#685 = PRESENTATION_LAYER_ASSIGNMENT (  '', '', ( #481 ) ) ;
#686 = VECTOR ( 'NONE', #880, 1000.000000000000000 ) ;
#687 = DIRECTION ( 'NONE',  ( 2.731847993664264698E-16, -1.000000000000000000, 0.000000000000000000 ) ) ;
#688 = AXIS2_PLACEMENT_3D ( 'NONE', #14, #709, #871 ) ;
#689 = LINE ( 'NONE', #1018, #45 ) ;
#690 = FACE_OUTER_BOUND ( 'NONE', #639, .T. ) ;
#691 = ORIENTED_EDGE ( 'NONE', *, *, #853, .T. ) ;
#692 = LINE ( 'NONE', #517, #1007 ) ;
#693 = CARTESIAN_POINT ( 'NONE',  ( 3.000000000000000000, -3.000000000000000000, 8.000000000000000000 ) ) ;
#694 = LINE ( 'NONE', #897, #1078 ) ;
#695 = LINE ( 'NONE', #361, #264 ) ;
#696 = ORIENTED_EDGE ( 'NONE', *, *, #935, .F. ) ;
#697 = LINE ( 'NONE', #1038, #246 ) ;
#698 = CARTESIAN_POINT ( 'NONE',  ( 59.20000000000000284, -3.000000000000000000, 0.000000000000000000 ) ) ;
#699 = CARTESIAN_POINT ( 'NONE',  ( 3.000000000000000000, -3.000000000000000000, 25.00000000000000000 ) ) ;
#700 = UNCERTAINTY_MEASURE_WITH_UNIT (LENGTH_MEASURE( 1.000000000000000082E-05 ), #974, 'distance_accuracy_value', 'NONE');
#701 = VERTEX_POINT ( 'NONE', #536 ) ;
#702 = EDGE_CURVE ( 'NONE', #653, #327, #551, .T. ) ;
#703 = CARTESIAN_POINT ( 'NONE',  ( 1.934941942652819995E-15, -15.80000000000000071, 25.00000000000000000 ) ) ;
#704 = CARTESIAN_POINT ( 'NONE',  ( 56.89999999999999858, 0.000000000000000000, 8.000000000000000000 ) ) ;
#705 = PRODUCT_DEFINITION_FORMATION_WITH_SPECIFIED_SOURCE ( 'ANY', '', #248, .NOT_KNOWN. ) ;
#706 = CARTESIAN_POINT ( 'NONE',  ( 5.299999999999999822, 0.000000000000000000, 25.00000000000000000 ) ) ;
#707 = ORIENTED_EDGE ( 'NONE', *, *, #200, .F. ) ;
#708 = DIRECTION ( 'NONE',  ( 0.000000000000000000, -1.000000000000000000, 0.000000000000000000 ) ) ;
#709 = DIRECTION ( 'NONE',  ( -1.000000000000000000, 0.000000000000000000, 0.000000000000000000 ) ) ;
#710 = VERTEX_POINT ( 'NONE', #21 ) ;
#711 = ORIENTED_EDGE ( 'NONE', *, *, #1050, .F. ) ;
#712 = EDGE_CURVE ( 'NONE', #964, #973, #905, .T. ) ;
#713 = DIRECTION ( 'NONE',  ( 1.224646799147351975E-16, -1.000000000000000000, 0.000000000000000000 ) ) ;
#714 = DIRECTION ( 'NONE',  ( 1.000000000000000000, 0.000000000000000000, 0.000000000000000000 ) ) ;
#715 = VERTEX_POINT ( 'NONE', #626 ) ;
#716 = SHAPE_REPRESENTATION ( 'battery 1_1.STEP', ( #387 ), #617 ) ;
#717 = EDGE_CURVE ( 'NONE', #628, #414, #695, .T. ) ;
#718 = DIRECTION ( 'NONE',  ( 2.731847993664264698E-16, -1.000000000000000000, 0.000000000000000000 ) ) ;
#719 = AXIS2_PLACEMENT_3D ( 'NONE', #445, #257, #12 ) ;
#720 = EDGE_CURVE ( 'NONE', #333, #742, #116, .T. ) ;
#721 = VERTEX_POINT ( 'NONE', #372 ) ;
#722 = CARTESIAN_POINT ( 'NONE',  ( 0.000000000000000000, 3.000000000000000000, 10.00000000000000000 ) ) ;
#723 = DIRECTION ( 'NONE',  ( 0.000000000000000000, -1.000000000000000000, 0.000000000000000000 ) ) ;
#724 = ORIENTED_EDGE ( 'NONE', *, *, #868, .F. ) ;
#725 = LINE ( 'NONE', #294, #630 ) ;
#726 = ORIENTED_EDGE ( 'NONE', *, *, #308, .F. ) ;
#727 = DIRECTION ( 'NONE',  ( -1.000000000000000000, 0.000000000000000000, 0.000000000000000000 ) ) ;
#728 = ORIENTED_EDGE ( 'NONE', *, *, #730, .F. ) ;
#729 = EDGE_LOOP ( 'NONE', ( #829, #102, #44, #121, #1016, #478, #620, #691 ) ) ;
#730 = EDGE_CURVE ( 'NONE', #619, #265, #468, .T. ) ;
#731 = CONTEXT_DEPENDENT_SHAPE_REPRESENTATION ( #611, #236 ) ;
#732 = PLANE ( 'NONE',  #958 ) ;
#733 = PRESENTATION_STYLE_ASSIGNMENT (( #138 ) ) ;
#734 = VECTOR ( 'NONE', #165, 1000.000000000000000 ) ;
#735 = ORIENTED_EDGE ( 'NONE', *, *, #9, .T. ) ;
#736 = ORIENTED_EDGE ( 'NONE', *, *, #969, .T. ) ;
#737 = AXIS2_PLACEMENT_3D ( 'NONE', #1073, #124, #991 ) ;
#738 = VECTOR ( 'NONE', #971, 1000.000000000000000 ) ;
#739 = DIRECTION ( 'NONE',  ( -1.000000000000000000, 0.000000000000000000, 0.000000000000000000 ) ) ;
#740 =( LENGTH_UNIT ( ) NAMED_UNIT ( * ) SI_UNIT ( .MILLI., .METRE. ) );
#741 = ORIENTED_EDGE ( 'NONE', *, *, #280, .F. ) ;
#742 = VERTEX_POINT ( 'NONE', #819 ) ;
#743 = APPLICATION_PROTOCOL_DEFINITION ( 'draft international standard', 'automotive_design', 1998, #115 ) ;
#744 = DIRECTION ( 'NONE',  ( 0.000000000000000000, 0.000000000000000000, -1.000000000000000000 ) ) ;
#745 = ADVANCED_FACE ( 'NONE', ( #801 ), #970, .F. ) ;
#746 = VERTEX_POINT ( 'NONE', #642 ) ;
#747 = CARTESIAN_POINT ( 'NONE',  ( 71.20000000000000284, 10.00000000000000000, 5.000000000000000000 ) ) ;
#748 =( NAMED_UNIT ( * ) PLANE_ANGLE_UNIT ( ) SI_UNIT ( $, .RADIAN. ) );
#749 = ADVANCED_FACE ( 'NONE', ( #901 ), #100, .F. ) ;
#750 = LINE ( 'NONE', #66, #893 ) ;
#751 = ADVANCED_FACE ( 'NONE', ( #293 ), #33, .F. ) ;
#752 = CARTESIAN_POINT ( 'NONE',  ( 59.20000000000000284, -3.000000000000000000, 25.00000000000000000 ) ) ;
#753 = ORIENTED_EDGE ( 'NONE', *, *, #935, .T. ) ;
#754 = CIRCLE ( 'NONE', #447, 1.600000000000004086 ) ;
#755 = DIRECTION ( 'NONE',  ( 0.000000000000000000, -1.000000000000000000, 0.000000000000000000 ) ) ;
#756 = CARTESIAN_POINT ( 'NONE',  ( 12.00000000000000000, 28.40000000000000213, 10.00000000000000000 ) ) ;
#757 = DIRECTION ( 'NONE',  ( 0.000000000000000000, -1.000000000000000000, 0.000000000000000000 ) ) ;
#758 = CARTESIAN_POINT ( 'NONE',  ( 5.299999999999999822, 0.000000000000000000, 8.000000000000000000 ) ) ;
#759 = SHAPE_REPRESENTATION ( 'bread_1.STEP', ( #387 ), #25 ) ;
#760 = CARTESIAN_POINT ( 'NONE',  ( 65.19999999999998863, 28.40000000000000213, 10.00000000000000000 ) ) ;
#761 = ORIENTED_EDGE ( 'NONE', *, *, #923, .F. ) ;
#762 = DIRECTION ( 'NONE',  ( -0.000000000000000000, 1.000000000000000000, 0.000000000000000000 ) ) ;
#763 = UNCERTAINTY_MEASURE_WITH_UNIT (LENGTH_MEASURE( 1.000000000000000082E-05 ), #903, 'distance_accuracy_value', 'NONE');
#764 = LINE ( 'NONE', #1020, #80 ) ;
#765 = ORIENTED_EDGE ( 'NONE', *, *, #40, .F. ) ;
#766 = DIRECTION ( 'NONE',  ( 1.327594496921023745E-16, -1.000000000000000000, 0.000000000000000000 ) ) ;
#767 = DIRECTION ( 'NONE',  ( -1.000000000000000000, 0.000000000000000000, 1.445602896647339903E-16 ) ) ;
#768 = DIRECTION ( 'NONE',  ( -0.000000000000000000, 1.000000000000000000, 0.000000000000000000 ) ) ;
#769 = CARTESIAN_POINT ( 'NONE',  ( 3.000000000000000000, -12.80000000000000071, 25.00000000000000000 ) ) ;
#770 = CARTESIAN_POINT ( 'NONE',  ( 71.20000000000000284, 3.000000000000000000, 3.399999999999999911 ) ) ;
#771 = VERTEX_POINT ( 'NONE', #185 ) ;
#772 = CIRCLE ( 'NONE', #332, 1.599999999999999867 ) ;
#773 = LINE ( 'NONE', #87, #428 ) ;
#774 = DIRECTION ( 'NONE',  ( 1.000000000000000000, 0.000000000000000000, 0.000000000000000000 ) ) ;
#775 = AXIS2_PLACEMENT_3D ( 'NONE', #338, #1055, #824 ) ;
#776 = VECTOR ( 'NONE', #857, 1000.000000000000000 ) ;
#777 = DIRECTION ( 'NONE',  ( 0.000000000000000000, 1.000000000000000000, 0.000000000000000000 ) ) ;
#778 = FACE_OUTER_BOUND ( 'NONE', #591, .T. ) ;
#779 = ORIENTED_EDGE ( 'NONE', *, *, #378, .T. ) ;
#780 = FACE_BOUND ( 'NONE', #1065, .T. ) ;
#781 = CARTESIAN_POINT ( 'NONE',  ( 62.19999999999999574, -15.80000000000000071, 25.00000000000000000 ) ) ;
#782 = ADVANCED_FACE ( 'NONE', ( #778 ), #405, .F. ) ;
#783 = LINE ( 'NONE', #699, #738 ) ;
#784 = ORIENTED_EDGE ( 'NONE', *, *, #26, .T. ) ;
#785 = EDGE_LOOP ( 'NONE', ( #1095, #815, #902, #540 ) ) ;
#786 = CARTESIAN_POINT ( 'NONE',  ( 15.00000000000000000, 0.000000000000000000, 10.00000000000000000 ) ) ;
#787 = CARTESIAN_POINT ( 'NONE',  ( 56.89999999999999858, 0.000000000000000000, 25.00000000000000000 ) ) ;
#788 = DIRECTION ( 'NONE',  ( 1.445602896647339903E-16, -1.000000000000000000, 0.000000000000000000 ) ) ;
#789 = PRODUCT_DEFINITION_CONTEXT ( 'detailed design', #505, 'design' ) ;
#790 = EDGE_LOOP ( 'NONE', ( #753, #112, #54, #554 ) ) ;
#791 = VERTEX_POINT ( 'NONE', #392 ) ;
#792 = EDGE_CURVE ( 'NONE', #96, #227, #577, .T. ) ;
#793 =( NAMED_UNIT ( * ) SI_UNIT ( $, .STERADIAN. ) SOLID_ANGLE_UNIT ( ) );
#794 = DIRECTION ( 'NONE',  ( -1.000000000000000000, 0.000000000000000000, 0.000000000000000000 ) ) ;
#795 = AXIS2_PLACEMENT_3D ( 'NONE', #664, #846, #73 ) ;
#796 = AXIS2_PLACEMENT_3D ( 'NONE', #550, #462, #812 ) ;
#797 = CARTESIAN_POINT ( 'NONE',  ( 71.20000000000000284, 10.00000000000000000, 3.399999999999999911 ) ) ;
#798 = VECTOR ( 'NONE', #967, 1000.000000000000000 ) ;
#799 = ORIENTED_EDGE ( 'NONE', *, *, #360, .F. ) ;
#800 = EDGE_LOOP ( 'NONE', ( #152, #634, #885, #113 ) ) ;
#801 = FACE_OUTER_BOUND ( 'NONE', #18, .T. ) ;
#802 = CARTESIAN_POINT ( 'NONE',  ( 59.20000000000000284, -3.000000000000000000, 0.000000000000000000 ) ) ;
#803 = MANIFOLD_SOLID_BREP ( 'NONE', #483 ) ;
#804 = ORIENTED_EDGE ( 'NONE', *, *, #407, .T. ) ;
#805 =( NAMED_UNIT ( * ) SI_UNIT ( $, .STERADIAN. ) SOLID_ANGLE_UNIT ( ) );
#806 = EDGE_CURVE ( 'NONE', #504, #38, #125, .T. ) ;
#807 = ADVANCED_FACE ( 'NONE', ( #476 ), #300, .F. ) ;
#808 = LINE ( 'NONE', #1071, #1004 ) ;
#809 = CARTESIAN_POINT ( 'NONE',  ( 65.19999999999998863, 28.40000000000000213, 0.000000000000000000 ) ) ;
#810 = MANIFOLD_SOLID_BREP ( 'NONE', #977 ) ;
#811 = EDGE_LOOP ( 'NONE', ( #455, #562 ) ) ;
#812 = DIRECTION ( 'NONE',  ( 1.000000000000000000, 0.000000000000000000, 0.000000000000000000 ) ) ;
#813 = CARTESIAN_POINT ( 'NONE',  ( 0.000000000000000000, 0.000000000000000000, 0.000000000000000000 ) ) ;
#814 = CIRCLE ( 'NONE', #350, 1.599999999999999867 ) ;
#815 = ORIENTED_EDGE ( 'NONE', *, *, #519, .F. ) ;
#816 = EDGE_LOOP ( 'NONE', ( #177, #497, #637, #203 ) ) ;
#817 = ORIENTED_EDGE ( 'NONE', *, *, #565, .T. ) ;
#818 = SHAPE_REPRESENTATION_RELATIONSHIP ( 'NONE' , 'NONE' ,  #716, #201 ) ;
#819 = CARTESIAN_POINT ( 'NONE',  ( 1.934941942652819995E-15, -15.80000000000000071, 0.000000000000000000 ) ) ;
#820 = EDGE_CURVE ( 'NONE', #710, #721, #485, .T. ) ;
#821 = ORIENTED_EDGE ( 'NONE', *, *, #225, .F. ) ;
#822 = ORIENTED_EDGE ( 'NONE', *, *, #295, .F. ) ;
#823 = PRODUCT_DEFINITION_SHAPE ( 'NONE', 'NONE',  #117 ) ;
#824 = DIRECTION ( 'NONE',  ( -5.463695987328529395E-16, 1.000000000000000000, 0.000000000000000000 ) ) ;
#825 = ORIENTED_EDGE ( 'NONE', *, *, #1113, .F. ) ;
#826 = SHAPE_DEFINITION_REPRESENTATION ( #823, #716 ) ;
#827 = CARTESIAN_POINT ( 'NONE',  ( 6.000000000000000000, 10.00000000000000000, 3.399999999999999911 ) ) ;
#828 = VECTOR ( 'NONE', #509, 1000.000000000000000 ) ;
#829 = ORIENTED_EDGE ( 'NONE', *, *, #449, .T. ) ;
#830 = AXIS2_PLACEMENT_3D ( 'NONE', #944, #289, #604 ) ;
#831 = VECTOR ( 'NONE', #433, 1000.000000000000000 ) ;
#832 = VECTOR ( 'NONE', #161, 1000.000000000000000 ) ;
#833 = EDGE_CURVE ( 'NONE', #283, #296, #661, .T. ) ;
#834 =( NAMED_UNIT ( * ) SI_UNIT ( $, .STERADIAN. ) SOLID_ANGLE_UNIT ( ) );
#835 = EDGE_LOOP ( 'NONE', ( #613, #662, #1057, #357, #528, #375, #825, #15, #598, #561, #4, #912 ) ) ;
#836 = DIRECTION ( 'NONE',  ( 1.000000000000000000, 2.731847993664264698E-16, 0.000000000000000000 ) ) ;
#837 = EDGE_CURVE ( 'NONE', #352, #628, #1003, .T. ) ;
#838 = DIRECTION ( 'NONE',  ( 1.000000000000000000, 0.000000000000000000, 0.000000000000000000 ) ) ;
#839 = ADVANCED_FACE ( 'NONE', ( #1089 ), #314, .F. ) ;
#840 = CARTESIAN_POINT ( 'NONE',  ( 77.20000000000000284, 0.000000000000000000, 10.00000000000000000 ) ) ;
#841 = LINE ( 'NONE', #317, #354 ) ;
#842 = ORIENTED_EDGE ( 'NONE', *, *, #720, .F. ) ;
#843 = ITEM_DEFINED_TRANSFORMATION ( 'NONE', 'NONE', #482,  #1023 ) ;
#844 = CARTESIAN_POINT ( 'NONE',  ( 59.20000000000000284, -3.000000000000000000, 0.000000000000000000 ) ) ;
#845 = CARTESIAN_POINT ( 'NONE',  ( 71.20000000000000284, 3.000000000000000000, 6.599999999999999645 ) ) ;
#846 = DIRECTION ( 'NONE',  ( 1.304303365396095934E-16, -1.000000000000000000, 0.000000000000000000 ) ) ;
#847 = ORIENTED_EDGE ( 'NONE', *, *, #581, .F. ) ;
#848 = VECTOR ( 'NONE', #244, 1000.000000000000000 ) ;
#849 = FACE_OUTER_BOUND ( 'NONE', #816, .T. ) ;
#850 = PRODUCT_DEFINITION_SHAPE ( 'NONE', 'NONE',  #69 ) ;
#851 = VECTOR ( 'NONE', #714, 1000.000000000000000 ) ;
#852 = CARTESIAN_POINT ( 'NONE',  ( 5.299999999999999822, -3.000000000000000000, -3.324886662288880100E-16 ) ) ;
#853 = EDGE_CURVE ( 'NONE', #658, #64, #679, .T. ) ;
#854 = DIRECTION ( 'NONE',  ( 0.000000000000000000, 0.000000000000000000, -1.000000000000000000 ) ) ;
#855 = EDGE_LOOP ( 'NONE', ( #1041, #1047, #981, #515 ) ) ;
#856 = LINE ( 'NONE', #1048, #686 ) ;
#857 = DIRECTION ( 'NONE',  ( 2.731847993664264698E-16, -1.000000000000000000, 0.000000000000000000 ) ) ;
#858 = DIRECTION ( 'NONE',  ( 1.000000000000000000, 0.000000000000000000, 0.000000000000000000 ) ) ;
#859 = CARTESIAN_POINT ( 'NONE',  ( 5.299999999999999822, -3.000000000000000000, 8.000000000000000000 ) ) ;
#860 = ORIENTED_EDGE ( 'NONE', *, *, #29, .T. ) ;
#861 = LINE ( 'NONE', #75, #831 ) ;
#862 = CARTESIAN_POINT ( 'NONE',  ( 12.00000000000000000, 3.000000000000000000, 0.000000000000000000 ) ) ;
#863 = DIRECTION ( 'NONE',  ( 1.000000000000000000, 2.731847993664264698E-16, 0.000000000000000000 ) ) ;
#864 = ORIENTED_EDGE ( 'NONE', *, *, #853, .F. ) ;
#865 = AXIS2_PLACEMENT_3D ( 'NONE', #355, #708, #947 ) ;
#866 = FACE_OUTER_BOUND ( 'NONE', #1100, .T. ) ;
#867 = CARTESIAN_POINT ( 'NONE',  ( 62.19999999999999574, -15.80000000000000071, 0.000000000000000000 ) ) ;
#868 = EDGE_CURVE ( 'NONE', #366, #558, #145, .T. ) ;
#869 = VECTOR ( 'NONE', #996, 1000.000000000000000 ) ;
#870 = VECTOR ( 'NONE', #184, 1000.000000000000000 ) ;
#871 = DIRECTION ( 'NONE',  ( 0.000000000000000000, 0.000000000000000000, 1.000000000000000000 ) ) ;
#872 = ORIENTED_EDGE ( 'NONE', *, *, #900, .F. ) ;
#873 = DIRECTION ( 'NONE',  ( 1.000000000000000000, 0.000000000000000000, 0.000000000000000000 ) ) ;
#874 = LINE ( 'NONE', #160, #1060 ) ;
#875 = EDGE_CURVE ( 'NONE', #746, #653, #508, .T. ) ;
#876 = EDGE_CURVE ( 'NONE', #504, #409, #814, .T. ) ;
#877 = CARTESIAN_POINT ( 'NONE',  ( 56.89999999999999858, 0.000000000000000000, 25.00000000000000000 ) ) ;
#878 = EDGE_LOOP ( 'NONE', ( #301, #305, #382, #1030 ) ) ;
#879 = APPLICATION_CONTEXT ( 'automotive_design' ) ;
#880 = DIRECTION ( 'NONE',  ( 0.000000000000000000, -1.000000000000000000, 0.000000000000000000 ) ) ;
#881 = PLANE ( 'NONE',  #719 ) ;
#882 = SHAPE_REPRESENTATION ( 'Team-A4-Battery+Breadboard.STEP', ( #1023, #976, #796 ), #170 ) ;
#883 = DIRECTION ( 'NONE',  ( -8.783410004945860154E-16, 1.000000000000000000, 0.000000000000000000 ) ) ;
#884 = PRODUCT_DEFINITION ( 'UNKNOWN', '', #287, #1104 ) ;
#885 = ORIENTED_EDGE ( 'NONE', *, *, #516, .F. ) ;
#886 = ORIENTED_EDGE ( 'NONE', *, *, #20, .F. ) ;
#887 =( NAMED_UNIT ( * ) SI_UNIT ( $, .STERADIAN. ) SOLID_ANGLE_UNIT ( ) );
#888 = AXIS2_PLACEMENT_3D ( 'NONE', #139, #412, #419 ) ;
#889 = VECTOR ( 'NONE', #998, 1000.000000000000000 ) ;
#890 = AXIS2_PLACEMENT_3D ( 'NONE', #525, #677, #873 ) ;
#891 = DIRECTION ( 'NONE',  ( 0.000000000000000000, 0.000000000000000000, -1.000000000000000000 ) ) ;
#892 = DIRECTION ( 'NONE',  ( -1.000000000000000000, -8.783410004945860154E-16, 0.000000000000000000 ) ) ;
#893 = VECTOR ( 'NONE', #858, 1000.000000000000000 ) ;
#894 = ORIENTED_EDGE ( 'NONE', *, *, #895, .F. ) ;
#895 = EDGE_CURVE ( 'NONE', #771, #710, #1081, .T. ) ;
#896 = CARTESIAN_POINT ( 'NONE',  ( 62.19999999999999574, 25.39999999999999858, 10.00000000000000000 ) ) ;
#897 = CARTESIAN_POINT ( 'NONE',  ( 62.19999999999999574, 0.000000000000000000, 10.00000000000000000 ) ) ;
#898 = ORIENTED_EDGE ( 'NONE', *, *, #52, .T. ) ;
#899 = ORIENTED_EDGE ( 'NONE', *, *, #1000, .T. ) ;
#900 = EDGE_CURVE ( 'NONE', #188, #333, #655, .T. ) ;
#901 = FACE_OUTER_BOUND ( 'NONE', #158, .T. ) ;
#902 = ORIENTED_EDGE ( 'NONE', *, *, #393, .F. ) ;
#903 =( LENGTH_UNIT ( ) NAMED_UNIT ( * ) SI_UNIT ( .MILLI., .METRE. ) );
#904 = ADVANCED_FACE ( 'NONE', ( #568 ), #732, .F. ) ;
#905 = LINE ( 'NONE', #364, #993 ) ;
#906 =( GEOMETRIC_REPRESENTATION_CONTEXT ( 3 ) GLOBAL_UNCERTAINTY_ASSIGNED_CONTEXT ( ( #1046 ) ) GLOBAL_UNIT_ASSIGNED_CONTEXT ( ( #58, #215, #51 ) ) REPRESENTATION_CONTEXT ( 'NONE', 'WORKASPACE' ) );
#907 = VECTOR ( 'NONE', #153, 1000.000000000000000 ) ;
#908 = VERTEX_POINT ( 'NONE', #1001 ) ;
#909 = CARTESIAN_POINT ( 'NONE',  ( 15.00000000000000000, 25.39999999999999858, 10.00000000000000000 ) ) ;
#910 = ORIENTED_EDGE ( 'NONE', *, *, #806, .F. ) ;
#911 = ORIENTED_EDGE ( 'NONE', *, *, #225, .T. ) ;
#912 = ORIENTED_EDGE ( 'NONE', *, *, #142, .F. ) ;
#913 = CARTESIAN_POINT ( 'NONE',  ( 5.299999999999999822, -5.000000000000000000, 8.000000000000000000 ) ) ;
#914 = SURFACE_SIDE_STYLE ('',( #570 ) ) ;
#915 = VECTOR ( 'NONE', #1002, 1000.000000000000000 ) ;
#916 = ORIENTED_EDGE ( 'NONE', *, *, #436, .T. ) ;
#917 =( GEOMETRIC_REPRESENTATION_CONTEXT ( 3 ) GLOBAL_UNCERTAINTY_ASSIGNED_CONTEXT ( ( #196 ) ) GLOBAL_UNIT_ASSIGNED_CONTEXT ( ( #740, #748, #834 ) ) REPRESENTATION_CONTEXT ( 'NONE', 'WORKASPACE' ) );
#918 = EDGE_CURVE ( 'NONE', #118, #296, #672, .T. ) ;
#919 = AXIS2_PLACEMENT_3D ( 'NONE', #512, #506, #164 ) ;
#920 = CARTESIAN_POINT ( 'NONE',  ( 5.299999999999999822, -5.000000000000000000, 8.000000000000000000 ) ) ;
#921 = CARTESIAN_POINT ( 'NONE',  ( 0.000000000000000000, 0.000000000000000000, 0.000000000000000000 ) ) ;
#922 = VECTOR ( 'NONE', #434, 1000.000000000000000 ) ;
#923 = EDGE_CURVE ( 'NONE', #92, #218, #36, .T. ) ;
#924 = DIRECTION ( 'NONE',  ( 0.000000000000000000, 1.000000000000000000, 0.000000000000000000 ) ) ;
#925 = CARTESIAN_POINT ( 'NONE',  ( 59.20000000000000284, -12.80000000000000071, 0.000000000000000000 ) ) ;
#926 = DIRECTION ( 'NONE',  ( 0.000000000000000000, 0.000000000000000000, -1.000000000000000000 ) ) ;
#927 = DIRECTION ( 'NONE',  ( 0.000000000000000000, 0.000000000000000000, 1.000000000000000000 ) ) ;
#928 = ORIENTED_EDGE ( 'NONE', *, *, #992, .T. ) ;
#929 = CARTESIAN_POINT ( 'NONE',  ( 15.00000000000000000, 0.000000000000000000, 0.000000000000000000 ) ) ;
#930 = LINE ( 'NONE', #1014, #941 ) ;
#931 = FACE_BOUND ( 'NONE', #811, .T. ) ;
#932 = VERTEX_POINT ( 'NONE', #607 ) ;
#933 = LINE ( 'NONE', #592, #266 ) ;
#934 = CARTESIAN_POINT ( 'NONE',  ( 77.20000000000000284, 3.000000000000000000, 0.000000000000000000 ) ) ;
#935 = EDGE_CURVE ( 'NONE', #64, #448, #251, .T. ) ;
#936 = CARTESIAN_POINT ( 'NONE',  ( 77.20000000000000284, 3.000000000000000000, 10.00000000000000000 ) ) ;
#937 = PLANE ( 'NONE',  #369 ) ;
#938 = EDGE_LOOP ( 'NONE', ( #95, #219, #553, #676 ) ) ;
#939 = VECTOR ( 'NONE', #231, 1000.000000000000000 ) ;
#940 = PLANE ( 'NONE',  #919 ) ;
#941 = VECTOR ( 'NONE', #238, 1000.000000000000000 ) ;
#942 = DIRECTION ( 'NONE',  ( 0.000000000000000000, 0.000000000000000000, 1.000000000000000000 ) ) ;
#943 = DIRECTION ( 'NONE',  ( 0.000000000000000000, 1.000000000000000000, 0.000000000000000000 ) ) ;
#944 = CARTESIAN_POINT ( 'NONE',  ( 71.20000000000000284, 10.00000000000000000, 5.000000000000000000 ) ) ;
#945 = ORIENTED_EDGE ( 'NONE', *, *, #638, .T. ) ;
#946 = CARTESIAN_POINT ( 'NONE',  ( 56.89999999999999858, -5.000000000000000000, 8.000000000000000000 ) ) ;
#947 = DIRECTION ( 'NONE',  ( 0.000000000000000000, 0.000000000000000000, -1.000000000000000000 ) ) ;
#948 = PLANE ( 'NONE',  #189 ) ;
#949 = LINE ( 'NONE', #28, #1042 ) ;
#950 = PRODUCT ( 'battery 1_1.STEP', 'battery 1_1.STEP', '', ( #654 ) ) ;
#951 = VERTEX_POINT ( 'NONE', #786 ) ;
#952 = ADVANCED_FACE ( 'NONE', ( #410 ), #1043, .F. ) ;
#953 = FACE_OUTER_BOUND ( 'NONE', #729, .T. ) ;
#954 = DIRECTION ( 'NONE',  ( 0.000000000000000000, -1.000000000000000000, 0.000000000000000000 ) ) ;
#955 = CARTESIAN_POINT ( 'NONE',  ( 65.19999999999998863, 3.000000000000000000, 0.000000000000000000 ) ) ;
#956 = VERTEX_POINT ( 'NONE', #599 ) ;
#957 = EDGE_CURVE ( 'NONE', #265, #147, #773, .T. ) ;
#958 = AXIS2_PLACEMENT_3D ( 'NONE', #913, #128, #755 ) ;
#959 = DIRECTION ( 'NONE',  ( -0.000000000000000000, 1.000000000000000000, 0.000000000000000000 ) ) ;
#960 = CARTESIAN_POINT ( 'NONE',  ( 62.19999999999999574, 25.39999999999999858, 0.000000000000000000 ) ) ;
#961 = EDGE_CURVE ( 'NONE', #951, #118, #692, .T. ) ;
#962 = CARTESIAN_POINT ( 'NONE',  ( 3.000000000000000000, -12.80000000000000071, 25.00000000000000000 ) ) ;
#963 = EDGE_LOOP ( 'NONE', ( #968, #916 ) ) ;
#964 = VERTEX_POINT ( 'NONE', #1031 ) ;
#965 = DIRECTION ( 'NONE',  ( 1.000000000000000000, 0.000000000000000000, 0.000000000000000000 ) ) ;
#966 = CARTESIAN_POINT ( 'NONE',  ( 56.89999999999999858, 0.000000000000000000, 8.000000000000000000 ) ) ;
#967 = DIRECTION ( 'NONE',  ( 0.000000000000000000, 1.000000000000000000, 0.000000000000000000 ) ) ;
#968 = ORIENTED_EDGE ( 'NONE', *, *, #876, .T. ) ;
#969 = EDGE_CURVE ( 'NONE', #742, #390, #933, .T. ) ;
#970 = PLANE ( 'NONE',  #1107 ) ;
#971 = DIRECTION ( 'NONE',  ( -1.000000000000000000, 0.000000000000000000, 0.000000000000000000 ) ) ;
#972 = EDGE_LOOP ( 'NONE', ( #1087, #46, #182, #122, #401, #213, #821, #302, #31, #511, #212, #728 ) ) ;
#973 = VERTEX_POINT ( 'NONE', #498 ) ;
#974 =( LENGTH_UNIT ( ) NAMED_UNIT ( * ) SI_UNIT ( .MILLI., .METRE. ) );
#975 = VECTOR ( 'NONE', #376, 1000.000000000000000 ) ;
#976 = AXIS2_PLACEMENT_3D ( 'NONE', #32, #982, #965 ) ;
#977 = CLOSED_SHELL ( 'NONE', ( #109, #344, #904, #807, #137, #1013, #668, #556, #1064, #198, #209, #952, #751 ) ) ;
#978 = FACE_OUTER_BOUND ( 'NONE', #835, .T. ) ;
#979 = LINE ( 'NONE', #258, #383 ) ;
#980 = CIRCLE ( 'NONE', #430, 1.600000000000004086 ) ;
#981 = ORIENTED_EDGE ( 'NONE', *, *, #26, .F. ) ;
#982 = DIRECTION ( 'NONE',  ( 0.000000000000000000, 0.000000000000000000, 1.000000000000000000 ) ) ;
#983 = CARTESIAN_POINT ( 'NONE',  ( 12.00000000000000000, 3.000000000000000000, 10.00000000000000000 ) ) ;
#984 = ORIENTED_EDGE ( 'NONE', *, *, #638, .F. ) ;
#985 = ORIENTED_EDGE ( 'NONE', *, *, #837, .F. ) ;
#986 = ADVANCED_FACE ( 'NONE', ( #866 ), #940, .T. ) ;
#987 =( NAMED_UNIT ( * ) PLANE_ANGLE_UNIT ( ) SI_UNIT ( $, .RADIAN. ) );
#988 = DIRECTION ( 'NONE',  ( 0.000000000000000000, 0.000000000000000000, -1.000000000000000000 ) ) ;
#989 = EDGE_LOOP ( 'NONE', ( #1079, #822, #534, #928 ) ) ;
#990 = ORIENTED_EDGE ( 'NONE', *, *, #220, .T. ) ;
#991 = DIRECTION ( 'NONE',  ( 1.000000000000000000, 0.000000000000000000, 0.000000000000000000 ) ) ;
#992 = EDGE_CURVE ( 'NONE', #108, #701, #1101, .T. ) ;
#993 = VECTOR ( 'NONE', #718, 1000.000000000000000 ) ;
#994 = AXIS2_PLACEMENT_3D ( 'NONE', #600, #621, #88 ) ;
#995 = ORIENTED_EDGE ( 'NONE', *, *, #957, .T. ) ;
#996 = DIRECTION ( 'NONE',  ( 1.224646799147351975E-16, -1.000000000000000000, 0.000000000000000000 ) ) ;
#997 = ORIENTED_EDGE ( 'NONE', *, *, #702, .F. ) ;
#998 = DIRECTION ( 'NONE',  ( 0.000000000000000000, -1.000000000000000000, 0.000000000000000000 ) ) ;
#999 = VERTEX_POINT ( 'NONE', #328 ) ;
#1000 = EDGE_CURVE ( 'NONE', #108, #715, #861, .T. ) ;
#1001 = CARTESIAN_POINT ( 'NONE',  ( 65.19999999999998863, 3.000000000000000000, 0.000000000000000000 ) ) ;
#1002 = DIRECTION ( 'NONE',  ( 1.000000000000000000, 0.000000000000000000, 0.000000000000000000 ) ) ;
#1003 = LINE ( 'NONE', #472, #869 ) ;
#1004 = VECTOR ( 'NONE', #988, 1000.000000000000000 ) ;
#1005 = PLANE ( 'NONE',  #888 ) ;
#1006 = AXIS2_PLACEMENT_3D ( 'NONE', #747, #1088, #408 ) ;
#1007 = VECTOR ( 'NONE', #81, 1000.000000000000000 ) ;
#1008 = FACE_OUTER_BOUND ( 'NONE', #477, .T. ) ;
#1009 = ORIENTED_EDGE ( 'NONE', *, *, #516, .T. ) ;
#1010 = LINE ( 'NONE', #72, #828 ) ;
#1011 = FACE_OUTER_BOUND ( 'NONE', #224, .T. ) ;
#1012 = ORIENTED_EDGE ( 'NONE', *, *, #144, .T. ) ;
#1013 = ADVANCED_FACE ( 'NONE', ( #953 ), #347, .F. ) ;
#1014 = CARTESIAN_POINT ( 'NONE',  ( 5.299999999999999822, 0.000000000000000000, 25.00000000000000000 ) ) ;
#1015 = DIRECTION ( 'NONE',  ( -1.000000000000000000, -1.304303365396095934E-16, 0.000000000000000000 ) ) ;
#1016 = ORIENTED_EDGE ( 'NONE', *, *, #407, .F. ) ;
#1017 = LINE ( 'NONE', #171, #192 ) ;
#1018 = CARTESIAN_POINT ( 'NONE',  ( 65.19999999999998863, 3.000000000000000000, 10.00000000000000000 ) ) ;
#1019 = AXIS2_PLACEMENT_3D ( 'NONE', #252, #1039, #774 ) ;
#1020 = CARTESIAN_POINT ( 'NONE',  ( 0.000000000000000000, 0.000000000000000000, 10.00000000000000000 ) ) ;
#1021 = ORIENTED_EDGE ( 'NONE', *, *, #652, .F. ) ;
#1022 = VECTOR ( 'NONE', #891, 1000.000000000000000 ) ;
#1023 = AXIS2_PLACEMENT_3D ( 'NONE', #105, #456, #359 ) ;
#1024 = CARTESIAN_POINT ( 'NONE',  ( 0.000000000000000000, 0.000000000000000000, 25.00000000000000000 ) ) ;
#1025 = CIRCLE ( 'NONE', #389, 1.599999999999999867 ) ;
#1026 = LINE ( 'NONE', #76, #537 ) ;
#1027 = EDGE_CURVE ( 'NONE', #218, #352, #1017, .T. ) ;
#1028 = FACE_BOUND ( 'NONE', #963, .T. ) ;
#1029 = LINE ( 'NONE', #400, #501 ) ;
#1030 = ORIENTED_EDGE ( 'NONE', *, *, #581, .T. ) ;
#1031 = CARTESIAN_POINT ( 'NONE',  ( 62.19999999999999574, 25.39999999999999858, 10.00000000000000000 ) ) ;
#1032 = FACE_OUTER_BOUND ( 'NONE', #309, .T. ) ;
#1033 = PLANE ( 'NONE',  #595 ) ;
#1034 = EDGE_CURVE ( 'NONE', #141, #956, #416, .T. ) ;
#1035 = LINE ( 'NONE', #896, #1022 ) ;
#1036 = ORIENTED_EDGE ( 'NONE', *, *, #900, .T. ) ;
#1037 = ADVANCED_FACE ( 'NONE', ( #780, #849 ), #340, .F. ) ;
#1038 = CARTESIAN_POINT ( 'NONE',  ( 3.000000000000000000, -3.000000000000000000, 0.000000000000000000 ) ) ;
#1039 = DIRECTION ( 'NONE',  ( -0.000000000000000000, 1.000000000000000000, 0.000000000000000000 ) ) ;
#1040 = CARTESIAN_POINT ( 'NONE',  ( 6.000000000000000000, 0.000000000000000000, 5.000000000000000000 ) ) ;
#1041 = ORIENTED_EDGE ( 'NONE', *, *, #1113, .T. ) ;
#1042 = VECTOR ( 'NONE', #281, 1000.000000000000000 ) ;
#1043 = PLANE ( 'NONE',  #541 ) ;
#1044 = LINE ( 'NONE', #1049, #922 ) ;
#1045 = LINE ( 'NONE', #877, #798 ) ;
#1046 = UNCERTAINTY_MEASURE_WITH_UNIT (LENGTH_MEASURE( 1.000000000000000082E-05 ), #58, 'distance_accuracy_value', 'NONE');
#1047 = ORIENTED_EDGE ( 'NONE', *, *, #992, .F. ) ;
#1048 = CARTESIAN_POINT ( 'NONE',  ( 6.000000000000000000, 10.00000000000000000, 6.599999999999999645 ) ) ;
#1049 = CARTESIAN_POINT ( 'NONE',  ( 62.19999999999999574, 0.000000000000000000, 10.00000000000000000 ) ) ;
#1050 = EDGE_CURVE ( 'NONE', #547, #771, #697, .T. ) ;
#1051 = LINE ( 'NONE', #84, #130 ) ;
#1052 = EDGE_LOOP ( 'NONE', ( #995, #799, #711, #533 ) ) ;
#1053 = VERTEX_POINT ( 'NONE', #261 ) ;
#1054 =( NAMED_UNIT ( * ) PLANE_ANGLE_UNIT ( ) SI_UNIT ( $, .RADIAN. ) );
#1055 = DIRECTION ( 'NONE',  ( -1.000000000000000000, -5.463695987328529395E-16, 0.000000000000000000 ) ) ;
#1056 = CARTESIAN_POINT ( 'NONE',  ( 12.00000000000000000, 3.000000000000000000, 10.00000000000000000 ) ) ;
#1057 = ORIENTED_EDGE ( 'NONE', *, *, #336, .F. ) ;
#1058 = ORIENTED_EDGE ( 'NONE', *, *, #806, .T. ) ;
#1059 =( LENGTH_UNIT ( ) NAMED_UNIT ( * ) SI_UNIT ( .MILLI., .METRE. ) );
#1060 = VECTOR ( 'NONE', #262, 1000.000000000000000 ) ;
#1061 = VECTOR ( 'NONE', #687, 1000.000000000000000 ) ;
#1062 = DIRECTION ( 'NONE',  ( 1.000000000000000000, 0.000000000000000000, 0.000000000000000000 ) ) ;
#1063 = VECTOR ( 'NONE', #954, 1000.000000000000000 ) ;
#1064 = ADVANCED_FACE ( 'NONE', ( #325 ), #614, .T. ) ;
#1065 = EDGE_LOOP ( 'NONE', ( #278, #187 ) ) ;
#1066 = DIRECTION ( 'NONE',  ( 0.000000000000000000, 0.000000000000000000, -1.000000000000000000 ) ) ;
#1067 = EDGE_CURVE ( 'NONE', #791, #431, #241, .T. ) ;
#1068 = ORIENTED_EDGE ( 'NONE', *, *, #295, .T. ) ;
#1069 = EDGE_CURVE ( 'NONE', #409, #374, #856, .T. ) ;
#1070 = ITEM_DEFINED_TRANSFORMATION ( 'NONE', 'NONE', #976,  #387 ) ;
#1071 = CARTESIAN_POINT ( 'NONE',  ( 62.19999999999999574, 0.000000000000000000, 25.00000000000000000 ) ) ;
#1072 = EDGE_LOOP ( 'NONE', ( #273, #524, #765, #183 ) ) ;
#1073 = CARTESIAN_POINT ( 'NONE',  ( 0.000000000000000000, 0.000000000000000000, 0.000000000000000000 ) ) ;
#1074 = DIRECTION ( 'NONE',  ( 0.000000000000000000, 0.000000000000000000, -1.000000000000000000 ) ) ;
#1075 = CARTESIAN_POINT ( 'NONE',  ( 3.000000000000000000, -12.80000000000000071, 0.000000000000000000 ) ) ;
#1076 = PRESENTATION_LAYER_ASSIGNMENT (  '', '', ( #60 ) ) ;
#1077 = EDGE_LOOP ( 'NONE', ( #911, #779, #696, #864 ) ) ;
#1078 = VECTOR ( 'NONE', #631, 1000.000000000000000 ) ;
#1079 = ORIENTED_EDGE ( 'NONE', *, *, #304, .T. ) ;
#1080 = SHAPE_DEFINITION_REPRESENTATION ( #388, #759 ) ;
#1081 = LINE ( 'NONE', #386, #573 ) ;
#1082 = EDGE_CURVE ( 'NONE', #91, #141, #535, .T. ) ;
#1083 = ORIENTED_EDGE ( 'NONE', *, *, #792, .F. ) ;
#1084 = DIRECTION ( 'NONE',  ( 0.000000000000000000, 0.000000000000000000, 1.000000000000000000 ) ) ;
#1085 = DIRECTION ( 'NONE',  ( 1.000000000000000000, 0.000000000000000000, 0.000000000000000000 ) ) ;
#1086 = SURFACE_SIDE_STYLE ('',( #217 ) ) ;
#1087 = ORIENTED_EDGE ( 'NONE', *, *, #52, .F. ) ;
#1088 = DIRECTION ( 'NONE',  ( 0.000000000000000000, -1.000000000000000000, 0.000000000000000000 ) ) ;
#1089 = FACE_OUTER_BOUND ( 'NONE', #1072, .T. ) ;
#1090 = VECTOR ( 'NONE', #563, 1000.000000000000000 ) ;
#1091 = DIRECTION ( 'NONE',  ( 1.000000000000000000, 0.000000000000000000, 0.000000000000000000 ) ) ;
#1092 = ORIENTED_EDGE ( 'NONE', *, *, #875, .T. ) ;
#1093 = CARTESIAN_POINT ( 'NONE',  ( 6.000000000000000000, 10.00000000000000000, 5.000000000000000000 ) ) ;
#1094 = CARTESIAN_POINT ( 'NONE',  ( 65.19999999999998863, 28.40000000000000213, 10.00000000000000000 ) ) ;
#1095 = ORIENTED_EDGE ( 'NONE', *, *, #1034, .T. ) ;
#1096 = DIRECTION ( 'NONE',  ( 1.000000000000000000, 0.000000000000000000, 0.000000000000000000 ) ) ;
#1097 = DIRECTION ( 'NONE',  ( 0.000000000000000000, 0.000000000000000000, 1.000000000000000000 ) ) ;
#1098 = FACE_OUTER_BOUND ( 'NONE', #1077, .T. ) ;
#1099 = DIRECTION ( 'NONE',  ( 1.000000000000000000, 0.000000000000000000, 0.000000000000000000 ) ) ;
#1100 = EDGE_LOOP ( 'NONE', ( #474, #945, #259, #643, #580, #85, #784, #899, #318, #394, #1092, #1009 ) ) ;
#1101 = LINE ( 'NONE', #256, #132 ) ;
#1102 = FACE_OUTER_BOUND ( 'NONE', #169, .T. ) ;
#1103 = VECTOR ( 'NONE', #343, 1000.000000000000000 ) ;
#1104 = PRODUCT_DEFINITION_CONTEXT ( 'detailed design', #174, 'design' ) ;
#1105 = LINE ( 'NONE', #920, #151 ) ;
#1106 = EDGE_LOOP ( 'NONE', ( #8, #724, #358, #444 ) ) ;
#1107 = AXIS2_PLACEMENT_3D ( 'NONE', #276, #863, #202 ) ;
#1108 = PRODUCT_DEFINITION_FORMATION_WITH_SPECIFIED_SOURCE ( 'ANY', '', #950, .NOT_KNOWN. ) ;
#1109 = DIRECTION ( 'NONE',  ( 0.000000000000000000, 1.000000000000000000, 0.000000000000000000 ) ) ;
#1110 = PRODUCT ( 'Team-A4-Battery+Breadboard', 'Team-A4-Battery+Breadboard', '', ( #475 ) ) ;
#1111 = VECTOR ( 'NONE', #499, 1000.000000000000000 ) ;
#1112 = DIRECTION ( 'NONE',  ( -1.000000000000000000, -1.445602896647339903E-16, 0.000000000000000000 ) ) ;
#1113 = EDGE_CURVE ( 'NONE', #74, #701, #292, .T. ) ;
#1114 = EDGE_CURVE ( 'NONE', #352, #333, #641, .T. ) ;
#1115 = LINE ( 'NONE', #667, #243 ) ;
#1116 = CARTESIAN_POINT ( 'NONE',  ( 3.000000000000000000, -12.80000000000000071, 0.000000000000000000 ) ) ;
#1117 = NEXT_ASSEMBLY_USAGE_OCCURRENCE ( 'NAUO1', ' ', ' ', #415, #69, $ ) ;
#1118 = NEXT_ASSEMBLY_USAGE_OCCURRENCE ( 'NAUO2', ' ', ' ', #69, #117, $ ) ;
#1119 = NEXT_ASSEMBLY_USAGE_OCCURRENCE ( 'NAUO3', ' ', ' ', #69, #884, $ ) ;
ENDSEC;
END-ISO-10303-21;
