ISO-10303-21;
HEADER;
FILE_DESCRIPTION (( 'STEP AP214' ),
    '1' );
FILE_NAME ('Team A4 ultrasonic.STEP',
    '2026-05-05T22:44:23',
    ( '' ),
    ( '' ),
    'SwSTEP 2.0',
    'SolidWorks 2025',
    '' );
FILE_SCHEMA (( 'AUTOMOTIVE_DESIGN' ));
ENDSEC;

DATA;
#1 = DIRECTION ( 'NONE',  ( 0.000000000000000000, 1.000000000000000000, 0.000000000000000000 ) ) ;
#2 = ORIENTED_EDGE ( 'NONE', *, *, #478, .F. ) ;
#3 = CARTESIAN_POINT ( 'NONE',  ( -46.30000000000000426, 7.100000000000000533, 11.40000000000000036 ) ) ;
#4 = CARTESIAN_POINT ( 'NONE',  ( 17.00000000000000000, 0.000000000000000000, 49.29999999999999716 ) ) ;
#5 = ORIENTED_EDGE ( 'NONE', *, *, #470, .F. ) ;
#6 = AXIS2_PLACEMENT_3D ( 'NONE', #285, #751, #768 ) ;
#7 = AXIS2_PLACEMENT_3D ( 'NONE', #827, #429, #821 ) ;
#8 = VECTOR ( 'NONE', #89, 1000.000000000000000 ) ;
#9 = VECTOR ( 'NONE', #356, 1000.000000000000000 ) ;
#10 = CARTESIAN_POINT ( 'NONE',  ( 3.000000000000000000, 25.25000000000000000, 2.899999999999999911 ) ) ;
#11 = ORIENTED_EDGE ( 'NONE', *, *, #602, .F. ) ;
#12 = CARTESIAN_POINT ( 'NONE',  ( -46.30000000000000426, 15.15000000000000036, 11.40000000000000036 ) ) ;
#13 = EDGE_CURVE ( 'NONE', #923, #367, #951, .T. ) ;
#14 = LINE ( 'NONE', #354, #178 ) ;
#15 = VERTEX_POINT ( 'NONE', #718 ) ;
#16 = DIRECTION ( 'NONE',  ( 1.000000000000000000, -7.138779736530069592E-17, 0.000000000000000000 ) ) ;
#17 = CARTESIAN_POINT ( 'NONE',  ( 10.00000000000000000, -46.30000000000000426, 34.29999999999999716 ) ) ;
#18 = PLANE ( 'NONE',  #129 ) ;
#19 = ORIENTED_EDGE ( 'NONE', *, *, #142, .F. ) ;
#20 = EDGE_CURVE ( 'NONE', #519, #438, #420, .T. ) ;
#21 = ORIENTED_EDGE ( 'NONE', *, *, #631, .F. ) ;
#22 = AXIS2_PLACEMENT_3D ( 'NONE', #584, #342, #1010 ) ;
#23 = CARTESIAN_POINT ( 'NONE',  ( 17.00000000000000000, 0.000000000000000000, 39.30000000000000426 ) ) ;
#24 = AXIS2_PLACEMENT_3D ( 'NONE', #959, #556, #250 ) ;
#25 = CARTESIAN_POINT ( 'NONE',  ( 8.673617379884030542E-16, 24.40000000000000213, 2.899999999999999911 ) ) ;
#26 = ORIENTED_EDGE ( 'NONE', *, *, #737, .T. ) ;
#27 = EDGE_CURVE ( 'NONE', #503, #122, #559, .T. ) ;
#28 = EDGE_LOOP ( 'NONE', ( #497, #554, #548, #621 ) ) ;
#29 = CYLINDRICAL_SURFACE ( 'NONE', #249, 8.049999999999998934 ) ;
#30 = CYLINDRICAL_SURFACE ( 'NONE', #838, 8.049999999999998934 ) ;
#31 = EDGE_LOOP ( 'NONE', ( #615, #803, #683, #530 ) ) ;
#32 = DIRECTION ( 'NONE',  ( 0.000000000000000000, 0.000000000000000000, -1.000000000000000000 ) ) ;
#33 = VERTEX_POINT ( 'NONE', #784 ) ;
#34 = DIRECTION ( 'NONE',  ( -2.710505431213760099E-16, 1.000000000000000000, 0.000000000000000000 ) ) ;
#35 = LINE ( 'NONE', #182, #859 ) ;
#36 = ORIENTED_EDGE ( 'NONE', *, *, #562, .T. ) ;
#37 = ORIENTED_EDGE ( 'NONE', *, *, #251, .F. ) ;
#38 = CARTESIAN_POINT ( 'NONE',  ( -46.30000000000000426, 6.000000000000000000, 27.94999999999999929 ) ) ;
#39 = CARTESIAN_POINT ( 'NONE',  ( 10.00000000000000000, 3.000000000000000000, 34.29999999999999716 ) ) ;
#40 = AXIS2_PLACEMENT_3D ( 'NONE', #1044, #971, #734 ) ;
#41 = VECTOR ( 'NONE', #623, 1000.000000000000000 ) ;
#42 = LINE ( 'NONE', #377, #1028 ) ;
#43 =( LENGTH_UNIT ( ) NAMED_UNIT ( * ) SI_UNIT ( .MILLI., .METRE. ) );
#44 = VERTEX_POINT ( 'NONE', #221 ) ;
#45 = CARTESIAN_POINT ( 'NONE',  ( 7.000000000000000000, 3.000000000000000000, 0.000000000000000000 ) ) ;
#46 = DIRECTION ( 'NONE',  ( 1.000000000000000000, -7.138779736530069592E-17, 0.000000000000000000 ) ) ;
#47 = PRODUCT_RELATED_PRODUCT_CATEGORY ( 'part', '', ( #69 ) ) ;
#48 = FACE_OUTER_BOUND ( 'NONE', #582, .T. ) ;
#49 = DIRECTION ( 'NONE',  ( 1.000000000000000000, 0.000000000000000000, 0.000000000000000000 ) ) ;
#50 = ORIENTED_EDGE ( 'NONE', *, *, #811, .F. ) ;
#51 = CARTESIAN_POINT ( 'NONE',  ( 8.066821102278979119E-16, 23.55000000000000071, 46.39999999999999858 ) ) ;
#52 = DIRECTION ( 'NONE',  ( -1.000000000000000000, 0.000000000000000000, 0.000000000000000000 ) ) ;
#53 = EDGE_CURVE ( 'NONE', #15, #998, #870, .T. ) ;
#54 = EDGE_LOOP ( 'NONE', ( #848, #545 ) ) ;
#55 = FACE_OUTER_BOUND ( 'NONE', #796, .T. ) ;
#56 = PRESENTATION_STYLE_ASSIGNMENT (( #297 ) ) ;
#57 = AXIS2_PLACEMENT_3D ( 'NONE', #327, #580, #1045 ) ;
#58 = EDGE_LOOP ( 'NONE', ( #491, #176, #278, #843 ) ) ;
#59 = AXIS2_PLACEMENT_3D ( 'NONE', #872, #783, #954 ) ;
#60 = ORIENTED_EDGE ( 'NONE', *, *, #119, .F. ) ;
#61 = AXIS2_PLACEMENT_3D ( 'NONE', #1018, #34, #953 ) ;
#62 = EDGE_CURVE ( 'NONE', #147, #149, #882, .T. ) ;
#63 = CARTESIAN_POINT ( 'NONE',  ( 9.280413657489089853E-16, 25.25000000000000000, 46.39999999999999858 ) ) ;
#64 = CARTESIAN_POINT ( 'NONE',  ( 17.00000000000000000, 3.000000000000000000, 39.30000000000000426 ) ) ;
#65 = DIRECTION ( 'NONE',  ( 1.000000000000000000, -3.877326898496164999E-17, 0.000000000000000000 ) ) ;
#66 = ORIENTED_EDGE ( 'NONE', *, *, #220, .F. ) ;
#67 = DIRECTION ( 'NONE',  ( 0.000000000000000000, 1.000000000000000000, 0.000000000000000000 ) ) ;
#68 = CARTESIAN_POINT ( 'NONE',  ( 3.000000000000000000, 15.15000000000000036, 37.90000000000000568 ) ) ;
#69 = PRODUCT ( 'Team A4 ultrasonic', 'Team A4 ultrasonic', '', ( #313 ) ) ;
#70 = CARTESIAN_POINT ( 'NONE',  ( 17.00000000000000000, -46.30000000000000426, 10.00000000000000000 ) ) ;
#71 = ORIENTED_EDGE ( 'NONE', *, *, #319, .T. ) ;
#72 = CARTESIAN_POINT ( 'NONE',  ( 2.326396139097694685E-16, 6.000000000000000000, 21.35000000000000142 ) ) ;
#73 = EDGE_CURVE ( 'NONE', #75, #812, #707, .T. ) ;
#74 = CARTESIAN_POINT ( 'NONE',  ( 0.000000000000000000, 15.15000000000000036, 37.90000000000000568 ) ) ;
#75 = VERTEX_POINT ( 'NONE', #866 ) ;
#76 = CIRCLE ( 'NONE', #671, 8.049999999999998934 ) ;
#77 = CIRCLE ( 'NONE', #61, 1.600000000000000755 ) ;
#78 = AXIS2_PLACEMENT_3D ( 'NONE', #448, #207, #348 ) ;
#79 = CARTESIAN_POINT ( 'NONE',  ( -46.30000000000000426, 7.900000000000000355, 27.94999999999999929 ) ) ;
#80 = DIRECTION ( 'NONE',  ( 1.548860246407864815E-16, -1.000000000000000000, 0.000000000000000000 ) ) ;
#81 = VERTEX_POINT ( 'NONE', #131 ) ;
#82 = LINE ( 'NONE', #415, #320 ) ;
#83 = CYLINDRICAL_SURFACE ( 'NONE', #281, 10.00000000000000000 ) ;
#84 = ORIENTED_EDGE ( 'NONE', *, *, #483, .F. ) ;
#85 = ADVANCED_FACE ( 'NONE', ( #308 ), #939, .F. ) ;
#86 = LINE ( 'NONE', #979, #302 ) ;
#87 = DIRECTION ( 'NONE',  ( 7.138779736530069592E-17, 1.000000000000000000, 0.000000000000000000 ) ) ;
#88 = ORIENTED_EDGE ( 'NONE', *, *, #27, .F. ) ;
#89 = DIRECTION ( 'NONE',  ( 7.138779736530069592E-17, 1.000000000000000000, 0.000000000000000000 ) ) ;
#90 = CIRCLE ( 'NONE', #214, 0.8500000000000000888 ) ;
#91 = CIRCLE ( 'NONE', #818, 10.00000000000000178 ) ;
#92 = ADVANCED_FACE ( 'NONE', ( #48 ), #775, .T. ) ;
#93 = CIRCLE ( 'NONE', #265, 8.049999999999998934 ) ;
#94 = CYLINDRICAL_SURFACE ( 'NONE', #408, 1.900000000000000577 ) ;
#95 = CIRCLE ( 'NONE', #806, 0.8500000000000000888 ) ;
#96 = FACE_BOUND ( 'NONE', #54, .T. ) ;
#97 = ORIENTED_EDGE ( 'NONE', *, *, #955, .T. ) ;
#98 = DIRECTION ( 'NONE',  ( -1.000000000000000000, -1.548860246407864815E-16, 0.000000000000000000 ) ) ;
#99 = CARTESIAN_POINT ( 'NONE',  ( 3.000000000000000000, 24.40000000000000213, 2.899999999999999911 ) ) ;
#100 = EDGE_CURVE ( 'NONE', #961, #719, #42, .T. ) ;
#101 = FACE_OUTER_BOUND ( 'NONE', #795, .T. ) ;
#102 = EDGE_LOOP ( 'NONE', ( #435, #852, #191, #1003 ) ) ;
#103 = ORIENTED_EDGE ( 'NONE', *, *, #294, .F. ) ;
#104 = CARTESIAN_POINT ( 'NONE',  ( -46.30000000000000426, 7.900000000000000355, 21.35000000000000142 ) ) ;
#105 = DIRECTION ( 'NONE',  ( 0.000000000000000000, 1.000000000000000000, 0.000000000000000000 ) ) ;
#106 = VERTEX_POINT ( 'NONE', #701 ) ;
#107 = ORIENTED_EDGE ( 'NONE', *, *, #126, .T. ) ;
#108 = DIRECTION ( 'NONE',  ( 1.000000000000000000, 0.000000000000000000, 0.000000000000000000 ) ) ;
#109 = CYLINDRICAL_SURFACE ( 'NONE', #7, 0.8500000000000000888 ) ;
#110 = AXIS2_PLACEMENT_3D ( 'NONE', #293, #673, #934 ) ;
#111 = ADVANCED_FACE ( 'NONE', ( #298, #960, #620, #697, #304, #1020, #944, #217 ), #544, .F. ) ;
#112 = ORIENTED_EDGE ( 'NONE', *, *, #661, .T. ) ;
#113 = ORIENTED_EDGE ( 'NONE', *, *, #590, .T. ) ;
#114 = DIRECTION ( 'NONE',  ( 0.000000000000000000, 1.000000000000000000, 0.000000000000000000 ) ) ;
#115 = DIRECTION ( 'NONE',  ( 0.000000000000000000, 2.628368902995160053E-16, -1.000000000000000000 ) ) ;
#116 = VERTEX_POINT ( 'NONE', #10 ) ;
#117 = CARTESIAN_POINT ( 'NONE',  ( 1.058510243289452031E-15, 27.30000000000000071, 49.29999999999999716 ) ) ;
#118 = ORIENTED_EDGE ( 'NONE', *, *, #624, .T. ) ;
#119 = EDGE_CURVE ( 'NONE', #226, #549, #317, .T. ) ;
#120 = DIRECTION ( 'NONE',  ( 0.000000000000000000, 0.000000000000000000, 1.000000000000000000 ) ) ;
#121 = DIRECTION ( 'NONE',  ( 0.000000000000000000, 0.000000000000000000, 1.000000000000000000 ) ) ;
#122 = VERTEX_POINT ( 'NONE', #1052 ) ;
#123 = LINE ( 'NONE', #117, #880 ) ;
#124 = ORIENTED_EDGE ( 'NONE', *, *, #244, .F. ) ;
#125 = CARTESIAN_POINT ( 'NONE',  ( 3.121248153289409974E-16, 23.19999999999999929, 37.90000000000000568 ) ) ;
#126 = EDGE_CURVE ( 'NONE', #464, #930, #650, .T. ) ;
#127 = AXIS2_PLACEMENT_3D ( 'NONE', #807, #576, #976 ) ;
#128 = CARTESIAN_POINT ( 'NONE',  ( -4.336808689942014778E-16, 5.899999999999999467, 46.39999999999999858 ) ) ;
#129 = AXIS2_PLACEMENT_3D ( 'NONE', #346, #669, #531 ) ;
#130 = CIRCLE ( 'NONE', #266, 0.8500000000000000888 ) ;
#131 = CARTESIAN_POINT ( 'NONE',  ( 7.000000000000000000, 0.000000000000000000, 0.000000000000000000 ) ) ;
#132 = APPLICATION_PROTOCOL_DEFINITION ( 'draft international standard', 'automotive_design', 1998, #771 ) ;
#133 = EDGE_LOOP ( 'NONE', ( #494, #1036, #633, #347 ) ) ;
#134 = FACE_BOUND ( 'NONE', #417, .T. ) ;
#135 = DIRECTION ( 'NONE',  ( 7.138779736530059731E-17, 1.000000000000000000, 0.000000000000000000 ) ) ;
#136 = EDGE_CURVE ( 'NONE', #314, #923, #585, .T. ) ;
#137 = VERTEX_POINT ( 'NONE', #564 ) ;
#138 = EDGE_LOOP ( 'NONE', ( #952, #685, #196, #888 ) ) ;
#139 = CARTESIAN_POINT ( 'NONE',  ( 7.000000000000000000, -46.30000000000000426, 0.000000000000000000 ) ) ;
#140 = CARTESIAN_POINT ( 'NONE',  ( -4.336808689942014778E-16, 5.899999999999999467, 46.39999999999999858 ) ) ;
#141 = ORIENTED_EDGE ( 'NONE', *, *, #1034, .T. ) ;
#142 = EDGE_CURVE ( 'NONE', #753, #930, #91, .T. ) ;
#143 = ORIENTED_EDGE ( 'NONE', *, *, #941, .F. ) ;
#144 = CARTESIAN_POINT ( 'NONE',  ( -46.30000000000000426, 15.15000000000000036, 11.40000000000000036 ) ) ;
#145 = CARTESIAN_POINT ( 'NONE',  ( 3.000000000000000000, 15.15000000000000036, 37.90000000000000568 ) ) ;
#146 = VECTOR ( 'NONE', #609, 1000.000000000000000 ) ;
#147 = VERTEX_POINT ( 'NONE', #810 ) ;
#148 = VECTOR ( 'NONE', #989, 1000.000000000000000 ) ;
#149 = VERTEX_POINT ( 'NONE', #318 ) ;
#150 = VECTOR ( 'NONE', #16, 1000.000000000000000 ) ;
#151 = CIRCLE ( 'NONE', #659, 0.8500000000000000888 ) ;
#152 = EDGE_CURVE ( 'NONE', #815, #367, #907, .T. ) ;
#153 = DIRECTION ( 'NONE',  ( 1.000000000000000000, -7.138779736530069592E-17, 0.000000000000000000 ) ) ;
#154 = CARTESIAN_POINT ( 'NONE',  ( -46.30000000000000426, 9.799999999999998934, 27.94999999999999929 ) ) ;
#155 = ORIENTED_EDGE ( 'NONE', *, *, #286, .T. ) ;
#156 = EDGE_CURVE ( 'NONE', #122, #930, #245, .T. ) ;
#157 = CARTESIAN_POINT ( 'NONE',  ( -4.336808689942014778E-16, 5.899999999999999467, 2.899999999999999911 ) ) ;
#158 = CARTESIAN_POINT ( 'NONE',  ( 3.000000000000000000, 23.55000000000000071, 46.39999999999999858 ) ) ;
#159 = ORIENTED_EDGE ( 'NONE', *, *, #535, .T. ) ;
#160 = CARTESIAN_POINT ( 'NONE',  ( 17.00000000000000000, 3.000000000000000000, 49.29999999999999716 ) ) ;
#161 = CYLINDRICAL_SURFACE ( 'NONE', #670, 0.8500000000000000888 ) ;
#162 = EDGE_LOOP ( 'NONE', ( #1014, #26 ) ) ;
#163 = VECTOR ( 'NONE', #418, 1000.000000000000000 ) ;
#164 = VECTOR ( 'NONE', #384, 1000.000000000000000 ) ;
#165 = DIRECTION ( 'NONE',  ( 0.000000000000000000, 0.000000000000000000, -1.000000000000000000 ) ) ;
#166 = DIRECTION ( 'NONE',  ( 0.000000000000000000, 1.000000000000000000, 0.000000000000000000 ) ) ;
#167 = ADVANCED_FACE ( 'NONE', ( #662 ), #493, .F. ) ;
#168 = ORIENTED_EDGE ( 'NONE', *, *, #817, .F. ) ;
#169 = FACE_OUTER_BOUND ( 'NONE', #867, .T. ) ;
#170 = LINE ( 'NONE', #406, #404 ) ;
#171 = EDGE_CURVE ( 'NONE', #532, #355, #480, .T. ) ;
#172 = ORIENTED_EDGE ( 'NONE', *, *, #398, .T. ) ;
#173 = CARTESIAN_POINT ( 'NONE',  ( 17.00000000000000000, 3.000000000000000000, 0.000000000000000000 ) ) ;
#174 = CARTESIAN_POINT ( 'NONE',  ( 3.000000000000000000, 7.100000000000000533, 37.90000000000000568 ) ) ;
#175 = CARTESIAN_POINT ( 'NONE',  ( 3.000000000000000000, 7.100000000000000533, 11.40000000000000036 ) ) ;
#176 = ORIENTED_EDGE ( 'NONE', *, *, #999, .T. ) ;
#177 = LINE ( 'NONE', #912, #8 ) ;
#178 = VECTOR ( 'NONE', #677, 1000.000000000000000 ) ;
#179 = VECTOR ( 'NONE', #165, 1000.000000000000000 ) ;
#180 = CARTESIAN_POINT ( 'NONE',  ( 0.000000000000000000, 0.000000000000000000, 0.000000000000000000 ) ) ;
#181 =( GEOMETRIC_REPRESENTATION_CONTEXT ( 3 ) GLOBAL_UNCERTAINTY_ASSIGNED_CONTEXT ( ( #376 ) ) GLOBAL_UNIT_ASSIGNED_CONTEXT ( ( #43, #616, #195 ) ) REPRESENTATION_CONTEXT ( 'NONE', 'WORKASPACE' ) );
#182 = CARTESIAN_POINT ( 'NONE',  ( 17.00000000000000000, 3.000000000000000000, 49.29999999999999716 ) ) ;
#183 = ORIENTED_EDGE ( 'NONE', *, *, #733, .T. ) ;
#184 = CARTESIAN_POINT ( 'NONE',  ( 3.000000000000000000, 27.30000000000000071, 49.29999999999999716 ) ) ;
#185 = VERTEX_POINT ( 'NONE', #656 ) ;
#186 = LINE ( 'NONE', #341, #710 ) ;
#187 = EDGE_CURVE ( 'NONE', #106, #719, #496, .T. ) ;
#188 = CYLINDRICAL_SURFACE ( 'NONE', #22, 0.8500000000000000888 ) ;
#189 = EDGE_LOOP ( 'NONE', ( #606, #426 ) ) ;
#190 = CARTESIAN_POINT ( 'NONE',  ( 11.59999999999999964, 3.000000000000000000, 15.00000000000000000 ) ) ;
#191 = ORIENTED_EDGE ( 'NONE', *, *, #577, .F. ) ;
#192 = DIRECTION ( 'NONE',  ( 0.000000000000000000, 0.000000000000000000, -1.000000000000000000 ) ) ;
#193 = CARTESIAN_POINT ( 'NONE',  ( 3.000000000000000000, 6.000000000000000000, 27.94999999999999929 ) ) ;
#194 = ORIENTED_EDGE ( 'NONE', *, *, #358, .T. ) ;
#195 =( NAMED_UNIT ( * ) SI_UNIT ( $, .STERADIAN. ) SOLID_ANGLE_UNIT ( ) );
#196 = ORIENTED_EDGE ( 'NONE', *, *, #437, .T. ) ;
#197 = CIRCLE ( 'NONE', #724, 1.899999999999999689 ) ;
#198 = DIRECTION ( 'NONE',  ( 1.000000000000000000, 0.000000000000000000, 0.000000000000000000 ) ) ;
#199 = VECTOR ( 'NONE', #813, 1000.000000000000000 ) ;
#200 = FACE_OUTER_BOUND ( 'NONE', #913, .T. ) ;
#201 = ORIENTED_EDGE ( 'NONE', *, *, #459, .F. ) ;
#202 = DIRECTION ( 'NONE',  ( 7.138779736530059731E-17, 1.000000000000000000, 0.000000000000000000 ) ) ;
#203 = ORIENTED_EDGE ( 'NONE', *, *, #927, .T. ) ;
#204 = LINE ( 'NONE', #213, #948 ) ;
#205 = FILL_AREA_STYLE ('',( #619 ) ) ;
#206 = ORIENTED_EDGE ( 'NONE', *, *, #394, .F. ) ;
#207 = DIRECTION ( 'NONE',  ( 1.000000000000000000, -7.138779736530069592E-17, 0.000000000000000000 ) ) ;
#208 = EDGE_CURVE ( 'NONE', #830, #270, #90, .T. ) ;
#209 = EDGE_LOOP ( 'NONE', ( #561, #610 ) ) ;
#210 = CARTESIAN_POINT ( 'NONE',  ( 3.000000000000000000, 5.049999999999999822, 2.899999999999999911 ) ) ;
#211 = DIRECTION ( 'NONE',  ( -3.877326898496160685E-17, -1.000000000000000000, 0.000000000000000000 ) ) ;
#212 = VERTEX_POINT ( 'NONE', #741 ) ;
#213 = CARTESIAN_POINT ( 'NONE',  ( 8.400000000000000355, -46.30000000000000426, 15.00000000000000000 ) ) ;
#214 = AXIS2_PLACEMENT_3D ( 'NONE', #968, #985, #896 ) ;
#215 = LINE ( 'NONE', #389, #994 ) ;
#216 = AXIS2_PLACEMENT_3D ( 'NONE', #853, #550, #457 ) ;
#217 = FACE_OUTER_BOUND ( 'NONE', #413, .T. ) ;
#218 = ORIENTED_EDGE ( 'NONE', *, *, #512, .F. ) ;
#219 = FACE_OUTER_BOUND ( 'NONE', #31, .T. ) ;
#220 = EDGE_CURVE ( 'NONE', #658, #698, #197, .T. ) ;
#221 = CARTESIAN_POINT ( 'NONE',  ( -3.121248153289409974E-16, 7.100000000000000533, 37.90000000000000568 ) ) ;
#222 = ORIENTED_EDGE ( 'NONE', *, *, #20, .T. ) ;
#223 = CARTESIAN_POINT ( 'NONE',  ( 11.59999999999999964, 3.000000000000000000, 34.29999999999999716 ) ) ;
#224 = EDGE_CURVE ( 'NONE', #786, #761, #837, .T. ) ;
#225 = DIRECTION ( 'NONE',  ( 0.000000000000000000, 0.000000000000000000, 1.000000000000000000 ) ) ;
#226 = VERTEX_POINT ( 'NONE', #158 ) ;
#227 = DIRECTION ( 'NONE',  ( -1.000000000000000000, 0.000000000000000000, 0.000000000000000000 ) ) ;
#228 = LINE ( 'NONE', #495, #199 ) ;
#229 = AXIS2_PLACEMENT_3D ( 'NONE', #910, #598, #832 ) ;
#230 = CIRCLE ( 'NONE', #24, 8.049999999999998934 ) ;
#231 = EDGE_LOOP ( 'NONE', ( #675, #107, #19, #648 ) ) ;
#232 = ADVANCED_FACE ( 'NONE', ( #484 ), #83, .F. ) ;
#233 = VERTEX_POINT ( 'NONE', #981 ) ;
#234 = AXIS2_PLACEMENT_3D ( 'NONE', #555, #368, #684 ) ;
#235 = CIRCLE ( 'NONE', #560, 8.049999999999998934 ) ;
#236 = CARTESIAN_POINT ( 'NONE',  ( -46.30000000000000426, 15.15000000000000036, 37.90000000000000568 ) ) ;
#237 = DIRECTION ( 'NONE',  ( 7.138779736530070824E-17, 1.000000000000000000, 0.000000000000000000 ) ) ;
#238 = CARTESIAN_POINT ( 'NONE',  ( 3.000000000000000000, 5.899999999999999467, 46.39999999999999858 ) ) ;
#239 = VERTEX_POINT ( 'NONE', #802 ) ;
#240 = CARTESIAN_POINT ( 'NONE',  ( 17.00000000000000000, 0.000000000000000000, 10.00000000000000000 ) ) ;
#241 = CARTESIAN_POINT ( 'NONE',  ( 3.000000000000000000, 3.000000000000000000, 0.000000000000000000 ) ) ;
#242 = ORIENTED_EDGE ( 'NONE', *, *, #286, .F. ) ;
#243 = DIRECTION ( 'NONE',  ( 7.138779736530059731E-17, 1.000000000000000000, 0.000000000000000000 ) ) ;
#244 = EDGE_CURVE ( 'NONE', #44, #833, #926, .T. ) ;
#245 = LINE ( 'NONE', #331, #654 ) ;
#246 = AXIS2_PLACEMENT_3D ( 'NONE', #643, #256, #972 ) ;
#247 = EDGE_LOOP ( 'NONE', ( #289, #387 ) ) ;
#248 =( GEOMETRIC_REPRESENTATION_CONTEXT ( 3 ) GLOBAL_UNCERTAINTY_ASSIGNED_CONTEXT ( ( #468 ) ) GLOBAL_UNIT_ASSIGNED_CONTEXT ( ( #932, #869, #794 ) ) REPRESENTATION_CONTEXT ( 'NONE', 'WORKASPACE' ) );
#249 = AXIS2_PLACEMENT_3D ( 'NONE', #12, #198, #500 ) ;
#250 = DIRECTION ( 'NONE',  ( 3.877326898496165615E-17, 1.000000000000000000, 0.000000000000000000 ) ) ;
#251 = EDGE_CURVE ( 'NONE', #44, #748, #419, .T. ) ;
#252 = DIRECTION ( 'NONE',  ( 1.000000000000000000, -3.877326898496164999E-17, 0.000000000000000000 ) ) ;
#253 = EDGE_LOOP ( 'NONE', ( #269, #918, #969, #21 ) ) ;
#254 = DIRECTION ( 'NONE',  ( 1.019104544675399999E-32, 2.628368902995160053E-16, -1.000000000000000000 ) ) ;
#255 = CARTESIAN_POINT ( 'NONE',  ( 3.000000000000000000, 27.30000000000000071, 0.000000000000000000 ) ) ;
#256 = DIRECTION ( 'NONE',  ( 1.000000000000000000, 0.000000000000000000, 0.000000000000000000 ) ) ;
#257 = ORIENTED_EDGE ( 'NONE', *, *, #999, .F. ) ;
#258 = EDGE_CURVE ( 'NONE', #833, #309, #170, .T. ) ;
#259 = PLANE ( 'NONE',  #962 ) ;
#260 = LINE ( 'NONE', #603, #146 ) ;
#261 = ORIENTED_EDGE ( 'NONE', *, *, #394, .T. ) ;
#262 = CYLINDRICAL_SURFACE ( 'NONE', #422, 1.600000000000000755 ) ;
#263 = AXIS2_PLACEMENT_3D ( 'NONE', #238, #400, #166 ) ;
#264 = ADVANCED_FACE ( 'NONE', ( #890 ), #161, .F. ) ;
#265 = AXIS2_PLACEMENT_3D ( 'NONE', #1019, #543, #1035 ) ;
#266 = AXIS2_PLACEMENT_3D ( 'NONE', #1000, #423, #681 ) ;
#267 = FACE_OUTER_BOUND ( 'NONE', #569, .T. ) ;
#268 = CARTESIAN_POINT ( 'NONE',  ( 3.000000000000000000, 23.19999999999999929, 37.90000000000000568 ) ) ;
#269 = ORIENTED_EDGE ( 'NONE', *, *, #208, .F. ) ;
#270 = VERTEX_POINT ( 'NONE', #915 ) ;
#271 = PLANE ( 'NONE',  #458 ) ;
#272 = CARTESIAN_POINT ( 'NONE',  ( 17.00000000000000000, 3.000000000000000000, 10.00000000000000000 ) ) ;
#273 = ORIENTED_EDGE ( 'NONE', *, *, #974, .F. ) ;
#274 = ORIENTED_EDGE ( 'NONE', *, *, #884, .F. ) ;
#275 = DIRECTION ( 'NONE',  ( 0.000000000000000000, 0.000000000000000000, 1.000000000000000000 ) ) ;
#276 = ADVANCED_FACE ( 'NONE', ( #446 ), #188, .F. ) ;
#277 = DIRECTION ( 'NONE',  ( 1.000000000000000000, 0.000000000000000000, 0.000000000000000000 ) ) ;
#278 = ORIENTED_EDGE ( 'NONE', *, *, #826, .F. ) ;
#279 = CARTESIAN_POINT ( 'NONE',  ( 3.000000000000000000, 7.900000000000000355, 27.94999999999999929 ) ) ;
#280 = ORIENTED_EDGE ( 'NONE', *, *, #974, .T. ) ;
#281 = AXIS2_PLACEMENT_3D ( 'NONE', #416, #489, #722 ) ;
#282 = LINE ( 'NONE', #38, #164 ) ;
#283 = AXIS2_PLACEMENT_3D ( 'NONE', #614, #938, #865 ) ;
#284 = VECTOR ( 'NONE', #227, 1000.000000000000000 ) ;
#285 = CARTESIAN_POINT ( 'NONE',  ( 3.000000000000000000, 24.40000000000000213, 2.899999999999999911 ) ) ;
#286 = EDGE_CURVE ( 'NONE', #800, #116, #978, .T. ) ;
#287 = VERTEX_POINT ( 'NONE', #513 ) ;
#288 = LINE ( 'NONE', #453, #9 ) ;
#289 = ORIENTED_EDGE ( 'NONE', *, *, #1039, .T. ) ;
#290 = DIRECTION ( 'NONE',  ( -1.000000000000000000, 7.138779736530069592E-17, 0.000000000000000000 ) ) ;
#291 = DIRECTION ( 'NONE',  ( 5.387339987505612864E-17, 1.000000000000000000, 0.000000000000000000 ) ) ;
#292 = CARTESIAN_POINT ( 'NONE',  ( 0.000000000000000000, 0.000000000000000000, 49.29999999999999716 ) ) ;
#293 = CARTESIAN_POINT ( 'NONE',  ( 10.00000000000000000, 0.000000000000000000, 15.00000000000000000 ) ) ;
#294 = EDGE_CURVE ( 'NONE', #438, #147, #260, .T. ) ;
#295 = ORIENTED_EDGE ( 'NONE', *, *, #597, .F. ) ;
#296 = DIRECTION ( 'NONE',  ( -1.548860246407864815E-16, 1.000000000000000000, 0.000000000000000000 ) ) ;
#297 = SURFACE_STYLE_USAGE ( .BOTH. , #695 ) ;
#298 = FACE_BOUND ( 'NONE', #600, .T. ) ;
#299 = EDGE_LOOP ( 'NONE', ( #509, #510 ) ) ;
#300 = PLANE ( 'NONE',  #657 ) ;
#301 = DIRECTION ( 'NONE',  ( 7.138779736530070824E-17, 1.000000000000000000, 0.000000000000000000 ) ) ;
#302 = VECTOR ( 'NONE', #399, 1000.000000000000000 ) ;
#303 = CIRCLE ( 'NONE', #475, 1.599999999999997202 ) ;
#304 = FACE_BOUND ( 'NONE', #770, .T. ) ;
#305 = VERTEX_POINT ( 'NONE', #175 ) ;
#306 = DIRECTION ( 'NONE',  ( 0.000000000000000000, 1.000000000000000000, 0.000000000000000000 ) ) ;
#307 = DIRECTION ( 'NONE',  ( 1.000000000000000000, -5.387339987505609782E-17, 0.000000000000000000 ) ) ;
#308 = FACE_OUTER_BOUND ( 'NONE', #957, .T. ) ;
#309 = VERTEX_POINT ( 'NONE', #268 ) ;
#310 = PRODUCT_DEFINITION_SHAPE ( 'NONE', 'NONE',  #744 ) ;
#311 = DIRECTION ( 'NONE',  ( 0.000000000000000000, 1.000000000000000000, 0.000000000000000000 ) ) ;
#312 = CARTESIAN_POINT ( 'NONE',  ( 1.058510243289452031E-15, 27.30000000000000071, 49.29999999999999716 ) ) ;
#313 = PRODUCT_CONTEXT ( 'NONE', #629, 'mechanical' ) ;
#314 = VERTEX_POINT ( 'NONE', #665 ) ;
#315 = LINE ( 'NONE', #173, #335 ) ;
#316 = CYLINDRICAL_SURFACE ( 'NONE', #804, 1.900000000000000577 ) ;
#317 = CIRCLE ( 'NONE', #246, 0.8500000000000000888 ) ;
#318 = CARTESIAN_POINT ( 'NONE',  ( 3.000000000000000000, 9.799999999999998934, 27.94999999999999929 ) ) ;
#319 = EDGE_CURVE ( 'NONE', #672, #305, #688, .T. ) ;
#320 = VECTOR ( 'NONE', #993, 1000.000000000000000 ) ;
#321 = ORIENTED_EDGE ( 'NONE', *, *, #990, .F. ) ;
#322 = DIRECTION ( 'NONE',  ( -1.734723475976804876E-16, 1.000000000000000000, 0.000000000000000000 ) ) ;
#323 = DIRECTION ( 'NONE',  ( 0.000000000000000000, 0.000000000000000000, 1.000000000000000000 ) ) ;
#324 = ORIENTED_EDGE ( 'NONE', *, *, #990, .T. ) ;
#325 = ADVANCED_FACE ( 'NONE', ( #200 ), #30, .F. ) ;
#326 = CARTESIAN_POINT ( 'NONE',  ( 3.000000000000000000, 9.799999999999998934, 27.94999999999999929 ) ) ;
#327 = CARTESIAN_POINT ( 'NONE',  ( 10.00000000000000000, 0.000000000000000000, 34.29999999999999716 ) ) ;
#328 = EDGE_LOOP ( 'NONE', ( #477, #527, #702, #781 ) ) ;
#329 = ADVANCED_FACE ( 'NONE', ( #526 ), #925, .F. ) ;
#330 = DIRECTION ( 'NONE',  ( 5.387339987505612864E-17, 1.000000000000000000, 0.000000000000000000 ) ) ;
#331 = CARTESIAN_POINT ( 'NONE',  ( 0.000000000000000000, 0.000000000000000000, 49.29999999999999716 ) ) ;
#332 = ORIENTED_EDGE ( 'NONE', *, *, #1034, .F. ) ;
#333 = CARTESIAN_POINT ( 'NONE',  ( 10.00000000000000000, -46.30000000000000426, 15.00000000000000000 ) ) ;
#334 = AXIS2_PLACEMENT_3D ( 'NONE', #145, #307, #291 ) ;
#335 = VECTOR ( 'NONE', #98, 1000.000000000000000 ) ;
#336 = FACE_OUTER_BOUND ( 'NONE', #834, .T. ) ;
#337 = EDGE_CURVE ( 'NONE', #438, #698, #14, .T. ) ;
#338 = DIRECTION ( 'NONE',  ( 1.000000000000000000, 0.000000000000000000, 0.000000000000000000 ) ) ;
#339 = EDGE_LOOP ( 'NONE', ( #873, #60 ) ) ;
#340 = CARTESIAN_POINT ( 'NONE',  ( 10.00000000000000000, 0.000000000000000000, 34.29999999999999716 ) ) ;
#341 = CARTESIAN_POINT ( 'NONE',  ( 17.00000000000000000, -46.30000000000000426, 39.30000000000000426 ) ) ;
#342 = DIRECTION ( 'NONE',  ( 1.000000000000000000, -7.138779736530069592E-17, 0.000000000000000000 ) ) ;
#343 = ORIENTED_EDGE ( 'NONE', *, *, #1005, .T. ) ;
#344 = LINE ( 'NONE', #63, #693 ) ;
#345 = DIRECTION ( 'NONE',  ( 0.000000000000000000, -1.000000000000000000, 0.000000000000000000 ) ) ;
#346 = CARTESIAN_POINT ( 'NONE',  ( 0.000000000000000000, 0.000000000000000000, 49.29999999999999716 ) ) ;
#347 = ORIENTED_EDGE ( 'NONE', *, *, #20, .F. ) ;
#348 = DIRECTION ( 'NONE',  ( 7.138779736530070824E-17, 1.000000000000000000, 0.000000000000000000 ) ) ;
#349 = VECTOR ( 'NONE', #469, 1000.000000000000000 ) ;
#350 = ORIENTED_EDGE ( 'NONE', *, *, #499, .F. ) ;
#351 = VECTOR ( 'NONE', #881, 1000.000000000000000 ) ;
#352 = CIRCLE ( 'NONE', #505, 0.8500000000000000888 ) ;
#353 = FACE_OUTER_BOUND ( 'NONE', #102, .T. ) ;
#354 = CARTESIAN_POINT ( 'NONE',  ( -46.30000000000000426, 9.799999999999998934, 21.35000000000000142 ) ) ;
#355 = VERTEX_POINT ( 'NONE', #272 ) ;
#356 = DIRECTION ( 'NONE',  ( 0.000000000000000000, 0.000000000000000000, -1.000000000000000000 ) ) ;
#357 = EDGE_LOOP ( 'NONE', ( #911, #471, #155, #651 ) ) ;
#358 = EDGE_CURVE ( 'NONE', #812, #226, #1001, .T. ) ;
#359 = CARTESIAN_POINT ( 'NONE',  ( 0.000000000000000000, 0.000000000000000000, 49.29999999999999716 ) ) ;
#360 = CARTESIAN_POINT ( 'NONE',  ( -46.30000000000000426, 15.15000000000000036, 37.90000000000000568 ) ) ;
#361 = ORIENTED_EDGE ( 'NONE', *, *, #53, .F. ) ;
#362 = ORIENTED_EDGE ( 'NONE', *, *, #152, .F. ) ;
#363 = FACE_BOUND ( 'NONE', #539, .T. ) ;
#364 = EDGE_CURVE ( 'NONE', #519, #658, #1006, .T. ) ;
#365 = CARTESIAN_POINT ( 'NONE',  ( 0.000000000000000000, 0.000000000000000000, 0.000000000000000000 ) ) ;
#366 = ADVANCED_BREP_SHAPE_REPRESENTATION ( 'Team A4 ultrasonic', ( #434, #824 ), #181 ) ;
#367 = VERTEX_POINT ( 'NONE', #501 ) ;
#368 = DIRECTION ( 'NONE',  ( -2.710505431213760099E-16, 1.000000000000000000, 0.000000000000000000 ) ) ;
#369 = ORIENTED_EDGE ( 'NONE', *, *, #337, .T. ) ;
#370 = AXIS2_PLACEMENT_3D ( 'NONE', #395, #774, #374 ) ;
#371 = FACE_OUTER_BOUND ( 'NONE', #1022, .T. ) ;
#372 = AXIS2_PLACEMENT_3D ( 'NONE', #17, #516, #525 ) ;
#373 = CIRCLE ( 'NONE', #995, 0.8500000000000000888 ) ;
#374 = DIRECTION ( 'NONE',  ( 0.000000000000000000, 2.628368902995160053E-16, -1.000000000000000000 ) ) ;
#375 = EDGE_CURVE ( 'NONE', #212, #658, #921, .T. ) ;
#376 = UNCERTAINTY_MEASURE_WITH_UNIT (LENGTH_MEASURE( 1.000000000000000082E-05 ), #43, 'distance_accuracy_value', 'NONE');
#377 = CARTESIAN_POINT ( 'NONE',  ( 3.000000000000000000, 27.30000000000000071, 49.29999999999999716 ) ) ;
#378 = VERTEX_POINT ( 'NONE', #836 ) ;
#379 = CYLINDRICAL_SURFACE ( 'NONE', #542, 8.049999999999998934 ) ;
#380 = DIRECTION ( 'NONE',  ( -1.000000000000000000, -2.710505431213759606E-16, 0.000000000000000000 ) ) ;
#381 = DIRECTION ( 'NONE',  ( 0.000000000000000000, 0.000000000000000000, -1.000000000000000000 ) ) ;
#382 = ADVANCED_FACE ( 'NONE', ( #996 ), #109, .F. ) ;
#383 = EDGE_LOOP ( 'NONE', ( #982, #350, #392, #977 ) ) ;
#384 = DIRECTION ( 'NONE',  ( 1.000000000000000000, -7.138779736530069592E-17, 0.000000000000000000 ) ) ;
#385 = DIRECTION ( 'NONE',  ( 1.000000000000000000, -5.387339987505609782E-17, 0.000000000000000000 ) ) ;
#386 = CARTESIAN_POINT ( 'NONE',  ( 1.058510243289452031E-15, 27.30000000000000071, 49.29999999999999716 ) ) ;
#387 = ORIENTED_EDGE ( 'NONE', *, *, #478, .T. ) ;
#388 = FACE_BOUND ( 'NONE', #209, .T. ) ;
#389 = CARTESIAN_POINT ( 'NONE',  ( 3.000000000000000000, 3.000000000000000000, 49.29999999999999716 ) ) ;
#390 = VECTOR ( 'NONE', #687, 1000.000000000000000 ) ;
#391 = DIRECTION ( 'NONE',  ( -1.548860246407864815E-16, 1.000000000000000000, 0.000000000000000000 ) ) ;
#392 = ORIENTED_EDGE ( 'NONE', *, *, #631, .T. ) ;
#393 = DIRECTION ( 'NONE',  ( 1.000000000000000000, -7.138779736530069592E-17, 0.000000000000000000 ) ) ;
#394 = EDGE_CURVE ( 'NONE', #464, #287, #35, .T. ) ;
#395 = CARTESIAN_POINT ( 'NONE',  ( -46.30000000000000426, 6.000000000000000000, 27.94999999999999929 ) ) ;
#396 = CARTESIAN_POINT ( 'NONE',  ( 8.400000000000000355, -46.30000000000000426, 34.29999999999999716 ) ) ;
#397 = ORIENTED_EDGE ( 'NONE', *, *, #1021, .T. ) ;
#398 = EDGE_CURVE ( 'NONE', #891, #81, #763, .T. ) ;
#399 = DIRECTION ( 'NONE',  ( 1.000000000000000000, -7.138779736530069592E-17, 0.000000000000000000 ) ) ;
#400 = DIRECTION ( 'NONE',  ( 1.000000000000000000, 0.000000000000000000, 0.000000000000000000 ) ) ;
#401 = ORIENTED_EDGE ( 'NONE', *, *, #499, .T. ) ;
#402 = DIRECTION ( 'NONE',  ( 1.000000000000000000, 0.000000000000000000, 0.000000000000000000 ) ) ;
#403 = CARTESIAN_POINT ( 'NONE',  ( 8.673617379884030542E-16, 24.40000000000000213, 2.899999999999999911 ) ) ;
#404 = VECTOR ( 'NONE', #728, 1000.000000000000000 ) ;
#405 = PRESENTATION_LAYER_ASSIGNMENT (  '', '', ( #488 ) ) ;
#406 = CARTESIAN_POINT ( 'NONE',  ( -46.30000000000000426, 23.19999999999999929, 37.90000000000000568 ) ) ;
#407 = ADVANCED_FACE ( 'NONE', ( #96, #508, #101 ), #18, .F. ) ;
#408 = AXIS2_PLACEMENT_3D ( 'NONE', #104, #428, #114 ) ;
#409 = ORIENTED_EDGE ( 'NONE', *, *, #142, .T. ) ;
#410 = LINE ( 'NONE', #730, #351 ) ;
#411 = DIRECTION ( 'NONE',  ( 1.000000000000000000, -7.138779736530069592E-17, 0.000000000000000000 ) ) ;
#412 = EDGE_CURVE ( 'NONE', #367, #815, #456, .T. ) ;
#413 = EDGE_LOOP ( 'NONE', ( #113, #689, #88, #343 ) ) ;
#414 = ORIENTED_EDGE ( 'NONE', *, *, #920, .T. ) ;
#415 = CARTESIAN_POINT ( 'NONE',  ( -4.943604967547070145E-16, 5.049999999999999822, 46.39999999999999858 ) ) ;
#416 = CARTESIAN_POINT ( 'NONE',  ( 17.00000000000000000, -46.30000000000000426, 49.29999999999999716 ) ) ;
#417 = EDGE_LOOP ( 'NONE', ( #680, #257, #617, #66 ) ) ;
#418 = DIRECTION ( 'NONE',  ( 1.000000000000000000, -7.138779736530069592E-17, 0.000000000000000000 ) ) ;
#419 = LINE ( 'NONE', #899, #856 ) ;
#420 = CIRCLE ( 'NONE', #876, 1.900000000000000577 ) ;
#421 = ORIENTED_EDGE ( 'NONE', *, *, #450, .F. ) ;
#422 = AXIS2_PLACEMENT_3D ( 'NONE', #333, #720, #1043 ) ;
#423 = DIRECTION ( 'NONE',  ( 1.000000000000000000, 0.000000000000000000, 0.000000000000000000 ) ) ;
#424 = ADVANCED_FACE ( 'NONE', ( #779 ), #1024, .F. ) ;
#425 = DIRECTION ( 'NONE',  ( 7.138779736530059731E-17, 1.000000000000000000, 0.000000000000000000 ) ) ;
#426 = ORIENTED_EDGE ( 'NONE', *, *, #1046, .T. ) ;
#427 = DIRECTION ( 'NONE',  ( 0.000000000000000000, 0.000000000000000000, 1.000000000000000000 ) ) ;
#428 = DIRECTION ( 'NONE',  ( 1.000000000000000000, 0.000000000000000000, 0.000000000000000000 ) ) ;
#429 = DIRECTION ( 'NONE',  ( 1.000000000000000000, -7.138779736530069592E-17, 0.000000000000000000 ) ) ;
#430 = ORIENTED_EDGE ( 'NONE', *, *, #927, .F. ) ;
#431 = VERTEX_POINT ( 'NONE', #460 ) ;
#432 = CARTESIAN_POINT ( 'NONE',  ( 3.000000000000000000, 27.30000000000000071, 49.29999999999999716 ) ) ;
#433 = DIRECTION ( 'NONE',  ( 1.000000000000000000, -7.138779736530069592E-17, 0.000000000000000000 ) ) ;
#434 = MANIFOLD_SOLID_BREP ( 'NONE', #455 ) ;
#435 = ORIENTED_EDGE ( 'NONE', *, *, #986, .T. ) ;
#436 = DIRECTION ( 'NONE',  ( 1.000000000000000000, -3.877326898496164999E-17, 0.000000000000000000 ) ) ;
#437 = EDGE_CURVE ( 'NONE', #305, #672, #523, .T. ) ;
#438 = VERTEX_POINT ( 'NONE', #473 ) ;
#439 = AXIS2_PLACEMENT_3D ( 'NONE', #849, #699, #120 ) ;
#440 = DIRECTION ( 'NONE',  ( -1.000000000000000000, -1.548860246407864815E-16, 0.000000000000000000 ) ) ;
#441 = ORIENTED_EDGE ( 'NONE', *, *, #443, .T. ) ;
#442 = CARTESIAN_POINT ( 'NONE',  ( 0.000000000000000000, 15.15000000000000036, 11.40000000000000036 ) ) ;
#443 = EDGE_CURVE ( 'NONE', #549, #226, #740, .T. ) ;
#444 = ORIENTED_EDGE ( 'NONE', *, *, #171, .T. ) ;
#445 = LINE ( 'NONE', #359, #742 ) ;
#446 = FACE_OUTER_BOUND ( 'NONE', #28, .T. ) ;
#447 = ORIENTED_EDGE ( 'NONE', *, *, #920, .F. ) ;
#448 = CARTESIAN_POINT ( 'NONE',  ( -4.336808689942014778E-16, 5.899999999999999467, 2.899999999999999911 ) ) ;
#449 = ORIENTED_EDGE ( 'NONE', *, *, #13, .F. ) ;
#450 = EDGE_CURVE ( 'NONE', #287, #106, #215, .T. ) ;
#451 = CYLINDRICAL_SURFACE ( 'NONE', #586, 0.8500000000000000888 ) ;
#452 = ORIENTED_EDGE ( 'NONE', *, *, #258, .T. ) ;
#453 = CARTESIAN_POINT ( 'NONE',  ( 17.00000000000000000, 0.000000000000000000, 49.29999999999999716 ) ) ;
#454 = ORIENTED_EDGE ( 'NONE', *, *, #398, .F. ) ;
#455 = CLOSED_SHELL ( 'NONE', ( #653, #329, #506, #276, #232, #854, #424, #758, #840, #566, #935, #785, #900, #85, #752, #92, #773, #864, #746, #847, #407, #111, #717, #167, #696, #325, #591, #382, #264, #487 ) ) ;
#456 = CIRCLE ( 'NONE', #708, 1.600000000000000755 ) ;
#457 = DIRECTION ( 'NONE',  ( 0.000000000000000000, 2.628368902995160053E-16, -1.000000000000000000 ) ) ;
#458 = AXIS2_PLACEMENT_3D ( 'NONE', #831, #755, #192 ) ;
#459 = EDGE_CURVE ( 'NONE', #309, #748, #655, .T. ) ;
#460 = CARTESIAN_POINT ( 'NONE',  ( 8.400000000000000355, 3.000000000000000000, 15.00000000000000000 ) ) ;
#461 = ORIENTED_EDGE ( 'NONE', *, *, #817, .T. ) ;
#462 = VERTEX_POINT ( 'NONE', #64 ) ;
#463 = LINE ( 'NONE', #139, #41 ) ;
#464 = VERTEX_POINT ( 'NONE', #626 ) ;
#465 = ORIENTED_EDGE ( 'NONE', *, *, #602, .T. ) ;
#466 = DIRECTION ( 'NONE',  ( 1.000000000000000000, -7.138779736530069592E-17, 0.000000000000000000 ) ) ;
#467 = SURFACE_STYLE_FILL_AREA ( #205 ) ;
#468 = UNCERTAINTY_MEASURE_WITH_UNIT (LENGTH_MEASURE( 1.000000000000000082E-05 ), #932, 'distance_accuracy_value', 'NONE');
#469 = DIRECTION ( 'NONE',  ( -1.548860246407864815E-16, 1.000000000000000000, 0.000000000000000000 ) ) ;
#470 = EDGE_CURVE ( 'NONE', #833, #44, #93, .T. ) ;
#471 = ORIENTED_EDGE ( 'NONE', *, *, #970, .T. ) ;
#472 = FACE_OUTER_BOUND ( 'NONE', #916, .T. ) ;
#473 = CARTESIAN_POINT ( 'NONE',  ( 0.000000000000000000, 9.799999999999998934, 21.35000000000000142 ) ) ;
#474 = VECTOR ( 'NONE', #115, 1000.000000000000000 ) ;
#475 = AXIS2_PLACEMENT_3D ( 'NONE', #340, #878, #427 ) ;
#476 = ORIENTED_EDGE ( 'NONE', *, *, #459, .T. ) ;
#477 = ORIENTED_EDGE ( 'NONE', *, *, #970, .F. ) ;
#478 = EDGE_CURVE ( 'NONE', #15, #239, #1049, .T. ) ;
#479 = LINE ( 'NONE', #326, #791 ) ;
#480 = LINE ( 'NONE', #70, #892 ) ;
#481 = ORIENTED_EDGE ( 'NONE', *, *, #518, .F. ) ;
#482 = DIRECTION ( 'NONE',  ( -1.000000000000000000, -1.734723475976807094E-16, 0.000000000000000000 ) ) ;
#483 = EDGE_CURVE ( 'NONE', #81, #532, #692, .T. ) ;
#484 = FACE_OUTER_BOUND ( 'NONE', #231, .T. ) ;
#485 = ORIENTED_EDGE ( 'NONE', *, *, #294, .T. ) ;
#486 = LINE ( 'NONE', #3, #640 ) ;
#487 = ADVANCED_FACE ( 'NONE', ( #551 ), #451, .F. ) ;
#488 = STYLED_ITEM ( 'NONE', ( #56 ), #434 ) ;
#489 = DIRECTION ( 'NONE',  ( 0.000000000000000000, 1.000000000000000000, 0.000000000000000000 ) ) ;
#490 = CIRCLE ( 'NONE', #793, 0.8500000000000000888 ) ;
#491 = ORIENTED_EDGE ( 'NONE', *, *, #62, .T. ) ;
#492 = DIRECTION ( 'NONE',  ( -3.877326898496160685E-17, -1.000000000000000000, 0.000000000000000000 ) ) ;
#493 = CYLINDRICAL_SURFACE ( 'NONE', #690, 1.600000000000000755 ) ;
#494 = ORIENTED_EDGE ( 'NONE', *, *, #364, .T. ) ;
#495 = CARTESIAN_POINT ( 'NONE',  ( 11.59999999999999964, -46.30000000000000426, 34.29999999999999716 ) ) ;
#496 = LINE ( 'NONE', #241, #540 ) ;
#497 = ORIENTED_EDGE ( 'NONE', *, *, #797, .F. ) ;
#498 = CARTESIAN_POINT ( 'NONE',  ( 7.000000000000000000, 0.000000000000000000, 49.29999999999999716 ) ) ;
#499 = EDGE_CURVE ( 'NONE', #270, #830, #946, .T. ) ;
#500 = DIRECTION ( 'NONE',  ( 0.000000000000000000, 1.000000000000000000, 0.000000000000000000 ) ) ;
#501 = CARTESIAN_POINT ( 'NONE',  ( 8.400000000000000355, 3.000000000000000000, 34.29999999999999716 ) ) ;
#502 = AXIS2_PLACEMENT_3D ( 'NONE', #128, #46, #301 ) ;
#503 = VERTEX_POINT ( 'NONE', #700 ) ;
#504 = CARTESIAN_POINT ( 'NONE',  ( 1.058510243289452031E-15, 27.30000000000000071, 0.000000000000000000 ) ) ;
#505 = AXIS2_PLACEMENT_3D ( 'NONE', #738, #727, #646 ) ;
#506 = ADVANCED_FACE ( 'NONE', ( #950 ), #547, .F. ) ;
#507 = FACE_OUTER_BOUND ( 'NONE', #133, .T. ) ;
#508 = FACE_BOUND ( 'NONE', #247, .T. ) ;
#509 = ORIENTED_EDGE ( 'NONE', *, *, #470, .T. ) ;
#510 = ORIENTED_EDGE ( 'NONE', *, *, #244, .T. ) ;
#511 = CARTESIAN_POINT ( 'NONE',  ( 3.000000000000000000, 9.799999999999998934, 21.35000000000000142 ) ) ;
#512 = EDGE_CURVE ( 'NONE', #875, #355, #820, .T. ) ;
#513 = CARTESIAN_POINT ( 'NONE',  ( 3.000000000000000000, 3.000000000000000000, 49.29999999999999716 ) ) ;
#514 = EDGE_LOOP ( 'NONE', ( #361, #1026, #922, #324 ) ) ;
#515 = ORIENTED_EDGE ( 'NONE', *, *, #811, .T. ) ;
#516 = DIRECTION ( 'NONE',  ( 0.000000000000000000, 1.000000000000000000, 0.000000000000000000 ) ) ;
#517 = CARTESIAN_POINT ( 'NONE',  ( -46.30000000000000426, 6.000000000000000000, 21.35000000000000142 ) ) ;
#518 = EDGE_CURVE ( 'NONE', #378, #305, #486, .T. ) ;
#519 = VERTEX_POINT ( 'NONE', #72 ) ;
#520 = APPLICATION_PROTOCOL_DEFINITION ( 'draft international standard', 'automotive_design', 1998, #629 ) ;
#521 = VECTOR ( 'NONE', #391, 1000.000000000000000 ) ;
#522 = ORIENTED_EDGE ( 'NONE', *, *, #737, .F. ) ;
#523 = CIRCLE ( 'NONE', #909, 8.049999999999998934 ) ;
#524 = VECTOR ( 'NONE', #541, 1000.000000000000000 ) ;
#525 = DIRECTION ( 'NONE',  ( -1.000000000000000000, 0.000000000000000000, 0.000000000000000000 ) ) ;
#526 = FACE_OUTER_BOUND ( 'NONE', #328, .T. ) ;
#527 = ORIENTED_EDGE ( 'NONE', *, *, #611, .F. ) ;
#528 = DIRECTION ( 'NONE',  ( 1.000000000000000000, -7.138779736530069592E-17, 0.000000000000000000 ) ) ;
#529 = EDGE_CURVE ( 'NONE', #378, #691, #230, .T. ) ;
#530 = ORIENTED_EDGE ( 'NONE', *, *, #450, .T. ) ;
#531 = DIRECTION ( 'NONE',  ( 1.000000000000000000, 0.000000000000000000, 0.000000000000000000 ) ) ;
#532 = VERTEX_POINT ( 'NONE', #240 ) ;
#533 = DIRECTION ( 'NONE',  ( 1.000000000000000000, -7.138779736530069592E-17, 0.000000000000000000 ) ) ;
#534 = ORIENTED_EDGE ( 'NONE', *, *, #624, .F. ) ;
#535 = EDGE_CURVE ( 'NONE', #698, #149, #479, .T. ) ;
#536 = PLANE ( 'NONE',  #216 ) ;
#537 = CARTESIAN_POINT ( 'NONE',  ( 8.673617379884030542E-16, 24.40000000000000213, 46.39999999999999858 ) ) ;
#538 = CARTESIAN_POINT ( 'NONE',  ( 10.00000000000000000, -46.30000000000000426, 34.29999999999999716 ) ) ;
#539 = EDGE_LOOP ( 'NONE', ( #201, #729 ) ) ;
#540 = VECTOR ( 'NONE', #87, 1000.000000000000000 ) ;
#541 = DIRECTION ( 'NONE',  ( 1.000000000000000000, -7.138779736530069592E-17, 0.000000000000000000 ) ) ;
#542 = AXIS2_PLACEMENT_3D ( 'NONE', #144, #613, #630 ) ;
#543 = DIRECTION ( 'NONE',  ( 1.000000000000000000, -3.877326898496164999E-17, 0.000000000000000000 ) ) ;
#544 = PLANE ( 'NONE',  #1047 ) ;
#545 = ORIENTED_EDGE ( 'NONE', *, *, #136, .T. ) ;
#546 = CARTESIAN_POINT ( 'NONE',  ( 3.000000000000000000, 3.000000000000000000, 49.29999999999999716 ) ) ;
#547 = CYLINDRICAL_SURFACE ( 'NONE', #557, 0.8500000000000000888 ) ;
#548 = ORIENTED_EDGE ( 'NONE', *, *, #581, .T. ) ;
#549 = VERTEX_POINT ( 'NONE', #798 ) ;
#550 = DIRECTION ( 'NONE',  ( 7.138779736530069592E-17, 1.000000000000000000, 2.628368902995160053E-16 ) ) ;
#551 = FACE_OUTER_BOUND ( 'NONE', #578, .T. ) ;
#552 = DIRECTION ( 'NONE',  ( 1.000000000000000000, -7.138779736530069592E-17, 0.000000000000000000 ) ) ;
#553 = EDGE_CURVE ( 'NONE', #691, #672, #886, .T. ) ;
#554 = ORIENTED_EDGE ( 'NONE', *, *, #874, .F. ) ;
#555 = CARTESIAN_POINT ( 'NONE',  ( 10.00000000000000000, 3.000000000000000000, 15.00000000000000000 ) ) ;
#556 = DIRECTION ( 'NONE',  ( 1.000000000000000000, -3.877326898496164999E-17, 0.000000000000000000 ) ) ;
#557 = AXIS2_PLACEMENT_3D ( 'NONE', #140, #721, #1055 ) ;
#558 = AXIS2_PLACEMENT_3D ( 'NONE', #703, #306, #694 ) ;
#559 = LINE ( 'NONE', #312, #757 ) ;
#560 = AXIS2_PLACEMENT_3D ( 'NONE', #442, #436, #760 ) ;
#561 = ORIENTED_EDGE ( 'NONE', *, *, #319, .F. ) ;
#562 = EDGE_CURVE ( 'NONE', #748, #309, #76, .T. ) ;
#563 = DIRECTION ( 'NONE',  ( 0.000000000000000000, -2.628368902995160053E-16, 1.000000000000000000 ) ) ;
#564 = CARTESIAN_POINT ( 'NONE',  ( 9.280413657489089853E-16, 25.25000000000000000, 2.899999999999999911 ) ) ;
#565 = ORIENTED_EDGE ( 'NONE', *, *, #224, .F. ) ;
#566 = ADVANCED_FACE ( 'NONE', ( #652 ), #316, .F. ) ;
#567 = LINE ( 'NONE', #575, #622 ) ;
#568 = CARTESIAN_POINT ( 'NONE',  ( 3.000000000000000000, 7.900000000000000355, 21.35000000000000142 ) ) ;
#569 = EDGE_LOOP ( 'NONE', ( #851, #905, #280, #441 ) ) ;
#570 = LINE ( 'NONE', #893, #179 ) ;
#571 = MECHANICAL_DESIGN_GEOMETRIC_PRESENTATION_REPRESENTATION (  '', ( #488 ), #248 ) ;
#572 = CARTESIAN_POINT ( 'NONE',  ( 7.000000000000000000, -46.30000000000000426, 49.29999999999999716 ) ) ;
#573 = AXIS2_PLACEMENT_3D ( 'NONE', #157, #801, #237 ) ;
#574 = VERTEX_POINT ( 'NONE', #898 ) ;
#575 = CARTESIAN_POINT ( 'NONE',  ( 1.058510243289452031E-15, 27.30000000000000071, 0.000000000000000000 ) ) ;
#576 = DIRECTION ( 'NONE',  ( -2.710505431213765029E-16, 1.000000000000000000, 0.000000000000000000 ) ) ;
#577 = EDGE_CURVE ( 'NONE', #961, #503, #410, .T. ) ;
#578 = EDGE_LOOP ( 'NONE', ( #522, #194, #765, #273 ) ) ;
#579 = DIRECTION ( 'NONE',  ( 0.000000000000000000, 1.000000000000000000, 0.000000000000000000 ) ) ;
#580 = DIRECTION ( 'NONE',  ( 0.000000000000000000, 1.000000000000000000, 0.000000000000000000 ) ) ;
#581 = EDGE_CURVE ( 'NONE', #574, #901, #86, .T. ) ;
#582 = EDGE_LOOP ( 'NONE', ( #789, #261, #97, #928, #764, #1037 ) ) ;
#583 = FACE_OUTER_BOUND ( 'NONE', #1007, .T. ) ;
#584 = CARTESIAN_POINT ( 'NONE',  ( -4.336808689942014778E-16, 5.899999999999999467, 2.899999999999999911 ) ) ;
#585 = CIRCLE ( 'NONE', #57, 1.599999999999997202 ) ;
#586 = AXIS2_PLACEMENT_3D ( 'NONE', #537, #855, #135 ) ;
#587 = ORIENTED_EDGE ( 'NONE', *, *, #53, .T. ) ;
#588 = LINE ( 'NONE', #715, #879 ) ;
#589 = AXIS2_PLACEMENT_3D ( 'NONE', #762, #745, #924 ) ;
#590 = EDGE_CURVE ( 'NONE', #956, #891, #567, .T. ) ;
#591 = ADVANCED_FACE ( 'NONE', ( #169 ), #966, .F. ) ;
#592 = CARTESIAN_POINT ( 'NONE',  ( 3.121248153289409974E-16, 23.19999999999999929, 11.40000000000000036 ) ) ;
#593 = DIRECTION ( 'NONE',  ( 1.000000000000000000, -7.138779736530069592E-17, 0.000000000000000000 ) ) ;
#594 = ORIENTED_EDGE ( 'NONE', *, *, #13, .T. ) ;
#595 = EDGE_LOOP ( 'NONE', ( #84, #168, #714, #883 ) ) ;
#596 = FACE_OUTER_BOUND ( 'NONE', #138, .T. ) ;
#597 = EDGE_CURVE ( 'NONE', #462, #464, #607, .T. ) ;
#598 = DIRECTION ( 'NONE',  ( 1.000000000000000000, -5.387339987505609782E-17, 0.000000000000000000 ) ) ;
#599 = ORIENTED_EDGE ( 'NONE', *, *, #826, .T. ) ;
#600 = EDGE_LOOP ( 'NONE', ( #141, #823 ) ) ;
#601 = CYLINDRICAL_SURFACE ( 'NONE', #589, 0.8500000000000000888 ) ;
#602 = EDGE_CURVE ( 'NONE', #314, #815, #228, .T. ) ;
#603 = CARTESIAN_POINT ( 'NONE',  ( 3.799780360526234735E-16, 9.799999999999998934, 49.29999999999999716 ) ) ;
#604 = ORIENTED_EDGE ( 'NONE', *, *, #208, .T. ) ;
#605 = DIRECTION ( 'NONE',  ( 0.000000000000000000, 1.000000000000000000, 0.000000000000000000 ) ) ;
#606 = ORIENTED_EDGE ( 'NONE', *, *, #874, .T. ) ;
#607 = CIRCLE ( 'NONE', #861, 10.00000000000000000 ) ;
#608 = CARTESIAN_POINT ( 'NONE',  ( -4.336808689942014778E-16, 5.899999999999999467, 2.899999999999999911 ) ) ;
#609 = DIRECTION ( 'NONE',  ( -1.019104544675399999E-32, -2.628368902995160053E-16, 1.000000000000000000 ) ) ;
#610 = ORIENTED_EDGE ( 'NONE', *, *, #437, .F. ) ;
#611 = EDGE_CURVE ( 'NONE', #137, #233, #1032, .T. ) ;
#612 = ORIENTED_EDGE ( 'NONE', *, *, #412, .F. ) ;
#613 = DIRECTION ( 'NONE',  ( 1.000000000000000000, 0.000000000000000000, 0.000000000000000000 ) ) ;
#614 = CARTESIAN_POINT ( 'NONE',  ( 17.00000000000000000, 0.000000000000000000, 0.000000000000000000 ) ) ;
#615 = ORIENTED_EDGE ( 'NONE', *, *, #187, .T. ) ;
#616 =( NAMED_UNIT ( * ) PLANE_ANGLE_UNIT ( ) SI_UNIT ( $, .RADIAN. ) );
#617 = ORIENTED_EDGE ( 'NONE', *, *, #535, .F. ) ;
#618 = CARTESIAN_POINT ( 'NONE',  ( -4.943604967547070145E-16, 5.049999999999999822, 2.899999999999999911 ) ) ;
#619 = FILL_AREA_STYLE_COLOUR ( '', #1030 ) ;
#620 = FACE_BOUND ( 'NONE', #1048, .T. ) ;
#621 = ORIENTED_EDGE ( 'NONE', *, *, #895, .T. ) ;
#622 = VECTOR ( 'NONE', #492, 1000.000000000000000 ) ;
#623 = DIRECTION ( 'NONE',  ( 1.548860246407864815E-16, -1.000000000000000000, 0.000000000000000000 ) ) ;
#624 = EDGE_CURVE ( 'NONE', #828, #901, #352, .T. ) ;
#625 = AXIS2_PLACEMENT_3D ( 'NONE', #432, #345, #903 ) ;
#626 = CARTESIAN_POINT ( 'NONE',  ( 7.000000000000000000, 3.000000000000000000, 49.29999999999999716 ) ) ;
#627 = DIRECTION ( 'NONE',  ( 1.000000000000000000, -3.877326898496160685E-17, 0.000000000000000000 ) ) ;
#628 = ORIENTED_EDGE ( 'NONE', *, *, #797, .T. ) ;
#629 = APPLICATION_CONTEXT ( 'automotive_design' ) ;
#630 = DIRECTION ( 'NONE',  ( 0.000000000000000000, 1.000000000000000000, 0.000000000000000000 ) ) ;
#631 = EDGE_CURVE ( 'NONE', #270, #786, #889, .T. ) ;
#632 = DIRECTION ( 'NONE',  ( -3.877326898496160685E-17, -1.000000000000000000, 0.000000000000000000 ) ) ;
#633 = ORIENTED_EDGE ( 'NONE', *, *, #337, .F. ) ;
#634 = CARTESIAN_POINT ( 'NONE',  ( -3.730012412336959904E-16, 6.750000000000000000, 46.39999999999999858 ) ) ;
#635 = DIRECTION ( 'NONE',  ( 1.000000000000000000, 0.000000000000000000, 0.000000000000000000 ) ) ;
#636 = SHAPE_DEFINITION_REPRESENTATION ( #310, #366 ) ;
#637 = EDGE_CURVE ( 'NONE', #462, #355, #570, .T. ) ;
#638 = ORIENTED_EDGE ( 'NONE', *, *, #895, .F. ) ;
#639 = VECTOR ( 'NONE', #80, 1000.000000000000000 ) ;
#640 = VECTOR ( 'NONE', #153, 1000.000000000000000 ) ;
#641 = DIRECTION ( 'NONE',  ( 1.000000000000000000, 0.000000000000000000, 0.000000000000000000 ) ) ;
#642 = AXIS2_PLACEMENT_3D ( 'NONE', #988, #835, #1004 ) ;
#643 = CARTESIAN_POINT ( 'NONE',  ( 3.000000000000000000, 24.40000000000000213, 46.39999999999999858 ) ) ;
#644 = EDGE_CURVE ( 'NONE', #830, #761, #82, .T. ) ;
#645 = ORIENTED_EDGE ( 'NONE', *, *, #986, .F. ) ;
#646 = DIRECTION ( 'NONE',  ( 0.000000000000000000, 1.000000000000000000, 0.000000000000000000 ) ) ;
#647 = DIRECTION ( 'NONE',  ( 1.000000000000000000, 0.000000000000000000, 0.000000000000000000 ) ) ;
#648 = ORIENTED_EDGE ( 'NONE', *, *, #733, .F. ) ;
#649 = CARTESIAN_POINT ( 'NONE',  ( -46.30000000000000426, 23.19999999999999929, 11.40000000000000036 ) ) ;
#650 = LINE ( 'NONE', #572, #639 ) ;
#651 = ORIENTED_EDGE ( 'NONE', *, *, #1053, .F. ) ;
#652 = FACE_OUTER_BOUND ( 'NONE', #58, .T. ) ;
#653 = ADVANCED_FACE ( 'NONE', ( #267 ), #601, .F. ) ;
#654 = VECTOR ( 'NONE', #338, 1000.000000000000000 ) ;
#655 = CIRCLE ( 'NONE', #334, 8.049999999999998934 ) ;
#656 = CARTESIAN_POINT ( 'NONE',  ( -4.943604967547070145E-16, 5.049999999999999822, 2.899999999999999911 ) ) ;
#657 = AXIS2_PLACEMENT_3D ( 'NONE', #546, #290, #868 ) ;
#658 = VERTEX_POINT ( 'NONE', #660 ) ;
#659 = AXIS2_PLACEMENT_3D ( 'NONE', #929, #528, #202 ) ;
#660 = CARTESIAN_POINT ( 'NONE',  ( 3.000000000000000000, 6.000000000000000000, 21.35000000000000142 ) ) ;
#661 = EDGE_CURVE ( 'NONE', #122, #891, #445, .T. ) ;
#662 = FACE_OUTER_BOUND ( 'NONE', #754, .T. ) ;
#663 = ORIENTED_EDGE ( 'NONE', *, *, #375, .T. ) ;
#664 = DIRECTION ( 'NONE',  ( 0.000000000000000000, 0.000000000000000000, -1.000000000000000000 ) ) ;
#665 = CARTESIAN_POINT ( 'NONE',  ( 11.59999999999999964, 0.000000000000000000, 34.29999999999999716 ) ) ;
#666 = ORIENTED_EDGE ( 'NONE', *, *, #364, .F. ) ;
#667 = EDGE_CURVE ( 'NONE', #761, #786, #130, .T. ) ;
#668 = CARTESIAN_POINT ( 'NONE',  ( 0.000000000000000000, 7.900000000000000355, 27.94999999999999929 ) ) ;
#669 = DIRECTION ( 'NONE',  ( -0.000000000000000000, 1.000000000000000000, 0.000000000000000000 ) ) ;
#670 = AXIS2_PLACEMENT_3D ( 'NONE', #756, #593, #425 ) ;
#671 = AXIS2_PLACEMENT_3D ( 'NONE', #68, #1051, #330 ) ;
#672 = VERTEX_POINT ( 'NONE', #919 ) ;
#673 = DIRECTION ( 'NONE',  ( 0.000000000000000000, 1.000000000000000000, 0.000000000000000000 ) ) ;
#674 = CIRCLE ( 'NONE', #841, 1.900000000000000577 ) ;
#675 = ORIENTED_EDGE ( 'NONE', *, *, #597, .T. ) ;
#676 = PLANE ( 'NONE',  #625 ) ;
#677 = DIRECTION ( 'NONE',  ( 1.000000000000000000, -7.138779736530069592E-17, 0.000000000000000000 ) ) ;
#678 = ORIENTED_EDGE ( 'NONE', *, *, #136, .F. ) ;
#679 = CARTESIAN_POINT ( 'NONE',  ( 9.280413657489089853E-16, 25.25000000000000000, 2.899999999999999911 ) ) ;
#680 = ORIENTED_EDGE ( 'NONE', *, *, #375, .F. ) ;
#681 = DIRECTION ( 'NONE',  ( 0.000000000000000000, 1.000000000000000000, 0.000000000000000000 ) ) ;
#682 = CARTESIAN_POINT ( 'NONE',  ( 8.066821102278979119E-16, 23.55000000000000071, 46.39999999999999858 ) ) ;
#683 = ORIENTED_EDGE ( 'NONE', *, *, #955, .F. ) ;
#684 = DIRECTION ( 'NONE',  ( -1.000000000000000000, -2.710505431213759606E-16, 0.000000000000000000 ) ) ;
#685 = ORIENTED_EDGE ( 'NONE', *, *, #518, .T. ) ;
#686 = FACE_BOUND ( 'NONE', #759, .T. ) ;
#687 = DIRECTION ( 'NONE',  ( 1.000000000000000000, 0.000000000000000000, 0.000000000000000000 ) ) ;
#688 = CIRCLE ( 'NONE', #229, 8.049999999999998934 ) ;
#689 = ORIENTED_EDGE ( 'NONE', *, *, #661, .F. ) ;
#690 = AXIS2_PLACEMENT_3D ( 'NONE', #731, #814, #799 ) ;
#691 = VERTEX_POINT ( 'NONE', #592 ) ;
#692 = CIRCLE ( 'NONE', #283, 10.00000000000000000 ) ;
#693 = VECTOR ( 'NONE', #393, 1000.000000000000000 ) ;
#694 = DIRECTION ( 'NONE',  ( -1.000000000000000000, 0.000000000000000000, 0.000000000000000000 ) ) ;
#695 = SURFACE_SIDE_STYLE ('',( #467 ) ) ;
#696 = ADVANCED_FACE ( 'NONE', ( #596 ), #29, .F. ) ;
#697 = FACE_BOUND ( 'NONE', #189, .T. ) ;
#698 = VERTEX_POINT ( 'NONE', #511 ) ;
#699 = DIRECTION ( 'NONE',  ( -1.000000000000000000, 0.000000000000000000, 0.000000000000000000 ) ) ;
#700 = CARTESIAN_POINT ( 'NONE',  ( 1.058510243289452031E-15, 27.30000000000000071, 49.29999999999999716 ) ) ;
#701 = CARTESIAN_POINT ( 'NONE',  ( 3.000000000000000000, 3.000000000000000000, 0.000000000000000000 ) ) ;
#702 = ORIENTED_EDGE ( 'NONE', *, *, #1053, .T. ) ;
#703 = CARTESIAN_POINT ( 'NONE',  ( 17.00000000000000000, -46.30000000000000426, 0.000000000000000000 ) ) ;
#704 = DIRECTION ( 'NONE',  ( 5.387339987505612864E-17, 1.000000000000000000, 0.000000000000000000 ) ) ;
#705 = DIRECTION ( 'NONE',  ( 0.000000000000000000, 1.000000000000000000, 0.000000000000000000 ) ) ;
#706 = EDGE_LOOP ( 'NONE', ( #321, #50 ) ) ;
#707 = CIRCLE ( 'NONE', #790, 0.8500000000000000888 ) ;
#708 = AXIS2_PLACEMENT_3D ( 'NONE', #39, #716, #380 ) ;
#709 = DIRECTION ( 'NONE',  ( 3.877326898496163766E-17, 1.000000000000000000, 0.000000000000000000 ) ) ;
#710 = VECTOR ( 'NONE', #908, 1000.000000000000000 ) ;
#711 = CIRCLE ( 'NONE', #78, 0.8500000000000000888 ) ;
#712 = CARTESIAN_POINT ( 'NONE',  ( 10.00000000000000000, 0.000000000000000000, 15.00000000000000000 ) ) ;
#713 = CARTESIAN_POINT ( 'NONE',  ( 8.673617379884030542E-16, 24.40000000000000213, 46.39999999999999858 ) ) ;
#714 = ORIENTED_EDGE ( 'NONE', *, *, #512, .T. ) ;
#715 = CARTESIAN_POINT ( 'NONE',  ( 2.326396139097694685E-16, 6.000000000000000000, 49.29999999999999716 ) ) ;
#716 = DIRECTION ( 'NONE',  ( -2.710505431213765029E-16, 1.000000000000000000, 0.000000000000000000 ) ) ;
#717 = ADVANCED_FACE ( 'NONE', ( #767 ), #914, .F. ) ;
#718 = CARTESIAN_POINT ( 'NONE',  ( 11.59999999999999964, 0.000000000000000000, 15.00000000000000000 ) ) ;
#719 = VERTEX_POINT ( 'NONE', #255 ) ;
#720 = DIRECTION ( 'NONE',  ( 0.000000000000000000, 1.000000000000000000, 0.000000000000000000 ) ) ;
#721 = DIRECTION ( 'NONE',  ( 1.000000000000000000, -7.138779736530069592E-17, 0.000000000000000000 ) ) ;
#722 = DIRECTION ( 'NONE',  ( -1.000000000000000000, 0.000000000000000000, 0.000000000000000000 ) ) ;
#723 = ORIENTED_EDGE ( 'NONE', *, *, #778, .T. ) ;
#724 = AXIS2_PLACEMENT_3D ( 'NONE', #568, #647, #887 ) ;
#725 = FACE_OUTER_BOUND ( 'NONE', #514, .T. ) ;
#726 = AXIS2_PLACEMENT_3D ( 'NONE', #25, #433, #747 ) ;
#727 = DIRECTION ( 'NONE',  ( 1.000000000000000000, 0.000000000000000000, 0.000000000000000000 ) ) ;
#728 = DIRECTION ( 'NONE',  ( 1.000000000000000000, -7.138779736530069592E-17, 0.000000000000000000 ) ) ;
#729 = ORIENTED_EDGE ( 'NONE', *, *, #562, .F. ) ;
#730 = CARTESIAN_POINT ( 'NONE',  ( 3.000000000000000000, 27.30000000000000071, 49.29999999999999716 ) ) ;
#731 = CARTESIAN_POINT ( 'NONE',  ( 10.00000000000000000, -46.30000000000000426, 15.00000000000000000 ) ) ;
#732 = ORIENTED_EDGE ( 'NONE', *, *, #483, .T. ) ;
#733 = EDGE_CURVE ( 'NONE', #462, #753, #186, .T. ) ;
#734 = DIRECTION ( 'NONE',  ( -1.000000000000000000, -1.734723475976807094E-16, 0.000000000000000000 ) ) ;
#735 = DIRECTION ( 'NONE',  ( -1.548860246407864815E-16, 1.000000000000000000, 0.000000000000000000 ) ) ;
#736 = EDGE_LOOP ( 'NONE', ( #846, #242 ) ) ;
#737 = EDGE_CURVE ( 'NONE', #812, #75, #822, .T. ) ;
#738 = CARTESIAN_POINT ( 'NONE',  ( 3.000000000000000000, 5.899999999999999467, 2.899999999999999911 ) ) ;
#739 = AXIS2_PLACEMENT_3D ( 'NONE', #74, #252, #904 ) ;
#740 = CIRCLE ( 'NONE', #59, 0.8500000000000000888 ) ;
#741 = CARTESIAN_POINT ( 'NONE',  ( 3.000000000000000000, 6.000000000000000000, 27.94999999999999929 ) ) ;
#742 = VECTOR ( 'NONE', #664, 1000.000000000000000 ) ;
#743 = ORIENTED_EDGE ( 'NONE', *, *, #637, .F. ) ;
#744 = PRODUCT_DEFINITION ( 'UNKNOWN', '', #842, #967 ) ;
#745 = DIRECTION ( 'NONE',  ( 1.000000000000000000, -7.138779736530069592E-17, 0.000000000000000000 ) ) ;
#746 = ADVANCED_FACE ( 'NONE', ( #844, #819, #336 ), #271, .F. ) ;
#747 = DIRECTION ( 'NONE',  ( 7.138779736530059731E-17, 1.000000000000000000, 0.000000000000000000 ) ) ;
#748 = VERTEX_POINT ( 'NONE', #174 ) ;
#749 = CARTESIAN_POINT ( 'NONE',  ( 8.066821102278979119E-16, 23.55000000000000071, 2.899999999999999911 ) ) ;
#750 = DIRECTION ( 'NONE',  ( 1.000000000000000000, 0.000000000000000000, 0.000000000000000000 ) ) ;
#751 = DIRECTION ( 'NONE',  ( 1.000000000000000000, 0.000000000000000000, 0.000000000000000000 ) ) ;
#752 = ADVANCED_FACE ( 'NONE', ( #583 ), #259, .F. ) ;
#753 = VERTEX_POINT ( 'NONE', #23 ) ;
#754 = EDGE_LOOP ( 'NONE', ( #2, #587, #515, #274 ) ) ;
#755 = DIRECTION ( 'NONE',  ( 1.548860246407864815E-16, -1.000000000000000000, 0.000000000000000000 ) ) ;
#756 = CARTESIAN_POINT ( 'NONE',  ( 8.673617379884030542E-16, 24.40000000000000213, 2.899999999999999911 ) ) ;
#757 = VECTOR ( 'NONE', #211, 1000.000000000000000 ) ;
#758 = ADVANCED_FACE ( 'NONE', ( #507 ), #94, .F. ) ;
#759 = EDGE_LOOP ( 'NONE', ( #565, #1017 ) ) ;
#760 = DIRECTION ( 'NONE',  ( 3.877326898496165615E-17, 1.000000000000000000, 0.000000000000000000 ) ) ;
#761 = VERTEX_POINT ( 'NONE', #825 ) ;
#762 = CARTESIAN_POINT ( 'NONE',  ( 8.673617379884030542E-16, 24.40000000000000213, 46.39999999999999858 ) ) ;
#763 = LINE ( 'NONE', #365, #390 ) ;
#764 = ORIENTED_EDGE ( 'NONE', *, *, #27, .T. ) ;
#765 = ORIENTED_EDGE ( 'NONE', *, *, #119, .T. ) ;
#766 = EDGE_CURVE ( 'NONE', #116, #800, #373, .T. ) ;
#767 = FACE_OUTER_BOUND ( 'NONE', #776, .T. ) ;
#768 = DIRECTION ( 'NONE',  ( 0.000000000000000000, 1.000000000000000000, 0.000000000000000000 ) ) ;
#769 = ORIENTED_EDGE ( 'NONE', *, *, #1046, .F. ) ;
#770 = EDGE_LOOP ( 'NONE', ( #401, #604 ) ) ;
#771 = APPLICATION_CONTEXT ( 'automotive_design' ) ;
#772 = CARTESIAN_POINT ( 'NONE',  ( 3.000000000000000000, 6.750000000000000000, 46.39999999999999858 ) ) ;
#773 = ADVANCED_FACE ( 'NONE', ( #353 ), #676, .F. ) ;
#774 = DIRECTION ( 'NONE',  ( -7.138779736530069592E-17, -1.000000000000000000, -2.628368902995160053E-16 ) ) ;
#775 = PLANE ( 'NONE',  #943 ) ;
#776 = EDGE_LOOP ( 'NONE', ( #678, #465, #936, #449 ) ) ;
#777 = DIRECTION ( 'NONE',  ( 7.138779736530070824E-17, 1.000000000000000000, 0.000000000000000000 ) ) ;
#778 = EDGE_CURVE ( 'NONE', #147, #33, #674, .T. ) ;
#779 = FACE_OUTER_BOUND ( 'NONE', #933, .T. ) ;
#780 = DIRECTION ( 'NONE',  ( 7.138779736530059731E-17, 1.000000000000000000, 0.000000000000000000 ) ) ;
#781 = ORIENTED_EDGE ( 'NONE', *, *, #766, .T. ) ;
#782 = FACE_OUTER_BOUND ( 'NONE', #595, .T. ) ;
#783 = DIRECTION ( 'NONE',  ( 1.000000000000000000, 0.000000000000000000, 0.000000000000000000 ) ) ;
#784 = CARTESIAN_POINT ( 'NONE',  ( 0.000000000000000000, 6.000000000000000000, 27.94999999999999929 ) ) ;
#785 = ADVANCED_FACE ( 'NONE', ( #55 ), #379, .F. ) ;
#786 = VERTEX_POINT ( 'NONE', #772 ) ;
#787 = CARTESIAN_POINT ( 'NONE',  ( 0.000000000000000000, 0.000000000000000000, 0.000000000000000000 ) ) ;
#788 = DIRECTION ( 'NONE',  ( 1.000000000000000000, -7.138779736530069592E-17, 0.000000000000000000 ) ) ;
#789 = ORIENTED_EDGE ( 'NONE', *, *, #126, .F. ) ;
#790 = AXIS2_PLACEMENT_3D ( 'NONE', #713, #788, #780 ) ;
#791 = VECTOR ( 'NONE', #563, 1000.000000000000000 ) ;
#792 = LINE ( 'NONE', #749, #150 ) ;
#793 = AXIS2_PLACEMENT_3D ( 'NONE', #1033, #402, #67 ) ;
#794 =( NAMED_UNIT ( * ) SI_UNIT ( $, .STERADIAN. ) SOLID_ANGLE_UNIT ( ) );
#795 = EDGE_LOOP ( 'NONE', ( #987, #409, #1054, #112, #172, #732 ) ) ;
#796 = EDGE_LOOP ( 'NONE', ( #481, #332, #897, #71 ) ) ;
#797 = EDGE_CURVE ( 'NONE', #185, #828, #949, .T. ) ;
#798 = CARTESIAN_POINT ( 'NONE',  ( 3.000000000000000000, 25.25000000000000000, 46.39999999999999858 ) ) ;
#799 = DIRECTION ( 'NONE',  ( -1.000000000000000000, 0.000000000000000000, 0.000000000000000000 ) ) ;
#800 = VERTEX_POINT ( 'NONE', #1023 ) ;
#801 = DIRECTION ( 'NONE',  ( 1.000000000000000000, -7.138779736530069592E-17, 0.000000000000000000 ) ) ;
#802 = CARTESIAN_POINT ( 'NONE',  ( 8.400000000000000355, 0.000000000000000000, 15.00000000000000000 ) ) ;
#803 = ORIENTED_EDGE ( 'NONE', *, *, #100, .F. ) ;
#804 = AXIS2_PLACEMENT_3D ( 'NONE', #79, #641, #805 ) ;
#805 = DIRECTION ( 'NONE',  ( 0.000000000000000000, 1.000000000000000000, 0.000000000000000000 ) ) ;
#806 = AXIS2_PLACEMENT_3D ( 'NONE', #608, #466, #777 ) ;
#807 = CARTESIAN_POINT ( 'NONE',  ( 10.00000000000000000, 3.000000000000000000, 34.29999999999999716 ) ) ;
#808 = ORIENTED_EDGE ( 'NONE', *, *, #258, .F. ) ;
#809 = DIRECTION ( 'NONE',  ( 1.000000000000000000, -7.138779736530069592E-17, 0.000000000000000000 ) ) ;
#810 = CARTESIAN_POINT ( 'NONE',  ( 0.000000000000000000, 9.799999999999998934, 27.94999999999999929 ) ) ;
#811 = EDGE_CURVE ( 'NONE', #998, #431, #77, .T. ) ;
#812 = VERTEX_POINT ( 'NONE', #51 ) ;
#813 = DIRECTION ( 'NONE',  ( -1.548860246407864815E-16, 1.000000000000000000, 0.000000000000000000 ) ) ;
#814 = DIRECTION ( 'NONE',  ( 0.000000000000000000, 1.000000000000000000, 0.000000000000000000 ) ) ;
#815 = VERTEX_POINT ( 'NONE', #223 ) ;
#816 = DIRECTION ( 'NONE',  ( 0.000000000000000000, 1.000000000000000000, 0.000000000000000000 ) ) ;
#817 = EDGE_CURVE ( 'NONE', #875, #81, #463, .T. ) ;
#818 = AXIS2_PLACEMENT_3D ( 'NONE', #4, #1, #323 ) ;
#819 = FACE_BOUND ( 'NONE', #706, .T. ) ;
#820 = CIRCLE ( 'NONE', #40, 10.00000000000000000 ) ;
#821 = DIRECTION ( 'NONE',  ( 7.138779736530070824E-17, 1.000000000000000000, 0.000000000000000000 ) ) ;
#822 = CIRCLE ( 'NONE', #642, 0.8500000000000000888 ) ;
#823 = ORIENTED_EDGE ( 'NONE', *, *, #529, .T. ) ;
#824 = AXIS2_PLACEMENT_3D ( 'NONE', #945, #858, #49 ) ;
#825 = CARTESIAN_POINT ( 'NONE',  ( 3.000000000000000000, 5.049999999999999822, 46.39999999999999858 ) ) ;
#826 = EDGE_CURVE ( 'NONE', #33, #212, #282, .T. ) ;
#827 = CARTESIAN_POINT ( 'NONE',  ( -4.336808689942014778E-16, 5.899999999999999467, 46.39999999999999858 ) ) ;
#828 = VERTEX_POINT ( 'NONE', #210 ) ;
#829 = LINE ( 'NONE', #679, #1016 ) ;
#830 = VERTEX_POINT ( 'NONE', #863 ) ;
#831 = CARTESIAN_POINT ( 'NONE',  ( 17.00000000000000000, 3.000000000000000000, 49.29999999999999716 ) ) ;
#832 = DIRECTION ( 'NONE',  ( 5.387339987505612864E-17, 1.000000000000000000, 0.000000000000000000 ) ) ;
#833 = VERTEX_POINT ( 'NONE', #125 ) ;
#834 = EDGE_LOOP ( 'NONE', ( #206, #295, #991, #218, #203, #421 ) ) ;
#835 = DIRECTION ( 'NONE',  ( 1.000000000000000000, -7.138779736530069592E-17, 0.000000000000000000 ) ) ;
#836 = CARTESIAN_POINT ( 'NONE',  ( -3.121248153289409974E-16, 7.100000000000000533, 11.40000000000000036 ) ) ;
#837 = CIRCLE ( 'NONE', #263, 0.8500000000000000888 ) ;
#838 = AXIS2_PLACEMENT_3D ( 'NONE', #360, #277, #105 ) ;
#839 = EDGE_LOOP ( 'NONE', ( #638, #534 ) ) ;
#840 = ADVANCED_FACE ( 'NONE', ( #371 ), #536, .F. ) ;
#841 = AXIS2_PLACEMENT_3D ( 'NONE', #668, #984, #709 ) ;
#842 = PRODUCT_DEFINITION_FORMATION_WITH_SPECIFIED_SOURCE ( 'ANY', '', #69, .NOT_KNOWN. ) ;
#843 = ORIENTED_EDGE ( 'NONE', *, *, #778, .F. ) ;
#844 = FACE_BOUND ( 'NONE', #1042, .T. ) ;
#845 = DIRECTION ( 'NONE',  ( 1.000000000000000000, -7.138779736530069592E-17, 0.000000000000000000 ) ) ;
#846 = ORIENTED_EDGE ( 'NONE', *, *, #766, .F. ) ;
#847 = ADVANCED_FACE ( 'NONE', ( #472 ), #931, .F. ) ;
#848 = ORIENTED_EDGE ( 'NONE', *, *, #941, .T. ) ;
#849 = CARTESIAN_POINT ( 'NONE',  ( 17.00000000000000000, 0.000000000000000000, 49.29999999999999716 ) ) ;
#850 = CARTESIAN_POINT ( 'NONE',  ( 3.000000000000000000, 15.15000000000000036, 11.40000000000000036 ) ) ;
#851 = ORIENTED_EDGE ( 'NONE', *, *, #358, .F. ) ;
#852 = ORIENTED_EDGE ( 'NONE', *, *, #1005, .F. ) ;
#853 = CARTESIAN_POINT ( 'NONE',  ( -46.30000000000000426, 9.799999999999998934, 27.94999999999999929 ) ) ;
#854 = ADVANCED_FACE ( 'NONE', ( #782 ), #942, .F. ) ;
#855 = DIRECTION ( 'NONE',  ( 1.000000000000000000, -7.138779736530069592E-17, 0.000000000000000000 ) ) ;
#856 = VECTOR ( 'NONE', #411, 1000.000000000000000 ) ;
#857 = CARTESIAN_POINT ( 'NONE',  ( 0.000000000000000000, 7.900000000000000355, 21.35000000000000142 ) ) ;
#858 = DIRECTION ( 'NONE',  ( 0.000000000000000000, 0.000000000000000000, 1.000000000000000000 ) ) ;
#859 = VECTOR ( 'NONE', #440, 1000.000000000000000 ) ;
#860 = ORIENTED_EDGE ( 'NONE', *, *, #590, .F. ) ;
#861 = AXIS2_PLACEMENT_3D ( 'NONE', #160, #322, #482 ) ;
#862 = AXIS2_PLACEMENT_3D ( 'NONE', #279, #917, #605 ) ;
#863 = CARTESIAN_POINT ( 'NONE',  ( -4.943604967547070145E-16, 5.049999999999999822, 46.39999999999999858 ) ) ;
#864 = ADVANCED_FACE ( 'NONE', ( #388, #363, #134, #937, #686, #1027, #1009, #219 ), #300, .F. ) ;
#865 = DIRECTION ( 'NONE',  ( 0.000000000000000000, 0.000000000000000000, 1.000000000000000000 ) ) ;
#866 = CARTESIAN_POINT ( 'NONE',  ( 9.280413657489089853E-16, 25.25000000000000000, 46.39999999999999858 ) ) ;
#867 = EDGE_LOOP ( 'NONE', ( #769, #628, #118, #940 ) ) ;
#868 = DIRECTION ( 'NONE',  ( 0.000000000000000000, 0.000000000000000000, 1.000000000000000000 ) ) ;
#869 =( NAMED_UNIT ( * ) PLANE_ANGLE_UNIT ( ) SI_UNIT ( $, .RADIAN. ) );
#870 = LINE ( 'NONE', #1025, #349 ) ;
#871 = EDGE_LOOP ( 'NONE', ( #1002, #397 ) ) ;
#872 = CARTESIAN_POINT ( 'NONE',  ( 3.000000000000000000, 24.40000000000000213, 46.39999999999999858 ) ) ;
#873 = ORIENTED_EDGE ( 'NONE', *, *, #443, .F. ) ;
#874 = EDGE_CURVE ( 'NONE', #574, #185, #95, .T. ) ;
#875 = VERTEX_POINT ( 'NONE', #45 ) ;
#876 = AXIS2_PLACEMENT_3D ( 'NONE', #857, #65, #1041 ) ;
#877 = AXIS2_PLACEMENT_3D ( 'NONE', #712, #311, #121 ) ;
#878 = DIRECTION ( 'NONE',  ( 0.000000000000000000, 1.000000000000000000, 0.000000000000000000 ) ) ;
#879 = VECTOR ( 'NONE', #254, 1000.000000000000000 ) ;
#880 = VECTOR ( 'NONE', #32, 1000.000000000000000 ) ;
#881 = DIRECTION ( 'NONE',  ( -1.000000000000000000, 0.000000000000000000, 0.000000000000000000 ) ) ;
#882 = LINE ( 'NONE', #154, #1011 ) ;
#883 = ORIENTED_EDGE ( 'NONE', *, *, #171, .F. ) ;
#884 = EDGE_CURVE ( 'NONE', #239, #431, #204, .T. ) ;
#885 = DIRECTION ( 'NONE',  ( 1.000000000000000000, 0.000000000000000000, 0.000000000000000000 ) ) ;
#886 = LINE ( 'NONE', #649, #163 ) ;
#887 = DIRECTION ( 'NONE',  ( 0.000000000000000000, -1.000000000000000000, 0.000000000000000000 ) ) ;
#888 = ORIENTED_EDGE ( 'NONE', *, *, #553, .F. ) ;
#889 = LINE ( 'NONE', #634, #980 ) ;
#890 = FACE_OUTER_BOUND ( 'NONE', #357, .T. ) ;
#891 = VERTEX_POINT ( 'NONE', #787 ) ;
#892 = VECTOR ( 'NONE', #735, 1000.000000000000000 ) ;
#893 = CARTESIAN_POINT ( 'NONE',  ( 17.00000000000000000, 3.000000000000000000, 49.29999999999999716 ) ) ;
#894 = AXIS2_PLACEMENT_3D ( 'NONE', #236, #885, #816 ) ;
#895 = EDGE_CURVE ( 'NONE', #901, #828, #490, .T. ) ;
#896 = DIRECTION ( 'NONE',  ( 7.138779736530070824E-17, 1.000000000000000000, 0.000000000000000000 ) ) ;
#897 = ORIENTED_EDGE ( 'NONE', *, *, #553, .T. ) ;
#898 = CARTESIAN_POINT ( 'NONE',  ( -3.730012412336959904E-16, 6.750000000000000000, 2.899999999999999911 ) ) ;
#899 = CARTESIAN_POINT ( 'NONE',  ( -46.30000000000000426, 7.100000000000000533, 37.90000000000000568 ) ) ;
#900 = ADVANCED_FACE ( 'NONE', ( #725 ), #262, .F. ) ;
#901 = VERTEX_POINT ( 'NONE', #983 ) ;
#902 = CARTESIAN_POINT ( 'NONE',  ( 8.400000000000000355, 0.000000000000000000, 34.29999999999999716 ) ) ;
#903 = DIRECTION ( 'NONE',  ( 0.000000000000000000, 0.000000000000000000, -1.000000000000000000 ) ) ;
#904 = DIRECTION ( 'NONE',  ( 3.877326898496165615E-17, 1.000000000000000000, 0.000000000000000000 ) ) ;
#905 = ORIENTED_EDGE ( 'NONE', *, *, #73, .F. ) ;
#906 = CYLINDRICAL_SURFACE ( 'NONE', #894, 8.049999999999998934 ) ;
#907 = CIRCLE ( 'NONE', #127, 1.600000000000000755 ) ;
#908 = DIRECTION ( 'NONE',  ( 1.548860246407864815E-16, -1.000000000000000000, 0.000000000000000000 ) ) ;
#909 = AXIS2_PLACEMENT_3D ( 'NONE', #850, #385, #704 ) ;
#910 = CARTESIAN_POINT ( 'NONE',  ( 3.000000000000000000, 15.15000000000000036, 11.40000000000000036 ) ) ;
#911 = ORIENTED_EDGE ( 'NONE', *, *, #1021, .F. ) ;
#912 = CARTESIAN_POINT ( 'NONE',  ( 3.000000000000000000, 3.000000000000000000, 49.29999999999999716 ) ) ;
#913 = EDGE_LOOP ( 'NONE', ( #124, #1031, #36, #808 ) ) ;
#914 = CYLINDRICAL_SURFACE ( 'NONE', #372, 1.600000000000000755 ) ;
#915 = CARTESIAN_POINT ( 'NONE',  ( -3.730012412336959904E-16, 6.750000000000000000, 46.39999999999999858 ) ) ;
#916 = EDGE_LOOP ( 'NONE', ( #743, #183, #947, #444 ) ) ;
#917 = DIRECTION ( 'NONE',  ( 1.000000000000000000, 0.000000000000000000, 0.000000000000000000 ) ) ;
#918 = ORIENTED_EDGE ( 'NONE', *, *, #644, .T. ) ;
#919 = CARTESIAN_POINT ( 'NONE',  ( 3.000000000000000000, 23.19999999999999929, 11.40000000000000036 ) ) ;
#920 = EDGE_CURVE ( 'NONE', #33, #519, #588, .T. ) ;
#921 = LINE ( 'NONE', #193, #474 ) ;
#922 = ORIENTED_EDGE ( 'NONE', *, *, #884, .T. ) ;
#923 = VERTEX_POINT ( 'NONE', #902 ) ;
#924 = DIRECTION ( 'NONE',  ( 7.138779736530059731E-17, 1.000000000000000000, 0.000000000000000000 ) ) ;
#925 = CYLINDRICAL_SURFACE ( 'NONE', #726, 0.8500000000000000888 ) ;
#926 = CIRCLE ( 'NONE', #739, 8.049999999999998934 ) ;
#927 = EDGE_CURVE ( 'NONE', #875, #106, #315, .T. ) ;
#928 = ORIENTED_EDGE ( 'NONE', *, *, #577, .T. ) ;
#929 = CARTESIAN_POINT ( 'NONE',  ( 8.673617379884030542E-16, 24.40000000000000213, 2.899999999999999911 ) ) ;
#930 = VERTEX_POINT ( 'NONE', #498 ) ;
#931 = PLANE ( 'NONE',  #439 ) ;
#932 =( LENGTH_UNIT ( ) NAMED_UNIT ( * ) SI_UNIT ( .MILLI., .METRE. ) );
#933 = EDGE_LOOP ( 'NONE', ( #599, #663, #666, #447 ) ) ;
#934 = DIRECTION ( 'NONE',  ( 0.000000000000000000, 0.000000000000000000, 1.000000000000000000 ) ) ;
#935 = ADVANCED_FACE ( 'NONE', ( #963 ), #906, .F. ) ;
#936 = ORIENTED_EDGE ( 'NONE', *, *, #152, .T. ) ;
#937 = FACE_BOUND ( 'NONE', #839, .T. ) ;
#938 = DIRECTION ( 'NONE',  ( 0.000000000000000000, 1.000000000000000000, 0.000000000000000000 ) ) ;
#939 = CYLINDRICAL_SURFACE ( 'NONE', #992, 1.600000000000000755 ) ;
#940 = ORIENTED_EDGE ( 'NONE', *, *, #581, .F. ) ;
#941 = EDGE_CURVE ( 'NONE', #923, #314, #303, .T. ) ;
#942 = CYLINDRICAL_SURFACE ( 'NONE', #558, 10.00000000000000000 ) ;
#943 = AXIS2_PLACEMENT_3D ( 'NONE', #292, #225, #635 ) ;
#944 = FACE_BOUND ( 'NONE', #162, .T. ) ;
#945 = CARTESIAN_POINT ( 'NONE',  ( 0.000000000000000000, 0.000000000000000000, 0.000000000000000000 ) ) ;
#946 = CIRCLE ( 'NONE', #502, 0.8500000000000000888 ) ;
#947 = ORIENTED_EDGE ( 'NONE', *, *, #1012, .T. ) ;
#948 = VECTOR ( 'NONE', #296, 1000.000000000000000 ) ;
#949 = LINE ( 'NONE', #618, #524 ) ;
#950 = FACE_OUTER_BOUND ( 'NONE', #383, .T. ) ;
#951 = LINE ( 'NONE', #396, #521 ) ;
#952 = ORIENTED_EDGE ( 'NONE', *, *, #529, .F. ) ;
#953 = DIRECTION ( 'NONE',  ( -1.000000000000000000, -2.710505431213759606E-16, 0.000000000000000000 ) ) ;
#954 = DIRECTION ( 'NONE',  ( 0.000000000000000000, 1.000000000000000000, 0.000000000000000000 ) ) ;
#955 = EDGE_CURVE ( 'NONE', #287, #961, #177, .T. ) ;
#956 = VERTEX_POINT ( 'NONE', #504 ) ;
#957 = EDGE_LOOP ( 'NONE', ( #11, #143, #594, #1029 ) ) ;
#958 = CARTESIAN_POINT ( 'NONE',  ( 3.000000000000000000, 27.30000000000000071, 0.000000000000000000 ) ) ;
#959 = CARTESIAN_POINT ( 'NONE',  ( 0.000000000000000000, 15.15000000000000036, 11.40000000000000036 ) ) ;
#960 = FACE_BOUND ( 'NONE', #299, .T. ) ;
#961 = VERTEX_POINT ( 'NONE', #184 ) ;
#962 = AXIS2_PLACEMENT_3D ( 'NONE', #180, #275, #108 ) ;
#963 = FACE_OUTER_BOUND ( 'NONE', #1008, .T. ) ;
#964 = CIRCLE ( 'NONE', #862, 1.900000000000000577 ) ;
#965 = CIRCLE ( 'NONE', #110, 1.600000000000000755 ) ;
#966 = CYLINDRICAL_SURFACE ( 'NONE', #573, 0.8500000000000000888 ) ;
#967 = PRODUCT_DEFINITION_CONTEXT ( 'detailed design', #771, 'design' ) ;
#968 = CARTESIAN_POINT ( 'NONE',  ( -4.336808689942014778E-16, 5.899999999999999467, 46.39999999999999858 ) ) ;
#969 = ORIENTED_EDGE ( 'NONE', *, *, #667, .T. ) ;
#970 = EDGE_CURVE ( 'NONE', #233, #800, #792, .T. ) ;
#971 = DIRECTION ( 'NONE',  ( -1.734723475976804876E-16, 1.000000000000000000, 0.000000000000000000 ) ) ;
#972 = DIRECTION ( 'NONE',  ( 0.000000000000000000, 1.000000000000000000, 0.000000000000000000 ) ) ;
#973 = ORIENTED_EDGE ( 'NONE', *, *, #187, .F. ) ;
#974 = EDGE_CURVE ( 'NONE', #75, #549, #344, .T. ) ;
#975 = DIRECTION ( 'NONE',  ( 1.000000000000000000, -7.138779736530069592E-17, 0.000000000000000000 ) ) ;
#976 = DIRECTION ( 'NONE',  ( -1.000000000000000000, -2.710505431213759606E-16, 0.000000000000000000 ) ) ;
#977 = ORIENTED_EDGE ( 'NONE', *, *, #224, .T. ) ;
#978 = CIRCLE ( 'NONE', #6, 0.8500000000000000888 ) ;
#979 = CARTESIAN_POINT ( 'NONE',  ( -3.730012412336959904E-16, 6.750000000000000000, 2.899999999999999911 ) ) ;
#980 = VECTOR ( 'NONE', #809, 1000.000000000000000 ) ;
#981 = CARTESIAN_POINT ( 'NONE',  ( 8.066821102278979119E-16, 23.55000000000000071, 2.899999999999999911 ) ) ;
#982 = ORIENTED_EDGE ( 'NONE', *, *, #644, .F. ) ;
#983 = CARTESIAN_POINT ( 'NONE',  ( 3.000000000000000000, 6.750000000000000000, 2.899999999999999911 ) ) ;
#984 = DIRECTION ( 'NONE',  ( 1.000000000000000000, -3.877326898496164999E-17, 0.000000000000000000 ) ) ;
#985 = DIRECTION ( 'NONE',  ( 1.000000000000000000, -7.138779736530069592E-17, 0.000000000000000000 ) ) ;
#986 = EDGE_CURVE ( 'NONE', #719, #956, #1038, .T. ) ;
#987 = ORIENTED_EDGE ( 'NONE', *, *, #1012, .F. ) ;
#988 = CARTESIAN_POINT ( 'NONE',  ( 8.673617379884030542E-16, 24.40000000000000213, 46.39999999999999858 ) ) ;
#989 = DIRECTION ( 'NONE',  ( 1.000000000000000000, -7.138779736530069592E-17, 0.000000000000000000 ) ) ;
#990 = EDGE_CURVE ( 'NONE', #431, #998, #1015, .T. ) ;
#991 = ORIENTED_EDGE ( 'NONE', *, *, #637, .T. ) ;
#992 = AXIS2_PLACEMENT_3D ( 'NONE', #538, #705, #52 ) ;
#993 = DIRECTION ( 'NONE',  ( 1.000000000000000000, -7.138779736530069592E-17, 0.000000000000000000 ) ) ;
#994 = VECTOR ( 'NONE', #1040, 1000.000000000000000 ) ;
#995 = AXIS2_PLACEMENT_3D ( 'NONE', #99, #750, #579 ) ;
#996 = FACE_OUTER_BOUND ( 'NONE', #253, .T. ) ;
#997 = ORIENTED_EDGE ( 'NONE', *, *, #62, .F. ) ;
#998 = VERTEX_POINT ( 'NONE', #190 ) ;
#999 = EDGE_CURVE ( 'NONE', #149, #212, #964, .T. ) ;
#1000 = CARTESIAN_POINT ( 'NONE',  ( 3.000000000000000000, 5.899999999999999467, 46.39999999999999858 ) ) ;
#1001 = LINE ( 'NONE', #682, #148 ) ;
#1002 = ORIENTED_EDGE ( 'NONE', *, *, #611, .T. ) ;
#1003 = ORIENTED_EDGE ( 'NONE', *, *, #100, .T. ) ;
#1004 = DIRECTION ( 'NONE',  ( 7.138779736530059731E-17, 1.000000000000000000, 0.000000000000000000 ) ) ;
#1005 = EDGE_CURVE ( 'NONE', #503, #956, #123, .T. ) ;
#1006 = LINE ( 'NONE', #517, #1013 ) ;
#1007 = EDGE_LOOP ( 'NONE', ( #430, #461, #454, #860, #645, #973 ) ) ;
#1008 = EDGE_LOOP ( 'NONE', ( #37, #5, #452, #476 ) ) ;
#1009 = FACE_BOUND ( 'NONE', #339, .T. ) ;
#1010 = DIRECTION ( 'NONE',  ( 7.138779736530070824E-17, 1.000000000000000000, 0.000000000000000000 ) ) ;
#1011 = VECTOR ( 'NONE', #552, 1000.000000000000000 ) ;
#1012 = EDGE_CURVE ( 'NONE', #753, #532, #288, .T. ) ;
#1013 = VECTOR ( 'NONE', #845, 1000.000000000000000 ) ;
#1014 = ORIENTED_EDGE ( 'NONE', *, *, #73, .T. ) ;
#1015 = CIRCLE ( 'NONE', #234, 1.600000000000000755 ) ;
#1016 = VECTOR ( 'NONE', #533, 1000.000000000000000 ) ;
#1017 = ORIENTED_EDGE ( 'NONE', *, *, #667, .F. ) ;
#1018 = CARTESIAN_POINT ( 'NONE',  ( 10.00000000000000000, 3.000000000000000000, 15.00000000000000000 ) ) ;
#1019 = CARTESIAN_POINT ( 'NONE',  ( 0.000000000000000000, 15.15000000000000036, 37.90000000000000568 ) ) ;
#1020 = FACE_BOUND ( 'NONE', #871, .T. ) ;
#1021 = EDGE_CURVE ( 'NONE', #233, #137, #151, .T. ) ;
#1022 = EDGE_LOOP ( 'NONE', ( #369, #159, #997, #103 ) ) ;
#1023 = CARTESIAN_POINT ( 'NONE',  ( 3.000000000000000000, 23.55000000000000071, 2.899999999999999911 ) ) ;
#1024 = PLANE ( 'NONE',  #370 ) ;
#1025 = CARTESIAN_POINT ( 'NONE',  ( 11.59999999999999964, -46.30000000000000426, 15.00000000000000000 ) ) ;
#1026 = ORIENTED_EDGE ( 'NONE', *, *, #1039, .F. ) ;
#1027 = FACE_BOUND ( 'NONE', #736, .T. ) ;
#1028 = VECTOR ( 'NONE', #381, 1000.000000000000000 ) ;
#1029 = ORIENTED_EDGE ( 'NONE', *, *, #412, .T. ) ;
#1030 = COLOUR_RGB ( '',0.7921568627450980005, 0.8196078431372548767, 0.9333333333333333481 ) ;
#1031 = ORIENTED_EDGE ( 'NONE', *, *, #251, .T. ) ;
#1032 = CIRCLE ( 'NONE', #1050, 0.8500000000000000888 ) ;
#1033 = CARTESIAN_POINT ( 'NONE',  ( 3.000000000000000000, 5.899999999999999467, 2.899999999999999911 ) ) ;
#1034 = EDGE_CURVE ( 'NONE', #691, #378, #235, .T. ) ;
#1035 = DIRECTION ( 'NONE',  ( 3.877326898496165615E-17, 1.000000000000000000, 0.000000000000000000 ) ) ;
#1036 = ORIENTED_EDGE ( 'NONE', *, *, #220, .T. ) ;
#1037 = ORIENTED_EDGE ( 'NONE', *, *, #156, .T. ) ;
#1038 = LINE ( 'NONE', #958, #284 ) ;
#1039 = EDGE_CURVE ( 'NONE', #239, #15, #965, .T. ) ;
#1040 = DIRECTION ( 'NONE',  ( 0.000000000000000000, 0.000000000000000000, -1.000000000000000000 ) ) ;
#1041 = DIRECTION ( 'NONE',  ( 3.877326898496163766E-17, 1.000000000000000000, 0.000000000000000000 ) ) ;
#1042 = EDGE_LOOP ( 'NONE', ( #612, #362 ) ) ;
#1043 = DIRECTION ( 'NONE',  ( -1.000000000000000000, 0.000000000000000000, 0.000000000000000000 ) ) ;
#1044 = CARTESIAN_POINT ( 'NONE',  ( 17.00000000000000000, 3.000000000000000000, 0.000000000000000000 ) ) ;
#1045 = DIRECTION ( 'NONE',  ( 0.000000000000000000, 0.000000000000000000, 1.000000000000000000 ) ) ;
#1046 = EDGE_CURVE ( 'NONE', #185, #574, #711, .T. ) ;
#1047 = AXIS2_PLACEMENT_3D ( 'NONE', #386, #627, #632 ) ;
#1048 = EDGE_LOOP ( 'NONE', ( #485, #723, #414, #222 ) ) ;
#1049 = CIRCLE ( 'NONE', #877, 1.600000000000000755 ) ;
#1050 = AXIS2_PLACEMENT_3D ( 'NONE', #403, #975, #243 ) ;
#1051 = DIRECTION ( 'NONE',  ( 1.000000000000000000, -5.387339987505609782E-17, 0.000000000000000000 ) ) ;
#1052 = CARTESIAN_POINT ( 'NONE',  ( 0.000000000000000000, 0.000000000000000000, 49.29999999999999716 ) ) ;
#1053 = EDGE_CURVE ( 'NONE', #137, #116, #829, .T. ) ;
#1054 = ORIENTED_EDGE ( 'NONE', *, *, #156, .F. ) ;
#1055 = DIRECTION ( 'NONE',  ( 7.138779736530070824E-17, 1.000000000000000000, 0.000000000000000000 ) ) ;
ENDSEC;
END-ISO-10303-21;
