ISO-10303-21;
HEADER;
FILE_DESCRIPTION (( 'STEP AP214' ),
    '1' );
FILE_NAME ('p4.STEP',
    '2026-05-12T23:16:24',
    ( '' ),
    ( '' ),
    'SwSTEP 2.0',
    'SolidWorks 2025',
    '' );
FILE_SCHEMA (( 'AUTOMOTIVE_DESIGN' ));
ENDSEC;

DATA;
#1 = CARTESIAN_POINT ( 'NONE',  ( 41.00000000000000000, 0.000000000000000000, 0.000000000000000000 ) ) ;
#2 = VERTEX_POINT ( 'NONE', #15 ) ;
#3 = ORIENTED_EDGE ( 'NONE', *, *, #354, .F. ) ;
#4 = DIRECTION ( 'NONE',  ( -1.046815890675659335E-16, 1.000000000000000000, 0.000000000000000000 ) ) ;
#5 = ORIENTED_EDGE ( 'NONE', *, *, #604, .F. ) ;
#6 = CIRCLE ( 'NONE', #53, 1.600000000000000755 ) ;
#7 = DIRECTION ( 'NONE',  ( 1.000000000000000000, 1.046815890675659581E-16, -0.000000000000000000 ) ) ;
#8 = AXIS2_PLACEMENT_3D ( 'NONE', #617, #759, #916 ) ;
#9 = FACE_OUTER_BOUND ( 'NONE', #421, .T. ) ;
#10 = VERTEX_POINT ( 'NONE', #870 ) ;
#11 = VECTOR ( 'NONE', #334, 1000.000000000000000 ) ;
#12 = CARTESIAN_POINT ( 'NONE',  ( -3.247683115399743067E-17, 8.799999999999993605, 43.00000000000000000 ) ) ;
#13 = EDGE_LOOP ( 'NONE', ( #871, #340 ) ) ;
#14 = DIRECTION ( 'NONE',  ( 0.000000000000000000, 1.000000000000000000, 0.000000000000000000 ) ) ;
#15 = CARTESIAN_POINT ( 'NONE',  ( 32.40000000000000568, 0.000000000000000000, 10.00000000000000178 ) ) ;
#16 = ORIENTED_EDGE ( 'NONE', *, *, #456, .T. ) ;
#17 = DIRECTION ( 'NONE',  ( 1.000000000000000000, 2.029801947124842036E-17, -0.000000000000000000 ) ) ;
#18 = DIRECTION ( 'NONE',  ( 0.000000000000000000, 1.000000000000000000, 0.000000000000000000 ) ) ;
#19 = DIRECTION ( 'NONE',  ( 0.000000000000000000, 1.000000000000000000, 0.000000000000000000 ) ) ;
#20 = EDGE_LOOP ( 'NONE', ( #638, #634, #578, #566 ) ) ;
#21 = SURFACE_SIDE_STYLE ('',( #453 ) ) ;
#22 = AXIS2_PLACEMENT_3D ( 'NONE', #662, #80, #23 ) ;
#23 = DIRECTION ( 'NONE',  ( -1.000000000000000000, 0.000000000000000000, 0.000000000000000000 ) ) ;
#24 = DIRECTION ( 'NONE',  ( 0.000000000000000000, 1.000000000000000000, 0.000000000000000000 ) ) ;
#25 = ORIENTED_EDGE ( 'NONE', *, *, #221, .F. ) ;
#26 = DIRECTION ( 'NONE',  ( 1.000000000000000000, 1.046815890675659581E-16, -0.000000000000000000 ) ) ;
#27 = ADVANCED_FACE ( 'NONE', ( #590, #297, #802, #449, #99, #362 ), #580, .F. ) ;
#28 = CYLINDRICAL_SURFACE ( 'NONE', #677, 1.599999999999997202 ) ;
#29 = DIRECTION ( 'NONE',  ( 0.000000000000000000, 1.000000000000000000, 0.000000000000000000 ) ) ;
#30 = DIRECTION ( 'NONE',  ( -7.228014483236694583E-17, 1.000000000000000000, 0.000000000000000000 ) ) ;
#31 = EDGE_CURVE ( 'NONE', #78, #212, #167, .T. ) ;
#32 = ORIENTED_EDGE ( 'NONE', *, *, #487, .T. ) ;
#33 = EDGE_CURVE ( 'NONE', #268, #63, #125, .T. ) ;
#34 = PRESENTATION_STYLE_ASSIGNMENT (( #800 ) ) ;
#35 = EDGE_CURVE ( 'NONE', #771, #367, #227, .T. ) ;
#36 = DIRECTION ( 'NONE',  ( -1.141265444721583757E-16, 1.000000000000000000, 0.000000000000000000 ) ) ;
#37 = DIRECTION ( 'NONE',  ( -2.029801947124842961E-17, 1.000000000000000000, 0.000000000000000000 ) ) ;
#38 = LINE ( 'NONE', #245, #788 ) ;
#39 = AXIS2_PLACEMENT_3D ( 'NONE', #466, #393, #872 ) ;
#40 = VERTEX_POINT ( 'NONE', #174 ) ;
#41 = FACE_BOUND ( 'NONE', #479, .T. ) ;
#42 = CYLINDRICAL_SURFACE ( 'NONE', #789, 1.600000000000000755 ) ;
#43 = DIRECTION ( 'NONE',  ( 1.000000000000000000, 1.046815890675659581E-16, -0.000000000000000000 ) ) ;
#44 = DIRECTION ( 'NONE',  ( -1.141265444721583757E-16, 1.000000000000000000, -0.000000000000000000 ) ) ;
#45 = EDGE_LOOP ( 'NONE', ( #3, #750, #614, #259 ) ) ;
#46 = ADVANCED_FACE ( 'NONE', ( #724 ), #658, .F. ) ;
#47 = CARTESIAN_POINT ( 'NONE',  ( 35.60000000000000142, 0.000000000000000000, 40.00000000000000000 ) ) ;
#48 = DIRECTION ( 'NONE',  ( 0.000000000000000000, 1.000000000000000000, 0.000000000000000000 ) ) ;
#49 = VERTEX_POINT ( 'NONE', #738 ) ;
#50 = CARTESIAN_POINT ( 'NONE',  ( 3.000000000000000444, 23.34999999999999432, 43.00000000000000000 ) ) ;
#51 = DIRECTION ( 'NONE',  ( -1.000000000000000000, 0.000000000000000000, 0.000000000000000000 ) ) ;
#52 = EDGE_LOOP ( 'NONE', ( #685, #134, #145, #717 ) ) ;
#53 = AXIS2_PLACEMENT_3D ( 'NONE', #843, #135, #346 ) ;
#54 = AXIS2_PLACEMENT_3D ( 'NONE', #691, #565, #266 ) ;
#55 = DIRECTION ( 'NONE',  ( -1.141265444721583757E-16, 1.000000000000000000, 0.000000000000000000 ) ) ;
#56 = CYLINDRICAL_SURFACE ( 'NONE', #764, 1.600000000000000755 ) ;
#57 = AXIS2_PLACEMENT_3D ( 'NONE', #744, #823, #48 ) ;
#58 = ORIENTED_EDGE ( 'NONE', *, *, #815, .T. ) ;
#59 = EDGE_CURVE ( 'NONE', #212, #78, #331, .T. ) ;
#60 = CARTESIAN_POINT ( 'NONE',  ( 20.40000000000000924, -47.00000000000000711, 10.00000000000000000 ) ) ;
#61 = DIRECTION ( 'NONE',  ( -1.141265444721583757E-16, 1.000000000000000000, 0.000000000000000000 ) ) ;
#62 = EDGE_CURVE ( 'NONE', #506, #320, #104, .T. ) ;
#63 = VERTEX_POINT ( 'NONE', #587 ) ;
#64 = EDGE_CURVE ( 'NONE', #607, #305, #851, .T. ) ;
#65 = EDGE_CURVE ( 'NONE', #506, #688, #467, .T. ) ;
#66 = DIRECTION ( 'NONE',  ( 1.000000000000000000, 1.046815890675659581E-16, -0.000000000000000000 ) ) ;
#67 = ORIENTED_EDGE ( 'NONE', *, *, #767, .T. ) ;
#68 = VECTOR ( 'NONE', #93, 1000.000000000000000 ) ;
#69 = FACE_OUTER_BOUND ( 'NONE', #490, .T. ) ;
#70 = DIRECTION ( 'NONE',  ( 1.000000000000000000, 0.000000000000000000, 0.000000000000000000 ) ) ;
#71 = ORIENTED_EDGE ( 'NONE', *, *, #719, .T. ) ;
#72 = ORIENTED_EDGE ( 'NONE', *, *, #859, .T. ) ;
#73 = LINE ( 'NONE', #852, #660 ) ;
#74 = DIRECTION ( 'NONE',  ( -0.000000000000000000, -0.000000000000000000, -1.000000000000000000 ) ) ;
#75 = ORIENTED_EDGE ( 'NONE', *, *, #521, .T. ) ;
#76 = DIRECTION ( 'NONE',  ( 1.000000000000000000, 1.046815890675659458E-16, 0.000000000000000000 ) ) ;
#77 = SHAPE_DEFINITION_REPRESENTATION ( #846, #246 ) ;
#78 = VERTEX_POINT ( 'NONE', #728 ) ;
#79 = ORIENTED_EDGE ( 'NONE', *, *, #287, .T. ) ;
#80 = DIRECTION ( 'NONE',  ( -1.141265444721583757E-16, 1.000000000000000000, 0.000000000000000000 ) ) ;
#81 = EDGE_LOOP ( 'NONE', ( #824, #85, #288, #279 ) ) ;
#82 = AXIS2_PLACEMENT_3D ( 'NONE', #509, #231, #370 ) ;
#83 = CARTESIAN_POINT ( 'NONE',  ( 41.00000000000000000, 3.000000000000000000, 50.00000000000000000 ) ) ;
#84 = ORIENTED_EDGE ( 'NONE', *, *, #352, .T. ) ;
#85 = ORIENTED_EDGE ( 'NONE', *, *, #35, .T. ) ;
#86 = CARTESIAN_POINT ( 'NONE',  ( -47.00000000000000000, 7.199999999999991296, 43.00000000000000000 ) ) ;
#87 = CARTESIAN_POINT ( 'NONE',  ( -47.00000000000000000, 24.94999999999998508, 43.00000000000000000 ) ) ;
#88 = EDGE_LOOP ( 'NONE', ( #219, #745 ) ) ;
#89 = CARTESIAN_POINT ( 'NONE',  ( -47.00000000000000000, 10.07999999999998764, 23.23000000000000398 ) ) ;
#90 = CARTESIAN_POINT ( 'NONE',  ( 41.00000000000000000, 3.000000000000000000, 50.00000000000000000 ) ) ;
#91 = CIRCLE ( 'NONE', #414, 1.599999999999997202 ) ;
#92 = AXIS2_PLACEMENT_3D ( 'NONE', #280, #283, #132 ) ;
#93 = DIRECTION ( 'NONE',  ( -1.000000000000000000, 0.000000000000000000, 0.000000000000000000 ) ) ;
#94 = ORIENTED_EDGE ( 'NONE', *, *, #209, .T. ) ;
#95 = ADVANCED_FACE ( 'NONE', ( #794 ), #514, .F. ) ;
#96 = CIRCLE ( 'NONE', #648, 1.599999999999997202 ) ;
#97 = DIRECTION ( 'NONE',  ( -1.141265444721583757E-16, 1.000000000000000000, 0.000000000000000000 ) ) ;
#98 = EDGE_CURVE ( 'NONE', #664, #907, #161, .T. ) ;
#99 = FACE_BOUND ( 'NONE', #428, .T. ) ;
#100 = VERTEX_POINT ( 'NONE', #371 ) ;
#101 = DIRECTION ( 'NONE',  ( 1.000000000000000000, 2.029801947124842036E-17, -0.000000000000000000 ) ) ;
#102 = DIRECTION ( 'NONE',  ( 0.000000000000000000, -1.000000000000000000, 0.000000000000000000 ) ) ;
#103 = CARTESIAN_POINT ( 'NONE',  ( 34.00000000000000000, 0.000000000000000000, 10.00000000000000178 ) ) ;
#104 = LINE ( 'NONE', #381, #357 ) ;
#105 = VERTEX_POINT ( 'NONE', #319 ) ;
#106 = CARTESIAN_POINT ( 'NONE',  ( 3.000000000000001332, 14.47999999999999510, 9.470000000000000639 ) ) ;
#107 = DIRECTION ( 'NONE',  ( 0.000000000000000000, 1.000000000000000000, 0.000000000000000000 ) ) ;
#108 = CYLINDRICAL_SURFACE ( 'NONE', #273, 1.600000000000000755 ) ;
#109 = AXIS2_PLACEMENT_3D ( 'NONE', #889, #461, #821 ) ;
#110 = CARTESIAN_POINT ( 'NONE',  ( 2.999999999999999556, 32.00000000000000000, 50.00000000000000000 ) ) ;
#111 = EDGE_LOOP ( 'NONE', ( #460, #184, #739, #471, #699, #529 ) ) ;
#112 = CIRCLE ( 'NONE', #628, 1.599999999999997202 ) ;
#113 = EDGE_CURVE ( 'NONE', #397, #193, #600, .T. ) ;
#114 = DIRECTION ( 'NONE',  ( 0.000000000000000000, 1.000000000000000000, 0.000000000000000000 ) ) ;
#115 = DIRECTION ( 'NONE',  ( 1.000000000000000000, 1.046815890675659581E-16, -0.000000000000000000 ) ) ;
#116 = ORIENTED_EDGE ( 'NONE', *, *, #356, .T. ) ;
#117 = CARTESIAN_POINT ( 'NONE',  ( 22.00000000000000355, 0.000000000000000000, 40.00000000000000000 ) ) ;
#118 = CARTESIAN_POINT ( 'NONE',  ( 3.247683115399744300E-17, 23.34999999999999076, 43.00000000000000000 ) ) ;
#119 = VERTEX_POINT ( 'NONE', #533 ) ;
#120 = DIRECTION ( 'NONE',  ( 0.000000000000000000, 1.000000000000000000, 0.000000000000000000 ) ) ;
#121 = CARTESIAN_POINT ( 'NONE',  ( 34.00000000000000000, 2.999999999999999112, 10.00000000000000178 ) ) ;
#122 = ORIENTED_EDGE ( 'NONE', *, *, #352, .F. ) ;
#123 = AXIS2_PLACEMENT_3D ( 'NONE', #546, #262, #242 ) ;
#124 = EDGE_CURVE ( 'NONE', #100, #272, #38, .T. ) ;
#125 = CIRCLE ( 'NONE', #645, 1.600000000000002531 ) ;
#126 = EDGE_CURVE ( 'NONE', #768, #795, #555, .T. ) ;
#127 = CARTESIAN_POINT ( 'NONE',  ( 0.000000000000000000, 16.07999999999999474, 23.23000000000000398 ) ) ;
#128 = FACE_OUTER_BOUND ( 'NONE', #375, .T. ) ;
#129 = EDGE_CURVE ( 'NONE', #100, #2, #91, .T. ) ;
#130 = ORIENTED_EDGE ( 'NONE', *, *, #62, .T. ) ;
#131 = ADVANCED_FACE ( 'NONE', ( #746 ), #878, .T. ) ;
#132 = DIRECTION ( 'NONE',  ( 1.000000000000000000, 1.141265444721583757E-16, 0.000000000000000000 ) ) ;
#133 = DIRECTION ( 'NONE',  ( 1.000000000000000000, 1.046815890675659581E-16, -0.000000000000000000 ) ) ;
#134 = ORIENTED_EDGE ( 'NONE', *, *, #194, .F. ) ;
#135 = DIRECTION ( 'NONE',  ( 1.000000000000000000, 2.029801947124842036E-17, -0.000000000000000000 ) ) ;
#136 = CARTESIAN_POINT ( 'NONE',  ( -6.495366230799494516E-16, 32.00000000000000000, 0.000000000000000000 ) ) ;
#137 = ORIENTED_EDGE ( 'NONE', *, *, #619, .F. ) ;
#138 = AXIS2_PLACEMENT_3D ( 'NONE', #374, #102, #807 ) ;
#139 = LINE ( 'NONE', #777, #403 ) ;
#140 = DIRECTION ( 'NONE',  ( 2.029801947124842036E-17, -1.000000000000000000, 0.000000000000000000 ) ) ;
#141 = ORIENTED_EDGE ( 'NONE', *, *, #225, .T. ) ;
#142 = EDGE_LOOP ( 'NONE', ( #805, #355, #425, #705 ) ) ;
#143 = CARTESIAN_POINT ( 'NONE',  ( 3.000000000000001332, 16.07999999999999829, 33.89000000000000057 ) ) ;
#144 = VERTEX_POINT ( 'NONE', #106 ) ;
#145 = ORIENTED_EDGE ( 'NONE', *, *, #291, .T. ) ;
#146 = CARTESIAN_POINT ( 'NONE',  ( 3.000000000000002220, 7.199999999999996625, 43.00000000000000000 ) ) ;
#147 = ORIENTED_EDGE ( 'NONE', *, *, #35, .F. ) ;
#148 = ORIENTED_EDGE ( 'NONE', *, *, #198, .T. ) ;
#149 = CIRCLE ( 'NONE', #430, 1.599999999999997202 ) ;
#150 = DIRECTION ( 'NONE',  ( 0.000000000000000000, -0.000000000000000000, 1.000000000000000000 ) ) ;
#151 = VECTOR ( 'NONE', #4, 1000.000000000000000 ) ;
#152 = EDGE_CURVE ( 'NONE', #563, #78, #813, .T. ) ;
#153 = CARTESIAN_POINT ( 'NONE',  ( 0.000000000000000000, 7.199999999999996625, 43.00000000000000000 ) ) ;
#154 = ORIENTED_EDGE ( 'NONE', *, *, #261, .T. ) ;
#155 = ADVANCED_FACE ( 'NONE', ( #41, #368, #676, #882, #181, #898 ), #796, .F. ) ;
#156 = AXIS2_PLACEMENT_3D ( 'NONE', #624, #208, #505 ) ;
#157 = CARTESIAN_POINT ( 'NONE',  ( 2.999999999999999556, 32.00000000000000000, 50.00000000000000000 ) ) ;
#158 = DIRECTION ( 'NONE',  ( -1.141265444721583757E-16, 1.000000000000000000, -0.000000000000000000 ) ) ;
#159 = VERTEX_POINT ( 'NONE', #252 ) ;
#160 = FACE_BOUND ( 'NONE', #828, .T. ) ;
#161 = LINE ( 'NONE', #442, #68 ) ;
#162 = VERTEX_POINT ( 'NONE', #238 ) ;
#163 = CIRCLE ( 'NONE', #835, 6.000000000000001776 ) ;
#164 = CARTESIAN_POINT ( 'NONE',  ( 22.00000000000001066, -47.00000000000000711, 40.00000000000000000 ) ) ;
#165 = CIRCLE ( 'NONE', #185, 1.600000000000000755 ) ;
#166 = DIRECTION ( 'NONE',  ( 1.000000000000000000, 1.046815890675659458E-16, 0.000000000000000000 ) ) ;
#167 = CIRCLE ( 'NONE', #274, 6.000000000000001776 ) ;
#168 = ORIENTED_EDGE ( 'NONE', *, *, #290, .F. ) ;
#169 = AXIS2_PLACEMENT_3D ( 'NONE', #589, #302, #573 ) ;
#170 = DIRECTION ( 'NONE',  ( -0.000000000000000000, 0.000000000000000000, 1.000000000000000000 ) ) ;
#171 = MANIFOLD_SOLID_BREP ( 'Cut-Extrude2', #214 ) ;
#172 = LINE ( 'NONE', #531, #468 ) ;
#173 = LINE ( 'NONE', #668, #258 ) ;
#174 = CARTESIAN_POINT ( 'NONE',  ( 23.60000000000000142, 2.999999999999997780, 40.00000000000000000 ) ) ;
#175 = VERTEX_POINT ( 'NONE', #666 ) ;
#176 = CYLINDRICAL_SURFACE ( 'NONE', #109, 1.600000000000000755 ) ;
#177 = FACE_OUTER_BOUND ( 'NONE', #625, .T. ) ;
#178 = LINE ( 'NONE', #594, #837 ) ;
#179 = FACE_OUTER_BOUND ( 'NONE', #408, .T. ) ;
#180 = EDGE_LOOP ( 'NONE', ( #682, #285, #845, #734 ) ) ;
#181 = FACE_BOUND ( 'NONE', #778, .T. ) ;
#182 = FACE_BOUND ( 'NONE', #918, .T. ) ;
#183 = CARTESIAN_POINT ( 'NONE',  ( 0.000000000000000000, 16.07999999999999474, 33.89000000000000057 ) ) ;
#184 = ORIENTED_EDGE ( 'NONE', *, *, #192, .F. ) ;
#185 = AXIS2_PLACEMENT_3D ( 'NONE', #698, #413, #627 ) ;
#186 = CIRCLE ( 'NONE', #304, 1.599999999999997202 ) ;
#187 = DIRECTION ( 'NONE',  ( -2.029801947124843577E-17, 1.000000000000000000, 0.000000000000000000 ) ) ;
#188 = FACE_OUTER_BOUND ( 'NONE', #142, .T. ) ;
#189 = EDGE_LOOP ( 'NONE', ( #116, #849 ) ) ;
#190 = CYLINDRICAL_SURFACE ( 'NONE', #213, 6.000000000000001776 ) ;
#191 = DIRECTION ( 'NONE',  ( 1.000000000000000000, 0.000000000000000000, 0.000000000000000000 ) ) ;
#192 = EDGE_CURVE ( 'NONE', #162, #897, #314, .T. ) ;
#193 = VERTEX_POINT ( 'NONE', #603 ) ;
#194 = EDGE_CURVE ( 'NONE', #857, #563, #163, .T. ) ;
#195 = ADVANCED_FACE ( 'NONE', ( #530 ), #176, .F. ) ;
#196 = DIRECTION ( 'NONE',  ( -1.000000000000000000, 0.000000000000000000, 0.000000000000000000 ) ) ;
#197 = DIRECTION ( 'NONE',  ( -0.000000000000000000, -0.000000000000000000, -1.000000000000000000 ) ) ;
#198 = EDGE_CURVE ( 'NONE', #281, #144, #271, .T. ) ;
#199 = ORIENTED_EDGE ( 'NONE', *, *, #747, .F. ) ;
#200 = AXIS2_PLACEMENT_3D ( 'NONE', #117, #120, #398 ) ;
#201 = PRODUCT ( 'p4', 'p4', '', ( #204 ) ) ;
#202 = VECTOR ( 'NONE', #702, 1000.000000000000000 ) ;
#203 = DIRECTION ( 'NONE',  ( 0.000000000000000000, 1.000000000000000000, 0.000000000000000000 ) ) ;
#204 = PRODUCT_CONTEXT ( 'NONE', #742, 'mechanical' ) ;
#205 = ORIENTED_EDGE ( 'NONE', *, *, #198, .F. ) ;
#206 = UNCERTAINTY_MEASURE_WITH_UNIT (LENGTH_MEASURE( 1.000000000000000082E-05 ), #766, 'distance_accuracy_value', 'NONE');
#207 = DIRECTION ( 'NONE',  ( -1.141265444721583757E-16, 1.000000000000000000, -0.000000000000000000 ) ) ;
#208 = DIRECTION ( 'NONE',  ( -1.000000000000000000, 0.000000000000000000, 0.000000000000000000 ) ) ;
#209 = EDGE_CURVE ( 'NONE', #429, #40, #914, .T. ) ;
#210 = EDGE_LOOP ( 'NONE', ( #704, #780 ) ) ;
#211 = DIRECTION ( 'NONE',  ( -2.029801947124842344E-17, 1.000000000000000000, 0.000000000000000000 ) ) ;
#212 = VERTEX_POINT ( 'NONE', #525 ) ;
#213 = AXIS2_PLACEMENT_3D ( 'NONE', #248, #542, #599 ) ;
#214 = CLOSED_SHELL ( 'NONE', ( #715, #46, #812, #893, #384, #779, #275, #622, #485, #27, #650, #890, #455, #155, #223, #131, #819, #95, #539, #195, #816, #518, #321, #868, #220, #621 ) ) ;
#215 = CARTESIAN_POINT ( 'NONE',  ( 22.00000000000000355, 2.999999999999997780, 10.00000000000000000 ) ) ;
#216 = ORIENTED_EDGE ( 'NONE', *, *, #209, .F. ) ;
#217 = AXIS2_PLACEMENT_3D ( 'NONE', #432, #654, #14 ) ;
#218 = DIRECTION ( 'NONE',  ( 0.000000000000000000, 1.000000000000000000, 0.000000000000000000 ) ) ;
#219 = ORIENTED_EDGE ( 'NONE', *, *, #378, .T. ) ;
#220 = ADVANCED_FACE ( 'NONE', ( #387 ), #28, .F. ) ;
#221 = EDGE_CURVE ( 'NONE', #651, #631, #557, .T. ) ;
#222 = CARTESIAN_POINT ( 'NONE',  ( 41.00000000000000000, 3.000000000000000000, 50.00000000000000000 ) ) ;
#223 = ADVANCED_FACE ( 'NONE', ( #736 ), #240, .F. ) ;
#224 = DIRECTION ( 'NONE',  ( 0.000000000000000000, 0.000000000000000000, 1.000000000000000000 ) ) ;
#225 = EDGE_CURVE ( 'NONE', #2, #159, #172, .T. ) ;
#226 = CARTESIAN_POINT ( 'NONE',  ( 22.00000000000000355, 0.000000000000000000, 10.00000000000000000 ) ) ;
#227 = LINE ( 'NONE', #458, #729 ) ;
#228 = AXIS2_PLACEMENT_3D ( 'NONE', #143, #76, #353 ) ;
#229 = ORIENTED_EDGE ( 'NONE', *, *, #33, .T. ) ;
#230 = CARTESIAN_POINT ( 'NONE',  ( 22.00000000000000355, 2.999999999999997780, 40.00000000000000000 ) ) ;
#231 = DIRECTION ( 'NONE',  ( -1.141265444721583757E-16, 1.000000000000000000, -0.000000000000000000 ) ) ;
#232 = VERTEX_POINT ( 'NONE', #741 ) ;
#233 = EDGE_LOOP ( 'NONE', ( #785, #122, #560, #721 ) ) ;
#234 = DIRECTION ( 'NONE',  ( 1.046815890675659458E-16, -1.000000000000000000, 0.000000000000000000 ) ) ;
#235 = CARTESIAN_POINT ( 'NONE',  ( 3.000000000000001332, 16.07999999999999829, 33.89000000000000057 ) ) ;
#236 = EDGE_LOOP ( 'NONE', ( #675, #308 ) ) ;
#237 = ORIENTED_EDGE ( 'NONE', *, *, #489, .T. ) ;
#238 = CARTESIAN_POINT ( 'NONE',  ( 2.999999999999999556, 32.00000000000000000, 0.000000000000000000 ) ) ;
#239 = STYLED_ITEM ( 'NONE', ( #34 ), #171 ) ;
#240 = PLANE ( 'NONE',  #138 ) ;
#241 = AXIS2_PLACEMENT_3D ( 'NONE', #349, #269, #196 ) ;
#242 = DIRECTION ( 'NONE',  ( -2.029801947124843885E-17, 1.000000000000000000, 0.000000000000000000 ) ) ;
#243 = ORIENTED_EDGE ( 'NONE', *, *, #292, .T. ) ;
#244 = ORIENTED_EDGE ( 'NONE', *, *, #652, .T. ) ;
#245 = CARTESIAN_POINT ( 'NONE',  ( 35.60000000000000853, -47.00000000000000000, 10.00000000000000178 ) ) ;
#246 = ADVANCED_BREP_SHAPE_REPRESENTATION ( 'p4', ( #171, #874 ), #394 ) ;
#247 = CARTESIAN_POINT ( 'NONE',  ( -47.00000000000000000, 24.94999999999998508, 43.00000000000000000 ) ) ;
#248 = CARTESIAN_POINT ( 'NONE',  ( -47.00000000000000000, 16.07999999999999119, 23.23000000000000398 ) ) ;
#249 = DIRECTION ( 'NONE',  ( -0.000000000000000000, -0.000000000000000000, -1.000000000000000000 ) ) ;
#250 = CYLINDRICAL_SURFACE ( 'NONE', #472, 2.049999999999992717 ) ;
#251 = ORIENTED_EDGE ( 'NONE', *, *, #711, .F. ) ;
#252 = CARTESIAN_POINT ( 'NONE',  ( 32.40000000000000568, 2.999999999999999112, 10.00000000000000178 ) ) ;
#253 = FACE_BOUND ( 'NONE', #13, .T. ) ;
#254 = PLANE ( 'NONE',  #615 ) ;
#255 = EDGE_LOOP ( 'NONE', ( #763, #376 ) ) ;
#256 = LINE ( 'NONE', #817, #583 ) ;
#257 = CARTESIAN_POINT ( 'NONE',  ( 0.000000000000000000, 0.000000000000000000, 0.000000000000000000 ) ) ;
#258 = VECTOR ( 'NONE', #332, 1000.000000000000000 ) ;
#259 = ORIENTED_EDGE ( 'NONE', *, *, #287, .F. ) ;
#260 = CIRCLE ( 'NONE', #841, 1.600000000000002531 ) ;
#261 = EDGE_CURVE ( 'NONE', #397, #665, #379, .T. ) ;
#262 = DIRECTION ( 'NONE',  ( 1.000000000000000000, 2.029801947124842036E-17, -0.000000000000000000 ) ) ;
#263 = CARTESIAN_POINT ( 'NONE',  ( 34.00000000000000000, 2.999999999999999112, 10.00000000000000178 ) ) ;
#264 = ORIENTED_EDGE ( 'NONE', *, *, #551, .F. ) ;
#265 = EDGE_CURVE ( 'NONE', #144, #281, #641, .T. ) ;
#266 = DIRECTION ( 'NONE',  ( 0.000000000000000000, 1.000000000000000000, 0.000000000000000000 ) ) ;
#267 = DIRECTION ( 'NONE',  ( -0.000000000000000000, 0.000000000000000000, 1.000000000000000000 ) ) ;
#268 = VERTEX_POINT ( 'NONE', #316 ) ;
#269 = DIRECTION ( 'NONE',  ( -1.141265444721583757E-16, 1.000000000000000000, -0.000000000000000000 ) ) ;
#270 = PRODUCT_RELATED_PRODUCT_CATEGORY ( 'part', '', ( #201 ) ) ;
#271 = CIRCLE ( 'NONE', #39, 1.600000000000000755 ) ;
#272 = VERTEX_POINT ( 'NONE', #598 ) ;
#273 = AXIS2_PLACEMENT_3D ( 'NONE', #894, #311, #114 ) ;
#274 = AXIS2_PLACEMENT_3D ( 'NONE', #886, #810, #30 ) ;
#275 = ADVANCED_FACE ( 'NONE', ( #177 ), #42, .F. ) ;
#276 = LINE ( 'NONE', #562, #643 ) ;
#277 = VECTOR ( 'NONE', #140, 1000.000000000000000 ) ;
#278 = ORIENTED_EDGE ( 'NONE', *, *, #604, .T. ) ;
#279 = ORIENTED_EDGE ( 'NONE', *, *, #364, .F. ) ;
#280 = CARTESIAN_POINT ( 'NONE',  ( 41.00000000000000000, 3.000000000000000000, 50.00000000000000000 ) ) ;
#281 = VERTEX_POINT ( 'NONE', #462 ) ;
#282 = VERTEX_POINT ( 'NONE', #680 ) ;
#283 = DIRECTION ( 'NONE',  ( 1.141265444721583757E-16, -1.000000000000000000, 0.000000000000000000 ) ) ;
#284 = ORIENTED_EDGE ( 'NONE', *, *, #64, .F. ) ;
#285 = ORIENTED_EDGE ( 'NONE', *, *, #378, .F. ) ;
#286 = FACE_BOUND ( 'NONE', #465, .T. ) ;
#287 = EDGE_CURVE ( 'NONE', #607, #774, #173, .T. ) ;
#288 = ORIENTED_EDGE ( 'NONE', *, *, #616, .T. ) ;
#289 = AXIS2_PLACEMENT_3D ( 'NONE', #684, #61, #538 ) ;
#290 = EDGE_CURVE ( 'NONE', #688, #415, #256, .T. ) ;
#291 = EDGE_CURVE ( 'NONE', #857, #212, #537, .T. ) ;
#292 = EDGE_CURVE ( 'NONE', #2, #100, #149, .T. ) ;
#293 = DIRECTION ( 'NONE',  ( 0.000000000000000000, 1.000000000000000000, 0.000000000000000000 ) ) ;
#294 = DIRECTION ( 'NONE',  ( 1.000000000000000000, 2.029801947124842036E-17, -0.000000000000000000 ) ) ;
#295 = ORIENTED_EDGE ( 'NONE', *, *, #559, .T. ) ;
#296 = LINE ( 'NONE', #579, #892 ) ;
#297 = FACE_BOUND ( 'NONE', #210, .T. ) ;
#298 = EDGE_LOOP ( 'NONE', ( #351, #548, #141, #515 ) ) ;
#299 = CARTESIAN_POINT ( 'NONE',  ( 0.000000000000000000, 0.000000000000000000, 50.00000000000000000 ) ) ;
#300 = AXIS2_PLACEMENT_3D ( 'NONE', #726, #17, #385 ) ;
#301 = CIRCLE ( 'NONE', #773, 1.600000000000000755 ) ;
#302 = DIRECTION ( 'NONE',  ( 1.000000000000000000, 1.046815890675659458E-16, 0.000000000000000000 ) ) ;
#303 = CARTESIAN_POINT ( 'NONE',  ( 3.000000000000001332, 16.07999999999999829, 23.23000000000000398 ) ) ;
#304 = AXIS2_PLACEMENT_3D ( 'NONE', #121, #339, #681 ) ;
#305 = VERTEX_POINT ( 'NONE', #47 ) ;
#306 = FACE_OUTER_BOUND ( 'NONE', #567, .T. ) ;
#307 = ORIENTED_EDGE ( 'NONE', *, *, #265, .F. ) ;
#308 = ORIENTED_EDGE ( 'NONE', *, *, #31, .F. ) ;
#309 = DIRECTION ( 'NONE',  ( -1.000000000000000000, -1.046815890675659458E-16, 0.000000000000000000 ) ) ;
#310 = DIRECTION ( 'NONE',  ( 0.000000000000000000, 1.000000000000000000, 0.000000000000000000 ) ) ;
#311 = DIRECTION ( 'NONE',  ( 1.000000000000000000, 1.046815890675659581E-16, -0.000000000000000000 ) ) ;
#312 = DIRECTION ( 'NONE',  ( 0.000000000000000000, 1.000000000000000000, 0.000000000000000000 ) ) ;
#313 = EDGE_LOOP ( 'NONE', ( #707, #443, #496, #344 ) ) ;
#314 = LINE ( 'NONE', #806, #333 ) ;
#315 = COLOUR_RGB ( '',0.7921568627450980005, 0.8196078431372548767, 0.9333333333333333481 ) ;
#316 = CARTESIAN_POINT ( 'NONE',  ( 23.60000000000000142, 0.000000000000000000, 10.00000000000000000 ) ) ;
#317 = VECTOR ( 'NONE', #324, 1000.000000000000000 ) ;
#318 = DIRECTION ( 'NONE',  ( 1.000000000000000000, 1.046815890675659581E-16, -0.000000000000000000 ) ) ;
#319 = CARTESIAN_POINT ( 'NONE',  ( 3.000000000000000444, 26.54999999999999005, 43.00000000000000000 ) ) ;
#320 = VERTEX_POINT ( 'NONE', #743 ) ;
#321 = ADVANCED_FACE ( 'NONE', ( #829 ), #190, .F. ) ;
#322 = CIRCLE ( 'NONE', #663, 1.599999999999997202 ) ;
#323 = EDGE_CURVE ( 'NONE', #49, #10, #301, .T. ) ;
#324 = DIRECTION ( 'NONE',  ( 1.000000000000000000, 1.046815890675659581E-16, -0.000000000000000000 ) ) ;
#325 = CARTESIAN_POINT ( 'NONE',  ( -4.161093991605912600E-17, 18.12999999999998479, 33.89000000000000057 ) ) ;
#326 = ORIENTED_EDGE ( 'NONE', *, *, #553, .F. ) ;
#327 = UNCERTAINTY_MEASURE_WITH_UNIT (LENGTH_MEASURE( 1.000000000000000082E-05 ), #444, 'distance_accuracy_value', 'NONE');
#328 = DIRECTION ( 'NONE',  ( 0.000000000000000000, 1.000000000000000000, 0.000000000000000000 ) ) ;
#329 = DIRECTION ( 'NONE',  ( 1.000000000000000000, 2.029801947124842036E-17, -0.000000000000000000 ) ) ;
#330 = ORIENTED_EDGE ( 'NONE', *, *, #888, .T. ) ;
#331 = CIRCLE ( 'NONE', #760, 6.000000000000001776 ) ;
#332 = DIRECTION ( 'NONE',  ( -1.141265444721583757E-16, 1.000000000000000000, -0.000000000000000000 ) ) ;
#333 = VECTOR ( 'NONE', #735, 1000.000000000000000 ) ;
#334 = DIRECTION ( 'NONE',  ( 1.000000000000000000, 1.046815890675659581E-16, -0.000000000000000000 ) ) ;
#335 = AXIS2_PLACEMENT_3D ( 'NONE', #679, #36, #446 ) ;
#336 = EDGE_LOOP ( 'NONE', ( #25, #582 ) ) ;
#337 = CIRCLE ( 'NONE', #447, 1.600000000000000755 ) ;
#338 = LINE ( 'NONE', #418, #202 ) ;
#339 = DIRECTION ( 'NONE',  ( -1.141265444721583757E-16, 1.000000000000000000, 0.000000000000000000 ) ) ;
#340 = ORIENTED_EDGE ( 'NONE', *, *, #690, .F. ) ;
#341 = DIRECTION ( 'NONE',  ( -0.000000000000000000, -0.000000000000000000, -1.000000000000000000 ) ) ;
#342 = ORIENTED_EDGE ( 'NONE', *, *, #554, .F. ) ;
#343 = CYLINDRICAL_SURFACE ( 'NONE', #241, 1.599999999999997202 ) ;
#344 = ORIENTED_EDGE ( 'NONE', *, *, #653, .T. ) ;
#345 = AXIS2_PLACEMENT_3D ( 'NONE', #814, #672, #310 ) ;
#346 = DIRECTION ( 'NONE',  ( -2.029801947124843577E-17, 1.000000000000000000, 0.000000000000000000 ) ) ;
#347 = APPLICATION_PROTOCOL_DEFINITION ( 'draft international standard', 'automotive_design', 1998, #424 ) ;
#348 = EDGE_LOOP ( 'NONE', ( #588, #656, #494, #84 ) ) ;
#349 = CARTESIAN_POINT ( 'NONE',  ( 34.00000000000000711, -47.00000000000000000, 10.00000000000000178 ) ) ;
#350 = CARTESIAN_POINT ( 'NONE',  ( -6.495366230799494516E-16, 32.00000000000000000, 0.000000000000000000 ) ) ;
#351 = ORIENTED_EDGE ( 'NONE', *, *, #124, .F. ) ;
#352 = EDGE_CURVE ( 'NONE', #907, #897, #380, .T. ) ;
#353 = DIRECTION ( 'NONE',  ( 0.000000000000000000, 1.000000000000000000, 0.000000000000000000 ) ) ;
#354 = EDGE_CURVE ( 'NONE', #305, #607, #757, .T. ) ;
#355 = ORIENTED_EDGE ( 'NONE', *, *, #853, .T. ) ;
#356 = EDGE_CURVE ( 'NONE', #439, #232, #854, .T. ) ;
#357 = VECTOR ( 'NONE', #674, 1000.000000000000000 ) ;
#358 = CARTESIAN_POINT ( 'NONE',  ( 22.00000000000000355, 0.000000000000000000, 40.00000000000000000 ) ) ;
#359 = EDGE_LOOP ( 'NONE', ( #147, #383, #574, #417 ) ) ;
#360 = ORIENTED_EDGE ( 'NONE', *, *, #129, .T. ) ;
#361 = FACE_OUTER_BOUND ( 'NONE', #45, .T. ) ;
#362 = FACE_OUTER_BOUND ( 'NONE', #348, .T. ) ;
#363 = EDGE_LOOP ( 'NONE', ( #575, #405, #58, #913 ) ) ;
#364 = EDGE_CURVE ( 'NONE', #862, #105, #686, .T. ) ;
#365 = CYLINDRICAL_SURFACE ( 'NONE', #82, 1.599999999999997202 ) ;
#366 = DIRECTION ( 'NONE',  ( 1.000000000000000000, 1.046815890675659581E-16, -0.000000000000000000 ) ) ;
#367 = VERTEX_POINT ( 'NONE', #50 ) ;
#368 = FACE_BOUND ( 'NONE', #722, .T. ) ;
#369 = CIRCLE ( 'NONE', #716, 1.599999999999997202 ) ;
#370 = DIRECTION ( 'NONE',  ( -1.000000000000000000, 0.000000000000000000, 0.000000000000000000 ) ) ;
#371 = CARTESIAN_POINT ( 'NONE',  ( 35.60000000000000142, 0.000000000000000000, 10.00000000000000178 ) ) ;
#372 = ORIENTED_EDGE ( 'NONE', *, *, #523, .T. ) ;
#373 = AXIS2_PLACEMENT_3D ( 'NONE', #861, #133, #493 ) ;
#374 = CARTESIAN_POINT ( 'NONE',  ( 2.999999999999999556, 32.00000000000000000, 50.00000000000000000 ) ) ;
#375 = EDGE_LOOP ( 'NONE', ( #392, #436, #498, #629 ) ) ;
#376 = ORIENTED_EDGE ( 'NONE', *, *, #551, .T. ) ;
#377 = DIRECTION ( 'NONE',  ( 0.000000000000000000, 1.000000000000000000, 0.000000000000000000 ) ) ;
#378 = EDGE_CURVE ( 'NONE', #688, #506, #804, .T. ) ;
#379 = LINE ( 'NONE', #667, #388 ) ;
#380 = LINE ( 'NONE', #474, #825 ) ;
#381 = CARTESIAN_POINT ( 'NONE',  ( -47.00000000000000000, 5.599999999999993427, 43.00000000000000000 ) ) ;
#382 = EDGE_CURVE ( 'NONE', #415, #320, #369, .T. ) ;
#383 = ORIENTED_EDGE ( 'NONE', *, *, #786, .F. ) ;
#384 = ADVANCED_FACE ( 'NONE', ( #612 ), #108, .F. ) ;
#385 = DIRECTION ( 'NONE',  ( -2.029801947124842652E-17, 1.000000000000000000, 0.000000000000000000 ) ) ;
#386 = EDGE_CURVE ( 'NONE', #305, #571, #178, .T. ) ;
#387 = FACE_OUTER_BOUND ( 'NONE', #359, .T. ) ;
#388 = VECTOR ( 'NONE', #883, 1000.000000000000000 ) ;
#389 = CARTESIAN_POINT ( 'NONE',  ( 20.40000000000000213, 2.999999999999997780, 40.00000000000000000 ) ) ;
#390 = VECTOR ( 'NONE', #66, 1000.000000000000000 ) ;
#391 = DIRECTION ( 'NONE',  ( 0.000000000000000000, 0.000000000000000000, 1.000000000000000000 ) ) ;
#392 = ORIENTED_EDGE ( 'NONE', *, *, #456, .F. ) ;
#393 = DIRECTION ( 'NONE',  ( 1.000000000000000000, 1.046815890675659458E-16, 0.000000000000000000 ) ) ;
#394 =( GEOMETRIC_REPRESENTATION_CONTEXT ( 3 ) GLOBAL_UNCERTAINTY_ASSIGNED_CONTEXT ( ( #206 ) ) GLOBAL_UNIT_ASSIGNED_CONTEXT ( ( #766, #501, #423 ) ) REPRESENTATION_CONTEXT ( 'NONE', 'WORKASPACE' ) );
#395 = CARTESIAN_POINT ( 'NONE',  ( 20.40000000000000213, 0.000000000000000000, 40.00000000000000000 ) ) ;
#396 = LINE ( 'NONE', #257, #792 ) ;
#397 = VERTEX_POINT ( 'NONE', #885 ) ;
#398 = DIRECTION ( 'NONE',  ( 0.000000000000000000, 0.000000000000000000, 1.000000000000000000 ) ) ;
#399 = LINE ( 'NONE', #687, #419 ) ;
#400 = ORIENTED_EDGE ( 'NONE', *, *, #261, .F. ) ;
#401 = VECTOR ( 'NONE', #26, 1000.000000000000000 ) ;
#402 = FACE_OUTER_BOUND ( 'NONE', #864, .T. ) ;
#403 = VECTOR ( 'NONE', #549, 1000.000000000000000 ) ;
#404 = CYLINDRICAL_SURFACE ( 'NONE', #732, 1.600000000000000755 ) ;
#405 = ORIENTED_EDGE ( 'NONE', *, *, #124, .T. ) ;
#406 = CYLINDRICAL_SURFACE ( 'NONE', #54, 1.600000000000000755 ) ;
#407 = LINE ( 'NONE', #550, #11 ) ;
#408 = EDGE_LOOP ( 'NONE', ( #910, #199, #775, #881 ) ) ;
#409 = CARTESIAN_POINT ( 'NONE',  ( -47.00000000000000000, 18.12999999999998124, 33.89000000000000057 ) ) ;
#410 = LINE ( 'NONE', #350, #277 ) ;
#411 = ORIENTED_EDGE ( 'NONE', *, *, #64, .T. ) ;
#412 = EDGE_CURVE ( 'NONE', #771, #862, #497, .T. ) ;
#413 = DIRECTION ( 'NONE',  ( -1.141265444721583757E-16, 1.000000000000000000, 0.000000000000000000 ) ) ;
#414 = AXIS2_PLACEMENT_3D ( 'NONE', #740, #377, #516 ) ;
#415 = VERTEX_POINT ( 'NONE', #526 ) ;
#416 = AXIS2_PLACEMENT_3D ( 'NONE', #608, #822, #37 ) ;
#417 = ORIENTED_EDGE ( 'NONE', *, *, #647, .T. ) ;
#418 = CARTESIAN_POINT ( 'NONE',  ( 41.00000000000000000, 3.000000000000000000, 0.000000000000000000 ) ) ;
#419 = VECTOR ( 'NONE', #601, 1000.000000000000000 ) ;
#420 = ORIENTED_EDGE ( 'NONE', *, *, #459, .F. ) ;
#421 = EDGE_LOOP ( 'NONE', ( #75, #904, #400, #535 ) ) ;
#422 = DIRECTION ( 'NONE',  ( 1.000000000000000000, 1.046815890675659458E-16, 0.000000000000000000 ) ) ;
#423 =( NAMED_UNIT ( * ) SI_UNIT ( $, .STERADIAN. ) SOLID_ANGLE_UNIT ( ) );
#424 = APPLICATION_CONTEXT ( 'automotive_design' ) ;
#425 = ORIENTED_EDGE ( 'NONE', *, *, #700, .T. ) ;
#426 = DIRECTION ( 'NONE',  ( 0.000000000000000000, 1.000000000000000000, 0.000000000000000000 ) ) ;
#427 = LINE ( 'NONE', #703, #842 ) ;
#428 = EDGE_LOOP ( 'NONE', ( #540, #519 ) ) ;
#429 = VERTEX_POINT ( 'NONE', #389 ) ;
#430 = AXIS2_PLACEMENT_3D ( 'NONE', #103, #754, #469 ) ;
#431 = AXIS2_PLACEMENT_3D ( 'NONE', #87, #366, #19 ) ;
#432 = CARTESIAN_POINT ( 'NONE',  ( -47.00000000000000000, 7.199999999999991296, 43.00000000000000000 ) ) ;
#433 = AXIS2_PLACEMENT_3D ( 'NONE', #86, #793, #426 ) ;
#434 = CIRCLE ( 'NONE', #228, 2.049999999999992717 ) ;
#435 = DIRECTION ( 'NONE',  ( -2.029801947124842961E-17, 1.000000000000000000, 0.000000000000000000 ) ) ;
#436 = ORIENTED_EDGE ( 'NONE', *, *, #719, .F. ) ;
#437 = DIRECTION ( 'NONE',  ( 1.000000000000000000, 1.046815890675659458E-16, 0.000000000000000000 ) ) ;
#438 = DIRECTION ( 'NONE',  ( -1.000000000000000000, 0.000000000000000000, 0.000000000000000000 ) ) ;
#439 = VERTEX_POINT ( 'NONE', #395 ) ;
#440 =( NAMED_UNIT ( * ) SI_UNIT ( $, .STERADIAN. ) SOLID_ANGLE_UNIT ( ) );
#441 = DIRECTION ( 'NONE',  ( -1.000000000000000000, -1.141265444721583757E-16, 0.000000000000000000 ) ) ;
#442 = CARTESIAN_POINT ( 'NONE',  ( 2.999999999999999556, 32.00000000000000000, 50.00000000000000000 ) ) ;
#443 = ORIENTED_EDGE ( 'NONE', *, *, #888, .F. ) ;
#444 =( LENGTH_UNIT ( ) NAMED_UNIT ( * ) SI_UNIT ( .MILLI., .METRE. ) );
#445 = VECTOR ( 'NONE', #43, 1000.000000000000000 ) ;
#446 = DIRECTION ( 'NONE',  ( -1.000000000000000000, 0.000000000000000000, 0.000000000000000000 ) ) ;
#447 = AXIS2_PLACEMENT_3D ( 'NONE', #215, #55, #556 ) ;
#448 = AXIS2_PLACEMENT_3D ( 'NONE', #527, #294, #669 ) ;
#449 = FACE_BOUND ( 'NONE', #255, .T. ) ;
#450 = CIRCLE ( 'NONE', #289, 1.599999999999997202 ) ;
#451 = ORIENTED_EDGE ( 'NONE', *, *, #700, .F. ) ;
#452 = EDGE_CURVE ( 'NONE', #10, #281, #809, .T. ) ;
#453 = SURFACE_STYLE_FILL_AREA ( #522 ) ;
#454 = DIRECTION ( 'NONE',  ( -1.000000000000000000, 0.000000000000000000, 0.000000000000000000 ) ) ;
#455 = ADVANCED_FACE ( 'NONE', ( #605, #899, #253, #182, #832 ), #769, .F. ) ;
#456 = EDGE_CURVE ( 'NONE', #268, #631, #139, .T. ) ;
#457 = CARTESIAN_POINT ( 'NONE',  ( -47.00000000000000000, 17.67999999999999261, 9.470000000000000639 ) ) ;
#458 = CARTESIAN_POINT ( 'NONE',  ( -47.00000000000000000, 23.34999999999998721, 43.00000000000000000 ) ) ;
#459 = EDGE_CURVE ( 'NONE', #10, #49, #6, .T. ) ;
#460 = ORIENTED_EDGE ( 'NONE', *, *, #917, .F. ) ;
#461 = DIRECTION ( 'NONE',  ( -1.141265444721583757E-16, 1.000000000000000000, -0.000000000000000000 ) ) ;
#462 = CARTESIAN_POINT ( 'NONE',  ( 3.000000000000001332, 17.67999999999999616, 9.470000000000000639 ) ) ;
#463 = CARTESIAN_POINT ( 'NONE',  ( 3.000000000000002220, 7.199999999999996625, 43.00000000000000000 ) ) ;
#464 = DIRECTION ( 'NONE',  ( 1.000000000000000000, 2.029801947124842036E-17, -0.000000000000000000 ) ) ;
#465 = EDGE_LOOP ( 'NONE', ( #243, #360 ) ) ;
#466 = CARTESIAN_POINT ( 'NONE',  ( 3.000000000000001332, 16.07999999999999829, 9.470000000000000639 ) ) ;
#467 = CIRCLE ( 'NONE', #480, 1.599999999999997202 ) ;
#468 = VECTOR ( 'NONE', #801, 1000.000000000000000 ) ;
#469 = DIRECTION ( 'NONE',  ( 0.000000000000000000, 0.000000000000000000, 1.000000000000000000 ) ) ;
#470 = CARTESIAN_POINT ( 'NONE',  ( 4.161093991605913217E-17, 14.03000000000000114, 33.89000000000000057 ) ) ;
#471 = ORIENTED_EDGE ( 'NONE', *, *, #491, .F. ) ;
#472 = AXIS2_PLACEMENT_3D ( 'NONE', #534, #115, #761 ) ;
#473 = PRODUCT_DEFINITION_FORMATION_WITH_SPECIFIED_SOURCE ( 'ANY', '', #201, .NOT_KNOWN. ) ;
#474 = CARTESIAN_POINT ( 'NONE',  ( -6.495366230799494516E-16, 32.00000000000000000, 50.00000000000000000 ) ) ;
#475 = CARTESIAN_POINT ( 'NONE',  ( 32.40000000000000568, 2.999999999999999112, 40.00000000000000000 ) ) ;
#476 = ORIENTED_EDGE ( 'NONE', *, *, #884, .F. ) ;
#477 = DIRECTION ( 'NONE',  ( 0.000000000000000000, 0.000000000000000000, 1.000000000000000000 ) ) ;
#478 = DIRECTION ( 'NONE',  ( -1.141265444721583757E-16, 1.000000000000000000, -0.000000000000000000 ) ) ;
#479 = EDGE_LOOP ( 'NONE', ( #811, #137 ) ) ;
#480 = AXIS2_PLACEMENT_3D ( 'NONE', #153, #508, #435 ) ;
#481 = LINE ( 'NONE', #1, #483 ) ;
#482 = LINE ( 'NONE', #110, #873 ) ;
#483 = VECTOR ( 'NONE', #203, 1000.000000000000000 ) ;
#484 = ORIENTED_EDGE ( 'NONE', *, *, #386, .F. ) ;
#485 = ADVANCED_FACE ( 'NONE', ( #706 ), #343, .F. ) ;
#486 = CIRCLE ( 'NONE', #632, 1.599999999999997202 ) ;
#487 = EDGE_CURVE ( 'NONE', #40, #429, #165, .T. ) ;
#488 = CARTESIAN_POINT ( 'NONE',  ( 20.40000000000000924, -47.00000000000000711, 40.00000000000000000 ) ) ;
#489 = EDGE_CURVE ( 'NONE', #631, #651, #337, .T. ) ;
#490 = EDGE_LOOP ( 'NONE', ( #596, #420, #552, #148 ) ) ;
#491 = EDGE_CURVE ( 'NONE', #733, #637, #338, .T. ) ;
#492 = CARTESIAN_POINT ( 'NONE',  ( 32.40000000000000568, 0.000000000000000000, 40.00000000000000000 ) ) ;
#493 = DIRECTION ( 'NONE',  ( 0.000000000000000000, 1.000000000000000000, 0.000000000000000000 ) ) ;
#494 = ORIENTED_EDGE ( 'NONE', *, *, #781, .F. ) ;
#495 = LINE ( 'NONE', #488, #524 ) ;
#496 = ORIENTED_EDGE ( 'NONE', *, *, #652, .F. ) ;
#497 = CIRCLE ( 'NONE', #123, 1.599999999999997202 ) ;
#498 = ORIENTED_EDGE ( 'NONE', *, *, #554, .T. ) ;
#499 = VECTOR ( 'NONE', #7, 1000.000000000000000 ) ;
#500 = LINE ( 'NONE', #60, #791 ) ;
#501 =( NAMED_UNIT ( * ) PLANE_ANGLE_UNIT ( ) SI_UNIT ( $, .RADIAN. ) );
#502 = EDGE_LOOP ( 'NONE', ( #5, #820, #520, #94 ) ) ;
#503 = ORIENTED_EDGE ( 'NONE', *, *, #718, .T. ) ;
#504 = DIRECTION ( 'NONE',  ( 0.000000000000000000, 1.000000000000000000, 0.000000000000000000 ) ) ;
#505 = DIRECTION ( 'NONE',  ( 0.000000000000000000, 0.000000000000000000, 1.000000000000000000 ) ) ;
#506 = VERTEX_POINT ( 'NONE', #633 ) ;
#507 = FACE_OUTER_BOUND ( 'NONE', #697, .T. ) ;
#508 = DIRECTION ( 'NONE',  ( 1.000000000000000000, 2.029801947124842036E-17, -0.000000000000000000 ) ) ;
#509 = CARTESIAN_POINT ( 'NONE',  ( 34.00000000000000711, -47.00000000000000000, 40.00000000000000000 ) ) ;
#510 = DIRECTION ( 'NONE',  ( 0.000000000000000000, 1.000000000000000000, 0.000000000000000000 ) ) ;
#511 = ORIENTED_EDGE ( 'NONE', *, *, #291, .F. ) ;
#512 = DIRECTION ( 'NONE',  ( -1.141265444721583757E-16, 1.000000000000000000, -0.000000000000000000 ) ) ;
#513 = FACE_BOUND ( 'NONE', #901, .T. ) ;
#514 = CYLINDRICAL_SURFACE ( 'NONE', #803, 1.599999999999997202 ) ;
#515 = ORIENTED_EDGE ( 'NONE', *, *, #884, .T. ) ;
#516 = DIRECTION ( 'NONE',  ( 0.000000000000000000, 0.000000000000000000, 1.000000000000000000 ) ) ;
#517 = LINE ( 'NONE', #723, #499 ) ;
#518 = ADVANCED_FACE ( 'NONE', ( #69 ), #406, .F. ) ;
#519 = ORIENTED_EDGE ( 'NONE', *, *, #323, .T. ) ;
#520 = ORIENTED_EDGE ( 'NONE', *, *, #553, .T. ) ;
#521 = EDGE_CURVE ( 'NONE', #193, #733, #481, .T. ) ;
#522 = FILL_AREA_STYLE ('',( #671 ) ) ;
#523 = EDGE_CURVE ( 'NONE', #637, #162, #695, .T. ) ;
#524 = VECTOR ( 'NONE', #772, 1000.000000000000000 ) ;
#525 = CARTESIAN_POINT ( 'NONE',  ( 3.000000000000000888, 22.07999999999999829, 23.23000000000000398 ) ) ;
#526 = CARTESIAN_POINT ( 'NONE',  ( 3.000000000000002220, 8.799999999999993605, 43.00000000000000000 ) ) ;
#527 = CARTESIAN_POINT ( 'NONE',  ( -6.495366230799494516E-16, 32.00000000000000000, 50.00000000000000000 ) ) ;
#528 = CIRCLE ( 'NONE', #22, 1.599999999999997202 ) ;
#529 = ORIENTED_EDGE ( 'NONE', *, *, #767, .F. ) ;
#530 = FACE_OUTER_BOUND ( 'NONE', #502, .T. ) ;
#531 = CARTESIAN_POINT ( 'NONE',  ( 32.40000000000001279, -47.00000000000000000, 10.00000000000000178 ) ) ;
#532 = DIRECTION ( 'NONE',  ( 1.000000000000000000, 1.046815890675659458E-16, 0.000000000000000000 ) ) ;
#533 = CARTESIAN_POINT ( 'NONE',  ( 3.000000000000001332, 14.03000000000000469, 33.89000000000000057 ) ) ;
#534 = CARTESIAN_POINT ( 'NONE',  ( -47.00000000000000000, 16.07999999999999119, 33.89000000000000057 ) ) ;
#535 = ORIENTED_EDGE ( 'NONE', *, *, #113, .T. ) ;
#536 = DIRECTION ( 'NONE',  ( -2.029801947124842344E-17, 1.000000000000000000, 0.000000000000000000 ) ) ;
#537 = LINE ( 'NONE', #902, #869 ) ;
#538 = DIRECTION ( 'NONE',  ( -1.000000000000000000, 0.000000000000000000, 0.000000000000000000 ) ) ;
#539 = ADVANCED_FACE ( 'NONE', ( #402 ), #839, .F. ) ;
#540 = ORIENTED_EDGE ( 'NONE', *, *, #459, .T. ) ;
#541 = AXIS2_PLACEMENT_3D ( 'NONE', #592, #309, #234 ) ;
#542 = DIRECTION ( 'NONE',  ( 1.000000000000000000, 1.046815890675659581E-16, -0.000000000000000000 ) ) ;
#543 = FACE_OUTER_BOUND ( 'NONE', #644, .T. ) ;
#544 = EDGE_LOOP ( 'NONE', ( #264, #710, #649, #511 ) ) ;
#545 = VECTOR ( 'NONE', #441, 1000.000000000000000 ) ;
#546 = CARTESIAN_POINT ( 'NONE',  ( 0.000000000000000000, 24.94999999999998863, 43.00000000000000000 ) ) ;
#547 = CARTESIAN_POINT ( 'NONE',  ( 22.00000000000001066, -47.00000000000000711, 10.00000000000000000 ) ) ;
#548 = ORIENTED_EDGE ( 'NONE', *, *, #292, .F. ) ;
#549 = DIRECTION ( 'NONE',  ( -1.141265444721583757E-16, 1.000000000000000000, -0.000000000000000000 ) ) ;
#550 = CARTESIAN_POINT ( 'NONE',  ( -47.00000000000000000, 14.02999999999999758, 33.89000000000000057 ) ) ;
#551 = EDGE_CURVE ( 'NONE', #563, #857, #572, .T. ) ;
#552 = ORIENTED_EDGE ( 'NONE', *, *, #452, .T. ) ;
#553 = EDGE_CURVE ( 'NONE', #439, #429, #495, .T. ) ;
#554 = EDGE_CURVE ( 'NONE', #63, #651, #500, .T. ) ;
#555 = CIRCLE ( 'NONE', #300, 2.049999999999992717 ) ;
#556 = DIRECTION ( 'NONE',  ( -1.000000000000000000, 0.000000000000000000, 0.000000000000000000 ) ) ;
#557 = CIRCLE ( 'NONE', #335, 1.600000000000000755 ) ;
#558 = DIRECTION ( 'NONE',  ( 0.000000000000000000, 0.000000000000000000, 1.000000000000000000 ) ) ;
#559 = EDGE_CURVE ( 'NONE', #834, #570, #73, .T. ) ;
#560 = ORIENTED_EDGE ( 'NONE', *, *, #98, .F. ) ;
#561 = AXIS2_PLACEMENT_3D ( 'NONE', #183, #464, #830 ) ;
#562 = CARTESIAN_POINT ( 'NONE',  ( 23.60000000000000853, -47.00000000000000711, 40.00000000000000000 ) ) ;
#563 = VERTEX_POINT ( 'NONE', #623 ) ;
#564 = EDGE_LOOP ( 'NONE', ( #799, #602 ) ) ;
#565 = DIRECTION ( 'NONE',  ( 1.000000000000000000, 1.046815890675659581E-16, -0.000000000000000000 ) ) ;
#566 = ORIENTED_EDGE ( 'NONE', *, *, #452, .F. ) ;
#567 = EDGE_LOOP ( 'NONE', ( #67, #709, #730, #295 ) ) ;
#568 = CARTESIAN_POINT ( 'NONE',  ( 0.000000000000000000, 0.000000000000000000, 0.000000000000000000 ) ) ;
#569 = AXIS2_PLACEMENT_3D ( 'NONE', #751, #328, #477 ) ;
#570 = VERTEX_POINT ( 'NONE', #568 ) ;
#571 = VERTEX_POINT ( 'NONE', #908 ) ;
#572 = CIRCLE ( 'NONE', #678, 6.000000000000001776 ) ;
#573 = DIRECTION ( 'NONE',  ( 0.000000000000000000, 1.000000000000000000, 0.000000000000000000 ) ) ;
#574 = ORIENTED_EDGE ( 'NONE', *, *, #364, .T. ) ;
#575 = ORIENTED_EDGE ( 'NONE', *, *, #129, .F. ) ;
#576 = FACE_OUTER_BOUND ( 'NONE', #180, .T. ) ;
#577 = CARTESIAN_POINT ( 'NONE',  ( 34.00000000000000000, 0.000000000000000000, 40.00000000000000000 ) ) ;
#578 = ORIENTED_EDGE ( 'NONE', *, *, #265, .T. ) ;
#579 = CARTESIAN_POINT ( 'NONE',  ( 3.000000000000002665, 2.999999999999995559, 50.00000000000000000 ) ) ;
#580 = PLANE ( 'NONE',  #448 ) ;
#581 = EDGE_CURVE ( 'NONE', #795, #282, #911, .T. ) ;
#582 = ORIENTED_EDGE ( 'NONE', *, *, #489, .F. ) ;
#583 = VECTOR ( 'NONE', #737, 1000.000000000000000 ) ;
#584 =( NAMED_UNIT ( * ) PLANE_ANGLE_UNIT ( ) SI_UNIT ( $, .RADIAN. ) );
#585 = CARTESIAN_POINT ( 'NONE',  ( 3.000000000000002665, 2.999999999999995559, 0.000000000000000000 ) ) ;
#586 = AXIS2_PLACEMENT_3D ( 'NONE', #875, #504, #150 ) ;
#587 = CARTESIAN_POINT ( 'NONE',  ( 20.40000000000000213, 0.000000000000000000, 10.00000000000000000 ) ) ;
#588 = ORIENTED_EDGE ( 'NONE', *, *, #917, .T. ) ;
#589 = CARTESIAN_POINT ( 'NONE',  ( 3.000000000000000444, 24.94999999999999218, 43.00000000000000000 ) ) ;
#590 = FACE_BOUND ( 'NONE', #88, .T. ) ;
#591 = ORIENTED_EDGE ( 'NONE', *, *, #33, .F. ) ;
#592 = CARTESIAN_POINT ( 'NONE',  ( 3.000000000000002665, 2.999999999999995559, 50.00000000000000000 ) ) ;
#593 = DIRECTION ( 'NONE',  ( -1.141265444721583757E-16, 1.000000000000000000, -0.000000000000000000 ) ) ;
#594 = CARTESIAN_POINT ( 'NONE',  ( 35.60000000000000853, -47.00000000000000000, 40.00000000000000000 ) ) ;
#595 = DIRECTION ( 'NONE',  ( 1.000000000000000000, 1.046815890675659581E-16, -0.000000000000000000 ) ) ;
#596 = ORIENTED_EDGE ( 'NONE', *, *, #693, .F. ) ;
#597 = CARTESIAN_POINT ( 'NONE',  ( 0.000000000000000000, 16.07999999999999474, 23.23000000000000398 ) ) ;
#598 = CARTESIAN_POINT ( 'NONE',  ( 35.60000000000000142, 2.999999999999999112, 10.00000000000000178 ) ) ;
#599 = DIRECTION ( 'NONE',  ( 0.000000000000000000, 1.000000000000000000, 0.000000000000000000 ) ) ;
#600 = LINE ( 'NONE', #895, #701 ) ;
#601 = DIRECTION ( 'NONE',  ( 1.000000000000000000, 0.000000000000000000, 0.000000000000000000 ) ) ;
#602 = ORIENTED_EDGE ( 'NONE', *, *, #126, .T. ) ;
#603 = CARTESIAN_POINT ( 'NONE',  ( 41.00000000000000000, 0.000000000000000000, 0.000000000000000000 ) ) ;
#604 = EDGE_CURVE ( 'NONE', #232, #40, #276, .T. ) ;
#605 = FACE_BOUND ( 'NONE', #336, .T. ) ;
#606 = LINE ( 'NONE', #896, #919 ) ;
#607 = VERTEX_POINT ( 'NONE', #492 ) ;
#608 = CARTESIAN_POINT ( 'NONE',  ( 0.000000000000000000, 7.199999999999996625, 43.00000000000000000 ) ) ;
#609 = DIRECTION ( 'NONE',  ( -1.141265444721583757E-16, 1.000000000000000000, 0.000000000000000000 ) ) ;
#610 = EDGE_LOOP ( 'NONE', ( #756, #72, #154, #244, #503, #855 ) ) ;
#611 = MECHANICAL_DESIGN_GEOMETRIC_PRESENTATION_REPRESENTATION (  '', ( #239 ), #714 ) ;
#612 = FACE_OUTER_BOUND ( 'NONE', #20, .T. ) ;
#613 = CYLINDRICAL_SURFACE ( 'NONE', #57, 2.049999999999992717 ) ;
#614 = ORIENTED_EDGE ( 'NONE', *, *, #690, .T. ) ;
#615 = AXIS2_PLACEMENT_3D ( 'NONE', #909, #267, #696 ) ;
#616 = EDGE_CURVE ( 'NONE', #367, #105, #915, .T. ) ;
#617 = CARTESIAN_POINT ( 'NONE',  ( 34.00000000000000711, -47.00000000000000000, 40.00000000000000000 ) ) ;
#618 = FACE_OUTER_BOUND ( 'NONE', #111, .T. ) ;
#619 = EDGE_CURVE ( 'NONE', #320, #415, #112, .T. ) ;
#620 = ORIENTED_EDGE ( 'NONE', *, *, #718, .F. ) ;
#621 = ADVANCED_FACE ( 'NONE', ( #576 ), #863, .F. ) ;
#622 = ADVANCED_FACE ( 'NONE', ( #361 ), #365, .F. ) ;
#623 = CARTESIAN_POINT ( 'NONE',  ( 1.217881168274905776E-16, 10.07999999999999119, 23.23000000000000398 ) ) ;
#624 = CARTESIAN_POINT ( 'NONE',  ( 41.00000000000000000, 0.000000000000000000, 50.00000000000000000 ) ) ;
#625 = EDGE_LOOP ( 'NONE', ( #251, #278, #32, #326 ) ) ;
#626 = AXIS2_PLACEMENT_3D ( 'NONE', #230, #97, #454 ) ;
#627 = DIRECTION ( 'NONE',  ( -1.000000000000000000, 0.000000000000000000, 0.000000000000000000 ) ) ;
#628 = AXIS2_PLACEMENT_3D ( 'NONE', #146, #422, #18 ) ;
#629 = ORIENTED_EDGE ( 'NONE', *, *, #221, .T. ) ;
#630 = CIRCLE ( 'NONE', #169, 1.599999999999997202 ) ;
#631 = VERTEX_POINT ( 'NONE', #720 ) ;
#632 = AXIS2_PLACEMENT_3D ( 'NONE', #900, #329, #827 ) ;
#633 = CARTESIAN_POINT ( 'NONE',  ( 3.247683115399743067E-17, 5.599999999999997868, 43.00000000000000000 ) ) ;
#634 = ORIENTED_EDGE ( 'NONE', *, *, #693, .T. ) ;
#635 = ORIENTED_EDGE ( 'NONE', *, *, #619, .T. ) ;
#636 = CARTESIAN_POINT ( 'NONE',  ( 3.000000000000002665, 2.999999999999995559, 0.000000000000000000 ) ) ;
#637 = VERTEX_POINT ( 'NONE', #585 ) ;
#638 = ORIENTED_EDGE ( 'NONE', *, *, #323, .F. ) ;
#639 = DIRECTION ( 'NONE',  ( 0.000000000000000000, 0.000000000000000000, 1.000000000000000000 ) ) ;
#640 = AXIS2_PLACEMENT_3D ( 'NONE', #299, #170, #661 ) ;
#641 = CIRCLE ( 'NONE', #345, 1.600000000000000755 ) ;
#642 = ORIENTED_EDGE ( 'NONE', *, *, #354, .T. ) ;
#643 = VECTOR ( 'NONE', #207, 1000.000000000000000 ) ;
#644 = EDGE_LOOP ( 'NONE', ( #591, #16, #237, #342 ) ) ;
#645 = AXIS2_PLACEMENT_3D ( 'NONE', #790, #312, #876 ) ;
#646 = DIRECTION ( 'NONE',  ( 0.000000000000000000, 1.000000000000000000, 0.000000000000000000 ) ) ;
#647 = EDGE_CURVE ( 'NONE', #105, #367, #630, .T. ) ;
#648 = AXIS2_PLACEMENT_3D ( 'NONE', #263, #609, #903 ) ;
#649 = ORIENTED_EDGE ( 'NONE', *, *, #31, .T. ) ;
#650 = ADVANCED_FACE ( 'NONE', ( #160, #860, #513, #286, #306 ), #879, .F. ) ;
#651 = VERTEX_POINT ( 'NONE', #797 ) ;
#652 = EDGE_CURVE ( 'NONE', #665, #175, #782, .T. ) ;
#653 = EDGE_CURVE ( 'NONE', #665, #733, #712, .T. ) ;
#654 = DIRECTION ( 'NONE',  ( 1.000000000000000000, 1.046815890675659581E-16, -0.000000000000000000 ) ) ;
#655 = ORIENTED_EDGE ( 'NONE', *, *, #689, .F. ) ;
#656 = ORIENTED_EDGE ( 'NONE', *, *, #559, .F. ) ;
#657 = CARTESIAN_POINT ( 'NONE',  ( 3.000000000000000444, 24.94999999999999218, 43.00000000000000000 ) ) ;
#658 = CYLINDRICAL_SURFACE ( 'NONE', #431, 1.599999999999997202 ) ;
#659 = ORIENTED_EDGE ( 'NONE', *, *, #616, .F. ) ;
#660 = VECTOR ( 'NONE', #341, 1000.000000000000000 ) ;
#661 = DIRECTION ( 'NONE',  ( 1.000000000000000000, 0.000000000000000000, 0.000000000000000000 ) ) ;
#662 = CARTESIAN_POINT ( 'NONE',  ( 34.00000000000000000, 2.999999999999999112, 40.00000000000000000 ) ) ;
#663 = AXIS2_PLACEMENT_3D ( 'NONE', #358, #646, #639 ) ;
#664 = VERTEX_POINT ( 'NONE', #157 ) ;
#665 = VERTEX_POINT ( 'NONE', #90 ) ;
#666 = CARTESIAN_POINT ( 'NONE',  ( 3.000000000000002665, 2.999999999999995559, 50.00000000000000000 ) ) ;
#667 = CARTESIAN_POINT ( 'NONE',  ( 41.00000000000000000, 0.000000000000000000, 50.00000000000000000 ) ) ;
#668 = CARTESIAN_POINT ( 'NONE',  ( 32.40000000000001279, -47.00000000000000000, 40.00000000000000000 ) ) ;
#669 = DIRECTION ( 'NONE',  ( -2.029801947124842036E-17, 1.000000000000000000, 0.000000000000000000 ) ) ;
#670 = ORIENTED_EDGE ( 'NONE', *, *, #487, .F. ) ;
#671 = FILL_AREA_STYLE_COLOUR ( '', #315 ) ;
#672 = DIRECTION ( 'NONE',  ( 1.000000000000000000, 1.046815890675659458E-16, 0.000000000000000000 ) ) ;
#673 = CARTESIAN_POINT ( 'NONE',  ( -47.00000000000000000, 26.54999999999998295, 43.00000000000000000 ) ) ;
#674 = DIRECTION ( 'NONE',  ( 1.000000000000000000, 1.046815890675659581E-16, -0.000000000000000000 ) ) ;
#675 = ORIENTED_EDGE ( 'NONE', *, *, #59, .F. ) ;
#676 = FACE_BOUND ( 'NONE', #887, .T. ) ;
#677 = AXIS2_PLACEMENT_3D ( 'NONE', #247, #891, #107 ) ;
#678 = AXIS2_PLACEMENT_3D ( 'NONE', #127, #847, #211 ) ;
#679 = CARTESIAN_POINT ( 'NONE',  ( 22.00000000000000355, 2.999999999999997780, 10.00000000000000000 ) ) ;
#680 = CARTESIAN_POINT ( 'NONE',  ( 3.000000000000001332, 18.12999999999998835, 33.89000000000000057 ) ) ;
#681 = DIRECTION ( 'NONE',  ( -1.000000000000000000, 0.000000000000000000, 0.000000000000000000 ) ) ;
#682 = ORIENTED_EDGE ( 'NONE', *, *, #62, .F. ) ;
#683 = CARTESIAN_POINT ( 'NONE',  ( 0.000000000000000000, 16.07999999999999474, 9.470000000000000639 ) ) ;
#684 = CARTESIAN_POINT ( 'NONE',  ( 34.00000000000000000, 2.999999999999999112, 40.00000000000000000 ) ) ;
#685 = ORIENTED_EDGE ( 'NONE', *, *, #152, .F. ) ;
#686 = LINE ( 'NONE', #673, #445 ) ;
#687 = CARTESIAN_POINT ( 'NONE',  ( 0.000000000000000000, 0.000000000000000000, 50.00000000000000000 ) ) ;
#688 = VERTEX_POINT ( 'NONE', #12 ) ;
#689 = EDGE_CURVE ( 'NONE', #282, #119, #762, .T. ) ;
#690 = EDGE_CURVE ( 'NONE', #571, #774, #528, .T. ) ;
#691 = CARTESIAN_POINT ( 'NONE',  ( -47.00000000000000000, 16.07999999999999119, 9.470000000000000639 ) ) ;
#692 = CARTESIAN_POINT ( 'NONE',  ( 41.00000000000000000, 3.000000000000000000, 0.000000000000000000 ) ) ;
#693 = EDGE_CURVE ( 'NONE', #49, #144, #517, .T. ) ;
#694 = ORIENTED_EDGE ( 'NONE', *, *, #647, .F. ) ;
#695 = LINE ( 'NONE', #636, #151 ) ;
#696 = DIRECTION ( 'NONE',  ( 1.000000000000000000, 0.000000000000000000, 0.000000000000000000 ) ) ;
#697 = EDGE_LOOP ( 'NONE', ( #840, #130, #635, #168 ) ) ;
#698 = CARTESIAN_POINT ( 'NONE',  ( 22.00000000000000355, 2.999999999999997780, 40.00000000000000000 ) ) ;
#699 = ORIENTED_EDGE ( 'NONE', *, *, #521, .F. ) ;
#700 = EDGE_CURVE ( 'NONE', #119, #282, #434, .T. ) ;
#701 = VECTOR ( 'NONE', #249, 1000.000000000000000 ) ;
#702 = DIRECTION ( 'NONE',  ( -1.000000000000000000, -1.141265444721583757E-16, 0.000000000000000000 ) ) ;
#703 = CARTESIAN_POINT ( 'NONE',  ( 3.000000000000002665, 2.999999999999995559, 50.00000000000000000 ) ) ;
#704 = ORIENTED_EDGE ( 'NONE', *, *, #786, .T. ) ;
#705 = ORIENTED_EDGE ( 'NONE', *, *, #581, .F. ) ;
#706 = FACE_OUTER_BOUND ( 'NONE', #363, .T. ) ;
#707 = ORIENTED_EDGE ( 'NONE', *, *, #491, .T. ) ;
#708 = DIRECTION ( 'NONE',  ( 1.000000000000000000, 1.046815890675659458E-16, 0.000000000000000000 ) ) ;
#709 = ORIENTED_EDGE ( 'NONE', *, *, #113, .F. ) ;
#710 = ORIENTED_EDGE ( 'NONE', *, *, #152, .T. ) ;
#711 = EDGE_CURVE ( 'NONE', #232, #439, #322, .T. ) ;
#712 = LINE ( 'NONE', #222, #808 ) ;
#713 = APPLICATION_PROTOCOL_DEFINITION ( 'draft international standard', 'automotive_design', 1998, #742 ) ;
#714 =( GEOMETRIC_REPRESENTATION_CONTEXT ( 3 ) GLOBAL_UNCERTAINTY_ASSIGNED_CONTEXT ( ( #327 ) ) GLOBAL_UNIT_ASSIGNED_CONTEXT ( ( #444, #584, #440 ) ) REPRESENTATION_CONTEXT ( 'NONE', 'WORKASPACE' ) );
#715 = ADVANCED_FACE ( 'NONE', ( #507 ), #787, .F. ) ;
#716 = AXIS2_PLACEMENT_3D ( 'NONE', #463, #532, #29 ) ;
#717 = ORIENTED_EDGE ( 'NONE', *, *, #59, .T. ) ;
#718 = EDGE_CURVE ( 'NONE', #175, #664, #296, .T. ) ;
#719 = EDGE_CURVE ( 'NONE', #63, #268, #260, .T. ) ;
#720 = CARTESIAN_POINT ( 'NONE',  ( 23.60000000000000142, 2.999999999999997780, 10.00000000000000000 ) ) ;
#721 = ORIENTED_EDGE ( 'NONE', *, *, #783, .T. ) ;
#722 = EDGE_LOOP ( 'NONE', ( #694, #659 ) ) ;
#723 = CARTESIAN_POINT ( 'NONE',  ( -47.00000000000000000, 14.47999999999998799, 9.470000000000000639 ) ) ;
#724 = FACE_OUTER_BOUND ( 'NONE', #81, .T. ) ;
#725 = ORIENTED_EDGE ( 'NONE', *, *, #856, .T. ) ;
#726 = CARTESIAN_POINT ( 'NONE',  ( 0.000000000000000000, 16.07999999999999474, 33.89000000000000057 ) ) ;
#727 = DIRECTION ( 'NONE',  ( -0.000000000000000000, -0.000000000000000000, -1.000000000000000000 ) ) ;
#728 = CARTESIAN_POINT ( 'NONE',  ( 3.000000000000001776, 10.07999999999999297, 23.23000000000000398 ) ) ;
#729 = VECTOR ( 'NONE', #595, 1000.000000000000000 ) ;
#730 = ORIENTED_EDGE ( 'NONE', *, *, #859, .F. ) ;
#731 = DIRECTION ( 'NONE',  ( -1.000000000000000000, 0.000000000000000000, 0.000000000000000000 ) ) ;
#732 = AXIS2_PLACEMENT_3D ( 'NONE', #547, #44, #51 ) ;
#733 = VERTEX_POINT ( 'NONE', #692 ) ;
#734 = ORIENTED_EDGE ( 'NONE', *, *, #382, .T. ) ;
#735 = DIRECTION ( 'NONE',  ( -1.000000000000000000, 0.000000000000000000, 0.000000000000000000 ) ) ;
#736 = FACE_OUTER_BOUND ( 'NONE', #233, .T. ) ;
#737 = DIRECTION ( 'NONE',  ( 1.000000000000000000, 1.046815890675659581E-16, -0.000000000000000000 ) ) ;
#738 = CARTESIAN_POINT ( 'NONE',  ( 3.247683115399751695E-17, 14.47999999999999154, 9.470000000000000639 ) ) ;
#739 = ORIENTED_EDGE ( 'NONE', *, *, #523, .F. ) ;
#740 = CARTESIAN_POINT ( 'NONE',  ( 34.00000000000000000, 0.000000000000000000, 10.00000000000000178 ) ) ;
#741 = CARTESIAN_POINT ( 'NONE',  ( 23.60000000000000142, 0.000000000000000000, 40.00000000000000000 ) ) ;
#742 = APPLICATION_CONTEXT ( 'automotive_design' ) ;
#743 = CARTESIAN_POINT ( 'NONE',  ( 3.000000000000002220, 5.599999999999997868, 43.00000000000000000 ) ) ;
#744 = CARTESIAN_POINT ( 'NONE',  ( -47.00000000000000000, 16.07999999999999119, 33.89000000000000057 ) ) ;
#745 = ORIENTED_EDGE ( 'NONE', *, *, #65, .T. ) ;
#746 = FACE_OUTER_BOUND ( 'NONE', #610, .T. ) ;
#747 = EDGE_CURVE ( 'NONE', #795, #768, #776, .T. ) ;
#748 = DIRECTION ( 'NONE',  ( -0.000000000000000000, -0.000000000000000000, -1.000000000000000000 ) ) ;
#749 = CARTESIAN_POINT ( 'NONE',  ( 22.00000000000001066, -47.00000000000000711, 10.00000000000000000 ) ) ;
#750 = ORIENTED_EDGE ( 'NONE', *, *, #386, .T. ) ;
#751 = CARTESIAN_POINT ( 'NONE',  ( 34.00000000000000000, 0.000000000000000000, 40.00000000000000000 ) ) ;
#752 = CARTESIAN_POINT ( 'NONE',  ( 0.000000000000000000, 0.000000000000000000, 50.00000000000000000 ) ) ;
#753 = EDGE_LOOP ( 'NONE', ( #372, #831, #620, #330 ) ) ;
#754 = DIRECTION ( 'NONE',  ( 0.000000000000000000, 1.000000000000000000, 0.000000000000000000 ) ) ;
#755 = DIRECTION ( 'NONE',  ( 2.029801947124842036E-17, -1.000000000000000000, 0.000000000000000000 ) ) ;
#756 = ORIENTED_EDGE ( 'NONE', *, *, #781, .T. ) ;
#757 = CIRCLE ( 'NONE', #569, 1.599999999999997202 ) ;
#758 = AXIS2_PLACEMENT_3D ( 'NONE', #657, #437, #218 ) ;
#759 = DIRECTION ( 'NONE',  ( -1.141265444721583757E-16, 1.000000000000000000, -0.000000000000000000 ) ) ;
#760 = AXIS2_PLACEMENT_3D ( 'NONE', #303, #166, #880 ) ;
#761 = DIRECTION ( 'NONE',  ( 0.000000000000000000, 1.000000000000000000, 0.000000000000000000 ) ) ;
#762 = CIRCLE ( 'NONE', #858, 2.049999999999992717 ) ;
#763 = ORIENTED_EDGE ( 'NONE', *, *, #194, .T. ) ;
#764 = AXIS2_PLACEMENT_3D ( 'NONE', #749, #478, #906 ) ;
#765 = DIRECTION ( 'NONE',  ( -1.141265444721583757E-16, 1.000000000000000000, -0.000000000000000000 ) ) ;
#766 =( LENGTH_UNIT ( ) NAMED_UNIT ( * ) SI_UNIT ( .MILLI., .METRE. ) );
#767 = EDGE_CURVE ( 'NONE', #570, #193, #396, .T. ) ;
#768 = VERTEX_POINT ( 'NONE', #470 ) ;
#769 = PLANE ( 'NONE',  #92 ) ;
#770 = CARTESIAN_POINT ( 'NONE',  ( -6.495366230799494516E-16, 32.00000000000000000, 50.00000000000000000 ) ) ;
#771 = VERTEX_POINT ( 'NONE', #118 ) ;
#772 = DIRECTION ( 'NONE',  ( -1.141265444721583757E-16, 1.000000000000000000, -0.000000000000000000 ) ) ;
#773 = AXIS2_PLACEMENT_3D ( 'NONE', #683, #826, #187 ) ;
#774 = VERTEX_POINT ( 'NONE', #475 ) ;
#775 = ORIENTED_EDGE ( 'NONE', *, *, #581, .T. ) ;
#776 = CIRCLE ( 'NONE', #561, 2.049999999999992717 ) ;
#777 = CARTESIAN_POINT ( 'NONE',  ( 23.60000000000000853, -47.00000000000000711, 10.00000000000000000 ) ) ;
#778 = EDGE_LOOP ( 'NONE', ( #205, #307 ) ) ;
#779 = ADVANCED_FACE ( 'NONE', ( #543 ), #56, .F. ) ;
#780 = ORIENTED_EDGE ( 'NONE', *, *, #412, .T. ) ;
#781 = EDGE_CURVE ( 'NONE', #907, #834, #606, .T. ) ;
#782 = LINE ( 'NONE', #83, #545 ) ;
#783 = EDGE_CURVE ( 'NONE', #664, #162, #482, .T. ) ;
#784 = CYLINDRICAL_SURFACE ( 'NONE', #373, 6.000000000000001776 ) ;
#785 = ORIENTED_EDGE ( 'NONE', *, *, #192, .T. ) ;
#786 = EDGE_CURVE ( 'NONE', #862, #771, #486, .T. ) ;
#787 = CYLINDRICAL_SURFACE ( 'NONE', #217, 1.599999999999997202 ) ;
#788 = VECTOR ( 'NONE', #512, 1000.000000000000000 ) ;
#789 = AXIS2_PLACEMENT_3D ( 'NONE', #164, #593, #731 ) ;
#790 = CARTESIAN_POINT ( 'NONE',  ( 22.00000000000000355, 0.000000000000000000, 10.00000000000000000 ) ) ;
#791 = VECTOR ( 'NONE', #765, 1000.000000000000000 ) ;
#792 = VECTOR ( 'NONE', #191, 1000.000000000000000 ) ;
#793 = DIRECTION ( 'NONE',  ( 1.000000000000000000, 1.046815890675659581E-16, -0.000000000000000000 ) ) ;
#794 = FACE_OUTER_BOUND ( 'NONE', #298, .T. ) ;
#795 = VERTEX_POINT ( 'NONE', #325 ) ;
#796 = PLANE ( 'NONE',  #541 ) ;
#797 = CARTESIAN_POINT ( 'NONE',  ( 20.40000000000000213, 2.999999999999997780, 10.00000000000000000 ) ) ;
#798 = CARTESIAN_POINT ( 'NONE',  ( 34.00000000000000711, -47.00000000000000000, 10.00000000000000178 ) ) ;
#799 = ORIENTED_EDGE ( 'NONE', *, *, #747, .T. ) ;
#800 = SURFACE_STYLE_USAGE ( .BOTH. , #21 ) ;
#801 = DIRECTION ( 'NONE',  ( -1.141265444721583757E-16, 1.000000000000000000, -0.000000000000000000 ) ) ;
#802 = FACE_BOUND ( 'NONE', #564, .T. ) ;
#803 = AXIS2_PLACEMENT_3D ( 'NONE', #798, #158, #438 ) ;
#804 = CIRCLE ( 'NONE', #416, 1.599999999999997202 ) ;
#805 = ORIENTED_EDGE ( 'NONE', *, *, #126, .F. ) ;
#806 = CARTESIAN_POINT ( 'NONE',  ( 2.999999999999999556, 32.00000000000000000, 0.000000000000000000 ) ) ;
#807 = DIRECTION ( 'NONE',  ( 0.000000000000000000, -0.000000000000000000, -1.000000000000000000 ) ) ;
#808 = VECTOR ( 'NONE', #727, 1000.000000000000000 ) ;
#809 = LINE ( 'NONE', #457, #317 ) ;
#810 = DIRECTION ( 'NONE',  ( 1.000000000000000000, 1.046815890675659458E-16, 0.000000000000000000 ) ) ;
#811 = ORIENTED_EDGE ( 'NONE', *, *, #382, .F. ) ;
#812 = ADVANCED_FACE ( 'NONE', ( #188 ), #250, .F. ) ;
#813 = LINE ( 'NONE', #89, #401 ) ;
#814 = CARTESIAN_POINT ( 'NONE',  ( 3.000000000000001332, 16.07999999999999829, 9.470000000000000639 ) ) ;
#815 = EDGE_CURVE ( 'NONE', #272, #159, #186, .T. ) ;
#816 = ADVANCED_FACE ( 'NONE', ( #128 ), #404, .F. ) ;
#817 = CARTESIAN_POINT ( 'NONE',  ( -47.00000000000000000, 8.799999999999988276, 43.00000000000000000 ) ) ;
#818 = CARTESIAN_POINT ( 'NONE',  ( -3.247683115399744300E-17, 26.54999999999998650, 43.00000000000000000 ) ) ;
#819 = ADVANCED_FACE ( 'NONE', ( #618 ), #254, .F. ) ;
#820 = ORIENTED_EDGE ( 'NONE', *, *, #356, .F. ) ;
#821 = DIRECTION ( 'NONE',  ( -1.000000000000000000, 0.000000000000000000, 0.000000000000000000 ) ) ;
#822 = DIRECTION ( 'NONE',  ( 1.000000000000000000, 2.029801947124842036E-17, -0.000000000000000000 ) ) ;
#823 = DIRECTION ( 'NONE',  ( 1.000000000000000000, 1.046815890675659581E-16, -0.000000000000000000 ) ) ;
#824 = ORIENTED_EDGE ( 'NONE', *, *, #412, .F. ) ;
#825 = VECTOR ( 'NONE', #748, 1000.000000000000000 ) ;
#826 = DIRECTION ( 'NONE',  ( 1.000000000000000000, 2.029801947124842036E-17, -0.000000000000000000 ) ) ;
#827 = DIRECTION ( 'NONE',  ( -2.029801947124843885E-17, 1.000000000000000000, 0.000000000000000000 ) ) ;
#828 = EDGE_LOOP ( 'NONE', ( #71, #229 ) ) ;
#829 = FACE_OUTER_BOUND ( 'NONE', #52, .T. ) ;
#830 = DIRECTION ( 'NONE',  ( -2.029801947124842652E-17, 1.000000000000000000, 0.000000000000000000 ) ) ;
#831 = ORIENTED_EDGE ( 'NONE', *, *, #783, .F. ) ;
#832 = FACE_OUTER_BOUND ( 'NONE', #313, .T. ) ;
#833 = CARTESIAN_POINT ( 'NONE',  ( -1.217881168274905776E-16, 22.07999999999999474, 23.23000000000000398 ) ) ;
#834 = VERTEX_POINT ( 'NONE', #752 ) ;
#835 = AXIS2_PLACEMENT_3D ( 'NONE', #597, #101, #536 ) ;
#836 = PRODUCT_DEFINITION_CONTEXT ( 'detailed design', #424, 'design' ) ;
#837 = VECTOR ( 'NONE', #905, 1000.000000000000000 ) ;
#838 = AXIS2_PLACEMENT_3D ( 'NONE', #577, #510, #224 ) ;
#839 = CYLINDRICAL_SURFACE ( 'NONE', #8, 1.599999999999997202 ) ;
#840 = ORIENTED_EDGE ( 'NONE', *, *, #65, .F. ) ;
#841 = AXIS2_PLACEMENT_3D ( 'NONE', #226, #24, #391 ) ;
#842 = VECTOR ( 'NONE', #74, 1000.000000000000000 ) ;
#843 = CARTESIAN_POINT ( 'NONE',  ( 0.000000000000000000, 16.07999999999999474, 9.470000000000000639 ) ) ;
#844 = FACE_OUTER_BOUND ( 'NONE', #544, .T. ) ;
#845 = ORIENTED_EDGE ( 'NONE', *, *, #290, .T. ) ;
#846 = PRODUCT_DEFINITION_SHAPE ( 'NONE', 'NONE',  #865 ) ;
#847 = DIRECTION ( 'NONE',  ( 1.000000000000000000, 2.029801947124842036E-17, -0.000000000000000000 ) ) ;
#848 = CARTESIAN_POINT ( 'NONE',  ( 0.000000000000000000, 0.000000000000000000, 0.000000000000000000 ) ) ;
#849 = ORIENTED_EDGE ( 'NONE', *, *, #711, .T. ) ;
#850 = ORIENTED_EDGE ( 'NONE', *, *, #815, .F. ) ;
#851 = CIRCLE ( 'NONE', #838, 1.599999999999997202 ) ;
#852 = CARTESIAN_POINT ( 'NONE',  ( 0.000000000000000000, 0.000000000000000000, 50.00000000000000000 ) ) ;
#853 = EDGE_CURVE ( 'NONE', #768, #119, #407, .T. ) ;
#854 = CIRCLE ( 'NONE', #200, 1.599999999999997202 ) ;
#855 = ORIENTED_EDGE ( 'NONE', *, *, #98, .T. ) ;
#856 = EDGE_CURVE ( 'NONE', #774, #571, #450, .T. ) ;
#857 = VERTEX_POINT ( 'NONE', #833 ) ;
#858 = AXIS2_PLACEMENT_3D ( 'NONE', #235, #708, #293 ) ;
#859 = EDGE_CURVE ( 'NONE', #834, #397, #399, .T. ) ;
#860 = FACE_BOUND ( 'NONE', #189, .T. ) ;
#861 = CARTESIAN_POINT ( 'NONE',  ( -47.00000000000000000, 16.07999999999999119, 23.23000000000000398 ) ) ;
#862 = VERTEX_POINT ( 'NONE', #818 ) ;
#863 = CYLINDRICAL_SURFACE ( 'NONE', #433, 1.599999999999997202 ) ;
#864 = EDGE_LOOP ( 'NONE', ( #484, #284, #79, #725 ) ) ;
#865 = PRODUCT_DEFINITION ( 'UNKNOWN', '', #473, #836 ) ;
#866 = DIRECTION ( 'NONE',  ( -1.046815890675659335E-16, 1.000000000000000000, 0.000000000000000000 ) ) ;
#867 = PRESENTATION_LAYER_ASSIGNMENT (  '', '', ( #239 ) ) ;
#868 = ADVANCED_FACE ( 'NONE', ( #179 ), #613, .F. ) ;
#869 = VECTOR ( 'NONE', #318, 1000.000000000000000 ) ;
#870 = CARTESIAN_POINT ( 'NONE',  ( -3.247683115399751079E-17, 17.67999999999999261, 9.470000000000000639 ) ) ;
#871 = ORIENTED_EDGE ( 'NONE', *, *, #856, .F. ) ;
#872 = DIRECTION ( 'NONE',  ( 0.000000000000000000, 1.000000000000000000, 0.000000000000000000 ) ) ;
#873 = VECTOR ( 'NONE', #197, 1000.000000000000000 ) ;
#874 = AXIS2_PLACEMENT_3D ( 'NONE', #848, #558, #70 ) ;
#875 = CARTESIAN_POINT ( 'NONE',  ( 0.000000000000000000, 0.000000000000000000, 50.00000000000000000 ) ) ;
#876 = DIRECTION ( 'NONE',  ( 0.000000000000000000, 0.000000000000000000, 1.000000000000000000 ) ) ;
#877 = EDGE_LOOP ( 'NONE', ( #216, #670 ) ) ;
#878 = PLANE ( 'NONE',  #640 ) ;
#879 = PLANE ( 'NONE',  #586 ) ;
#880 = DIRECTION ( 'NONE',  ( -7.228014483236694583E-17, 1.000000000000000000, 0.000000000000000000 ) ) ;
#881 = ORIENTED_EDGE ( 'NONE', *, *, #689, .T. ) ;
#882 = FACE_BOUND ( 'NONE', #236, .T. ) ;
#883 = DIRECTION ( 'NONE',  ( 0.000000000000000000, 1.000000000000000000, 0.000000000000000000 ) ) ;
#884 = EDGE_CURVE ( 'NONE', #159, #272, #96, .T. ) ;
#885 = CARTESIAN_POINT ( 'NONE',  ( 41.00000000000000000, 0.000000000000000000, 50.00000000000000000 ) ) ;
#886 = CARTESIAN_POINT ( 'NONE',  ( 3.000000000000001332, 16.07999999999999829, 23.23000000000000398 ) ) ;
#887 = EDGE_LOOP ( 'NONE', ( #655, #451 ) ) ;
#888 = EDGE_CURVE ( 'NONE', #175, #637, #427, .T. ) ;
#889 = CARTESIAN_POINT ( 'NONE',  ( 22.00000000000001066, -47.00000000000000711, 40.00000000000000000 ) ) ;
#890 = ADVANCED_FACE ( 'NONE', ( #9 ), #912, .F. ) ;
#891 = DIRECTION ( 'NONE',  ( 1.000000000000000000, 1.046815890675659581E-16, -0.000000000000000000 ) ) ;
#892 = VECTOR ( 'NONE', #866, 1000.000000000000000 ) ;
#893 = ADVANCED_FACE ( 'NONE', ( #844 ), #784, .F. ) ;
#894 = CARTESIAN_POINT ( 'NONE',  ( -47.00000000000000000, 16.07999999999999119, 9.470000000000000639 ) ) ;
#895 = CARTESIAN_POINT ( 'NONE',  ( 41.00000000000000000, 0.000000000000000000, 50.00000000000000000 ) ) ;
#896 = CARTESIAN_POINT ( 'NONE',  ( -6.495366230799494516E-16, 32.00000000000000000, 50.00000000000000000 ) ) ;
#897 = VERTEX_POINT ( 'NONE', #136 ) ;
#898 = FACE_OUTER_BOUND ( 'NONE', #753, .T. ) ;
#899 = FACE_BOUND ( 'NONE', #877, .T. ) ;
#900 = CARTESIAN_POINT ( 'NONE',  ( 0.000000000000000000, 24.94999999999998863, 43.00000000000000000 ) ) ;
#901 = EDGE_LOOP ( 'NONE', ( #411, #642 ) ) ;
#902 = CARTESIAN_POINT ( 'NONE',  ( -47.00000000000000000, 22.07999999999999119, 23.23000000000000398 ) ) ;
#903 = DIRECTION ( 'NONE',  ( -1.000000000000000000, 0.000000000000000000, 0.000000000000000000 ) ) ;
#904 = ORIENTED_EDGE ( 'NONE', *, *, #653, .F. ) ;
#905 = DIRECTION ( 'NONE',  ( -1.141265444721583757E-16, 1.000000000000000000, -0.000000000000000000 ) ) ;
#906 = DIRECTION ( 'NONE',  ( -1.000000000000000000, 0.000000000000000000, 0.000000000000000000 ) ) ;
#907 = VERTEX_POINT ( 'NONE', #770 ) ;
#908 = CARTESIAN_POINT ( 'NONE',  ( 35.60000000000000142, 2.999999999999999112, 40.00000000000000000 ) ) ;
#909 = CARTESIAN_POINT ( 'NONE',  ( 0.000000000000000000, 0.000000000000000000, 0.000000000000000000 ) ) ;
#910 = ORIENTED_EDGE ( 'NONE', *, *, #853, .F. ) ;
#911 = LINE ( 'NONE', #409, #390 ) ;
#912 = PLANE ( 'NONE',  #156 ) ;
#913 = ORIENTED_EDGE ( 'NONE', *, *, #225, .F. ) ;
#914 = CIRCLE ( 'NONE', #626, 1.600000000000000755 ) ;
#915 = CIRCLE ( 'NONE', #758, 1.599999999999997202 ) ;
#916 = DIRECTION ( 'NONE',  ( -1.000000000000000000, 0.000000000000000000, 0.000000000000000000 ) ) ;
#917 = EDGE_CURVE ( 'NONE', #897, #570, #410, .T. ) ;
#918 = EDGE_LOOP ( 'NONE', ( #476, #850 ) ) ;
#919 = VECTOR ( 'NONE', #755, 1000.000000000000000 ) ;
ENDSEC;
END-ISO-10303-21;
