ISO-10303-21;
HEADER;
FILE_DESCRIPTION (( 'STEP AP214' ),
    '1' );
FILE_NAME ('Team-A4-IR holder.STEP',
    '2026-05-05T22:42:04',
    ( '' ),
    ( '' ),
    'SwSTEP 2.0',
    'SolidWorks 2025',
    '' );
FILE_SCHEMA (( 'AUTOMOTIVE_DESIGN' ));
ENDSEC;

DATA;
#1 = AXIS2_PLACEMENT_3D ( 'NONE', #49, #921, #997 ) ;
#2 = FACE_BOUND ( 'NONE', #688, .T. ) ;
#3 = CARTESIAN_POINT ( 'NONE',  ( 71.59999999999999432, 8.920000000000001705, 11.29999999999999893 ) ) ;
#4 = EDGE_LOOP ( 'NONE', ( #523, #651, #388, #527 ) ) ;
#5 = VERTEX_POINT ( 'NONE', #100 ) ;
#6 = DIRECTION ( 'NONE',  ( 0.000000000000000000, 0.000000000000000000, -1.000000000000000000 ) ) ;
#7 = EDGE_CURVE ( 'NONE', #876, #367, #812, .T. ) ;
#8 = CARTESIAN_POINT ( 'NONE',  ( 65.79999999999999716, 10.91999999999999993, 1.199999999999999956 ) ) ;
#9 = LINE ( 'NONE', #957, #894 ) ;
#10 = ORIENTED_EDGE ( 'NONE', *, *, #893, .F. ) ;
#11 = DIRECTION ( 'NONE',  ( 1.000000000000000000, -5.079500928281639510E-17, 0.000000000000000000 ) ) ;
#12 = DIRECTION ( 'NONE',  ( 0.000000000000000000, -1.000000000000000000, 0.000000000000000000 ) ) ;
#13 = CARTESIAN_POINT ( 'NONE',  ( 80.00000000000000000, 10.91999999999999993, 1.199999999999999956 ) ) ;
#14 = ORIENTED_EDGE ( 'NONE', *, *, #974, .F. ) ;
#15 = DIRECTION ( 'NONE',  ( 0.000000000000000000, -1.000000000000000000, 0.000000000000000000 ) ) ;
#16 = AXIS2_PLACEMENT_3D ( 'NONE', #574, #578, #976 ) ;
#17 = VECTOR ( 'NONE', #938, 1000.000000000000000 ) ;
#18 = CARTESIAN_POINT ( 'NONE',  ( 71.59999999999999432, 12.50000000000000000, 11.29999999999999893 ) ) ;
#19 = CIRCLE ( 'NONE', #565, 1.199999999999999734 ) ;
#20 = CARTESIAN_POINT ( 'NONE',  ( 41.00000000000000000, 8.920000000000001705, 12.50000000000000000 ) ) ;
#21 = EDGE_CURVE ( 'NONE', #58, #705, #762, .T. ) ;
#22 = ORIENTED_EDGE ( 'NONE', *, *, #690, .T. ) ;
#23 = LINE ( 'NONE', #354, #106 ) ;
#24 = CARTESIAN_POINT ( 'NONE',  ( 40.00000000000000000, 8.920000000000001705, 0.000000000000000000 ) ) ;
#25 = ORIENTED_EDGE ( 'NONE', *, *, #742, .T. ) ;
#26 = ORIENTED_EDGE ( 'NONE', *, *, #760, .T. ) ;
#27 = EDGE_CURVE ( 'NONE', #906, #361, #340, .T. ) ;
#28 = CARTESIAN_POINT ( 'NONE',  ( 74.25000000000000000, 12.50000000000000000, 6.250000000000000000 ) ) ;
#29 = DIRECTION ( 'NONE',  ( 0.000000000000000000, -1.000000000000000000, 0.000000000000000000 ) ) ;
#30 = EDGE_LOOP ( 'NONE', ( #38, #95 ) ) ;
#31 = CARTESIAN_POINT ( 'NONE',  ( 46.50000000000000000, 12.50000000000000000, 3.000000000000000000 ) ) ;
#32 = EDGE_CURVE ( 'NONE', #226, #752, #553, .T. ) ;
#33 = VECTOR ( 'NONE', #91, 1000.000000000000000 ) ;
#34 = CARTESIAN_POINT ( 'NONE',  ( 46.50000000000000000, 10.91999999999999993, 12.50000000000000000 ) ) ;
#35 = AXIS2_PLACEMENT_3D ( 'NONE', #339, #826, #359 ) ;
#36 = DIRECTION ( 'NONE',  ( 0.000000000000000000, 0.000000000000000000, 1.000000000000000000 ) ) ;
#37 = AXIS2_PLACEMENT_3D ( 'NONE', #681, #918, #61 ) ;
#38 = ORIENTED_EDGE ( 'NONE', *, *, #756, .F. ) ;
#39 = FACE_OUTER_BOUND ( 'NONE', #382, .T. ) ;
#40 = DIRECTION ( 'NONE',  ( -1.000000000000000000, 0.000000000000000000, 0.000000000000000000 ) ) ;
#41 = EDGE_CURVE ( 'NONE', #406, #48, #322, .T. ) ;
#42 = DIRECTION ( 'NONE',  ( 0.000000000000000000, 0.000000000000000000, -1.000000000000000000 ) ) ;
#43 = ORIENTED_EDGE ( 'NONE', *, *, #60, .T. ) ;
#44 = PRODUCT_DEFINITION_CONTEXT ( 'detailed design', #420, 'design' ) ;
#45 = FACE_BOUND ( 'NONE', #30, .T. ) ;
#46 = PLANE ( 'NONE',  #35 ) ;
#47 = CARTESIAN_POINT ( 'NONE',  ( 0.000000000000000000, 0.000000000000000000, 0.000000000000000000 ) ) ;
#48 = VERTEX_POINT ( 'NONE', #163 ) ;
#49 = CARTESIAN_POINT ( 'NONE',  ( 46.50000000000000000, 12.50000000000000000, 11.00000000000000000 ) ) ;
#50 = FACE_OUTER_BOUND ( 'NONE', #424, .T. ) ;
#51 = VECTOR ( 'NONE', #307, 1000.000000000000000 ) ;
#52 = AXIS2_PLACEMENT_3D ( 'NONE', #28, #735, #744 ) ;
#53 = EDGE_LOOP ( 'NONE', ( #584, #866, #640, #609 ) ) ;
#54 = EDGE_CURVE ( 'NONE', #353, #76, #797, .T. ) ;
#55 = EDGE_LOOP ( 'NONE', ( #767, #446, #819, #401 ) ) ;
#56 = FACE_BOUND ( 'NONE', #708, .T. ) ;
#57 = DIRECTION ( 'NONE',  ( 0.000000000000000000, -1.000000000000000000, 0.000000000000000000 ) ) ;
#58 = VERTEX_POINT ( 'NONE', #422 ) ;
#59 = ORIENTED_EDGE ( 'NONE', *, *, #710, .T. ) ;
#60 = EDGE_CURVE ( 'NONE', #131, #722, #635, .T. ) ;
#61 = DIRECTION ( 'NONE',  ( 0.000000000000000000, 0.000000000000000000, -1.000000000000000000 ) ) ;
#62 = LINE ( 'NONE', #543, #844 ) ;
#63 = ORIENTED_EDGE ( 'NONE', *, *, #690, .F. ) ;
#64 = EDGE_LOOP ( 'NONE', ( #240, #589, #920, #381 ) ) ;
#65 = CARTESIAN_POINT ( 'NONE',  ( 74.25000000000000000, 8.920000000000001705, 4.649999999999999467 ) ) ;
#66 = EDGE_CURVE ( 'NONE', #481, #999, #178, .T. ) ;
#67 = DIRECTION ( 'NONE',  ( 1.000000000000000000, 0.000000000000000000, 0.000000000000000000 ) ) ;
#68 = ORIENTED_EDGE ( 'NONE', *, *, #243, .F. ) ;
#69 = AXIS2_PLACEMENT_3D ( 'NONE', #47, #36, #440 ) ;
#70 = VECTOR ( 'NONE', #293, 1000.000000000000000 ) ;
#71 = ORIENTED_EDGE ( 'NONE', *, *, #168, .F. ) ;
#72 = VECTOR ( 'NONE', #611, 1000.000000000000000 ) ;
#73 = FACE_OUTER_BOUND ( 'NONE', #936, .T. ) ;
#74 = CARTESIAN_POINT ( 'NONE',  ( 62.70000000000000284, 10.91999999999999993, 6.250000000000000000 ) ) ;
#75 = ADVANCED_FACE ( 'NONE', ( #492 ), #721, .F. ) ;
#76 = VERTEX_POINT ( 'NONE', #569 ) ;
#77 = ORIENTED_EDGE ( 'NONE', *, *, #225, .F. ) ;
#78 = DIRECTION ( 'NONE',  ( 0.000000000000000000, 1.000000000000000000, 0.000000000000000000 ) ) ;
#79 = DIRECTION ( 'NONE',  ( 0.000000000000000000, -1.000000000000000000, 0.000000000000000000 ) ) ;
#80 = ORIENTED_EDGE ( 'NONE', *, *, #768, .T. ) ;
#81 = ORIENTED_EDGE ( 'NONE', *, *, #349, .T. ) ;
#82 = DIRECTION ( 'NONE',  ( 1.000000000000000000, 0.000000000000000000, 0.000000000000000000 ) ) ;
#83 = CARTESIAN_POINT ( 'NONE',  ( 62.70000000000000284, 10.91999999999999993, 6.250000000000000000 ) ) ;
#84 = CARTESIAN_POINT ( 'NONE',  ( 65.79999999999999716, 10.91999999999999993, 12.50000000000000000 ) ) ;
#85 = ORIENTED_EDGE ( 'NONE', *, *, #320, .F. ) ;
#86 = EDGE_CURVE ( 'NONE', #958, #481, #244, .T. ) ;
#87 = VECTOR ( 'NONE', #79, 1000.000000000000000 ) ;
#88 = VECTOR ( 'NONE', #123, 1000.000000000000000 ) ;
#89 = CARTESIAN_POINT ( 'NONE',  ( 80.00000000000000000, 8.920000000000001705, 12.50000000000000000 ) ) ;
#90 = DIRECTION ( 'NONE',  ( 0.000000000000000000, 1.000000000000000000, 0.000000000000000000 ) ) ;
#91 = DIRECTION ( 'NONE',  ( 8.673617379884029556E-16, 0.000000000000000000, -1.000000000000000000 ) ) ;
#92 = ORIENTED_EDGE ( 'NONE', *, *, #130, .F. ) ;
#93 = CARTESIAN_POINT ( 'NONE',  ( 50.00000000000000000, 8.920000000000001705, 10.50000000000000000 ) ) ;
#94 = CARTESIAN_POINT ( 'NONE',  ( 80.00000000000000000, 10.91999999999999993, 12.50000000000000000 ) ) ;
#95 = ORIENTED_EDGE ( 'NONE', *, *, #408, .F. ) ;
#96 = ORIENTED_EDGE ( 'NONE', *, *, #193, .F. ) ;
#97 = DIRECTION ( 'NONE',  ( 1.000000000000000000, 0.000000000000000000, 0.000000000000000000 ) ) ;
#98 = DIRECTION ( 'NONE',  ( 0.000000000000000000, 0.000000000000000000, -1.000000000000000000 ) ) ;
#99 = EDGE_CURVE ( 'NONE', #851, #664, #716, .T. ) ;
#100 = CARTESIAN_POINT ( 'NONE',  ( 22.00000000000000000, 0.000000000000000000, 5.049999999999999822 ) ) ;
#101 = ORIENTED_EDGE ( 'NONE', *, *, #162, .T. ) ;
#102 = DIRECTION ( 'NONE',  ( -0.000000000000000000, 1.000000000000000000, 0.000000000000000000 ) ) ;
#103 = VECTOR ( 'NONE', #352, 1000.000000000000000 ) ;
#104 = VECTOR ( 'NONE', #404, 1000.000000000000000 ) ;
#105 = DIRECTION ( 'NONE',  ( 0.000000000000000000, -1.000000000000000000, 0.000000000000000000 ) ) ;
#106 = VECTOR ( 'NONE', #343, 1000.000000000000000 ) ;
#107 = EDGE_CURVE ( 'NONE', #687, #5, #730, .T. ) ;
#108 = CARTESIAN_POINT ( 'NONE',  ( 46.50000000000000000, 8.920000000000001705, 12.50000000000000000 ) ) ;
#109 = EDGE_LOOP ( 'NONE', ( #63, #652, #867, #174 ) ) ;
#110 = DIRECTION ( 'NONE',  ( 1.000000000000000000, 0.000000000000000000, 0.000000000000000000 ) ) ;
#111 = DIRECTION ( 'NONE',  ( 0.000000000000000000, -1.000000000000000000, 0.000000000000000000 ) ) ;
#112 = DIRECTION ( 'NONE',  ( 0.000000000000000000, -1.000000000000000000, 0.000000000000000000 ) ) ;
#113 = ORIENTED_EDGE ( 'NONE', *, *, #402, .F. ) ;
#114 = EDGE_CURVE ( 'NONE', #391, #158, #9, .T. ) ;
#115 = CARTESIAN_POINT ( 'NONE',  ( 40.00000000000000000, 8.920000000000001705, 11.00000000000000000 ) ) ;
#116 = LINE ( 'NONE', #834, #712 ) ;
#117 = ORIENTED_EDGE ( 'NONE', *, *, #41, .F. ) ;
#118 = PLANE ( 'NONE',  #303 ) ;
#119 = VECTOR ( 'NONE', #286, 1000.000000000000000 ) ;
#120 = FACE_OUTER_BOUND ( 'NONE', #622, .T. ) ;
#121 = DIRECTION ( 'NONE',  ( 0.000000000000000000, -1.000000000000000000, 0.000000000000000000 ) ) ;
#122 = ORIENTED_EDGE ( 'NONE', *, *, #282, .F. ) ;
#123 = DIRECTION ( 'NONE',  ( 0.000000000000000000, -1.000000000000000000, 0.000000000000000000 ) ) ;
#124 = PLANE ( 'NONE',  #925 ) ;
#125 = FACE_OUTER_BOUND ( 'NONE', #545, .T. ) ;
#126 = ORIENTED_EDGE ( 'NONE', *, *, #27, .F. ) ;
#127 = APPLICATION_PROTOCOL_DEFINITION ( 'draft international standard', 'automotive_design', 1998, #420 ) ;
#128 = DIRECTION ( 'NONE',  ( -1.000000000000000000, -1.652117596168389975E-16, 0.000000000000000000 ) ) ;
#129 = CARTESIAN_POINT ( 'NONE',  ( 1.015900185656328148E-16, 2.000000000000000000, 12.50000000000000000 ) ) ;
#130 = EDGE_CURVE ( 'NONE', #782, #630, #260, .T. ) ;
#131 = VERTEX_POINT ( 'NONE', #882 ) ;
#132 = CARTESIAN_POINT ( 'NONE',  ( 8.500000000000000000, 12.50000000000000000, 7.450000000000000178 ) ) ;
#133 = VECTOR ( 'NONE', #952, 1000.000000000000000 ) ;
#134 = DIRECTION ( 'NONE',  ( 0.000000000000000000, 0.000000000000000000, -1.000000000000000000 ) ) ;
#135 = CIRCLE ( 'NONE', #645, 1.199999999999999734 ) ;
#136 = ADVANCED_FACE ( 'NONE', ( #802 ), #887, .F. ) ;
#137 = VECTOR ( 'NONE', #1020, 1000.000000000000000 ) ;
#138 = ORIENTED_EDGE ( 'NONE', *, *, #275, .T. ) ;
#139 = DIRECTION ( 'NONE',  ( 0.000000000000000000, 0.000000000000000000, 1.000000000000000000 ) ) ;
#140 = CARTESIAN_POINT ( 'NONE',  ( 65.79999999999999716, 8.920000000000001705, 1.199999999999999956 ) ) ;
#141 = FACE_BOUND ( 'NONE', #772, .T. ) ;
#142 = EDGE_LOOP ( 'NONE', ( #947, #144, #550, #854 ) ) ;
#143 = ADVANCED_BREP_SHAPE_REPRESENTATION ( 'Team-A4-IR holder', ( #384, #830 ), #287 ) ;
#144 = ORIENTED_EDGE ( 'NONE', *, *, #423, .F. ) ;
#145 = CARTESIAN_POINT ( 'NONE',  ( 40.00000000000000000, 0.000000000000000000, 12.50000000000000000 ) ) ;
#146 = DIRECTION ( 'NONE',  ( 1.652117596168389975E-16, -1.000000000000000000, 0.000000000000000000 ) ) ;
#147 = ORIENTED_EDGE ( 'NONE', *, *, #495, .F. ) ;
#148 = ORIENTED_EDGE ( 'NONE', *, *, #838, .T. ) ;
#149 = EDGE_CURVE ( 'NONE', #224, #687, #678, .T. ) ;
#150 = CARTESIAN_POINT ( 'NONE',  ( 40.00000000000000000, 8.920000000000001705, 12.50000000000000000 ) ) ;
#151 = FACE_OUTER_BOUND ( 'NONE', #64, .T. ) ;
#152 = EDGE_LOOP ( 'NONE', ( #26, #169, #154, #308 ) ) ;
#153 = VECTOR ( 'NONE', #369, 1000.000000000000000 ) ;
#154 = ORIENTED_EDGE ( 'NONE', *, *, #455, .T. ) ;
#155 = VECTOR ( 'NONE', #199, 1000.000000000000000 ) ;
#156 = DIRECTION ( 'NONE',  ( -5.079500928281639510E-17, -1.000000000000000000, 0.000000000000000000 ) ) ;
#157 = FACE_BOUND ( 'NONE', #152, .T. ) ;
#158 = VERTEX_POINT ( 'NONE', #445 ) ;
#159 = ORIENTED_EDGE ( 'NONE', *, *, #791, .T. ) ;
#160 = LINE ( 'NONE', #478, #531 ) ;
#161 = DIRECTION ( 'NONE',  ( 0.000000000000000000, 0.000000000000000000, 1.000000000000000000 ) ) ;
#162 = EDGE_CURVE ( 'NONE', #931, #636, #345, .T. ) ;
#163 = CARTESIAN_POINT ( 'NONE',  ( 46.50000000000000000, 8.920000000000001705, 3.000000000000000000 ) ) ;
#164 = VERTEX_POINT ( 'NONE', #432 ) ;
#165 = DIRECTION ( 'NONE',  ( 0.000000000000000000, 0.000000000000000000, 1.000000000000000000 ) ) ;
#166 = CARTESIAN_POINT ( 'NONE',  ( 62.70000000000000284, 8.920000000000001705, 6.250000000000000000 ) ) ;
#167 = ORIENTED_EDGE ( 'NONE', *, *, #206, .F. ) ;
#168 = EDGE_CURVE ( 'NONE', #256, #367, #583, .T. ) ;
#169 = ORIENTED_EDGE ( 'NONE', *, *, #32, .T. ) ;
#170 = VECTOR ( 'NONE', #904, 1000.000000000000000 ) ;
#171 = AXIS2_PLACEMENT_3D ( 'NONE', #728, #78, #236 ) ;
#172 = CYLINDRICAL_SURFACE ( 'NONE', #517, 1.199999999999999734 ) ;
#173 = CARTESIAN_POINT ( 'NONE',  ( 40.00000000000000000, 8.920000000000001705, 10.50000000000000000 ) ) ;
#174 = ORIENTED_EDGE ( 'NONE', *, *, #785, .F. ) ;
#175 = EDGE_CURVE ( 'NONE', #391, #670, #116, .T. ) ;
#176 = DIRECTION ( 'NONE',  ( 0.000000000000000000, -1.000000000000000000, 0.000000000000000000 ) ) ;
#177 = CARTESIAN_POINT ( 'NONE',  ( 8.500000000000000000, 0.000000000000000000, 6.250000000000000000 ) ) ;
#178 = LINE ( 'NONE', #13, #990 ) ;
#179 = ORIENTED_EDGE ( 'NONE', *, *, #937, .T. ) ;
#180 = CARTESIAN_POINT ( 'NONE',  ( 71.59999999999999432, 10.91999999999999993, 12.50000000000000000 ) ) ;
#181 = ADVANCED_FACE ( 'NONE', ( #50 ), #656, .F. ) ;
#182 = DIRECTION ( 'NONE',  ( -1.000000000000000000, 0.000000000000000000, 0.000000000000000000 ) ) ;
#183 = DIRECTION ( 'NONE',  ( 0.000000000000000000, -1.000000000000000000, 0.000000000000000000 ) ) ;
#184 = ORIENTED_EDGE ( 'NONE', *, *, #653, .T. ) ;
#185 = AXIS2_PLACEMENT_3D ( 'NONE', #463, #378, #607 ) ;
#186 = AXIS2_PLACEMENT_3D ( 'NONE', #810, #105, #501 ) ;
#187 = CARTESIAN_POINT ( 'NONE',  ( 74.25000000000000000, 8.920000000000001705, 7.849999999999999645 ) ) ;
#188 = DIRECTION ( 'NONE',  ( -1.000000000000000000, 0.000000000000000000, 0.000000000000000000 ) ) ;
#189 = ORIENTED_EDGE ( 'NONE', *, *, #653, .F. ) ;
#190 = LINE ( 'NONE', #31, #88 ) ;
#191 = CARTESIAN_POINT ( 'NONE',  ( 59.00000000000000000, 12.50000000000000000, 10.50000000000000000 ) ) ;
#192 = CARTESIAN_POINT ( 'NONE',  ( 22.00000000000000000, 2.000000000000000000, 7.450000000000000178 ) ) ;
#193 = EDGE_CURVE ( 'NONE', #630, #924, #755, .T. ) ;
#194 = ORIENTED_EDGE ( 'NONE', *, *, #533, .T. ) ;
#195 = LINE ( 'NONE', #180, #596 ) ;
#196 = CARTESIAN_POINT ( 'NONE',  ( 71.59999999999999432, 12.50000000000000000, 11.29999999999999893 ) ) ;
#197 = PLANE ( 'NONE',  #200 ) ;
#198 = ORIENTED_EDGE ( 'NONE', *, *, #832, .F. ) ;
#199 = DIRECTION ( 'NONE',  ( -1.000000000000000000, -1.652117596168389975E-16, 0.000000000000000000 ) ) ;
#200 = AXIS2_PLACEMENT_3D ( 'NONE', #989, #188, #427 ) ;
#201 = CARTESIAN_POINT ( 'NONE',  ( 22.00000000000000000, 2.000000000000000000, 6.250000000000000000 ) ) ;
#202 = AXIS2_PLACEMENT_3D ( 'NONE', #201, #279, #655 ) ;
#203 = DIRECTION ( 'NONE',  ( 1.000000000000000000, 0.000000000000000000, 0.000000000000000000 ) ) ;
#204 = AXIS2_PLACEMENT_3D ( 'NONE', #654, #666, #110 ) ;
#205 = ORIENTED_EDGE ( 'NONE', *, *, #996, .F. ) ;
#206 = EDGE_CURVE ( 'NONE', #972, #747, #519, .T. ) ;
#207 = DIRECTION ( 'NONE',  ( 0.000000000000000000, 0.000000000000000000, -1.000000000000000000 ) ) ;
#208 = DIRECTION ( 'NONE',  ( 0.000000000000000000, -1.000000000000000000, 0.000000000000000000 ) ) ;
#209 = EDGE_LOOP ( 'NONE', ( #81, #540, #213, #317 ) ) ;
#210 = LINE ( 'NONE', #383, #70 ) ;
#211 = EDGE_CURVE ( 'NONE', #76, #782, #916, .T. ) ;
#212 = DIRECTION ( 'NONE',  ( 1.000000000000000000, 0.000000000000000000, 0.000000000000000000 ) ) ;
#213 = ORIENTED_EDGE ( 'NONE', *, *, #791, .F. ) ;
#214 = DIRECTION ( 'NONE',  ( 0.000000000000000000, 1.000000000000000000, 0.000000000000000000 ) ) ;
#215 = VECTOR ( 'NONE', #337, 1000.000000000000000 ) ;
#216 = FACE_BOUND ( 'NONE', #917, .T. ) ;
#217 = VECTOR ( 'NONE', #259, 1000.000000000000000 ) ;
#218 = ADVANCED_FACE ( 'NONE', ( #280 ), #901, .F. ) ;
#219 = VECTOR ( 'NONE', #769, 1000.000000000000000 ) ;
#220 = ORIENTED_EDGE ( 'NONE', *, *, #768, .F. ) ;
#221 = ORIENTED_EDGE ( 'NONE', *, *, #646, .F. ) ;
#222 = LINE ( 'NONE', #765, #400 ) ;
#223 = CARTESIAN_POINT ( 'NONE',  ( 38.00000000000000000, 10.91999999999999993, 12.50000000000000000 ) ) ;
#224 = VERTEX_POINT ( 'NONE', #192 ) ;
#225 = EDGE_CURVE ( 'NONE', #670, #876, #981, .T. ) ;
#226 = VERTEX_POINT ( 'NONE', #827 ) ;
#227 = FACE_BOUND ( 'NONE', #376, .T. ) ;
#228 = DIRECTION ( 'NONE',  ( 0.000000000000000000, -1.000000000000000000, 0.000000000000000000 ) ) ;
#229 = ORIENTED_EDGE ( 'NONE', *, *, #467, .T. ) ;
#230 = PLANE ( 'NONE',  #612 ) ;
#231 = PRESENTATION_STYLE_ASSIGNMENT (( #939 ) ) ;
#232 = EDGE_LOOP ( 'NONE', ( #281, #416, #692, #198 ) ) ;
#233 = AXIS2_PLACEMENT_3D ( 'NONE', #910, #264, #112 ) ;
#234 = AXIS2_PLACEMENT_3D ( 'NONE', #196, #431, #909 ) ;
#235 = ORIENTED_EDGE ( 'NONE', *, *, #509, .T. ) ;
#236 = DIRECTION ( 'NONE',  ( 0.000000000000000000, 0.000000000000000000, 1.000000000000000000 ) ) ;
#237 = ADVANCED_FACE ( 'NONE', ( #360 ), #676, .F. ) ;
#238 = CARTESIAN_POINT ( 'NONE',  ( 62.70000000000000284, 12.50000000000000000, 7.849999999999999645 ) ) ;
#239 = DIRECTION ( 'NONE',  ( 0.000000000000000000, 1.000000000000000000, 0.000000000000000000 ) ) ;
#240 = ORIENTED_EDGE ( 'NONE', *, *, #725, .T. ) ;
#241 = CARTESIAN_POINT ( 'NONE',  ( 38.00000000000000000, 2.000000000000000000, 12.50000000000000000 ) ) ;
#242 = LINE ( 'NONE', #561, #548 ) ;
#243 = EDGE_CURVE ( 'NONE', #76, #972, #839, .T. ) ;
#244 = LINE ( 'NONE', #84, #215 ) ;
#245 = EDGE_LOOP ( 'NONE', ( #704, #319, #428, #113 ) ) ;
#246 = CARTESIAN_POINT ( 'NONE',  ( 8.500000000000000000, 0.000000000000000000, 5.049999999999999822 ) ) ;
#247 = DIRECTION ( 'NONE',  ( 0.000000000000000000, -1.000000000000000000, 0.000000000000000000 ) ) ;
#248 = DIRECTION ( 'NONE',  ( -7.779029040254750093E-16, -1.000000000000000000, 0.000000000000000000 ) ) ;
#249 = ADVANCED_FACE ( 'NONE', ( #895 ), #669, .F. ) ;
#250 = VECTOR ( 'NONE', #985, 1000.000000000000000 ) ;
#251 = ORIENTED_EDGE ( 'NONE', *, *, #21, .T. ) ;
#252 = AXIS2_PLACEMENT_3D ( 'NONE', #166, #880, #720 ) ;
#253 = VECTOR ( 'NONE', #258, 1000.000000000000000 ) ;
#254 = DIRECTION ( 'NONE',  ( 1.000000000000000000, 0.000000000000000000, 0.000000000000000000 ) ) ;
#255 = CARTESIAN_POINT ( 'NONE',  ( 8.500000000000000000, 2.000000000000000000, 6.250000000000000000 ) ) ;
#256 = VERTEX_POINT ( 'NONE', #818 ) ;
#257 = ADVANCED_FACE ( 'NONE', ( #125 ), #197, .F. ) ;
#258 = DIRECTION ( 'NONE',  ( 0.000000000000000000, -1.000000000000000000, 0.000000000000000000 ) ) ;
#259 = DIRECTION ( 'NONE',  ( 0.000000000000000000, 0.000000000000000000, -1.000000000000000000 ) ) ;
#260 = LINE ( 'NONE', #173, #299 ) ;
#261 = ORIENTED_EDGE ( 'NONE', *, *, #193, .T. ) ;
#262 = DIRECTION ( 'NONE',  ( -1.000000000000000000, 0.000000000000000000, 0.000000000000000000 ) ) ;
#263 = PLANE ( 'NONE',  #364 ) ;
#264 = DIRECTION ( 'NONE',  ( 3.738628180984494542E-17, 0.000000000000000000, -1.000000000000000000 ) ) ;
#265 = EDGE_LOOP ( 'NONE', ( #159, #982, #229, #570, #272, #346, #626, #459 ) ) ;
#266 = CIRCLE ( 'NONE', #318, 1.600000000000000755 ) ;
#267 = CIRCLE ( 'NONE', #529, 1.199999999999999734 ) ;
#268 = CIRCLE ( 'NONE', #171, 1.600000000000000755 ) ;
#269 = LINE ( 'NONE', #970, #610 ) ;
#270 = ADVANCED_FACE ( 'NONE', ( #276 ), #587, .F. ) ;
#271 = CARTESIAN_POINT ( 'NONE',  ( 50.00000000000000000, 12.50000000000000000, 10.50000000000000000 ) ) ;
#272 = ORIENTED_EDGE ( 'NONE', *, *, #27, .T. ) ;
#273 = PLANE ( 'NONE',  #204 ) ;
#274 = PLANE ( 'NONE',  #234 ) ;
#275 = EDGE_CURVE ( 'NONE', #752, #131, #766, .T. ) ;
#276 = FACE_OUTER_BOUND ( 'NONE', #935, .T. ) ;
#277 = ORIENTED_EDGE ( 'NONE', *, *, #621, .T. ) ;
#278 = CARTESIAN_POINT ( 'NONE',  ( 22.00000000000000000, 0.000000000000000000, 6.250000000000000000 ) ) ;
#279 = DIRECTION ( 'NONE',  ( 0.000000000000000000, -1.000000000000000000, 0.000000000000000000 ) ) ;
#280 = FACE_OUTER_BOUND ( 'NONE', #489, .T. ) ;
#281 = ORIENTED_EDGE ( 'NONE', *, *, #799, .F. ) ;
#282 = EDGE_CURVE ( 'NONE', #926, #493, #994, .T. ) ;
#283 = PRODUCT_CONTEXT ( 'NONE', #362, 'mechanical' ) ;
#284 = CARTESIAN_POINT ( 'NONE',  ( 74.25000000000000000, 12.50000000000000000, 6.250000000000000000 ) ) ;
#285 = COLOUR_RGB ( '',0.7921568627450980005, 0.8196078431372548767, 0.9333333333333333481 ) ;
#286 = DIRECTION ( 'NONE',  ( -7.779029040254750093E-16, -1.000000000000000000, 0.000000000000000000 ) ) ;
#287 =( GEOMETRIC_REPRESENTATION_CONTEXT ( 3 ) GLOBAL_UNCERTAINTY_ASSIGNED_CONTEXT ( ( #913 ) ) GLOBAL_UNIT_ASSIGNED_CONTEXT ( ( #738, #816, #505 ) ) REPRESENTATION_CONTEXT ( 'NONE', 'WORKASPACE' ) );
#288 = ORIENTED_EDGE ( 'NONE', *, *, #86, .F. ) ;
#289 = EDGE_CURVE ( 'NONE', #620, #664, #266, .T. ) ;
#290 = CARTESIAN_POINT ( 'NONE',  ( 59.00000000000000000, 10.91999999999999993, 1.300000000000000044 ) ) ;
#291 = CARTESIAN_POINT ( 'NONE',  ( 1.015900185656328148E-16, 2.000000000000000000, 0.000000000000000000 ) ) ;
#292 = ORIENTED_EDGE ( 'NONE', *, *, #342, .T. ) ;
#293 = DIRECTION ( 'NONE',  ( 0.000000000000000000, -1.000000000000000000, 0.000000000000000000 ) ) ;
#294 = EDGE_CURVE ( 'NONE', #312, #851, #942, .T. ) ;
#295 = LINE ( 'NONE', #682, #51 ) ;
#296 = ORIENTED_EDGE ( 'NONE', *, *, #402, .T. ) ;
#297 = VERTEX_POINT ( 'NONE', #474 ) ;
#298 = CARTESIAN_POINT ( 'NONE',  ( 50.00000000000000000, 12.50000000000000000, 1.300000000000000044 ) ) ;
#299 = VECTOR ( 'NONE', #563, 1000.000000000000000 ) ;
#300 = LINE ( 'NONE', #291, #153 ) ;
#301 = ADVANCED_FACE ( 'NONE', ( #157, #919, #1010, #216, #141, #151 ), #469, .F. ) ;
#302 = VECTOR ( 'NONE', #111, 1000.000000000000000 ) ;
#303 = AXIS2_PLACEMENT_3D ( 'NONE', #425, #749, #658 ) ;
#304 = ORIENTED_EDGE ( 'NONE', *, *, #54, .T. ) ;
#305 = VERTEX_POINT ( 'NONE', #365 ) ;
#306 = CARTESIAN_POINT ( 'NONE',  ( 80.00000000000000000, 10.91999999999999993, 0.000000000000000000 ) ) ;
#307 = DIRECTION ( 'NONE',  ( 0.000000000000000000, 0.000000000000000000, 1.000000000000000000 ) ) ;
#308 = ORIENTED_EDGE ( 'NONE', *, *, #606, .T. ) ;
#309 = ORIENTED_EDGE ( 'NONE', *, *, #243, .T. ) ;
#310 = LINE ( 'NONE', #605, #1006 ) ;
#311 = CARTESIAN_POINT ( 'NONE',  ( 59.00000000000000000, 10.91999999999999993, 10.50000000000000000 ) ) ;
#312 = VERTEX_POINT ( 'NONE', #770 ) ;
#313 = ORIENTED_EDGE ( 'NONE', *, *, #606, .F. ) ;
#314 = EDGE_CURVE ( 'NONE', #727, #855, #295, .T. ) ;
#315 = DIRECTION ( 'NONE',  ( 1.000000000000000000, 0.000000000000000000, 0.000000000000000000 ) ) ;
#316 = FACE_OUTER_BOUND ( 'NONE', #798, .T. ) ;
#317 = ORIENTED_EDGE ( 'NONE', *, *, #168, .T. ) ;
#318 = AXIS2_PLACEMENT_3D ( 'NONE', #698, #848, #842 ) ;
#319 = ORIENTED_EDGE ( 'NONE', *, *, #342, .F. ) ;
#320 = EDGE_CURVE ( 'NONE', #924, #736, #62, .T. ) ;
#321 = FACE_OUTER_BOUND ( 'NONE', #566, .T. ) ;
#322 = LINE ( 'NONE', #108, #33 ) ;
#323 = ORIENTED_EDGE ( 'NONE', *, *, #386, .F. ) ;
#324 = CYLINDRICAL_SURFACE ( 'NONE', #1008, 1.599999999999999867 ) ;
#325 = DIRECTION ( 'NONE',  ( 1.000000000000000000, 0.000000000000000000, 0.000000000000000000 ) ) ;
#326 = ADVANCED_FACE ( 'NONE', ( #619 ), #780, .F. ) ;
#327 = EDGE_LOOP ( 'NONE', ( #504, #840, #433, #717 ) ) ;
#328 = EDGE_LOOP ( 'NONE', ( #902, #68, #967, #701 ) ) ;
#329 = FACE_OUTER_BOUND ( 'NONE', #209, .T. ) ;
#330 = DIRECTION ( 'NONE',  ( 0.000000000000000000, 0.000000000000000000, -1.000000000000000000 ) ) ;
#331 = EDGE_CURVE ( 'NONE', #747, #353, #691, .T. ) ;
#332 = CARTESIAN_POINT ( 'NONE',  ( 62.70000000000000284, 12.50000000000000000, 6.250000000000000000 ) ) ;
#333 = AXIS2_PLACEMENT_3D ( 'NONE', #865, #853, #67 ) ;
#334 = EDGE_LOOP ( 'NONE', ( #544, #235, #786, #693 ) ) ;
#335 = LINE ( 'NONE', #637, #977 ) ;
#336 = CARTESIAN_POINT ( 'NONE',  ( 80.00000000000000000, 10.91999999999999993, 3.000000000000000000 ) ) ;
#337 = DIRECTION ( 'NONE',  ( 0.000000000000000000, 0.000000000000000000, -1.000000000000000000 ) ) ;
#338 = ORIENTED_EDGE ( 'NONE', *, *, #437, .F. ) ;
#339 = CARTESIAN_POINT ( 'NONE',  ( 65.79999999999999716, 12.50000000000000000, 11.29999999999999893 ) ) ;
#340 = LINE ( 'NONE', #496, #1023 ) ;
#341 = ORIENTED_EDGE ( 'NONE', *, *, #870, .T. ) ;
#342 = EDGE_CURVE ( 'NONE', #164, #297, #813, .T. ) ;
#343 = DIRECTION ( 'NONE',  ( 0.000000000000000000, 0.000000000000000000, -1.000000000000000000 ) ) ;
#344 = PLANE ( 'NONE',  #452 ) ;
#345 = LINE ( 'NONE', #522, #450 ) ;
#346 = ORIENTED_EDGE ( 'NONE', *, *, #930, .T. ) ;
#347 = CARTESIAN_POINT ( 'NONE',  ( 65.79999999999999716, 10.91999999999999993, 11.29999999999999893 ) ) ;
#348 = CIRCLE ( 'NONE', #202, 1.199999999999999734 ) ;
#349 = EDGE_CURVE ( 'NONE', #367, #931, #300, .T. ) ;
#350 = VECTOR ( 'NONE', #451, 1000.000000000000000 ) ;
#351 = FACE_OUTER_BOUND ( 'NONE', #539, .T. ) ;
#352 = DIRECTION ( 'NONE',  ( 0.000000000000000000, 0.000000000000000000, -1.000000000000000000 ) ) ;
#353 = VERTEX_POINT ( 'NONE', #311 ) ;
#354 = CARTESIAN_POINT ( 'NONE',  ( 38.00000000000000000, 2.000000000000000000, 12.50000000000000000 ) ) ;
#355 = CARTESIAN_POINT ( 'NONE',  ( 59.00000000000000000, 8.920000000000001705, 10.50000000000000000 ) ) ;
#356 = CARTESIAN_POINT ( 'NONE',  ( 22.00000000000000000, 12.50000000000000000, 6.250000000000000000 ) ) ;
#357 = EDGE_CURVE ( 'NONE', #481, #727, #613, .T. ) ;
#358 = FACE_OUTER_BOUND ( 'NONE', #733, .T. ) ;
#359 = DIRECTION ( 'NONE',  ( 1.000000000000000000, 0.000000000000000000, 0.000000000000000000 ) ) ;
#360 = FACE_OUTER_BOUND ( 'NONE', #726, .T. ) ;
#361 = VERTEX_POINT ( 'NONE', #686 ) ;
#362 = APPLICATION_CONTEXT ( 'automotive_design' ) ;
#363 = CARTESIAN_POINT ( 'NONE',  ( 46.50000000000000000, 10.91999999999999993, 11.00000000000000000 ) ) ;
#364 = AXIS2_PLACEMENT_3D ( 'NONE', #191, #750, #660 ) ;
#365 = CARTESIAN_POINT ( 'NONE',  ( 71.59999999999999432, 8.920000000000001705, 1.199999999999999956 ) ) ;
#366 = VECTOR ( 'NONE', #877, 1000.000000000000000 ) ;
#367 = VERTEX_POINT ( 'NONE', #857 ) ;
#368 = PLANE ( 'NONE',  #470 ) ;
#369 = DIRECTION ( 'NONE',  ( -5.079500928281639510E-17, -1.000000000000000000, 0.000000000000000000 ) ) ;
#370 = ORIENTED_EDGE ( 'NONE', *, *, #509, .F. ) ;
#371 = ORIENTED_EDGE ( 'NONE', *, *, #710, .F. ) ;
#372 = ADVANCED_FACE ( 'NONE', ( #624 ), #929, .F. ) ;
#373 = LINE ( 'NONE', #618, #17 ) ;
#374 = DIRECTION ( 'NONE',  ( -1.000000000000000000, 0.000000000000000000, 0.000000000000000000 ) ) ;
#375 = ORIENTED_EDGE ( 'NONE', *, *, #870, .F. ) ;
#376 = EDGE_LOOP ( 'NONE', ( #940, #296 ) ) ;
#377 = FACE_BOUND ( 'NONE', #575, .T. ) ;
#378 = DIRECTION ( 'NONE',  ( 0.000000000000000000, 0.000000000000000000, -1.000000000000000000 ) ) ;
#379 = VECTOR ( 'NONE', #479, 1000.000000000000000 ) ;
#380 = VECTOR ( 'NONE', #412, 1000.000000000000000 ) ;
#381 = ORIENTED_EDGE ( 'NONE', *, *, #386, .T. ) ;
#382 = EDGE_LOOP ( 'NONE', ( #498, #599, #148, #92 ) ) ;
#383 = CARTESIAN_POINT ( 'NONE',  ( 65.79999999999999716, 12.50000000000000000, 11.29999999999999893 ) ) ;
#384 = MANIFOLD_SOLID_BREP ( 'NONE', #415 ) ;
#385 = CARTESIAN_POINT ( 'NONE',  ( 65.79999999999999716, 12.50000000000000000, 1.199999999999999956 ) ) ;
#386 = EDGE_CURVE ( 'NONE', #361, #393, #801, .T. ) ;
#387 = ORIENTED_EDGE ( 'NONE', *, *, #357, .F. ) ;
#388 = ORIENTED_EDGE ( 'NONE', *, *, #429, .T. ) ;
#389 = DIRECTION ( 'NONE',  ( 1.000000000000000000, 0.000000000000000000, 0.000000000000000000 ) ) ;
#390 = CARTESIAN_POINT ( 'NONE',  ( 0.000000000000000000, 0.000000000000000000, 12.50000000000000000 ) ) ;
#391 = VERTEX_POINT ( 'NONE', #223 ) ;
#392 = EDGE_CURVE ( 'NONE', #736, #782, #956, .T. ) ;
#393 = VERTEX_POINT ( 'NONE', #724 ) ;
#394 = CARTESIAN_POINT ( 'NONE',  ( 40.00000000000000000, 8.920000000000001705, 11.29999999999999893 ) ) ;
#395 = CARTESIAN_POINT ( 'NONE',  ( 74.25000000000000000, 12.50000000000000000, 7.849999999999999645 ) ) ;
#396 = VECTOR ( 'NONE', #934, 1000.000000000000000 ) ;
#397 = DIRECTION ( 'NONE',  ( 0.000000000000000000, 0.000000000000000000, -1.000000000000000000 ) ) ;
#398 = MECHANICAL_DESIGN_GEOMETRIC_PRESENTATION_REPRESENTATION (  '', ( #695 ), #731 ) ;
#399 = PRODUCT ( 'Team-A4-IR holder', 'Team-A4-IR holder', '', ( #283 ) ) ;
#400 = VECTOR ( 'NONE', #524, 1000.000000000000000 ) ;
#401 = ORIENTED_EDGE ( 'NONE', *, *, #633, .F. ) ;
#402 = EDGE_CURVE ( 'NONE', #792, #580, #861, .T. ) ;
#403 = FACE_OUTER_BOUND ( 'NONE', #808, .T. ) ;
#404 = DIRECTION ( 'NONE',  ( 0.000000000000000000, 0.000000000000000000, -1.000000000000000000 ) ) ;
#405 = DIRECTION ( 'NONE',  ( 1.000000000000000000, 1.652117596168389975E-16, 3.738628180984494542E-17 ) ) ;
#406 = VERTEX_POINT ( 'NONE', #491 ) ;
#407 = CARTESIAN_POINT ( 'NONE',  ( 1.015900185656328148E-16, 2.000000000000000000, 12.50000000000000000 ) ) ;
#408 = EDGE_CURVE ( 'NONE', #1004, #803, #135, .T. ) ;
#409 = CARTESIAN_POINT ( 'NONE',  ( 50.00000000000000000, 8.920000000000001705, 12.50000000000000000 ) ) ;
#410 = DIRECTION ( 'NONE',  ( -1.000000000000000000, -1.255391989193741911E-16, 0.000000000000000000 ) ) ;
#411 = ORIENTED_EDGE ( 'NONE', *, *, #206, .T. ) ;
#412 = DIRECTION ( 'NONE',  ( -5.079500928281639510E-17, -1.000000000000000000, 0.000000000000000000 ) ) ;
#413 = CARTESIAN_POINT ( 'NONE',  ( 22.00000000000000000, 0.000000000000000000, 6.250000000000000000 ) ) ;
#414 = CARTESIAN_POINT ( 'NONE',  ( 74.25000000000000000, 12.50000000000000000, 4.649999999999999467 ) ) ;
#415 = CLOSED_SHELL ( 'NONE', ( #270, #541, #923, #968, #249, #514, #588, #461, #75, #638, #326, #684, #884, #601, #863, #372, #218, #875, #900, #136, #301, #257, #773, #571, #1017, #824, #237, #181, #576, #907 ) ) ;
#416 = ORIENTED_EDGE ( 'NONE', *, *, #66, .F. ) ;
#417 = VECTOR ( 'NONE', #568, 1000.000000000000000 ) ;
#418 = PRODUCT_DEFINITION_FORMATION_WITH_SPECIFIED_SOURCE ( 'ANY', '', #399, .NOT_KNOWN. ) ;
#419 = DIRECTION ( 'NONE',  ( 1.000000000000000000, 0.000000000000000000, 0.000000000000000000 ) ) ;
#420 = APPLICATION_CONTEXT ( 'automotive_design' ) ;
#421 = DIRECTION ( 'NONE',  ( 0.000000000000000000, 0.000000000000000000, 1.000000000000000000 ) ) ;
#422 = CARTESIAN_POINT ( 'NONE',  ( 8.500000000000000000, 2.000000000000000000, 7.450000000000000178 ) ) ;
#423 = EDGE_CURVE ( 'NONE', #906, #1018, #642, .T. ) ;
#424 = EDGE_LOOP ( 'NONE', ( #534, #897, #535, #757 ) ) ;
#425 = CARTESIAN_POINT ( 'NONE',  ( 50.00000000000000000, 12.50000000000000000, 10.50000000000000000 ) ) ;
#426 = LINE ( 'NONE', #892, #595 ) ;
#427 = DIRECTION ( 'NONE',  ( 0.000000000000000000, 0.000000000000000000, 1.000000000000000000 ) ) ;
#428 = ORIENTED_EDGE ( 'NONE', *, *, #699, .T. ) ;
#429 = EDGE_CURVE ( 'NONE', #226, #722, #960, .T. ) ;
#430 = DIRECTION ( 'NONE',  ( 0.000000000000000000, 0.000000000000000000, -1.000000000000000000 ) ) ;
#431 = DIRECTION ( 'NONE',  ( 1.000000000000000000, 0.000000000000000000, 0.000000000000000000 ) ) ;
#432 = CARTESIAN_POINT ( 'NONE',  ( 62.70000000000000284, 10.91999999999999993, 4.649999999999999467 ) ) ;
#433 = ORIENTED_EDGE ( 'NONE', *, *, #1002, .T. ) ;
#434 = AXIS2_PLACEMENT_3D ( 'NONE', #512, #503, #751 ) ;
#435 = DIRECTION ( 'NONE',  ( 0.000000000000000000, -1.000000000000000000, 0.000000000000000000 ) ) ;
#436 = VECTOR ( 'NONE', #214, 1000.000000000000000 ) ;
#437 = EDGE_CURVE ( 'NONE', #441, #5, #267, .T. ) ;
#438 = CIRCLE ( 'NONE', #37, 1.199999999999999734 ) ;
#439 = CYLINDRICAL_SURFACE ( 'NONE', #52, 1.599999999999999867 ) ;
#440 = DIRECTION ( 'NONE',  ( 1.000000000000000000, 0.000000000000000000, 0.000000000000000000 ) ) ;
#441 = VERTEX_POINT ( 'NONE', #634 ) ;
#442 = CARTESIAN_POINT ( 'NONE',  ( 40.00000000000000000, 8.920000000000001705, 3.000000000000000000 ) ) ;
#443 = CARTESIAN_POINT ( 'NONE',  ( 22.00000000000000000, 12.50000000000000000, 7.450000000000000178 ) ) ;
#444 = EDGE_CURVE ( 'NONE', #912, #454, #729, .T. ) ;
#445 = CARTESIAN_POINT ( 'NONE',  ( 38.00000000000000000, 2.000000000000000000, 12.50000000000000000 ) ) ;
#446 = ORIENTED_EDGE ( 'NONE', *, *, #760, .F. ) ;
#447 = LINE ( 'NONE', #306, #846 ) ;
#448 = CARTESIAN_POINT ( 'NONE',  ( 59.00000000000000000, 8.920000000000001705, 12.50000000000000000 ) ) ;
#449 = ORIENTED_EDGE ( 'NONE', *, *, #314, .F. ) ;
#450 = VECTOR ( 'NONE', #822, 1000.000000000000000 ) ;
#451 = DIRECTION ( 'NONE',  ( -1.000000000000000000, -1.652117596168389975E-16, 0.000000000000000000 ) ) ;
#452 = AXIS2_PLACEMENT_3D ( 'NONE', #597, #40, #899 ) ;
#453 = FILL_AREA_STYLE_COLOUR ( '', #285 ) ;
#454 = VERTEX_POINT ( 'NONE', #3 ) ;
#455 = EDGE_CURVE ( 'NONE', #752, #963, #869, .T. ) ;
#456 = SHAPE_DEFINITION_REPRESENTATION ( #953, #143 ) ;
#457 = CARTESIAN_POINT ( 'NONE',  ( 50.00000000000000000, 8.920000000000001705, 1.300000000000000044 ) ) ;
#458 = DIRECTION ( 'NONE',  ( 0.000000000000000000, -1.000000000000000000, 0.000000000000000000 ) ) ;
#459 = ORIENTED_EDGE ( 'NONE', *, *, #614, .T. ) ;
#460 = ORIENTED_EDGE ( 'NONE', *, *, #838, .F. ) ;
#461 = ADVANCED_FACE ( 'NONE', ( #316 ), #950, .F. ) ;
#462 = DIRECTION ( 'NONE',  ( 0.000000000000000000, 1.000000000000000000, 0.000000000000000000 ) ) ;
#463 = CARTESIAN_POINT ( 'NONE',  ( 41.00000000000000000, 12.50000000000000000, 3.000000000000000000 ) ) ;
#464 = ORIENTED_EDGE ( 'NONE', *, *, #533, .F. ) ;
#465 = ORIENTED_EDGE ( 'NONE', *, *, #7, .F. ) ;
#466 = DIRECTION ( 'NONE',  ( -0.000000000000000000, 1.000000000000000000, 0.000000000000000000 ) ) ;
#467 = EDGE_CURVE ( 'NONE', #493, #513, #242, .T. ) ;
#468 = VECTOR ( 'NONE', #558, 1000.000000000000000 ) ;
#469 = PLANE ( 'NONE',  #497 ) ;
#470 = AXIS2_PLACEMENT_3D ( 'NONE', #150, #466, #315 ) ;
#471 = ORIENTED_EDGE ( 'NONE', *, *, #659, .T. ) ;
#472 = ORIENTED_EDGE ( 'NONE', *, *, #699, .F. ) ;
#473 = LINE ( 'NONE', #649, #665 ) ;
#474 = CARTESIAN_POINT ( 'NONE',  ( 62.70000000000000284, 10.91999999999999993, 7.849999999999999645 ) ) ;
#475 = EDGE_CURVE ( 'NONE', #926, #931, #573, .T. ) ;
#476 = ORIENTED_EDGE ( 'NONE', *, *, #996, .T. ) ;
#477 = ORIENTED_EDGE ( 'NONE', *, *, #614, .F. ) ;
#478 = CARTESIAN_POINT ( 'NONE',  ( 40.00000000000000000, 8.920000000000001705, 0.000000000000000000 ) ) ;
#479 = DIRECTION ( 'NONE',  ( 0.000000000000000000, -1.000000000000000000, 0.000000000000000000 ) ) ;
#480 = DIRECTION ( 'NONE',  ( -1.000000000000000000, -1.652117596168389975E-16, 0.000000000000000000 ) ) ;
#481 = VERTEX_POINT ( 'NONE', #8 ) ;
#482 = DIRECTION ( 'NONE',  ( 1.255391989193741911E-16, -1.000000000000000000, 0.000000000000000000 ) ) ;
#483 = CARTESIAN_POINT ( 'NONE',  ( 80.00000000000000000, 8.920000000000001705, 12.50000000000000000 ) ) ;
#484 = DIRECTION ( 'NONE',  ( 1.000000000000000000, 0.000000000000000000, 0.000000000000000000 ) ) ;
#485 = AXIS2_PLACEMENT_3D ( 'NONE', #885, #176, #389 ) ;
#486 = ORIENTED_EDGE ( 'NONE', *, *, #546, .F. ) ;
#487 = CARTESIAN_POINT ( 'NONE',  ( 62.70000000000000284, 8.920000000000001705, 7.849999999999999645 ) ) ;
#488 = DIRECTION ( 'NONE',  ( 0.000000000000000000, 0.000000000000000000, -1.000000000000000000 ) ) ;
#489 = EDGE_LOOP ( 'NONE', ( #763, #465, #77, #823, #189, #10, #220, #631 ) ) ;
#490 = FACE_OUTER_BOUND ( 'NONE', #327, .T. ) ;
#491 = CARTESIAN_POINT ( 'NONE',  ( 46.50000000000000000, 8.920000000000001705, 11.00000000000000000 ) ) ;
#492 = FACE_OUTER_BOUND ( 'NONE', #245, .T. ) ;
#493 = VERTEX_POINT ( 'NONE', #946 ) ;
#494 = PLANE ( 'NONE',  #864 ) ;
#495 = EDGE_CURVE ( 'NONE', #297, #164, #663, .T. ) ;
#496 = CARTESIAN_POINT ( 'NONE',  ( 80.00000000000000000, 8.920000000000001705, 12.50000000000000000 ) ) ;
#497 = AXIS2_PLACEMENT_3D ( 'NONE', #784, #146, #775 ) ;
#498 = ORIENTED_EDGE ( 'NONE', *, *, #211, .F. ) ;
#499 = VECTOR ( 'NONE', #207, 1000.000000000000000 ) ;
#500 = CARTESIAN_POINT ( 'NONE',  ( 46.50000000000000000, 12.50000000000000000, 11.00000000000000000 ) ) ;
#501 = DIRECTION ( 'NONE',  ( 1.000000000000000000, 0.000000000000000000, 0.000000000000000000 ) ) ;
#502 = EDGE_CURVE ( 'NONE', #297, #792, #628, .T. ) ;
#503 = DIRECTION ( 'NONE',  ( 0.000000000000000000, -1.000000000000000000, 0.000000000000000000 ) ) ;
#504 = ORIENTED_EDGE ( 'NONE', *, *, #668, .F. ) ;
#505 =( NAMED_UNIT ( * ) SI_UNIT ( $, .STERADIAN. ) SOLID_ANGLE_UNIT ( ) );
#506 = LINE ( 'NONE', #443, #302 ) ;
#507 = CARTESIAN_POINT ( 'NONE',  ( 38.00000000000000000, 10.91999999999999993, 0.000000000000000000 ) ) ;
#508 = EDGE_LOOP ( 'NONE', ( #14, #338 ) ) ;
#509 = EDGE_CURVE ( 'NONE', #312, #620, #789, .T. ) ;
#510 = DIRECTION ( 'NONE',  ( 0.000000000000000000, -1.000000000000000000, 0.000000000000000000 ) ) ;
#511 = LINE ( 'NONE', #34, #170 ) ;
#512 = CARTESIAN_POINT ( 'NONE',  ( 8.500000000000000000, 12.50000000000000000, 6.250000000000000000 ) ) ;
#513 = VERTEX_POINT ( 'NONE', #915 ) ;
#514 = ADVANCED_FACE ( 'NONE', ( #817 ), #274, .F. ) ;
#515 = CARTESIAN_POINT ( 'NONE',  ( 0.000000000000000000, 0.000000000000000000, 0.000000000000000000 ) ) ;
#516 = PRESENTATION_LAYER_ASSIGNMENT (  '', '', ( #695 ) ) ;
#517 = AXIS2_PLACEMENT_3D ( 'NONE', #793, #551, #783 ) ;
#518 = CARTESIAN_POINT ( 'NONE',  ( 40.00000000000000000, 8.920000000000001705, 12.50000000000000000 ) ) ;
#519 = LINE ( 'NONE', #592, #1005 ) ;
#520 = EDGE_LOOP ( 'NONE', ( #341, #776 ) ) ;
#521 = DIRECTION ( 'NONE',  ( 0.000000000000000000, 0.000000000000000000, 1.000000000000000000 ) ) ;
#522 = CARTESIAN_POINT ( 'NONE',  ( 0.000000000000000000, 0.000000000000000000, 0.000000000000000000 ) ) ;
#523 = ORIENTED_EDGE ( 'NONE', *, *, #275, .F. ) ;
#524 = DIRECTION ( 'NONE',  ( 0.000000000000000000, 1.000000000000000000, 0.000000000000000000 ) ) ;
#525 = CARTESIAN_POINT ( 'NONE',  ( 41.00000000000000000, 12.50000000000000000, 3.000000000000000000 ) ) ;
#526 = EDGE_CURVE ( 'NONE', #705, #58, #629, .T. ) ;
#527 = ORIENTED_EDGE ( 'NONE', *, *, #60, .F. ) ;
#528 = VECTOR ( 'NONE', #480, 1000.000000000000000 ) ;
#529 = AXIS2_PLACEMENT_3D ( 'NONE', #413, #247, #98 ) ;
#530 = CARTESIAN_POINT ( 'NONE',  ( 62.70000000000000284, 12.50000000000000000, 4.649999999999999467 ) ) ;
#531 = VECTOR ( 'NONE', #800, 1000.000000000000000 ) ;
#532 = CARTESIAN_POINT ( 'NONE',  ( 0.000000000000000000, 0.000000000000000000, 12.50000000000000000 ) ) ;
#533 = EDGE_CURVE ( 'NONE', #687, #224, #348, .T. ) ;
#534 = ORIENTED_EDGE ( 'NONE', *, *, #21, .F. ) ;
#535 = ORIENTED_EDGE ( 'NONE', *, *, #408, .T. ) ;
#536 = CARTESIAN_POINT ( 'NONE',  ( 0.000000000000000000, 0.000000000000000000, 0.000000000000000000 ) ) ;
#537 = DIRECTION ( 'NONE',  ( 0.000000000000000000, -1.000000000000000000, 0.000000000000000000 ) ) ;
#538 = SURFACE_STYLE_FILL_AREA ( #998 ) ;
#539 = EDGE_LOOP ( 'NONE', ( #370, #375, #709, #787 ) ) ;
#540 = ORIENTED_EDGE ( 'NONE', *, *, #475, .F. ) ;
#541 = ADVANCED_FACE ( 'NONE', ( #586 ), #263, .F. ) ;
#542 = FACE_OUTER_BOUND ( 'NONE', #142, .T. ) ;
#543 = CARTESIAN_POINT ( 'NONE',  ( 40.00000000000000000, 8.920000000000001705, 1.300000000000000044 ) ) ;
#544 = ORIENTED_EDGE ( 'NONE', *, *, #294, .F. ) ;
#545 = EDGE_LOOP ( 'NONE', ( #184, #323, #126, #771 ) ) ;
#546 = EDGE_CURVE ( 'NONE', #513, #549, #975, .T. ) ;
#547 = CARTESIAN_POINT ( 'NONE',  ( 0.000000000000000000, 0.000000000000000000, 12.50000000000000000 ) ) ;
#548 = VECTOR ( 'NONE', #90, 1000.000000000000000 ) ;
#549 = VERTEX_POINT ( 'NONE', #24 ) ;
#550 = ORIENTED_EDGE ( 'NONE', *, *, #805, .F. ) ;
#551 = DIRECTION ( 'NONE',  ( 0.000000000000000000, -1.000000000000000000, 0.000000000000000000 ) ) ;
#552 =( LENGTH_UNIT ( ) NAMED_UNIT ( * ) SI_UNIT ( .MILLI., .METRE. ) );
#553 = LINE ( 'NONE', #871, #828 ) ;
#554 = ORIENTED_EDGE ( 'NONE', *, *, #314, .T. ) ;
#555 = CARTESIAN_POINT ( 'NONE',  ( 65.79999999999999716, 8.920000000000001705, 11.29999999999999893 ) ) ;
#556 =( NAMED_UNIT ( * ) SI_UNIT ( $, .STERADIAN. ) SOLID_ANGLE_UNIT ( ) );
#557 = EDGE_CURVE ( 'NONE', #747, #924, #269, .T. ) ;
#558 = DIRECTION ( 'NONE',  ( 0.000000000000000000, -1.000000000000000000, 0.000000000000000000 ) ) ;
#559 = ORIENTED_EDGE ( 'NONE', *, *, #331, .F. ) ;
#560 = CARTESIAN_POINT ( 'NONE',  ( 71.59999999999999432, 12.50000000000000000, 1.199999999999999956 ) ) ;
#561 = CARTESIAN_POINT ( 'NONE',  ( 40.00000000000000000, 0.000000000000000000, 12.50000000000000000 ) ) ;
#562 = VECTOR ( 'NONE', #208, 1000.000000000000000 ) ;
#563 = DIRECTION ( 'NONE',  ( 1.000000000000000000, 0.000000000000000000, 0.000000000000000000 ) ) ;
#564 = VECTOR ( 'NONE', #650, 1000.000000000000000 ) ;
#565 = AXIS2_PLACEMENT_3D ( 'NONE', #278, #510, #973 ) ;
#566 = EDGE_LOOP ( 'NONE', ( #883, #71, #477, #1022 ) ) ;
#567 = CARTESIAN_POINT ( 'NONE',  ( 74.25000000000000000, 10.91999999999999993, 4.649999999999999467 ) ) ;
#568 = DIRECTION ( 'NONE',  ( 0.000000000000000000, -1.000000000000000000, 0.000000000000000000 ) ) ;
#569 = CARTESIAN_POINT ( 'NONE',  ( 50.00000000000000000, 10.91999999999999993, 10.50000000000000000 ) ) ;
#570 = ORIENTED_EDGE ( 'NONE', *, *, #805, .T. ) ;
#571 = ADVANCED_FACE ( 'NONE', ( #120 ), #124, .F. ) ;
#572 = FACE_OUTER_BOUND ( 'NONE', #328, .T. ) ;
#573 = LINE ( 'NONE', #390, #104 ) ;
#574 = CARTESIAN_POINT ( 'NONE',  ( 38.00000000000000000, 10.91999999999999993, 12.50000000000000000 ) ) ;
#575 = EDGE_LOOP ( 'NONE', ( #777, #554, #890, #761 ) ) ;
#576 = ADVANCED_FACE ( 'NONE', ( #582 ), #439, .F. ) ;
#577 = CARTESIAN_POINT ( 'NONE',  ( 62.70000000000000284, 8.920000000000001705, 4.649999999999999467 ) ) ;
#578 = DIRECTION ( 'NONE',  ( 1.000000000000000000, -7.779029040254750093E-16, 0.000000000000000000 ) ) ;
#579 = VECTOR ( 'NONE', #458, 1000.000000000000000 ) ;
#580 = VERTEX_POINT ( 'NONE', #577 ) ;
#581 = CARTESIAN_POINT ( 'NONE',  ( 0.000000000000000000, 0.000000000000000000, 12.50000000000000000 ) ) ;
#582 = FACE_OUTER_BOUND ( 'NONE', #334, .T. ) ;
#583 = LINE ( 'NONE', #129, #250 ) ;
#584 = ORIENTED_EDGE ( 'NONE', *, *, #225, .T. ) ;
#585 = CARTESIAN_POINT ( 'NONE',  ( 71.59999999999999432, 10.91999999999999993, 1.199999999999999956 ) ) ;
#586 = FACE_OUTER_BOUND ( 'NONE', #1021, .T. ) ;
#587 = PLANE ( 'NONE',  #594 ) ;
#588 = ADVANCED_FACE ( 'NONE', ( #754 ), #46, .F. ) ;
#589 = ORIENTED_EDGE ( 'NONE', *, *, #175, .F. ) ;
#590 = CARTESIAN_POINT ( 'NONE',  ( 8.500000000000000000, 0.000000000000000000, 7.450000000000000178 ) ) ;
#591 = DIRECTION ( 'NONE',  ( -1.000000000000000000, 0.000000000000000000, 0.000000000000000000 ) ) ;
#592 = CARTESIAN_POINT ( 'NONE',  ( 80.00000000000000000, 10.91999999999999993, 1.300000000000000044 ) ) ;
#593 = ORIENTED_EDGE ( 'NONE', *, *, #107, .F. ) ;
#594 = AXIS2_PLACEMENT_3D ( 'NONE', #740, #661, #905 ) ;
#595 = VECTOR ( 'NONE', #833, 1000.000000000000000 ) ;
#596 = VECTOR ( 'NONE', #809, 1000.000000000000000 ) ;
#597 = CARTESIAN_POINT ( 'NONE',  ( 41.00000000000000000, 12.50000000000000000, 11.00000000000000000 ) ) ;
#598 = DIRECTION ( 'NONE',  ( 1.000000000000000000, 1.652117596168389975E-16, 0.000000000000000000 ) ) ;
#599 = ORIENTED_EDGE ( 'NONE', *, *, #54, .F. ) ;
#600 = UNCERTAINTY_MEASURE_WITH_UNIT (LENGTH_MEASURE( 1.000000000000000082E-05 ), #552, 'distance_accuracy_value', 'NONE');
#601 = ADVANCED_FACE ( 'NONE', ( #675 ), #344, .F. ) ;
#602 = PLANE ( 'NONE',  #1 ) ;
#603 = CARTESIAN_POINT ( 'NONE',  ( 22.00000000000000000, 12.50000000000000000, 6.250000000000000000 ) ) ;
#604 = ORIENTED_EDGE ( 'NONE', *, *, #557, .T. ) ;
#605 = CARTESIAN_POINT ( 'NONE',  ( 80.00000000000000000, 10.91999999999999993, 11.29999999999999893 ) ) ;
#606 = EDGE_CURVE ( 'NONE', #963, #674, #511, .T. ) ;
#607 = DIRECTION ( 'NONE',  ( 0.000000000000000000, -1.000000000000000000, 0.000000000000000000 ) ) ;
#608 = ORIENTED_EDGE ( 'NONE', *, *, #149, .F. ) ;
#609 = ORIENTED_EDGE ( 'NONE', *, *, #175, .T. ) ;
#610 = VECTOR ( 'NONE', #739, 1000.000000000000000 ) ;
#611 = DIRECTION ( 'NONE',  ( 0.000000000000000000, -1.000000000000000000, 0.000000000000000000 ) ) ;
#612 = AXIS2_PLACEMENT_3D ( 'NONE', #547, #165, #82 ) ;
#613 = LINE ( 'NONE', #385, #845 ) ;
#614 = EDGE_CURVE ( 'NONE', #158, #256, #426, .T. ) ;
#615 = ORIENTED_EDGE ( 'NONE', *, *, #1011, .F. ) ;
#616 = ORIENTED_EDGE ( 'NONE', *, *, #951, .T. ) ;
#617 = DIRECTION ( 'NONE',  ( 1.000000000000000000, 0.000000000000000000, 0.000000000000000000 ) ) ;
#618 = CARTESIAN_POINT ( 'NONE',  ( 71.59999999999999432, 8.920000000000001705, 12.50000000000000000 ) ) ;
#619 = FACE_OUTER_BOUND ( 'NONE', #1016, .T. ) ;
#620 = VERTEX_POINT ( 'NONE', #187 ) ;
#621 = EDGE_CURVE ( 'NONE', #224, #441, #506, .T. ) ;
#622 = EDGE_LOOP ( 'NONE', ( #80, #486, #858, #59 ) ) ;
#623 = LINE ( 'NONE', #689, #436 ) ;
#624 = FACE_OUTER_BOUND ( 'NONE', #835, .T. ) ;
#625 = ORIENTED_EDGE ( 'NONE', *, *, #951, .F. ) ;
#626 = ORIENTED_EDGE ( 'NONE', *, *, #114, .T. ) ;
#627 = LINE ( 'NONE', #560, #647 ) ;
#628 = LINE ( 'NONE', #238, #379 ) ;
#629 = CIRCLE ( 'NONE', #186, 1.199999999999999734 ) ;
#630 = VERTEX_POINT ( 'NONE', #355 ) ;
#631 = ORIENTED_EDGE ( 'NONE', *, *, #162, .F. ) ;
#632 = LINE ( 'NONE', #955, #380 ) ;
#633 = EDGE_CURVE ( 'NONE', #722, #406, #821, .T. ) ;
#634 = CARTESIAN_POINT ( 'NONE',  ( 22.00000000000000000, 0.000000000000000000, 7.450000000000000178 ) ) ;
#635 = LINE ( 'NONE', #20, #778 ) ;
#636 = VERTEX_POINT ( 'NONE', #988 ) ;
#637 = CARTESIAN_POINT ( 'NONE',  ( 40.00000000000000000, 8.920000000000001705, 1.199999999999999956 ) ) ;
#638 = ADVANCED_FACE ( 'NONE', ( #351 ), #980, .F. ) ;
#639 = DIRECTION ( 'NONE',  ( 0.000000000000000000, 0.000000000000000000, 1.000000000000000000 ) ) ;
#640 = ORIENTED_EDGE ( 'NONE', *, *, #114, .F. ) ;
#641 = LINE ( 'NONE', #959, #366 ) ;
#642 = LINE ( 'NONE', #483, #879 ) ;
#643 = VECTOR ( 'NONE', #971, 1000.000000000000000 ) ;
#644 = ORIENTED_EDGE ( 'NONE', *, *, #937, .F. ) ;
#645 = AXIS2_PLACEMENT_3D ( 'NONE', #177, #12, #330 ) ;
#646 = EDGE_CURVE ( 'NONE', #454, #305, #373, .T. ) ;
#647 = VECTOR ( 'NONE', #15, 1000.000000000000000 ) ;
#648 = ORIENTED_EDGE ( 'NONE', *, *, #130, .T. ) ;
#649 = CARTESIAN_POINT ( 'NONE',  ( 40.00000000000000000, 8.920000000000001705, 12.50000000000000000 ) ) ;
#650 = DIRECTION ( 'NONE',  ( 1.000000000000000000, 1.652117596168389975E-16, 0.000000000000000000 ) ) ;
#651 = ORIENTED_EDGE ( 'NONE', *, *, #32, .F. ) ;
#652 = ORIENTED_EDGE ( 'NONE', *, *, #659, .F. ) ;
#653 = EDGE_CURVE ( 'NONE', #1018, #393, #623, .T. ) ;
#654 = CARTESIAN_POINT ( 'NONE',  ( 50.00000000000000000, 12.50000000000000000, 10.50000000000000000 ) ) ;
#655 = DIRECTION ( 'NONE',  ( 1.000000000000000000, 0.000000000000000000, 0.000000000000000000 ) ) ;
#656 = CYLINDRICAL_SURFACE ( 'NONE', #434, 1.199999999999999734 ) ;
#657 = ORIENTED_EDGE ( 'NONE', *, *, #392, .T. ) ;
#658 = DIRECTION ( 'NONE',  ( 0.000000000000000000, 0.000000000000000000, 1.000000000000000000 ) ) ;
#659 = EDGE_CURVE ( 'NONE', #912, #958, #310, .T. ) ;
#660 = DIRECTION ( 'NONE',  ( 0.000000000000000000, 1.000000000000000000, 0.000000000000000000 ) ) ;
#661 = DIRECTION ( 'NONE',  ( 0.000000000000000000, 0.000000000000000000, -1.000000000000000000 ) ) ;
#662 = AXIS2_PLACEMENT_3D ( 'NONE', #255, #183, #484 ) ;
#663 = CIRCLE ( 'NONE', #944, 1.600000000000004086 ) ;
#664 = VERTEX_POINT ( 'NONE', #65 ) ;
#665 = VECTOR ( 'NONE', #97, 1000.000000000000000 ) ;
#666 = DIRECTION ( 'NONE',  ( 0.000000000000000000, 0.000000000000000000, 1.000000000000000000 ) ) ;
#667 = CARTESIAN_POINT ( 'NONE',  ( 40.00000000000000000, 0.000000000000000000, 12.50000000000000000 ) ) ;
#668 = EDGE_CURVE ( 'NONE', #58, #1004, #779, .T. ) ;
#669 = PLANE ( 'NONE',  #233 ) ;
#670 = VERTEX_POINT ( 'NONE', #993 ) ;
#671 = LINE ( 'NONE', #442, #732 ) ;
#672 = DIRECTION ( 'NONE',  ( 1.000000000000000000, 0.000000000000000000, 0.000000000000000000 ) ) ;
#673 = CARTESIAN_POINT ( 'NONE',  ( 22.00000000000000000, 2.000000000000000000, 6.250000000000000000 ) ) ;
#674 = VERTEX_POINT ( 'NONE', #363 ) ;
#675 = FACE_OUTER_BOUND ( 'NONE', #4, .T. ) ;
#676 = CYLINDRICAL_SURFACE ( 'NONE', #694, 1.199999999999999734 ) ;
#677 = ORIENTED_EDGE ( 'NONE', *, *, #475, .T. ) ;
#678 = CIRCLE ( 'NONE', #878, 1.199999999999999734 ) ;
#679 = VECTOR ( 'NONE', #714, 1000.000000000000000 ) ;
#680 = AXIS2_PLACEMENT_3D ( 'NONE', #1009, #462, #521 ) ;
#681 = CARTESIAN_POINT ( 'NONE',  ( 8.500000000000000000, 0.000000000000000000, 6.250000000000000000 ) ) ;
#682 = CARTESIAN_POINT ( 'NONE',  ( 65.79999999999999716, 8.920000000000001705, 12.50000000000000000 ) ) ;
#683 = EDGE_LOOP ( 'NONE', ( #859, #251 ) ) ;
#684 = ADVANCED_FACE ( 'NONE', ( #73 ), #602, .F. ) ;
#685 = DIRECTION ( 'NONE',  ( -1.000000000000000000, -1.652117596168389975E-16, 0.000000000000000000 ) ) ;
#686 = CARTESIAN_POINT ( 'NONE',  ( 80.00000000000000000, 10.91999999999999993, 12.50000000000000000 ) ) ;
#687 = VERTEX_POINT ( 'NONE', #696 ) ;
#688 = EDGE_LOOP ( 'NONE', ( #194, #1012 ) ) ;
#689 = CARTESIAN_POINT ( 'NONE',  ( 80.00000000000000000, 8.920000000000001705, 0.000000000000000000 ) ) ;
#690 = EDGE_CURVE ( 'NONE', #958, #855, #210, .T. ) ;
#691 = LINE ( 'NONE', #922, #396 ) ;
#692 = ORIENTED_EDGE ( 'NONE', *, *, #357, .T. ) ;
#693 = ORIENTED_EDGE ( 'NONE', *, *, #99, .F. ) ;
#694 = AXIS2_PLACEMENT_3D ( 'NONE', #356, #29, #42 ) ;
#695 = STYLED_ITEM ( 'NONE', ( #231 ), #384 ) ;
#696 = CARTESIAN_POINT ( 'NONE',  ( 22.00000000000000000, 2.000000000000000000, 5.049999999999999822 ) ) ;
#697 = VECTOR ( 'NONE', #898, 1000.000000000000000 ) ;
#698 = CARTESIAN_POINT ( 'NONE',  ( 74.25000000000000000, 8.920000000000001705, 6.250000000000000000 ) ) ;
#699 = EDGE_CURVE ( 'NONE', #164, #580, #1001, .T. ) ;
#700 = ORIENTED_EDGE ( 'NONE', *, *, #66, .T. ) ;
#701 = ORIENTED_EDGE ( 'NONE', *, *, #392, .F. ) ;
#702 = DIRECTION ( 'NONE',  ( 0.000000000000000000, 0.000000000000000000, -1.000000000000000000 ) ) ;
#703 = DIRECTION ( 'NONE',  ( 0.000000000000000000, -1.000000000000000000, 0.000000000000000000 ) ) ;
#704 = ORIENTED_EDGE ( 'NONE', *, *, #502, .F. ) ;
#705 = VERTEX_POINT ( 'NONE', #847 ) ;
#706 = CARTESIAN_POINT ( 'NONE',  ( 41.00000000000000000, 12.50000000000000000, 11.00000000000000000 ) ) ;
#707 = DIRECTION ( 'NONE',  ( 0.000000000000000000, -1.000000000000000000, 0.000000000000000000 ) ) ;
#708 = EDGE_LOOP ( 'NONE', ( #891, #657, #648, #261 ) ) ;
#709 = ORIENTED_EDGE ( 'NONE', *, *, #99, .T. ) ;
#710 = EDGE_CURVE ( 'NONE', #493, #636, #852, .T. ) ;
#711 = DIRECTION ( 'NONE',  ( -1.000000000000000000, 0.000000000000000000, -3.738628180984494542E-17 ) ) ;
#712 = VECTOR ( 'NONE', #745, 1000.000000000000000 ) ;
#713 = AXIS2_PLACEMENT_3D ( 'NONE', #603, #703, #134 ) ;
#714 = DIRECTION ( 'NONE',  ( 0.000000000000000000, -1.000000000000000000, 0.000000000000000000 ) ) ;
#715 = AXIS2_PLACEMENT_3D ( 'NONE', #706, #945, #868 ) ;
#716 = LINE ( 'NONE', #414, #133 ) ;
#717 = ORIENTED_EDGE ( 'NONE', *, *, #756, .T. ) ;
#718 = EDGE_CURVE ( 'NONE', #664, #620, #881, .T. ) ;
#719 = PLANE ( 'NONE',  #927 ) ;
#720 = DIRECTION ( 'NONE',  ( 0.000000000000000000, 0.000000000000000000, 1.000000000000000000 ) ) ;
#721 = CYLINDRICAL_SURFACE ( 'NONE', #860, 1.599999999999999867 ) ;
#722 = VERTEX_POINT ( 'NONE', #837 ) ;
#723 = LINE ( 'NONE', #394, #814 ) ;
#724 = CARTESIAN_POINT ( 'NONE',  ( 80.00000000000000000, 10.91999999999999993, 0.000000000000000000 ) ) ;
#725 = EDGE_CURVE ( 'NONE', #393, #670, #447, .T. ) ;
#726 = EDGE_LOOP ( 'NONE', ( #608, #277, #741, #593 ) ) ;
#727 = VERTEX_POINT ( 'NONE', #140 ) ;
#728 = CARTESIAN_POINT ( 'NONE',  ( 62.70000000000000284, 8.920000000000001705, 6.250000000000000000 ) ) ;
#729 = LINE ( 'NONE', #18, #87 ) ;
#730 = LINE ( 'NONE', #966, #468 ) ;
#731 =( GEOMETRIC_REPRESENTATION_CONTEXT ( 3 ) GLOBAL_UNCERTAINTY_ASSIGNED_CONTEXT ( ( #600 ) ) GLOBAL_UNIT_ASSIGNED_CONTEXT ( ( #552, #886, #556 ) ) REPRESENTATION_CONTEXT ( 'NONE', 'WORKASPACE' ) );
#732 = VECTOR ( 'NONE', #262, 1000.000000000000000 ) ;
#733 = EDGE_LOOP ( 'NONE', ( #101, #371, #122, #677 ) ) ;
#734 = CARTESIAN_POINT ( 'NONE',  ( 80.00000000000000000, 8.920000000000001705, 0.000000000000000000 ) ) ;
#735 = DIRECTION ( 'NONE',  ( 0.000000000000000000, -1.000000000000000000, 0.000000000000000000 ) ) ;
#736 = VERTEX_POINT ( 'NONE', #457 ) ;
#737 = ORIENTED_EDGE ( 'NONE', *, *, #41, .T. ) ;
#738 =( LENGTH_UNIT ( ) NAMED_UNIT ( * ) SI_UNIT ( .MILLI., .METRE. ) );
#739 = DIRECTION ( 'NONE',  ( 0.000000000000000000, -1.000000000000000000, 0.000000000000000000 ) ) ;
#740 = CARTESIAN_POINT ( 'NONE',  ( 50.00000000000000000, 12.50000000000000000, 1.300000000000000044 ) ) ;
#741 = ORIENTED_EDGE ( 'NONE', *, *, #437, .T. ) ;
#742 = EDGE_CURVE ( 'NONE', #972, #736, #758, .T. ) ;
#743 = CARTESIAN_POINT ( 'NONE',  ( 59.00000000000000000, 8.920000000000001705, 1.300000000000000044 ) ) ;
#744 = DIRECTION ( 'NONE',  ( 0.000000000000000000, 0.000000000000000000, -1.000000000000000000 ) ) ;
#745 = DIRECTION ( 'NONE',  ( 0.000000000000000000, 0.000000000000000000, -1.000000000000000000 ) ) ;
#746 = VECTOR ( 'NONE', #410, 1000.000000000000000 ) ;
#747 = VERTEX_POINT ( 'NONE', #290 ) ;
#748 = AXIS2_PLACEMENT_3D ( 'NONE', #241, #482, #6 ) ;
#749 = DIRECTION ( 'NONE',  ( -1.000000000000000000, 0.000000000000000000, 0.000000000000000000 ) ) ;
#750 = DIRECTION ( 'NONE',  ( 1.000000000000000000, 0.000000000000000000, 0.000000000000000000 ) ) ;
#751 = DIRECTION ( 'NONE',  ( 0.000000000000000000, 0.000000000000000000, -1.000000000000000000 ) ) ;
#752 = VERTEX_POINT ( 'NONE', #933 ) ;
#753 = FACE_BOUND ( 'NONE', #508, .T. ) ;
#754 = FACE_OUTER_BOUND ( 'NONE', #109, .T. ) ;
#755 = LINE ( 'NONE', #448, #103 ) ;
#756 = EDGE_CURVE ( 'NONE', #803, #1004, #438, .T. ) ;
#757 = ORIENTED_EDGE ( 'NONE', *, *, #1002, .F. ) ;
#758 = LINE ( 'NONE', #298, #219 ) ;
#759 = CARTESIAN_POINT ( 'NONE',  ( 50.00000000000000000, 10.91999999999999993, 12.50000000000000000 ) ) ;
#760 = EDGE_CURVE ( 'NONE', #674, #226, #928, .T. ) ;
#761 = ORIENTED_EDGE ( 'NONE', *, *, #646, .T. ) ;
#762 = CIRCLE ( 'NONE', #662, 1.199999999999999734 ) ;
#763 = ORIENTED_EDGE ( 'NONE', *, *, #349, .F. ) ;
#764 = AXIS2_PLACEMENT_3D ( 'NONE', #284, #984, #856 ) ;
#765 = CARTESIAN_POINT ( 'NONE',  ( 40.00000000000000000, 0.000000000000000000, 0.000000000000000000 ) ) ;
#766 = LINE ( 'NONE', #525, #579 ) ;
#767 = ORIENTED_EDGE ( 'NONE', *, *, #429, .F. ) ;
#768 = EDGE_CURVE ( 'NONE', #636, #549, #222, .T. ) ;
#769 = DIRECTION ( 'NONE',  ( 0.000000000000000000, -1.000000000000000000, 0.000000000000000000 ) ) ;
#770 = CARTESIAN_POINT ( 'NONE',  ( 74.25000000000000000, 10.91999999999999993, 7.849999999999999645 ) ) ;
#771 = ORIENTED_EDGE ( 'NONE', *, *, #423, .T. ) ;
#772 = EDGE_LOOP ( 'NONE', ( #304, #309, #411, #932 ) ) ;
#773 = ADVANCED_FACE ( 'NONE', ( #841, #774, #227, #377, #56, #542 ), #368, .F. ) ;
#774 = FACE_BOUND ( 'NONE', #781, .T. ) ;
#775 = DIRECTION ( 'NONE',  ( 0.000000000000000000, 0.000000000000000000, -1.000000000000000000 ) ) ;
#776 = ORIENTED_EDGE ( 'NONE', *, *, #294, .T. ) ;
#777 = ORIENTED_EDGE ( 'NONE', *, *, #832, .T. ) ;
#778 = VECTOR ( 'NONE', #639, 1000.000000000000000 ) ;
#779 = LINE ( 'NONE', #132, #896 ) ;
#780 = PLANE ( 'NONE',  #185 ) ;
#781 = EDGE_LOOP ( 'NONE', ( #874, #1000 ) ) ;
#782 = VERTEX_POINT ( 'NONE', #93 ) ;
#783 = DIRECTION ( 'NONE',  ( 0.000000000000000000, 0.000000000000000000, -1.000000000000000000 ) ) ;
#784 = CARTESIAN_POINT ( 'NONE',  ( 80.00000000000000000, 10.91999999999999993, 12.50000000000000000 ) ) ;
#785 = EDGE_CURVE ( 'NONE', #855, #454, #723, .T. ) ;
#786 = ORIENTED_EDGE ( 'NONE', *, *, #718, .F. ) ;
#787 = ORIENTED_EDGE ( 'NONE', *, *, #289, .F. ) ;
#788 = FACE_BOUND ( 'NONE', #683, .T. ) ;
#789 = LINE ( 'NONE', #395, #679 ) ;
#790 = DIRECTION ( 'NONE',  ( 0.000000000000000000, -1.000000000000000000, 0.000000000000000000 ) ) ;
#791 = EDGE_CURVE ( 'NONE', #256, #926, #632, .T. ) ;
#792 = VERTEX_POINT ( 'NONE', #487 ) ;
#793 = CARTESIAN_POINT ( 'NONE',  ( 8.500000000000000000, 12.50000000000000000, 6.250000000000000000 ) ) ;
#794 = AXIS2_PLACEMENT_3D ( 'NONE', #74, #57, #1003 ) ;
#795 = CARTESIAN_POINT ( 'NONE',  ( 41.00000000000000000, 12.50000000000000000, 11.00000000000000000 ) ) ;
#796 = VECTOR ( 'NONE', #702, 1000.000000000000000 ) ;
#797 = LINE ( 'NONE', #807, #528 ) ;
#798 = EDGE_LOOP ( 'NONE', ( #387, #288, #22, #449 ) ) ;
#799 = EDGE_CURVE ( 'NONE', #999, #305, #627, .T. ) ;
#800 = DIRECTION ( 'NONE',  ( 1.000000000000000000, 0.000000000000000000, 0.000000000000000000 ) ) ;
#801 = LINE ( 'NONE', #94, #217 ) ;
#802 = FACE_OUTER_BOUND ( 'NONE', #53, .T. ) ;
#803 = VERTEX_POINT ( 'NONE', #246 ) ;
#804 = FACE_OUTER_BOUND ( 'NONE', #55, .T. ) ;
#805 = EDGE_CURVE ( 'NONE', #513, #906, #473, .T. ) ;
#806 = DIRECTION ( 'NONE',  ( 0.000000000000000000, 0.000000000000000000, -1.000000000000000000 ) ) ;
#807 = CARTESIAN_POINT ( 'NONE',  ( 80.00000000000000000, 10.91999999999999993, 10.50000000000000000 ) ) ;
#808 = EDGE_LOOP ( 'NONE', ( #147, #941, #992, #472 ) ) ;
#809 = DIRECTION ( 'NONE',  ( 0.000000000000000000, 0.000000000000000000, 1.000000000000000000 ) ) ;
#810 = CARTESIAN_POINT ( 'NONE',  ( 8.500000000000000000, 2.000000000000000000, 6.250000000000000000 ) ) ;
#811 = VECTOR ( 'NONE', #212, 1000.000000000000000 ) ;
#812 = LINE ( 'NONE', #962, #746 ) ;
#813 = CIRCLE ( 'NONE', #794, 1.600000000000004086 ) ;
#814 = VECTOR ( 'NONE', #254, 1000.000000000000000 ) ;
#815 = ORIENTED_EDGE ( 'NONE', *, *, #455, .F. ) ;
#816 =( NAMED_UNIT ( * ) PLANE_ANGLE_UNIT ( ) SI_UNIT ( $, .RADIAN. ) );
#817 = FACE_OUTER_BOUND ( 'NONE', #829, .T. ) ;
#818 = CARTESIAN_POINT ( 'NONE',  ( 1.015900185656328148E-16, 2.000000000000000000, 12.50000000000000000 ) ) ;
#819 = ORIENTED_EDGE ( 'NONE', *, *, #1011, .T. ) ;
#820 = CARTESIAN_POINT ( 'NONE',  ( 80.00000000000000000, 10.91999999999999993, 12.50000000000000000 ) ) ;
#821 = LINE ( 'NONE', #115, #911 ) ;
#822 = DIRECTION ( 'NONE',  ( 1.000000000000000000, 0.000000000000000000, 0.000000000000000000 ) ) ;
#823 = ORIENTED_EDGE ( 'NONE', *, *, #725, .F. ) ;
#824 = ADVANCED_FACE ( 'NONE', ( #329 ), #719, .F. ) ;
#825 = CARTESIAN_POINT ( 'NONE',  ( 8.500000000000000000, 12.50000000000000000, 5.049999999999999822 ) ) ;
#826 = DIRECTION ( 'NONE',  ( 0.000000000000000000, 0.000000000000000000, 1.000000000000000000 ) ) ;
#827 = CARTESIAN_POINT ( 'NONE',  ( 41.00000000000000000, 10.91999999999999993, 11.00000000000000000 ) ) ;
#828 = VECTOR ( 'NONE', #488, 1000.000000000000000 ) ;
#829 = EDGE_LOOP ( 'NONE', ( #987, #205, #1007, #221 ) ) ;
#830 = AXIS2_PLACEMENT_3D ( 'NONE', #536, #139, #617 ) ;
#831 = LINE ( 'NONE', #820, #155 ) ;
#832 = EDGE_CURVE ( 'NONE', #305, #727, #335, .T. ) ;
#833 = DIRECTION ( 'NONE',  ( -1.000000000000000000, -1.255391989193741911E-16, 0.000000000000000000 ) ) ;
#834 = CARTESIAN_POINT ( 'NONE',  ( 38.00000000000000000, 10.91999999999999993, 12.50000000000000000 ) ) ;
#835 = EDGE_LOOP ( 'NONE', ( #849, #464, #954, #948 ) ) ;
#836 = APPLICATION_PROTOCOL_DEFINITION ( 'draft international standard', 'automotive_design', 1998, #362 ) ;
#837 = CARTESIAN_POINT ( 'NONE',  ( 41.00000000000000000, 8.920000000000001705, 11.00000000000000000 ) ) ;
#838 = EDGE_CURVE ( 'NONE', #353, #630, #641, .T. ) ;
#839 = LINE ( 'NONE', #759, #643 ) ;
#840 = ORIENTED_EDGE ( 'NONE', *, *, #526, .F. ) ;
#841 = FACE_BOUND ( 'NONE', #978, .T. ) ;
#842 = DIRECTION ( 'NONE',  ( 0.000000000000000000, 0.000000000000000000, 1.000000000000000000 ) ) ;
#843 = ORIENTED_EDGE ( 'NONE', *, *, #557, .F. ) ;
#844 = VECTOR ( 'NONE', #374, 1000.000000000000000 ) ;
#845 = VECTOR ( 'NONE', #228, 1000.000000000000000 ) ;
#846 = VECTOR ( 'NONE', #128, 1000.000000000000000 ) ;
#847 = CARTESIAN_POINT ( 'NONE',  ( 8.500000000000000000, 2.000000000000000000, 5.049999999999999822 ) ) ;
#848 = DIRECTION ( 'NONE',  ( 0.000000000000000000, 1.000000000000000000, 0.000000000000000000 ) ) ;
#849 = ORIENTED_EDGE ( 'NONE', *, *, #621, .F. ) ;
#850 = EDGE_CURVE ( 'NONE', #580, #792, #268, .T. ) ;
#851 = VERTEX_POINT ( 'NONE', #567 ) ;
#852 = LINE ( 'NONE', #145, #796 ) ;
#853 = DIRECTION ( 'NONE',  ( 0.000000000000000000, -1.000000000000000000, 0.000000000000000000 ) ) ;
#854 = ORIENTED_EDGE ( 'NONE', *, *, #546, .T. ) ;
#855 = VERTEX_POINT ( 'NONE', #555 ) ;
#856 = DIRECTION ( 'NONE',  ( 0.000000000000000000, 0.000000000000000000, -1.000000000000000000 ) ) ;
#857 = CARTESIAN_POINT ( 'NONE',  ( 1.015900185656328148E-16, 2.000000000000000000, 0.000000000000000000 ) ) ;
#858 = ORIENTED_EDGE ( 'NONE', *, *, #467, .F. ) ;
#859 = ORIENTED_EDGE ( 'NONE', *, *, #526, .T. ) ;
#860 = AXIS2_PLACEMENT_3D ( 'NONE', #332, #790, #397 ) ;
#861 = CIRCLE ( 'NONE', #252, 1.600000000000000755 ) ;
#862 = CARTESIAN_POINT ( 'NONE',  ( 38.00000000000000000, 2.000000000000000000, 0.000000000000000000 ) ) ;
#863 = ADVANCED_FACE ( 'NONE', ( #490 ), #172, .F. ) ;
#864 = AXIS2_PLACEMENT_3D ( 'NONE', #581, #102, #419 ) ;
#865 = CARTESIAN_POINT ( 'NONE',  ( 74.25000000000000000, 10.91999999999999993, 6.250000000000000000 ) ) ;
#866 = ORIENTED_EDGE ( 'NONE', *, *, #943, .F. ) ;
#867 = ORIENTED_EDGE ( 'NONE', *, *, #444, .T. ) ;
#868 = DIRECTION ( 'NONE',  ( 1.000000000000000000, 0.000000000000000000, 0.000000000000000000 ) ) ;
#869 = LINE ( 'NONE', #336, #564 ) ;
#870 = EDGE_CURVE ( 'NONE', #851, #312, #961, .T. ) ;
#871 = CARTESIAN_POINT ( 'NONE',  ( 41.00000000000000000, 10.91999999999999993, 12.50000000000000000 ) ) ;
#872 = ORIENTED_EDGE ( 'NONE', *, *, #495, .T. ) ;
#873 = FACE_OUTER_BOUND ( 'NONE', #265, .T. ) ;
#874 = ORIENTED_EDGE ( 'NONE', *, *, #718, .T. ) ;
#875 = ADVANCED_FACE ( 'NONE', ( #873 ), #230, .T. ) ;
#876 = VERTEX_POINT ( 'NONE', #862 ) ;
#877 = DIRECTION ( 'NONE',  ( 0.000000000000000000, -1.000000000000000000, 0.000000000000000000 ) ) ;
#878 = AXIS2_PLACEMENT_3D ( 'NONE', #673, #121, #203 ) ;
#879 = VECTOR ( 'NONE', #806, 1000.000000000000000 ) ;
#880 = DIRECTION ( 'NONE',  ( 0.000000000000000000, 1.000000000000000000, 0.000000000000000000 ) ) ;
#881 = CIRCLE ( 'NONE', #680, 1.600000000000000755 ) ;
#882 = CARTESIAN_POINT ( 'NONE',  ( 41.00000000000000000, 8.920000000000001705, 3.000000000000000000 ) ) ;
#883 = ORIENTED_EDGE ( 'NONE', *, *, #7, .T. ) ;
#884 = ADVANCED_FACE ( 'NONE', ( #804 ), #1019, .F. ) ;
#885 = CARTESIAN_POINT ( 'NONE',  ( 74.25000000000000000, 10.91999999999999993, 6.250000000000000000 ) ) ;
#886 =( NAMED_UNIT ( * ) PLANE_ANGLE_UNIT ( ) SI_UNIT ( $, .RADIAN. ) );
#887 = PLANE ( 'NONE',  #16 ) ;
#888 = ORIENTED_EDGE ( 'NONE', *, *, #633, .T. ) ;
#889 = CARTESIAN_POINT ( 'NONE',  ( 71.59999999999999432, 10.91999999999999993, 11.29999999999999893 ) ) ;
#890 = ORIENTED_EDGE ( 'NONE', *, *, #785, .T. ) ;
#891 = ORIENTED_EDGE ( 'NONE', *, *, #320, .T. ) ;
#892 = CARTESIAN_POINT ( 'NONE',  ( 38.00000000000000000, 2.000000000000000000, 12.50000000000000000 ) ) ;
#893 = EDGE_CURVE ( 'NONE', #549, #1018, #160, .T. ) ;
#894 = VECTOR ( 'NONE', #248, 1000.000000000000000 ) ;
#895 = FACE_OUTER_BOUND ( 'NONE', #232, .T. ) ;
#896 = VECTOR ( 'NONE', #537, 1000.000000000000000 ) ;
#897 = ORIENTED_EDGE ( 'NONE', *, *, #668, .T. ) ;
#898 = DIRECTION ( 'NONE',  ( 0.000000000000000000, -1.000000000000000000, 0.000000000000000000 ) ) ;
#899 = DIRECTION ( 'NONE',  ( 0.000000000000000000, 0.000000000000000000, 1.000000000000000000 ) ) ;
#900 = ADVANCED_FACE ( 'NONE', ( #2, #788, #321 ), #949, .F. ) ;
#901 = PLANE ( 'NONE',  #69 ) ;
#902 = ORIENTED_EDGE ( 'NONE', *, *, #742, .F. ) ;
#903 = LINE ( 'NONE', #825, #697 ) ;
#904 = DIRECTION ( 'NONE',  ( -8.673617379884029556E-16, -1.432983589573835960E-31, 1.000000000000000000 ) ) ;
#905 = DIRECTION ( 'NONE',  ( 0.000000000000000000, -1.000000000000000000, 0.000000000000000000 ) ) ;
#906 = VERTEX_POINT ( 'NONE', #89 ) ;
#907 = ADVANCED_FACE ( 'NONE', ( #403 ), #324, .F. ) ;
#908 = LINE ( 'NONE', #500, #253 ) ;
#909 = DIRECTION ( 'NONE',  ( 0.000000000000000000, 1.000000000000000000, 0.000000000000000000 ) ) ;
#910 = CARTESIAN_POINT ( 'NONE',  ( 65.79999999999999716, 12.50000000000000000, 1.199999999999999956 ) ) ;
#911 = VECTOR ( 'NONE', #672, 1000.000000000000000 ) ;
#912 = VERTEX_POINT ( 'NONE', #889 ) ;
#913 = UNCERTAINTY_MEASURE_WITH_UNIT (LENGTH_MEASURE( 1.000000000000000082E-05 ), #738, 'distance_accuracy_value', 'NONE');
#914 = PRODUCT_RELATED_PRODUCT_CATEGORY ( 'part', '', ( #399 ) ) ;
#915 = CARTESIAN_POINT ( 'NONE',  ( 40.00000000000000000, 8.920000000000001705, 12.50000000000000000 ) ) ;
#916 = LINE ( 'NONE', #271, #562 ) ;
#917 = EDGE_LOOP ( 'NONE', ( #471, #995, #700, #476 ) ) ;
#918 = DIRECTION ( 'NONE',  ( 0.000000000000000000, -1.000000000000000000, 0.000000000000000000 ) ) ;
#919 = FACE_BOUND ( 'NONE', #520, .T. ) ;
#920 = ORIENTED_EDGE ( 'NONE', *, *, #930, .F. ) ;
#921 = DIRECTION ( 'NONE',  ( 1.000000000000000000, 0.000000000000000000, 8.673617379884029556E-16 ) ) ;
#922 = CARTESIAN_POINT ( 'NONE',  ( 59.00000000000000000, 10.91999999999999993, 12.50000000000000000 ) ) ;
#923 = ADVANCED_FACE ( 'NONE', ( #39 ), #273, .F. ) ;
#924 = VERTEX_POINT ( 'NONE', #743 ) ;
#925 = AXIS2_PLACEMENT_3D ( 'NONE', #667, #591, #421 ) ;
#926 = VERTEX_POINT ( 'NONE', #969 ) ;
#927 = AXIS2_PLACEMENT_3D ( 'NONE', #407, #11, #156 ) ;
#928 = LINE ( 'NONE', #1014, #350 ) ;
#929 = CYLINDRICAL_SURFACE ( 'NONE', #713, 1.199999999999999734 ) ;
#930 = EDGE_CURVE ( 'NONE', #361, #391, #831, .T. ) ;
#931 = VERTEX_POINT ( 'NONE', #515 ) ;
#932 = ORIENTED_EDGE ( 'NONE', *, *, #331, .T. ) ;
#933 = CARTESIAN_POINT ( 'NONE',  ( 41.00000000000000000, 10.91999999999999993, 3.000000000000000000 ) ) ;
#934 = DIRECTION ( 'NONE',  ( 0.000000000000000000, 0.000000000000000000, 1.000000000000000000 ) ) ;
#935 = EDGE_LOOP ( 'NONE', ( #843, #167, #25, #85 ) ) ;
#936 = EDGE_LOOP ( 'NONE', ( #615, #313, #179, #117 ) ) ;
#937 = EDGE_CURVE ( 'NONE', #963, #48, #190, .T. ) ;
#938 = DIRECTION ( 'NONE',  ( 0.000000000000000000, 0.000000000000000000, -1.000000000000000000 ) ) ;
#939 = SURFACE_STYLE_USAGE ( .BOTH. , #1015 ) ;
#940 = ORIENTED_EDGE ( 'NONE', *, *, #850, .T. ) ;
#941 = ORIENTED_EDGE ( 'NONE', *, *, #502, .T. ) ;
#942 = CIRCLE ( 'NONE', #333, 1.600000000000004086 ) ;
#943 = EDGE_CURVE ( 'NONE', #158, #876, #23, .T. ) ;
#944 = AXIS2_PLACEMENT_3D ( 'NONE', #83, #707, #325 ) ;
#945 = DIRECTION ( 'NONE',  ( 0.000000000000000000, 0.000000000000000000, 1.000000000000000000 ) ) ;
#946 = CARTESIAN_POINT ( 'NONE',  ( 40.00000000000000000, 0.000000000000000000, 12.50000000000000000 ) ) ;
#947 = ORIENTED_EDGE ( 'NONE', *, *, #893, .T. ) ;
#948 = ORIENTED_EDGE ( 'NONE', *, *, #974, .T. ) ;
#949 = PLANE ( 'NONE',  #748 ) ;
#950 = PLANE ( 'NONE',  #991 ) ;
#951 = EDGE_CURVE ( 'NONE', #48, #131, #671, .T. ) ;
#952 = DIRECTION ( 'NONE',  ( 0.000000000000000000, -1.000000000000000000, 0.000000000000000000 ) ) ;
#953 = PRODUCT_DEFINITION_SHAPE ( 'NONE', 'NONE',  #986 ) ;
#954 = ORIENTED_EDGE ( 'NONE', *, *, #107, .T. ) ;
#955 = CARTESIAN_POINT ( 'NONE',  ( 1.015900185656328148E-16, 2.000000000000000000, 12.50000000000000000 ) ) ;
#956 = LINE ( 'NONE', #409, #137 ) ;
#957 = CARTESIAN_POINT ( 'NONE',  ( 38.00000000000000000, 10.91999999999999993, 12.50000000000000000 ) ) ;
#958 = VERTEX_POINT ( 'NONE', #347 ) ;
#959 = CARTESIAN_POINT ( 'NONE',  ( 59.00000000000000000, 12.50000000000000000, 10.50000000000000000 ) ) ;
#960 = LINE ( 'NONE', #795, #417 ) ;
#961 = CIRCLE ( 'NONE', #485, 1.600000000000004086 ) ;
#962 = CARTESIAN_POINT ( 'NONE',  ( 38.00000000000000000, 2.000000000000000000, 0.000000000000000000 ) ) ;
#963 = VERTEX_POINT ( 'NONE', #983 ) ;
#964 = CARTESIAN_POINT ( 'NONE',  ( 62.70000000000000284, 12.50000000000000000, 6.250000000000000000 ) ) ;
#965 = CARTESIAN_POINT ( 'NONE',  ( 65.79999999999999716, 12.50000000000000000, 11.29999999999999893 ) ) ;
#966 = CARTESIAN_POINT ( 'NONE',  ( 22.00000000000000000, 12.50000000000000000, 5.049999999999999822 ) ) ;
#967 = ORIENTED_EDGE ( 'NONE', *, *, #211, .T. ) ;
#968 = ADVANCED_FACE ( 'NONE', ( #572 ), #118, .F. ) ;
#969 = CARTESIAN_POINT ( 'NONE',  ( 0.000000000000000000, 0.000000000000000000, 12.50000000000000000 ) ) ;
#970 = CARTESIAN_POINT ( 'NONE',  ( 59.00000000000000000, 12.50000000000000000, 1.300000000000000044 ) ) ;
#971 = DIRECTION ( 'NONE',  ( 0.000000000000000000, 0.000000000000000000, -1.000000000000000000 ) ) ;
#972 = VERTEX_POINT ( 'NONE', #979 ) ;
#973 = DIRECTION ( 'NONE',  ( 0.000000000000000000, 0.000000000000000000, -1.000000000000000000 ) ) ;
#974 = EDGE_CURVE ( 'NONE', #5, #441, #19, .T. ) ;
#975 = LINE ( 'NONE', #518, #499 ) ;
#976 = DIRECTION ( 'NONE',  ( -7.779029040254750093E-16, -1.000000000000000000, 0.000000000000000000 ) ) ;
#977 = VECTOR ( 'NONE', #711, 1000.000000000000000 ) ;
#978 = EDGE_LOOP ( 'NONE', ( #616, #43, #888, #737 ) ) ;
#979 = CARTESIAN_POINT ( 'NONE',  ( 50.00000000000000000, 10.91999999999999993, 1.300000000000000044 ) ) ;
#980 = CYLINDRICAL_SURFACE ( 'NONE', #764, 1.599999999999999867 ) ;
#981 = LINE ( 'NONE', #507, #119 ) ;
#982 = ORIENTED_EDGE ( 'NONE', *, *, #282, .T. ) ;
#983 = CARTESIAN_POINT ( 'NONE',  ( 46.50000000000000000, 10.91999999999999993, 3.000000000000000000 ) ) ;
#984 = DIRECTION ( 'NONE',  ( 0.000000000000000000, -1.000000000000000000, 0.000000000000000000 ) ) ;
#985 = DIRECTION ( 'NONE',  ( 0.000000000000000000, 0.000000000000000000, -1.000000000000000000 ) ) ;
#986 = PRODUCT_DEFINITION ( 'UNKNOWN', '', #418, #44 ) ;
#987 = ORIENTED_EDGE ( 'NONE', *, *, #444, .F. ) ;
#988 = CARTESIAN_POINT ( 'NONE',  ( 40.00000000000000000, 0.000000000000000000, 0.000000000000000000 ) ) ;
#989 = CARTESIAN_POINT ( 'NONE',  ( 80.00000000000000000, 8.920000000000001705, 12.50000000000000000 ) ) ;
#990 = VECTOR ( 'NONE', #405, 1000.000000000000000 ) ;
#991 = AXIS2_PLACEMENT_3D ( 'NONE', #965, #182, #161 ) ;
#992 = ORIENTED_EDGE ( 'NONE', *, *, #850, .F. ) ;
#993 = CARTESIAN_POINT ( 'NONE',  ( 38.00000000000000000, 10.91999999999999993, 0.000000000000000000 ) ) ;
#994 = LINE ( 'NONE', #532, #811 ) ;
#995 = ORIENTED_EDGE ( 'NONE', *, *, #86, .T. ) ;
#996 = EDGE_CURVE ( 'NONE', #999, #912, #195, .T. ) ;
#997 = DIRECTION ( 'NONE',  ( -8.673617379884029556E-16, 0.000000000000000000, 1.000000000000000000 ) ) ;
#998 = FILL_AREA_STYLE ('',( #453 ) ) ;
#999 = VERTEX_POINT ( 'NONE', #585 ) ;
#1000 = ORIENTED_EDGE ( 'NONE', *, *, #289, .T. ) ;
#1001 = LINE ( 'NONE', #530, #72 ) ;
#1002 = EDGE_CURVE ( 'NONE', #705, #803, #903, .T. ) ;
#1003 = DIRECTION ( 'NONE',  ( 1.000000000000000000, 0.000000000000000000, 0.000000000000000000 ) ) ;
#1004 = VERTEX_POINT ( 'NONE', #590 ) ;
#1005 = VECTOR ( 'NONE', #598, 1000.000000000000000 ) ;
#1006 = VECTOR ( 'NONE', #685, 1000.000000000000000 ) ;
#1007 = ORIENTED_EDGE ( 'NONE', *, *, #799, .T. ) ;
#1008 = AXIS2_PLACEMENT_3D ( 'NONE', #964, #435, #430 ) ;
#1009 = CARTESIAN_POINT ( 'NONE',  ( 74.25000000000000000, 8.920000000000001705, 6.250000000000000000 ) ) ;
#1010 = FACE_BOUND ( 'NONE', #1013, .T. ) ;
#1011 = EDGE_CURVE ( 'NONE', #674, #406, #908, .T. ) ;
#1012 = ORIENTED_EDGE ( 'NONE', *, *, #149, .T. ) ;
#1013 = EDGE_LOOP ( 'NONE', ( #292, #872 ) ) ;
#1014 = CARTESIAN_POINT ( 'NONE',  ( 80.00000000000000000, 10.91999999999999993, 11.00000000000000000 ) ) ;
#1015 = SURFACE_SIDE_STYLE ('',( #538 ) ) ;
#1016 = EDGE_LOOP ( 'NONE', ( #644, #815, #138, #625 ) ) ;
#1017 = ADVANCED_FACE ( 'NONE', ( #753, #45, #358 ), #494, .F. ) ;
#1018 = VERTEX_POINT ( 'NONE', #734 ) ;
#1019 = PLANE ( 'NONE',  #715 ) ;
#1020 = DIRECTION ( 'NONE',  ( 0.000000000000000000, 0.000000000000000000, 1.000000000000000000 ) ) ;
#1021 = EDGE_LOOP ( 'NONE', ( #460, #559, #604, #96 ) ) ;
#1022 = ORIENTED_EDGE ( 'NONE', *, *, #943, .T. ) ;
#1023 = VECTOR ( 'NONE', #239, 1000.000000000000000 ) ;
ENDSEC;
END-ISO-10303-21;
